<svg width="381" height="281" viewBox="0 0 381 281" fill="none" xmlns="http://www.w3.org/2000/svg">
<g clip-path="url(#clip0_103_9)">
<path opacity="0.1" d="M4.10059 134.722C10.1168 157.97 22.842 178.066 42.9515 187.808C84.7568 208.053 179.039 197.612 249.405 185.626C285.803 179.427 317.796 162.319 341.037 138.244L4.10059 134.722Z" fill="#30E3CA"/>
<path opacity="0.1" d="M373.096 25.2911H334.488C332.656 25.2911 331.152 23.9335 331.152 22.2747C331.152 20.6159 332.656 19.2549 334.488 19.2549H341.166C339.33 19.2549 337.83 17.8973 337.83 16.235C337.83 14.5727 339.33 13.2187 341.166 13.2187H336.4C334.564 13.2187 333.061 11.8611 333.061 10.1988C333.061 8.53654 334.564 7.18246 336.4 7.18246H356.551C352.079 5.302 346.853 3.96524 340.83 3.26223C285.88 -3.12028 266.262 1.10125 259.342 5.44052C250.716 10.9165 241.135 14.7162 231.1 16.6402C197.199 22.9673 133.798 30.5792 76.3338 14.216C47.7732 6.06734 26.5449 19.8193 13.8232 42.8075H379.802C379.324 36.1271 377.893 29.9559 375.268 24.5569C374.646 25.0369 373.882 25.2953 373.096 25.2911Z" fill="#30E3CA"/>
<path opacity="0.1" d="M0.827954 86.1968C-0.654989 99.7173 -0.150893 113.382 2.32422 126.757L341.297 137.974C350.628 128.297 358.556 117.361 364.85 105.483L0.827954 86.1968ZM134.896 115.131H128.222C130.057 115.131 131.561 116.492 131.561 118.151C131.561 119.81 130.057 121.167 128.222 121.167H89.6132C87.781 121.167 86.2778 119.81 86.2778 118.151C86.2778 116.492 87.781 115.131 89.6132 115.131H96.291C94.4553 115.131 92.9555 113.774 92.9555 112.115C92.9555 110.456 94.4553 109.095 96.291 109.095H91.5216C89.6859 109.095 88.1827 107.737 88.1827 106.078C88.1827 104.42 89.6859 103.059 91.5216 103.059H130.13C131.966 103.059 133.465 104.416 133.465 106.078C133.465 107.741 131.966 109.095 130.13 109.095H134.896C136.732 109.095 138.231 110.452 138.231 112.115C138.231 113.777 136.732 115.131 134.896 115.131Z" fill="#30E3CA"/>
<path opacity="0.1" d="M379.815 43.0153L9.73926 51.1536C5.23662 61.6225 2.25102 73.4594 0.875977 85.7258H373.331C375.755 78.5492 377.554 71.1765 378.707 63.69C379.819 56.4833 380.262 49.512 379.815 43.0153ZM76.0147 69.6985H69.3404C71.1761 69.6985 72.6793 71.0595 72.6793 72.7183C72.6793 74.3772 71.1761 75.7382 69.3404 75.7382H30.732C28.8997 75.7382 27.3966 74.3772 27.3966 72.7183C27.3966 71.0595 28.8997 69.6985 30.732 69.6985H37.4097C35.5741 69.6985 34.0743 68.341 34.0743 66.6821C34.0743 65.0233 35.5741 63.6623 37.4097 63.6623H32.6404C30.8047 63.6623 29.3015 62.3048 29.3015 60.6459C29.3015 58.9871 30.8047 57.6261 32.6404 57.6261H71.2489C73.0845 57.6261 74.5843 58.9836 74.5843 60.6459C74.5843 62.3082 73.0845 63.6623 71.2489 63.6623H76.0147C77.8504 63.6623 79.3502 65.0233 79.3502 66.6821C79.3502 68.341 77.8504 69.6985 76.0147 69.6985Z" fill="#30E3CA"/>
<path opacity="0.1" d="M188.792 270.496C274.294 270.496 343.607 264.121 343.607 256.256C343.607 248.391 274.294 242.016 188.792 242.016C103.29 242.016 33.9775 248.391 33.9775 256.256C33.9775 264.121 103.29 270.496 188.792 270.496Z" fill="#30E3CA"/>
<path d="M346.579 138.635C346.577 138.611 346.577 138.587 346.579 138.562C346.579 138.524 346.579 138.49 346.579 138.455C346.509 138.058 346.36 137.68 346.139 137.343C345.346 136.075 344.242 135.031 342.932 134.31C340.646 133.056 337.504 132.519 336.59 130.126C336.309 129.385 336.302 128.578 336.164 127.803C335.921 126.594 335.365 125.47 334.551 124.544C333.737 123.619 332.694 122.923 331.526 122.528C330.439 122.165 329.264 122.064 328.208 121.614C325.846 120.61 324.599 118.134 323.543 115.844C322.176 112.889 320.809 109.933 319.442 106.975C318.403 107.498 317.059 107.252 316.086 106.598C315.148 105.9 314.401 104.977 313.914 103.914C312.504 101.178 311.898 98.0787 310.242 95.4744C308.587 92.8702 305.279 90.8131 302.356 91.9455C301.785 92.2306 301.195 92.4748 300.589 92.6762C298.085 93.2615 295.314 90.401 293.171 91.7897C292.814 92.018 292.524 92.3356 292.329 92.7109C292.327 92.6878 292.327 92.6646 292.329 92.6416C292.05 93.2049 291.894 93.8211 291.872 94.4493C291.872 94.5775 291.872 94.7021 291.872 94.8233C291.872 94.8441 291.872 94.8649 291.872 94.8857C291.872 95.3844 291.903 95.89 291.91 96.3956C291.918 96.8202 291.885 97.2446 291.813 97.6631V97.6285C291.772 97.864 291.712 98.0957 291.633 98.3211C291.075 99.8172 289.53 100.797 288.806 102.203V102.134C288.725 102.287 288.654 102.445 288.595 102.608C288.466 102.977 288.4 103.364 288.398 103.755C288.335 106.397 291.137 108.884 291.463 111.72C291.695 113.728 292.156 114.373 293.863 115.508L294.237 115.758C294.088 115.758 293.936 115.779 293.766 115.782C293.7 115.783 293.634 115.79 293.569 115.803C293.268 115.72 292.952 115.705 292.644 115.759C292.336 115.813 292.044 115.934 291.789 116.115C290.479 117.153 287.383 116.353 286.008 116.115C284.633 115.876 279.922 116.52 279.264 119.131C278.606 121.742 277.477 127.131 277.477 127.131C277.477 127.131 277.477 130.549 277.058 131.186C277.042 131.231 277.042 131.28 277.058 131.325C277.058 132.284 277.093 138.05 276.164 139.536C275.936 139.882 275.953 140.647 276.123 141.589C275.146 142.846 274.228 144.315 274.391 145.277C274.689 147.248 278.686 153.443 284.415 150.126C284.415 150.126 287.674 144.166 283.573 140.997L283.75 140.304C284.99 141.828 285.907 142.922 285.907 142.922C285.907 142.922 285.956 143.051 286.032 143.269H285.907C286.443 144.725 286.767 146.25 286.87 147.799C286.855 148.366 286.752 148.928 286.565 149.464H286.673C286.642 149.582 286.607 149.7 286.565 149.811C286.364 150.395 285.988 150.904 285.488 151.269C282.624 153.298 279.344 167.791 279.344 167.791C279.344 167.791 272.846 191.219 271.547 192.552C270.474 193.647 277.221 196.729 282.285 196.362C282.991 196.32 283.69 196.187 284.363 195.967C284.394 196.313 284.428 196.66 284.463 196.975C284.57 198.014 284.681 198.976 284.751 199.278C284.931 200.033 285.287 207.741 285.287 207.741C285.287 207.741 284.557 212.749 284.733 216.233C284.733 216.472 284.764 216.701 284.785 216.926L284.155 217.023C283.199 219.17 287.137 237.084 287.674 238.591C288.029 239.778 288.23 241.006 288.27 242.244C288.27 242.244 287.923 243.519 288.211 244.215C288.39 244.64 288.506 245.089 288.557 245.548C288.557 245.548 288.322 246.705 288.678 247.46C289.035 248.215 288.619 249.538 288.619 249.538C288.619 249.538 288.502 254.757 287.428 257.596C287.136 258.361 287.05 259.188 287.181 259.996C287.312 260.804 287.654 261.562 288.173 262.195C288.247 262.294 288.328 262.388 288.415 262.476C288.415 262.476 294.338 262.524 295.38 262.476H295.515C295.934 262.417 297.008 257.721 296.052 255.46C295.096 253.198 295.934 250.414 295.934 250.414V246.3C295.934 246.3 297.008 245.309 295.934 243.183C294.861 241.057 295.037 240.412 295.037 240.412C295.037 240.412 296.232 236.991 294.979 235.89C293.725 234.788 295.218 230.612 295.218 230.612L295.64 216.69C295.419 216.618 295.193 216.56 294.965 216.517C294.94 216.288 294.916 216.053 294.892 215.804C294.646 213.282 294.435 209.854 294.982 208.877C295.529 207.901 295.792 199.375 295.879 193.449L301.338 193.657C301.452 196.427 301.573 198.956 301.649 199.278C301.829 200.033 302.19 207.741 302.19 207.741C302.19 207.741 301.455 212.749 301.632 216.233C301.632 216.472 301.663 216.701 301.684 216.926L301.054 217.023C300.098 219.17 304.036 237.084 304.573 238.591C304.928 239.778 305.13 241.006 305.172 242.244C305.172 242.244 304.825 243.519 305.109 244.215C305.289 244.64 305.405 245.089 305.456 245.548C305.456 245.548 305.22 246.705 305.577 247.46C305.934 248.215 305.518 249.538 305.518 249.538C305.518 249.538 305.4 254.757 304.327 257.596C304.039 258.362 303.958 259.189 304.093 259.996C304.229 260.802 304.574 261.559 305.096 262.188C305.17 262.287 305.251 262.381 305.338 262.469C305.338 262.469 311.261 262.517 312.303 262.469H312.438C312.857 262.41 313.931 257.714 312.975 255.453C312.019 253.191 312.857 250.407 312.857 250.407V246.3C312.857 246.3 313.931 245.309 312.857 243.183C311.784 241.057 311.96 240.412 311.96 240.412C311.96 240.412 313.155 236.991 311.902 235.89C310.648 234.788 312.141 230.612 312.141 230.612L312.57 216.69C312.343 216.617 312.112 216.559 311.877 216.517C311.853 216.288 311.829 216.053 311.805 215.804C311.559 213.282 311.347 209.854 311.895 208.877C312.334 208.077 312.587 202.924 312.702 197.892C312.702 197.546 312.702 197.2 312.729 196.853C315.237 196.749 317.735 196.469 320.204 196.015C320.204 196.015 317.284 185.692 318.178 184.012C318.562 183.288 318.008 179.434 317.249 175.282C318.307 176.138 319.622 176.614 320.983 176.632C322.289 179.143 326.262 184.92 328.499 185.81C331.124 186.849 329.154 177.637 327.903 176.303C327.312 175.575 326.814 174.776 326.421 173.924C326.455 173.883 326.494 173.848 326.528 173.81C326.563 173.772 326.591 164.009 325.991 164.186C325.392 164.363 324.679 162.735 324.679 162.735L322.829 146.503L322.053 139.709C322.701 140.187 323.47 140.491 324.131 140.966C325.932 142.285 326.521 144.602 327.311 146.652C327.962 148.339 328.876 150.011 330.376 151.071C331.876 152.131 334.075 152.411 335.572 151.338C336.957 150.33 337.366 148.512 337.671 146.853C340.185 147.736 343.236 145.374 342.911 142.794C342.831 142.157 342.596 141.461 342.928 140.903C343.593 139.802 345.699 140.443 346.392 139.355C346.508 139.167 346.568 138.95 346.565 138.729C346.575 138.68 346.579 138.659 346.579 138.635ZM312.944 147.563C312.906 148.183 313.758 153.163 314.451 157.104C313.883 154.649 312.743 152.027 310.499 150.23C310.499 150.23 310.499 150.105 310.471 149.883H310.499C310.499 149.883 310.405 148.893 310.391 147.483C310.395 146.234 310.488 144.986 310.669 143.75V143.719H310.623C310.623 143.615 310.651 143.508 310.669 143.404C310.806 142.361 311.089 141.342 311.51 140.377C311.696 139.999 311.91 139.636 312.151 139.29C312.522 142.638 312.979 146.936 312.944 147.563ZM314.807 159.102C315.112 160.802 315.33 161.997 315.33 161.997L317.17 174.624V174.683C316.179 169.353 314.915 163.736 314.915 163.736C315.044 162.192 315.008 160.638 314.807 159.102Z" fill="url(#paint0_linear_103_9)"/>
<path d="M292.266 112.413C291.92 109.213 288.456 106.453 289.495 103.408C290.06 101.75 291.826 100.735 292.422 99.0865C292.817 97.9991 292.64 96.8043 292.644 95.6477C292.647 94.491 292.917 93.1992 293.88 92.5586C295.958 91.1733 298.632 94.0234 301.057 93.4416C301.643 93.2412 302.214 92.9981 302.764 92.7144C305.594 91.5889 308.794 93.639 310.384 96.2295C311.974 98.8199 312.57 101.909 313.934 104.631C314.4 105.682 315.122 106.6 316.033 107.301C316.975 107.952 318.264 108.198 319.282 107.678L323.248 116.509C324.287 118.785 325.479 121.25 327.751 122.251C328.769 122.698 329.905 122.798 330.958 123.162C332.102 123.566 333.12 124.263 333.911 125.183C334.701 126.104 335.235 127.216 335.461 128.409C335.596 129.184 335.599 129.988 335.873 130.725C336.756 133.108 339.793 133.641 342.007 134.881C343.287 135.603 344.36 136.642 345.124 137.898C345.47 138.497 345.768 139.283 345.398 139.872C344.729 140.952 342.696 140.315 342.052 141.413C341.726 141.967 341.955 142.659 342.052 143.297C342.367 145.863 339.412 148.214 336.981 147.335C336.687 148.986 336.288 150.798 334.951 151.798C333.514 152.872 331.384 152.588 329.933 151.535C328.481 150.482 327.602 148.817 326.971 147.137C326.206 145.094 325.634 142.787 323.892 141.475C323.262 141.004 322.507 140.699 321.89 140.225C320.505 139.165 319.812 137.416 319.317 135.723C318.676 133.61 318.167 131.439 317.239 129.444C316.31 127.449 314.842 125.593 312.83 124.682C310.942 123.834 308.767 123.889 306.817 123.2C303.461 122.016 300.977 119.193 297.638 117.863C296.571 117.415 295.56 116.843 294.625 116.16C292.945 115.055 292.488 114.414 292.266 112.413Z" fill="#3F3D56"/>
<g opacity="0.1">
<path opacity="0.1" d="M292.578 98.4077C292.65 98.2723 292.712 98.1323 292.765 97.9887C293.157 96.9012 292.983 95.7065 292.987 94.5498C292.987 94.164 293.023 93.7791 293.094 93.4C292.775 94.0843 292.619 94.8338 292.64 95.5887C292.637 96.5203 292.748 97.4969 292.578 98.4077Z" fill="black"/>
<path opacity="0.1" d="M335.277 150.711C333.84 151.781 331.71 151.501 330.258 150.444C328.807 149.388 327.924 147.729 327.311 146.043C326.545 144 325.977 141.693 324.232 140.381C323.605 139.91 322.846 139.601 322.233 139.13C320.848 138.071 320.155 136.322 319.656 134.646C319.016 132.533 318.51 130.362 317.578 128.367C316.647 126.372 315.185 124.516 313.169 123.605C311.285 122.757 309.11 122.812 307.16 122.123C303.8 120.939 301.317 118.116 297.981 116.786C296.914 116.337 295.901 115.765 294.965 115.083C293.323 113.95 292.886 113.31 292.644 111.311C292.298 108.312 289.25 105.698 289.724 102.872C289.647 103.025 289.579 103.182 289.52 103.343C288.481 106.39 291.944 109.15 292.291 112.347C292.516 114.345 292.983 114.986 294.611 116.118C295.548 116.8 296.56 117.372 297.628 117.822C300.964 119.152 303.447 121.978 306.807 123.159C308.757 123.851 310.932 123.792 312.816 124.641C314.832 125.552 316.279 127.411 317.225 129.403C318.171 131.394 318.676 133.558 319.303 135.681C319.812 137.357 320.481 139.106 321.88 140.166C322.507 140.637 323.265 140.945 323.879 141.416C325.61 142.729 326.192 145.035 326.958 147.078C327.588 148.758 328.471 150.42 329.922 151.473C331.374 152.526 333.504 152.81 334.941 151.74C335.859 151.047 336.327 149.991 336.635 148.858C336.361 149.589 335.891 150.23 335.277 150.711Z" fill="black"/>
<path opacity="0.1" d="M342.395 140.325C342.263 140.574 342.205 140.855 342.229 141.135C343.012 140.363 344.778 140.817 345.395 139.823C345.538 139.577 345.594 139.291 345.554 139.009C344.75 139.771 342.984 139.317 342.395 140.325Z" fill="black"/>
<path opacity="0.1" d="M337.307 146.247C337.241 146.593 337.175 146.964 337.092 147.324C339.211 147.986 341.66 146.285 342.007 144.138C341.165 145.79 339.087 146.895 337.307 146.247Z" fill="black"/>
</g>
<path d="M296.741 114.078C296.741 114.078 297.895 116.405 294.49 116.454C291.085 116.502 296.682 131.567 296.682 131.567L302.342 138.77L309.383 134.961L309.789 124.454L310.308 118.106C310.308 118.106 303.727 115.969 304.94 113.143C306.152 110.317 296.741 114.078 296.741 114.078Z" fill="#FBBEBE"/>
<path d="M317.181 175.5C317.181 175.5 321.337 179.59 326.186 174.163L322.463 170.212H317.752L317.181 175.5Z" fill="#575A89"/>
<path opacity="0.1" d="M317.63 170.212L317.059 175.5C317.059 175.5 321.215 179.59 326.064 174.163" fill="black"/>
<path d="M324.624 170.932C324.624 170.932 326.297 175.32 327.509 176.646C328.721 177.973 330.626 187.15 328.087 186.111C325.549 185.072 320.7 177.339 320.409 176.012C320.118 174.686 320.007 170.932 320.007 170.932H324.624Z" fill="#FBBEBE"/>
<path d="M288.314 193.442L310.71 194.308L308.112 184.84L296.831 184.611L288.314 193.442Z" fill="#575A89"/>
<path opacity="0.1" d="M291.429 193.442L313.828 194.308L311.23 184.84L299.946 184.611L291.429 193.442Z" fill="black"/>
<path d="M295.644 209.071C295.114 210.058 295.318 213.473 295.557 215.998C295.71 217.604 295.876 218.841 295.876 218.841C295.876 218.841 287.504 221.438 286.237 219.187C285.915 218.616 285.755 217.615 285.7 216.441C285.527 212.978 286.237 207.987 286.237 207.987C286.237 207.987 285.89 200.313 285.717 199.562C285.648 199.26 285.54 198.305 285.437 197.269C285.284 195.731 285.139 194.021 285.139 194.021L296.568 187.96C296.568 187.96 296.568 189.096 296.548 190.845C296.485 196.337 296.302 207.859 295.644 209.071Z" fill="#FBBEBE"/>
<path opacity="0.1" d="M295.876 218.841C295.876 218.841 287.505 221.438 286.237 219.187C285.915 218.616 285.756 217.615 285.7 216.441C287.432 216.178 292.704 215.45 295.558 215.997C295.71 217.604 295.876 218.841 295.876 218.841Z" fill="black"/>
<path d="M296.164 262.476H296.032C295.024 262.514 289.295 262.476 289.295 262.476C289.212 262.388 289.133 262.296 289.06 262.199C288.554 261.565 288.219 260.811 288.089 260.011C287.958 259.21 288.036 258.389 288.315 257.627C289.354 254.798 289.469 249.603 289.469 249.603C289.469 249.603 289.874 248.277 289.528 247.526C289.181 246.774 289.41 245.621 289.41 245.621C289.357 245.165 289.24 244.718 289.063 244.295C288.776 243.602 289.122 242.331 289.122 242.331C289.083 241.099 288.888 239.878 288.544 238.695C288.024 237.195 284.214 219.36 285.139 217.223C285.139 217.223 293.22 215.838 296.281 216.877L295.876 230.73C295.876 230.73 294.432 234.885 295.644 235.983C296.856 237.081 295.703 240.485 295.703 240.485C295.703 240.485 295.53 241.119 296.569 243.256C297.608 245.392 296.569 246.372 296.569 246.372V250.469C296.569 250.469 295.762 253.24 296.683 255.491C297.605 257.742 296.569 262.403 296.164 262.476Z" fill="#3F3D56"/>
<path d="M312.023 209.071C311.493 210.058 311.697 213.473 311.936 215.997C312.088 217.604 312.255 218.841 312.255 218.841C312.255 218.841 303.883 221.438 302.616 219.187C302.293 218.616 302.134 217.615 302.079 216.441C301.905 212.978 302.616 207.987 302.616 207.987C302.616 207.987 302.269 200.313 302.096 199.561C302.002 199.156 301.84 195.291 301.712 191.825C301.604 188.867 301.518 186.194 301.518 186.194L312.947 187.96C312.947 187.96 312.947 192.985 312.805 198.149C312.681 203.156 312.449 208.288 312.023 209.071Z" fill="#FBBEBE"/>
<path opacity="0.1" d="M312.255 218.841C312.255 218.841 303.884 221.438 302.616 219.187C302.294 218.616 302.135 217.615 302.079 216.441C303.811 216.178 309.082 215.45 311.936 215.997C312.089 217.604 312.255 218.841 312.255 218.841Z" fill="black"/>
<path d="M312.542 262.476H312.411C311.403 262.514 305.674 262.476 305.674 262.476C305.59 262.388 305.512 262.296 305.438 262.199C304.932 261.565 304.598 260.811 304.467 260.011C304.337 259.21 304.415 258.389 304.694 257.627C305.733 254.784 305.837 249.59 305.837 249.59C305.837 249.59 306.242 248.263 305.896 247.512C305.549 246.76 305.778 245.607 305.778 245.607C305.725 245.151 305.608 244.704 305.432 244.281C305.144 243.588 305.49 242.317 305.49 242.317C305.451 241.086 305.256 239.864 304.912 238.681C304.392 237.181 300.583 219.346 301.507 217.209C301.507 217.209 309.588 215.824 312.65 216.863L312.244 230.716C312.244 230.716 310.8 234.871 312.012 235.969C313.225 237.067 312.071 240.471 312.071 240.471C312.071 240.471 311.898 241.105 312.937 243.242C313.976 245.378 312.937 246.358 312.937 246.358V250.455C312.937 250.455 312.13 253.226 313.051 255.477C313.973 257.728 312.947 262.403 312.542 262.476Z" fill="#3F3D56"/>
<path opacity="0.1" d="M301.244 116.8C305.739 116.8 309.383 113.157 309.383 108.662C309.383 104.167 305.739 100.524 301.244 100.524C296.749 100.524 293.104 104.167 293.104 108.662C293.104 113.157 296.749 116.8 301.244 116.8Z" fill="black"/>
<path d="M301.244 116.454C305.739 116.454 309.383 112.81 309.383 108.316C309.383 103.821 305.739 100.177 301.244 100.177C296.749 100.177 293.104 103.821 293.104 108.316C293.104 112.81 296.749 116.454 301.244 116.454Z" fill="#FBBEBE"/>
<path opacity="0.1" d="M285.139 194.021L296.568 187.96C296.568 187.96 296.568 189.096 296.548 190.845C294.878 191.842 292.36 193.342 289.939 194.758C288.623 195.531 287.338 196.279 286.237 196.905C285.981 197.044 285.713 197.16 285.437 197.252C285.284 195.731 285.139 194.021 285.139 194.021Z" fill="black"/>
<path opacity="0.1" d="M312.947 187.946C312.947 187.946 312.947 192.971 312.805 198.135H312.764C311.91 198.165 311.055 198.139 310.204 198.055C308.711 197.896 307.516 197.501 307.087 196.718C306.217 195.195 303.783 193.255 301.725 191.811C301.618 188.854 301.531 186.18 301.531 186.18L312.947 187.946Z" fill="black"/>
<path d="M310.821 143.934C310.531 146.188 310.476 148.466 310.655 150.732C315.906 155.061 314.925 164.179 314.925 164.179C314.925 164.179 318.967 182.651 318.102 184.324C317.236 185.997 320.062 196.272 320.062 196.272C317.653 196.728 315.214 197.008 312.764 197.11C311.91 197.14 311.055 197.113 310.205 197.03C308.712 196.871 307.517 196.476 307.087 195.693C305.473 192.867 298.487 188.653 298.487 188.653C298.487 188.653 294.061 191.306 289.939 193.719C288.623 194.492 287.338 195.24 286.237 195.866C285.343 196.34 284.355 196.611 283.345 196.66C278.444 197.023 271.915 193.955 272.954 192.867C274.225 191.538 280.518 168.22 280.518 168.22C280.518 168.22 283.691 153.79 286.462 151.771C286.948 151.404 287.31 150.898 287.501 150.32C288.45 147.684 286.864 143.459 286.864 143.459C286.864 143.459 277.917 132.436 278.319 131.799C278.721 131.162 278.724 127.761 278.724 127.761C278.724 127.761 279.822 122.393 280.456 119.796C281.09 117.199 285.651 116.561 286.978 116.793C288.304 117.025 291.304 117.832 292.572 116.793C293.839 115.754 295.98 117.199 295.98 117.199L301.237 118.646L305.965 115.876C305.965 115.876 310.703 116.118 311.109 116.752C311.514 117.386 317.748 118.601 317.748 118.601C320.921 120.734 320.807 130.895 320.807 130.895C320.807 130.895 313.187 137.53 311.628 140.938C311.224 141.895 310.953 142.903 310.821 143.934Z" fill="#575A89"/>
<path d="M319.082 129.489L320.813 130.874L322.604 146.978L324.391 163.14C324.391 163.14 325.084 164.757 325.662 164.584C326.241 164.411 326.182 174.163 326.182 174.163C326.182 174.163 319.553 170.087 317.177 175.5L315.327 162.447C315.327 162.447 312.958 149.114 313.017 148.076C313.076 147.037 311.805 135.781 311.805 135.781L319.082 129.489Z" fill="#575A89"/>
<path d="M279.597 130.241L278.326 131.799C278.326 131.799 278.444 138.493 277.46 140.11C276.476 141.728 280.176 151.192 281.561 150.614C282.946 150.036 286.064 135.262 286.064 135.089C286.064 134.916 279.597 130.241 279.597 130.241Z" fill="#575A89"/>
<path d="M279.482 139.764C279.482 139.764 275.44 143.861 275.728 145.825C276.015 147.788 279.884 153.956 285.426 150.642C285.426 150.642 290.565 140.976 279.482 139.764Z" fill="#575A89"/>
<path opacity="0.1" d="M296.032 262.486C295.024 262.524 289.295 262.486 289.295 262.486C289.211 262.399 289.133 262.306 289.06 262.209C290.525 261.711 293.69 260.963 296.032 262.486Z" fill="black"/>
<path opacity="0.1" d="M312.417 262.486C311.41 262.524 305.681 262.486 305.681 262.486C305.597 262.399 305.518 262.306 305.445 262.209C306.903 261.711 310.069 260.963 312.417 262.486Z" fill="black"/>
<path opacity="0.1" d="M290.347 160.972C289.464 169.443 289.755 186.253 289.939 193.719C288.623 194.492 287.338 195.24 286.236 195.866C285.342 196.34 284.355 196.611 283.344 196.66C282.977 194.402 288.061 171.209 290.347 160.972Z" fill="black"/>
<path opacity="0.1" d="M291.428 156.165C291.404 156.287 290.985 158.129 290.348 160.972C290.597 158.545 290.943 156.803 291.428 156.165Z" fill="black"/>
<path opacity="0.1" d="M305.49 155.251C305.49 155.251 310.398 186.073 295.865 189.882C295.862 189.868 305.92 188.341 305.49 155.251Z" fill="black"/>
<path opacity="0.1" d="M312.765 197.11C311.911 197.14 311.055 197.113 310.205 197.03L306.284 154.887C308.785 156.522 311.777 186.429 312.765 197.11Z" fill="black"/>
<path opacity="0.1" d="M295.183 103.53C295.443 103.509 295.705 103.536 295.955 103.609C296.323 103.792 296.654 104.041 296.932 104.343C297.383 104.721 297.924 104.978 298.501 105.09C299.079 105.202 299.676 105.165 300.236 104.984C300.631 104.808 301.05 104.691 301.48 104.638C302.141 104.638 302.713 105.123 303.055 105.677C303.398 106.231 303.575 106.889 303.869 107.481C304.164 108.073 304.635 108.634 305.283 108.78C305.593 108.792 305.899 108.862 306.183 108.987C306.357 109.129 306.491 109.314 306.571 109.524C307.111 110.691 307.541 112.07 308.694 112.641C309.118 112.838 309.581 112.938 310.048 112.935C310.524 112.97 311 112.885 311.434 112.686C311.86 112.448 312.213 112.097 312.452 111.671C313.173 110.48 313.256 109.005 313.086 107.623C312.874 105.88 312.254 104.211 311.275 102.754C310.243 101.28 308.838 100.106 307.205 99.3519C305.571 98.598 303.766 98.2913 301.975 98.4631C301.35 98.5334 300.73 98.6491 300.122 98.8094C297.919 99.3981 295.758 100.499 294.421 102.345C294.097 102.806 293.742 103.243 293.357 103.654C293.964 103.595 294.573 103.543 295.183 103.53Z" fill="black"/>
<path d="M295.183 103.183C295.443 103.163 295.705 103.19 295.955 103.263C296.323 103.446 296.654 103.695 296.932 103.997C297.383 104.375 297.924 104.631 298.501 104.743C299.079 104.855 299.676 104.819 300.236 104.638C300.631 104.461 301.05 104.345 301.48 104.291C302.141 104.291 302.713 104.776 303.055 105.33C303.398 105.885 303.575 106.542 303.869 107.135C304.164 107.727 304.635 108.288 305.283 108.433C305.593 108.445 305.899 108.516 306.183 108.641C306.357 108.783 306.491 108.968 306.571 109.178C307.111 110.345 307.541 111.723 308.694 112.295C309.118 112.491 309.581 112.592 310.048 112.589C310.524 112.624 311 112.538 311.434 112.34C311.86 112.102 312.213 111.751 312.452 111.325C313.173 110.134 313.256 108.658 313.086 107.277C312.874 105.534 312.254 103.865 311.275 102.408C310.243 100.933 308.838 99.7594 307.205 99.0055C305.571 98.2517 303.766 97.945 301.975 98.1167C301.35 98.187 300.73 98.3028 300.122 98.4631C297.919 99.0518 295.758 100.153 294.421 101.999C294.097 102.46 293.742 102.897 293.357 103.308C293.964 103.249 294.573 103.197 295.183 103.183Z" fill="#3F3D56"/>
<path opacity="0.1" d="M286.351 122.563C286.351 122.563 286.756 125.797 285.371 126.604C283.985 127.411 286.351 122.563 286.351 122.563Z" fill="black"/>
<path opacity="0.1" d="M315.732 147.615C315.732 147.615 319.023 142.767 319.487 144.152C319.951 145.537 315.732 147.615 315.732 147.615Z" fill="black"/>
<path opacity="0.1" d="M315.965 149.229C315.965 149.229 319.21 145.246 319.522 146.805C319.834 148.363 315.965 149.229 315.965 149.229Z" fill="black"/>
<path opacity="0.1" d="M306.432 144.488C305.255 144.504 304.107 144.127 303.17 143.414H302.886C301.914 144.302 300.638 144.782 299.322 144.754C298.637 144.77 297.957 144.647 297.322 144.392C296.687 144.138 296.11 143.757 295.626 143.272H295.248C294.251 144.084 292.999 144.517 291.713 144.494C290.427 144.47 289.191 143.992 288.224 143.144L286.87 143.12C286.87 143.12 288.456 147.345 287.507 149.98L310.654 150.392C310.475 148.127 310.531 145.849 310.821 143.594V143.563L309.55 143.539C308.635 144.173 307.545 144.505 306.432 144.488Z" fill="black"/>
<path opacity="0.1" d="M306.432 145.18C305.255 145.197 304.107 144.819 303.17 144.107H302.886C301.914 144.994 300.638 145.474 299.322 145.447C298.637 145.463 297.957 145.34 297.322 145.085C296.687 144.83 296.11 144.449 295.626 143.965H295.248C294.251 144.777 292.999 145.209 291.713 145.186C290.427 145.163 289.191 144.684 288.224 143.837L286.87 143.812C286.87 143.812 288.456 148.037 287.507 150.673L310.654 151.085C310.475 148.819 310.531 146.541 310.821 144.287V144.256L309.55 144.231C308.635 144.865 307.545 145.197 306.432 145.18Z" fill="black"/>
<path d="M306.432 144.834C305.255 144.851 304.107 144.473 303.17 143.761H302.886C301.914 144.648 300.638 145.128 299.322 145.101C298.637 145.117 297.957 144.993 297.322 144.739C296.687 144.484 296.11 144.103 295.626 143.619H295.248C294.251 144.431 292.999 144.863 291.713 144.84C290.427 144.816 289.191 144.338 288.224 143.49L286.87 143.466C286.87 143.466 288.456 147.691 287.507 150.327L310.654 150.739C310.475 148.473 310.531 146.195 310.821 143.941V143.909L309.55 143.885C308.635 144.519 307.545 144.851 306.432 144.834Z" fill="#3F3D56"/>
<path opacity="0.1" d="M305.404 121.742C305.404 121.742 310.278 122.054 310.309 122.746C310.34 123.439 305.404 121.742 305.404 121.742Z" fill="black"/>
<path opacity="0.1" d="M293.566 118.788C293.566 118.788 288.692 119.1 288.661 119.792C288.63 120.485 293.566 118.788 293.566 118.788Z" fill="black"/>
<path opacity="0.1" d="M312.19 132.949C312.141 132.914 312.093 132.886 312.044 132.855C313.291 133.977 313.083 136.429 311.552 138.452C310.021 140.474 307.697 141.316 306.284 140.408C306.329 140.446 306.367 140.488 306.416 140.526C307.801 141.586 310.226 140.755 311.826 138.663C313.426 136.571 313.582 134.012 312.19 132.949Z" fill="black"/>
<path opacity="0.1" d="M285.42 138.192C284.187 135.969 284.346 133.513 285.742 132.582C285.69 132.606 285.634 132.627 285.582 132.654C284.052 133.506 283.851 136.059 285.118 138.358C286.386 140.658 288.672 141.821 290.203 140.983C290.253 140.954 290.302 140.922 290.348 140.886C288.821 141.579 286.653 140.415 285.42 138.192Z" fill="black"/>
<path opacity="0.1" d="M287.068 119.443L286.621 120.135L285.481 119.529L286.081 118.608C286.477 118.795 286.817 119.083 287.068 119.443Z" fill="black"/>
<path d="M279.829 145.073C279.829 145.073 280.844 140.301 279.483 138.784C278.122 137.267 278.558 129.316 280.636 129.489C282.714 129.662 285.832 135.951 285.312 137.281C284.793 138.611 282.829 145.419 282.829 145.419L279.829 145.073Z" fill="#FBBEBE"/>
<path opacity="0.1" d="M312.418 110.643C312.178 111.068 311.826 111.419 311.4 111.658C310.966 111.856 310.49 111.942 310.014 111.907C309.547 111.91 309.084 111.809 308.66 111.613C307.506 111.038 307.077 109.659 306.537 108.496C306.468 108.286 306.347 108.097 306.183 107.949C305.903 107.821 305.601 107.747 305.293 107.73C304.646 107.585 304.178 107.02 303.88 106.432C303.582 105.843 303.406 105.192 303.066 104.627C302.727 104.063 302.152 103.568 301.49 103.589C301.06 103.646 300.64 103.768 300.247 103.952C299.686 104.132 299.09 104.167 298.512 104.055C297.934 103.942 297.394 103.685 296.943 103.308C296.664 103.006 296.333 102.757 295.966 102.574C295.715 102.5 295.454 102.473 295.193 102.494C294.795 102.494 294.4 102.532 294.002 102.563C293.805 102.822 293.593 103.07 293.368 103.305C293.974 103.253 294.584 103.201 295.193 103.187C295.454 103.166 295.715 103.193 295.966 103.266C296.333 103.45 296.664 103.698 296.943 104.001C297.394 104.378 297.934 104.635 298.512 104.747C299.09 104.86 299.686 104.825 300.247 104.645C300.64 104.461 301.06 104.338 301.49 104.281C302.152 104.281 302.723 104.766 303.066 105.32C303.409 105.874 303.586 106.532 303.88 107.124C304.175 107.717 304.646 108.278 305.293 108.423C305.601 108.44 305.903 108.514 306.183 108.641C306.358 108.783 306.492 108.968 306.571 109.178C307.112 110.345 307.541 111.723 308.694 112.295C309.119 112.491 309.581 112.592 310.049 112.589C310.524 112.624 311.001 112.538 311.434 112.34C311.861 112.102 312.213 111.751 312.452 111.325C312.99 110.346 313.231 109.232 313.145 108.118C313.119 109.008 312.869 109.876 312.418 110.643Z" fill="black"/>
<path d="M281.363 148.858C283.085 148.858 284.48 147.912 284.48 146.746C284.48 145.579 283.085 144.633 281.363 144.633C279.642 144.633 278.246 145.579 278.246 146.746C278.246 147.912 279.642 148.858 281.363 148.858Z" fill="#575A89"/>
<path d="M179.756 264.335C238.768 264.335 286.607 216.503 286.607 157.499C286.607 98.4942 238.768 50.6617 179.756 50.6617C120.743 50.6617 72.9043 98.4942 72.9043 157.499C72.9043 216.503 120.743 264.335 179.756 264.335Z" fill="#30E3CA"/>
<path d="M235.821 211.187C235.821 228.053 209.304 212.628 180.875 212.628C152.446 212.628 123.691 227.415 123.691 210.55C123.691 200.933 132.856 187.558 146.004 177.844C155.91 170.523 168.074 165.28 180.293 165.28C192.859 165.28 205.169 170.956 214.988 178.748C227.38 188.573 235.821 201.774 235.821 211.187Z" fill="#444053"/>
<path d="M214.984 178.741C199.873 176.466 172.542 173.692 146.004 177.837C155.91 170.516 168.074 165.273 180.293 165.273C192.856 165.273 205.165 170.949 214.984 178.741Z" fill="#F6F8FB"/>
<path opacity="0.05" d="M123.691 82.0825C123.691 82.0825 91.504 102.657 91.7672 134.84C92.0305 167.022 123.691 82.0825 123.691 82.0825Z" fill="black"/>
<path d="M286.565 23.975C286.565 23.975 257.402 22.2192 260.842 42.6516C260.842 42.6516 260.149 46.2601 263.432 47.9016C263.432 47.9016 263.484 46.3883 266.421 46.9008C267.468 47.0759 268.532 47.127 269.59 47.0532C271.021 46.9559 272.381 46.3941 273.463 45.4532C273.463 45.4532 281.661 42.0698 284.851 28.671C284.851 28.671 287.21 25.7481 287.116 25.0001L282.194 27.0987C282.194 27.0987 283.874 30.6484 282.541 33.599C282.541 33.599 282.381 27.2303 281.436 27.3654C281.245 27.3966 278.88 28.5948 278.88 28.5948C278.88 28.5948 281.772 34.7799 279.572 39.2716C279.572 39.2716 280.4 31.6527 277.958 29.0415L274.495 31.064C274.495 31.064 277.875 37.45 275.582 42.6619C275.582 42.6619 276.171 34.6691 273.768 31.5558L270.626 34.0042C270.626 34.0042 273.802 40.3001 271.866 44.6221C271.866 44.6221 271.613 35.3167 269.947 34.6137C269.947 34.6137 267.201 37.0379 266.782 38.0318C266.782 38.0318 268.957 42.5996 267.609 45.0099C267.609 45.0099 266.782 38.811 266.103 38.7763C266.103 38.7763 263.366 42.8836 263.079 45.7026C263.079 45.7026 263.2 41.5122 265.438 38.385C265.438 38.385 262.791 38.8387 261.25 40.5564C261.25 40.5564 261.676 37.6508 266.099 37.398C266.099 37.398 268.361 34.2812 268.967 34.0942C268.967 34.0942 264.551 33.7237 261.874 34.9115C261.874 34.9115 264.229 32.1722 269.774 33.4155L272.891 30.8874C272.891 30.8874 267.079 30.0909 264.613 30.9705C264.613 30.9705 267.45 28.5463 273.726 30.3125L277.103 28.2935C277.103 28.2935 272.147 27.2269 269.192 27.6009C269.192 27.6009 272.309 25.9213 278.09 27.7429L280.515 26.6589C280.515 26.6589 276.881 25.9455 275.818 25.8347C274.755 25.7239 274.699 25.4261 274.699 25.4261C277.007 25.051 279.373 25.3256 281.533 26.2191C281.533 26.2191 286.652 24.2971 286.565 23.975Z" fill="#30E3CA"/>
<path d="M256.654 14.8914C256.654 14.8914 243.492 14.0949 245.03 23.3275C245.03 23.3275 244.722 24.9586 246.201 25.6998C246.201 25.6998 246.222 25.0071 247.552 25.2495C248.024 25.3273 248.504 25.3506 248.982 25.3188C249.629 25.2726 250.244 25.0188 250.735 24.595C250.735 24.595 254.437 23.0643 255.878 17.0108C255.878 17.0108 256.945 15.6914 256.917 15.352L254.694 16.3009C254.694 16.3009 255.456 17.9043 254.856 19.2376C254.856 19.2376 254.784 16.3598 254.358 16.429C254.271 16.429 253.201 16.9831 253.201 16.9831C253.201 16.9831 254.51 19.7778 253.523 21.8072C253.523 21.8072 253.897 18.3649 252.796 17.184L251.23 18.0982C251.23 18.0982 252.757 20.9865 251.722 23.3414C251.722 23.3414 251.985 19.7294 250.901 18.3233L249.481 19.4281C249.481 19.4281 250.915 22.2713 250.042 24.2245C250.042 24.2245 249.928 20.0203 249.173 19.7016C249.173 19.7016 247.933 20.796 247.742 21.2462C247.742 21.2462 248.726 23.3241 248.116 24.4011C248.116 24.4011 247.742 21.5994 247.424 21.589C247.424 21.589 246.187 23.4418 246.059 24.7058C246.119 23.5295 246.485 22.3893 247.122 21.3986C246.41 21.5334 245.752 21.8741 245.231 22.3786C245.231 22.3786 245.422 21.0661 247.427 20.9518C247.427 20.9518 248.449 19.5458 248.722 19.4592C248.722 19.4592 246.727 19.293 245.519 19.8298C245.519 19.8298 246.582 18.59 249.09 19.1372L250.475 17.9978C250.475 17.9978 247.85 17.6515 246.734 18.0324C246.734 18.0324 248.016 16.9381 250.853 17.7381L252.377 16.8238C252.377 16.8238 250.139 16.3424 248.802 16.5156C248.802 16.5156 250.212 15.7572 252.823 16.5814L253.914 16.0896C253.914 16.0896 252.273 15.7676 251.795 15.7191C251.317 15.6706 251.285 15.5355 251.285 15.5355C252.325 15.3626 253.393 15.4825 254.368 15.8818C254.368 15.8818 256.692 15.0368 256.654 14.8914Z" fill="#30E3CA"/>
<path opacity="0.1" d="M371.672 252.81C376.824 252.81 381 252.105 381 251.235C381 250.364 376.824 249.659 371.672 249.659C366.521 249.659 362.345 250.364 362.345 251.235C362.345 252.105 366.521 252.81 371.672 252.81Z" fill="#30E3CA"/>
<path opacity="0.1" d="M16.1995 279.023C21.3509 279.023 25.5269 278.317 25.5269 277.447C25.5269 276.577 21.3509 275.871 16.1995 275.871C11.0481 275.871 6.87207 276.577 6.87207 277.447C6.87207 278.317 11.0481 279.023 16.1995 279.023Z" fill="#30E3CA"/>
<path opacity="0.1" d="M70.345 281C75.4964 281 79.6724 280.295 79.6724 279.424C79.6724 278.554 75.4964 277.849 70.345 277.849C65.1936 277.849 61.0176 278.554 61.0176 279.424C61.0176 280.295 65.1936 281 70.345 281Z" fill="#30E3CA"/>
<path d="M351.258 270.476C358.95 270.476 365.185 269.421 365.185 268.121C365.185 266.82 358.95 265.766 351.258 265.766C343.566 265.766 337.331 266.82 337.331 268.121C337.331 269.421 343.566 270.476 351.258 270.476Z" fill="#30E3CA"/>
<path d="M357.015 264.273C357.65 263.754 358.114 263.055 358.345 262.268C358.515 261.475 358.175 260.519 357.417 260.228C356.565 259.903 355.654 260.495 354.964 261.091C354.275 261.686 353.482 262.365 352.578 262.24C353.043 261.819 353.391 261.285 353.587 260.69C353.784 260.094 353.823 259.458 353.7 258.843C353.661 258.588 353.553 258.349 353.388 258.15C352.914 257.645 352.058 257.86 351.49 258.258C349.689 259.525 349.187 261.97 349.177 264.173C348.997 263.38 349.149 262.552 349.146 261.749C349.142 260.945 348.917 260.017 348.231 259.591C347.806 259.364 347.328 259.252 346.846 259.266C346.035 259.234 345.135 259.314 344.581 259.906C343.888 260.644 344.071 261.877 344.671 262.677C345.27 263.477 346.177 263.996 347.012 264.554C347.684 264.953 348.257 265.499 348.688 266.15C348.739 266.242 348.781 266.338 348.813 266.438H353.887C355.023 265.86 356.075 265.132 357.015 264.273Z" fill="#30E3CA"/>
<path d="M20.5531 235.235C20.5531 235.235 22.4546 237.722 19.6734 241.469C16.8921 245.216 14.5992 248.395 15.5171 250.736C15.5171 250.736 19.7115 243.761 23.1369 243.661C26.5624 243.56 24.3076 239.429 20.5531 235.235Z" fill="#30E3CA"/>
<path opacity="0.1" d="M20.5524 235.235C20.7175 235.475 20.8481 235.738 20.9403 236.014C24.2723 239.928 26.0456 243.581 22.8453 243.671C19.8597 243.758 16.2645 249.091 15.4229 250.438C15.4523 250.543 15.487 250.645 15.5268 250.746C15.5268 250.746 19.7211 243.772 23.1466 243.671C26.5721 243.571 24.3069 239.429 20.5524 235.235Z" fill="black"/>
<path d="M24.0893 238.404C24.0893 239.28 23.9888 239.99 23.8676 239.99C23.7464 239.99 23.6494 239.297 23.6494 238.404C23.6494 237.51 23.7706 237.94 23.8953 237.94C24.02 237.94 24.0893 237.527 24.0893 238.404Z" fill="#FFD037"/>
<path d="M25.2875 239.45C24.5186 239.869 23.8501 240.121 23.7912 240.014C23.7324 239.907 24.3108 239.484 25.0797 239.065C25.8486 238.646 25.5438 238.951 25.6027 239.065C25.6616 239.179 26.0703 239.031 25.2875 239.45Z" fill="#FFD037"/>
<path d="M10.5009 235.235C10.5009 235.235 8.59943 237.722 11.3772 241.469C14.155 245.216 16.4513 248.395 15.5335 250.736C15.5335 250.736 11.3356 243.761 7.91364 243.661C4.49163 243.56 6.74295 239.429 10.5009 235.235Z" fill="#30E3CA"/>
<path opacity="0.1" d="M10.5011 235.235C10.3344 235.475 10.2037 235.737 10.1131 236.014C6.78119 239.928 5.00438 243.581 8.20818 243.671C11.1903 243.758 14.789 249.091 15.6272 250.438C15.5989 250.543 15.5654 250.645 15.5267 250.746C15.5267 250.746 11.3289 243.772 7.90685 243.671C4.48484 243.571 6.74309 239.429 10.5011 235.235Z" fill="black"/>
<path d="M6.96484 238.404C6.96484 239.28 7.06183 239.99 7.18305 239.99C7.30428 239.99 7.40126 239.297 7.40126 238.404C7.40126 237.51 7.28003 237.94 7.15881 237.94C7.03758 237.94 6.96484 237.527 6.96484 238.404Z" fill="#FFD037"/>
<path d="M5.74908 239.45C6.51799 239.869 7.18993 240.121 7.24881 240.014C7.30769 239.907 6.72927 239.484 5.96036 239.065C5.19145 238.646 5.49278 238.951 5.43736 239.065C5.38194 239.179 4.98017 239.031 5.74908 239.45Z" fill="#FFD037"/>
<path d="M7.57129 250.421C7.57129 250.421 12.8913 250.258 14.4984 249.115C16.1055 247.972 22.6829 246.611 23.0812 248.423C23.4795 250.234 31.0751 257.531 25.0693 257.579C19.0634 257.628 11.1145 256.641 9.51435 255.667C7.91418 254.694 7.57129 250.421 7.57129 250.421Z" fill="#A8A8A8"/>
<path opacity="0.2" d="M25.1697 256.959C19.1639 257.008 11.215 256.021 9.6148 255.047C8.39562 254.306 7.91072 251.643 7.74793 250.414H7.57129C7.57129 250.414 7.91765 254.705 9.50743 255.678C11.0972 256.651 19.0565 257.638 25.0623 257.589C26.7941 257.589 27.3933 256.956 27.3621 256.045C27.1197 256.602 26.4616 256.949 25.1697 256.959Z" fill="black"/>
<path d="M141.768 143.49C143.801 143.376 153.371 142.656 159.449 139.189C160.425 138.615 161.528 138.29 162.66 138.244C164.593 138.188 166.816 138.995 165.393 143.511C163.086 150.898 149.692 159.209 141.38 158.749C133.386 158.306 123.902 155.085 117.64 143.761C117.04 142.671 116.745 141.44 116.785 140.197C116.858 137.911 117.689 135.047 121.98 138.24C127.778 142.552 138.779 143.369 140.985 143.49C141.246 143.504 141.507 143.504 141.768 143.49Z" fill="#444053"/>
<path d="M218.658 143.49C220.691 143.376 230.261 142.656 236.34 139.189C237.316 138.615 238.419 138.29 239.55 138.244C241.483 138.188 243.707 138.995 242.283 143.511C239.976 150.898 226.583 159.209 218.27 158.749C210.276 158.306 200.793 155.085 194.531 143.761C193.931 142.671 193.635 141.44 193.675 140.197C193.748 137.911 194.579 135.047 198.871 138.24C204.669 142.552 215.669 143.369 217.875 143.49C218.136 143.504 218.397 143.504 218.658 143.49Z" fill="#444053"/>
</g>
<defs>
<linearGradient id="paint0_linear_103_9" x1="308.999" y1="262.5" x2="308.999" y2="91.4087" gradientUnits="userSpaceOnUse">
<stop stop-color="#808080" stop-opacity="0.25"/>
<stop offset="0.54" stop-color="#808080" stop-opacity="0.12"/>
<stop offset="1" stop-color="#808080" stop-opacity="0.1"/>
</linearGradient>
<clipPath id="clip0_103_9">
<rect width="381" height="281" fill="white"/>
</clipPath>
</defs>
</svg>
