<svg width="265" height="265" viewBox="0 0 265 265" fill="none" xmlns="http://www.w3.org/2000/svg">
<path d="M201.443 201.443C183.926 218.96 160.397 229.152 135.637 229.95C110.877 230.747 86.7415 222.089 68.1339 205.734C49.5263 189.38 37.8418 166.556 35.454 141.898C33.0661 117.24 40.154 92.5981 55.2777 72.9772C70.4014 53.3563 92.4269 40.2281 116.88 36.2593C141.333 32.2906 166.38 37.7789 186.933 51.6094C207.486 65.4399 222.004 86.5754 227.537 110.723C233.07 134.87 229.204 160.218 216.724 181.618" stroke="white" stroke-width="10"/>
<path d="M149.912 21.3556C177.776 25.7207 202.984 40.3929 220.542 62.4652" stroke="white" stroke-width="10"/>
<path d="M56.0362 30.4728C81.9596 11.0447 114.306 2.21294 146.506 5.77162C178.706 9.3303 208.343 25.0125 229.398 49.6327C250.453 74.2529 261.347 105.965 259.867 138.327C258.386 170.688 244.643 201.273 221.428 223.868C198.213 246.463 167.267 259.374 134.877 259.978C102.487 260.582 71.0817 248.834 47.0404 227.12C22.9991 205.406 8.12481 175.355 5.43896 143.071C2.7531 110.787 12.4571 78.6908 32.5798 53.3027" stroke="white" stroke-width="10"/>
<line x1="132" y1="2.18556e-07" x2="132" y2="36" stroke="white" stroke-width="10"/>
<line x1="245.089" y1="65.2242" x2="214.675" y2="84.4852" stroke="white" stroke-width="10"/>
</svg>
