<svg width="114" height="114" viewBox="0 0 114 114" fill="none" xmlns="http://www.w3.org/2000/svg">
<path d="M38 14.25C24.8853 14.25 14.25 24.8853 14.25 38V76C14.25 89.1147 24.8853 99.75 38 99.75H76C89.1147 99.75 99.75 89.1147 99.75 76V38C99.75 24.8853 89.1147 14.25 76 14.25H38ZM85.5 23.75C88.122 23.75 90.25 25.878 90.25 28.5C90.25 31.122 88.122 33.25 85.5 33.25C82.878 33.25 80.75 31.122 80.75 28.5C80.75 25.878 82.878 23.75 85.5 23.75ZM57 33.25C70.1147 33.25 80.75 43.8853 80.75 57C80.75 70.1147 70.1147 80.75 57 80.75C43.8853 80.75 33.25 70.1147 33.25 57C33.25 43.8853 43.8853 33.25 57 33.25ZM57 42.75C53.2207 42.75 49.5961 44.2513 46.9237 46.9237C44.2513 49.5961 42.75 53.2207 42.75 57C42.75 60.7793 44.2513 64.4039 46.9237 67.0763C49.5961 69.7487 53.2207 71.25 57 71.25C60.7793 71.25 64.4039 69.7487 67.0763 67.0763C69.7487 64.4039 71.25 60.7793 71.25 57C71.25 53.2207 69.7487 49.5961 67.0763 46.9237C64.4039 44.2513 60.7793 42.75 57 42.75Z" fill="#30E3CA"/>
</svg>
