<svg width="85" height="85" viewBox="0 0 85 85" fill="none" xmlns="http://www.w3.org/2000/svg">
<path d="M23.5833 0.25C10.6987 0.25 0.25 10.6987 0.25 23.5833V60.9167C0.25 73.8013 10.6987 84.25 23.5833 84.25H60.9167C73.8013 84.25 84.25 73.8013 84.25 60.9167V23.5833C84.25 10.6987 73.8013 0.25 60.9167 0.25H23.5833ZM70.25 9.58333C72.826 9.58333 74.9167 11.674 74.9167 14.25C74.9167 16.826 72.826 18.9167 70.25 18.9167C67.674 18.9167 65.5833 16.826 65.5833 14.25C65.5833 11.674 67.674 9.58333 70.25 9.58333ZM42.25 18.9167C55.1347 18.9167 65.5833 29.3653 65.5833 42.25C65.5833 55.1347 55.1347 65.5833 42.25 65.5833C29.3653 65.5833 18.9167 55.1347 18.9167 42.25C18.9167 29.3653 29.3653 18.9167 42.25 18.9167ZM42.25 28.25C38.537 28.25 34.976 29.725 32.3505 32.3505C29.725 34.976 28.25 38.537 28.25 42.25C28.25 45.963 29.725 49.524 32.3505 52.1495C34.976 54.775 38.537 56.25 42.25 56.25C45.963 56.25 49.524 54.775 52.1495 52.1495C54.775 49.524 56.25 45.963 56.25 42.25C56.25 38.537 54.775 34.976 52.1495 32.3505C49.524 29.725 45.963 28.25 42.25 28.25Z" fill="#30E3CA"/>
</svg>
