<svg width="509" height="445" viewBox="0 0 509 445" fill="none" xmlns="http://www.w3.org/2000/svg">
<g clip-path="url(#clip0_166_1211)">
<path d="M481.558 401.661L482.345 383.96C490.549 379.574 499.698 377.257 509 377.21C496.198 387.681 497.798 407.864 489.119 421.945C486.378 426.315 482.689 430.013 478.326 432.764C473.962 435.515 469.036 437.248 463.912 437.835L453.199 444.397C451.729 436.199 452.053 427.779 454.149 419.718C456.245 411.657 460.063 404.147 465.339 397.704C468.335 394.119 471.771 390.926 475.565 388.2C478.13 394.968 481.558 401.661 481.558 401.661Z" fill="#F2F2F2"/>
<path d="M417.942 443.323C441.653 443.323 460.875 424.094 460.875 400.373C460.875 376.653 441.653 357.424 417.942 357.424C394.231 357.424 375.009 376.653 375.009 400.373C375.009 424.094 394.231 443.323 417.942 443.323Z" fill="#30E3CA"/>
<path d="M400.421 383.574C399.831 386.741 398.865 389.826 397.543 392.763C389.969 408.791 411.537 403.567 419.245 403.567C427.672 403.567 435.735 408 434.503 388.302C433.977 379.889 427.672 373.038 419.245 373.038C412.046 373.038 401.926 376.239 400.421 383.574Z" fill="#2F2E41"/>
<path d="M417.981 403.563C424.829 403.563 430.381 398.01 430.381 391.159C430.381 384.308 424.829 378.755 417.981 378.755C411.133 378.755 405.582 384.308 405.582 391.159C405.582 398.01 411.133 403.563 417.981 403.563Z" fill="#FFB6B6"/>
<path d="M409.561 378.515C411.734 377.19 414.223 376.473 416.767 376.439C419.312 376.406 421.818 377.057 424.025 378.324C426.232 379.591 428.058 381.429 429.312 383.643C430.567 385.858 431.203 388.37 431.155 390.915C424.837 392.502 418.199 393.716 411.461 391.295L409.87 387.399L408.932 391.297C406.88 392.136 404.823 392.846 402.766 391.289C402.682 388.751 403.265 386.236 404.458 383.994C405.65 381.752 407.41 379.863 409.561 378.515Z" fill="#2F2E41"/>
<path d="M451.325 428.932C443.887 437.399 433.419 442.599 422.181 443.412C410.943 444.224 399.836 440.583 391.259 433.275L394.941 422.995C395.773 421.17 397.087 419.605 398.74 418.469C400.394 417.333 402.325 416.669 404.327 416.548L406.67 416.404L412.256 411.584C412.256 411.584 427.308 411.047 427.084 410.789L436.202 416.275L436.194 416.237L439.778 416.457C441.78 416.578 443.712 417.242 445.366 418.378C447.019 419.514 448.332 421.079 449.164 422.905L451.325 428.932Z" fill="#3F3D56"/>
<path d="M85.8664 97.6388C85.8513 106.133 83.3186 114.433 78.5885 121.487C73.8585 128.542 67.1435 134.035 59.2927 137.272C51.4419 140.508 42.808 141.344 34.4827 139.672C26.1574 138 18.5147 133.896 12.5211 127.878C6.52742 121.861 2.45201 114.201 0.810187 105.867C-0.831632 97.5327 0.0338863 88.8986 3.2973 81.0564C6.56072 73.2143 12.0755 66.5163 19.1441 61.8095C26.2128 57.1027 34.518 54.5985 43.0093 54.6136C48.6515 54.609 54.239 55.7198 59.4507 57.8822C64.6624 60.0447 69.3955 63.2161 73.3781 67.2143C77.3606 71.2125 80.5141 75.9586 82.6573 81.1798C84.8004 86.4011 85.891 91.9946 85.8664 97.6388Z" fill="#F2F2F2"/>
<path d="M23.0336 83.5914C24.8089 77.9316 28.8459 72.7406 34.429 70.8272C40.0125 68.9139 48.188 71.8285 52.3855 76.0134C60.0636 83.6683 61.9373 109.966 56.6622 118.276C55.6129 118.22 51.9924 118.179 50.9305 118.14L49.4282 113.131V118.09C47.7364 118.038 46.0313 118.002 44.313 117.982C38.5518 117.91 33.0426 115.607 28.9438 111.557C24.8449 107.506 22.4756 102.023 22.3339 96.2613C22.1964 90.749 22.334 85.8218 23.0336 83.5914Z" fill="#CCCCCC"/>
<path d="M42.2962 102.349C49.0538 102.349 54.5319 96.8692 54.5319 90.1091C54.5319 83.349 49.0538 77.8689 42.2962 77.8689C35.5386 77.8689 30.0605 83.349 30.0605 90.1091C30.0605 96.8692 35.5386 102.349 42.2962 102.349Z" fill="#CCCCCC"/>
<path d="M31.7363 79.3593L45.8245 72.3024C48.7048 73.6007 51.1854 75.6463 53.009 78.227C54.8326 80.8076 55.9329 83.8293 56.1957 86.9787L56.5469 91.1865L50.6474 89.6842L50.0011 84.3038L48.9993 89.2645L46.2768 88.5715L46.3027 80.2184L43.5784 88.5656L33.8547 86.3307L31.7363 79.3593Z" fill="#CCCCCC"/>
<path d="M74.7929 125.985C67.3549 134.451 56.887 139.652 45.6489 140.464C34.4109 141.277 23.3042 137.636 14.7266 130.327L18.409 120.048C19.2412 118.222 20.5545 116.658 22.208 115.522C23.8615 114.386 25.7928 113.722 27.795 113.6L30.1377 113.457L35.7239 108.637C35.7239 108.637 50.7755 108.099 50.5522 107.842L59.6694 113.328L59.6619 113.29L63.2459 113.509C65.2482 113.63 67.1798 114.294 68.8334 115.43C70.487 116.566 71.8001 118.131 72.6319 119.957L74.7929 125.985Z" fill="#CCCCCC"/>
<path d="M43.2389 337.764C66.9502 337.764 86.1721 318.535 86.1721 294.814C86.1721 271.094 66.9502 251.865 43.2389 251.865C19.5275 251.865 0.305664 271.094 0.305664 294.814C0.305664 318.535 19.5275 337.764 43.2389 337.764Z" fill="#F2F2F2"/>
<path d="M25.7175 278.015C25.1282 281.182 24.162 284.267 22.8394 287.204C15.266 303.232 36.8338 298.008 44.5414 298.008C52.9685 298.008 61.0316 302.441 59.8001 282.743C59.2741 274.33 52.9685 267.479 44.5414 267.479C37.3432 267.479 27.2227 270.68 25.7175 278.015Z" fill="#CCCCCC"/>
<path d="M43.2783 298.004C50.1263 298.004 55.6777 292.451 55.6777 285.6C55.6777 278.749 50.1263 273.196 43.2783 273.196C36.4303 273.196 30.8789 278.749 30.8789 285.6C30.8789 292.451 36.4303 298.004 43.2783 298.004Z" fill="#CCCCCC"/>
<path d="M34.8581 272.956C37.0308 271.631 39.5196 270.914 42.064 270.88C44.6085 270.847 47.1152 271.498 49.3222 272.765C51.5291 274.032 53.3552 275.87 54.6094 278.085C55.8636 280.299 56.4999 282.811 56.4519 285.356C50.1337 286.943 43.4961 288.157 36.7583 285.736L35.1671 281.84L34.229 285.738C32.1771 286.577 30.1198 287.287 28.0626 285.73C27.9786 283.192 28.562 280.677 29.7545 278.435C30.947 276.193 32.7069 274.304 34.8581 272.956Z" fill="#CCCCCC"/>
<path d="M76.621 323.373C69.183 331.84 58.7151 337.04 47.4771 337.853C36.2391 338.665 25.1324 335.024 16.5547 327.716L20.2372 317.436C21.0693 315.611 22.3826 314.046 24.0361 312.91C25.6896 311.774 27.621 311.11 29.6231 310.989L31.9658 310.845L37.552 306.025C37.552 306.025 52.6036 305.488 52.3803 305.23L61.4975 310.716L61.49 310.678L65.074 310.898C67.0763 311.019 69.0079 311.683 70.6615 312.819C72.3151 313.955 73.6283 315.52 74.46 317.346L76.621 323.373Z" fill="#CCCCCC"/>
<path d="M227.949 298.51C266.34 298.51 297.461 267.377 297.461 228.972C297.461 190.567 266.34 159.434 227.949 159.434C189.558 159.434 158.437 190.567 158.437 228.972C158.437 267.377 189.558 298.51 227.949 298.51Z" fill="#F2F2F2"/>
<path d="M230.782 236.066C243.3 236.066 253.449 225.914 253.449 213.39C253.449 200.867 243.3 190.715 230.782 190.715C218.263 190.715 208.115 200.867 208.115 213.39C208.115 225.914 218.263 236.066 230.782 236.066Z" fill="#CCCCCC"/>
<path d="M250.739 198.411C250.739 198.411 256.641 187.124 243.657 186.098C243.657 186.098 232.588 176.054 221.306 184.262C221.306 184.262 215.152 184.262 211.787 191.229C211.787 191.229 206.947 189.392 205.884 194.307C205.884 194.307 202.342 204.567 205.884 213.801C209.425 223.036 210.602 224.062 210.602 224.062C210.602 224.062 208.117 212.602 222.282 211.576C236.447 210.55 249.443 201.673 250.623 212.959C251.804 224.246 253.101 219.147 253.101 219.147C253.101 219.147 264.314 203.028 250.739 198.411Z" fill="#CCCCCC"/>
<path d="M279.841 275.211C267.799 288.919 250.85 297.339 232.655 298.655C214.459 299.97 196.477 294.075 182.589 282.242L188.551 265.599C189.898 262.643 192.025 260.11 194.702 258.271C197.379 256.432 200.506 255.356 203.748 255.16L207.541 254.927L216.585 247.123C216.585 247.123 240.955 246.253 240.594 245.836L255.355 254.718L255.343 254.657L261.146 255.013C264.388 255.208 267.515 256.283 270.192 258.122C272.87 259.962 274.996 262.495 276.342 265.452L279.841 275.211Z" fill="#CCCCCC"/>
<path d="M113.462 229.202C137.173 229.202 156.395 209.973 156.395 186.252C156.395 162.532 137.173 143.303 113.462 143.303C89.7502 143.303 70.5283 162.532 70.5283 186.252C70.5283 209.973 89.7502 229.202 113.462 229.202Z" fill="#F2F2F2"/>
<path d="M112.276 191.573C119.845 191.573 125.981 185.435 125.981 177.863C125.981 170.291 119.845 164.153 112.276 164.153C104.707 164.153 98.5713 170.291 98.5713 177.863C98.5713 185.435 104.707 191.573 112.276 191.573Z" fill="#CCCCCC"/>
<path d="M145.671 214.989C138.233 223.455 127.765 228.656 116.527 229.468C105.289 230.281 94.1822 226.64 85.6045 219.331L89.287 209.052C90.1191 207.226 91.4324 205.662 93.0859 204.526C94.7394 203.39 96.6708 202.726 98.6729 202.604L101.016 202.461L106.602 197.641C106.602 197.641 121.653 197.103 121.43 196.846L130.547 202.332L130.54 202.294L134.124 202.514C136.126 202.634 138.058 203.298 139.711 204.434C141.365 205.57 142.678 207.135 143.51 208.961L145.671 214.989Z" fill="#CCCCCC"/>
<path d="M126.731 169.361C125.573 165.214 122.942 161.633 119.331 159.289C116.454 157.448 112.864 156.508 109.604 157.482C106.344 158.455 103.646 161.656 103.859 165.113C103.255 164.954 102.619 164.968 102.022 165.152C101.426 165.336 100.893 165.684 100.484 166.156C99.6656 167.122 99.097 168.273 98.8274 169.51C97.7814 173.387 97.8507 177.48 99.0273 181.319L98.9626 181.87C100.553 181.607 101.759 180.242 102.509 178.787C103.259 177.333 103.691 175.72 104.504 174.301C105.317 172.882 106.667 171.617 108.277 171.572L108.135 174.035L112.292 171.893C111.963 172.681 111.633 173.47 111.304 174.259C112.514 173.753 113.724 173.247 114.934 172.741C114.798 173.499 114.663 174.258 114.528 175.016C114.845 174.358 115.293 173.771 115.843 173.29C116.394 172.81 117.036 172.446 117.731 172.222C118.427 171.997 119.16 171.915 119.888 171.982C120.615 172.049 121.321 172.263 121.964 172.611C123.411 173.585 124.454 175.053 124.898 176.74C125.337 178.423 125.573 180.154 125.601 181.893C127.471 177.987 127.872 173.538 126.731 169.361Z" fill="#CCCCCC"/>
<path d="M204.573 220.845V220.87C204.534 220.776 204.508 220.677 204.496 220.576L204.573 220.845Z" fill="#F2F2F2"/>
<path d="M204.572 220.87C204.636 221.139 204.712 221.407 204.789 221.662C204.684 221.691 204.577 221.712 204.47 221.726L204.572 220.87Z" fill="#F2F2F2"/>
<path d="M297.461 228.829C297.458 246.797 290.502 264.067 278.052 277.018C265.601 289.969 248.622 297.595 230.674 298.298V159.36C248.623 160.06 265.604 167.685 278.056 180.636C290.507 193.588 297.462 210.86 297.461 228.829Z" fill="#30E3CA"/>
<path d="M204.496 220.576L204.573 220.845V220.87C204.534 220.776 204.508 220.677 204.496 220.576Z" fill="#FFB6B6"/>
<path d="M248.22 215.249C248.224 217.085 247.996 218.913 247.543 220.691V220.704C246.522 224.715 244.402 228.362 241.422 231.233C238.442 234.103 234.719 236.085 230.674 236.954V193.532C235.64 194.6 240.09 197.338 243.282 201.29C246.475 205.241 248.218 210.168 248.22 215.249Z" fill="#A0616A"/>
<path d="M280.094 275.354C273.889 282.435 266.306 288.175 257.809 292.225C249.312 296.276 240.079 298.55 230.674 298.911V246.701C236.101 246.445 241.017 246.177 240.851 245.985L255.614 254.864L255.601 254.8L261.398 255.158C264.641 255.35 267.769 256.424 270.447 258.263C273.124 260.102 275.25 262.637 276.595 265.595L279.953 274.958L280.094 275.354Z" fill="#3F3D56"/>
<path d="M204.572 220.87C204.636 221.139 204.712 221.407 204.789 221.662C204.684 221.691 204.577 221.712 204.47 221.726L204.572 220.87Z" fill="#2F2E41"/>
<path d="M247.607 221.765C247.581 221.407 247.568 221.062 247.543 220.704V220.692C247.469 218.235 247.109 215.796 246.47 213.423C245.64 210.74 244.082 208.172 241.72 206.742C238.183 204.595 233.215 205.758 230.674 208.977V182.189C233.079 182.817 235.368 183.826 237.455 185.178C243.3 188.97 247.559 194.766 249.433 201.478C251.278 208.241 250.629 215.441 247.607 221.765Z" fill="#2F2E41"/>
<path d="M229.719 445C229.498 445.011 229.283 444.934 229.119 444.786C228.955 444.638 228.856 444.432 228.844 444.211V0.788983C228.866 0.572503 228.968 0.372059 229.13 0.226351C229.291 0.0806422 229.501 0 229.719 0C229.936 0 230.146 0.0806422 230.308 0.226351C230.47 0.372059 230.571 0.572503 230.594 0.788983V444.211C230.582 444.432 230.483 444.638 230.319 444.786C230.155 444.934 229.939 445.011 229.719 445Z" fill="#2F2E41"/>
<path d="M316.922 207.269L292.742 201.335L260.503 173.917L265.871 165.391L295.076 184.003C295.076 184.003 314.397 188.91 321.006 194.569L316.922 207.269Z" fill="#FFB6B6"/>
<path d="M261.625 174.436C264.879 174.436 267.516 171.797 267.516 168.543C267.516 165.288 264.879 162.65 261.625 162.65C258.372 162.65 255.734 165.288 255.734 168.543C255.734 171.797 258.372 174.436 261.625 174.436Z" fill="#FFB6B6"/>
<path d="M318.057 191.402L295.634 182.256L284.856 195.058L292.863 201.657L314.689 207.332L314.705 207.389C316.237 213.041 326.095 216.878 334.094 219.102C336.732 219.833 339.549 219.535 341.976 218.268C344.403 217 346.258 214.858 347.167 212.275C347.824 210.365 347.934 208.309 347.485 206.339C347.036 204.37 346.044 202.565 344.623 201.129L337.359 193.843L318.057 191.402Z" fill="#E6E6E6"/>
<path d="M256.055 421.293L248.196 418.301L255.99 386.555L267.588 390.97L256.055 421.293Z" fill="#FFB6B6"/>
<path d="M259.036 419.489L256.824 418.647L249.525 411.847L243.56 413.598L243.559 413.598C240.944 412.602 238.04 412.687 235.486 413.833C232.933 414.98 230.94 417.094 229.944 419.71L229.822 420.031L255.161 429.676L259.036 419.489Z" fill="#2F2E41"/>
<path d="M335.496 434.472L327.088 434.471L323.088 402.028L335.498 402.029L335.496 434.472Z" fill="#FFB6B6"/>
<path d="M337.641 431.726L335.275 431.726L326.035 427.967L321.083 431.725H321.082C318.283 431.726 315.599 432.838 313.62 434.817C311.641 436.797 310.529 439.482 310.529 442.282V442.625L337.641 442.626L337.641 431.726Z" fill="#2F2E41"/>
<path d="M348.318 294.726C348.318 294.726 349.3 306.512 346.845 317.807C345.307 324.887 344.732 340.029 344.518 350.343C344.391 356.483 341.63 357.462 341.63 357.462L343.461 371.581L338.991 422.899L322.791 421.426L318.373 317.807L289.256 340.839L290.064 343.533C290.456 344.842 287.559 344.675 286.401 345.4L283.544 352.03C283.6 353.126 283.319 354.212 282.739 355.144C282.158 356.075 281.307 356.806 280.298 357.238L265.125 402.394L253.294 395.293L257.238 354.264L262.759 335.328L284.991 307.985L285.482 300.128L287.691 300.219L288.816 296.936L290.882 291.288L348.318 294.726Z" fill="#2F2E41"/>
<path d="M349.166 297.201L349.253 297.079C353.926 290.534 346.898 274.809 345.838 272.529C347.097 272.12 348.175 271.288 348.889 270.173C349.603 269.059 349.909 267.731 349.754 266.416L349.298 262.531L348.821 258.72L352.233 255.306L352.243 255.221L354.207 238.033L357.062 226.617C358.137 222.301 358.046 217.777 356.796 213.509C355.546 209.24 353.184 205.381 349.95 202.328L343.351 196.103L335.331 184.231H322.397L317.962 192.611C313.663 193.605 309.848 196.077 307.183 199.595C304.518 203.113 303.171 207.455 303.377 211.865L304.382 233.842L300.447 261.206L300.445 266.158L298.395 268.437C297.657 269.257 297.121 270.239 296.829 271.304C296.537 272.369 296.498 273.487 296.714 274.569L296.984 275.917C295.942 276.364 295.023 277.054 294.303 277.929C293.583 278.805 293.083 279.84 292.845 280.948L292.126 284.308C291.51 285.121 287.445 290.543 287.445 292.025C287.445 292.247 287.61 292.462 287.962 292.701C290.732 294.577 306.042 298.403 312.818 295.69C320.036 292.803 348.728 297.134 349.017 297.178L349.166 297.201Z" fill="#E6E6E6"/>
<path d="M327.193 180.399C336.654 180.399 344.323 172.727 344.323 163.264C344.323 153.8 336.654 146.128 327.193 146.128C317.733 146.128 310.064 153.8 310.064 163.264C310.064 172.727 317.733 180.399 327.193 180.399Z" fill="#FFB6B6"/>
<path d="M321.607 238.536L309.708 260.414L274.988 284.611L268.115 277.245L293.549 253.738C293.549 253.738 303.218 236.299 310.372 231.349L321.607 238.536Z" fill="#FFB6B6"/>
<path d="M270.078 288.048C273.332 288.048 275.969 285.41 275.969 282.155C275.969 278.901 273.332 276.262 270.078 276.262C266.825 276.262 264.188 278.901 264.188 282.155C264.188 285.41 266.825 288.048 270.078 288.048Z" fill="#FFB6B6"/>
<path d="M320.536 241.453L328.019 223.487L325.312 213.559C324.774 211.612 323.702 209.854 322.217 208.485C320.733 207.115 318.895 206.188 316.911 205.809C314.219 205.312 311.439 205.857 309.132 207.333C306.826 208.809 305.167 211.106 304.489 213.759C302.439 221.808 300.865 232.272 305.005 236.412L305.047 236.454L292.729 252.524L310.87 262.781L320.536 241.453Z" fill="#E6E6E6"/>
<path d="M344.117 151.455C342.724 149.578 340.722 148.243 339.191 146.476C338.42 145.451 337.591 144.471 336.709 143.54C334.859 142.002 332.525 141.168 330.119 141.185C327.509 141.118 324.92 141.667 322.562 142.786C320.203 143.906 318.142 145.565 316.543 147.63C315.299 146.9 314.054 146.17 312.809 145.44C312.318 146.735 311.826 148.03 311.334 149.324C310.93 148.973 310.416 148.777 309.881 148.769C309.346 148.762 308.826 148.944 308.413 149.283C308 149.623 307.72 150.098 307.623 150.624C307.527 151.15 307.619 151.693 307.885 152.157C307.589 151.242 306.231 151.047 305.483 151.652C305.137 151.988 304.88 152.405 304.735 152.865C304.591 153.326 304.564 153.815 304.657 154.288C304.81 155.336 305.273 156.313 305.986 157.095C306.699 157.877 307.629 158.428 308.657 158.677C310.282 159.039 312.172 158.659 313.472 159.698C314.514 160.531 314.829 162.048 315.893 162.854C317.203 163.846 319.056 163.387 320.685 163.607C322.105 163.85 323.383 164.618 324.265 165.758C325.147 166.898 325.57 168.327 325.45 169.763C325.649 168.845 326.028 167.974 326.564 167.202C326.839 166.821 327.219 166.527 327.657 166.357C328.095 166.187 328.573 166.148 329.033 166.244C330.517 166.689 330.76 168.713 330.4 170.22C329.446 174.218 325.832 180.68 325.832 180.68C330.525 182.532 336.117 180.781 339.739 177.266C343.361 173.751 345.247 168.774 346.068 163.794C346.765 159.571 346.666 154.893 344.117 151.455Z" fill="#2F2E41"/>
<path d="M499.171 443.272C499.171 443.395 499.147 443.518 499.1 443.632C499.053 443.746 498.984 443.85 498.896 443.937C498.809 444.024 498.706 444.093 498.592 444.14C498.477 444.187 498.355 444.211 498.232 444.211H277.163C276.914 444.211 276.676 444.112 276.5 443.936C276.324 443.76 276.225 443.521 276.225 443.272C276.225 443.023 276.324 442.784 276.5 442.608C276.676 442.432 276.914 442.333 277.163 442.333H498.232C498.355 442.333 498.477 442.357 498.592 442.404C498.706 442.451 498.809 442.52 498.896 442.607C498.984 442.695 499.053 442.798 499.1 442.912C499.147 443.026 499.171 443.149 499.171 443.272Z" fill="#CCCCCC"/>
</g>
<defs>
<clipPath id="clip0_166_1211">
<rect width="509" height="445" fill="white"/>
</clipPath>
</defs>
</svg>
