<svg width="368" height="161" viewBox="0 0 368 161" fill="none" xmlns="http://www.w3.org/2000/svg">
<path d="M0 0V73.923H6.01942V74.0281H20.9096C25.8727 74.0281 30.7307 73.0776 35.2719 71.0717C39.7073 69.2759 43.6141 66.5304 46.994 63.1514C50.4789 59.7715 53.1185 55.8647 54.9143 51.4293C56.9202 46.8881 57.8707 42.0301 57.8707 36.9611C57.8707 31.998 56.9202 27.1399 54.9143 22.5995C53.1185 18.1641 50.4789 14.2565 46.994 10.7716C43.6141 7.39252 39.7073 4.75217 35.2719 2.8513C30.7307 0.950435 25.8727 0 20.9096 0H0V0ZM14.7843 59.2438V14.7843H20.9096C33.1594 14.7843 43.0864 24.7113 43.0864 36.9611C43.0864 49.2117 33.1594 59.2438 20.9096 59.2438H14.7843Z" fill="white"/>
<path d="M97.7894 60.1949C95.6776 62.3067 92.8263 63.574 89.975 63.574C86.9127 63.574 84.0614 62.3067 81.8437 59.8781C80.6816 58.6108 79.837 57.1326 79.2034 55.4427H113.208C113.525 53.9645 113.63 52.5914 113.63 51.1132C113.63 37.7013 102.753 26.9297 89.4472 26.9297C76.1411 26.9297 65.2637 37.7013 65.2637 51.1132C65.2637 64.4193 76.1411 75.296 89.4472 75.296C96.7339 75.296 103.387 72.0228 107.716 66.8479L97.7894 60.1949V60.1949ZM78.9924 47.4166C79.626 45.5157 80.5765 43.7207 81.8437 42.2425C84.0614 39.919 86.9127 38.6517 89.975 38.6517C92.9321 38.6517 95.8885 39.919 98.0011 42.2425C99.3735 43.7207 100.324 45.5157 100.852 47.4166H78.9924V47.4166Z" fill="white"/>
<path d="M134.011 28.5137H122.605V107.083H134.961V68.432C139.291 72.7615 145.31 75.296 151.858 75.296C165.164 75.296 175.936 64.5244 175.936 51.1132C175.936 37.8071 165.164 26.9297 151.858 26.9297C145.31 26.9297 139.291 29.57 134.961 33.7937L134.011 28.5137V28.5137ZM161.996 51.1132C161.996 54.4923 160.729 57.5546 158.511 59.8781C156.293 62.2016 153.336 63.4689 150.168 63.4689C147 63.4689 143.938 62.2016 141.72 59.8781C139.502 57.5546 138.235 54.4923 138.235 51.1132C138.235 47.8393 139.502 44.777 141.72 42.4535C143.938 40.0248 147 38.7576 150.168 38.7576C153.336 38.7576 156.293 40.0248 158.511 42.4535C160.729 44.777 161.996 47.8393 161.996 51.1132V51.1132Z" fill="white"/>
<path d="M194.629 28.513H184.385V74.028H197.585V48.8948C198.958 41.6081 206.773 36.961 214.482 40.3408L219.657 28.6188C217.227 27.7735 214.588 27.3516 211.947 27.3516C205.928 27.3516 199.909 29.2524 196.529 33.6878L194.629 28.513V28.513Z" fill="white"/>
<path d="M254.293 60.1949C252.182 62.3067 249.33 63.574 246.479 63.574C243.417 63.574 240.565 62.3067 238.348 59.8781C237.186 58.6108 236.341 57.1326 235.707 55.4427H269.712C270.029 53.9645 270.134 52.5914 270.134 51.1132C270.134 37.7013 259.257 26.9297 245.951 26.9297C232.645 26.9297 221.768 37.7013 221.768 51.1132C221.768 64.4193 232.645 75.296 245.951 75.296C253.238 75.296 259.891 72.0228 264.22 66.8479L254.293 60.1949V60.1949ZM235.496 47.4166C236.13 45.5157 237.08 43.7207 238.348 42.2425C240.565 39.919 243.417 38.6517 246.479 38.6517C249.436 38.6517 252.392 39.919 254.505 42.2425C255.877 43.7207 256.828 45.5157 257.356 47.4166H235.496Z" fill="white"/>
<path d="M273.938 67.0589C279.535 72.6564 287.349 75.296 295.587 75.296C304.88 75.296 312.378 68.3261 312.378 61.0395C312.378 53.225 306.358 48.8955 299.916 46.9946C294.636 45.1989 289.673 44.5653 290.201 41.1862C290.834 36.3282 296.854 35.8004 305.725 42.1366L311.85 32.5264C305.725 28.8305 301.5 27.1406 293.686 27.1406C285.026 27.1406 277.528 32.6323 277.528 40.9752C277.528 49.7401 283.654 52.4855 292.524 55.2317C295.903 56.2873 299.177 57.3436 299.177 60.7226C299.177 66.4253 289.039 66.1084 282.386 58.505L273.938 67.0589V67.0589Z" fill="white"/>
<path d="M316.812 67.0589C322.409 72.6564 330.224 75.296 338.462 75.296C347.754 75.296 355.253 68.3261 355.253 61.0395C355.253 53.225 349.233 48.8955 342.791 46.9946C337.511 45.1989 332.547 44.5653 333.076 41.1862C333.709 36.3282 339.729 35.8004 348.6 42.1366L354.724 32.5264C348.6 28.8305 344.375 27.1406 336.561 27.1406C327.901 27.1406 320.403 32.6323 320.403 40.9752C320.403 49.7401 326.528 52.4855 335.399 55.2317C338.778 56.2873 342.052 57.3436 342.052 60.7226C342.052 66.4253 331.914 66.1084 325.261 58.505L316.812 67.0589Z" fill="white"/>
<path d="M218.184 84.1484C197.063 84.1484 179.85 101.362 179.85 122.483C179.85 143.604 197.063 160.817 218.184 160.817C239.305 160.817 256.518 143.604 256.518 122.483C256.518 101.362 239.305 84.1484 218.184 84.1484V84.1484ZM218.184 99.3554C230.962 99.3554 241.311 109.705 241.311 122.483C241.311 135.261 230.962 145.61 218.184 145.61C205.406 145.61 195.057 135.261 195.057 122.483C195.057 109.705 205.406 99.3554 218.184 99.3554Z" fill="#FF6464"/>
<path d="M313.437 114.035H299.919V136.318C299.919 139.486 298.757 142.442 296.962 144.555C294.956 146.773 292.21 148.04 289.57 148.04C286.93 148.04 284.184 146.773 282.072 144.555C280.382 142.442 279.221 139.486 279.221 136.318V114.035H265.703V136.635C265.703 150.046 277.214 160.817 289.57 160.817C301.82 160.817 313.437 150.046 313.437 136.635V114.035Z" fill="#FF6464"/>
<path d="M343.959 114.034V97.1367H330.547V114.034H321.043V126.389H330.547V159.549H343.959V126.389H354.519V114.034H343.959Z" fill="#FF6464"/>
<path d="M367.002 120.112L353.524 108.215V115.542H326.68V125.311H353.524V132.639L367.002 120.112Z" fill="#FF6464"/>
</svg>
