<svg width="100%" height="100%" viewBox="0 0 493 216" version="1.1" xmlns="http://www.w3.org/2000/svg" xmlns:xlink="http://www.w3.org/1999/xlink" xml:space="preserve" xmlns:serif="http://www.serif.com/" style="fill-rule:evenodd;clip-rule:evenodd;stroke-linejoin:round;stroke-miterlimit:2;"><g><g id="Depress-" serif:id="Depress "><path d="M0,-0l0,99.167l8.075,-0l0,0.141l19.975,0c6.658,0 13.175,-1.275 19.267,-3.966c5.95,-2.409 11.191,-6.092 15.725,-10.625c4.675,-4.534 8.216,-9.775 10.625,-15.725c2.691,-6.092 3.966,-12.609 3.966,-19.409c0,-6.658 -1.275,-13.175 -3.966,-19.266c-2.409,-5.95 -5.95,-11.192 -10.625,-15.867c-4.534,-4.533 -9.775,-8.075 -15.725,-10.625c-6.092,-2.55 -12.609,-3.825 -19.267,-3.825l-28.05,-0Zm19.833,79.475l0,-59.642l8.217,0c16.433,0 29.75,13.317 29.75,29.75c0,16.434 -13.317,29.892 -29.75,29.892l-8.217,0Z" style="fill:#30e3ca;fill-rule:nonzero;"/><path d="M131.183,80.75c-2.833,2.833 -6.658,4.533 -10.483,4.533c-4.108,0 -7.933,-1.7 -10.908,-4.958c-1.559,-1.7 -2.692,-3.683 -3.542,-5.95l45.617,0c0.425,-1.983 0.566,-3.825 0.566,-5.808c0,-17.992 -14.591,-32.442 -32.441,-32.442c-17.85,0 -32.442,14.45 -32.442,32.442c0,17.85 14.592,32.441 32.442,32.441c9.775,0 18.7,-4.391 24.508,-11.333l-13.317,-8.925Zm-25.216,-17.142c0.85,-2.55 2.125,-4.958 3.825,-6.941c2.975,-3.117 6.8,-4.817 10.908,-4.817c3.967,0 7.933,1.7 10.767,4.817c1.841,1.983 3.116,4.391 3.825,6.941l-29.325,0Z" style="fill:#30e3ca;fill-rule:nonzero;"/><path d="M179.775,38.25l-15.3,0l0,105.4l16.575,0l0,-51.85c5.808,5.808 13.883,9.208 22.667,9.208c17.85,0 32.3,-14.45 32.3,-32.441c-0,-17.85 -14.45,-32.442 -32.3,-32.442c-8.784,0 -16.859,3.542 -22.667,9.208l-1.275,-7.083Zm37.542,30.317c-0,4.533 -1.7,8.641 -4.675,11.758c-2.975,3.117 -6.942,4.817 -11.192,4.817c-4.25,-0 -8.358,-1.7 -11.333,-4.817c-2.975,-3.117 -4.675,-7.225 -4.675,-11.758c-0,-4.392 1.7,-8.5 4.675,-11.617c2.975,-3.258 7.083,-4.958 11.333,-4.958c4.25,-0 8.217,1.7 11.192,4.958c2.975,3.117 4.675,7.225 4.675,11.617Z" style="fill:#30e3ca;fill-rule:nonzero;"/><path d="M261.092,38.25l-13.742,0l0,61.058l17.708,0l0,-33.716c1.842,-9.775 12.325,-16.009 22.667,-11.475l6.942,-15.725c-3.259,-1.134 -6.8,-1.7 -10.342,-1.7c-8.075,-0 -16.15,2.55 -20.683,8.5l-2.55,-6.942Z" style="fill:#30e3ca;fill-rule:nonzero;"/><path d="M341.133,80.75c-2.833,2.833 -6.658,4.533 -10.483,4.533c-4.108,0 -7.933,-1.7 -10.908,-4.958c-1.559,-1.7 -2.692,-3.683 -3.542,-5.95l45.617,0c0.425,-1.983 0.566,-3.825 0.566,-5.808c0,-17.992 -14.591,-32.442 -32.441,-32.442c-17.85,0 -32.442,14.45 -32.442,32.442c0,17.85 14.592,32.441 32.442,32.441c9.775,0 18.7,-4.391 24.508,-11.333l-13.317,-8.925Zm-25.216,-17.142c0.85,-2.55 2.125,-4.958 3.825,-6.941c2.975,-3.117 6.8,-4.817 10.908,-4.817c3.967,0 7.933,1.7 10.767,4.817c1.841,1.983 3.116,4.391 3.825,6.941l-29.325,0Z" style="fill:#30e3ca;fill-rule:nonzero;"/><path d="M367.483,89.958c7.509,7.509 17.992,11.05 29.042,11.05c12.467,0 22.525,-9.35 22.525,-19.125c0,-10.483 -8.075,-16.291 -16.717,-18.841c-7.083,-2.409 -13.741,-3.259 -13.033,-7.792c0.85,-6.517 8.925,-7.225 20.825,1.275l8.217,-12.892c-8.217,-4.958 -13.884,-7.225 -24.367,-7.225c-11.617,0 -21.675,7.367 -21.675,18.559c0,11.758 8.217,15.441 20.117,19.125c4.533,1.416 8.925,2.833 8.925,7.366c-0,7.65 -13.6,7.225 -22.525,-2.975l-11.334,11.475Z" style="fill:#30e3ca;fill-rule:nonzero;"/><path d="M425,89.958c7.508,7.509 17.992,11.05 29.042,11.05c12.466,0 22.525,-9.35 22.525,-19.125c-0,-10.483 -8.075,-16.291 -16.717,-18.841c-7.083,-2.409 -13.742,-3.259 -13.033,-7.792c0.85,-6.517 8.925,-7.225 20.825,1.275l8.216,-12.892c-8.216,-4.958 -13.883,-7.225 -24.366,-7.225c-11.617,0 -21.675,7.367 -21.675,18.559c-0,11.758 8.216,15.441 20.116,19.125c4.534,1.416 8.925,2.833 8.925,7.366c0,7.65 -13.6,7.225 -22.525,-2.975l-11.333,11.475Z" style="fill:#30e3ca;fill-rule:nonzero;"/></g><g id="Depress-1" serif:id="Depress "><path d="M292.695,112.886c-28.333,0 -51.425,23.092 -51.425,51.425c0,28.334 23.092,51.425 51.425,51.425c28.334,0 51.425,-23.091 51.425,-51.425c0,-28.333 -23.091,-51.425 -51.425,-51.425Zm0,20.4c17.142,0 31.025,13.884 31.025,31.025c0,17.142 -13.883,31.025 -31.025,31.025c-17.141,0 -31.025,-13.883 -31.025,-31.025c0,-17.141 13.884,-31.025 31.025,-31.025Z" style="fill:#ff6464;fill-rule:nonzero;"/><path d="M420.479,152.978l-18.134,0l0,29.892c0,4.25 -1.558,8.216 -3.966,11.05c-2.692,2.975 -6.375,4.675 -9.917,4.675c-3.542,-0 -7.225,-1.7 -10.058,-4.675c-2.267,-2.834 -3.825,-6.8 -3.825,-11.05l-0,-29.892l-18.134,0l0,30.317c0,17.991 15.442,32.441 32.017,32.441c16.433,0 32.017,-14.45 32.017,-32.441l-0,-30.317Z" style="fill:#ff6464;fill-rule:nonzero;"/><path d="M461.42,152.978l0,-22.667l-17.991,0l-0,22.667l-12.75,0l-0,16.575l12.75,0l-0,44.483l17.991,0l0,-44.483l14.167,0l0,-16.575l-14.167,0Z" style="fill:#ff6464;fill-rule:nonzero;"/></g><path d="M492.327,161.127l-18.08,-15.96l0,9.829l-36.012,0l-0,13.106l36.012,0l0,9.83l18.08,-16.805Z" style="fill:#ff6464;fill-rule:nonzero;"/></g></svg>