<svg width="105" height="30" viewBox="0 0 105 30" fill="none" xmlns="http://www.w3.org/2000/svg">
<path d="M2.08 29C1.62667 29 1.24 28.8667 0.92 28.6C0.626667 28.3067 0.48 27.9333 0.48 27.48V2.28C0.48 1.77333 0.626667 1.37333 0.92 1.08C1.21333 0.759999 1.61333 0.599998 2.12 0.599998C2.62667 0.599998 3.02667 0.759999 3.32 1.08C3.61333 1.37333 3.76 1.77333 3.76 2.28V26.2H16.68C17.16 26.2 17.5333 26.32 17.8 26.56C18.0667 26.8 18.2 27.1467 18.2 27.6C18.2 28.0533 18.0667 28.4 17.8 28.64C17.5333 28.88 17.16 29 16.68 29H2.08ZM32.4363 29.32C29.8229 29.32 27.5429 28.7333 25.5963 27.56C23.6763 26.3867 22.1963 24.72 21.1563 22.56C20.1163 20.4 19.5963 17.8533 19.5963 14.92C19.5963 11.96 20.1029 9.4 21.1163 7.24C22.1563 5.05333 23.6363 3.38667 25.5563 2.24C27.5029 1.06666 29.7963 0.479998 32.4363 0.479998C35.0763 0.479998 37.3563 1.06666 39.2763 2.24C41.2229 3.38667 42.7029 5.05333 43.7163 7.24C44.7563 9.4 45.2763 11.9467 45.2763 14.88C45.2763 17.8133 44.7563 20.3733 43.7163 22.56C42.6763 24.72 41.1829 26.3867 39.2363 27.56C37.3163 28.7333 35.0496 29.32 32.4363 29.32ZM32.4363 26.52C35.4229 26.52 37.7429 25.52 39.3963 23.52C41.0763 21.4933 41.9163 18.6133 41.9163 14.88C41.9163 11.1467 41.0896 8.28 39.4363 6.28C37.7829 4.28 35.4496 3.28 32.4363 3.28C29.4496 3.28 27.1163 4.29333 25.4363 6.32C23.7829 8.32 22.9563 11.1733 22.9563 14.88C22.9563 18.5867 23.7829 21.4533 25.4363 23.48C27.1163 25.5067 29.4496 26.52 32.4363 26.52ZM72.1431 14.32C72.5431 14.32 72.8631 14.44 73.1031 14.68C73.3698 14.92 73.5031 15.2533 73.5031 15.68V25.64C73.5031 26.28 73.3965 26.76 73.1831 27.08C72.9965 27.4 72.6365 27.6533 72.1031 27.84C71.0365 28.2933 69.7431 28.6533 68.2231 28.92C66.7031 29.1867 65.1831 29.32 63.6631 29.32C60.8631 29.32 58.4498 28.7467 56.4231 27.6C54.3965 26.4533 52.8365 24.8 51.7431 22.64C50.6765 20.48 50.1431 17.8933 50.1431 14.88C50.1431 11.92 50.6765 9.36 51.7431 7.2C52.8098 5.04 54.3431 3.38667 56.3431 2.24C58.3431 1.06666 60.6898 0.479998 63.3831 0.479998C65.2498 0.479998 66.9831 0.773331 68.5831 1.36C70.1831 1.92 71.5298 2.73333 72.6231 3.8C73.0765 4.25333 73.3031 4.72 73.3031 5.2C73.3031 5.57333 73.1965 5.90667 72.9831 6.2C72.7698 6.46667 72.5031 6.6 72.1831 6.6C71.8631 6.6 71.4898 6.44 71.0631 6.12C69.6765 5.05333 68.4231 4.32 67.3031 3.92C66.1831 3.49333 64.8898 3.28 63.4231 3.28C60.2498 3.28 57.8098 4.28 56.1031 6.28C54.4231 8.28 53.5831 11.1467 53.5831 14.88C53.5831 18.6933 54.4365 21.6 56.1431 23.6C57.8765 25.5733 60.4098 26.56 63.7431 26.56C66.2231 26.56 68.4765 26.1867 70.5031 25.44V16.88H64.6631C64.2098 16.88 63.8498 16.76 63.5831 16.52C63.3165 16.28 63.1831 15.9733 63.1831 15.6C63.1831 15.2 63.3165 14.8933 63.5831 14.68C63.8498 14.44 64.2098 14.32 64.6631 14.32H72.1431ZM91.9284 29.32C89.3151 29.32 87.0351 28.7333 85.0884 27.56C83.1684 26.3867 81.6884 24.72 80.6484 22.56C79.6084 20.4 79.0884 17.8533 79.0884 14.92C79.0884 11.96 79.5951 9.4 80.6084 7.24C81.6484 5.05333 83.1284 3.38667 85.0484 2.24C86.9951 1.06666 89.2884 0.479998 91.9284 0.479998C94.5684 0.479998 96.8484 1.06666 98.7684 2.24C100.715 3.38667 102.195 5.05333 103.208 7.24C104.248 9.4 104.768 11.9467 104.768 14.88C104.768 17.8133 104.248 20.3733 103.208 22.56C102.168 24.72 100.675 26.3867 98.7284 27.56C96.8084 28.7333 94.5418 29.32 91.9284 29.32ZM91.9284 26.52C94.9151 26.52 97.2351 25.52 98.8884 23.52C100.568 21.4933 101.408 18.6133 101.408 14.88C101.408 11.1467 100.582 8.28 98.9284 6.28C97.2751 4.28 94.9418 3.28 91.9284 3.28C88.9418 3.28 86.6084 4.29333 84.9284 6.32C83.2751 8.32 82.4484 11.1733 82.4484 14.88C82.4484 18.5867 83.2751 21.4533 84.9284 23.48C86.6084 25.5067 88.9418 26.52 91.9284 26.52Z" fill="black"/>
</svg>
