
<svg width="496" height="500" viewBox="0 0 496 500" fill="none" xmlns="http://www.w3.org/2000/svg">
<path d="M125.12 479.805C124.573 479.83 124.031 479.686 123.568 479.393C123.105 479.099 122.744 478.671 122.532 478.165C122.321 477.659 122.27 477.101 122.386 476.565C122.503 476.029 122.781 475.543 123.184 475.17C123.251 474.902 123.299 474.71 123.367 474.442C122.843 473.111 121.934 471.966 120.756 471.155C119.578 470.344 118.184 469.904 116.755 469.89C115.325 469.877 113.923 470.291 112.73 471.079C111.537 471.868 110.607 472.995 110.058 474.316C106.891 481.733 102.792 489.412 104.831 497.581C91.3672 469.029 95.9458 433.513 115.843 409.096C121.343 406.064 125.801 400.678 126.961 394.424C124.239 395.347 120.846 393.132 122.892 390.263C123.779 389.166 124.675 388.078 125.562 386.982C115.222 375.963 102.903 393.28 114.284 408.152C110.561 412.823 107.336 417.87 104.662 423.212C105.279 417.54 104.542 411.802 102.511 406.47C100.453 401.502 96.5946 397.317 93.197 393.021C89.0661 387.787 80.564 390.202 80.0081 396.844C83.8204 398.098 84.3157 403.608 79.9548 404.362C81.0971 416.718 89.1643 428.073 100.275 433.492C96.1722 445.012 94.5699 457.275 95.5755 469.463C93.6142 455.219 78.3332 451.762 67.6525 446.101C66.9727 445.664 66.1808 445.436 65.3732 445.442C64.5657 445.449 63.7775 445.69 63.1048 446.137C62.4321 446.584 61.9039 447.217 61.5848 447.96C61.2656 448.702 61.1693 449.521 61.3075 450.317C62.7816 450.917 64.1926 451.662 65.5196 452.541C66.1414 452.959 66.6187 453.56 66.886 454.26C67.1533 454.961 67.1977 455.727 67.0129 456.453C66.8281 457.18 66.4232 457.831 65.8538 458.319C65.2844 458.806 64.5783 459.105 63.8323 459.175C69.2161 472.508 83.1352 481.461 97.4311 481.411C98.8049 487.384 100.795 493.199 103.371 498.761H124.588C124.665 498.525 124.733 498.281 124.801 498.045C122.837 498.169 120.866 498.051 118.93 497.695C124.126 491.539 128.145 488.399 125.121 479.805L125.12 479.805Z" fill="#F2F2F2"/>
<path d="M314.279 479.805C314.826 479.83 315.368 479.686 315.831 479.393C316.293 479.099 316.655 478.671 316.866 478.165C317.078 477.659 317.129 477.101 317.012 476.565C316.896 476.029 316.617 475.543 316.215 475.17C316.148 474.902 316.099 474.71 316.032 474.442C316.556 473.111 317.465 471.966 318.643 471.155C319.821 470.344 321.214 469.904 322.644 469.89C324.074 469.877 325.475 470.291 326.668 471.079C327.862 471.868 328.792 472.995 329.341 474.316C332.508 481.733 336.606 489.412 334.568 497.581C348.032 469.029 343.453 433.513 323.556 409.096C318.056 406.064 313.598 400.678 312.438 394.424C315.159 395.347 318.553 393.132 316.507 390.263C315.619 389.166 314.724 388.078 313.837 386.982C324.176 375.963 336.496 393.28 325.115 408.152C328.838 412.823 332.063 417.87 334.737 423.212C334.119 417.54 334.856 411.802 336.887 406.47C338.946 401.502 342.804 397.317 346.202 393.021C350.333 387.787 358.835 390.202 359.391 396.844C355.578 398.098 355.083 403.608 359.444 404.362C358.302 416.718 350.234 428.073 339.123 433.492C343.227 445.012 344.829 457.275 343.823 469.463C345.784 455.219 361.065 451.762 371.746 446.101C372.426 445.664 373.218 445.436 374.025 445.442C374.833 445.449 375.621 445.69 376.294 446.137C376.967 446.584 377.495 447.217 377.814 447.96C378.133 448.702 378.229 449.521 378.091 450.317C376.617 450.917 375.206 451.662 373.879 452.541C373.257 452.959 372.78 453.56 372.513 454.26C372.245 454.961 372.201 455.727 372.386 456.453C372.571 457.18 372.975 457.831 373.545 458.319C374.114 458.806 374.82 459.105 375.566 459.175C370.183 472.508 356.263 481.461 341.968 481.411C340.594 487.384 338.603 493.199 336.028 498.761H314.81C314.734 498.525 314.666 498.281 314.597 498.045C316.561 498.169 318.533 498.051 320.468 497.695C315.272 491.539 311.254 488.399 314.278 479.805L314.279 479.805Z" fill="#F2F2F2"/>
<path d="M322.146 482.959L313.008 485.039L300.641 450.762L314.127 447.691L322.146 482.959Z" fill="#FFB6B6"/>
<path d="M324.639 492.422L296.54 498.82L296.459 498.464C295.799 495.562 296.319 492.516 297.903 489.997C299.487 487.477 302.007 485.691 304.907 485.03L304.908 485.03L309.155 479.965L319.617 481.681L322.07 481.123L324.639 492.422Z" fill="#2F2E41"/>
<path d="M469.553 315.879L474.576 323.794L446.453 346.951L439.039 335.268L469.553 315.879Z" fill="#FFB6B6"/>
<path d="M477.628 310.355L493.077 334.697L492.769 334.893C490.258 336.488 487.216 337.021 484.313 336.372C481.409 335.724 478.882 333.948 477.287 331.436L477.287 331.435L471.094 329.131L469.2 318.693L467.852 316.568L477.628 310.355Z" fill="#2F2E41"/>
<path d="M178.276 231.249L176.02 218.16L210.331 202.656L217.741 189.529C217.501 188.377 217.585 187.182 217.982 186.074C218.379 184.967 219.075 183.991 219.992 183.254C220.908 182.517 222.011 182.048 223.177 181.899C224.343 181.75 225.528 181.926 226.601 182.409C227.673 182.891 228.592 183.66 229.254 184.632C229.917 185.604 230.299 186.74 230.357 187.915C230.415 189.09 230.147 190.259 229.583 191.291C229.019 192.324 228.181 193.18 227.161 193.766L214.972 212.623L178.276 231.249Z" fill="#A0616A"/>
<path d="M167.848 220.55L183.299 212.652L187.389 228.02L176.657 235.981L167.848 220.55Z" fill="#30E3CA"/>
<path d="M133.174 481.766L142.516 481.765L146.961 445.707L133.172 445.708L133.174 481.766Z" fill="#A0616A"/>
<path d="M145.628 482.611V476.273L143.172 476.424L133.174 477.016L130.86 477.158L129.091 498.384L128.996 499.522H135.63L135.843 498.392L136.807 493.255L139.294 498.392L139.839 499.522H157.426C158.473 499.515 159.475 499.096 160.214 498.354C160.953 497.613 161.371 496.61 161.375 495.563C162.117 492.094 147.492 484.594 145.628 482.611Z" fill="#2F2E41"/>
<path d="M22.2755 338.668L20.0977 347.759L54.1041 360.491L57.318 347.074L22.2755 338.668Z" fill="#A0616A"/>
<path d="M19.2931 350.587L25.4521 352.065L25.8789 349.64L27.6341 339.773L28.0353 337.489L7.82027 330.818L6.73648 330.461L5.18975 336.916L6.23822 337.387L11.0053 339.522L5.43355 340.745L4.20831 341.012L0.10766 358.125C-0.129914 359.145 0.0441808 360.217 0.592175 361.109C1.14017 362.002 2.0178 362.641 3.03447 362.89C6.23276 364.421 16.9309 351.938 19.2931 350.587Z" fill="#2F2E41"/>
<path d="M147.619 248.402L135.594 242.777L111.613 271.817L97.0058 275.513C95.9582 274.979 94.7834 274.745 93.6111 274.837C92.4389 274.928 91.3149 275.343 90.3632 276.034C89.4115 276.725 88.6691 277.665 88.2182 278.752C87.7673 279.839 87.6253 281.029 87.8079 282.191C87.9905 283.353 88.4906 284.442 89.253 285.338C90.0154 286.234 91.0104 286.901 92.128 287.267C93.2457 287.632 94.4426 287.681 95.5864 287.409C96.7303 287.136 97.7766 286.553 98.6098 285.723L119.999 278.921L147.619 248.402Z" fill="#A0616A"/>
<path d="M318.107 140.901C315.558 140.901 313.066 140.145 310.947 138.728C308.827 137.311 307.175 135.297 306.2 132.94C305.224 130.584 304.969 127.991 305.466 125.49C305.964 122.988 307.191 120.69 308.994 118.887C310.796 117.083 313.092 115.855 315.592 115.357C318.092 114.86 320.684 115.115 323.039 116.091C325.394 117.067 327.407 118.72 328.823 120.841C330.239 122.962 330.995 125.455 330.995 128.005C330.991 131.424 329.632 134.702 327.216 137.12C324.8 139.538 321.524 140.898 318.107 140.901ZM318.107 116.589C315.85 116.589 313.644 117.259 311.768 118.513C309.892 119.768 308.43 121.551 307.566 123.637C306.703 125.723 306.477 128.018 306.917 130.233C307.357 132.447 308.444 134.481 310.039 136.078C311.635 137.674 313.668 138.762 315.881 139.202C318.094 139.643 320.388 139.417 322.473 138.552C324.558 137.688 326.339 136.225 327.593 134.348C328.847 132.47 329.516 130.263 329.516 128.005C329.512 124.979 328.309 122.077 326.17 119.937C324.031 117.797 321.132 116.593 318.107 116.589Z" fill="#E6E6E6"/>
<path d="M317.199 132.864C317.173 132.864 317.147 132.864 317.121 132.862C316.892 132.851 316.669 132.791 316.465 132.685C316.262 132.579 316.084 132.431 315.943 132.25L313.913 129.638C313.785 129.473 313.69 129.285 313.635 129.084C313.58 128.882 313.565 128.672 313.59 128.465C313.616 128.257 313.683 128.057 313.786 127.876C313.889 127.694 314.027 127.534 314.192 127.406L314.265 127.349C314.43 127.221 314.618 127.126 314.819 127.071C315.021 127.015 315.231 127 315.438 127.026C315.645 127.052 315.845 127.119 316.027 127.222C316.208 127.325 316.368 127.463 316.496 127.628C316.598 127.76 316.728 127.868 316.876 127.945C317.024 128.022 317.187 128.066 317.354 128.074C317.521 128.082 317.687 128.054 317.842 127.992C317.997 127.93 318.137 127.835 318.252 127.714L322.374 123.359C322.664 123.054 323.063 122.875 323.485 122.864C323.906 122.852 324.315 123.009 324.621 123.298L324.689 123.363C324.84 123.506 324.962 123.678 325.047 123.869C325.132 124.06 325.179 124.266 325.185 124.474C325.19 124.683 325.155 124.891 325.08 125.086C325.005 125.281 324.893 125.46 324.749 125.611L318.352 132.368C318.204 132.525 318.025 132.65 317.827 132.735C317.628 132.82 317.415 132.864 317.199 132.864Z" fill="#E6E6E6"/>
<path d="M253.771 297.034C251.222 297.034 248.73 296.278 246.611 294.861C244.491 293.444 242.839 291.43 241.864 289.073C240.888 286.717 240.633 284.124 241.13 281.622C241.628 279.121 242.855 276.823 244.658 275.019C246.46 273.216 248.756 271.988 251.256 271.49C253.757 270.992 256.348 271.248 258.703 272.224C261.058 273.2 263.071 274.853 264.487 276.974C265.903 279.094 266.659 281.588 266.659 284.138C266.655 287.557 265.296 290.835 262.88 293.253C260.464 295.671 257.188 297.03 253.771 297.034ZM253.771 272.722C251.514 272.722 249.309 273.392 247.432 274.646C245.556 275.901 244.094 277.683 243.23 279.769C242.367 281.855 242.141 284.151 242.581 286.365C243.021 288.58 244.108 290.614 245.703 292.211C247.299 293.807 249.332 294.894 251.545 295.335C253.758 295.775 256.052 295.549 258.137 294.685C260.222 293.821 262.003 292.358 263.257 290.481C264.511 288.603 265.18 286.396 265.18 284.138C265.176 281.112 263.973 278.21 261.834 276.07C259.696 273.929 256.796 272.726 253.771 272.722Z" fill="#E6E6E6"/>
<path d="M252.863 288.997C252.837 288.997 252.811 288.996 252.785 288.995C252.556 288.984 252.333 288.924 252.129 288.818C251.926 288.712 251.748 288.564 251.607 288.383L249.577 285.771C249.449 285.606 249.355 285.418 249.299 285.216C249.244 285.015 249.229 284.805 249.254 284.597C249.28 284.39 249.347 284.19 249.45 284.008C249.553 283.827 249.691 283.667 249.856 283.539L249.929 283.482C250.094 283.354 250.282 283.259 250.483 283.204C250.685 283.148 250.895 283.133 251.102 283.159C251.309 283.185 251.509 283.251 251.691 283.355C251.872 283.458 252.032 283.596 252.16 283.761C252.263 283.893 252.392 284.001 252.54 284.078C252.689 284.155 252.852 284.199 253.018 284.207C253.185 284.215 253.351 284.187 253.506 284.125C253.661 284.063 253.801 283.968 253.916 283.847L258.038 279.492C258.328 279.186 258.728 279.008 259.149 278.997C259.57 278.985 259.979 279.141 260.285 279.431L260.353 279.496C260.504 279.639 260.626 279.811 260.711 280.002C260.796 280.193 260.843 280.398 260.849 280.607C260.854 280.816 260.819 281.024 260.744 281.219C260.669 281.414 260.557 281.592 260.413 281.744L254.016 288.5C253.868 288.657 253.689 288.782 253.491 288.868C253.292 288.953 253.079 288.997 252.863 288.997Z" fill="#E6E6E6"/>
<path d="M112.525 123.144C109.976 123.144 107.484 122.387 105.365 120.97C103.245 119.553 101.593 117.539 100.618 115.183C99.6423 112.826 99.3871 110.233 99.8844 107.732C100.382 105.23 101.609 102.932 103.412 101.129C105.214 99.3252 107.51 98.097 110.01 97.5994C112.51 97.1018 115.102 97.3572 117.457 98.3332C119.812 99.3093 121.825 100.962 123.241 103.083C124.657 105.204 125.413 107.697 125.413 110.248C125.409 113.667 124.05 116.945 121.634 119.362C119.218 121.78 115.942 123.14 112.525 123.144ZM112.525 98.8315C110.268 98.8315 108.062 99.5011 106.186 100.755C104.31 102.01 102.848 103.793 101.984 105.879C101.121 107.965 100.895 110.26 101.335 112.475C101.775 114.689 102.862 116.723 104.457 118.32C106.053 119.917 108.086 121.004 110.299 121.444C112.512 121.885 114.806 121.659 116.891 120.795C118.976 119.931 120.757 118.467 122.011 116.59C123.265 114.713 123.934 112.505 123.934 110.248C123.93 107.221 122.727 104.319 120.588 102.179C118.449 100.039 115.55 98.835 112.525 98.8315Z" fill="#E6E6E6"/>
<path d="M111.613 115.107C111.587 115.107 111.561 115.106 111.535 115.104C111.306 115.093 111.083 115.033 110.879 114.927C110.676 114.822 110.498 114.673 110.357 114.492L108.327 111.88C108.199 111.716 108.105 111.527 108.049 111.326C107.994 111.124 107.979 110.914 108.004 110.707C108.03 110.499 108.097 110.299 108.2 110.118C108.303 109.936 108.441 109.777 108.606 109.648L108.679 109.592C108.844 109.463 109.032 109.369 109.233 109.313C109.435 109.258 109.645 109.242 109.852 109.268C110.059 109.294 110.26 109.361 110.441 109.464C110.623 109.567 110.782 109.706 110.91 109.871C111.013 110.002 111.142 110.11 111.29 110.187C111.439 110.264 111.602 110.308 111.768 110.316C111.935 110.324 112.101 110.296 112.256 110.234C112.411 110.172 112.551 110.077 112.666 109.956L116.788 105.601C117.078 105.296 117.478 105.118 117.899 105.106C118.32 105.095 118.729 105.251 119.035 105.54L119.103 105.605C119.254 105.748 119.376 105.921 119.461 106.111C119.546 106.302 119.593 106.508 119.599 106.717C119.604 106.925 119.569 107.133 119.494 107.328C119.419 107.523 119.307 107.702 119.163 107.853L112.766 114.61C112.618 114.767 112.439 114.892 112.241 114.977C112.042 115.063 111.829 115.107 111.613 115.107Z" fill="#E6E6E6"/>
<path d="M215.706 344.986C185.82 344.986 151.474 311.801 121.086 327.568C29.08 375.306 41.7452 295.423 15.3125 265.714L16.1803 263.973C45.3457 290.14 81.7597 311.431 121.486 325.542C157.386 338.295 193.555 344.204 226.07 342.645L226.127 344.738C222.693 344.904 219.219 344.986 215.706 344.986Z" fill="#F2F2F2"/>
<path d="M174.708 120.619C178.158 120.619 180.955 116.867 180.955 112.237C180.955 107.608 178.158 103.855 174.708 103.855C171.258 103.855 168.461 107.608 168.461 112.237C168.461 116.867 171.258 120.619 174.708 120.619Z" fill="#E6E6E6"/>
<path d="M246.862 251.378C244.006 253.282 241.083 248.75 243.994 246.931C246.85 245.027 249.773 249.559 246.862 251.378Z" fill="#E6E6E6"/>
<path d="M230.424 98.8067C234.916 98.8067 238.558 95.1625 238.558 90.667C238.558 86.1716 234.916 82.5273 230.424 82.5273C225.931 82.5273 222.289 86.1716 222.289 90.667C222.289 95.1625 225.931 98.8067 230.424 98.8067Z" fill="#FF6584"/>
<path opacity="0.3" d="M258.875 135.273L305.163 0L254.336 133.654C254.085 133.971 253.912 134.344 253.834 134.741C253.755 135.138 253.772 135.549 253.884 135.938C253.995 136.327 254.197 136.684 254.474 136.979C254.751 137.274 255.094 137.499 255.476 137.635C255.857 137.771 256.265 137.814 256.666 137.761C257.067 137.708 257.449 137.559 257.782 137.328C258.114 137.097 258.387 136.791 258.577 136.433C258.767 136.076 258.869 135.678 258.875 135.273H258.875Z" fill="#F0F0F0"/>
<path d="M212.149 300.077C216.52 300.077 220.063 296.531 220.063 292.158C220.063 287.784 216.52 284.238 212.149 284.238C207.778 284.238 204.234 287.784 204.234 292.158C204.234 296.531 207.778 300.077 212.149 300.077Z" fill="#F2F2F2"/>
<path d="M135.495 295.18C135.495 295.18 115.765 308.036 120.982 316.578C121.162 316.873 97.414 348.257 97.414 348.257L52.5834 345.409L51.0039 360.424L90.9153 371.99C90.9153 371.99 100.679 379.168 108.222 371.259C115.765 363.351 140.889 339.133 140.889 339.133L142.101 388.028L129.489 455.782L148.321 454.587L166.65 386.613L173.415 309.616L135.495 295.18Z" fill="#2F2E41"/>
<path d="M149.552 218.022L141.255 224.313L131.798 244.51L140.892 256.868C140.892 256.868 148.541 270.133 136.298 282.98C124.054 295.826 114.651 309.547 124.452 309.057C134.252 308.567 173.943 328.768 174.205 312.218C174.466 295.668 174.994 282.98 174.994 282.98L185.401 256.569C185.401 256.569 191.6 240.814 187.248 236.098C182.895 231.382 177.066 225.355 177.066 225.355L166.468 214.75H156.898L149.552 218.022Z" fill="#30E3CA"/>
<path d="M165.039 179.218C183.653 189.817 168.372 217.781 149.411 207.823C130.798 197.225 146.079 169.26 165.039 179.218Z" fill="#A0616A"/>
<path d="M174.996 185.094C173.692 186.791 170.967 185.995 165.63 187.206C165.642 185.397 165.433 183.592 165.008 181.833C164.611 184.011 163.741 186.075 162.459 187.88C157.826 188.395 163.506 202.48 161.133 212.836C158.077 190.988 151.647 196.712 154.895 201.045C156.975 203.82 155.589 212.142 149.35 207.981C139.058 212.876 124.398 188.562 140.646 177.159C140.355 170.995 147.209 170.021 151.43 171.916C161.673 164.281 173.375 174.064 174.996 185.094Z" fill="#2F2E41"/>
<path d="M127.235 169.153C123.091 194.648 100.879 164.464 90.4345 189.554C87.1507 198.64 92.7848 205.14 96.3486 212.682C97.162 218.88 89.1038 222.024 88.2598 227.73C88.0248 240.81 109.114 240.009 115.01 231.757C121.067 223.118 113.833 211.528 117.475 202.255C122.592 189.382 143.405 189.286 145.218 174.309C141.706 169.305 132.264 163.575 127.235 169.153Z" fill="#2F2E41"/>
<path d="M144.022 171.641C143.886 171.698 143.751 171.755 143.63 171.82H143.622C143.508 171.877 143.394 171.934 143.28 171.998C143.266 172.005 143.259 172.013 143.244 172.02C143.094 171.877 142.945 171.734 142.788 171.591C142.747 171.824 142.757 172.062 142.816 172.291L142.838 172.377C142.98 172.527 143.13 172.669 143.287 172.819C143.43 172.712 143.565 172.598 143.708 172.491C143.794 172.419 143.879 172.348 143.972 172.277C143.986 172.091 144.008 171.877 144.029 171.641L144.022 171.641ZM148.318 163.702C145.135 162.973 144.108 167.136 143.801 169.142C142.645 161.86 137.836 164.152 139.498 169.121C140.028 170.592 140.862 171.935 141.946 173.062C142.096 173.233 142.26 173.405 142.431 173.576C142.238 174.576 143.209 174.319 144.522 173.398C145.491 172.708 146.388 171.921 147.197 171.049C149.816 168.3 151.857 164.623 148.318 163.702ZM148.417 167.8C147.436 169.067 146.334 170.236 145.128 171.291C144.75 171.634 144.365 171.963 143.972 172.277C143.965 172.341 143.965 172.398 143.958 172.448C143.93 172.517 143.897 172.584 143.858 172.648C143.458 173.369 143.009 172.976 142.838 172.377C142.823 172.355 142.802 172.334 142.788 172.312C142.217 171.723 141.721 171.066 141.311 170.356C138.364 165.244 143.109 161.767 142.873 171.313C142.83 171.4 142.801 171.494 142.788 171.591C142.747 171.824 142.757 172.062 142.816 172.291L142.838 172.377C142.98 172.527 143.13 172.669 143.287 172.819C143.43 172.712 143.565 172.598 143.708 172.491C143.794 172.419 143.879 172.348 143.972 172.277C143.986 172.091 144.008 171.877 144.029 171.641V171.634C144.215 169.721 144.721 166.279 145.656 165.344C147.711 163.766 150.373 165.472 148.417 167.8ZM144.022 171.641C143.886 171.698 143.751 171.755 143.63 171.82H143.622C143.508 171.877 143.394 171.934 143.28 171.998C143.266 172.005 143.259 172.013 143.244 172.02C143.094 171.877 142.945 171.734 142.788 171.591C142.747 171.824 142.757 172.062 142.816 172.291L142.838 172.377C142.98 172.527 143.13 172.669 143.287 172.819C143.43 172.712 143.565 172.598 143.708 172.491C143.794 172.419 143.879 172.348 143.972 172.277C143.986 172.091 144.008 171.877 144.029 171.641L144.022 171.641Z" fill="#2F2E41"/>
<path d="M316.065 312.208L309.19 330.147L276.941 393.8L305.278 467.847L319.903 463.984L307.849 393.8L342.431 351.755L383.501 379.627C383.501 379.627 401.715 393.855 408.644 380.367C415.574 366.878 460.41 338.188 460.41 338.188L449.318 326.349L397.686 350.527L362.049 300.336L316.065 312.208Z" fill="#2F2E41"/>
<path d="M350.753 227.588L339.436 215.422L320.024 212.75L296.238 229.412L296.478 247.854L308.236 291.312C308.236 291.312 303.757 322.535 316.267 322.221C328.777 321.908 335.595 315.668 340.69 316.938C345.786 318.208 367.444 323.615 368.817 317.952C370.189 312.289 377.486 316.344 377.165 310.986C376.845 305.629 357.414 267.012 357.414 267.012L362.245 228.392L350.753 227.588Z" fill="#30E3CA"/>
<path d="M422.406 171.587C422.507 172.596 422.386 173.615 422.051 174.572C421.716 175.529 421.176 176.401 420.468 177.127C419.76 177.852 418.901 178.413 417.953 178.771C417.005 179.128 415.99 179.274 414.979 179.196L388.956 228.72L381.969 217.988L408.569 171.248C408.811 169.558 409.665 168.016 410.968 166.914C412.271 165.812 413.932 165.226 415.638 165.268C417.343 165.31 418.974 165.976 420.222 167.141C421.469 168.305 422.246 169.888 422.406 171.587Z" fill="#FFB6B6"/>
<path d="M340.48 236.797C340.48 236.797 339.448 245.606 349.359 247.787C359.27 249.968 386.728 234.269 391.23 231.871C392.639 231.12 394.552 227.44 396.514 222.738C397.395 220.627 398.287 218.311 399.147 215.961C399.644 214.601 402.028 214.23 402.497 212.881C402.963 211.54 401.516 209.222 401.938 207.958C403.943 201.958 405.364 197.198 405.364 197.198L398.795 184.852C389.608 189.712 384.896 200.416 381.43 212.75L340.48 236.797Z" fill="#30E3CA"/>
<path d="M224.729 182.959C224.883 183.961 225.255 184.917 225.819 185.76C226.382 186.603 227.124 187.312 227.991 187.837C228.858 188.362 229.829 188.69 230.836 188.799C231.844 188.908 232.863 188.794 233.822 188.466L271.404 229.897L275.484 217.757L238.041 179.165C237.384 177.59 236.171 176.311 234.634 175.57C233.097 174.829 231.342 174.678 229.701 175.146C228.06 175.613 226.648 176.667 225.731 178.107C224.815 179.547 224.458 181.273 224.729 182.959Z" fill="#FFB6B6"/>
<path d="M320.36 225.577C320.36 225.577 323.562 233.847 314.512 238.44C305.462 243.034 274.951 234.71 269.993 233.515C268.44 233.141 265.668 230.057 262.592 225.997C261.211 224.174 259.769 222.154 258.348 220.094C257.526 218.902 255.126 219.14 254.335 217.952C253.548 216.77 254.369 214.163 253.644 213.045C250.203 207.738 247.637 203.486 247.637 203.486L250.909 189.887C261.019 192.291 268.258 201.476 274.698 212.549L320.36 225.577Z" fill="#30E3CA"/>
<path d="M330.119 209.655C340.319 209.655 348.589 201.38 348.589 191.173C348.589 180.966 340.319 172.691 330.119 172.691C319.918 172.691 311.648 180.966 311.648 191.173C311.648 201.38 319.918 209.655 330.119 209.655Z" fill="#FFB6B6"/>
<path d="M351.201 180.593C349.258 177.585 345.612 175.581 342.077 176.144C341.748 173.887 340.807 171.763 339.355 170.005C337.904 168.246 335.998 166.919 333.845 166.17C331.692 165.42 329.375 165.275 327.146 165.752C324.917 166.228 322.861 167.308 321.203 168.873C320.657 168.488 320.022 168.251 319.358 168.185C318.694 168.118 318.025 168.225 317.414 168.493C316.197 169.047 315.139 169.897 314.336 170.965C312.308 173.496 311.004 176.53 310.562 179.743C310.12 182.957 310.557 186.231 311.827 189.215C311.395 187.644 312.969 186.166 314.559 185.813C316.149 185.461 317.817 185.794 319.429 185.565C321.496 185.27 323.354 184.071 325.424 183.801C327.179 183.686 328.94 183.913 330.609 184.467C332.278 185.022 334.036 185.258 335.792 185.164C337.534 184.957 339.778 191.563 339.748 196.216C339.743 197.098 339.924 198.23 340.785 198.417C341.846 198.647 342.46 197.183 343.47 196.784C343.935 196.65 344.434 196.703 344.861 196.93C345.288 197.157 345.611 197.542 345.76 198.003C345.888 198.471 345.901 198.963 345.8 199.437C345.699 199.912 345.486 200.355 345.179 200.731C344.559 201.475 343.822 202.115 342.998 202.624L343.414 202.97C343.808 203.387 344.336 203.654 344.905 203.725C345.475 203.796 346.052 203.666 346.536 203.358C347.489 202.712 348.261 201.833 348.778 200.804C350.727 197.789 352.12 194.449 352.891 190.943C353.542 187.422 353.143 183.6 351.201 180.593Z" fill="#2F2E41"/>
<path d="M487.843 253.483C464.019 271.538 416.616 265.834 401.906 296.762C357.367 390.401 319.263 319.071 280.265 311.357L279.906 309.444C318.945 312.684 360.82 307.657 401.002 294.905C437.315 283.383 469.714 266.242 494.692 245.355L496.001 246.99C493.363 249.197 490.644 251.361 487.843 253.483Z" fill="#F2F2F2"/>
<path d="M387.117 498.737C386.549 500.419 62.5888 500.419 61.9766 498.741C62.5433 497.056 386.504 497.056 387.117 498.737Z" fill="#CCCCCC"/>
</svg>