
<svg width="1020" height="437" viewBox="0 0 1020 437" fill="none" xmlns="http://www.w3.org/2000/svg" xmlns:xlink="http://www.w3.org/1999/xlink">
<path d="M223.77 243.615C223.779 242.275 223.512 240.947 222.985 239.715C222.458 238.482 221.683 237.372 220.708 236.452C219.733 235.533 218.578 234.825 217.317 234.371C216.055 233.918 214.714 233.73 213.377 233.818C212.039 233.906 210.735 234.27 209.544 234.885C208.353 235.5 207.302 236.354 206.456 237.394C205.61 238.433 204.988 239.636 204.627 240.927C204.267 242.218 204.177 243.57 204.363 244.897L176.348 281.583C175.153 283.974 174.689 286.664 175.016 289.317C175.342 291.97 176.444 294.468 178.184 296.498L180.382 299.061L190.465 297.044L201.893 286.961L200.548 275.533L214.665 253.35L214.646 253.334C217.117 253.177 219.436 252.085 221.13 250.279C222.825 248.474 223.769 246.091 223.77 243.615Z" fill="#FFB9B9"/>
<path d="M30.0417 422.969L25.4688 405.985L88.8008 380.266L95.5498 405.332L30.0417 422.969Z" fill="#FFB8B8"/>
<path d="M14.7441 431.731L0 376.969L0.692642 376.782C6.34562 375.261 12.3716 376.047 17.4451 378.967C22.5186 381.888 26.2241 386.705 27.7466 392.358L27.747 392.359L36.7521 425.806L14.7441 431.731Z" fill="#2F2E41"/>
<path d="M117.279 420.254L103.055 409.91L136.186 350.121L157.18 365.388L117.279 420.254Z" fill="#FFB8B8"/>
<path d="M110.878 436.683L65.0117 403.328L65.4336 402.747C68.8769 398.013 74.0599 394.84 79.8424 393.927C85.6249 393.013 91.5335 394.434 96.2684 397.877L96.2695 397.878L124.283 418.25L110.878 436.683Z" fill="#2F2E41"/>
<path d="M238.194 336.704L202.399 301.931C199.275 298.896 195.161 297.091 190.812 296.848C186.463 296.606 182.173 297.941 178.731 300.609L111.145 375.692L117.195 385.103L181.727 341.409L225.422 398.548L267.099 377.709L238.194 336.704Z" fill="#2F2E41"/>
<path d="M222.732 344.097L196.516 342.081L177.53 337.478C176.457 335.805 174.899 334.499 173.064 333.736C171.23 332.973 169.205 332.789 167.263 333.208C165.32 333.626 163.552 334.629 162.195 336.081C160.838 337.532 159.956 339.364 159.669 341.33C159.382 343.297 159.702 345.304 160.586 347.083C161.471 348.863 162.879 350.329 164.62 351.287C166.361 352.244 168.354 352.647 170.33 352.441C172.307 352.235 174.173 351.43 175.68 350.134L175.677 350.147L187.105 354.853L236.177 371.658L242.227 366.953L222.732 344.097Z" fill="#FFB9B9"/>
<path d="M285.922 416.698L271.133 426.109H253.655L172.317 395.859L53.3337 417.37L49.9727 391.825L158.873 344.098L254.328 375.692L285.922 416.698Z" fill="#2F2E41"/>
<path d="M254.326 253.347C268.805 253.347 280.543 241.61 280.543 227.131C280.543 212.652 268.805 200.914 254.326 200.914C239.847 200.914 228.109 212.652 228.109 227.131C228.109 241.61 239.847 253.347 254.326 253.347Z" fill="#FFB9B9"/>
<path d="M322.161 331.804C322.161 347.626 319.668 363.35 314.773 378.396L312.811 384.432L303.4 427.455L293.316 430.143L285.922 420.732L271.133 409.977L260.377 392.499L251.155 377.132L248.277 372.332L238.194 321.916L199.878 300.405L187.105 298.388L189.794 290.994L201.222 275.533L212.65 274.188L216.011 271.499L218.7 272.844L233.522 278.554L281.579 258.25L288.611 259.4L312.811 279.566C318.997 296.288 322.163 313.975 322.161 331.804Z" fill="#CCCCCC"/>
<path opacity="0.1" d="M314.827 325.95L289.283 342.755L251.155 377.132L248.278 372.333L240.211 332H242.228L263.067 293.684L314.827 325.95Z" fill="black"/>
<path d="M263.065 289.648L242.226 327.964L230.126 341.409L219.371 344.098L248.276 375.692L289.281 338.72L314.825 321.914L263.065 289.648Z" fill="#CCCCCC"/>
<path d="M233.935 207.639L231.095 208.732C230.664 208.44 230.294 208.066 230.008 207.631C229.721 207.196 229.523 206.709 229.424 206.198C229.326 205.687 229.329 205.161 229.434 204.651C229.538 204.141 229.743 203.656 230.035 203.225C230.05 203.203 230.065 203.18 230.081 203.158L224.832 202.912C228.202 198.424 232.486 194.703 237.401 191.995C242.316 189.287 247.751 187.653 253.345 187.202C258.939 186.751 264.564 187.494 269.85 189.38C275.136 191.266 279.961 194.253 284.005 198.143C284.244 197.32 286.85 198.921 287.913 200.545C288.271 199.205 290.713 205.68 291.577 210.257C291.977 208.733 293.515 211.193 292.168 213.553C293.022 213.429 293.407 215.613 292.746 216.83C293.68 216.391 293.523 218.998 292.51 220.741C293.843 220.622 292.397 248.072 272.397 246.072C271.004 239.674 271.397 240.072 269.757 231.846C268.994 231.036 268.158 230.298 267.324 229.561L262.811 225.578C257.564 220.946 252.791 215.23 245.8 213.498C240.996 212.309 237.959 212.04 240.577 206.627C238.212 207.614 236.003 209.082 233.616 209.999C233.648 209.242 233.982 208.396 233.935 207.639Z" fill="#2F2E41"/>
<path d="M267.432 234.864C270.031 234.864 272.138 232.757 272.138 230.159C272.138 227.56 270.031 225.453 267.432 225.453C264.833 225.453 262.727 227.56 262.727 230.159C262.727 232.757 264.833 234.864 267.432 234.864Z" fill="#FFB9B9"/>
<path d="M47.9985 119.024L46.5625 140.586L68.1248 142.022L69.5608 120.46L47.9985 119.024Z" fill="#E6E6E6"/>
<path d="M34.0874 130.473L60.2703 132.216L58.5266 158.399L32.3438 156.655L34.0874 130.473ZM59.0561 133.279L35.15 131.687L33.5579 155.593L57.464 157.185L59.0561 133.279Z" fill="#CCCCCC"/>
<path d="M169.851 55.0853L148.723 59.625L153.262 80.7529L174.39 76.2131L169.851 55.0853Z" fill="#E6E6E6"/>
<path d="M155.022 44.8516L160.535 70.5068L134.88 76.0193L129.367 50.3641L155.022 44.8516ZM159.18 69.631L154.147 46.2067L130.722 51.2399L135.755 74.6642L159.18 69.631Z" fill="#CCCCCC"/>
<path d="M147.651 156.547L131.879 171.32L146.652 187.092L162.424 172.319L147.651 156.547Z" fill="#E6E6E6"/>
<path d="M163.555 154.339L144.404 172.278L126.465 153.126L145.616 135.188L163.555 154.339ZM144.456 170.665L161.942 154.286L145.564 136.8L128.077 153.179L144.456 170.665Z" fill="#CCCCCC"/>
<path d="M963.278 0H323.895C321.584 -2.62643e-06 319.296 0.455194 317.161 1.3396C315.026 2.22401 313.086 3.52029 311.451 5.15446C309.817 6.78864 308.521 8.72868 307.637 10.8638C306.752 12.999 306.297 15.2874 306.297 17.5985V373.851C306.297 376.162 306.752 378.45 307.636 380.585C308.521 382.721 309.817 384.661 311.451 386.295C313.086 387.929 315.026 389.225 317.161 390.11C319.296 390.994 321.584 391.449 323.895 391.449H963.278C967.946 391.449 972.422 389.595 975.722 386.295C979.023 382.994 980.877 378.518 980.877 373.851V17.5985C980.877 12.9311 979.023 8.45484 975.722 5.15448C972.422 1.85412 967.946 2.65217e-06 963.278 0Z" fill="#3F3D56"/>
<path d="M957.282 31.1016H329.891V385.015H957.282V31.1016Z" fill="white"/>
<path d="M643.048 21.4477C646.602 21.4477 649.483 18.5667 649.483 15.0129C649.483 11.4591 646.602 8.57812 643.048 8.57812C639.494 8.57812 636.613 11.4591 636.613 15.0129C636.613 18.5667 639.494 21.4477 643.048 21.4477Z" fill="white"/>
<path d="M777.859 385.015H329.891V31.1016L777.859 385.015Z" fill="#F2F2F2"/>
<path d="M428.057 358.532C461.363 358.532 488.364 331.531 488.364 298.225C488.364 264.918 461.363 237.918 428.057 237.918C394.75 237.918 367.75 264.918 367.75 298.225C367.75 331.531 394.75 358.532 428.057 358.532Z" fill="#30E3CA"/>
<path d="M441.485 343.551C426.648 343.551 412.144 339.152 399.808 330.909C387.472 322.666 377.857 310.95 372.179 297.243C366.501 283.535 365.016 268.452 367.91 253.9C370.805 239.349 377.949 225.982 388.44 215.491C398.932 205 412.298 197.855 426.85 194.961C441.401 192.066 456.485 193.552 470.192 199.23C483.899 204.908 495.615 214.523 503.858 226.859C512.101 239.195 516.5 253.699 516.5 268.535C516.5 278.387 514.56 288.141 510.79 297.243C507.02 306.344 501.495 314.614 494.529 321.579C487.563 328.545 479.293 334.071 470.192 337.841C461.09 341.611 451.336 343.551 441.485 343.551ZM441.485 194.5C426.842 194.5 412.528 198.842 400.353 206.977C388.178 215.112 378.688 226.675 373.085 240.203C367.481 253.731 366.015 268.617 368.872 282.979C371.729 297.34 378.78 310.532 389.134 320.886C399.488 331.24 412.679 338.291 427.041 341.148C441.402 344.005 456.288 342.538 469.817 336.935C483.345 331.331 494.907 321.842 503.042 309.667C511.178 297.492 515.52 283.178 515.52 268.535C515.52 258.813 513.605 249.186 509.884 240.203C506.164 231.221 500.71 223.059 493.835 216.185C486.961 209.31 478.799 203.856 469.817 200.136C460.834 196.415 451.207 194.5 441.484 194.5L441.485 194.5Z" fill="#3F3D56"/>
<path d="M812.043 214.969H753.438V227.215H812.043V214.969Z" fill="#3F3D56"/>
<path d="M867.49 148.625H697.992V153.873H867.49V148.625Z" fill="#3F3D56"/>
<path d="M867.49 169.246H697.992V174.494H867.49V169.246Z" fill="#3F3D56"/>
<path d="M867.49 189.867H697.992V195.115H867.49V189.867Z" fill="#3F3D56"/>
<path d="M912.894 52.2812H888.402V76.773H912.894V52.2812Z" fill="#30E3CA"/>
<path d="M924.263 88.1462H894.523V58.4062H924.263V88.1462ZM895.817 86.8532H922.97V59.6993H895.817L895.817 86.8532Z" fill="#CCCCCC"/>
<path d="M998.491 378.579H937.262V374.168C937.262 374.053 937.239 373.939 937.195 373.833C937.152 373.727 937.087 373.63 937.006 373.549C936.925 373.468 936.828 373.404 936.722 373.36C936.616 373.316 936.502 373.293 936.387 373.293H915.394C915.28 373.293 915.166 373.316 915.06 373.36C914.954 373.404 914.857 373.468 914.776 373.549C914.695 373.63 914.63 373.727 914.586 373.833C914.542 373.939 914.52 374.053 914.52 374.168V378.579H901.399V374.168C901.399 374.053 901.377 373.939 901.333 373.833C901.289 373.727 901.224 373.63 901.143 373.549C901.062 373.468 900.965 373.404 900.859 373.36C900.753 373.316 900.639 373.293 900.525 373.293H879.532C879.417 373.293 879.303 373.316 879.197 373.36C879.091 373.404 878.994 373.468 878.913 373.549C878.832 373.63 878.767 373.727 878.724 373.833C878.68 373.939 878.657 374.053 878.657 374.168V378.579H865.536V374.168C865.536 374.053 865.514 373.939 865.47 373.833C865.426 373.727 865.361 373.63 865.28 373.549C865.199 373.468 865.103 373.404 864.996 373.36C864.89 373.316 864.777 373.293 864.662 373.293H843.669C843.554 373.293 843.44 373.316 843.334 373.36C843.228 373.404 843.131 373.468 843.05 373.549C842.969 373.63 842.905 373.727 842.861 373.833C842.817 373.939 842.794 374.053 842.794 374.168V378.579H829.674V374.168C829.674 374.053 829.651 373.939 829.607 373.833C829.563 373.727 829.499 373.63 829.417 373.549C829.336 373.468 829.24 373.404 829.134 373.36C829.027 373.316 828.914 373.293 828.799 373.293H807.806C807.691 373.293 807.577 373.316 807.471 373.36C807.365 373.404 807.269 373.468 807.187 373.549C807.106 373.63 807.042 373.727 806.998 373.833C806.954 373.939 806.931 374.053 806.931 374.168V378.579H793.811V374.168C793.811 374.053 793.788 373.939 793.744 373.833C793.7 373.727 793.636 373.63 793.554 373.549C793.473 373.468 793.377 373.404 793.271 373.36C793.165 373.316 793.051 373.293 792.936 373.293H771.943C771.828 373.293 771.714 373.316 771.608 373.36C771.502 373.404 771.406 373.468 771.325 373.549C771.243 373.63 771.179 373.727 771.135 373.833C771.091 373.939 771.068 374.053 771.068 374.168V378.579H757.948V374.168C757.948 374.053 757.925 373.939 757.881 373.833C757.837 373.727 757.773 373.63 757.692 373.549C757.61 373.468 757.514 373.404 757.408 373.36C757.302 373.316 757.188 373.293 757.073 373.293H736.08C735.965 373.293 735.851 373.316 735.745 373.36C735.639 373.404 735.543 373.468 735.462 373.549C735.38 373.63 735.316 373.727 735.272 373.833C735.228 373.939 735.205 374.053 735.205 374.168V378.579H722.085V374.168C722.085 374.053 722.062 373.939 722.018 373.833C721.974 373.727 721.91 373.63 721.829 373.549C721.747 373.468 721.651 373.404 721.545 373.36C721.439 373.316 721.325 373.293 721.21 373.293H556.766C556.651 373.293 556.537 373.316 556.431 373.36C556.325 373.404 556.228 373.468 556.147 373.549C556.066 373.63 556.002 373.727 555.958 373.833C555.914 373.939 555.891 374.053 555.891 374.168V378.579H542.77V374.168C542.77 374.053 542.748 373.939 542.704 373.833C542.66 373.727 542.595 373.63 542.514 373.549C542.433 373.468 542.337 373.404 542.23 373.36C542.124 373.316 542.011 373.293 541.896 373.293H520.903C520.788 373.293 520.674 373.316 520.568 373.36C520.462 373.404 520.366 373.468 520.284 373.549C520.203 373.63 520.139 373.727 520.095 373.833C520.051 373.939 520.028 374.053 520.028 374.168V378.579H506.908V374.168C506.908 374.053 506.885 373.939 506.841 373.833C506.797 373.727 506.733 373.63 506.651 373.549C506.57 373.468 506.474 373.404 506.368 373.36C506.262 373.316 506.148 373.293 506.033 373.293H485.04C484.925 373.293 484.811 373.316 484.705 373.36C484.599 373.404 484.503 373.468 484.421 373.549C484.34 373.63 484.276 373.727 484.232 373.833C484.188 373.939 484.165 374.053 484.165 374.168V378.579H471.045V374.168C471.045 374.053 471.022 373.939 470.978 373.833C470.934 373.727 470.87 373.63 470.788 373.549C470.707 373.468 470.611 373.404 470.505 373.36C470.399 373.316 470.285 373.293 470.17 373.293H449.177C449.062 373.293 448.948 373.316 448.842 373.36C448.736 373.404 448.64 373.468 448.559 373.549C448.477 373.63 448.413 373.727 448.369 373.833C448.325 373.939 448.302 374.053 448.302 374.168V378.579H435.182V374.168C435.182 374.053 435.159 373.939 435.115 373.833C435.071 373.727 435.007 373.63 434.926 373.549C434.844 373.468 434.748 373.404 434.642 373.36C434.536 373.316 434.422 373.293 434.307 373.293H413.314C413.199 373.293 413.086 373.316 412.979 373.36C412.873 373.404 412.777 373.468 412.696 373.549C412.614 373.63 412.55 373.727 412.506 373.833C412.462 373.939 412.439 374.053 412.439 374.168V378.579H399.319V374.168C399.319 374.053 399.296 373.939 399.252 373.833C399.208 373.727 399.144 373.63 399.063 373.549C398.981 373.468 398.885 373.404 398.779 373.36C398.673 373.316 398.559 373.293 398.444 373.293H377.451C377.219 373.293 376.997 373.385 376.833 373.549C376.669 373.713 376.577 373.936 376.577 374.168V378.579H363.456V374.168C363.456 374.053 363.433 373.939 363.389 373.833C363.345 373.727 363.281 373.63 363.2 373.549C363.119 373.468 363.022 373.404 362.916 373.36C362.81 373.316 362.696 373.293 362.581 373.293H341.588C341.356 373.293 341.134 373.385 340.97 373.549C340.806 373.713 340.714 373.936 340.714 374.168V378.579H300.477C294.91 378.579 289.57 380.791 285.633 384.728C281.696 388.665 279.484 394.004 279.484 399.572V409.065C279.484 414.632 281.696 419.972 285.633 423.909C289.57 427.846 294.91 430.057 300.477 430.057H998.491C1004.06 430.057 1009.4 427.846 1013.34 423.909C1017.27 419.972 1019.48 414.632 1019.48 409.065V399.572C1019.48 396.815 1018.94 394.085 1017.89 391.539C1016.83 388.992 1015.28 386.677 1013.34 384.728C1011.39 382.779 1009.07 381.232 1006.53 380.177C1003.98 379.122 1001.25 378.579 998.491 378.579Z" fill="#3F3D56"/>
<path d="M277.933 97H83V142.888H277.933V97Z" fill="white"/>
<path d="M252.493 107.398H107.727V131.776H252.493V107.398Z" fill="#3F3D56"/>
<path d="M141.366 119.052C141.308 118.427 138.544 118.148 134.753 118.305C136.95 115.209 138.223 112.739 137.73 112.35C137.266 111.983 135.365 113.57 133.051 116.148C132.832 112.69 132.324 110.266 131.732 110.266C131.087 110.266 130.541 113.15 130.362 117.114C127.142 114.797 124.541 113.437 124.141 113.944C123.759 114.428 125.499 116.472 128.266 118.917C124.614 119.459 122.042 120.224 122.099 120.838C122.156 121.464 124.92 121.742 128.712 121.585C126.515 124.681 125.242 127.151 125.734 127.54C126.199 127.907 128.1 126.32 130.414 123.743C130.632 127.2 131.14 129.625 131.732 129.625C132.378 129.625 132.924 126.74 133.103 122.776C136.323 125.093 138.923 126.453 139.324 125.946C139.706 125.462 137.966 123.418 135.199 120.973C138.85 120.431 141.423 119.666 141.366 119.052Z" fill="white"/>
<path d="M165.733 119.052C165.675 118.427 162.912 118.148 159.12 118.305C161.317 115.209 162.59 112.739 162.097 112.35C161.633 111.983 159.732 113.57 157.418 116.148C157.199 112.69 156.691 110.266 156.099 110.266C155.454 110.266 154.908 113.15 154.729 117.114C151.509 114.797 148.908 113.437 148.508 113.944C148.126 114.428 149.866 116.472 152.633 118.917C148.981 119.459 146.409 120.224 146.466 120.838C146.524 121.464 149.287 121.742 153.079 121.585C150.882 124.681 149.609 127.151 150.102 127.54C150.566 127.907 152.467 126.32 154.781 123.743C155 127.2 155.508 129.625 156.099 129.625C156.745 129.625 157.291 126.74 157.47 122.776C160.69 125.093 163.291 126.453 163.691 125.946C164.073 125.462 162.333 123.418 159.566 120.973C163.218 120.431 165.79 119.666 165.733 119.052Z" fill="white"/>
<path d="M190.1 119.052C190.043 118.427 187.279 118.148 183.487 118.305C185.684 115.209 186.957 112.739 186.465 112.35C186 111.983 184.099 113.57 181.785 116.148C181.567 112.69 181.059 110.266 180.467 110.266C179.821 110.266 179.275 113.15 179.096 117.114C175.876 114.797 173.276 113.437 172.875 113.944C172.493 114.428 174.233 116.472 177 118.917C173.349 119.459 170.776 120.224 170.833 120.838C170.891 121.464 173.654 121.742 177.446 121.585C175.249 124.681 173.976 127.151 174.469 127.54C174.933 127.907 176.834 126.32 179.148 123.743C179.367 127.2 179.875 129.625 180.467 129.625C181.112 129.625 181.658 126.74 181.837 122.776C185.057 125.093 187.658 126.453 188.058 125.946C188.44 125.462 186.7 123.418 183.933 120.973C187.585 120.431 190.157 119.666 190.1 119.052Z" fill="white"/>
<path d="M214.468 119.052C214.41 118.427 211.646 118.148 207.854 118.305C210.051 115.209 211.324 112.739 210.832 112.35C210.367 111.983 208.467 113.57 206.152 116.148C205.934 112.69 205.426 110.266 204.834 110.266C204.188 110.266 203.643 113.15 203.463 117.114C200.243 114.797 197.643 113.437 197.242 113.944C196.86 114.428 198.601 116.472 201.367 118.917C197.716 119.459 195.143 120.224 195.2 120.838C195.258 121.464 198.022 121.742 201.813 121.585C199.616 124.681 198.344 127.151 198.836 127.54C199.3 127.907 201.201 126.32 203.515 123.743C203.734 127.2 204.242 129.625 204.834 129.625C205.479 129.625 206.025 126.74 206.205 122.776C209.425 125.093 212.025 126.453 212.425 125.946C212.807 125.462 211.067 123.418 208.3 120.973C211.952 120.431 214.524 119.666 214.468 119.052Z" fill="white"/>
<path d="M238.835 119.052C238.777 118.427 236.013 118.148 232.221 118.305C234.419 115.209 235.691 112.739 235.199 112.35C234.734 111.983 232.834 113.57 230.52 116.148C230.301 112.69 229.793 110.266 229.201 110.266C228.555 110.266 228.01 113.15 227.83 117.114C224.61 114.797 222.01 113.437 221.61 113.944C221.227 114.428 222.968 116.472 225.735 118.917C222.083 119.459 219.51 120.224 219.567 120.838C219.625 121.464 222.389 121.742 226.181 121.585C223.983 124.681 222.711 127.151 223.203 127.54C223.668 127.907 225.568 126.32 227.882 123.743C228.101 127.2 228.609 129.625 229.201 129.625C229.847 129.625 230.392 126.74 230.572 122.776C233.792 125.093 236.392 126.453 236.793 125.946C237.175 125.462 235.434 123.418 232.667 120.973C236.319 120.431 238.892 119.666 238.835 119.052Z" fill="white"/>
<rect x="698" y="43" width="208" height="301" fill="url(#pattern0)"/>
</svg>