<svg width="552" height="408" viewBox="0 0 552 408" fill="none" xmlns="http://www.w3.org/2000/svg">
<g clip-path="url(#clip0_140_2)">
<path d="M77.8899 206.89L76.7769 206.05C82.8563 197.968 90.4227 187.909 91.5883 176.561C92.7373 165.375 87.3822 153.356 77.6127 145.195C69.2985 138.25 57.8527 133.86 44.5127 132.501C41.8814 132.233 39.1762 132.076 36.5598 131.924C30.236 131.557 23.6967 131.177 17.5458 129.204C9.0742 126.487 0.364629 119.402 0.00436497 109.698C-0.0779436 106.586 0.712719 103.513 2.28659 100.828C3.86046 98.1434 6.15446 95.9543 8.90814 94.5095L9.55904 95.744C7.03614 97.0672 4.93412 99.0721 3.49149 101.531C2.04886 103.99 1.3234 106.805 1.39745 109.656C1.73229 118.674 9.96278 125.306 17.971 127.875C23.9536 129.794 30.4032 130.168 36.6404 130.53C39.2716 130.683 41.9925 130.841 44.654 131.112C58.2715 132.5 69.9771 136.999 78.5054 144.123C88.6261 152.578 94.1705 165.062 92.9748 176.704C91.7693 188.438 84.0738 198.669 77.8899 206.89Z" fill="#F1F1F1"/>
<path d="M19.9984 97.5149C26.1222 94.7064 29.9824 90.0149 28.6203 87.036C27.2582 84.0572 21.1896 83.9191 15.0658 86.7275C8.94191 89.536 5.08174 94.2276 6.44385 97.2064C7.80595 100.185 13.8745 100.323 19.9984 97.5149Z" fill="#F1F1F1"/>
<path d="M45.1175 128.981C51.2414 126.173 55.1015 121.481 53.7394 118.503C52.3773 115.524 46.3087 115.386 40.1849 118.194C34.061 121.003 30.2009 125.694 31.563 128.673C32.9251 131.652 38.9937 131.79 45.1175 128.981Z" fill="#F1F1F1"/>
<path d="M27.4535 143.991C33.5773 141.183 37.4375 136.491 36.0754 133.512C34.7133 130.533 28.6447 130.395 22.5208 133.204C16.397 136.012 12.5368 140.704 13.8989 143.683C15.261 146.662 21.3296 146.8 27.4535 143.991Z" fill="#F1F1F1"/>
<path d="M72.7713 159.286C78.8952 156.477 82.7553 151.786 81.3932 148.807C80.0311 145.828 73.9626 145.69 67.8387 148.498C61.7149 151.307 57.8547 155.998 59.2168 158.977C60.5789 161.956 66.6475 162.094 72.7713 159.286Z" fill="#F1F1F1"/>
<path d="M94.9476 149.115C101.071 146.307 104.932 141.615 103.57 138.636C102.207 135.658 96.1388 135.519 90.015 138.328C83.8911 141.136 80.031 145.828 81.3931 148.807C82.7552 151.786 88.8237 151.924 94.9476 149.115Z" fill="#F1F1F1"/>
<path d="M514.249 408L514.857 406.744C505.763 402.333 494.445 396.844 488.235 387.281C482.113 377.854 481.397 364.713 486.368 352.985C490.599 343.004 498.781 333.865 510.029 326.556C512.248 325.114 514.583 323.737 516.842 322.406C522.3 319.187 527.945 315.859 532.518 311.292C538.816 305 543.335 294.714 539.231 285.917C537.886 283.11 535.781 280.738 533.157 279.069C530.533 277.4 527.494 276.501 524.385 276.475L524.369 277.871C527.217 277.894 530.001 278.717 532.405 280.245C534.81 281.773 536.739 283.946 537.973 286.516C541.786 294.692 537.487 304.356 531.534 310.303C527.086 314.746 521.519 318.028 516.135 321.203C513.863 322.542 511.515 323.927 509.27 325.385C497.788 332.846 489.425 342.201 485.085 352.439C479.936 364.589 480.695 378.231 487.066 388.042C493.488 397.93 505 403.514 514.249 408Z" fill="#F1F1F1"/>
<path d="M515.889 284.22C522.618 283.919 527.954 281.021 527.807 277.748C527.661 274.475 522.088 272.066 515.359 272.367C508.63 272.669 503.294 275.567 503.441 278.84C503.587 282.113 509.16 284.522 515.889 284.22Z" fill="#F1F1F1"/>
<path d="M507.887 323.701C514.616 323.399 519.952 320.502 519.805 317.229C519.659 313.956 514.086 311.547 507.357 311.848C500.629 312.15 495.292 315.048 495.439 318.321C495.585 321.594 501.158 324.003 507.887 323.701Z" fill="#F1F1F1"/>
<path d="M530.445 328.978C537.174 328.676 542.51 325.778 542.364 322.505C542.218 319.232 536.644 316.823 529.916 317.125C523.187 317.426 517.851 320.324 517.997 323.597C518.144 326.87 523.717 329.279 530.445 328.978Z" fill="#F1F1F1"/>
<path d="M497.1 363.307C503.829 363.006 509.165 360.108 509.019 356.835C508.873 353.562 503.299 351.153 496.571 351.454C489.842 351.756 484.506 354.654 484.652 357.927C484.798 361.2 490.372 363.609 497.1 363.307Z" fill="#F1F1F1"/>
<path d="M472.733 364.399C479.462 364.097 484.798 361.2 484.652 357.927C484.505 354.654 478.932 352.245 472.203 352.546C465.475 352.848 460.139 355.746 460.285 359.019C460.431 362.292 466.004 364.701 472.733 364.399Z" fill="#F1F1F1"/>
<path d="M320.518 185.035C320.787 185.312 321.034 185.61 321.256 185.925L355.806 185.079L359.837 177.703L371.748 182.34L365.879 196.092C365.405 197.203 364.584 198.13 363.539 198.734C362.494 199.338 361.282 199.586 360.084 199.441L321.048 194.719C320.128 195.886 318.874 196.745 317.454 197.182C316.033 197.618 314.514 197.611 313.098 197.161C311.682 196.712 310.436 195.842 309.526 194.666C308.616 193.49 308.085 192.064 308.004 190.579C307.922 189.093 308.294 187.618 309.071 186.35C309.847 185.081 310.99 184.079 312.349 183.478C313.707 182.876 315.217 182.703 316.676 182.981C318.135 183.259 319.476 183.976 320.518 185.035Z" fill="#FFB7B7"/>
<path d="M433.148 395.175L421.788 395.174L416.383 351.29L433.15 351.291L433.148 395.175Z" fill="#FFB7B7"/>
<path d="M436.045 406.203L399.415 406.202V405.738C399.415 401.951 400.917 398.319 403.591 395.641C406.265 392.964 409.891 391.459 413.672 391.459H413.673L436.046 391.46L436.045 406.203Z" fill="#2F2E41"/>
<path d="M329.991 394.921L319.544 390.451L331.788 347.97L347.206 354.566L329.991 394.921Z" fill="#FFB7B7"/>
<path d="M328.33 406.203L294.644 391.791L294.826 391.364C296.312 387.882 299.118 385.133 302.627 383.723C306.136 382.312 310.061 382.355 313.538 383.843L313.539 383.843L334.113 392.645L328.33 406.203Z" fill="#2F2E41"/>
<path d="M377.929 194.542L377.107 207.874L401.12 210.447L426.247 213.14L418.851 192.896L377.929 194.542Z" fill="#FFB7B7"/>
<path d="M376.686 199.483L367.022 142.916L383.191 137.609L387.94 131.086L411.051 132.456L414.443 140.067L426.766 145.899L424.873 181.122L421.549 197.505L421.139 197.292C404.48 188.652 377.357 199.218 377.085 199.325L376.686 199.483Z" fill="#2F2E41"/>
<path d="M370.479 190.592L354.033 184.002L354.103 183.709C354.173 183.413 361.173 154.118 362.103 149.411C363.071 144.506 366.608 143.15 366.759 143.095L366.868 143.055L373.377 145.039L376.236 167.532L370.479 190.592Z" fill="#2F2E41"/>
<path d="M338.453 387.209L316.56 382.711L351.551 286.015L363.527 253.033C363.527 253.033 371.122 226.589 374.554 216.355L376.625 202.624L425.65 208.058C425.65 208.058 439.343 228.197 435.183 261.022L437.065 384.398L415.172 385.522L396.834 261.091L364.649 329.303C364.649 329.303 354.505 358.412 347.247 364.721L338.453 387.209Z" fill="#2F2E41"/>
<path d="M405.99 212.637C406.375 212.628 406.761 212.649 407.143 212.701L430.015 186.752L427.354 178.777L438.848 173.183L444.928 186.843C445.419 187.946 445.539 189.18 445.271 190.358C445.003 191.536 444.36 192.595 443.44 193.376L413.441 218.832C413.67 220.302 413.446 221.807 412.8 223.146C412.154 224.486 411.116 225.597 409.824 226.331C408.532 227.066 407.047 227.389 405.568 227.258C404.088 227.126 402.683 226.547 401.54 225.597C400.397 224.647 399.57 223.37 399.169 221.938C398.768 220.505 398.812 218.985 399.295 217.578C399.778 216.171 400.677 214.945 401.873 214.062C403.069 213.18 404.505 212.683 405.99 212.637H405.99Z" fill="#FFB7B7"/>
<path d="M428.189 189.277L418.648 166.802L422.37 151.147L426.379 146.074C426.673 145.948 426.989 145.885 427.308 145.888C427.628 145.891 427.943 145.96 428.234 146.092C429.713 146.688 430.972 148.514 431.977 151.521L440.918 177.027L428.189 189.277Z" fill="#2F2E41"/>
<path d="M378.689 122.758V105.814C378.689 99.7923 381.078 94.0171 385.33 89.7591C389.582 85.501 395.348 83.1089 401.361 83.1089C407.374 83.1089 413.141 85.501 417.392 89.7591C421.644 94.0171 424.033 99.7923 424.033 105.814V122.758C424.032 123.567 423.711 124.342 423.14 124.914C422.569 125.486 421.795 125.807 420.987 125.808H381.735C380.928 125.807 380.153 125.486 379.582 124.914C379.012 124.342 378.69 123.567 378.689 122.758Z" fill="#2F2E41"/>
<path d="M396.703 125.414C405.883 125.414 413.325 117.961 413.325 108.767C413.325 99.5736 405.883 92.1206 396.703 92.1206C387.523 92.1206 380.081 99.5736 380.081 108.767C380.081 117.961 387.523 125.414 396.703 125.414Z" fill="#FFB7B7"/>
<path d="M373.326 107.17C373.332 102.408 375.223 97.8424 378.585 94.4753C381.947 91.1081 386.506 89.2141 391.26 89.2087H394.645C399.399 89.2141 403.958 91.1081 407.32 94.4753C410.682 97.8424 412.573 102.408 412.579 107.17V107.508H405.427L402.988 100.669L402.501 107.508H398.805L397.574 104.057L397.328 107.508H373.326V107.17Z" fill="#2F2E41"/>
<path d="M395.067 127.714C394.731 127.258 394.531 126.717 394.488 126.153C394.446 125.588 394.564 125.024 394.828 124.523C398.414 117.693 403.435 105.071 396.771 97.2876L396.292 96.7283H415.639V125.818L398.063 128.923C397.886 128.955 397.705 128.971 397.525 128.971C397.045 128.971 396.572 128.857 396.145 128.639C395.717 128.42 395.348 128.103 395.067 127.714Z" fill="#2F2E41"/>
<path d="M298.887 338.081H91.657C86.7453 338.076 82.0363 336.119 78.5632 332.641C75.09 329.162 73.1364 324.447 73.1309 319.528V18.5535C73.1364 13.6345 75.09 8.91861 78.5632 5.44035C82.0363 1.96209 86.7453 0.0055546 91.657 0H298.887C303.799 0.0055546 308.508 1.96209 311.981 5.44035C315.454 8.91861 317.408 13.6345 317.413 18.5535V319.528C317.408 324.447 315.454 329.162 311.981 332.641C308.508 336.119 303.799 338.076 298.887 338.081Z" fill="#3F3D56"/>
<path d="M299.252 326.244H91.2924C89.7783 326.242 88.3268 325.639 87.2561 324.566C86.1855 323.494 85.5833 322.041 85.5815 320.524V17.557C85.5833 16.0406 86.1855 14.5869 87.2561 13.5147C88.3268 12.4425 89.7783 11.8394 91.2924 11.8376H299.252C300.766 11.8394 302.218 12.4425 303.288 13.5147C304.359 14.5869 304.961 16.0406 304.963 17.557V320.524C304.961 322.041 304.359 323.494 303.288 324.566C302.218 325.639 300.766 326.242 299.252 326.244Z" fill="white"/>
<path d="M194.484 7.26045C195.355 7.26045 196.06 6.5538 196.06 5.6821C196.06 4.81041 195.355 4.10376 194.484 4.10376C193.614 4.10376 192.908 4.81041 192.908 5.6821C192.908 6.5538 193.614 7.26045 194.484 7.26045Z" fill="white"/>
<path d="M241.448 203.792C232.324 203.792 223.549 200.277 216.941 193.976C210.333 187.675 206.398 179.07 205.951 169.943C205.923 170.521 205.907 171.103 205.907 171.688C205.907 181.128 209.651 190.181 216.317 196.857C222.982 203.532 232.022 207.282 241.448 207.282C250.874 207.282 259.914 203.532 266.58 196.857C273.245 190.181 276.989 181.128 276.989 171.688C276.989 171.103 276.973 170.521 276.946 169.943C276.498 179.07 272.563 187.675 265.955 193.976C259.347 200.277 250.572 203.792 241.448 203.792Z" fill="#CBCBCB"/>
<path d="M148.762 120.042C139.637 120.042 130.863 116.527 124.255 110.226C117.647 103.925 113.711 95.3197 113.264 86.1929C113.237 86.7711 113.22 87.3525 113.22 87.9377C113.22 97.3777 116.965 106.431 123.63 113.106C130.295 119.781 139.335 123.532 148.762 123.532C158.188 123.532 167.228 119.781 173.893 113.106C180.558 106.431 184.303 97.3777 184.303 87.9377C184.303 87.3525 184.287 86.7711 184.259 86.1929C183.812 95.3197 179.877 103.925 173.269 110.226C166.661 116.527 157.886 120.042 148.762 120.042Z" fill="#CBCBCB"/>
<path d="M150.852 287.542C141.728 287.542 132.953 284.027 126.345 277.726C119.737 271.425 115.802 262.82 115.355 253.693C115.327 254.272 115.311 254.853 115.311 255.438C115.311 264.878 119.056 273.932 125.721 280.607C132.386 287.282 141.426 291.032 150.852 291.032C160.279 291.032 169.319 287.282 175.984 280.607C182.649 273.932 186.394 264.878 186.394 255.438C186.394 254.853 186.377 254.272 186.35 253.693C185.903 262.82 181.967 271.425 175.359 277.726C168.751 284.027 159.977 287.542 150.852 287.542Z" fill="#CBCBCB"/>
<path d="M241.46 204.319C234.355 204.319 227.409 202.209 221.502 198.256C215.594 194.303 210.99 188.684 208.271 182.11C205.552 175.536 204.84 168.303 206.226 161.324C207.613 154.345 211.034 147.935 216.058 142.903C221.082 137.872 227.483 134.445 234.451 133.057C241.42 131.669 248.643 132.382 255.207 135.105C261.771 137.828 267.382 142.439 271.329 148.355C275.276 154.271 277.383 161.227 277.383 168.343C277.383 177.884 273.598 187.035 266.861 193.782C260.124 200.529 250.987 204.319 241.46 204.319ZM241.46 134.079C234.693 134.079 228.078 136.089 222.452 139.854C216.826 143.618 212.441 148.97 209.851 155.231C207.262 161.491 206.584 168.381 207.904 175.027C209.224 181.673 212.483 187.779 217.268 192.57C222.052 197.362 228.148 200.626 234.785 201.948C241.422 203.27 248.301 202.591 254.552 199.998C260.804 197.405 266.147 193.013 269.907 187.378C273.666 181.744 275.673 175.119 275.673 168.343C275.673 163.843 274.788 159.388 273.068 155.231C271.349 151.074 268.829 147.296 265.652 144.115C262.475 140.933 258.703 138.409 254.552 136.687C250.401 134.965 245.953 134.079 241.46 134.079Z" fill="#3F3D56"/>
<path d="M261.987 158.49L266.264 157.633C266.264 157.633 262.671 161.659 261.987 161.916C261.923 162.772 261.923 163.631 261.987 164.486C253.776 199.777 223.498 184.188 223.498 184.188C234.531 184.445 235.472 179.905 235.472 179.905C229.057 178.962 227.774 174.765 227.774 174.765C228.35 175.069 229.017 175.15 229.648 174.992C230.28 174.834 230.83 174.448 231.195 173.909C224.267 172.11 225.208 165.343 225.208 165.343C226.443 166.236 227.886 166.796 229.399 166.97C228.63 166.028 222.129 158.233 226.064 154.207C226.064 154.207 230.853 162.773 243.427 163.544L244.282 163.373C244.136 162.756 244.079 162.121 244.111 161.488C244.111 159.103 245.057 156.815 246.741 155.128C248.425 153.442 250.71 152.494 253.092 152.494C259.079 152.494 260.362 155.92 260.362 155.92L264.638 153.351C264.553 153.351 264.125 157.633 261.987 158.49Z" fill="#30E3CA"/>
<path d="M149.085 120.802C141.98 120.802 135.034 118.692 129.127 114.739C123.219 110.786 118.615 105.167 115.896 98.5931C113.177 92.0192 112.465 84.7856 113.851 77.8068C115.238 70.828 118.659 64.4176 123.683 59.3862C128.707 54.3548 135.108 50.9283 142.076 49.5402C149.045 48.152 156.268 48.8645 162.832 51.5874C169.396 54.3104 175.007 58.9216 178.954 64.838C182.901 70.7543 185.008 77.71 185.008 84.8255C185.008 89.55 184.079 94.2282 182.274 98.5931C180.468 102.958 177.822 106.924 174.486 110.265C171.151 113.605 167.19 116.255 162.832 118.063C158.474 119.871 153.802 120.802 149.085 120.802ZM149.085 50.5621C142.318 50.5621 135.703 52.5716 130.077 56.3365C124.451 60.1014 120.066 65.4526 117.476 71.7135C114.887 77.9743 114.209 84.8635 115.529 91.51C116.849 98.1564 120.108 104.262 124.893 109.053C129.677 113.845 135.773 117.108 142.41 118.431C149.047 119.753 155.926 119.074 162.177 116.481C168.429 113.887 173.772 109.496 177.532 103.861C181.291 98.2266 183.298 91.6022 183.298 84.8255C183.298 75.7383 179.693 67.0232 173.277 60.5976C166.861 54.172 158.158 50.5621 149.085 50.5621V50.5621Z" fill="#3F3D56"/>
<path d="M158.869 67.028C161.262 67.0352 163.555 67.9903 165.247 69.6849C166.939 71.3795 167.893 73.6758 167.9 76.0723V94.1589C167.893 96.5554 166.939 98.8516 165.247 100.546C163.555 102.241 161.262 103.196 158.869 103.203H140.809C138.416 103.196 136.123 102.241 134.431 100.546C132.739 98.8516 131.785 96.5554 131.778 94.1589V76.0723C131.785 73.6758 132.739 71.3795 134.431 69.6849C136.123 67.9903 138.416 67.0352 140.809 67.028H158.869ZM158.869 63.4109H140.809C137.459 63.4206 134.249 64.7578 131.88 67.1301C129.511 69.5025 128.176 72.7173 128.167 76.0723V94.1589C128.176 97.5139 129.511 100.729 131.88 103.101C134.249 105.473 137.459 106.81 140.809 106.82H158.869C162.219 106.81 165.429 105.473 167.798 103.101C170.167 100.729 171.502 97.5139 171.512 94.1589V76.0723C171.502 72.7173 170.167 69.5025 167.798 67.1301C165.429 64.7578 162.219 63.4207 158.869 63.4109Z" fill="#30E3CA"/>
<path d="M161.578 76.0723C160.862 76.0707 160.175 75.7844 159.67 75.2762C159.164 74.7681 158.88 74.0796 158.881 73.3621C158.882 72.6446 159.167 71.9567 159.674 71.4496C160.181 70.9425 160.868 70.6577 161.584 70.6577C162.301 70.6577 162.988 70.9425 163.495 71.4496C164.002 71.9567 164.287 72.6446 164.287 73.3621C164.288 74.0796 164.005 74.7681 163.499 75.2762C162.993 75.7844 162.306 76.0707 161.59 76.0723C161.586 76.0723 161.582 76.0723 161.578 76.0723Z" fill="#30E3CA"/>
<path d="M149.839 77.8803C151.268 77.8803 152.665 78.3047 153.853 79.0997C155.041 79.8947 155.967 81.0247 156.514 82.3467C157.061 83.6688 157.204 85.1236 156.925 86.5271C156.646 87.9305 155.958 89.2197 154.948 90.2316C153.937 91.2435 152.65 91.9325 151.249 92.2117C149.847 92.4909 148.395 92.3476 147.075 91.8C145.754 91.2524 144.626 90.325 143.832 89.1352C143.038 87.9453 142.615 86.5465 142.615 85.1155C142.615 84.1654 142.802 83.2245 143.165 82.3467C143.528 81.4689 144.06 80.6713 144.731 79.9994C145.402 79.3276 146.198 78.7946 147.075 78.431C147.951 78.0674 148.891 77.8803 149.839 77.8803ZM149.839 74.2632C147.696 74.2632 145.601 74.8996 143.819 76.0921C142.037 77.2846 140.648 78.9795 139.828 80.9625C139.008 82.9455 138.793 85.1275 139.211 87.2327C139.629 89.3378 140.661 91.2715 142.177 92.7892C143.692 94.307 145.623 95.3406 147.725 95.7593C149.827 96.1781 152.006 95.9631 153.986 95.1418C155.966 94.3204 157.659 92.9294 158.849 91.1448C160.04 89.3601 160.676 87.2619 160.676 85.1155C160.676 82.2373 159.534 79.477 157.502 77.4418C155.469 75.4066 152.713 74.2632 149.839 74.2632V74.2632Z" fill="#30E3CA"/>
<path d="M150.796 287.836C143.691 287.836 136.745 285.726 130.838 281.773C124.93 277.82 120.326 272.201 117.607 265.627C114.888 259.053 114.176 251.82 115.562 244.841C116.948 237.862 120.37 231.452 125.394 226.42C130.418 221.389 136.819 217.963 143.787 216.574C150.756 215.186 157.979 215.899 164.543 218.622C171.107 221.345 176.718 225.956 180.665 231.872C184.612 237.788 186.719 244.744 186.719 251.86C186.719 261.401 182.934 270.552 176.197 277.299C169.46 284.046 160.323 287.836 150.796 287.836ZM150.796 217.596C144.029 217.596 137.414 219.606 131.788 223.371C126.162 227.136 121.777 232.487 119.187 238.748C116.598 245.008 115.92 251.898 117.24 258.544C118.56 265.191 121.819 271.296 126.603 276.088C131.388 280.879 137.484 284.143 144.121 285.465C150.758 286.787 157.637 286.108 163.888 283.515C170.14 280.922 175.483 276.53 179.243 270.895C183.002 265.261 185.008 258.636 185.008 251.86C185.008 247.36 184.124 242.905 182.404 238.748C180.685 234.591 178.165 230.813 174.988 227.632C171.811 224.45 168.039 221.926 163.888 220.204C159.737 218.482 155.288 217.596 150.796 217.596Z" fill="#3F3D56"/>
<path fill-rule="evenodd" clip-rule="evenodd" d="M174.279 252.001C174.278 247.507 172.992 243.107 170.572 239.322C168.151 235.537 164.699 232.526 160.623 230.645C156.547 228.764 152.019 228.092 147.574 228.709C143.128 229.326 138.952 231.205 135.541 234.124C132.129 237.044 129.623 240.881 128.321 245.182C127.02 249.483 126.975 254.068 128.194 258.393C129.413 262.719 131.844 266.604 135.199 269.588C138.555 272.573 142.693 274.533 147.126 275.235V258.801H141.162V252.001H147.126V246.818C147.126 240.925 150.633 237.667 155.996 237.667C157.758 237.692 159.515 237.845 161.254 238.127V243.915H158.291C155.376 243.915 154.464 245.727 154.464 247.59V252.002H160.976L159.936 258.802H154.464V275.237C159.988 274.361 165.019 271.539 168.651 267.28C172.284 263.02 174.279 257.602 174.279 252.001L174.279 252.001Z" fill="#30E3CA"/>
<path d="M551.303 407.585H285.788C285.603 407.585 285.426 407.511 285.295 407.38C285.165 407.249 285.091 407.072 285.091 406.887C285.091 406.702 285.165 406.524 285.295 406.393C285.426 406.262 285.603 406.189 285.788 406.189H551.303C551.488 406.189 551.665 406.262 551.796 406.393C551.926 406.524 552 406.702 552 406.887C552 407.072 551.926 407.249 551.796 407.38C551.665 407.511 551.488 407.585 551.303 407.585Z" fill="#CBCBCB"/>
</g>
<defs>
<clipPath id="clip0_140_2">
<rect width="552" height="408" fill="white"/>
</clipPath>
</defs>
</svg>
