<svg width="96" height="96" viewBox="0 0 96 96" fill="none" xmlns="http://www.w3.org/2000/svg">
<g clip-path="url(#clip0_41_183)">
<path d="M96.1197 20.0399C92.5722 21.6149 88.7697 22.6724 84.7722 23.1524C88.8522 20.7074 91.9872 16.8374 93.4572 12.2324C89.6472 14.4899 85.4097 16.1324 80.9172 17.0174C77.3172 13.1774 72.1872 10.7849 66.5097 10.7849C55.6047 10.7849 46.7622 19.6199 46.7622 30.5249C46.7622 32.0699 46.9422 33.5774 47.2797 35.0249C30.8697 34.1999 16.3272 26.3399 6.58471 14.3924C4.88221 17.3174 3.91471 20.7074 3.91471 24.3224C3.91471 31.1699 7.39471 37.2149 12.6972 40.7624C9.45721 40.6574 6.41221 39.7649 3.74971 38.2874C3.74971 38.3699 3.74971 38.4524 3.74971 38.5349C3.74971 48.1049 10.5597 56.0774 19.5822 57.8999C17.9322 58.3499 16.1847 58.5899 14.3847 58.5899C13.1097 58.5899 11.8722 58.4699 10.6647 58.2299C13.1847 66.0674 20.4747 71.7899 29.1072 71.9474C22.3572 77.2424 13.8447 80.3924 4.58971 80.3924C2.99221 80.3924 1.42471 80.3024 -0.112793 80.1149C8.61721 85.7249 18.9972 88.9874 30.1497 88.9874C66.4647 88.9874 86.3247 58.9049 86.3247 32.8199C86.3247 31.9649 86.3022 31.1024 86.2722 30.2624C90.1272 27.4799 93.4722 23.9999 96.1197 20.0399Z" fill="#30E3CA"/>
</g>
<defs>
<clipPath id="clip0_41_183">
<rect width="96" height="96" fill="white"/>
</clipPath>
</defs>
</svg>
