<svg width="96" height="85" viewBox="0 0 96 85" fill="none" xmlns="http://www.w3.org/2000/svg">
<path d="M96.1197 10.7263C92.5722 12.418 88.7697 13.5539 84.7722 14.0695C88.8522 11.4433 91.9872 7.28635 93.4572 2.33997C89.6472 4.76482 85.4097 6.52909 80.9172 7.4797C77.3172 3.35502 72.1872 0.785156 66.5097 0.785156C55.6047 0.785156 46.7622 10.2751 46.7622 21.9886C46.7622 23.6481 46.9422 25.2674 47.2797 26.8222C30.8697 25.936 16.3272 17.4933 6.58471 4.6601C4.88221 7.80194 3.91471 11.4433 3.91471 15.3263C3.91471 22.6814 7.39471 29.1745 12.6972 32.985C9.45721 32.8722 6.41221 31.9136 3.74971 30.3265C3.74971 30.4152 3.74971 30.5038 3.74971 30.5924C3.74971 40.8719 10.5597 49.4354 19.5822 51.393C17.9322 51.8764 16.1847 52.1342 14.3847 52.1342C13.1097 52.1342 11.8722 52.0053 10.6647 51.7475C13.1847 60.166 20.4747 66.3127 29.1072 66.4819C22.3572 72.1694 13.8447 75.553 4.58971 75.553C2.99221 75.553 1.42471 75.4563 -0.112793 75.2549C8.61721 81.2808 18.9972 84.7852 30.1497 84.7852C66.4647 84.7852 86.3247 52.4725 86.3247 24.4537C86.3247 23.5353 86.3022 22.6089 86.2722 21.7066C90.1272 18.7178 93.4722 14.9798 96.1197 10.7263Z" fill="#30E3CA"/>
</svg>
