<svg width="1439" height="268" viewBox="0 0 1439 268" fill="none" xmlns="http://www.w3.org/2000/svg">
<path d="M0 109.949L34.4 101.977C68.8 93.8687 137.6 77.9262 206.08 76.9641C274.72 76.0021 342.88 90.2954 411.52 100.053C480 109.949 548.8 115.446 617.28 119.294C685.92 123.28 754.08 125.479 822.72 104.039C891.2 82.4616 960 37.1077 1028.48 27.8995C1097.12 18.8287 1165.28 45.7661 1233.92 47.1405C1302.4 48.5149 1371.2 24.3261 1405.6 12.0943L1440 0V268H1405.6C1371.2 268 1302.4 268 1233.92 268C1165.28 268 1097.12 268 1028.48 268C960 268 891.2 268 822.72 268C754.08 268 685.92 268 617.28 268C548.8 268 480 268 411.52 268C342.88 268 274.72 268 206.08 268C137.6 268 68.8 268 34.4 268H0V109.949Z" fill="#30E3CA"/>
</svg>
