<svg width="1440" height="176" viewBox="0 0 1440 176" fill="none" xmlns="http://www.w3.org/2000/svg">
<path d="M1440 104.005L1405.6 100.204C1371.2 96.3043 1302.4 88.704 1233.92 91.5041C1165.28 94.3042 1097.12 107.705 1028.48 125.806C960 144.006 891.2 167.007 822.72 160.807C754.08 154.707 685.92 119.305 617.28 110.305C548.8 101.305 480 118.705 411.52 139.006C342.88 159.307 274.72 182.708 206.08 174.208C137.6 165.707 68.7999 125.306 34.4 105.205L0 85.0038V0H34.4C68.7999 0 137.6 0 206.08 0C274.72 0 342.88 0 411.52 0C480 0 548.8 0 617.28 0C685.92 0 754.08 0 822.72 0C891.2 0 960 0 1028.48 0C1097.12 0 1165.28 0 1233.92 0C1302.4 0 1371.2 0 1405.6 0H1440V104.005Z" fill="#30E3CA"/>
</svg>
