
<svg width="487" height="329" viewBox="0 0 487 329" fill="none" xmlns="http://www.w3.org/2000/svg">
<path d="M32.7739 247.92C30.4614 247.92 28.1441 248.015 25.8811 248.207L25.5518 248.235C10.5413 249.56 -0.438118 257.251 0.0134357 266.124L0.100732 267.728C0.158299 268.742 0.219635 269.832 0.270121 271.042C0.297464 271.639 1.11238 272.097 2.12638 272.097H371.347C397.379 271.939 423.317 271.74 448.435 271.506C453.146 271.516 457.854 271.272 462.539 270.776C469.519 269.951 474.364 268.315 477.352 265.775H477.353C481.068 262.625 481.185 258.658 480.961 254.177C480.503 245.128 480.049 235.622 479.596 226.145C479.196 217.792 478.798 209.462 478.4 201.486C478.153 196.753 477.606 192.576 473.387 189.383C468.813 185.93 460.473 184.18 448.597 184.18C448.453 184.18 448.311 184.18 448.165 184.18C410.946 184.313 374.067 197.097 356.398 215.993C354.364 218.169 352.468 220.498 350.634 222.751C347.925 226.08 345.124 229.521 341.781 232.598C339.972 234.287 338.014 235.811 335.933 237.152C335.79 237.251 335.626 237.357 335.452 237.458C335.055 237.717 334.639 237.966 334.235 238.188C331.864 239.556 329.366 240.69 326.777 241.575L326.515 241.663C326.318 241.733 326.105 241.803 325.892 241.868C324.396 242.347 322.842 242.762 321.286 243.097C314.55 244.58 306.892 244.936 298.524 244.153C290.839 243.415 283.253 241.871 275.891 239.546C268.142 237.099 260.889 234.049 253.874 231.1C250.793 229.803 247.606 228.464 244.424 227.194C243.825 226.955 243.237 226.722 242.64 226.488C238.753 224.975 235.228 223.725 231.866 222.667C223.536 220.036 214.913 218.44 206.192 217.917C196.935 217.41 188.778 218.365 181.952 220.748C180.07 221.403 178.238 222.191 176.469 223.108C168.384 227.302 163.4 233.492 158.581 239.478C152.585 246.923 146.386 254.623 134.144 258.615C120.018 263.225 99.3995 261.309 84.8118 257.979C80.2254 256.931 75.6447 255.727 71.2145 254.561C69.4253 254.09 67.6348 253.623 65.843 253.158C62.322 252.25 59.4405 251.554 56.7745 250.967L55.9313 250.78C55.4623 250.678 54.9928 250.576 54.5148 250.479C51.3483 249.815 48.3997 249.293 45.4959 248.882L44.8089 248.781C43.4316 248.6 42.1439 248.449 40.8803 248.322L40.3759 248.272C37.901 248.037 35.3398 247.92 32.7739 247.92Z" fill="#F2F2F2"/>
<path d="M414.57 257.822C424.959 248.47 440.412 243.768 453.374 249.012C440.078 256.386 429.821 268.221 424.419 282.423C422.355 287.907 420.631 294.222 415.556 297.158C412.398 298.985 408.469 299.075 404.928 298.193C401.386 297.31 398.141 295.542 394.939 293.792L394.028 293.771C398.118 280.411 404.18 267.174 414.57 257.822Z" fill="#E6E6E6"/>
<path d="M453.302 249.296C441.822 250.778 431.101 255.836 422.663 263.751C420.816 265.423 419.244 267.375 418.006 269.535C416.867 271.679 416.324 274.088 416.433 276.512C416.489 278.775 416.809 281.082 416.314 283.319C416.043 284.46 415.534 285.531 414.82 286.462C414.106 287.393 413.203 288.162 412.17 288.72C409.634 290.176 406.724 290.636 403.863 290.986C400.687 291.375 397.382 291.729 394.632 293.508C394.299 293.724 393.984 293.195 394.316 292.98C399.1 289.883 405.153 291.01 410.297 288.943C412.697 287.979 414.821 286.286 415.573 283.727C416.23 281.489 415.902 279.109 415.826 276.819C415.685 274.456 416.125 272.094 417.109 269.94C418.233 267.723 419.727 265.714 421.526 263.998C425.515 260.07 430.097 256.793 435.105 254.287C440.804 251.395 446.957 249.499 453.297 248.68C453.689 248.629 453.692 249.246 453.302 249.296H453.302Z" fill="white"/>
<path d="M425.229 261.043C424.092 259.448 423.559 257.501 423.726 255.551C423.893 253.6 424.749 251.772 426.14 250.393C426.423 250.115 426.869 250.541 426.586 250.819C425.288 252.1 424.491 253.803 424.339 255.62C424.187 257.437 424.691 259.248 425.759 260.727C425.99 261.049 425.46 261.362 425.229 261.043V261.043Z" fill="white"/>
<path d="M416.253 275.369C420.198 276.067 424.261 275.254 427.633 273.093C427.967 272.878 428.283 273.407 427.949 273.621C424.436 275.864 420.206 276.702 416.102 275.966C415.711 275.896 415.864 275.299 416.253 275.369Z" fill="white"/>
<path d="M440.853 252.21C441.165 252.919 441.647 253.539 442.258 254.016C442.868 254.492 443.588 254.809 444.352 254.939C444.743 255.004 444.59 255.601 444.201 255.536C443.358 255.389 442.564 255.037 441.888 254.513C441.212 253.988 440.675 253.306 440.324 252.526C440.285 252.455 440.274 252.372 440.294 252.294C440.314 252.216 440.363 252.148 440.431 252.104C440.501 252.063 440.585 252.05 440.664 252.07C440.743 252.09 440.811 252.141 440.853 252.21Z" fill="white"/>
<path d="M467.648 294.113C467.402 294.079 467.156 294.045 466.907 294.015C463.6 293.576 460.262 293.407 456.928 293.508C456.67 293.512 456.408 293.52 456.151 293.531C448.12 293.861 440.22 295.677 432.853 298.888C429.923 300.169 427.094 301.67 424.391 303.379C420.659 305.739 416.801 308.595 412.629 309.558C412.195 309.663 411.755 309.742 411.311 309.793L394.074 294.883C394.052 294.83 394.026 294.78 394.004 294.726L393.288 294.162C393.421 294.064 393.562 293.966 393.695 293.868C393.772 293.811 393.853 293.757 393.93 293.7C393.982 293.663 394.035 293.626 394.08 293.59C394.098 293.577 394.116 293.565 394.13 293.557C394.175 293.52 394.221 293.491 394.263 293.459C395.045 292.905 395.833 292.356 396.626 291.812C396.63 291.808 396.63 291.808 396.637 291.807C402.64 287.6 409.122 284.12 415.946 281.439C416.15 281.362 416.358 281.28 416.571 281.21C419.644 280.068 422.805 279.18 426.024 278.553C427.787 278.215 429.566 277.967 431.354 277.809C435.976 277.41 440.632 277.739 445.151 278.785C454.16 280.872 462.4 285.814 467.28 293.52C467.405 293.717 467.526 293.911 467.648 294.113Z" fill="#E6E6E6"/>
<path d="M467.42 294.298C457.36 288.576 445.752 286.167 434.243 287.411C431.761 287.635 429.33 288.249 427.039 289.229C424.838 290.256 422.952 291.853 421.578 293.854C420.26 295.694 419.124 297.729 417.38 299.217C416.477 299.965 415.425 300.514 414.294 300.828C413.162 301.141 411.978 301.213 410.817 301.037C407.914 300.674 405.314 299.291 402.819 297.85C400.048 296.25 397.196 294.545 393.928 294.312C393.532 294.284 393.599 293.672 393.994 293.7C399.68 294.105 403.834 298.645 409.187 300.089C411.684 300.762 414.4 300.688 416.543 299.097C418.416 297.705 419.589 295.608 420.908 293.733C422.22 291.762 423.995 290.141 426.079 289.012C428.312 287.919 430.716 287.213 433.187 286.925C438.739 286.188 444.373 286.327 449.882 287.338C456.175 288.457 462.231 290.644 467.786 293.802C468.13 293.998 467.761 294.492 467.42 294.298V294.298Z" fill="white"/>
<path d="M437.925 286.792C437.978 284.835 438.726 282.961 440.035 281.503C441.344 280.046 443.129 279.101 445.071 278.837C445.464 278.785 445.563 279.393 445.17 279.445C443.361 279.688 441.698 280.568 440.482 281.927C439.266 283.287 438.576 285.036 438.538 286.859C438.529 287.255 437.916 287.186 437.925 286.792V286.792Z" fill="white"/>
<path d="M422.124 292.833C424.853 295.763 428.588 297.558 432.583 297.86C432.979 297.89 432.912 298.502 432.517 298.472C428.36 298.15 424.477 296.274 421.644 293.219C421.374 292.928 421.856 292.543 422.124 292.833H422.124Z" fill="white"/>
<path d="M455.725 289.138C455.546 289.891 455.558 290.677 455.758 291.424C455.959 292.171 456.342 292.857 456.873 293.42C457.147 293.708 456.665 294.092 456.393 293.806C455.809 293.182 455.386 292.424 455.163 291.598C454.94 290.773 454.922 289.905 455.112 289.072C455.123 288.992 455.164 288.919 455.227 288.868C455.291 288.817 455.371 288.793 455.451 288.799C455.532 288.808 455.607 288.849 455.658 288.912C455.709 288.976 455.733 289.057 455.725 289.138Z" fill="white"/>
<path d="M142.603 267.123C151.11 254.234 166.328 244.91 181.651 246.916C169.484 258.499 161.81 274.007 159.987 290.697C159.308 297.137 159.223 304.369 154.612 308.92C151.743 311.752 147.566 312.94 143.533 312.98C139.5 313.021 135.536 312.032 131.624 311.05L130.645 311.281C131.297 295.855 134.096 280.013 142.603 267.123Z" fill="#E6E6E6"/>
<path d="M181.653 247.24C169.787 252.016 159.729 260.405 152.908 271.215C151.398 273.517 150.261 276.041 149.538 278.696C148.918 281.306 149.008 284.033 149.8 286.595C150.49 288.999 151.474 291.379 151.567 293.909C151.596 295.204 151.35 296.491 150.845 297.685C150.341 298.879 149.589 299.953 148.64 300.836C146.333 303.099 143.349 304.399 140.387 305.569C137.098 306.867 133.661 308.164 131.216 310.832C130.92 311.155 130.435 310.677 130.731 310.354C134.985 305.713 141.773 305.236 146.699 301.596C148.997 299.898 150.797 297.497 150.889 294.551C150.968 291.975 149.955 289.52 149.235 287.092C148.426 284.604 148.24 281.955 148.692 279.378C149.277 276.695 150.315 274.131 151.761 271.796C154.934 266.486 158.922 261.708 163.58 257.636C168.87 252.959 174.923 249.221 181.475 246.583C181.881 246.42 182.056 247.078 181.653 247.24L181.653 247.24Z" fill="white"/>
<path d="M154.9 267.605C153.24 266.216 152.128 264.282 151.763 262.149C151.398 260.016 151.804 257.823 152.909 255.962C153.134 255.586 153.729 255.917 153.504 256.294C152.472 258.025 152.094 260.068 152.438 262.053C152.782 264.039 153.825 265.836 155.378 267.121C155.716 267.4 155.236 267.883 154.9 267.605Z" fill="white"/>
<path d="M149.29 285.423C153.704 285.073 157.824 283.074 160.828 279.825C161.125 279.503 161.61 279.981 161.313 280.303C158.18 283.678 153.889 285.749 149.295 286.103C148.857 286.136 148.854 285.456 149.29 285.423H149.29Z" fill="white"/>
<path d="M169.151 253.817C169.682 254.488 170.37 255.018 171.156 255.357C171.942 255.697 172.8 255.836 173.652 255.763C174.09 255.724 174.092 256.405 173.658 256.443C172.715 256.52 171.768 256.365 170.899 255.992C170.03 255.618 169.266 255.038 168.673 254.302C168.612 254.237 168.577 254.151 168.576 254.062C168.576 253.972 168.609 253.886 168.67 253.82C168.733 253.757 168.82 253.72 168.91 253.72C169 253.719 169.087 253.754 169.151 253.817H169.151Z" fill="white"/>
<path d="M209.478 291.186C209.206 291.218 208.933 291.25 208.658 291.287C204.999 291.738 201.382 292.484 197.844 293.519C197.569 293.595 197.292 293.676 197.02 293.759C188.522 296.344 180.579 300.482 173.594 305.963C170.816 308.147 168.209 310.539 165.795 313.118C162.46 316.68 159.129 320.806 154.935 322.995C154.5 323.229 154.051 323.435 153.591 323.613L131.003 312.457C130.964 312.406 130.923 312.36 130.884 312.309L129.962 311.904C130.077 311.763 130.2 311.618 130.315 311.477C130.381 311.394 130.453 311.314 130.519 311.232C130.565 311.177 130.612 311.123 130.65 311.072C130.665 311.054 130.681 311.036 130.693 311.023C130.732 310.971 130.773 310.927 130.808 310.881C131.491 310.072 132.181 309.265 132.877 308.463C132.88 308.457 132.88 308.457 132.888 308.455C138.211 302.352 144.091 296.639 150.651 292C150.849 291.86 151.049 291.715 151.256 291.581C154.225 289.506 157.359 287.677 160.626 286.112C162.418 285.261 164.252 284.501 166.121 283.835C170.953 282.124 176.024 281.182 181.149 281.045C191.365 280.773 201.554 283.768 208.92 290.655C209.109 290.831 209.292 291.005 209.478 291.186Z" fill="#E6E6E6"/>
<path d="M209.285 291.448C196.933 288.124 183.847 288.773 171.885 293.302C169.292 294.232 166.863 295.563 164.685 297.249C162.617 298.959 161.045 301.191 160.133 303.713C159.235 306.047 158.587 308.539 157.137 310.615C156.379 311.666 155.407 312.546 154.284 313.196C153.162 313.846 151.915 314.251 150.624 314.386C147.418 314.805 144.252 314.048 141.182 313.2C137.774 312.259 134.248 311.228 130.688 311.887C130.256 311.967 130.158 311.294 130.588 311.214C136.782 310.067 142.489 313.768 148.616 313.825C151.475 313.851 154.359 313.017 156.208 310.72C157.824 308.711 158.494 306.142 159.383 303.77C160.237 301.297 161.684 299.07 163.598 297.284C165.683 295.493 168.057 294.07 170.619 293.076C176.352 290.744 182.416 289.328 188.59 288.878C195.633 288.326 202.718 288.981 209.54 290.816C209.962 290.93 209.705 291.56 209.285 291.448Z" fill="white"/>
<path d="M175.65 291.617C175.162 289.509 175.44 287.296 176.434 285.374C177.428 283.452 179.074 281.945 181.077 281.123C181.483 280.958 181.759 281.581 181.352 281.746C179.485 282.508 177.952 283.911 177.03 285.703C176.108 287.495 175.858 289.558 176.324 291.518C176.425 291.944 175.75 292.041 175.65 291.617H175.65Z" fill="white"/>
<path d="M160.433 302.469C164.167 304.845 168.661 305.727 173.018 304.939C173.45 304.861 173.549 305.534 173.118 305.612C168.582 306.423 163.908 305.496 160.026 303.015C159.657 302.779 160.065 302.234 160.433 302.469V302.469Z" fill="white"/>
<path d="M195.34 289.179C195.359 290.034 195.59 290.871 196.013 291.615C196.435 292.359 197.036 292.986 197.761 293.44C198.134 293.672 197.725 294.217 197.355 293.987C196.556 293.481 195.894 292.787 195.425 291.967C194.956 291.146 194.696 290.223 194.666 289.279C194.656 289.19 194.68 289.101 194.733 289.029C194.787 288.957 194.865 288.908 194.954 288.893C195.043 288.88 195.134 288.903 195.206 288.957C195.278 289.01 195.327 289.09 195.34 289.179V289.179Z" fill="white"/>
<path d="M203.148 170.486C203.712 169.925 204.147 169.247 204.421 168.5C204.694 167.753 204.801 166.955 204.733 166.163C204.665 165.37 204.423 164.602 204.026 163.913C203.628 163.224 203.085 162.63 202.433 162.173L211.323 119.19L201.731 122.213L194.578 163.796C193.883 164.941 193.632 166.301 193.874 167.618C194.115 168.936 194.832 170.119 195.888 170.943C196.945 171.768 198.267 172.177 199.605 172.092C200.943 172.008 202.204 171.436 203.148 170.486Z" fill="#FFB6B6"/>
<path d="M223.698 55.5891L217.756 51.1087C217.756 51.1087 212.514 50.7379 211.586 60.1806C210.658 69.6233 204.845 105.864 204.845 105.864L195.753 147.931L208.339 150.691L218.077 105.293L227.826 73.973L223.698 55.5891Z" fill="#E6E6E6"/>
<path d="M219.171 133.428L190.669 111.29C190.226 110.944 189.937 110.437 189.867 109.879C189.797 109.321 189.952 108.758 190.297 108.314L209.689 83.3998C210.035 82.9563 210.543 82.668 211.101 82.5982C211.66 82.5284 212.223 82.6827 212.668 83.0274L241.17 105.166C241.614 105.512 241.902 106.019 241.972 106.577C242.042 107.135 241.888 107.698 241.543 108.142L222.15 133.056C221.804 133.5 221.296 133.788 220.738 133.858C220.179 133.927 219.616 133.773 219.171 133.428Z" fill="#3F3D56"/>
<path d="M219.015 131.138L192.931 110.877C192.537 110.57 192.281 110.12 192.219 109.624C192.157 109.129 192.294 108.629 192.6 108.235L210.18 85.6489C210.487 85.2551 210.938 84.9992 211.434 84.9372C211.93 84.8752 212.43 85.0122 212.825 85.3182L238.909 105.579C239.304 105.886 239.56 106.336 239.622 106.832C239.684 107.327 239.547 107.827 239.24 108.221L221.66 130.807C221.353 131.201 220.902 131.457 220.406 131.519C219.91 131.581 219.41 131.444 219.015 131.138Z" fill="white"/>
<path d="M196.351 110.303C196.252 110.226 196.188 110.113 196.173 109.989C196.157 109.866 196.191 109.741 196.268 109.642L205.137 98.2482C205.213 98.1496 205.326 98.0856 205.45 98.07C205.511 98.0624 205.574 98.0669 205.633 98.0832C205.693 98.0996 205.749 98.1276 205.798 98.1655C205.847 98.2035 205.888 98.2506 205.918 98.3044C205.949 98.3581 205.968 98.4173 205.976 98.4787C205.984 98.54 205.979 98.6022 205.963 98.6619C205.947 98.7215 205.919 98.7773 205.881 98.8261L197.012 110.22C196.935 110.318 196.822 110.382 196.698 110.398C196.574 110.413 196.449 110.379 196.351 110.303Z" fill="#E4E4E4"/>
<path d="M197.82 111.444C197.722 111.368 197.658 111.255 197.642 111.131C197.627 111.007 197.661 110.882 197.738 110.784L206.606 99.3898C206.683 99.2912 206.796 99.2272 206.92 99.2117C207.044 99.1962 207.169 99.2305 207.268 99.3071C207.366 99.3838 207.43 99.4964 207.446 99.6203C207.461 99.7442 207.427 99.8691 207.35 99.9677L198.482 111.362C198.405 111.46 198.292 111.524 198.168 111.54C198.044 111.555 197.919 111.521 197.82 111.444Z" fill="#E4E4E4"/>
<path d="M204.315 106.131C204.216 106.054 204.152 105.942 204.136 105.818C204.121 105.694 204.155 105.569 204.232 105.471L208.076 100.532C208.114 100.483 208.161 100.442 208.215 100.411C208.269 100.38 208.328 100.361 208.39 100.353C208.451 100.345 208.514 100.35 208.573 100.366C208.633 100.382 208.689 100.41 208.738 100.448C208.787 100.486 208.828 100.533 208.858 100.587C208.889 100.641 208.909 100.7 208.916 100.762C208.924 100.823 208.919 100.886 208.903 100.945C208.886 101.005 208.858 101.061 208.82 101.109L204.976 106.048C204.899 106.147 204.786 106.211 204.662 106.226C204.538 106.242 204.413 106.208 204.315 106.131Z" fill="#E4E4E4"/>
<path d="M206.296 115.823C206.197 115.747 206.133 115.634 206.118 115.51C206.102 115.386 206.137 115.261 206.213 115.163L220.214 97.1754C220.252 97.1266 220.299 97.0858 220.353 97.0552C220.407 97.0246 220.466 97.005 220.528 96.9973C220.589 96.9896 220.651 96.9941 220.711 97.0105C220.771 97.0269 220.826 97.0548 220.875 97.0928C220.924 97.1307 220.965 97.1779 220.996 97.2316C221.026 97.2854 221.046 97.3446 221.054 97.4059C221.061 97.4672 221.057 97.5295 221.04 97.5891C221.024 97.6487 220.996 97.7045 220.958 97.7533L206.957 115.741C206.88 115.839 206.768 115.903 206.644 115.919C206.52 115.934 206.395 115.9 206.296 115.823Z" fill="#E4E4E4"/>
<path d="M207.766 116.965C207.667 116.888 207.603 116.776 207.588 116.652C207.572 116.528 207.606 116.403 207.683 116.305L221.684 98.317C221.722 98.2682 221.769 98.2274 221.823 98.1968C221.877 98.1663 221.936 98.1466 221.997 98.1389C222.059 98.1312 222.121 98.1357 222.181 98.1521C222.24 98.1685 222.296 98.1964 222.345 98.2344C222.394 98.2723 222.435 98.3195 222.465 98.3732C222.496 98.427 222.516 98.4862 222.523 98.5475C222.531 98.6089 222.527 98.6711 222.51 98.7307C222.494 98.7903 222.466 98.8461 222.428 98.8949L208.427 116.882C208.35 116.981 208.237 117.045 208.113 117.06C207.99 117.076 207.864 117.042 207.766 116.965Z" fill="#E4E4E4"/>
<path d="M211.103 119.557C211.004 119.48 210.94 119.367 210.925 119.243C210.909 119.12 210.943 118.995 211.02 118.896L225.021 100.909C225.059 100.86 225.106 100.819 225.16 100.788C225.214 100.758 225.273 100.738 225.334 100.73C225.396 100.723 225.458 100.727 225.518 100.744C225.577 100.76 225.633 100.788 225.682 100.826C225.731 100.864 225.772 100.911 225.802 100.965C225.833 101.019 225.853 101.078 225.86 101.139C225.868 101.2 225.863 101.263 225.847 101.322C225.831 101.382 225.803 101.438 225.765 101.486L211.764 119.474C211.687 119.572 211.574 119.636 211.45 119.652C211.326 119.667 211.201 119.633 211.103 119.557Z" fill="#E4E4E4"/>
<path d="M212.572 120.698C212.474 120.622 212.41 120.509 212.394 120.385C212.379 120.261 212.413 120.136 212.49 120.038L226.491 102.05C226.529 102.001 226.576 101.961 226.63 101.93C226.683 101.899 226.743 101.88 226.804 101.872C226.865 101.864 226.928 101.869 226.987 101.885C227.047 101.902 227.103 101.93 227.152 101.968C227.201 102.005 227.241 102.053 227.272 102.106C227.303 102.16 227.322 102.219 227.33 102.281C227.338 102.342 227.333 102.404 227.317 102.464C227.3 102.523 227.273 102.579 227.235 102.628L213.234 120.616C213.157 120.714 213.044 120.778 212.92 120.793C212.796 120.809 212.671 120.775 212.572 120.698Z" fill="#E4E4E4"/>
<path d="M215.909 123.29C215.811 123.213 215.747 123.101 215.731 122.977C215.716 122.853 215.75 122.728 215.827 122.629L229.827 104.642C229.865 104.593 229.913 104.552 229.966 104.522C230.02 104.491 230.079 104.472 230.141 104.464C230.202 104.456 230.265 104.461 230.324 104.477C230.384 104.493 230.44 104.521 230.489 104.559C230.537 104.597 230.578 104.644 230.609 104.698C230.64 104.752 230.659 104.811 230.667 104.872C230.675 104.934 230.67 104.996 230.654 105.056C230.637 105.115 230.609 105.171 230.571 105.22L216.571 123.207C216.494 123.306 216.381 123.37 216.257 123.385C216.133 123.401 216.008 123.367 215.909 123.29Z" fill="#E4E4E4"/>
<path d="M217.379 124.432C217.281 124.355 217.216 124.242 217.201 124.118C217.185 123.995 217.22 123.87 217.296 123.771L231.297 105.784C231.374 105.686 231.487 105.622 231.61 105.607C231.734 105.591 231.859 105.626 231.957 105.702C232.056 105.779 232.12 105.891 232.136 106.015C232.151 106.138 232.117 106.263 232.041 106.362L218.04 124.349C217.963 124.447 217.851 124.511 217.727 124.527C217.603 124.542 217.478 124.508 217.379 124.432Z" fill="#E4E4E4"/>
<path d="M193.979 145.322C194.085 145.322 194.172 145.235 194.172 145.128C194.172 145.022 194.085 144.935 193.979 144.935C193.872 144.935 193.785 145.022 193.785 145.128C193.785 145.235 193.872 145.322 193.979 145.322Z" fill="white"/>
<path d="M222.171 12.1505C221.49 15.8028 220.374 19.3606 218.847 22.7478C210.101 41.2312 235.009 35.2066 243.91 35.2066C253.642 35.2066 262.954 40.3188 261.532 17.6033C260.924 7.90021 253.642 0 243.91 0C235.597 0 223.909 3.69106 222.171 12.1505Z" fill="#2F2E41"/>
<path d="M252.981 283.235H244.689L240.743 251.285H252.981V283.235Z" fill="#FFB6B6"/>
<path d="M257.358 297.587H251.412L250.351 291.978L247.632 297.587H231.861C231.105 297.587 230.369 297.345 229.76 296.898C229.151 296.45 228.701 295.82 228.476 295.099C228.251 294.378 228.263 293.604 228.509 292.89C228.756 292.176 229.224 291.56 229.846 291.131L242.441 282.442V276.772L255.688 277.562L257.358 297.587Z" fill="#2F2E41"/>
<path d="M302.244 272.781L295.59 277.724L273.339 254.439L283.159 247.144L302.244 272.781Z" fill="#FFB6B6"/>
<path d="M314.328 281.689L309.557 285.234L305.355 281.366L306.524 287.487L293.868 296.888C293.261 297.339 292.526 297.584 291.77 297.588C291.014 297.592 290.277 297.354 289.666 296.91C289.055 296.465 288.602 295.837 288.373 295.117C288.144 294.398 288.152 293.624 288.395 292.908L293.311 278.428L289.924 273.879L301.026 266.616L314.328 281.689Z" fill="#2F2E41"/>
<path d="M225.824 136.194L265.186 130.069L257.358 106.546H225.824V136.194Z" fill="#FFB6B6"/>
<path d="M262.635 118.394C262.635 118.394 278.368 131.972 271.109 170.679L262.247 208.606L286.391 250.48L274.114 257.169L244.361 215.859L230.746 183.956L223.544 128.042L262.635 118.394Z" fill="#2F2E41"/>
<path d="M238.25 193.047L237.304 207.687L240.074 251.037L253.826 255.767L256.431 211.35L238.25 193.047Z" fill="#2F2E41"/>
<path d="M234.022 40.0786L249.237 40.6716L255.301 50.7267L269.136 53.4247L260.877 95.163L262.396 118.92L248.62 118.836C238.692 118.776 229.091 122.379 221.659 128.954L222.071 98.1158L216.146 75.0953L217.477 50.9568L228.607 49.5671L234.022 40.0786Z" fill="#E6E6E6"/>
<path d="M242.451 35.2023C250.36 35.2023 256.771 28.7979 256.771 20.8977C256.771 12.9974 250.36 6.59302 242.451 6.59302C234.543 6.59302 228.132 12.9974 228.132 20.8977C228.132 28.7979 234.543 35.2023 242.451 35.2023Z" fill="#FFB6B6"/>
<path d="M232.727 6.31602C235.236 4.7879 238.11 3.96127 241.049 3.92257C243.988 3.88387 246.882 4.63452 249.431 6.09604C251.98 7.55755 254.089 9.67624 255.537 12.2306C256.986 14.7849 257.721 17.6811 257.665 20.6163C250.368 22.4463 242.703 23.8468 234.922 21.054L233.084 16.5613L232.001 21.0573C229.631 22.0249 227.255 22.8435 224.879 21.048C224.782 18.1211 225.456 15.22 226.833 12.6348C228.21 10.0495 230.243 7.87068 232.727 6.31602Z" fill="#2F2E41"/>
<path d="M266.487 147.76L268.417 165.26C268.552 165.697 268.823 166.079 269.191 166.35C269.559 166.622 270.004 166.768 270.461 166.768H279.359C279.817 166.768 280.262 166.622 280.63 166.35C280.998 166.079 281.269 165.697 281.403 165.26L283.002 151.847C283.464 152.073 283.972 152.187 284.486 152.178C285 152.169 285.504 152.039 285.958 151.798C286.412 151.556 286.802 151.211 287.096 150.79C287.39 150.369 287.579 149.884 287.649 149.375C287.719 148.866 287.667 148.348 287.497 147.864C287.327 147.379 287.045 146.941 286.673 146.587C286.301 146.233 285.85 145.972 285.358 145.825C284.865 145.679 284.345 145.651 283.839 145.745C283.64 145.509 283.391 145.32 283.111 145.191C282.831 145.062 282.526 144.995 282.217 144.996H268.531C268.196 144.996 267.866 145.074 267.568 145.225C267.269 145.375 267.01 145.594 266.811 145.863C266.612 146.132 266.479 146.443 266.423 146.773C266.367 147.102 266.389 147.441 266.487 147.76ZM283.281 150.94L284.261 147.76C284.374 147.393 284.385 147.002 284.293 146.629C284.335 146.627 284.374 146.617 284.417 146.617C285.032 146.617 285.621 146.861 286.056 147.295C286.491 147.73 286.735 148.319 286.735 148.933C286.735 149.547 286.491 150.137 286.056 150.571C285.621 151.005 285.032 151.249 284.417 151.249C284.018 151.247 283.626 151.14 283.281 150.94Z" fill="#30E3CA"/>
<path d="M279.905 166.78C279.343 166.216 278.912 165.536 278.642 164.788C278.372 164.04 278.27 163.241 278.342 162.449C278.414 161.657 278.659 160.89 279.06 160.203C279.461 159.516 280.008 158.925 280.662 158.471L271.99 115.443L281.567 118.515L288.508 160.134C289.198 161.282 289.441 162.644 289.193 163.96C288.945 165.276 288.222 166.455 287.162 167.274C286.101 168.093 284.777 168.496 283.439 168.405C282.102 168.313 280.844 167.735 279.905 166.78Z" fill="#FFB6B6"/>
<path d="M263.194 57.9053L269.136 53.4248C269.136 53.4248 274.378 53.054 275.306 62.4967C276.234 71.9394 282.047 108.18 282.047 108.18L291.139 150.247L278.553 153.007L268.815 107.609L259.066 76.2892L263.194 57.9053Z" fill="#E6E6E6"/>
<path d="M211.912 97.0739C213.77 97.0739 215.276 95.5696 215.276 93.714C215.276 91.8583 213.77 90.354 211.912 90.354C210.055 90.354 208.549 91.8583 208.549 93.714C208.549 95.5696 210.055 97.0739 211.912 97.0739Z" fill="#30E3CA"/>
<path d="M104.657 322.213L111.667 322.212L115.002 295.204L104.656 295.204L104.657 322.213Z" fill="#FFB6B6"/>
<path d="M102.869 319.926L104.842 319.926L112.545 316.797L116.673 319.926H116.674C119.007 319.926 121.244 320.852 122.894 322.5C124.544 324.148 125.471 326.383 125.471 328.714V328.999L102.87 329L102.869 319.926Z" fill="#2F2E41"/>
<path d="M131.82 317.8L138.658 319.342L147.866 293.731L137.775 291.455L131.82 317.8Z" fill="#FFB6B6"/>
<path d="M130.58 315.176L132.505 315.611L140.709 314.253L144.046 318.214L144.046 318.214C146.322 318.727 148.3 320.123 149.546 322.093C150.792 324.064 151.203 326.448 150.69 328.721L150.627 329L128.58 324.027L130.58 315.176Z" fill="#2F2E41"/>
<path d="M91.8252 183.286L98.1637 254.228C98.1637 254.228 95.7887 296.818 103.452 311.805H114.567L120.07 250.338L120.761 209.081L144.588 243.888L129.412 310.8L143.091 312.021L167.719 239.407L140.662 171.238L91.8252 183.286Z" fill="#2F2E41"/>
<path d="M98.4638 70.3126C107.492 70.3126 114.81 63.0017 114.81 53.9831C114.81 44.9645 107.492 37.6536 98.4638 37.6536C89.4358 37.6536 82.1172 44.9645 82.1172 53.9831C82.1172 63.0017 89.4358 70.3126 98.4638 70.3126Z" fill="#FFB8B8"/>
<path d="M127.199 85.874L113.789 80.1259L107.26 73.2087L90.9517 75.8362L86.6246 83.2478L72.6172 96.2589L89.0285 170.386L88.5317 186.576C88.5317 186.576 99.0354 191.299 144.588 180.423C145.134 180.293 143.991 179.722 143.991 179.722L127.199 85.874Z" fill="#3F3D56"/>
<path d="M81.4655 63.249C81.3516 63.0938 81.2388 62.9372 81.1272 62.7793C81.0822 62.8741 81.0465 62.9721 80.9951 63.0647L81.4655 63.249Z" fill="#2F2E41"/>
<path d="M114.725 42.0388C113.632 39.6609 111.684 37.7808 109.267 36.7719C106.872 35.8068 104.195 35.8092 101.801 36.7785C99.6402 35.4145 97.2391 34.3332 94.7103 34.1993C92.1816 34.0654 89.508 35.0026 87.9496 37.0655C87.6016 37.6101 87.2064 38.123 86.7685 38.5984C85.5158 39.7572 83.6121 39.5901 81.9472 39.3531C82.6939 39.9925 83.4409 40.6319 84.1881 41.2712C83.2841 41.5071 82.38 41.743 81.4759 41.9789C82.5309 42.6181 83.5858 43.2573 84.6406 43.8964C81.5781 45.7327 80.1861 49.7406 80.5538 53.3806C80.9017 56.8268 82.5672 59.9781 84.5582 62.7792C85.3525 61.1048 85.1814 59.1014 85.1682 57.2156C85.1546 55.2231 85.5074 52.9606 87.1057 51.847C88.1839 51.0958 89.5702 51.0623 90.8703 51.0694C97.4283 51.1054 103.979 51.5139 110.491 52.293C111.374 52.3312 112.236 52.5808 113.003 53.0209C114.443 54.0022 114.723 56.0274 114.868 57.8041C115.628 54.8705 116.001 51.8498 115.975 48.8195C116.039 46.4966 115.613 44.1863 114.725 42.0388Z" fill="#2F2E41"/>
<path d="M119.813 233.016C134.023 233.016 145.542 221.509 145.542 207.315C145.542 193.12 134.023 181.613 119.813 181.613C105.604 181.613 94.085 193.12 94.085 207.315C94.085 221.509 105.604 233.016 119.813 233.016Z" fill="white"/>
<path d="M119.814 181.042C118.491 181.042 117.171 181.141 115.863 181.339C115.194 181.436 114.543 181.562 113.896 181.716C109.15 182.809 104.801 185.198 101.334 188.616C97.8676 192.034 95.4199 196.347 94.2643 201.074C93.1086 205.801 93.2904 210.756 94.7893 215.386C96.2883 220.015 99.0454 224.138 102.753 227.293C103.193 227.665 103.639 228.024 104.102 228.367C107.44 230.853 111.321 232.512 115.426 233.207C119.531 233.902 123.743 233.613 127.714 232.364C131.686 231.115 135.304 228.942 138.27 226.024C141.236 223.106 143.467 219.525 144.777 215.578C146.088 211.63 146.441 207.428 145.809 203.317C145.176 199.206 143.575 195.304 141.137 191.932C138.7 188.56 135.496 185.814 131.789 183.921C128.082 182.028 123.977 181.041 119.814 181.042V181.042ZM119.814 232.445C114.465 232.451 109.255 230.743 104.949 227.573C104.48 227.231 104.028 226.877 103.588 226.5C99.9755 223.455 97.2952 219.456 95.8542 214.96C94.4133 210.463 94.2702 205.652 95.4413 201.079C96.6123 196.505 99.0502 192.353 102.475 189.1C105.9 185.847 110.174 183.625 114.806 182.687C115.446 182.556 116.086 182.453 116.738 182.373C117.758 182.247 118.786 182.184 119.814 182.184C126.486 182.184 132.885 184.832 137.602 189.545C142.32 194.258 144.971 200.65 144.971 207.315C144.971 213.98 142.32 220.372 137.602 225.085C132.885 229.798 126.486 232.445 119.814 232.445Z" fill="#3F3D56"/>
<path d="M107.194 202.175H132.433C133.358 202.175 134.107 201.426 134.107 200.502V200.42C134.107 199.496 133.358 198.748 132.433 198.748H107.194C106.27 198.748 105.52 199.496 105.52 200.42V200.502C105.52 201.426 106.27 202.175 107.194 202.175Z" fill="#30E3CA"/>
<path d="M107.194 209.028H132.433C133.358 209.028 134.107 208.28 134.107 207.356V207.274C134.107 206.35 133.358 205.601 132.433 205.601H107.194C106.27 205.601 105.52 206.35 105.52 207.274V207.356C105.52 208.28 106.27 209.028 107.194 209.028Z" fill="#30E3CA"/>
<path d="M107.194 215.882H132.433C133.358 215.882 134.107 215.133 134.107 214.21V214.128C134.107 213.204 133.358 212.455 132.433 212.455H107.194C106.27 212.455 105.52 213.204 105.52 214.128V214.21C105.52 215.133 106.27 215.882 107.194 215.882Z" fill="#30E3CA"/>
<path d="M407.659 321.341L400.309 321.34L396.812 293.021L407.66 293.021L407.659 321.341Z" fill="#9E616A"/>
<path d="M372.887 321.341L365.538 321.34L362.041 293.021L372.889 293.021L372.887 321.341Z" fill="#9E616A"/>
<path d="M373.145 329L350.544 328.999V328.714C350.544 326.383 351.471 324.148 353.121 322.5C354.771 320.852 357.008 319.926 359.341 319.926H359.342L363.47 316.797L371.173 319.926L373.146 319.926L373.145 329Z" fill="#2F2E41"/>
<path d="M408.86 329L386.259 328.999V328.714C386.259 326.383 387.186 324.148 388.836 322.5C390.485 320.852 392.723 319.926 395.056 319.926H395.056L399.185 316.797L406.888 319.926L408.861 319.926L408.86 329Z" fill="#2F2E41"/>
<path d="M365.678 153.734L354.508 221.679L357.548 231.804L353.559 238.975L359.417 301.951L357.039 307.181L363.682 311.274H377.201L377.919 254.261L381.258 245.891V241.277L388.057 206.512L389.308 255.199L391.286 263.582L389.625 269.552L391.795 273.734L397.56 312.516H412.719L411.547 303.493C412.868 302.826 413.928 301.738 414.563 300.403C415.197 299.067 415.369 297.558 415.052 296.114L414.183 292.16L416.161 280.466L419.763 215.231L418.747 162.594L401.014 149.047L365.678 153.734Z" fill="#2F2E41"/>
<path d="M391.285 66.485C399.064 66.485 405.37 60.1858 405.37 52.4155C405.37 44.6451 399.064 38.3459 391.285 38.3459C383.507 38.3459 377.201 44.6451 377.201 52.4155C377.201 60.1858 383.507 66.485 391.285 66.485Z" fill="#9E616A"/>
<path d="M360.513 180.697C361.126 180.064 361.593 179.305 361.88 178.473C362.168 177.641 362.269 176.756 362.177 175.88C362.085 175.004 361.802 174.16 361.347 173.405C360.893 172.651 360.279 172.005 359.548 171.513L365.025 150.823L354.473 154.369L350.89 173.473C350.144 174.754 349.895 176.265 350.19 177.717C350.485 179.17 351.303 180.464 352.489 181.355C353.675 182.245 355.147 182.67 356.626 182.549C358.105 182.428 359.488 181.769 360.513 180.697H360.513Z" fill="#9E616A"/>
<path d="M366.277 81.3614L364.012 80.8918L362.08 81.9602C362.08 81.9602 356.684 89.1469 356.684 95.7346C356.684 102.322 350.09 165.804 350.09 165.804L362.08 171.194L371.672 121.487L366.277 81.3614Z" fill="#E6E6E6"/>
<path d="M403.619 42.0999C403.619 42.0999 407.303 35.0652 399.199 34.4257C399.199 34.4257 392.29 28.1649 385.248 33.2811C385.248 33.2811 381.407 33.2811 379.306 37.6233C379.306 37.6233 376.285 36.4787 375.621 39.5418C375.621 39.5418 373.411 45.9371 375.621 51.6928C377.832 57.4485 378.566 58.088 378.566 58.088C378.566 58.088 374.934 46.0209 383.775 45.3814C392.617 44.7418 402.511 39.2221 403.248 46.2568C403.985 53.2916 405.094 55.0249 405.094 55.0249C405.094 55.0249 412.092 44.9778 403.619 42.0999Z" fill="#2F2E41"/>
<path d="M455.068 238.975C454.005 238.977 452.979 238.586 452.187 237.877L409.563 199.975C408.704 199.21 408.184 198.135 408.118 196.987C408.051 195.839 408.443 194.712 409.207 193.852L436.512 163.21C437.278 162.352 438.354 161.832 439.503 161.765C440.653 161.699 441.781 162.09 442.642 162.854L485.266 200.756C486.126 201.521 486.646 202.596 486.713 203.744C486.78 204.892 486.387 206.02 485.622 206.879L458.317 237.521C457.939 237.948 457.48 238.296 456.966 238.544C456.453 238.792 455.895 238.936 455.325 238.968C455.239 238.973 455.153 238.975 455.068 238.975Z" fill="white"/>
<path d="M455.068 239.254C453.937 239.256 452.845 238.84 452.002 238.086L409.378 200.184C408.464 199.369 407.911 198.225 407.84 197.003C407.769 195.781 408.186 194.581 408.999 193.666L436.304 163.024C437.12 162.111 438.265 161.559 439.488 161.488C440.711 161.417 441.912 161.833 442.828 162.645L485.452 200.548C486.367 201.362 486.921 202.506 486.992 203.728C487.063 204.95 486.646 206.15 485.831 207.065L458.526 237.707C458.123 238.161 457.635 238.531 457.088 238.795C456.542 239.059 455.948 239.213 455.342 239.246C455.25 239.251 455.159 239.254 455.068 239.254ZM439.758 162.594C439.263 162.593 438.773 162.697 438.322 162.899C437.87 163.101 437.467 163.396 437.138 163.766L409.833 194.408C409.216 195.102 408.9 196.012 408.953 196.939C409.007 197.865 409.427 198.733 410.12 199.351L452.744 237.253C453.088 237.559 453.488 237.794 453.923 237.945C454.358 238.096 454.818 238.16 455.278 238.133C455.737 238.106 456.187 237.99 456.601 237.789C457.015 237.589 457.386 237.309 457.692 236.965L484.997 206.323C485.615 205.63 485.932 204.719 485.878 203.793C485.824 202.866 485.404 201.998 484.71 201.381L442.086 163.478C441.445 162.907 440.616 162.592 439.758 162.594H439.758Z" fill="#3F3D56"/>
<path d="M470.525 209.955C470.064 209.956 469.62 209.787 469.276 209.481L435.819 179.729C435.634 179.566 435.482 179.367 435.374 179.145C435.266 178.923 435.203 178.682 435.188 178.435C435.173 178.189 435.207 177.942 435.288 177.708C435.369 177.475 435.496 177.26 435.66 177.075C435.824 176.891 436.024 176.741 436.246 176.633C436.469 176.526 436.711 176.463 436.957 176.45C437.204 176.436 437.451 176.47 437.685 176.552C437.918 176.634 438.133 176.761 438.317 176.926L471.775 206.678C472.06 206.931 472.261 207.264 472.351 207.634C472.441 208.003 472.417 208.392 472.282 208.747C472.146 209.103 471.905 209.409 471.592 209.625C471.278 209.84 470.906 209.956 470.525 209.955Z" fill="#30E3CA"/>
<path d="M464.143 217.117C463.683 217.118 463.238 216.949 462.895 216.643L429.437 186.891C429.253 186.727 429.103 186.528 428.995 186.306C428.888 186.085 428.825 185.844 428.811 185.598C428.796 185.352 428.831 185.105 428.912 184.873C428.993 184.64 429.119 184.425 429.283 184.241C429.447 184.057 429.646 183.907 429.868 183.8C430.09 183.693 430.331 183.63 430.577 183.616C430.824 183.601 431.07 183.636 431.303 183.717C431.536 183.798 431.751 183.924 431.935 184.088L465.393 213.84C465.678 214.093 465.879 214.426 465.969 214.796C466.06 215.165 466.036 215.554 465.9 215.909C465.764 216.265 465.524 216.571 465.21 216.786C464.896 217.002 464.524 217.117 464.143 217.117H464.143Z" fill="#30E3CA"/>
<path d="M457.761 224.279C457.301 224.28 456.856 224.111 456.513 223.805L423.055 194.053C422.87 193.889 422.72 193.691 422.612 193.469C422.504 193.247 422.441 193.006 422.427 192.76C422.413 192.514 422.447 192.267 422.528 192.034C422.609 191.801 422.735 191.586 422.899 191.402C423.064 191.218 423.262 191.068 423.485 190.96C423.707 190.853 423.948 190.79 424.195 190.776C424.441 190.762 424.688 190.797 424.921 190.878C425.154 190.959 425.369 191.085 425.554 191.25L459.011 221.002C459.296 221.255 459.497 221.588 459.587 221.958C459.678 222.327 459.654 222.716 459.518 223.071C459.383 223.427 459.142 223.733 458.828 223.949C458.514 224.164 458.142 224.28 457.761 224.279H457.761Z" fill="#30E3CA"/>
<path d="M419.499 181.918C419.07 181.149 418.814 180.296 418.751 179.417C418.688 178.539 418.818 177.658 419.132 176.835C419.447 176.013 419.938 175.269 420.571 174.657C421.204 174.045 421.964 173.579 422.797 173.291L422.833 151.89L432.117 158.028L430.659 177.41C431.05 178.84 430.901 180.364 430.242 181.692C429.583 183.02 428.459 184.06 427.084 184.616C425.708 185.172 424.176 185.204 422.778 184.707C421.38 184.209 420.214 183.217 419.499 181.918H419.499Z" fill="#9E616A"/>
<path d="M420.357 87.2258L424.504 83.2324L427.551 85.4291C427.551 85.4291 430.548 89.0224 432.946 99.8023C435.344 110.582 432.946 169.872 432.946 169.872L419.757 168.075L421.556 136.933L416.16 110.582L420.357 87.2258Z" fill="#E6E6E6"/>
<path d="M426.481 84.2064L412.508 77.5389L403.022 68.749L385.722 68.6196L380.142 75.8666L365.41 80.8657L367.865 131.612L366.191 135.514C366.191 135.514 367.357 136.567 367.89 137.156C368.423 137.744 367.154 142.672 367.154 142.672L366.438 148.034L368.423 149.451L365.843 152.496L365.202 157.295C365.202 157.295 410.244 146.112 418.755 164.638C419.205 165.617 418.097 156.051 418.097 156.051L416.99 149.047L418.089 142.761L419.763 141.089L416.955 138.284L418.755 124.975L426.481 84.2064Z" fill="#3F3D56"/>
<path d="M109.604 196.707C109.951 195.828 110.1 194.883 110.042 193.939C109.984 192.996 109.719 192.076 109.266 191.246C108.814 190.416 108.185 189.695 107.423 189.134C106.662 188.573 105.786 188.185 104.859 187.999L101.755 165.23L92.7549 173.089L97.0822 193.505C96.8718 195.083 97.248 196.683 98.1395 198.002C99.031 199.321 100.376 200.267 101.919 200.662C103.463 201.057 105.098 200.872 106.514 200.143C107.93 199.414 109.03 198.192 109.604 196.707V196.707Z" fill="#FFB8B8"/>
<path d="M74.345 95.8425L71.9056 96.3093L70.4312 98.1637C70.4312 98.1637 68.0458 107.51 70.7631 114.042C73.4804 120.574 93.1272 186.231 93.1272 186.231L107.239 186.64L96.2459 133.406L74.345 95.8425Z" fill="#3F3D56"/>
<path d="M129.976 193.367C129.326 192.68 128.835 191.859 128.537 190.962C128.239 190.065 128.141 189.113 128.251 188.174C128.361 187.235 128.676 186.332 129.173 185.528C129.67 184.723 130.338 184.038 131.129 183.519L125.511 161.236L136.795 165.176L140.4 185.732C141.184 187.118 141.432 188.743 141.097 190.299C140.762 191.855 139.868 193.234 138.583 194.175C137.298 195.116 135.712 195.553 134.126 195.405C132.54 195.256 131.063 194.531 129.976 193.367Z" fill="#FFB8B8"/>
<path d="M125.046 86.643L127.484 86.1675L129.544 87.339C129.544 87.339 135.246 95.123 135.163 102.196C135.079 109.269 141.356 177.509 141.356 177.509L128.414 183.144L118.745 129.655L125.046 86.643Z" fill="#3F3D56"/>
</svg>
