
<svg width="395" height="346" viewBox="0 0 395 346" fill="none" xmlns="http://www.w3.org/2000/svg">
<path d="M19.0597 117.906L0.0137592 107.17C-0.243149 95.6825 2.30548 84.3062 7.43835 74.0287C11.8295 93.9761 34.9385 103.466 45.6007 120.883C48.8845 126.341 50.8992 132.468 51.4954 138.811C52.0917 145.153 51.2542 151.549 49.045 157.524L50.2976 172.99C40.454 170.039 31.3666 164.987 23.6615 158.183C15.9564 151.379 9.81674 142.983 5.66558 133.575C3.38904 128.274 1.78852 122.708 0.901813 117.007C9.78184 117.952 19.0597 117.906 19.0597 117.906Z" fill="#F2F2F2"/>
<path d="M361.442 313.234L362.026 300.092C368.114 296.834 374.905 295.114 381.808 295.08C372.307 302.854 373.495 317.84 367.053 328.295C365.019 331.541 362.281 334.286 359.043 336.329C355.805 338.371 352.149 339.658 348.346 340.094L340.395 344.966C339.304 338.879 339.545 332.627 341.1 326.642C342.656 320.657 345.489 315.08 349.405 310.297C351.629 307.635 354.178 305.264 356.994 303.239C358.898 308.265 361.442 313.234 361.442 313.234Z" fill="#F2F2F2"/>
<path d="M340.956 338.203L333.756 338.202L330.331 310.409L340.957 310.41L340.956 338.203Z" fill="#FFB6B6"/>
<path d="M342.792 345.187L319.578 345.186V344.892C319.578 342.494 320.53 340.194 322.225 338.498C323.919 336.802 326.217 335.849 328.613 335.849H328.614L332.854 332.63L340.766 335.85L342.792 335.85L342.792 345.187Z" fill="#2F2E41"/>
<path d="M307.509 338.203L300.31 338.202L296.885 310.409L307.51 310.41L307.509 338.203Z" fill="#FFB6B6"/>
<path d="M309.344 345.187L286.131 345.186V344.892C286.131 342.494 287.083 340.194 288.777 338.498C290.472 336.802 292.77 335.849 295.166 335.849H295.167L299.407 332.63L307.318 335.85L309.345 335.85L309.344 345.187Z" fill="#2F2E41"/>
<path d="M304.393 186.258L351.22 187.43C360.114 192.265 360.249 202.729 357.335 215.152C357.335 215.152 358.319 222.537 356.351 224.506C354.384 226.475 353.4 226.475 354.384 229.921C355.368 233.367 350.17 238.995 350.801 239.627C351.433 240.259 352.908 243.705 352.908 243.705L347.99 271.765C347.99 271.765 344.546 320.501 343.563 321.486C342.579 322.471 341.595 321.486 342.579 323.947C343.563 326.409 344.546 325.424 343.563 326.409C342.691 327.349 341.87 328.335 341.103 329.362H329.212C329.212 329.362 328.315 324.44 328.315 323.947C328.315 323.455 327.331 320.501 327.331 320.009C327.331 319.517 328.201 318.647 328.201 318.647C328.501 317.646 328.704 316.618 328.807 315.578C328.807 314.594 331.758 276.688 331.758 276.688L325.856 227.459L311.592 275.703C311.592 275.703 311.592 318.04 310.608 319.024C309.624 320.009 309.624 319.517 310.116 321.486C310.608 323.455 312.575 322.963 311.1 324.44C309.624 325.916 309.132 323.455 309.624 325.917L310.116 328.378L295.36 328.589C295.36 328.589 293.393 324.44 294.377 322.963C295.36 321.486 295.301 321.889 294.101 319.472C292.901 317.055 292.409 316.563 292.901 316.071C293.393 315.579 293.393 312.96 293.393 312.96L295.852 265.858C295.852 265.858 296.344 216.137 296.344 214.66C296.381 213.9 296.241 213.142 295.935 212.445V210.441L297.82 203.337L304.393 186.258Z" fill="#2F2E41"/>
<path d="M332.522 88.8042C340.558 88.8042 347.072 82.2845 347.072 74.2421C347.072 66.1997 340.558 59.6801 332.522 59.6801C324.487 59.6801 317.973 66.1997 317.973 74.2421C317.973 82.2845 324.487 88.8042 332.522 88.8042Z" fill="#FFB6B6"/>
<path d="M325.248 98.4287C322.114 100.294 320.239 103.721 319.162 107.208C317.169 113.664 315.97 120.339 315.59 127.085L314.453 147.282L300.373 190.288C312.576 200.622 358.445 192.636 358.445 192.636C358.445 192.636 359.853 192.167 358.445 190.757C357.037 189.348 355.666 190.597 357.074 189.187C358.482 187.778 357.511 189.348 357.042 187.939C356.573 186.53 357.042 187.469 357.511 186.999C357.981 186.53 353.878 182.302 353.878 182.302L357.633 157.616L362.326 107.824C356.694 100.777 345.367 96.6237 345.367 96.6237L342.44 91.3511L327.807 92.5228L325.248 98.4287Z" fill="#E6E6E6"/>
<path d="M323.252 65.696C323.815 65.7004 324.375 65.774 324.92 65.9151C325.995 66.1737 327.086 66.3568 328.186 66.4632C331.554 66.7804 334.719 68.2181 337.175 70.5467C339.631 72.8753 341.237 75.9605 341.736 79.3095C342.581 78.5718 344.505 77.2147 346.082 78.4759C346.106 78.496 346.12 78.5063 346.175 78.4799C347.222 77.9828 349.081 71.8629 349.138 66.4744C349.167 63.6144 348.717 59.9623 346.406 58.8058L346.285 58.7448L346.253 58.6124C346.098 57.969 344.373 56.8709 341.375 56.0161C335.926 54.4628 327.804 51.437 323.231 55.89C322.885 57.3913 321.758 60.6039 320.621 60.9681C319.361 61.3711 318.274 61.719 318.102 63.2654C317.959 65.4661 317.969 67.6741 318.133 69.8733C318.56 68.5276 319.398 67.3497 320.529 66.5056C321.333 65.9638 322.283 65.6813 323.252 65.696Z" fill="#2F2E41"/>
<path d="M296.172 146.158L319.938 130.924L307.968 114.997L296.148 129.55L259.319 131.811C258.35 130.852 257.123 130.197 255.789 129.924C254.454 129.651 253.069 129.773 251.803 130.274C250.536 130.775 249.443 131.635 248.656 132.747C247.869 133.86 247.422 135.178 247.37 136.54C247.319 137.902 247.664 139.25 248.364 140.419C249.065 141.588 250.09 142.528 251.315 143.124C252.54 143.721 253.912 143.947 255.263 143.776C256.615 143.606 257.887 143.045 258.926 142.163L296.172 146.158Z" fill="#FFB6B6"/>
<path d="M341.997 109.66C343.376 118.015 317.327 133.97 317.327 133.97C317.327 132.009 301.779 146.814 301.077 145.187C299.083 140.565 297.681 129.616 294.894 127.864C293.3 126.862 304.493 117.447 304.493 117.447C304.493 117.447 310.352 111.54 318.041 104.088C320.175 101.941 322.818 100.369 325.723 99.5197C328.628 98.6699 331.7 98.5694 334.654 99.2277C334.654 99.2277 340.617 101.305 341.997 109.66Z" fill="#E6E6E6"/>
<path d="M390.984 150.156L375.263 126.697L359.607 139.013L374.394 150.532L377.433 187.337C376.496 188.326 375.867 189.567 375.623 190.908C375.378 192.25 375.529 193.633 376.057 194.89C376.584 196.146 377.466 197.222 378.594 197.986C379.722 198.75 381.048 199.169 382.41 199.192C383.772 199.215 385.111 198.841 386.264 198.115C387.417 197.39 388.334 196.344 388.904 195.106C389.473 193.867 389.67 192.49 389.471 191.141C389.272 189.793 388.685 188.531 387.782 187.511L390.984 150.156Z" fill="#FFB6B6"/>
<path d="M353.555 105.075C361.872 103.517 378.361 129.245 378.361 129.245C376.402 129.287 391.52 144.531 389.91 145.268C385.335 147.361 374.428 148.996 372.737 151.822C371.769 153.438 362.128 142.437 362.128 142.437C362.128 142.437 356.103 136.7 348.496 129.164C346.307 127.073 344.681 124.462 343.77 121.574C342.86 118.685 342.695 115.613 343.29 112.643C343.29 112.643 345.238 106.632 353.555 105.075Z" fill="#E6E6E6"/>
<path d="M395 345.303C395 345.394 394.982 345.485 394.947 345.57C394.913 345.654 394.861 345.731 394.797 345.796C394.732 345.861 394.655 345.912 394.57 345.947C394.486 345.982 394.395 346 394.303 346H230.238C230.053 346 229.876 345.926 229.745 345.796C229.614 345.665 229.541 345.488 229.541 345.303C229.541 345.118 229.614 344.94 229.745 344.81C229.876 344.679 230.053 344.605 230.238 344.605H394.303C394.395 344.605 394.486 344.623 394.57 344.658C394.655 344.693 394.732 344.744 394.797 344.809C394.861 344.874 394.913 344.951 394.947 345.036C394.982 345.12 395 345.211 395 345.303Z" fill="#CCCCCC"/>
<path d="M243.012 134.037H43.8958C40.7849 134.04 37.8024 135.279 35.6027 137.481C33.403 139.682 32.1656 142.667 32.1621 145.781V269.856C32.1656 272.97 33.403 275.955 35.6027 278.156C37.8024 280.358 40.7849 281.596 43.8958 281.6H243.012C246.123 281.596 249.105 280.358 251.305 278.156C253.505 275.955 254.742 272.97 254.746 269.856V145.781C254.742 142.667 253.505 139.682 251.305 137.48C249.105 135.279 246.123 134.04 243.012 134.037Z" fill="#30E3CA"/>
<path d="M243.012 134.037H43.8958C40.7849 134.04 37.8024 135.279 35.6027 137.481C33.403 139.682 32.1656 142.667 32.1621 145.781V269.856C32.1656 272.97 33.403 275.955 35.6027 278.156C37.8024 280.358 40.7849 281.596 43.8958 281.6H243.012C246.123 281.596 249.105 280.358 251.305 278.156C253.505 275.955 254.742 272.97 254.746 269.856V145.781C254.742 142.667 253.505 139.682 251.305 137.48C249.105 135.279 246.123 134.04 243.012 134.037ZM246.863 223.162C246.815 235.793 241.823 247.903 232.957 256.893C224.091 265.883 212.058 271.038 199.439 271.25C179.235 271.514 210.618 271.616 186.25 271.616C130.53 271.616 72.4289 271.083 50.7508 270.738C47.8986 270.679 45.1825 269.506 43.1822 267.471C41.182 265.435 40.0561 262.697 40.0451 259.842V145.79C40.0462 144.767 40.4519 143.787 41.1734 143.063C41.8949 142.339 42.8734 141.931 43.895 141.927H243.004C244.025 141.928 245.004 142.334 245.728 143.056C246.451 143.778 246.859 144.757 246.863 145.78V223.162Z" fill="#3F3D56"/>
<path d="M218.502 62.5906H66.796C65.4538 62.5925 64.1448 63.009 63.0479 63.7832C61.9509 64.5574 61.1194 65.6516 60.6669 66.9164L37.237 132.707C36.8873 133.689 36.7783 134.74 36.9191 135.773C37.0598 136.806 37.4463 137.79 38.046 138.643C38.6457 139.495 39.441 140.191 40.3652 140.672C41.2894 141.153 42.3154 141.404 43.357 141.406L246.819 141.767H246.828C247.905 141.767 248.965 141.5 249.913 140.989C250.861 140.478 251.667 139.739 252.26 138.84C252.853 137.94 253.213 136.907 253.309 135.834C253.405 134.76 253.233 133.68 252.809 132.689L252.454 132.841L252.809 132.689L224.482 66.5376C223.981 65.3656 223.148 64.3666 222.084 63.6649C221.021 62.9632 219.775 62.5896 218.502 62.5906Z" fill="#3F3D56"/>
<path d="M253.335 134.118C253.335 135 253.156 135.873 252.809 136.684L224.484 187.606C223.98 188.775 223.145 189.772 222.082 190.472C221.019 191.173 219.774 191.547 218.502 191.549H66.7983C65.4556 191.547 64.1459 191.131 63.0481 190.358C61.9502 189.584 61.1177 188.49 60.6639 187.225L37.2385 136.667C36.9514 135.861 36.8257 135.007 36.8686 134.153C36.9115 133.299 37.1221 132.461 37.4885 131.689C37.8549 130.916 38.3698 130.223 39.0039 129.65C39.6379 129.077 40.3787 128.634 41.1837 128.348C41.8801 128.096 42.6149 127.967 43.3553 127.967L68.209 127.92L78.353 127.902L211.835 127.668L221.984 127.65L246.821 127.604H246.826C248.553 127.604 250.208 128.29 251.429 129.512C252.649 130.734 253.335 132.39 253.335 134.118Z" fill="#3F3D56"/>
<path d="M58.8229 227.108C61.8312 227.108 103.142 229.635 103.142 232.645C103.142 235.656 61.8312 238.011 58.8229 238.011C57.3783 238.011 55.9928 237.437 54.9713 236.414C53.9498 235.392 53.376 234.005 53.376 232.559C53.376 231.114 53.9498 229.727 54.9713 228.705C55.9928 227.682 57.3783 227.108 58.8229 227.108Z" fill="#3F3D56"/>
<path d="M209.054 22.5671H81.1392C77.7111 22.5711 74.4246 23.9358 72.0005 26.3619C69.5765 28.7881 68.2129 32.0774 68.209 35.5085V191.549H218.502C219.736 191.553 220.945 191.201 221.984 190.535V35.5085C221.98 32.0774 220.617 28.7881 218.193 26.362C215.769 23.9358 212.482 22.5711 209.054 22.5671Z" fill="#E6E6E6"/>
<path d="M160.23 33.0596H90.1297C87.0081 33.0626 84.0152 34.3047 81.8074 36.5133C79.5996 38.7219 78.3571 41.7167 78.3525 44.841V191.549H211.834V84.7078C211.818 71.0147 206.376 57.8869 196.702 48.2044C187.028 38.5219 173.912 33.0754 160.23 33.0596Z" fill="white"/>
<path d="M189.093 178.519H101.093C100.332 178.519 99.6026 178.822 99.0647 179.36C98.5268 179.899 98.2246 180.629 98.2246 181.39C98.2246 182.151 98.5268 182.882 99.0647 183.42C99.6026 183.958 100.332 184.261 101.093 184.261H189.093C189.854 184.261 190.583 183.958 191.121 183.42C191.659 182.882 191.961 182.151 191.961 181.39C191.961 180.629 191.659 179.899 191.121 179.36C190.583 178.822 189.854 178.519 189.093 178.519Z" fill="#E4E4E4"/>
<path d="M189.093 167.166H101.093C100.331 167.166 99.601 167.468 99.0626 168.007C98.5242 168.546 98.2217 169.277 98.2217 170.039C98.2217 170.801 98.5242 171.532 99.0626 172.071C99.601 172.61 100.331 172.913 101.093 172.913H189.093C189.855 172.913 190.585 172.61 191.123 172.071C191.662 171.532 191.964 170.801 191.964 170.039C191.964 169.277 191.662 168.546 191.123 168.007C190.585 167.468 189.855 167.166 189.093 167.166Z" fill="#E4E4E4"/>
<path d="M139.24 155.818H101.093C100.332 155.818 99.6026 156.12 99.0647 156.659C98.5268 157.197 98.2246 157.927 98.2246 158.689C98.2246 159.45 98.5268 160.18 99.0647 160.718C99.6026 161.257 100.332 161.559 101.093 161.559H139.24C140 161.559 140.73 161.257 141.268 160.718C141.806 160.18 142.108 159.45 142.108 158.689C142.108 157.927 141.806 157.197 141.268 156.659C140.73 156.12 140 155.818 139.24 155.818Z" fill="#E4E4E4"/>
<path d="M189.093 132.044H101.093C100.331 132.044 99.601 132.347 99.0626 132.886C98.5242 133.425 98.2217 134.156 98.2217 134.918C98.2217 135.68 98.5242 136.411 99.0626 136.95C99.601 137.489 100.331 137.791 101.093 137.791H189.093C189.855 137.791 190.585 137.489 191.123 136.95C191.662 136.411 191.964 135.68 191.964 134.918C191.964 134.156 191.662 133.425 191.123 132.886C190.585 132.347 189.855 132.044 189.093 132.044Z" fill="#E4E4E4"/>
<path d="M189.093 120.696H101.093C100.332 120.696 99.6026 120.999 99.0647 121.537C98.5268 122.076 98.2246 122.806 98.2246 123.567C98.2246 124.328 98.5268 125.059 99.0647 125.597C99.6026 126.135 100.332 126.438 101.093 126.438H189.093C189.854 126.438 190.583 126.135 191.121 125.597C191.659 125.059 191.961 124.328 191.961 123.567C191.961 122.806 191.659 122.076 191.121 121.537C190.583 120.999 189.854 120.696 189.093 120.696Z" fill="#E4E4E4"/>
<path d="M139.24 109.343H101.093C100.331 109.343 99.601 109.645 99.0626 110.184C98.5242 110.723 98.2217 111.454 98.2217 112.216C98.2217 112.978 98.5242 113.709 99.0626 114.248C99.601 114.787 100.331 115.09 101.093 115.09H139.24C140.001 115.09 140.731 114.787 141.27 114.248C141.808 113.709 142.111 112.978 142.111 112.216C142.111 111.454 141.808 110.723 141.27 110.184C140.731 109.645 140.001 109.343 139.24 109.343Z" fill="#E4E4E4"/>
<path d="M189.093 85.569H101.093C100.331 85.569 99.601 85.8717 99.0626 86.4106C98.5242 86.9495 98.2217 87.6804 98.2217 88.4425C98.2217 89.2047 98.5242 89.9356 99.0626 90.4745C99.601 91.0134 100.331 91.3161 101.093 91.3161H189.093C189.855 91.3161 190.585 91.0134 191.123 90.4745C191.662 89.9356 191.964 89.2047 191.964 88.4425C191.964 87.6804 191.662 86.9495 191.123 86.4106C190.585 85.8717 189.855 85.569 189.093 85.569Z" fill="#30E3CA"/>
<path d="M189.093 74.2212H101.093C100.331 74.2212 99.601 74.5239 99.0626 75.0628C98.5242 75.6017 98.2217 76.3326 98.2217 77.0948C98.2217 77.8569 98.5242 78.5878 99.0626 79.1267C99.601 79.6656 100.331 79.9683 101.093 79.9683H189.093C189.855 79.9683 190.585 79.6656 191.123 79.1267C191.662 78.5878 191.964 77.8569 191.964 77.0948C191.964 76.3326 191.662 75.6017 191.123 75.0628C190.585 74.5239 189.855 74.2212 189.093 74.2212Z" fill="#30E3CA"/>
<path d="M139.24 62.8674H101.093C100.331 62.8674 99.601 63.1702 99.0626 63.7091C98.5242 64.248 98.2217 64.9789 98.2217 65.741C98.2217 66.5031 98.5242 67.234 99.0626 67.7729C99.601 68.3118 100.331 68.6146 101.093 68.6146H139.24C140.001 68.6146 140.731 68.3118 141.27 67.7729C141.808 67.234 142.111 66.5031 142.111 65.741C142.111 64.9789 141.808 64.248 141.27 63.7091C140.731 63.1702 140.001 62.8674 139.24 62.8674Z" fill="#30E3CA"/>
<path d="M217.189 44.7151C229.526 44.7151 239.527 34.7053 239.527 22.3575C239.527 10.0098 229.526 0 217.189 0C204.852 0 194.851 10.0098 194.851 22.3575C194.851 34.7053 204.852 44.7151 217.189 44.7151Z" fill="#30E3CA"/>
<path d="M214.141 33.9936C213.755 33.9936 213.374 33.9037 213.029 33.731C212.684 33.5583 212.384 33.3075 212.153 32.9986L206.059 24.8658C205.862 24.6046 205.718 24.3071 205.637 23.9904C205.555 23.6736 205.536 23.3438 205.582 23.0199C205.628 22.696 205.737 22.3842 205.903 22.1026C206.07 21.821 206.29 21.575 206.552 21.3787C206.813 21.1824 207.111 21.0397 207.427 20.9587C207.744 20.8778 208.074 20.8601 208.397 20.9069C208.721 20.9536 209.032 21.0637 209.313 21.231C209.594 21.3983 209.839 21.6194 210.034 21.8817L214.021 27.2019L224.262 11.8285C224.627 11.2797 225.196 10.8987 225.842 10.7694C226.488 10.64 227.159 10.7729 227.708 11.1388C228.256 11.5047 228.637 12.0736 228.766 12.7204C228.895 13.3671 228.762 14.0388 228.397 14.5876L216.208 32.8861C215.988 33.217 215.691 33.4902 215.343 33.6828C214.996 33.8754 214.607 33.9817 214.21 33.9928C214.187 33.9932 214.164 33.9936 214.141 33.9936Z" fill="white"/>
</svg>
