<?xml version="1.0" standalone="no"?>
<!DOCTYPE svg PUBLIC "-//W3C//DTD SVG 20010904//EN"
 "http://www.w3.org/TR/2001/REC-SVG-20010904/DTD/svg10.dtd">
<svg version="1.0" xmlns="http://www.w3.org/2000/svg"
 width="265.000000pt" height="265.000000pt" viewBox="0 0 265.000000 265.000000"
 preserveAspectRatio="xMidYMid meet">
<metadata>
Created by potrace 1.14, written by Peter Selinger 2001-2017
</metadata>
<g transform="translate(0.000000,265.000000) scale(0.100000,-0.100000)"
fill="#000000" stroke="none">
<path d="M1818 1965 c-2 -2 -19 -6 -40 -9 -143 -22 -308 -149 -392 -299 -57
-102 -78 -179 -82 -298 -7 -195 55 -357 186 -489 319 -318 826 -186 974 255
24 70 30 117 30 225 -2 237 -136 455 -346 561 -75 38 -158 57 -251 57 -42 0
-77 -1 -79 -3z m142 -257 c171 -32 298 -189 298 -370 0 -87 -22 -162 -67 -228
-132 -197 -395 -217 -553 -42 -74 81 -104 173 -95 292 11 168 118 305 270 344
62 17 76 17 147 4z"/>
<path d="M170 1287 l0 -618 218 3 c195 3 224 6 282 26 186 65 334 234 385 437
16 65 22 209 11 260 -30 142 -82 240 -176 336 -78 79 -142 119 -240 149 -59
18 -112 21 -338 24 l-142 1 0 -618z m415 358 c169 -59 264 -202 253 -384 -13
-226 -186 -365 -425 -342 -9 1 -12 92 -12 370 l1 369 81 -3 c45 -1 91 -6 102
-10z"/>
</g>
</svg>
