<svg width="490" height="491" viewBox="0 0 490 491" fill="none" xmlns="http://www.w3.org/2000/svg">
<path d="M244.978 0.625C248.969 0.625 252.961 0.722427 256.952 0.917277C260.939 1.11213 264.922 1.40883 268.895 1.79854C272.869 2.18824 276.834 2.67537 280.785 3.25992C284.733 3.84448 288.666 4.52646 292.587 5.30586C296.503 6.08084 300.397 6.95324 304.274 7.92307C308.15 8.8929 311.995 9.95572 315.818 11.1115C319.642 12.2674 323.434 13.5206 327.195 14.8624C330.957 16.2043 334.682 17.6391 338.373 19.1669C342.063 20.6903 345.719 22.3066 349.329 24.0116C352.94 25.7121 356.511 27.5056 360.034 29.3833C363.56 31.2654 367.034 33.2272 370.463 35.2775C373.893 37.3279 377.269 39.4624 380.592 41.6766C383.916 43.8909 387.186 46.1848 390.398 48.5629C393.606 50.9365 396.761 53.3899 399.85 55.9185C402.943 58.4471 405.97 61.0511 408.935 63.7303C411.9 66.4095 414.798 69.1595 417.626 71.976C420.458 74.7969 423.219 77.6843 425.905 80.638C428.595 83.5962 431.21 86.6164 433.75 89.6986C436.29 92.7808 438.755 95.925 441.14 99.1312C443.53 102.333 445.835 105.592 448.065 108.909C450.291 112.226 452.437 115.596 454.5 119.019C456.562 122.443 458.54 125.914 460.434 129.431C462.327 132.951 464.133 136.516 465.85 140.121C467.567 143.73 469.2 147.379 470.739 151.064C472.279 154.752 473.726 158.477 475.085 162.232C476.443 165.992 477.709 169.783 478.882 173.604C480.054 177.422 481.134 181.27 482.116 185.145C483.099 189.015 483.988 192.912 484.785 196.827C485.577 200.746 486.276 204.679 486.878 208.629C487.479 212.583 487.979 216.547 488.391 220.519C488.798 224.496 489.108 228.482 489.32 232.472C489.533 236.462 489.648 240.456 489.661 244.45C489.679 248.449 489.599 252.444 489.422 256.438C489.245 260.428 488.966 264.414 488.595 268.395C488.218 272.372 487.749 276.34 487.183 280.299C486.617 284.253 485.953 288.195 485.192 292.118C484.431 296.042 483.577 299.943 482.625 303.823C481.674 307.706 480.625 311.563 479.488 315.394C478.346 319.225 477.116 323.024 475.788 326.793C474.461 330.561 473.045 334.299 471.536 337.997C470.027 341.699 468.43 345.361 466.744 348.984C465.053 352.606 463.279 356.184 461.416 359.718C459.553 363.252 457.606 366.742 455.575 370.183C453.539 373.619 451.424 377.011 449.225 380.346C447.026 383.681 444.747 386.962 442.384 390.186C440.025 393.41 437.587 396.576 435.074 399.681C432.56 402.785 429.971 405.827 427.308 408.803C424.644 411.783 421.909 414.693 419.104 417.54C416.298 420.384 413.426 423.156 410.484 425.862C407.541 428.563 404.536 431.193 401.465 433.749C398.394 436.304 395.266 438.784 392.075 441.188C388.885 443.589 385.637 445.913 382.331 448.154C379.026 450.399 375.667 452.561 372.256 454.638C368.844 456.719 365.383 458.712 361.879 460.62C358.37 462.529 354.816 464.353 351.219 466.089C347.621 467.825 343.984 469.468 340.307 471.027C336.625 472.586 332.912 474.052 329.164 475.425C325.412 476.802 321.633 478.082 317.819 479.273C314.009 480.464 310.168 481.558 306.3 482.559C302.437 483.56 298.548 484.467 294.636 485.278C290.728 486.088 286.799 486.806 282.852 487.426C278.909 488.041 274.949 488.564 270.979 488.989C267.006 489.414 263.028 489.742 259.041 489.972C255.054 490.198 251.062 490.331 247.071 490.366C243.08 490.402 239.084 490.335 235.097 490.176C231.105 490.012 227.123 489.755 223.145 489.396C219.167 489.042 215.197 488.586 211.246 488.037C207.29 487.488 203.347 486.837 199.426 486.093C195.501 485.349 191.599 484.512 187.713 483.573C183.833 482.639 179.974 481.611 176.142 480.486C172.31 479.361 168.509 478.144 164.734 476.833C160.964 475.522 157.225 474.118 153.521 472.626C149.817 471.133 146.149 469.548 142.525 467.874C138.896 466.2 135.312 464.442 131.772 462.591C128.232 460.744 124.74 458.809 121.293 456.79C117.846 454.766 114.452 452.662 111.111 450.479C107.766 448.292 104.478 446.024 101.248 443.677C98.0176 441.33 94.8448 438.903 91.7296 436.401C88.6188 433.899 85.5655 431.317 82.5786 428.665C79.5917 426.012 76.6711 423.289 73.817 420.494C70.9628 417.7 68.1795 414.835 65.4669 411.903C62.7544 408.971 60.1126 405.973 57.5461 402.913C54.9796 399.849 52.4883 396.727 50.0722 393.543C47.6561 390.363 45.3241 387.122 43.0673 383.822C40.8105 380.523 38.6378 377.175 36.5448 373.77C34.4518 370.364 32.4472 366.91 30.5223 363.407C28.6018 359.904 26.7654 356.357 25.0131 352.766C23.2652 349.17 21.6058 345.538 20.0349 341.863C18.4596 338.192 16.9817 334.481 15.5922 330.734C14.2027 326.988 12.9018 323.206 11.6982 319.397C10.4945 315.589 9.37943 311.749 8.36609 307.883C7.34833 304.022 6.42349 300.134 5.59601 296.223C4.76852 292.313 4.03839 288.385 3.40561 284.439C2.7684 280.494 2.22855 276.535 1.79047 272.562C1.34796 268.59 1.00281 264.609 0.75943 260.619C0.511627 256.633 0.361176 252.639 0.3125 248.644L244.978 245.5V0.625Z" fill="#30E3CA"/>
<path d="M0.793862 260.876C0.532784 256.717 0.377908 252.55 0.329232 248.383C0.280556 244.216 0.338083 240.049 0.501809 235.886C0.665536 231.719 0.935464 227.565 1.31159 223.411C1.68772 219.261 2.17005 215.121 2.75858 210.994C3.34269 206.871 4.03742 202.761 4.83393 198.669C5.63044 194.577 6.52873 190.512 7.53321 186.464C8.5377 182.421 9.64396 178.405 10.852 174.415C12.06 170.425 13.3699 166.47 14.7814 162.551C16.193 158.627 17.702 154.744 19.3127 150.9C20.919 147.056 22.6271 143.256 24.428 139.496C26.2335 135.741 28.1274 132.03 30.1231 128.372C32.1144 124.71 34.1986 121.105 36.3713 117.549C38.5484 113.997 40.814 110.503 43.1681 107.063C45.5223 103.626 47.9649 100.252 50.4872 96.9347C53.0139 93.6222 55.6246 90.3762 58.3151 87.1966C61.0099 84.0169 63.78 80.9082 66.6297 77.8703C69.4839 74.8324 72.4089 71.8697 75.409 68.978C78.4136 66.0906 81.4846 63.2786 84.6308 60.5506C87.777 57.8183 90.9896 55.1657 94.2686 52.6016C97.5476 50.0331 100.893 47.5532 104.3 45.153C107.707 42.7572 111.172 40.45 114.695 38.2313C118.221 36.0127 121.801 33.8826 125.434 31.8455C129.067 29.8084 132.749 27.8688 136.484 26.0177C140.214 24.171 143.993 22.4173 147.812 20.7655C151.635 19.1093 155.494 17.5505 159.396 16.0935C163.299 14.6366 167.233 13.2815 171.202 12.0238C175.172 10.7661 179.172 9.6103 183.203 8.56076C187.23 7.50679 191.283 6.55911 195.363 5.71328C199.439 4.86745 203.536 4.1279 207.652 3.4902C211.767 2.85693 215.895 2.32552 220.037 1.90039C224.179 1.47526 228.33 1.15641 232.489 0.943848C236.649 0.731283 240.809 0.625 244.972 0.625L244.999 245.5L0.793862 260.876Z" fill="#C0FFF6"/>
<path d="M331.072 305.08C331.488 305.08 331.808 305.2 332.032 305.44C332.256 305.664 332.368 305.96 332.368 306.328C332.368 306.696 332.256 307.08 332.032 307.48L324.376 321.376C324.056 321.92 323.616 322.192 323.056 322.192C322.672 322.192 322.328 322.064 322.024 321.808C321.736 321.536 321.592 321.208 321.592 320.824C321.592 320.552 321.672 320.28 321.832 320.008L328.72 307.576H321.472C320.512 307.576 320.032 307.168 320.032 306.352C320.032 305.504 320.512 305.08 321.472 305.08H331.072ZM345.991 316.288C346.471 316.288 346.831 316.392 347.071 316.6C347.311 316.808 347.431 317.104 347.431 317.488C347.431 318.288 346.951 318.688 345.991 318.688H344.767V320.584C344.767 321.08 344.623 321.464 344.335 321.736C344.063 322.008 343.703 322.144 343.255 322.144C342.807 322.144 342.439 322.008 342.151 321.736C341.879 321.464 341.743 321.08 341.743 320.584V318.688H335.455C335.023 318.688 334.687 318.568 334.447 318.328C334.207 318.072 334.087 317.76 334.087 317.392C334.087 317.008 334.215 316.64 334.471 316.288L341.887 305.632C342.047 305.408 342.247 305.24 342.487 305.128C342.727 305 342.975 304.936 343.231 304.936C343.647 304.936 344.007 305.072 344.311 305.344C344.615 305.616 344.767 306 344.767 306.496V316.288H345.991ZM337.279 316.288H341.743V309.832L337.279 316.288ZM355.749 321.664C355.605 321.92 355.429 322.112 355.221 322.24C355.013 322.368 354.805 322.432 354.597 322.432C354.309 322.432 354.053 322.328 353.829 322.12C353.621 321.912 353.517 321.648 353.517 321.328C353.517 321.056 353.597 320.784 353.757 320.512L362.493 305.416C362.637 305.16 362.813 304.968 363.021 304.84C363.229 304.712 363.437 304.648 363.645 304.648C363.933 304.648 364.181 304.752 364.389 304.96C364.613 305.168 364.725 305.432 364.725 305.752C364.725 306.024 364.645 306.296 364.485 306.568L355.749 321.664ZM353.085 315.184C351.741 315.184 350.693 314.744 349.941 313.864C349.189 312.984 348.813 311.696 348.813 310C348.813 308.32 349.189 307.04 349.941 306.16C350.693 305.28 351.741 304.84 353.085 304.84C354.429 304.84 355.477 305.28 356.229 306.16C356.997 307.04 357.381 308.32 357.381 310C357.381 311.696 356.997 312.984 356.229 313.864C355.477 314.744 354.429 315.184 353.085 315.184ZM353.085 313.24C353.693 313.24 354.133 312.992 354.405 312.496C354.693 311.984 354.837 311.152 354.837 310C354.837 308.88 354.693 308.064 354.405 307.552C354.117 307.04 353.677 306.784 353.085 306.784C352.493 306.784 352.053 307.04 351.765 307.552C351.493 308.048 351.357 308.864 351.357 310C351.357 311.152 351.493 311.984 351.765 312.496C352.053 312.992 352.493 313.24 353.085 313.24ZM365.157 322.168C363.813 322.168 362.765 321.728 362.013 320.848C361.261 319.968 360.885 318.672 360.885 316.96C360.885 315.28 361.261 314.008 362.013 313.144C362.781 312.264 363.829 311.824 365.157 311.824C366.501 311.824 367.549 312.264 368.301 313.144C369.053 314.024 369.429 315.304 369.429 316.984C369.429 318.68 369.053 319.968 368.301 320.848C367.549 321.728 366.501 322.168 365.157 322.168ZM365.157 320.224C365.749 320.224 366.189 319.976 366.477 319.48C366.765 318.968 366.909 318.136 366.909 316.984C366.909 315.864 366.765 315.048 366.477 314.536C366.189 314.024 365.749 313.768 365.157 313.768C364.565 313.768 364.125 314.024 363.837 314.536C363.549 315.048 363.405 315.864 363.405 316.984C363.405 318.136 363.549 318.968 363.837 319.48C364.125 319.976 364.565 320.224 365.157 320.224Z" fill="#5C5C5C"/>
<path d="M113.952 152.504C114.912 152.504 115.392 152.912 115.392 153.728C115.392 154.576 114.912 155 113.952 155H104.832C104.416 155 104.088 154.88 103.848 154.64C103.608 154.384 103.488 154.072 103.488 153.704C103.488 153.224 103.672 152.792 104.04 152.408L109.512 146.528C110.184 145.792 110.672 145.12 110.976 144.512C111.296 143.888 111.456 143.272 111.456 142.664C111.456 141.912 111.24 141.336 110.808 140.936C110.376 140.536 109.76 140.336 108.96 140.336C108.304 140.336 107.664 140.464 107.04 140.72C106.432 140.96 105.816 141.296 105.192 141.728C105.032 141.84 104.872 141.936 104.712 142.016C104.552 142.08 104.392 142.112 104.232 142.112C103.96 142.112 103.72 141.984 103.512 141.728C103.32 141.472 103.224 141.168 103.224 140.816C103.224 140.576 103.264 140.368 103.344 140.192C103.44 140.016 103.584 139.848 103.776 139.688C104.48 139.128 105.304 138.688 106.248 138.368C107.192 138.032 108.136 137.864 109.08 137.864C110.728 137.864 112.04 138.28 113.016 139.112C114.008 139.944 114.504 141.064 114.504 142.472C114.504 143.448 114.296 144.368 113.88 145.232C113.464 146.08 112.76 147.032 111.768 148.088L107.616 152.504H113.952ZM124.646 144.152C125.654 144.152 126.55 144.384 127.334 144.848C128.118 145.296 128.726 145.936 129.158 146.768C129.606 147.584 129.83 148.52 129.83 149.576C129.83 150.664 129.582 151.64 129.086 152.504C128.606 153.352 127.934 154.016 127.07 154.496C126.222 154.976 125.254 155.216 124.166 155.216C122.022 155.216 120.366 154.496 119.198 153.056C118.046 151.6 117.47 149.528 117.47 146.84C117.47 145 117.742 143.408 118.286 142.064C118.83 140.704 119.606 139.664 120.614 138.944C121.638 138.224 122.838 137.864 124.214 137.864C125.126 137.864 126.038 138.032 126.95 138.368C127.878 138.688 128.662 139.128 129.302 139.688C129.51 139.864 129.654 140.04 129.734 140.216C129.83 140.376 129.878 140.576 129.878 140.816C129.878 141.168 129.774 141.472 129.566 141.728C129.374 141.968 129.142 142.088 128.87 142.088C128.71 142.088 128.558 142.064 128.414 142.016C128.27 141.952 128.094 141.856 127.886 141.728C126.558 140.8 125.374 140.336 124.334 140.336C123.166 140.336 122.246 140.88 121.574 141.968C120.902 143.04 120.55 144.552 120.518 146.504C120.886 145.784 121.438 145.216 122.174 144.8C122.91 144.368 123.734 144.152 124.646 144.152ZM123.998 152.768C124.878 152.768 125.582 152.488 126.11 151.928C126.638 151.352 126.902 150.6 126.902 149.672C126.902 148.744 126.638 148 126.11 147.44C125.582 146.88 124.878 146.6 123.998 146.6C123.102 146.6 122.374 146.888 121.814 147.464C121.27 148.024 120.998 148.76 120.998 149.672C120.998 150.6 121.27 151.352 121.814 151.928C122.374 152.488 123.102 152.768 123.998 152.768ZM138.773 154.664C138.629 154.92 138.453 155.112 138.245 155.24C138.037 155.368 137.829 155.432 137.621 155.432C137.333 155.432 137.077 155.328 136.853 155.12C136.645 154.912 136.541 154.648 136.541 154.328C136.541 154.056 136.621 153.784 136.781 153.512L145.517 138.416C145.661 138.16 145.837 137.968 146.045 137.84C146.253 137.712 146.461 137.648 146.669 137.648C146.957 137.648 147.205 137.752 147.413 137.96C147.637 138.168 147.749 138.432 147.749 138.752C147.749 139.024 147.669 139.296 147.509 139.568L138.773 154.664ZM136.109 148.184C134.765 148.184 133.717 147.744 132.965 146.864C132.213 145.984 131.837 144.696 131.837 143C131.837 141.32 132.213 140.04 132.965 139.16C133.717 138.28 134.765 137.84 136.109 137.84C137.453 137.84 138.501 138.28 139.253 139.16C140.021 140.04 140.405 141.32 140.405 143C140.405 144.696 140.021 145.984 139.253 146.864C138.501 147.744 137.453 148.184 136.109 148.184ZM136.109 146.24C136.717 146.24 137.157 145.992 137.429 145.496C137.717 144.984 137.861 144.152 137.861 143C137.861 141.88 137.717 141.064 137.429 140.552C137.141 140.04 136.701 139.784 136.109 139.784C135.517 139.784 135.077 140.04 134.789 140.552C134.517 141.048 134.381 141.864 134.381 143C134.381 144.152 134.517 144.984 134.789 145.496C135.077 145.992 135.517 146.24 136.109 146.24ZM148.181 155.168C146.837 155.168 145.789 154.728 145.037 153.848C144.285 152.968 143.909 151.672 143.909 149.96C143.909 148.28 144.285 147.008 145.037 146.144C145.805 145.264 146.853 144.824 148.181 144.824C149.525 144.824 150.573 145.264 151.325 146.144C152.077 147.024 152.453 148.304 152.453 149.984C152.453 151.68 152.077 152.968 151.325 153.848C150.573 154.728 149.525 155.168 148.181 155.168ZM148.181 153.224C148.773 153.224 149.213 152.976 149.501 152.48C149.789 151.968 149.933 151.136 149.933 149.984C149.933 148.864 149.789 148.048 149.501 147.536C149.213 147.024 148.773 146.768 148.181 146.768C147.589 146.768 147.149 147.024 146.861 147.536C146.573 148.048 146.429 148.864 146.429 149.984C146.429 151.136 146.573 151.968 146.861 152.48C147.149 152.976 147.589 153.224 148.181 153.224Z" fill="#5C5C5C"/>
</svg>
