
<svg width="304" height="199" viewBox="0 0 304 199" fill="none" xmlns="http://www.w3.org/2000/svg">
<path d="M157 23C121.1 23 92 51.8763 92 87.5C92 123.122 121.1 152 157 152C192.898 152 222 123.122 222 87.5C222 51.8763 192.898 23 157 23Z" fill="#919191"/>
<path d="M156.496 0C157.94 0 159.384 0.034813 160.827 0.104438C162.27 0.174063 163.71 0.280083 165.147 0.419334C166.585 0.558584 168.019 0.732647 169.448 0.941523C170.876 1.1504 172.299 1.39409 173.717 1.67259C175.133 1.94951 176.542 2.26124 177.944 2.60778C179.346 2.95433 180.737 3.3341 182.12 3.7471C183.503 4.16011 184.874 4.60792 186.235 5.08739C187.595 5.56685 188.943 6.07955 190.278 6.62547C191.613 7.16982 192.935 7.74739 194.241 8.35661C195.547 8.96425 196.838 9.60512 198.112 10.2761C199.388 10.9486 200.645 11.6496 201.885 12.3822C203.125 13.1149 204.347 13.8776 205.549 14.6688C206.751 15.46 207.933 16.2796 209.095 17.1294C210.256 17.9776 211.397 18.8542 212.514 19.7577C213.633 20.6613 214.728 21.5917 215.8 22.5491C216.873 23.5064 217.921 24.4891 218.944 25.4955C219.968 26.5035 220.967 27.5352 221.938 28.5907C222.911 29.6477 223.857 30.7269 224.776 31.8282C225.695 32.9296 226.586 34.0531 227.449 35.1987C228.313 36.3428 229.147 37.5074 229.954 38.6926C230.759 39.8778 231.535 41.0821 232.281 42.3052C233.027 43.5284 233.742 44.769 234.427 46.0254C235.112 47.2834 235.766 48.5573 236.387 49.8453C237.008 51.135 237.598 52.4389 238.155 53.7554C238.712 55.0736 239.236 56.4043 239.727 57.7462C240.218 59.0897 240.676 60.4442 241.1 61.8098C241.524 63.1738 241.915 64.5489 242.27 65.9335C242.625 67.3165 242.947 68.709 243.235 70.1079C243.522 71.5083 243.775 72.9134 243.992 74.3249C244.21 75.738 244.391 77.1543 244.54 78.5737C244.687 79.9946 244.799 81.4188 244.876 82.8445C244.953 84.2703 244.994 85.6976 244.999 87.1249C245.006 88.5538 244.977 89.9811 244.913 91.4084C244.849 92.8342 244.748 94.2583 244.613 95.6809C244.477 97.1019 244.308 98.5197 244.103 99.9344C243.898 101.347 243.658 102.756 243.383 104.158C243.107 105.56 242.798 106.954 242.454 108.34C242.11 109.728 241.731 111.106 241.319 112.475C240.906 113.844 240.462 115.201 239.981 116.548C239.501 117.895 238.989 119.23 238.443 120.551C237.897 121.874 237.32 123.183 236.71 124.477C236.098 125.772 235.457 127.05 234.783 128.313C234.109 129.576 233.405 130.823 232.67 132.052C231.934 133.28 231.169 134.492 230.373 135.684C229.578 136.875 228.753 138.048 227.899 139.2C227.046 140.352 226.164 141.483 225.255 142.592C224.346 143.702 223.409 144.789 222.446 145.852C221.482 146.917 220.493 147.957 219.478 148.974C218.464 149.99 217.425 150.981 216.36 151.948C215.296 152.913 214.209 153.853 213.098 154.766C211.988 155.679 210.856 156.565 209.702 157.424C208.548 158.282 207.373 159.113 206.178 159.913C204.982 160.716 203.767 161.488 202.533 162.23C201.299 162.974 200.048 163.686 198.78 164.368C197.511 165.05 196.225 165.702 194.924 166.322C193.623 166.942 192.307 167.529 190.977 168.086C189.645 168.643 188.303 169.167 186.947 169.658C185.59 170.15 184.223 170.607 182.843 171.033C181.465 171.458 180.076 171.849 178.677 172.207C177.28 172.565 175.873 172.889 174.458 173.179C173.045 173.468 171.623 173.724 170.196 173.946C168.769 174.166 167.337 174.353 165.901 174.505C164.464 174.656 163.025 174.774 161.583 174.856C160.141 174.937 158.697 174.984 157.253 174.997C155.81 175.009 154.364 174.986 152.922 174.929C151.479 174.87 150.038 174.778 148.599 174.65C147.16 174.524 145.725 174.361 144.295 174.164C142.864 173.968 141.438 173.736 140.02 173.47C138.601 173.204 137.189 172.905 135.784 172.569C134.38 172.235 132.984 171.868 131.598 171.466C130.212 171.064 128.837 170.629 127.472 170.161C126.108 169.693 124.756 169.191 123.416 168.658C122.076 168.124 120.75 167.558 119.439 166.96C118.126 166.362 116.83 165.733 115.549 165.072C114.269 164.412 113.006 163.721 111.759 162.999C110.512 162.276 109.285 161.524 108.076 160.744C106.866 159.962 105.677 159.152 104.509 158.314C103.34 157.475 102.193 156.608 101.066 155.714C99.9407 154.82 98.8363 153.897 97.7559 152.949C96.6756 152.001 95.6192 151.028 94.5868 150.03C93.5545 149.031 92.5477 148.007 91.5666 146.96C90.5854 145.912 89.6299 144.841 88.7016 143.748C87.7733 142.653 86.8722 141.537 85.9983 140.399C85.1244 139.263 84.2809 138.105 83.4646 136.926C82.6483 135.747 81.8624 134.551 81.1054 133.334C80.3483 132.117 79.6232 130.883 78.927 129.631C78.2324 128.379 77.5681 127.112 76.9343 125.829C76.3021 124.544 75.7019 123.246 75.1337 121.933C74.5639 120.621 74.0293 119.295 73.5267 117.956C73.0241 116.618 72.5536 115.266 72.1182 113.905C71.6829 112.544 71.2795 111.173 70.913 109.791C70.5449 108.411 70.2104 107.022 69.9111 105.625C69.6118 104.227 69.3477 102.824 69.1188 101.414C68.8883 100.004 68.693 98.5893 68.5346 97.1699C68.3745 95.7505 68.2497 94.3279 68.1617 92.9022C68.072 91.4781 68.0176 90.0507 68 88.6234L156.496 87.4999V0Z" fill="white"/>
<path d="M68.1751 94C68.0801 92.4981 68.0238 90.9929 68.0061 89.4878C67.9884 87.9826 68.0093 86.4775 68.0689 84.974C68.1284 83.4688 68.2266 81.9685 68.3634 80.4681C68.5002 78.9694 68.6756 77.4739 68.8897 75.9831C69.1022 74.494 69.3549 73.0096 69.6446 71.5317C69.9343 70.0537 70.261 68.5854 70.6264 67.1234C70.9918 65.6631 71.3941 64.2123 71.8335 62.7712C72.2729 61.33 72.7494 59.9016 73.2628 58.4861C73.7762 57.0689 74.3251 55.6661 74.911 54.2778C75.4952 52.8894 76.1165 51.517 76.7716 50.159C77.4283 48.8027 78.1171 47.4623 78.843 46.1411C79.5673 44.8183 80.3254 43.5163 81.1157 42.2319C81.9076 40.9491 82.7316 39.687 83.5879 38.4442C84.4442 37.203 85.3326 35.9842 86.2501 34.7861C87.1691 33.5897 88.1187 32.4173 89.0973 31.2688C90.0775 30.1204 91.0851 28.9975 92.1216 27.9003C93.1598 26.803 94.2237 25.7329 95.3149 24.6884C96.4078 23.6456 97.5248 22.6299 98.6692 21.6446C99.8135 20.6577 100.982 19.6996 102.175 18.7734C103.367 17.8457 104.584 16.95 105.824 16.0831C107.063 15.2177 108.323 14.3844 109.604 13.583C110.887 12.7817 112.189 12.0123 113.511 11.2765C114.832 10.5408 116.171 9.84019 117.53 9.17159C118.886 8.50459 120.261 7.87119 121.65 7.27457C123.041 6.67635 124.444 6.11333 125.864 5.58709C127.283 5.06085 128.714 4.5714 130.158 4.11714C131.602 3.66288 133.057 3.24541 134.523 2.86632C135.988 2.48564 137.462 2.14334 138.946 1.83784C140.428 1.53233 141.919 1.26521 143.416 1.03488C144.912 0.806153 146.414 0.614212 147.921 0.460659C149.427 0.307106 150.937 0.191941 152.45 0.115165C153.963 0.0383882 155.476 0 156.99 0L157 88.4465L68.1751 94Z" fill="#C0FFF6"/>
<path d="M12.2 9.8C12.5733 9.8 12.8667 9.92 13.08 10.16C13.3067 10.3867 13.42 10.6933 13.42 11.08V22.82C13.42 23.2067 13.3067 23.52 13.08 23.76C12.8533 24 12.56 24.12 12.2 24.12C11.7733 24.12 11.4467 23.9667 11.22 23.66L3.92 14.16V22.82C3.92 23.2067 3.81333 23.52 3.6 23.76C3.38667 24 3.09333 24.12 2.72 24.12C2.34667 24.12 2.05333 24 1.84 23.76C1.62667 23.52 1.52 23.2067 1.52 22.82V11.08C1.52 10.6933 1.63333 10.3867 1.86 10.16C2.08667 9.92 2.38667 9.8 2.76 9.8C3.17333 9.8 3.49333 9.95333 3.72 10.26L11 19.72V11.08C11 10.6933 11.1067 10.3867 11.32 10.16C11.5467 9.92 11.84 9.8 12.2 9.8ZM17.4814 24.12C17.1214 24.12 16.8214 24.02 16.5814 23.82C16.3547 23.6067 16.2414 23.3067 16.2414 22.92V15.2C16.2414 14.8133 16.3547 14.52 16.5814 14.32C16.8214 14.12 17.1214 14.02 17.4814 14.02C17.8414 14.02 18.1414 14.12 18.3814 14.32C18.6214 14.52 18.7414 14.8133 18.7414 15.2V22.92C18.7414 23.3067 18.6214 23.6067 18.3814 23.82C18.1414 24.02 17.8414 24.12 17.4814 24.12ZM17.4814 12.24C17.0281 12.24 16.6681 12.12 16.4014 11.88C16.1347 11.6267 16.0014 11.3 16.0014 10.9C16.0014 10.5 16.1347 10.18 16.4014 9.94C16.6681 9.7 17.0281 9.58 17.4814 9.58C17.9214 9.58 18.2747 9.7 18.5414 9.94C18.8214 10.18 18.9614 10.5 18.9614 10.9C18.9614 11.3 18.8281 11.6267 18.5614 11.88C18.2947 12.12 17.9347 12.24 17.4814 12.24ZM29.0595 21.32C29.2862 21.32 29.4662 21.4067 29.5995 21.58C29.7462 21.7533 29.8195 21.9867 29.8195 22.28C29.8195 22.6933 29.5729 23.04 29.0795 23.32C28.6262 23.5733 28.1129 23.78 27.5395 23.94C26.9662 24.0867 26.4195 24.16 25.8995 24.16C24.3262 24.16 23.0795 23.7067 22.1595 22.8C21.2395 21.8933 20.7795 20.6533 20.7795 19.08C20.7795 18.08 20.9795 17.1933 21.3795 16.42C21.7795 15.6467 22.3395 15.0467 23.0595 14.62C23.7929 14.1933 24.6195 13.98 25.5395 13.98C26.4195 13.98 27.1862 14.1733 27.8395 14.56C28.4929 14.9467 28.9995 15.4933 29.3595 16.2C29.7195 16.9067 29.8995 17.74 29.8995 18.7C29.8995 19.2733 29.6462 19.56 29.1395 19.56H23.2395C23.3195 20.48 23.5795 21.16 24.0195 21.6C24.4595 22.0267 25.0995 22.24 25.9395 22.24C26.3662 22.24 26.7395 22.1867 27.0595 22.08C27.3929 21.9733 27.7662 21.8267 28.1795 21.64C28.5795 21.4267 28.8729 21.32 29.0595 21.32ZM25.5995 15.74C24.9195 15.74 24.3729 15.9533 23.9595 16.38C23.5595 16.8067 23.3195 17.42 23.2395 18.22H27.7595C27.7329 17.4067 27.5329 16.7933 27.1595 16.38C26.7862 15.9533 26.2662 15.74 25.5995 15.74ZM44.6542 22.12C45.4009 22.12 45.7742 22.4333 45.7742 23.06C45.7742 23.3533 45.6809 23.5867 45.4942 23.76C45.3076 23.92 45.0276 24 44.6542 24H37.9742C37.6409 24 37.3676 23.8933 37.1542 23.68C36.9409 23.4667 36.8342 23.2133 36.8342 22.92C36.8342 22.6133 36.9542 22.32 37.1942 22.04L42.3342 16.1H37.8742C37.5009 16.1 37.2209 16.02 37.0342 15.86C36.8476 15.7 36.7542 15.4667 36.7542 15.16C36.7542 14.8533 36.8476 14.62 37.0342 14.46C37.2209 14.3 37.5009 14.22 37.8742 14.22H44.3342C44.6809 14.22 44.9542 14.3267 45.1542 14.54C45.3676 14.74 45.4742 14.9933 45.4742 15.3C45.4742 15.62 45.3609 15.9133 45.1342 16.18L39.9742 22.12H44.6542ZM53.2495 13.98C54.4229 13.98 55.2962 14.3133 55.8695 14.98C56.4429 15.6467 56.7295 16.6533 56.7295 18V22.92C56.7295 23.2933 56.6162 23.5867 56.3895 23.8C56.1762 24.0133 55.8762 24.12 55.4895 24.12C55.1029 24.12 54.7962 24.0133 54.5695 23.8C54.3429 23.5867 54.2295 23.2933 54.2295 22.92V18.14C54.2295 17.38 54.0829 16.8267 53.7895 16.48C53.5095 16.1333 53.0629 15.96 52.4495 15.96C51.7295 15.96 51.1495 16.1867 50.7095 16.64C50.2829 17.0933 50.0695 17.7 50.0695 18.46V22.92C50.0695 23.2933 49.9562 23.5867 49.7295 23.8C49.5029 24.0133 49.1962 24.12 48.8095 24.12C48.4229 24.12 48.1162 24.0133 47.8895 23.8C47.6762 23.5867 47.5695 23.2933 47.5695 22.92V15.18C47.5695 14.8333 47.6829 14.5533 47.9095 14.34C48.1362 14.1267 48.4429 14.02 48.8295 14.02C49.1762 14.02 49.4562 14.1267 49.6695 14.34C49.8962 14.54 50.0095 14.8067 50.0095 15.14V15.68C50.3429 15.1333 50.7895 14.7133 51.3495 14.42C51.9095 14.1267 52.5429 13.98 53.2495 13.98ZM63.5088 13.98C64.8688 13.98 65.8754 14.32 66.5288 15C67.1954 15.6667 67.5288 16.6867 67.5288 18.06V22.94C67.5288 23.3 67.4221 23.5867 67.2088 23.8C66.9954 24 66.7021 24.1 66.3288 24.1C65.9821 24.1 65.6954 23.9933 65.4688 23.78C65.2554 23.5667 65.1488 23.2867 65.1488 22.94V22.5C64.9221 23.02 64.5621 23.4267 64.0688 23.72C63.5888 24.0133 63.0288 24.16 62.3888 24.16C61.7354 24.16 61.1421 24.0267 60.6087 23.76C60.0754 23.4933 59.6554 23.1267 59.3488 22.66C59.0421 22.1933 58.8888 21.6733 58.8888 21.1C58.8888 20.38 59.0688 19.8133 59.4288 19.4C59.8021 18.9867 60.4021 18.6867 61.2288 18.5C62.0554 18.3133 63.1954 18.22 64.6488 18.22H65.1488V17.76C65.1488 17.1067 65.0088 16.6333 64.7288 16.34C64.4488 16.0333 63.9954 15.88 63.3688 15.88C62.9821 15.88 62.5888 15.94 62.1888 16.06C61.7888 16.1667 61.3154 16.3267 60.7688 16.54C60.4221 16.7133 60.1688 16.8 60.0088 16.8C59.7688 16.8 59.5688 16.7133 59.4088 16.54C59.2621 16.3667 59.1888 16.14 59.1888 15.86C59.1888 15.6333 59.2421 15.44 59.3488 15.28C59.4688 15.1067 59.6621 14.9467 59.9288 14.8C60.3954 14.5467 60.9488 14.3467 61.5888 14.2C62.2421 14.0533 62.8821 13.98 63.5088 13.98ZM62.8888 22.36C63.5554 22.36 64.0954 22.14 64.5088 21.7C64.9354 21.2467 65.1488 20.6667 65.1488 19.96V19.54H64.7888C63.8954 19.54 63.2021 19.58 62.7088 19.66C62.2154 19.74 61.8621 19.88 61.6488 20.08C61.4354 20.28 61.3288 20.5533 61.3288 20.9C61.3288 21.3267 61.4754 21.68 61.7688 21.96C62.0754 22.2267 62.4488 22.36 62.8888 22.36ZM81.6895 13.98C82.7562 13.98 83.5695 14.3 84.1295 14.94C84.7029 15.5667 84.9895 16.5867 84.9895 18V22.92C84.9895 23.3067 84.8695 23.6067 84.6295 23.82C84.4029 24.02 84.1029 24.12 83.7295 24.12C83.3695 24.12 83.0695 24.02 82.8295 23.82C82.6029 23.6067 82.4895 23.3067 82.4895 22.92V18C82.4895 17.2667 82.3562 16.7467 82.0895 16.44C81.8362 16.12 81.4429 15.96 80.9095 15.96C80.2562 15.96 79.7362 16.1867 79.3495 16.64C78.9629 17.08 78.7695 17.6867 78.7695 18.46V22.92C78.7695 23.3067 78.6495 23.6067 78.4095 23.82C78.1829 24.02 77.8895 24.12 77.5295 24.12C77.1695 24.12 76.8695 24.02 76.6295 23.82C76.3895 23.6067 76.2695 23.3067 76.2695 22.92V18C76.2695 17.2667 76.1362 16.7467 75.8695 16.44C75.6162 16.12 75.2229 15.96 74.6895 15.96C74.0362 15.96 73.5162 16.1867 73.1295 16.64C72.7562 17.08 72.5695 17.6867 72.5695 18.46V22.92C72.5695 23.3067 72.4495 23.6067 72.2095 23.82C71.9695 24.02 71.6695 24.12 71.3095 24.12C70.9495 24.12 70.6495 24.02 70.4095 23.82C70.1829 23.6067 70.0695 23.3067 70.0695 22.92V15.18C70.0695 14.8067 70.1895 14.52 70.4295 14.32C70.6695 14.12 70.9695 14.02 71.3295 14.02C71.6762 14.02 71.9562 14.12 72.1695 14.32C72.3962 14.5067 72.5095 14.78 72.5095 15.14V15.62C72.8162 15.0867 73.2229 14.68 73.7295 14.4C74.2495 14.12 74.8429 13.98 75.5095 13.98C76.9762 13.98 77.9562 14.5933 78.4495 15.82C78.7429 15.26 79.1762 14.8133 79.7495 14.48C80.3229 14.1467 80.9695 13.98 81.6895 13.98Z" fill="white"/>
<path d="M252.44 183.16C251.973 183.16 251.64 183 251.44 182.68C251.24 182.36 251.26 181.973 251.5 181.52L257.08 171.04H251.06C250.313 171.04 249.94 170.687 249.94 169.98C249.94 169.26 250.313 168.9 251.06 168.9H258.8C259.16 168.9 259.453 168.993 259.68 169.18C259.907 169.367 260.02 169.633 260.02 169.98C260.02 170.273 259.98 170.533 259.9 170.76C259.82 170.973 259.713 171.207 259.58 171.46L253.9 182.32C253.607 182.88 253.12 183.16 252.44 183.16ZM269.252 183.16C268.852 183.16 268.539 183.053 268.312 182.84C268.086 182.613 267.972 182.293 267.972 181.88V180.32H263.032C262.619 180.32 262.286 180.233 262.032 180.06C261.792 179.887 261.672 179.62 261.672 179.26C261.672 179.033 261.726 178.793 261.832 178.54C261.952 178.287 262.159 177.953 262.452 177.54L267.932 169.6C268.119 169.32 268.326 169.107 268.552 168.96C268.779 168.813 269.039 168.74 269.332 168.74C269.679 168.74 269.966 168.847 270.192 169.06C270.419 169.26 270.532 169.58 270.532 170.02V178.2H271.512C272.286 178.2 272.672 178.553 272.672 179.26C272.672 179.967 272.286 180.32 271.512 180.32H270.532V181.88C270.532 182.293 270.419 182.613 270.192 182.84C269.966 183.053 269.652 183.16 269.252 183.16ZM267.972 178.2V172.82L264.292 178.2H267.972ZM279.564 182.84C279.391 183.133 279.178 183.307 278.924 183.36C278.684 183.413 278.451 183.373 278.224 183.24C278.011 183.12 277.864 182.94 277.784 182.7C277.704 182.447 277.751 182.173 277.924 181.88L285.304 169.08C285.478 168.773 285.684 168.6 285.924 168.56C286.178 168.507 286.411 168.547 286.624 168.68C286.838 168.8 286.984 168.98 287.064 169.22C287.144 169.46 287.104 169.727 286.944 170.02L279.564 182.84ZM277.424 177.32C276.304 177.32 275.431 176.933 274.804 176.16C274.178 175.387 273.864 174.333 273.864 173C273.864 171.667 274.178 170.62 274.804 169.86C275.431 169.087 276.304 168.7 277.424 168.7C278.544 168.7 279.418 169.087 280.044 169.86C280.671 170.62 280.984 171.667 280.984 173C280.984 174.333 280.671 175.387 280.044 176.16C279.418 176.933 278.544 177.32 277.424 177.32ZM277.424 175.64C277.904 175.64 278.278 175.427 278.544 175C278.811 174.56 278.944 173.893 278.944 173C278.944 172.107 278.811 171.447 278.544 171.02C278.278 170.593 277.904 170.38 277.424 170.38C276.944 170.38 276.571 170.593 276.304 171.02C276.038 171.433 275.904 172.093 275.904 173C275.904 173.907 276.038 174.573 276.304 175C276.571 175.427 276.944 175.64 277.424 175.64ZM287.464 183.2C286.344 183.2 285.471 182.813 284.844 182.04C284.218 181.267 283.904 180.213 283.904 178.88C283.904 177.547 284.218 176.5 284.844 175.74C285.471 174.967 286.344 174.58 287.464 174.58C288.584 174.58 289.458 174.967 290.084 175.74C290.711 176.5 291.024 177.547 291.024 178.88C291.024 180.213 290.711 181.267 290.084 182.04C289.458 182.813 288.584 183.2 287.464 183.2ZM287.464 181.52C287.944 181.52 288.318 181.307 288.584 180.88C288.851 180.44 288.984 179.773 288.984 178.88C288.984 177.987 288.851 177.327 288.584 176.9C288.318 176.473 287.944 176.26 287.464 176.26C286.984 176.26 286.611 176.473 286.344 176.9C286.078 177.313 285.944 177.973 285.944 178.88C285.944 179.787 286.078 180.453 286.344 180.88C286.611 181.307 286.984 181.52 287.464 181.52Z" fill="white"/>
<path d="M23.66 50C23.2333 50 22.92 49.9067 22.72 49.72C22.5333 49.52 22.44 49.2333 22.44 48.86C22.44 48.6333 22.5 48.4133 22.62 48.2C22.74 47.9867 22.9133 47.76 23.14 47.52L27.16 43.24C27.7733 42.6 28.2133 42.02 28.48 41.5C28.7467 40.9667 28.88 40.4333 28.88 39.9C28.88 38.54 28.06 37.86 26.42 37.86C25.9667 37.86 25.5133 37.9267 25.06 38.06C24.6067 38.18 24.1467 38.3933 23.68 38.7C23.3867 38.9 23.1133 38.96 22.86 38.88C22.6067 38.8 22.4133 38.64 22.28 38.4C22.1467 38.1467 22.1 37.88 22.14 37.6C22.1933 37.32 22.3667 37.08 22.66 36.88C23.2333 36.4933 23.8733 36.2 24.58 36C25.3 35.8 26.02 35.7 26.74 35.7C28.2467 35.7 29.4 36.04 30.2 36.72C31.0133 37.4 31.42 38.3733 31.42 39.64C31.42 40.4933 31.2133 41.3133 30.8 42.1C30.4 42.8867 29.7667 43.7333 28.9 44.64L25.8 47.88H31.02C31.7533 47.88 32.12 48.2267 32.12 48.92C32.12 49.64 31.7533 50 31.02 50H23.66ZM39.5122 50.2C37.7655 50.2 36.4122 49.5867 35.4522 48.36C34.5055 47.1333 34.0322 45.4133 34.0322 43.2C34.0322 40.8133 34.5655 38.9667 35.6322 37.66C36.7122 36.3533 38.1989 35.7 40.0922 35.7C40.6789 35.7 41.2722 35.7933 41.8722 35.98C42.4855 36.1533 43.0589 36.42 43.5922 36.78C43.8589 36.9533 44.0122 37.18 44.0522 37.46C44.0922 37.7267 44.0522 37.9867 43.9322 38.24C43.8122 38.48 43.6255 38.6467 43.3722 38.74C43.1322 38.82 42.8522 38.7667 42.5322 38.58C42.0789 38.3133 41.6522 38.1267 41.2522 38.02C40.8522 37.9133 40.4522 37.86 40.0522 37.86C38.8922 37.86 38.0055 38.2667 37.3922 39.08C36.7789 39.8933 36.4722 41.1067 36.4722 42.72V43.3C36.7522 42.5667 37.2055 41.9933 37.8322 41.58C38.4589 41.1667 39.1789 40.96 39.9922 40.96C40.8055 40.96 41.5255 41.1533 42.1522 41.54C42.7789 41.9267 43.2722 42.46 43.6322 43.14C43.9922 43.82 44.1722 44.6 44.1722 45.48C44.1722 46.3867 43.9722 47.2 43.5722 47.92C43.1855 48.6267 42.6389 49.1867 41.9322 49.6C41.2389 50 40.4322 50.2 39.5122 50.2ZM39.3722 48.16C40.0922 48.16 40.6722 47.9267 41.1122 47.46C41.5655 46.98 41.7922 46.3533 41.7922 45.58C41.7922 44.8067 41.5655 44.18 41.1122 43.7C40.6722 43.22 40.0922 42.98 39.3722 42.98C38.6522 42.98 38.0655 43.22 37.6122 43.7C37.1722 44.18 36.9522 44.8067 36.9522 45.58C36.9522 46.3533 37.1722 46.98 37.6122 47.46C38.0655 47.9267 38.6522 48.16 39.3722 48.16ZM51.5644 49.84C51.391 50.1333 51.1777 50.3067 50.9244 50.36C50.6844 50.4133 50.451 50.3733 50.2244 50.24C50.011 50.12 49.8644 49.94 49.7844 49.7C49.7044 49.4467 49.751 49.1733 49.9244 48.88L57.3044 36.08C57.4777 35.7733 57.6844 35.6 57.9244 35.56C58.1777 35.5067 58.411 35.5467 58.6244 35.68C58.8377 35.8 58.9844 35.98 59.0644 36.22C59.1444 36.46 59.1044 36.7267 58.9444 37.02L51.5644 49.84ZM49.4244 44.32C48.3044 44.32 47.431 43.9333 46.8044 43.16C46.1777 42.3867 45.8644 41.3333 45.8644 40C45.8644 38.6667 46.1777 37.62 46.8044 36.86C47.431 36.0867 48.3044 35.7 49.4244 35.7C50.5444 35.7 51.4177 36.0867 52.0444 36.86C52.671 37.62 52.9844 38.6667 52.9844 40C52.9844 41.3333 52.671 42.3867 52.0444 43.16C51.4177 43.9333 50.5444 44.32 49.4244 44.32ZM49.4244 42.64C49.9044 42.64 50.2777 42.4267 50.5444 42C50.811 41.56 50.9444 40.8933 50.9444 40C50.9444 39.1067 50.811 38.4467 50.5444 38.02C50.2777 37.5933 49.9044 37.38 49.4244 37.38C48.9444 37.38 48.571 37.5933 48.3044 38.02C48.0377 38.4333 47.9044 39.0933 47.9044 40C47.9044 40.9067 48.0377 41.5733 48.3044 42C48.571 42.4267 48.9444 42.64 49.4244 42.64ZM59.4644 50.2C58.3444 50.2 57.471 49.8133 56.8444 49.04C56.2177 48.2667 55.9044 47.2133 55.9044 45.88C55.9044 44.5467 56.2177 43.5 56.8444 42.74C57.471 41.9667 58.3444 41.58 59.4644 41.58C60.5844 41.58 61.4577 41.9667 62.0844 42.74C62.711 43.5 63.0244 44.5467 63.0244 45.88C63.0244 47.2133 62.711 48.2667 62.0844 49.04C61.4577 49.8133 60.5844 50.2 59.4644 50.2ZM59.4644 48.52C59.9444 48.52 60.3177 48.3067 60.5844 47.88C60.851 47.44 60.9844 46.7733 60.9844 45.88C60.9844 44.9867 60.851 44.3267 60.5844 43.9C60.3177 43.4733 59.9444 43.26 59.4644 43.26C58.9844 43.26 58.611 43.4733 58.3444 43.9C58.0777 44.3133 57.9444 44.9733 57.9444 45.88C57.9444 46.7867 58.0777 47.4533 58.3444 47.88C58.611 48.3067 58.9844 48.52 59.4644 48.52Z" fill="white"/>
<path d="M244.12 163C243.68 163 243.347 162.887 243.12 162.66C242.907 162.42 242.813 162.113 242.84 161.74C242.88 161.367 243.047 160.98 243.34 160.58L250.38 151.04H243.92C243.16 151.04 242.78 150.68 242.78 149.96C242.78 149.253 243.16 148.9 243.92 148.9H252.2C252.64 148.9 252.967 149.02 253.18 149.26C253.407 149.487 253.507 149.787 253.48 150.16C253.453 150.52 253.287 150.907 252.98 151.32L245.94 160.86H252.7C253.46 160.86 253.84 161.213 253.84 161.92C253.84 162.64 253.46 163 252.7 163H244.12ZM256.649 163.16C255.823 163.16 255.409 162.733 255.409 161.88V154.32C255.409 153.48 255.816 153.06 256.629 153.06C257.443 153.06 257.849 153.48 257.849 154.32V154.74C258.183 154.18 258.629 153.753 259.189 153.46C259.763 153.167 260.403 153.02 261.109 153.02C263.416 153.02 264.569 154.36 264.569 157.04V161.88C264.569 162.733 264.156 163.16 263.329 163.16C262.489 163.16 262.069 162.733 262.069 161.88V157.16C262.069 156.4 261.923 155.847 261.629 155.5C261.349 155.153 260.909 154.98 260.309 154.98C259.576 154.98 258.989 155.213 258.549 155.68C258.123 156.133 257.909 156.74 257.909 157.5V161.88C257.909 162.733 257.489 163.16 256.649 163.16ZM270.329 163.2C269.622 163.2 268.989 163.067 268.429 162.8C267.882 162.52 267.449 162.147 267.129 161.68C266.822 161.213 266.669 160.687 266.669 160.1C266.669 159.38 266.855 158.813 267.229 158.4C267.602 157.973 268.209 157.667 269.049 157.48C269.889 157.293 271.015 157.2 272.429 157.2H273.129V156.78C273.129 156.113 272.982 155.633 272.689 155.34C272.395 155.047 271.902 154.9 271.209 154.9C270.822 154.9 270.402 154.947 269.949 155.04C269.509 155.133 269.042 155.293 268.549 155.52C268.229 155.667 267.962 155.687 267.749 155.58C267.535 155.46 267.389 155.28 267.309 155.04C267.242 154.787 267.255 154.533 267.349 154.28C267.455 154.027 267.662 153.84 267.969 153.72C268.582 153.467 269.169 153.287 269.729 153.18C270.302 153.073 270.822 153.02 271.289 153.02C272.715 153.02 273.775 153.353 274.469 154.02C275.162 154.673 275.509 155.693 275.509 157.08V161.88C275.509 162.733 275.122 163.16 274.349 163.16C273.562 163.16 273.169 162.733 273.169 161.88V161.44C272.942 161.987 272.582 162.42 272.089 162.74C271.595 163.047 271.009 163.2 270.329 163.2ZM270.849 161.48C271.502 161.48 272.042 161.253 272.469 160.8C272.909 160.347 273.129 159.773 273.129 159.08V158.64H272.449C271.195 158.64 270.322 158.74 269.829 158.94C269.349 159.127 269.109 159.473 269.109 159.98C269.109 160.42 269.262 160.78 269.569 161.06C269.875 161.34 270.302 161.48 270.849 161.48ZM279.326 163.16C278.499 163.16 278.086 162.733 278.086 161.88V154.32C278.086 153.48 278.493 153.06 279.306 153.06C280.119 153.06 280.526 153.48 280.526 154.32V154.72C280.819 154.187 281.226 153.773 281.746 153.48C282.266 153.173 282.866 153.02 283.546 153.02C285.013 153.02 285.973 153.66 286.426 154.94C286.733 154.34 287.173 153.873 287.746 153.54C288.319 153.193 288.973 153.02 289.706 153.02C291.906 153.02 293.006 154.36 293.006 157.04V161.88C293.006 162.733 292.586 163.16 291.746 163.16C290.919 163.16 290.506 162.733 290.506 161.88V157.14C290.506 156.393 290.379 155.847 290.126 155.5C289.886 155.153 289.473 154.98 288.886 154.98C288.233 154.98 287.719 155.213 287.346 155.68C286.973 156.133 286.786 156.767 286.786 157.58V161.88C286.786 162.733 286.373 163.16 285.546 163.16C284.706 163.16 284.286 162.733 284.286 161.88V157.14C284.286 156.393 284.159 155.847 283.906 155.5C283.666 155.153 283.259 154.98 282.686 154.98C282.033 154.98 281.519 155.213 281.146 155.68C280.773 156.133 280.586 156.767 280.586 157.58V161.88C280.586 162.733 280.166 163.16 279.326 163.16Z" fill="white"/>
</svg>
