
<svg width="329" height="296" viewBox="0 0 329 296" fill="none" xmlns="http://www.w3.org/2000/svg">
<path d="M234.372 253.8C234.745 253.8 235.045 253.92 235.272 254.16C235.499 254.387 235.612 254.693 235.612 255.08V266.92C235.612 267.293 235.505 267.587 235.292 267.8C235.079 268.013 234.799 268.12 234.452 268.12C234.105 268.12 233.832 268.013 233.632 267.8C233.432 267.587 233.332 267.293 233.332 266.92V258.68L229.932 265.12C229.772 265.413 229.599 265.633 229.412 265.78C229.225 265.913 229.005 265.98 228.752 265.98C228.499 265.98 228.279 265.913 228.092 265.78C227.905 265.647 227.732 265.427 227.572 265.12L224.152 258.78V266.92C224.152 267.28 224.045 267.573 223.832 267.8C223.632 268.013 223.359 268.12 223.012 268.12C222.665 268.12 222.392 268.013 222.192 267.8C221.992 267.587 221.892 267.293 221.892 266.92V255.08C221.892 254.693 221.999 254.387 222.212 254.16C222.439 253.92 222.739 253.8 223.112 253.8C223.632 253.8 224.039 254.087 224.332 254.66L228.772 263.12L233.192 254.66C233.485 254.087 233.879 253.8 234.372 253.8ZM246.268 270.34C246.375 270.313 246.442 270.3 246.468 270.3C246.615 270.3 246.728 270.36 246.808 270.48C246.902 270.6 246.948 270.74 246.948 270.9C246.948 271.18 246.835 271.373 246.608 271.48C246.142 271.76 245.588 271.9 244.948 271.9C244.228 271.9 243.635 271.693 243.168 271.28C242.715 270.88 242.488 270.367 242.488 269.74C242.488 269.127 242.715 268.6 243.168 268.16H243.048C241.462 268.16 240.208 267.707 239.288 266.8C238.368 265.893 237.908 264.653 237.908 263.08C237.908 262.08 238.108 261.193 238.508 260.42C238.908 259.647 239.468 259.047 240.188 258.62C240.922 258.193 241.748 257.98 242.668 257.98C243.548 257.98 244.315 258.173 244.968 258.56C245.622 258.947 246.128 259.493 246.488 260.2C246.848 260.907 247.028 261.74 247.028 262.7C247.028 263.273 246.775 263.56 246.268 263.56H240.368C240.448 264.48 240.708 265.16 241.148 265.6C241.588 266.027 242.228 266.24 243.068 266.24C243.495 266.24 243.868 266.187 244.188 266.08C244.522 265.973 244.895 265.827 245.308 265.64C245.708 265.427 246.002 265.32 246.188 265.32C246.415 265.32 246.595 265.407 246.728 265.58C246.875 265.753 246.948 265.987 246.948 266.28C246.948 266.507 246.875 266.707 246.728 266.88C246.595 267.053 246.382 267.22 246.088 267.38C245.368 267.767 244.868 268.107 244.588 268.4C244.308 268.693 244.168 269.02 244.168 269.38C244.168 269.74 244.268 270.02 244.468 270.22C244.682 270.42 244.962 270.52 245.308 270.52C245.628 270.52 245.948 270.46 246.268 270.34ZM242.728 259.74C242.048 259.74 241.502 259.953 241.088 260.38C240.688 260.807 240.448 261.42 240.368 262.22H244.888C244.862 261.407 244.662 260.793 244.288 260.38C243.915 259.953 243.395 259.74 242.728 259.74ZM256.158 266.12C256.905 266.12 257.278 266.433 257.278 267.06C257.278 267.353 257.185 267.587 256.998 267.76C256.811 267.92 256.531 268 256.158 268H249.478C249.145 268 248.871 267.893 248.658 267.68C248.445 267.467 248.338 267.213 248.338 266.92C248.338 266.613 248.458 266.32 248.698 266.04L253.838 260.1H249.378C249.005 260.1 248.725 260.02 248.538 259.86C248.351 259.7 248.258 259.467 248.258 259.16C248.258 258.853 248.351 258.62 248.538 258.46C248.725 258.3 249.005 258.22 249.378 258.22H255.838C256.185 258.22 256.458 258.327 256.658 258.54C256.871 258.74 256.978 258.993 256.978 259.3C256.978 259.62 256.865 259.913 256.638 260.18L251.478 266.12H256.158ZM252.818 256.24C252.365 256.24 252.005 256.12 251.738 255.88C251.471 255.627 251.338 255.3 251.338 254.9C251.338 254.5 251.471 254.18 251.738 253.94C252.005 253.7 252.365 253.58 252.818 253.58C253.258 253.58 253.611 253.7 253.878 253.94C254.158 254.18 254.298 254.5 254.298 254.9C254.298 255.3 254.165 255.627 253.898 255.88C253.631 256.12 253.271 256.24 252.818 256.24ZM263.16 268.16C262.186 268.16 261.326 267.953 260.58 267.54C259.846 267.127 259.28 266.54 258.88 265.78C258.48 265.02 258.28 264.133 258.28 263.12C258.28 262.107 258.486 261.213 258.9 260.44C259.326 259.653 259.92 259.047 260.68 258.62C261.44 258.193 262.313 257.98 263.3 257.98C263.82 257.98 264.34 258.053 264.86 258.2C265.393 258.347 265.86 258.547 266.26 258.8C266.686 259.08 266.9 259.433 266.9 259.86C266.9 260.153 266.826 260.393 266.68 260.58C266.546 260.753 266.366 260.84 266.14 260.84C265.993 260.84 265.84 260.807 265.68 260.74C265.52 260.673 265.36 260.593 265.2 260.5C264.906 260.327 264.626 260.193 264.36 260.1C264.093 259.993 263.786 259.94 263.44 259.94C262.613 259.94 261.973 260.213 261.52 260.76C261.08 261.293 260.86 262.067 260.86 263.08C260.86 264.08 261.08 264.853 261.52 265.4C261.973 265.933 262.613 266.2 263.44 266.2C263.773 266.2 264.066 266.153 264.32 266.06C264.586 265.953 264.88 265.813 265.2 265.64C265.4 265.52 265.573 265.433 265.72 265.38C265.866 265.313 266.013 265.28 266.16 265.28C266.373 265.28 266.553 265.373 266.7 265.56C266.846 265.747 266.92 265.98 266.92 266.26C266.92 266.487 266.866 266.687 266.76 266.86C266.666 267.02 266.506 267.167 266.28 267.3C265.866 267.567 265.386 267.78 264.84 267.94C264.293 268.087 263.733 268.16 263.16 268.16ZM275.865 266.12C276.612 266.12 276.985 266.433 276.985 267.06C276.985 267.353 276.892 267.587 276.705 267.76C276.518 267.92 276.238 268 275.865 268H269.185C268.852 268 268.578 267.893 268.365 267.68C268.152 267.467 268.045 267.213 268.045 266.92C268.045 266.613 268.165 266.32 268.405 266.04L273.545 260.1H269.085C268.712 260.1 268.432 260.02 268.245 259.86C268.058 259.7 267.965 259.467 267.965 259.16C267.965 258.853 268.058 258.62 268.245 258.46C268.432 258.3 268.712 258.22 269.085 258.22H275.545C275.892 258.22 276.165 258.327 276.365 258.54C276.578 258.74 276.685 258.993 276.685 259.3C276.685 259.62 276.572 259.913 276.345 260.18L271.185 266.12H275.865ZM285.444 258.74C285.551 258.5 285.691 258.327 285.864 258.22C286.051 258.1 286.251 258.04 286.464 258.04C286.771 258.04 287.044 258.147 287.284 258.36C287.538 258.56 287.664 258.813 287.664 259.12C287.664 259.267 287.624 259.42 287.544 259.58L282.084 271.02C281.858 271.473 281.504 271.7 281.024 271.7C280.718 271.7 280.444 271.6 280.204 271.4C279.978 271.213 279.864 270.973 279.864 270.68C279.864 270.533 279.904 270.367 279.984 270.18L281.344 267.32L277.624 259.58C277.558 259.447 277.524 259.293 277.524 259.12C277.524 258.813 277.651 258.553 277.904 258.34C278.171 258.127 278.471 258.02 278.804 258.02C279.031 258.02 279.238 258.08 279.424 258.2C279.611 258.307 279.758 258.48 279.864 258.72L282.664 264.9L285.444 258.74ZM296.275 266.12C297.022 266.12 297.395 266.433 297.395 267.06C297.395 267.353 297.302 267.587 297.115 267.76C296.929 267.92 296.649 268 296.275 268H289.595C289.262 268 288.989 267.893 288.775 267.68C288.562 267.467 288.455 267.213 288.455 266.92C288.455 266.613 288.575 266.32 288.815 266.04L293.955 260.1H289.495C289.122 260.1 288.842 260.02 288.655 259.86C288.469 259.7 288.375 259.467 288.375 259.16C288.375 258.853 288.469 258.62 288.655 258.46C288.842 258.3 289.122 258.22 289.495 258.22H295.955C296.302 258.22 296.575 258.327 296.775 258.54C296.989 258.74 297.095 258.993 297.095 259.3C297.095 259.62 296.982 259.913 296.755 260.18L291.595 266.12H296.275ZM293.435 256.88C293.289 256.987 293.142 257.04 292.995 257.04C292.809 257.04 292.649 256.98 292.515 256.86C292.395 256.727 292.335 256.573 292.335 256.4C292.335 256.253 292.389 256.107 292.495 255.96L294.435 253.38C294.742 252.98 295.095 252.78 295.495 252.78C295.789 252.78 296.035 252.887 296.235 253.1C296.449 253.3 296.555 253.54 296.555 253.82C296.555 254.193 296.375 254.513 296.015 254.78L293.435 256.88ZM304.871 257.98C306.044 257.98 306.917 258.313 307.491 258.98C308.064 259.647 308.351 260.653 308.351 262V266.92C308.351 267.293 308.237 267.587 308.011 267.8C307.797 268.013 307.497 268.12 307.111 268.12C306.724 268.12 306.417 268.013 306.191 267.8C305.964 267.587 305.851 267.293 305.851 266.92V262.14C305.851 261.38 305.704 260.827 305.411 260.48C305.131 260.133 304.684 259.96 304.071 259.96C303.351 259.96 302.771 260.187 302.331 260.64C301.904 261.093 301.691 261.7 301.691 262.46V266.92C301.691 267.293 301.577 267.587 301.351 267.8C301.124 268.013 300.817 268.12 300.431 268.12C300.044 268.12 299.737 268.013 299.511 267.8C299.297 267.587 299.191 267.293 299.191 266.92V259.18C299.191 258.833 299.304 258.553 299.531 258.34C299.757 258.127 300.064 258.02 300.451 258.02C300.797 258.02 301.077 258.127 301.291 258.34C301.517 258.54 301.631 258.807 301.631 259.14V259.68C301.964 259.133 302.411 258.713 302.971 258.42C303.531 258.127 304.164 257.98 304.871 257.98ZM312.13 268.12C311.77 268.12 311.47 268.02 311.23 267.82C311.003 267.607 310.89 267.307 310.89 266.92V259.2C310.89 258.813 311.003 258.52 311.23 258.32C311.47 258.12 311.77 258.02 312.13 258.02C312.49 258.02 312.79 258.12 313.03 258.32C313.27 258.52 313.39 258.813 313.39 259.2V266.92C313.39 267.307 313.27 267.607 313.03 267.82C312.79 268.02 312.49 268.12 312.13 268.12ZM312.13 256.24C311.677 256.24 311.317 256.12 311.05 255.88C310.783 255.627 310.65 255.3 310.65 254.9C310.65 254.5 310.783 254.18 311.05 253.94C311.317 253.7 311.677 253.58 312.13 253.58C312.57 253.58 312.923 253.7 313.19 253.94C313.47 254.18 313.61 254.5 313.61 254.9C313.61 255.3 313.477 255.627 313.21 255.88C312.943 256.12 312.583 256.24 312.13 256.24ZM252.795 285.98C253.675 285.98 254.448 286.173 255.115 286.56C255.795 286.933 256.321 287.46 256.695 288.14C257.068 288.82 257.255 289.6 257.255 290.48C257.255 291.4 257.041 292.213 256.615 292.92C256.201 293.627 255.608 294.18 254.835 294.58C254.075 294.967 253.195 295.16 252.195 295.16C251.368 295.16 250.555 295.027 249.755 294.76C248.968 294.48 248.295 294.107 247.735 293.64C247.428 293.373 247.275 293.06 247.275 292.7C247.275 292.407 247.355 292.16 247.515 291.96C247.688 291.747 247.888 291.64 248.115 291.64C248.248 291.64 248.375 291.667 248.495 291.72C248.615 291.76 248.755 291.833 248.915 291.94C249.448 292.313 249.968 292.6 250.475 292.8C250.981 293 251.521 293.1 252.095 293.1C252.975 293.1 253.648 292.88 254.115 292.44C254.581 292 254.815 291.373 254.815 290.56C254.815 289.773 254.575 289.153 254.095 288.7C253.628 288.233 252.981 288 252.155 288C251.635 288 251.168 288.073 250.755 288.22C250.355 288.367 249.941 288.613 249.515 288.96C249.261 289.133 249.001 289.22 248.735 289.22C248.468 289.22 248.241 289.14 248.055 288.98C247.868 288.82 247.775 288.607 247.775 288.34V282.1C247.775 281.727 247.881 281.433 248.095 281.22C248.308 281.007 248.608 280.9 248.995 280.9H255.655C256.455 280.9 256.855 281.233 256.855 281.9C256.855 282.567 256.455 282.9 255.655 282.9H250.295V286.7C250.975 286.22 251.808 285.98 252.795 285.98ZM266.207 287.76C267.047 287.973 267.687 288.38 268.127 288.98C268.58 289.567 268.807 290.3 268.807 291.18C268.807 292.393 268.36 293.36 267.467 294.08C266.574 294.8 265.367 295.16 263.847 295.16C262.98 295.16 262.147 295.027 261.347 294.76C260.547 294.493 259.867 294.12 259.307 293.64C259 293.373 258.847 293.06 258.847 292.7C258.847 292.407 258.927 292.16 259.087 291.96C259.26 291.747 259.46 291.64 259.687 291.64C259.82 291.64 259.94 291.667 260.047 291.72C260.154 291.76 260.3 291.833 260.487 291.94C261.047 292.313 261.58 292.6 262.087 292.8C262.594 293 263.147 293.1 263.747 293.1C264.627 293.1 265.28 292.927 265.707 292.58C266.134 292.22 266.347 291.68 266.347 290.96C266.347 290.253 266.12 289.733 265.667 289.4C265.227 289.053 264.54 288.88 263.607 288.88H262.467C262.16 288.88 261.92 288.78 261.747 288.58C261.587 288.367 261.507 288.127 261.507 287.86C261.507 287.58 261.587 287.34 261.747 287.14C261.92 286.94 262.16 286.84 262.467 286.84H263.267C265.094 286.84 266.007 286.153 266.007 284.78C266.007 284.14 265.814 283.647 265.427 283.3C265.04 282.953 264.507 282.78 263.827 282.78C262.854 282.78 261.814 283.167 260.707 283.94C260.52 284.047 260.374 284.127 260.267 284.18C260.16 284.22 260.04 284.24 259.907 284.24C259.68 284.24 259.48 284.14 259.307 283.94C259.147 283.727 259.067 283.473 259.067 283.18C259.067 282.98 259.1 282.813 259.167 282.68C259.247 282.533 259.367 282.387 259.527 282.24C260.087 281.773 260.754 281.407 261.527 281.14C262.314 280.86 263.114 280.72 263.927 280.72C265.314 280.72 266.414 281.06 267.227 281.74C268.054 282.42 268.467 283.327 268.467 284.46C268.454 285.233 268.247 285.913 267.847 286.5C267.46 287.073 266.914 287.493 266.207 287.76ZM276.679 294.72C276.559 294.933 276.412 295.093 276.239 295.2C276.066 295.307 275.892 295.36 275.719 295.36C275.479 295.36 275.266 295.273 275.079 295.1C274.906 294.927 274.819 294.707 274.819 294.44C274.819 294.213 274.886 293.987 275.019 293.76L282.299 281.18C282.419 280.967 282.566 280.807 282.739 280.7C282.912 280.593 283.086 280.54 283.259 280.54C283.499 280.54 283.706 280.627 283.879 280.8C284.066 280.973 284.159 281.193 284.159 281.46C284.159 281.687 284.092 281.913 283.959 282.14L276.679 294.72ZM274.459 289.32C273.339 289.32 272.466 288.953 271.839 288.22C271.212 287.487 270.899 286.413 270.899 285C270.899 283.6 271.212 282.533 271.839 281.8C272.466 281.067 273.339 280.7 274.459 280.7C275.579 280.7 276.452 281.067 277.079 281.8C277.719 282.533 278.039 283.6 278.039 285C278.039 286.413 277.719 287.487 277.079 288.22C276.452 288.953 275.579 289.32 274.459 289.32ZM274.459 287.7C274.966 287.7 275.332 287.493 275.559 287.08C275.799 286.653 275.919 285.96 275.919 285C275.919 284.067 275.799 283.387 275.559 282.96C275.319 282.533 274.952 282.32 274.459 282.32C273.966 282.32 273.599 282.533 273.359 282.96C273.132 283.373 273.019 284.053 273.019 285C273.019 285.96 273.132 286.653 273.359 287.08C273.599 287.493 273.966 287.7 274.459 287.7ZM284.519 295.14C283.399 295.14 282.526 294.773 281.899 294.04C281.272 293.307 280.959 292.227 280.959 290.8C280.959 289.4 281.272 288.34 281.899 287.62C282.539 286.887 283.412 286.52 284.519 286.52C285.639 286.52 286.512 286.887 287.139 287.62C287.766 288.353 288.079 289.42 288.079 290.82C288.079 292.233 287.766 293.307 287.139 294.04C286.512 294.773 285.639 295.14 284.519 295.14ZM284.519 293.52C285.012 293.52 285.379 293.313 285.619 292.9C285.859 292.473 285.979 291.78 285.979 290.82C285.979 289.887 285.859 289.207 285.619 288.78C285.379 288.353 285.012 288.14 284.519 288.14C284.026 288.14 283.659 288.353 283.419 288.78C283.179 289.207 283.059 289.887 283.059 290.82C283.059 291.78 283.179 292.473 283.419 292.9C283.659 293.313 284.026 293.52 284.519 293.52Z" fill="white"/>
<path d="M28.333 125.06C28.5997 125.313 28.733 125.6 28.733 125.92C28.733 126.227 28.613 126.5 28.373 126.74C28.1464 126.967 27.873 127.08 27.553 127.08C27.2197 127.08 26.913 126.94 26.633 126.66L19.973 120.42V125.82C19.973 126.207 19.853 126.52 19.613 126.76C19.3864 127 19.073 127.12 18.673 127.12C18.2864 127.12 17.973 127 17.733 126.76C17.5064 126.52 17.393 126.207 17.393 125.82V114.08C17.393 113.693 17.5064 113.387 17.733 113.16C17.973 112.92 18.2864 112.8 18.673 112.8C19.073 112.8 19.3864 112.92 19.613 113.16C19.853 113.387 19.973 113.693 19.973 114.08V119.22L26.413 113.18C26.653 112.94 26.9264 112.82 27.233 112.82C27.5397 112.82 27.8064 112.94 28.033 113.18C28.273 113.407 28.393 113.673 28.393 113.98C28.393 114.287 28.2597 114.567 27.993 114.82L22.613 119.74L28.333 125.06ZM34.7385 127.16C33.7385 127.16 32.8585 126.953 32.0985 126.54C31.3518 126.127 30.7718 125.533 30.3585 124.76C29.9452 123.987 29.7385 123.087 29.7385 122.06C29.7385 121.033 29.9452 120.14 30.3585 119.38C30.7718 118.607 31.3518 118.013 32.0985 117.6C32.8585 117.187 33.7385 116.98 34.7385 116.98C35.7385 116.98 36.6118 117.187 37.3585 117.6C38.1185 118.013 38.6985 118.607 39.0985 119.38C39.5118 120.14 39.7185 121.033 39.7185 122.06C39.7185 123.087 39.5118 123.987 39.0985 124.76C38.6985 125.533 38.1185 126.127 37.3585 126.54C36.6118 126.953 35.7385 127.16 34.7385 127.16ZM34.7185 125.22C35.5318 125.22 36.1518 124.953 36.5785 124.42C37.0052 123.887 37.2185 123.1 37.2185 122.06C37.2185 121.033 37.0052 120.253 36.5785 119.72C36.1518 119.173 35.5385 118.9 34.7385 118.9C33.9385 118.9 33.3185 119.173 32.8785 119.72C32.4518 120.253 32.2385 121.033 32.2385 122.06C32.2385 123.1 32.4518 123.887 32.8785 124.42C33.3052 124.953 33.9185 125.22 34.7185 125.22ZM47.4024 116.98C48.2558 116.98 49.0091 117.187 49.6624 117.6C50.3158 118.013 50.8224 118.6 51.1824 119.36C51.5558 120.12 51.7424 121.007 51.7424 122.02C51.7424 123.033 51.5558 123.933 51.1824 124.72C50.8224 125.493 50.3091 126.093 49.6424 126.52C48.9891 126.947 48.2424 127.16 47.4024 127.16C46.6958 127.16 46.0624 127.007 45.5024 126.7C44.9558 126.393 44.5358 125.967 44.2424 125.42V125.92C44.2424 126.28 44.1291 126.567 43.9024 126.78C43.6758 126.993 43.3758 127.1 43.0024 127.1C42.6291 127.1 42.3291 126.993 42.1024 126.78C41.8891 126.567 41.7824 126.28 41.7824 125.92V113.96C41.7824 113.613 41.8958 113.333 42.1224 113.12C42.3624 112.907 42.6691 112.8 43.0424 112.8C43.4158 112.8 43.7158 112.9 43.9424 113.1C44.1691 113.3 44.2824 113.573 44.2824 113.92V118.64C44.5758 118.107 44.9958 117.7 45.5424 117.42C46.0891 117.127 46.7091 116.98 47.4024 116.98ZM46.7424 125.22C47.5291 125.22 48.1424 124.94 48.5824 124.38C49.0224 123.82 49.2424 123.033 49.2424 122.02C49.2424 121.02 49.0224 120.253 48.5824 119.72C48.1558 119.187 47.5424 118.92 46.7424 118.92C45.9424 118.92 45.3224 119.193 44.8824 119.74C44.4558 120.273 44.2424 121.047 44.2424 122.06C44.2424 123.073 44.4558 123.853 44.8824 124.4C45.3224 124.947 45.9424 125.22 46.7424 125.22ZM55.0341 127.12C54.6741 127.12 54.3741 127.02 54.1341 126.82C53.9075 126.607 53.7941 126.307 53.7941 125.92V118.2C53.7941 117.813 53.9075 117.52 54.1341 117.32C54.3741 117.12 54.6741 117.02 55.0341 117.02C55.3941 117.02 55.6941 117.12 55.9341 117.32C56.1741 117.52 56.2941 117.813 56.2941 118.2V125.92C56.2941 126.307 56.1741 126.607 55.9341 126.82C55.6941 127.02 55.3941 127.12 55.0341 127.12ZM55.0341 115.24C54.5808 115.24 54.2208 115.12 53.9541 114.88C53.6875 114.627 53.5541 114.3 53.5541 113.9C53.5541 113.5 53.6875 113.18 53.9541 112.94C54.2208 112.7 54.5808 112.58 55.0341 112.58C55.4741 112.58 55.8275 112.7 56.0941 112.94C56.3741 113.18 56.5141 113.5 56.5141 113.9C56.5141 114.3 56.3808 114.627 56.1141 114.88C55.8475 115.12 55.4875 115.24 55.0341 115.24ZM66.6123 124.32C66.8389 124.32 67.0189 124.407 67.1523 124.58C67.2989 124.753 67.3723 124.987 67.3723 125.28C67.3723 125.693 67.1256 126.04 66.6323 126.32C66.1789 126.573 65.6656 126.78 65.0923 126.94C64.5189 127.087 63.9723 127.16 63.4523 127.16C61.8789 127.16 60.6323 126.707 59.7123 125.8C58.7923 124.893 58.3323 123.653 58.3323 122.08C58.3323 121.08 58.5323 120.193 58.9323 119.42C59.3323 118.647 59.8923 118.047 60.6123 117.62C61.3456 117.193 62.1723 116.98 63.0923 116.98C63.9723 116.98 64.7389 117.173 65.3923 117.56C66.0456 117.947 66.5523 118.493 66.9123 119.2C67.2723 119.907 67.4523 120.74 67.4523 121.7C67.4523 122.273 67.1989 122.56 66.6923 122.56H60.7923C60.8723 123.48 61.1323 124.16 61.5723 124.6C62.0123 125.027 62.6523 125.24 63.4923 125.24C63.9189 125.24 64.2923 125.187 64.6123 125.08C64.9456 124.973 65.3189 124.827 65.7323 124.64C66.1323 124.427 66.4256 124.32 66.6123 124.32ZM63.1523 118.74C62.4723 118.74 61.9256 118.953 61.5123 119.38C61.1123 119.807 60.8723 120.42 60.7923 121.22H65.3123C65.2856 120.407 65.0856 119.793 64.7123 119.38C64.3389 118.953 63.8189 118.74 63.1523 118.74ZM74.4405 125.26C75.1072 125.3 75.4405 125.6 75.4405 126.16C75.4405 126.48 75.3072 126.727 75.0405 126.9C74.7872 127.06 74.4205 127.127 73.9405 127.1L73.4005 127.06C71.1605 126.9 70.0405 125.7 70.0405 123.46V119.1H69.0405C68.6805 119.1 68.4005 119.02 68.2005 118.86C68.0139 118.7 67.9205 118.467 67.9205 118.16C67.9205 117.853 68.0139 117.62 68.2005 117.46C68.4005 117.3 68.6805 117.22 69.0405 117.22H70.0405V115.38C70.0405 115.02 70.1539 114.733 70.3805 114.52C70.6072 114.307 70.9139 114.2 71.3005 114.2C71.6739 114.2 71.9739 114.307 72.2005 114.52C72.4272 114.733 72.5405 115.02 72.5405 115.38V117.22H74.2405C74.6005 117.22 74.8739 117.3 75.0605 117.46C75.2605 117.62 75.3605 117.853 75.3605 118.16C75.3605 118.467 75.2605 118.7 75.0605 118.86C74.8739 119.02 74.6005 119.1 74.2405 119.1H72.5405V123.64C72.5405 124.627 72.9939 125.153 73.9005 125.22L74.4405 125.26ZM83.7196 117.74C83.8263 117.5 83.9663 117.327 84.1396 117.22C84.3263 117.1 84.5263 117.04 84.7396 117.04C85.0463 117.04 85.3196 117.147 85.5596 117.36C85.8129 117.56 85.9396 117.813 85.9396 118.12C85.9396 118.267 85.8996 118.42 85.8196 118.58L80.3596 130.02C80.1329 130.473 79.7796 130.7 79.2996 130.7C78.9929 130.7 78.7196 130.6 78.4796 130.4C78.2529 130.213 78.1396 129.973 78.1396 129.68C78.1396 129.533 78.1796 129.367 78.2596 129.18L79.6196 126.32L75.8996 118.58C75.8329 118.447 75.7996 118.293 75.7996 118.12C75.7996 117.813 75.9263 117.553 76.1796 117.34C76.4463 117.127 76.7463 117.02 77.0796 117.02C77.3063 117.02 77.5129 117.08 77.6996 117.2C77.8863 117.307 78.0329 117.48 78.1396 117.72L80.9396 123.9L83.7196 117.74ZM37.7147 146.76C38.5547 146.973 39.1947 147.38 39.6347 147.98C40.088 148.567 40.3147 149.3 40.3147 150.18C40.3147 151.393 39.868 152.36 38.9747 153.08C38.0814 153.8 36.8747 154.16 35.3547 154.16C34.488 154.16 33.6547 154.027 32.8547 153.76C32.0547 153.493 31.3747 153.12 30.8147 152.64C30.508 152.373 30.3547 152.06 30.3547 151.7C30.3547 151.407 30.4347 151.16 30.5947 150.96C30.768 150.747 30.968 150.64 31.1947 150.64C31.328 150.64 31.448 150.667 31.5547 150.72C31.6614 150.76 31.808 150.833 31.9947 150.94C32.5547 151.313 33.088 151.6 33.5947 151.8C34.1014 152 34.6547 152.1 35.2547 152.1C36.1347 152.1 36.788 151.927 37.2147 151.58C37.6414 151.22 37.8547 150.68 37.8547 149.96C37.8547 149.253 37.628 148.733 37.1747 148.4C36.7347 148.053 36.048 147.88 35.1147 147.88H33.9747C33.668 147.88 33.428 147.78 33.2547 147.58C33.0947 147.367 33.0147 147.127 33.0147 146.86C33.0147 146.58 33.0947 146.34 33.2547 146.14C33.428 145.94 33.668 145.84 33.9747 145.84H34.7747C36.6014 145.84 37.5147 145.153 37.5147 143.78C37.5147 143.14 37.3214 142.647 36.9347 142.3C36.548 141.953 36.0147 141.78 35.3347 141.78C34.3614 141.78 33.3214 142.167 32.2147 142.94C32.028 143.047 31.8814 143.127 31.7747 143.18C31.668 143.22 31.548 143.24 31.4147 143.24C31.188 143.24 30.988 143.14 30.8147 142.94C30.6547 142.727 30.5747 142.473 30.5747 142.18C30.5747 141.98 30.608 141.813 30.6747 141.68C30.7547 141.533 30.8747 141.387 31.0347 141.24C31.5947 140.773 32.2614 140.407 33.0347 140.14C33.8214 139.86 34.6214 139.72 35.4347 139.72C36.8214 139.72 37.9214 140.06 38.7347 140.74C39.5614 141.42 39.9747 142.327 39.9747 143.46C39.9614 144.233 39.7547 144.913 39.3547 145.5C38.968 146.073 38.4214 146.493 37.7147 146.76ZM51.6069 139.9C51.9535 139.9 52.2202 140 52.4069 140.2C52.5935 140.387 52.6869 140.633 52.6869 140.94C52.6869 141.247 52.5935 141.567 52.4069 141.9L46.0269 153.48C45.7602 153.933 45.3935 154.16 44.9269 154.16C44.6069 154.16 44.3202 154.053 44.0669 153.84C43.8269 153.613 43.7069 153.34 43.7069 153.02C43.7069 152.793 43.7735 152.567 43.9069 152.34L49.6469 141.98H43.6069C42.8069 141.98 42.4069 141.64 42.4069 140.96C42.4069 140.253 42.8069 139.9 43.6069 139.9H51.6069ZM60.1791 153.72C60.0591 153.933 59.9124 154.093 59.7391 154.2C59.5657 154.307 59.3924 154.36 59.2191 154.36C58.9791 154.36 58.7657 154.273 58.5791 154.1C58.4057 153.927 58.3191 153.707 58.3191 153.44C58.3191 153.213 58.3857 152.987 58.5191 152.76L65.7991 140.18C65.9191 139.967 66.0657 139.807 66.2391 139.7C66.4124 139.593 66.5857 139.54 66.7591 139.54C66.9991 139.54 67.2057 139.627 67.3791 139.8C67.5657 139.973 67.6591 140.193 67.6591 140.46C67.6591 140.687 67.5924 140.913 67.4591 141.14L60.1791 153.72ZM57.9591 148.32C56.8391 148.32 55.9657 147.953 55.3391 147.22C54.7124 146.487 54.3991 145.413 54.3991 144C54.3991 142.6 54.7124 141.533 55.3391 140.8C55.9657 140.067 56.8391 139.7 57.9591 139.7C59.0791 139.7 59.9524 140.067 60.5791 140.8C61.2191 141.533 61.5391 142.6 61.5391 144C61.5391 145.413 61.2191 146.487 60.5791 147.22C59.9524 147.953 59.0791 148.32 57.9591 148.32ZM57.9591 146.7C58.4657 146.7 58.8324 146.493 59.0591 146.08C59.2991 145.653 59.4191 144.96 59.4191 144C59.4191 143.067 59.2991 142.387 59.0591 141.96C58.8191 141.533 58.4524 141.32 57.9591 141.32C57.4657 141.32 57.0991 141.533 56.8591 141.96C56.6324 142.373 56.5191 143.053 56.5191 144C56.5191 144.96 56.6324 145.653 56.8591 146.08C57.0991 146.493 57.4657 146.7 57.9591 146.7ZM68.0191 154.14C66.8991 154.14 66.0257 153.773 65.3991 153.04C64.7724 152.307 64.4591 151.227 64.4591 149.8C64.4591 148.4 64.7724 147.34 65.3991 146.62C66.0391 145.887 66.9124 145.52 68.0191 145.52C69.1391 145.52 70.0124 145.887 70.6391 146.62C71.2657 147.353 71.5791 148.42 71.5791 149.82C71.5791 151.233 71.2657 152.307 70.6391 153.04C70.0124 153.773 69.1391 154.14 68.0191 154.14ZM68.0191 152.52C68.5124 152.52 68.8791 152.313 69.1191 151.9C69.3591 151.473 69.4791 150.78 69.4791 149.82C69.4791 148.887 69.3591 148.207 69.1191 147.78C68.8791 147.353 68.5124 147.14 68.0191 147.14C67.5257 147.14 67.1591 147.353 66.9191 147.78C66.6791 148.207 66.5591 148.887 66.5591 149.82C66.5591 150.78 66.6791 151.473 66.9191 151.9C67.1591 152.313 67.5257 152.52 68.0191 152.52Z" fill="white"/>
<path d="M110.235 5.8C110.608 5.8 110.902 5.92 111.115 6.16C111.342 6.38667 111.455 6.69333 111.455 7.08V18.82C111.455 19.2067 111.342 19.52 111.115 19.76C110.888 20 110.595 20.12 110.235 20.12C109.808 20.12 109.482 19.9667 109.255 19.66L101.955 10.16V18.82C101.955 19.2067 101.848 19.52 101.635 19.76C101.422 20 101.128 20.12 100.755 20.12C100.382 20.12 100.088 20 99.8752 19.76C99.6618 19.52 99.5552 19.2067 99.5552 18.82V7.08C99.5552 6.69333 99.6685 6.38667 99.8952 6.16C100.122 5.92 100.422 5.8 100.795 5.8C101.208 5.8 101.528 5.95333 101.755 6.26L109.035 15.72V7.08C109.035 6.69333 109.142 6.38667 109.355 6.16C109.582 5.92 109.875 5.8 110.235 5.8ZM115.517 20.12C115.157 20.12 114.857 20.02 114.617 19.82C114.39 19.6067 114.277 19.3067 114.277 18.92V11.2C114.277 10.8133 114.39 10.52 114.617 10.32C114.857 10.12 115.157 10.02 115.517 10.02C115.877 10.02 116.177 10.12 116.417 10.32C116.657 10.52 116.777 10.8133 116.777 11.2V18.92C116.777 19.3067 116.657 19.6067 116.417 19.82C116.177 20.02 115.877 20.12 115.517 20.12ZM115.517 8.24C115.063 8.24 114.703 8.12 114.437 7.88C114.17 7.62667 114.037 7.3 114.037 6.9C114.037 6.5 114.17 6.18 114.437 5.94C114.703 5.7 115.063 5.58 115.517 5.58C115.957 5.58 116.31 5.7 116.577 5.94C116.857 6.18 116.997 6.5 116.997 6.9C116.997 7.3 116.863 7.62667 116.597 7.88C116.33 8.12 115.97 8.24 115.517 8.24ZM127.095 17.32C127.321 17.32 127.501 17.4067 127.635 17.58C127.781 17.7533 127.855 17.9867 127.855 18.28C127.855 18.6933 127.608 19.04 127.115 19.32C126.661 19.5733 126.148 19.78 125.575 19.94C125.001 20.0867 124.455 20.16 123.935 20.16C122.361 20.16 121.115 19.7067 120.195 18.8C119.275 17.8933 118.815 16.6533 118.815 15.08C118.815 14.08 119.015 13.1933 119.415 12.42C119.815 11.6467 120.375 11.0467 121.095 10.62C121.828 10.1933 122.655 9.98 123.575 9.98C124.455 9.98 125.221 10.1733 125.875 10.56C126.528 10.9467 127.035 11.4933 127.395 12.2C127.755 12.9067 127.935 13.74 127.935 14.7C127.935 15.2733 127.681 15.56 127.175 15.56H121.275C121.355 16.48 121.615 17.16 122.055 17.6C122.495 18.0267 123.135 18.24 123.975 18.24C124.401 18.24 124.775 18.1867 125.095 18.08C125.428 17.9733 125.801 17.8267 126.215 17.64C126.615 17.4267 126.908 17.32 127.095 17.32ZM123.635 11.74C122.955 11.74 122.408 11.9533 121.995 12.38C121.595 12.8067 121.355 13.42 121.275 14.22H125.795C125.768 13.4067 125.568 12.7933 125.195 12.38C124.821 11.9533 124.301 11.74 123.635 11.74ZM139.749 20.16C138.776 20.16 137.916 19.9533 137.169 19.54C136.436 19.1267 135.869 18.54 135.469 17.78C135.069 17.02 134.869 16.1333 134.869 15.12C134.869 14.1067 135.076 13.2133 135.489 12.44C135.916 11.6533 136.509 11.0467 137.269 10.62C138.029 10.1933 138.903 9.98 139.889 9.98C140.409 9.98 140.929 10.0533 141.449 10.2C141.983 10.3467 142.449 10.5467 142.849 10.8C143.276 11.08 143.489 11.4333 143.489 11.86C143.489 12.1533 143.416 12.3933 143.269 12.58C143.136 12.7533 142.956 12.84 142.729 12.84C142.583 12.84 142.429 12.8067 142.269 12.74C142.109 12.6733 141.949 12.5933 141.789 12.5C141.496 12.3267 141.216 12.1933 140.949 12.1C140.683 11.9933 140.376 11.94 140.029 11.94C139.203 11.94 138.563 12.2133 138.109 12.76C137.669 13.2933 137.449 14.0667 137.449 15.08C137.449 16.08 137.669 16.8533 138.109 17.4C138.563 17.9333 139.203 18.2 140.029 18.2C140.363 18.2 140.656 18.1533 140.909 18.06C141.176 17.9533 141.469 17.8133 141.789 17.64C141.989 17.52 142.163 17.4333 142.309 17.38C142.456 17.3133 142.603 17.28 142.749 17.28C142.963 17.28 143.143 17.3733 143.289 17.56C143.436 17.7467 143.509 17.98 143.509 18.26C143.509 18.4867 143.456 18.6867 143.349 18.86C143.256 19.02 143.096 19.1667 142.869 19.3C142.456 19.5667 141.976 19.78 141.429 19.94C140.883 20.0867 140.323 20.16 139.749 20.16ZM150.895 9.98C153.188 9.98 154.335 11.32 154.335 14V18.92C154.335 19.2933 154.222 19.5867 153.995 19.8C153.782 20.0133 153.482 20.12 153.095 20.12C152.708 20.12 152.402 20.0133 152.175 19.8C151.948 19.5867 151.835 19.2933 151.835 18.92V14C151.835 13.2933 151.688 12.78 151.395 12.46C151.115 12.1267 150.668 11.96 150.055 11.96C149.335 11.96 148.755 12.1867 148.315 12.64C147.888 13.0933 147.675 13.7 147.675 14.46V18.92C147.675 19.2933 147.562 19.5867 147.335 19.8C147.108 20.0133 146.802 20.12 146.415 20.12C146.028 20.12 145.722 20.0133 145.495 19.8C145.282 19.5867 145.175 19.2933 145.175 18.92V6.96C145.175 6.61333 145.288 6.33333 145.515 6.12C145.755 5.90667 146.062 5.8 146.435 5.8C146.808 5.8 147.108 5.9 147.335 6.1C147.562 6.3 147.675 6.57333 147.675 6.92V11.58C148.008 11.06 148.448 10.6667 148.995 10.4C149.555 10.12 150.188 9.98 150.895 9.98ZM161.214 20.16C160.241 20.16 159.381 19.9533 158.634 19.54C157.901 19.1267 157.334 18.54 156.934 17.78C156.534 17.02 156.334 16.1333 156.334 15.12C156.334 14.1067 156.541 13.2133 156.954 12.44C157.381 11.6533 157.974 11.0467 158.734 10.62C159.494 10.1933 160.368 9.98 161.354 9.98C161.874 9.98 162.394 10.0533 162.914 10.2C163.448 10.3467 163.914 10.5467 164.314 10.8C164.741 11.08 164.954 11.4333 164.954 11.86C164.954 12.1533 164.881 12.3933 164.734 12.58C164.601 12.7533 164.421 12.84 164.194 12.84C164.048 12.84 163.894 12.8067 163.734 12.74C163.574 12.6733 163.414 12.5933 163.254 12.5C162.961 12.3267 162.681 12.1933 162.414 12.1C162.148 11.9933 161.841 11.94 161.494 11.94C160.668 11.94 160.028 12.2133 159.574 12.76C159.134 13.2933 158.914 14.0667 158.914 15.08C158.914 16.08 159.134 16.8533 159.574 17.4C160.028 17.9333 160.668 18.2 161.494 18.2C161.828 18.2 162.121 18.1533 162.374 18.06C162.641 17.9533 162.934 17.8133 163.254 17.64C163.454 17.52 163.628 17.4333 163.774 17.38C163.921 17.3133 164.068 17.28 164.214 17.28C164.428 17.28 164.608 17.3733 164.754 17.56C164.901 17.7467 164.974 17.98 164.974 18.26C164.974 18.4867 164.921 18.6867 164.814 18.86C164.721 19.02 164.561 19.1667 164.334 19.3C163.921 19.5667 163.441 19.78 162.894 19.94C162.348 20.0867 161.788 20.16 161.214 20.16ZM174.46 22.34C174.567 22.3133 174.633 22.3 174.66 22.3C174.807 22.3 174.92 22.36 175 22.48C175.093 22.6 175.14 22.74 175.14 22.9C175.14 23.18 175.027 23.3733 174.8 23.48C174.333 23.76 173.78 23.9 173.14 23.9C172.42 23.9 171.827 23.6933 171.36 23.28C170.907 22.88 170.68 22.3667 170.68 21.74C170.68 21.1267 170.907 20.6 171.36 20.16H171.24C169.653 20.16 168.4 19.7067 167.48 18.8C166.56 17.8933 166.1 16.6533 166.1 15.08C166.1 14.08 166.3 13.1933 166.7 12.42C167.1 11.6467 167.66 11.0467 168.38 10.62C169.113 10.1933 169.94 9.98 170.86 9.98C171.74 9.98 172.507 10.1733 173.16 10.56C173.813 10.9467 174.32 11.4933 174.68 12.2C175.04 12.9067 175.22 13.74 175.22 14.7C175.22 15.2733 174.967 15.56 174.46 15.56H168.56C168.64 16.48 168.9 17.16 169.34 17.6C169.78 18.0267 170.42 18.24 171.26 18.24C171.687 18.24 172.06 18.1867 172.38 18.08C172.713 17.9733 173.087 17.8267 173.5 17.64C173.9 17.4267 174.193 17.32 174.38 17.32C174.607 17.32 174.787 17.4067 174.92 17.58C175.067 17.7533 175.14 17.9867 175.14 18.28C175.14 18.5067 175.067 18.7067 174.92 18.88C174.787 19.0533 174.573 19.22 174.28 19.38C173.56 19.7667 173.06 20.1067 172.78 20.4C172.5 20.6933 172.36 21.02 172.36 21.38C172.36 21.74 172.46 22.02 172.66 22.22C172.873 22.42 173.153 22.52 173.5 22.52C173.82 22.52 174.14 22.46 174.46 22.34ZM170.92 11.74C170.24 11.74 169.693 11.9533 169.28 12.38C168.88 12.8067 168.64 13.42 168.56 14.22H173.08C173.053 13.4067 172.853 12.7933 172.48 12.38C172.107 11.9533 171.587 11.74 170.92 11.74ZM99.2618 36.98C100.102 36.98 100.848 37.1933 101.502 37.62C102.168 38.0467 102.682 38.6533 103.042 39.44C103.415 40.2133 103.602 41.1067 103.602 42.12C103.602 43.1333 103.415 44.02 103.042 44.78C102.682 45.54 102.175 46.1267 101.522 46.54C100.868 46.9533 100.115 47.16 99.2618 47.16C98.5685 47.16 97.9485 47.0133 97.4018 46.72C96.8551 46.4267 96.4351 46.02 96.1418 45.5V49.58C96.1418 49.9267 96.0285 50.2 95.8018 50.4C95.5751 50.6 95.2751 50.7 94.9018 50.7C94.5285 50.7 94.2218 50.5933 93.9818 50.38C93.7551 50.1667 93.6418 49.8867 93.6418 49.54V38.2C93.6418 37.84 93.7485 37.5533 93.9618 37.34C94.1885 37.1267 94.4885 37.02 94.8618 37.02C95.2351 37.02 95.5351 37.1267 95.7618 37.34C95.9885 37.5533 96.1018 37.84 96.1018 38.2V38.7C96.3951 38.1533 96.8151 37.7333 97.3618 37.44C97.9218 37.1333 98.5551 36.98 99.2618 36.98ZM98.6018 45.22C99.3885 45.22 100.002 44.9533 100.442 44.42C100.882 43.8733 101.102 43.1067 101.102 42.12C101.102 41.1067 100.882 40.32 100.442 39.76C100.002 39.2 99.3885 38.92 98.6018 38.92C97.8018 38.92 97.1818 39.1933 96.7418 39.74C96.3151 40.2867 96.1018 41.0667 96.1018 42.08C96.1018 43.08 96.3151 43.8533 96.7418 44.4C97.1818 44.9467 97.8018 45.22 98.6018 45.22ZM110.114 47.16C109.114 47.16 108.234 46.9533 107.474 46.54C106.727 46.1267 106.147 45.5333 105.734 44.76C105.32 43.9867 105.114 43.0867 105.114 42.06C105.114 41.0333 105.32 40.14 105.734 39.38C106.147 38.6067 106.727 38.0133 107.474 37.6C108.234 37.1867 109.114 36.98 110.114 36.98C111.114 36.98 111.987 37.1867 112.734 37.6C113.494 38.0133 114.074 38.6067 114.474 39.38C114.887 40.14 115.094 41.0333 115.094 42.06C115.094 43.0867 114.887 43.9867 114.474 44.76C114.074 45.5333 113.494 46.1267 112.734 46.54C111.987 46.9533 111.114 47.16 110.114 47.16ZM110.094 45.22C110.907 45.22 111.527 44.9533 111.954 44.42C112.38 43.8867 112.594 43.1 112.594 42.06C112.594 41.0333 112.38 40.2533 111.954 39.72C111.527 39.1733 110.914 38.9 110.114 38.9C109.314 38.9 108.694 39.1733 108.254 39.72C107.827 40.2533 107.614 41.0333 107.614 42.06C107.614 43.1 107.827 43.8867 108.254 44.42C108.68 44.9533 109.294 45.22 110.094 45.22ZM125.317 32.8C125.691 32.8 125.997 32.9067 126.237 33.12C126.477 33.3333 126.597 33.6133 126.597 33.96V45.92C126.597 46.28 126.484 46.5667 126.257 46.78C126.031 46.9933 125.731 47.1 125.357 47.1C124.984 47.1 124.684 46.9933 124.457 46.78C124.231 46.5667 124.117 46.28 124.117 45.92V45.42C123.824 45.9667 123.397 46.3933 122.837 46.7C122.291 47.0067 121.664 47.16 120.957 47.16C120.117 47.16 119.364 46.9467 118.697 46.52C118.044 46.0933 117.531 45.4933 117.157 44.72C116.797 43.9333 116.617 43.0333 116.617 42.02C116.617 41.0067 116.797 40.12 117.157 39.36C117.531 38.6 118.044 38.0133 118.697 37.6C119.351 37.1867 120.104 36.98 120.957 36.98C121.664 36.98 122.291 37.1267 122.837 37.42C123.384 37.7133 123.804 38.1267 124.097 38.66V33.92C124.097 33.5867 124.204 33.32 124.417 33.12C124.644 32.9067 124.944 32.8 125.317 32.8ZM121.617 45.22C122.417 45.22 123.031 44.9467 123.457 44.4C123.897 43.8533 124.117 43.0733 124.117 42.06C124.117 41.0467 123.897 40.2733 123.457 39.74C123.031 39.1933 122.424 38.92 121.637 38.92C120.837 38.92 120.217 39.1867 119.777 39.72C119.337 40.2533 119.117 41.02 119.117 42.02C119.117 43.0333 119.337 43.82 119.777 44.38C120.217 44.94 120.831 45.22 121.617 45.22ZM133.409 36.98C134.769 36.98 135.776 37.32 136.429 38C137.096 38.6667 137.429 39.6867 137.429 41.06V45.94C137.429 46.3 137.322 46.5867 137.109 46.8C136.896 47 136.602 47.1 136.229 47.1C135.882 47.1 135.596 46.9933 135.369 46.78C135.156 46.5667 135.049 46.2867 135.049 45.94V45.5C134.822 46.02 134.462 46.4267 133.969 46.72C133.489 47.0133 132.929 47.16 132.289 47.16C131.636 47.16 131.042 47.0267 130.509 46.76C129.976 46.4933 129.556 46.1267 129.249 45.66C128.942 45.1933 128.789 44.6733 128.789 44.1C128.789 43.38 128.969 42.8133 129.329 42.4C129.702 41.9867 130.302 41.6867 131.129 41.5C131.956 41.3133 133.096 41.22 134.549 41.22H135.049V40.76C135.049 40.1067 134.909 39.6333 134.629 39.34C134.349 39.0333 133.896 38.88 133.269 38.88C132.882 38.88 132.489 38.94 132.089 39.06C131.689 39.1667 131.216 39.3267 130.669 39.54C130.322 39.7133 130.069 39.8 129.909 39.8C129.669 39.8 129.469 39.7133 129.309 39.54C129.162 39.3667 129.089 39.14 129.089 38.86C129.089 38.6333 129.142 38.44 129.249 38.28C129.369 38.1067 129.562 37.9467 129.829 37.8C130.296 37.5467 130.849 37.3467 131.489 37.2C132.142 37.0533 132.782 36.98 133.409 36.98ZM132.789 45.36C133.456 45.36 133.996 45.14 134.409 44.7C134.836 44.2467 135.049 43.6667 135.049 42.96V42.54H134.689C133.796 42.54 133.102 42.58 132.609 42.66C132.116 42.74 131.762 42.88 131.549 43.08C131.336 43.28 131.229 43.5533 131.229 43.9C131.229 44.3267 131.376 44.68 131.669 44.96C131.976 45.2267 132.349 45.36 132.789 45.36ZM153.19 37.76C153.283 37.52 153.417 37.34 153.59 37.22C153.777 37.1 153.977 37.04 154.19 37.04C154.497 37.04 154.77 37.1467 155.01 37.36C155.263 37.56 155.39 37.8133 155.39 38.12C155.39 38.2933 155.357 38.4467 155.29 38.58L151.99 46.32C151.883 46.5733 151.717 46.7667 151.49 46.9C151.277 47.0333 151.037 47.1 150.77 47.1C150.517 47.1 150.277 47.0333 150.05 46.9C149.837 46.7667 149.677 46.5733 149.57 46.32L147.19 40.6L144.89 46.32C144.783 46.5733 144.617 46.7667 144.39 46.9C144.177 47.0333 143.937 47.1 143.67 47.1C143.417 47.1 143.177 47.0333 142.95 46.9C142.723 46.7667 142.557 46.5733 142.45 46.32L139.17 38.58C139.103 38.4067 139.07 38.26 139.07 38.14C139.07 37.8333 139.203 37.5733 139.47 37.36C139.737 37.1333 140.03 37.02 140.35 37.02C140.577 37.02 140.783 37.08 140.97 37.2C141.157 37.32 141.297 37.5 141.39 37.74L143.75 43.84L146.17 37.8C146.277 37.5467 146.43 37.36 146.63 37.24C146.83 37.1067 147.05 37.04 147.29 37.04C147.53 37.04 147.75 37.1067 147.95 37.24C148.15 37.36 148.303 37.5467 148.41 37.8L150.85 43.86L153.19 37.76ZM161.202 36.98C162.562 36.98 163.569 37.32 164.222 38C164.889 38.6667 165.222 39.6867 165.222 41.06V45.94C165.222 46.3 165.115 46.5867 164.902 46.8C164.689 47 164.395 47.1 164.022 47.1C163.675 47.1 163.389 46.9933 163.162 46.78C162.949 46.5667 162.842 46.2867 162.842 45.94V45.5C162.615 46.02 162.255 46.4267 161.762 46.72C161.282 47.0133 160.722 47.16 160.082 47.16C159.429 47.16 158.835 47.0267 158.302 46.76C157.769 46.4933 157.349 46.1267 157.042 45.66C156.735 45.1933 156.582 44.6733 156.582 44.1C156.582 43.38 156.762 42.8133 157.122 42.4C157.495 41.9867 158.095 41.6867 158.922 41.5C159.749 41.3133 160.889 41.22 162.342 41.22H162.842V40.76C162.842 40.1067 162.702 39.6333 162.422 39.34C162.142 39.0333 161.689 38.88 161.062 38.88C160.675 38.88 160.282 38.94 159.882 39.06C159.482 39.1667 159.009 39.3267 158.462 39.54C158.115 39.7133 157.862 39.8 157.702 39.8C157.462 39.8 157.262 39.7133 157.102 39.54C156.955 39.3667 156.882 39.14 156.882 38.86C156.882 38.6333 156.935 38.44 157.042 38.28C157.162 38.1067 157.355 37.9467 157.622 37.8C158.089 37.5467 158.642 37.3467 159.282 37.2C159.935 37.0533 160.575 36.98 161.202 36.98ZM160.582 45.36C161.249 45.36 161.789 45.14 162.202 44.7C162.629 44.2467 162.842 43.6667 162.842 42.96V42.54H162.482C161.589 42.54 160.895 42.58 160.402 42.66C159.909 42.74 159.555 42.88 159.342 43.08C159.129 43.28 159.022 43.5533 159.022 43.9C159.022 44.3267 159.169 44.68 159.462 44.96C159.769 45.2267 160.142 45.36 160.582 45.36ZM172.103 47.16C171.13 47.16 170.27 46.9533 169.523 46.54C168.79 46.1267 168.223 45.54 167.823 44.78C167.423 44.02 167.223 43.1333 167.223 42.12C167.223 41.1067 167.43 40.2133 167.843 39.44C168.27 38.6533 168.863 38.0467 169.623 37.62C170.383 37.1933 171.256 36.98 172.243 36.98C172.763 36.98 173.283 37.0533 173.803 37.2C174.336 37.3467 174.803 37.5467 175.203 37.8C175.63 38.08 175.843 38.4333 175.843 38.86C175.843 39.1533 175.77 39.3933 175.623 39.58C175.49 39.7533 175.31 39.84 175.083 39.84C174.936 39.84 174.783 39.8067 174.623 39.74C174.463 39.6733 174.303 39.5933 174.143 39.5C173.85 39.3267 173.57 39.1933 173.303 39.1C173.036 38.9933 172.73 38.94 172.383 38.94C171.556 38.94 170.916 39.2133 170.463 39.76C170.023 40.2933 169.803 41.0667 169.803 42.08C169.803 43.08 170.023 43.8533 170.463 44.4C170.916 44.9333 171.556 45.2 172.383 45.2C172.716 45.2 173.01 45.1533 173.263 45.06C173.53 44.9533 173.823 44.8133 174.143 44.64C174.343 44.52 174.516 44.4333 174.663 44.38C174.81 44.3133 174.956 44.28 175.103 44.28C175.316 44.28 175.496 44.3733 175.643 44.56C175.79 44.7467 175.863 44.98 175.863 45.26C175.863 45.4867 175.81 45.6867 175.703 45.86C175.61 46.02 175.45 46.1667 175.223 46.3C174.81 46.5667 174.33 46.78 173.783 46.94C173.236 47.0867 172.676 47.16 172.103 47.16ZM172.743 35.88C172.596 35.9867 172.45 36.04 172.303 36.04C172.116 36.04 171.956 35.98 171.823 35.86C171.703 35.7267 171.643 35.5733 171.643 35.4C171.643 35.2533 171.696 35.1067 171.803 34.96L173.743 32.38C174.05 31.98 174.403 31.78 174.803 31.78C175.096 31.78 175.343 31.8867 175.543 32.1C175.756 32.3 175.863 32.54 175.863 32.82C175.863 33.1933 175.683 33.5133 175.323 33.78L172.743 35.88ZM125.575 71.92C126.375 71.92 126.775 72.26 126.775 72.94C126.775 73.6467 126.375 74 125.575 74H118.815C118.001 74 117.595 73.6467 117.595 72.94C117.595 72.26 118.001 71.92 118.815 71.92H120.895V62.8L118.975 63.98C118.788 64.0867 118.621 64.14 118.475 64.14C118.195 64.14 117.955 64.02 117.755 63.78C117.568 63.54 117.475 63.2733 117.475 62.98C117.475 62.5933 117.648 62.2933 117.995 62.08L121.095 60.16C121.495 59.92 121.875 59.8 122.235 59.8C122.608 59.8 122.908 59.9133 123.135 60.14C123.361 60.3667 123.475 60.68 123.475 61.08V71.92H125.575ZM133.547 74.18C131.88 74.18 130.607 73.5667 129.727 72.34C128.847 71.1 128.407 69.3 128.407 66.94C128.407 64.5933 128.847 62.8067 129.727 61.58C130.607 60.34 131.88 59.72 133.547 59.72C135.214 59.72 136.487 60.34 137.367 61.58C138.247 62.8067 138.687 64.5933 138.687 66.94C138.687 69.2867 138.247 71.08 137.367 72.32C136.487 73.56 135.214 74.18 133.547 74.18ZM133.547 72.16C134.454 72.16 135.114 71.7467 135.527 70.92C135.94 70.08 136.147 68.7533 136.147 66.94C136.147 65.1133 135.94 63.7933 135.527 62.98C135.114 62.1533 134.454 61.74 133.547 61.74C132.64 61.74 131.98 62.1533 131.567 62.98C131.154 63.8067 130.947 65.1267 130.947 66.94C130.947 68.7533 131.154 70.08 131.567 70.92C131.98 71.7467 132.64 72.16 133.547 72.16ZM146.179 73.72C146.059 73.9333 145.912 74.0933 145.739 74.2C145.566 74.3067 145.392 74.36 145.219 74.36C144.979 74.36 144.766 74.2733 144.579 74.1C144.406 73.9267 144.319 73.7067 144.319 73.44C144.319 73.2133 144.386 72.9867 144.519 72.76L151.799 60.18C151.919 59.9667 152.066 59.8067 152.239 59.7C152.412 59.5933 152.586 59.54 152.759 59.54C152.999 59.54 153.206 59.6267 153.379 59.8C153.566 59.9733 153.659 60.1933 153.659 60.46C153.659 60.6867 153.592 60.9133 153.459 61.14L146.179 73.72ZM143.959 68.32C142.839 68.32 141.966 67.9533 141.339 67.22C140.712 66.4867 140.399 65.4133 140.399 64C140.399 62.6 140.712 61.5333 141.339 60.8C141.966 60.0667 142.839 59.7 143.959 59.7C145.079 59.7 145.952 60.0667 146.579 60.8C147.219 61.5333 147.539 62.6 147.539 64C147.539 65.4133 147.219 66.4867 146.579 67.22C145.952 67.9533 145.079 68.32 143.959 68.32ZM143.959 66.7C144.466 66.7 144.832 66.4933 145.059 66.08C145.299 65.6533 145.419 64.96 145.419 64C145.419 63.0667 145.299 62.3867 145.059 61.96C144.819 61.5333 144.452 61.32 143.959 61.32C143.466 61.32 143.099 61.5333 142.859 61.96C142.632 62.3733 142.519 63.0533 142.519 64C142.519 64.96 142.632 65.6533 142.859 66.08C143.099 66.4933 143.466 66.7 143.959 66.7ZM154.019 74.14C152.899 74.14 152.026 73.7733 151.399 73.04C150.772 72.3067 150.459 71.2267 150.459 69.8C150.459 68.4 150.772 67.34 151.399 66.62C152.039 65.8867 152.912 65.52 154.019 65.52C155.139 65.52 156.012 65.8867 156.639 66.62C157.266 67.3533 157.579 68.42 157.579 69.82C157.579 71.2333 157.266 72.3067 156.639 73.04C156.012 73.7733 155.139 74.14 154.019 74.14ZM154.019 72.52C154.512 72.52 154.879 72.3133 155.119 71.9C155.359 71.4733 155.479 70.78 155.479 69.82C155.479 68.8867 155.359 68.2067 155.119 67.78C154.879 67.3533 154.512 67.14 154.019 67.14C153.526 67.14 153.159 67.3533 152.919 67.78C152.679 68.2067 152.559 68.8867 152.559 69.82C152.559 70.78 152.679 71.4733 152.919 71.9C153.159 72.3133 153.526 72.52 154.019 72.52Z" fill="white"/>
<path d="M165.998 93C167.495 93 168.991 93.0391 170.486 93.1188C171.98 93.1969 173.471 93.3157 174.96 93.4736C176.448 93.6315 177.932 93.8284 179.41 94.0644C180.888 94.3003 182.359 94.5754 183.822 94.8895C185.285 95.2036 186.74 95.5551 188.185 95.9473C189.629 96.3379 191.063 96.7659 192.485 97.2314C193.908 97.6985 195.317 98.2014 196.712 98.7433C198.108 99.2836 199.488 99.8614 200.854 100.475C202.219 101.088 203.567 101.738 204.898 102.423C206.228 103.108 207.539 103.827 208.833 104.581C210.125 105.336 211.398 106.124 212.65 106.946C213.9 107.766 215.128 108.62 216.334 109.507C217.54 110.393 218.723 111.311 219.881 112.259C221.038 113.208 222.17 114.186 223.275 115.195C224.382 116.204 225.46 117.241 226.511 118.307C227.562 119.373 228.584 120.465 229.579 121.585C230.571 122.704 231.535 123.848 232.467 125.019C233.4 126.19 234.302 127.383 235.172 128.602C236.041 129.82 236.88 131.06 237.684 132.323C238.487 133.584 239.257 134.868 239.995 136.17C240.732 137.474 241.433 138.795 242.099 140.134C242.766 141.475 243.398 142.831 243.992 144.205C244.587 145.578 245.146 146.966 245.668 148.369C246.189 149.772 246.674 151.188 247.121 152.615C247.567 154.044 247.977 155.483 248.348 156.933C248.718 158.383 249.051 159.843 249.344 161.311C249.639 162.777 249.895 164.252 250.109 165.733C250.326 167.214 250.503 168.7 250.64 170.19C250.778 171.681 250.876 173.173 250.934 174.669C250.993 176.165 251.013 177.66 250.991 179.158C250.972 180.655 250.912 182.149 250.812 183.643C250.713 185.137 250.575 186.626 250.396 188.112C250.218 189.598 250 191.079 249.745 192.553C249.488 194.028 249.193 195.494 248.859 196.954C248.526 198.412 248.153 199.862 247.743 201.301C247.333 202.741 246.885 204.168 246.399 205.584C245.914 207 245.391 208.401 244.831 209.79C244.272 211.178 243.676 212.55 243.043 213.907C242.411 215.264 241.742 216.602 241.039 217.924C240.336 219.245 239.599 220.547 238.828 221.83C238.056 223.112 237.251 224.373 236.412 225.613C235.574 226.854 234.704 228.069 233.8 229.264C232.899 230.458 231.965 231.627 230.999 232.771C230.036 233.917 229.042 235.035 228.018 236.127C226.994 237.219 225.943 238.283 224.862 239.32C223.783 240.357 222.677 241.364 221.544 242.342C220.411 243.319 219.252 244.267 218.069 245.184C216.888 246.1 215.68 246.985 214.451 247.84C213.221 248.692 211.969 249.513 210.697 250.299C209.424 251.086 208.13 251.84 206.817 252.558C205.505 253.277 204.174 253.96 202.824 254.608C201.475 255.258 200.11 255.869 198.728 256.446C197.348 257.022 195.952 257.562 194.542 258.065C193.133 258.566 191.71 259.032 190.275 259.46C188.841 259.886 187.396 260.277 185.941 260.627C184.486 260.978 183.023 261.291 181.552 261.566C180.08 261.839 178.603 262.073 177.118 262.269C175.634 262.466 174.147 262.622 172.654 262.739C171.162 262.856 169.668 262.934 168.172 262.972C166.676 263.011 165.179 263.009 163.684 262.968C162.188 262.928 160.692 262.848 159.201 262.728C157.709 262.609 156.222 262.449 154.737 262.251C153.255 262.052 151.777 261.815 150.306 261.54C148.834 261.263 147.371 260.947 145.918 260.594L165.998 178V93Z" fill="#F8F8F8"/>
<path d="M150.074 261.492C148.007 261.098 145.958 260.628 143.927 260.081C141.896 259.536 139.888 258.914 137.902 258.219C135.917 257.525 133.959 256.756 132.03 255.915C130.103 255.075 128.207 254.164 126.347 253.182C124.487 252.201 122.664 251.151 120.882 250.035C119.1 248.919 117.36 247.737 115.664 246.492C113.97 245.245 112.323 243.939 110.725 242.571C109.127 241.203 107.582 239.777 106.09 238.294C104.597 236.812 103.162 235.276 101.783 233.687C100.405 232.097 99.0882 230.46 97.8318 228.772C96.5754 227.085 95.3825 225.355 94.2546 223.579C93.1268 221.803 92.0657 219.987 91.0729 218.134C90.0785 216.278 89.1557 214.39 88.3029 212.467C87.4501 210.545 86.6689 208.593 85.961 206.611C85.253 204.631 84.6183 202.627 84.0601 200.599C83.5002 198.572 83.0169 196.524 82.61 194.461C82.2015 192.397 81.8711 190.322 81.6188 188.232C81.365 186.144 81.1892 184.05 81.0915 181.949C80.9939 179.848 80.9744 177.745 81.033 175.642C81.0915 173.54 81.2266 171.442 81.4415 169.349C81.6547 167.256 81.946 165.174 82.3154 163.103C82.6832 161.033 83.1292 158.977 83.6499 156.94C84.1707 154.902 84.768 152.886 85.4385 150.892C86.1091 148.898 86.8528 146.932 87.6698 144.992C88.4868 143.054 89.3738 141.148 90.3324 139.277C91.291 137.403 92.3179 135.569 93.4116 133.773C94.5069 131.976 95.6656 130.223 96.8911 128.513C98.115 126.802 99.4023 125.139 100.75 123.525C102.097 121.91 103.504 120.348 104.968 118.836C106.433 117.326 107.952 115.872 109.524 114.474C111.096 113.076 112.717 111.738 114.388 110.461C116.06 109.185 117.777 107.971 119.538 106.82L166.001 177.999L150.074 261.492Z" fill="#C0FFF6"/>
<path d="M116.039 109.234C117.841 107.925 119.691 106.689 121.59 105.525C123.488 104.363 125.43 103.276 127.414 102.265C129.397 101.254 131.417 100.322 133.474 99.4708C135.531 98.618 137.618 97.8482 139.735 97.1598C141.853 96.473 143.993 95.8692 146.157 95.3484C148.322 94.8293 150.503 94.3947 152.701 94.0465C154.9 93.6982 157.109 93.4362 159.327 93.262C161.545 93.0879 163.768 93 165.993 93L166.001 178L116.039 109.234Z" fill="#01CCB0"/>
<path d="M165.997 93C165.995 93 165.997 93 166.006 93L165.997 178V93Z" fill="#7D7D7D"/>
</svg>
