
<svg width="707" height="595" viewBox="0 0 707 595" fill="none" xmlns="http://www.w3.org/2000/svg">
<path d="M560.746 521.96C561.194 521.96 561.554 522.104 561.826 522.392C562.098 522.664 562.234 523.032 562.234 523.496V537.704C562.234 538.152 562.106 538.504 561.85 538.76C561.594 539.016 561.258 539.144 560.842 539.144C560.426 539.144 560.098 539.016 559.858 538.76C559.618 538.504 559.498 538.152 559.498 537.704V527.816L555.418 535.544C555.226 535.896 555.018 536.16 554.794 536.336C554.57 536.496 554.306 536.576 554.002 536.576C553.698 536.576 553.434 536.496 553.21 536.336C552.986 536.176 552.778 535.912 552.586 535.544L548.482 527.936V537.704C548.482 538.136 548.354 538.488 548.098 538.76C547.858 539.016 547.53 539.144 547.114 539.144C546.698 539.144 546.37 539.016 546.13 538.76C545.89 538.504 545.77 538.152 545.77 537.704V523.496C545.77 523.032 545.898 522.664 546.154 522.392C546.426 522.104 546.786 521.96 547.234 521.96C547.858 521.96 548.346 522.304 548.698 522.992L554.026 533.144L559.33 522.992C559.682 522.304 560.154 521.96 560.746 521.96ZM575.022 541.808C575.15 541.776 575.23 541.76 575.262 541.76C575.438 541.76 575.574 541.832 575.67 541.976C575.782 542.12 575.838 542.288 575.838 542.48C575.838 542.816 575.702 543.048 575.43 543.176C574.87 543.512 574.206 543.68 573.438 543.68C572.574 543.68 571.862 543.432 571.302 542.936C570.758 542.456 570.486 541.84 570.486 541.088C570.486 540.352 570.758 539.72 571.302 539.192H571.158C569.254 539.192 567.75 538.648 566.646 537.56C565.542 536.472 564.99 534.984 564.99 533.096C564.99 531.896 565.23 530.832 565.71 529.904C566.19 528.976 566.862 528.256 567.726 527.744C568.606 527.232 569.598 526.976 570.702 526.976C571.758 526.976 572.678 527.208 573.462 527.672C574.246 528.136 574.854 528.792 575.286 529.64C575.718 530.488 575.934 531.488 575.934 532.64C575.934 533.328 575.63 533.672 575.022 533.672H567.942C568.038 534.776 568.35 535.592 568.878 536.12C569.406 536.632 570.174 536.888 571.182 536.888C571.694 536.888 572.142 536.824 572.526 536.696C572.926 536.568 573.374 536.392 573.87 536.168C574.35 535.912 574.702 535.784 574.926 535.784C575.198 535.784 575.414 535.888 575.574 536.096C575.75 536.304 575.838 536.584 575.838 536.936C575.838 537.208 575.75 537.448 575.574 537.656C575.414 537.864 575.158 538.064 574.806 538.256C573.942 538.72 573.342 539.128 573.006 539.48C572.67 539.832 572.502 540.224 572.502 540.656C572.502 541.088 572.622 541.424 572.862 541.664C573.118 541.904 573.454 542.024 573.87 542.024C574.254 542.024 574.638 541.952 575.022 541.808ZM570.774 529.088C569.958 529.088 569.302 529.344 568.806 529.856C568.326 530.368 568.038 531.104 567.942 532.064H573.366C573.334 531.088 573.094 530.352 572.646 529.856C572.198 529.344 571.574 529.088 570.774 529.088ZM586.89 536.744C587.786 536.744 588.234 537.12 588.234 537.872C588.234 538.224 588.122 538.504 587.898 538.712C587.674 538.904 587.338 539 586.89 539H578.874C578.474 539 578.146 538.872 577.89 538.616C577.634 538.36 577.506 538.056 577.506 537.704C577.506 537.336 577.65 536.984 577.938 536.648L584.106 529.52H578.754C578.306 529.52 577.97 529.424 577.746 529.232C577.522 529.04 577.41 528.76 577.41 528.392C577.41 528.024 577.522 527.744 577.746 527.552C577.97 527.36 578.306 527.264 578.754 527.264H586.506C586.922 527.264 587.25 527.392 587.49 527.648C587.746 527.888 587.874 528.192 587.874 528.56C587.874 528.944 587.738 529.296 587.466 529.616L581.274 536.744H586.89ZM582.882 524.888C582.338 524.888 581.906 524.744 581.586 524.456C581.266 524.152 581.106 523.76 581.106 523.28C581.106 522.8 581.266 522.416 581.586 522.128C581.906 521.84 582.338 521.696 582.882 521.696C583.41 521.696 583.834 521.84 584.154 522.128C584.49 522.416 584.658 522.8 584.658 523.28C584.658 523.76 584.498 524.152 584.178 524.456C583.858 524.744 583.426 524.888 582.882 524.888ZM595.291 539.192C594.123 539.192 593.091 538.944 592.195 538.448C591.315 537.952 590.635 537.248 590.155 536.336C589.675 535.424 589.435 534.36 589.435 533.144C589.435 531.928 589.683 530.856 590.179 529.928C590.691 528.984 591.403 528.256 592.315 527.744C593.227 527.232 594.275 526.976 595.459 526.976C596.083 526.976 596.707 527.064 597.331 527.24C597.971 527.416 598.531 527.656 599.011 527.96C599.523 528.296 599.779 528.72 599.779 529.232C599.779 529.584 599.691 529.872 599.515 530.096C599.355 530.304 599.139 530.408 598.867 530.408C598.691 530.408 598.507 530.368 598.315 530.288C598.123 530.208 597.931 530.112 597.739 530C597.387 529.792 597.051 529.632 596.731 529.52C596.411 529.392 596.043 529.328 595.627 529.328C594.635 529.328 593.867 529.656 593.323 530.312C592.795 530.952 592.531 531.88 592.531 533.096C592.531 534.296 592.795 535.224 593.323 535.88C593.867 536.52 594.635 536.84 595.627 536.84C596.027 536.84 596.379 536.784 596.683 536.672C597.003 536.544 597.355 536.376 597.739 536.168C597.979 536.024 598.187 535.92 598.363 535.856C598.539 535.776 598.715 535.736 598.891 535.736C599.147 535.736 599.363 535.848 599.539 536.072C599.715 536.296 599.803 536.576 599.803 536.912C599.803 537.184 599.739 537.424 599.611 537.632C599.499 537.824 599.307 538 599.035 538.16C598.539 538.48 597.963 538.736 597.307 538.928C596.651 539.104 595.979 539.192 595.291 539.192ZM610.538 536.744C611.434 536.744 611.882 537.12 611.882 537.872C611.882 538.224 611.77 538.504 611.546 538.712C611.322 538.904 610.986 539 610.538 539H602.522C602.122 539 601.794 538.872 601.538 538.616C601.282 538.36 601.154 538.056 601.154 537.704C601.154 537.336 601.298 536.984 601.586 536.648L607.754 529.52H602.402C601.954 529.52 601.618 529.424 601.394 529.232C601.17 529.04 601.058 528.76 601.058 528.392C601.058 528.024 601.17 527.744 601.394 527.552C601.618 527.36 601.954 527.264 602.402 527.264H610.154C610.57 527.264 610.898 527.392 611.138 527.648C611.394 527.888 611.522 528.192 611.522 528.56C611.522 528.944 611.386 529.296 611.114 529.616L604.922 536.744H610.538ZM622.033 527.888C622.161 527.6 622.329 527.392 622.537 527.264C622.761 527.12 623.001 527.048 623.257 527.048C623.625 527.048 623.953 527.176 624.241 527.432C624.545 527.672 624.697 527.976 624.697 528.344C624.697 528.52 624.649 528.704 624.553 528.896L618.001 542.624C617.729 543.168 617.305 543.44 616.729 543.44C616.361 543.44 616.033 543.32 615.745 543.08C615.473 542.856 615.337 542.568 615.337 542.216C615.337 542.04 615.385 541.84 615.481 541.616L617.113 538.184L612.649 528.896C612.569 528.736 612.529 528.552 612.529 528.344C612.529 527.976 612.681 527.664 612.985 527.408C613.305 527.152 613.665 527.024 614.065 527.024C614.337 527.024 614.585 527.096 614.809 527.24C615.033 527.368 615.209 527.576 615.337 527.864L618.697 535.28L622.033 527.888ZM635.03 536.744C635.926 536.744 636.374 537.12 636.374 537.872C636.374 538.224 636.262 538.504 636.038 538.712C635.814 538.904 635.478 539 635.03 539H627.014C626.614 539 626.286 538.872 626.03 538.616C625.774 538.36 625.646 538.056 625.646 537.704C625.646 537.336 625.79 536.984 626.078 536.648L632.246 529.52H626.894C626.446 529.52 626.11 529.424 625.886 529.232C625.662 529.04 625.55 528.76 625.55 528.392C625.55 528.024 625.662 527.744 625.886 527.552C626.11 527.36 626.446 527.264 626.894 527.264H634.646C635.062 527.264 635.39 527.392 635.63 527.648C635.886 527.888 636.014 528.192 636.014 528.56C636.014 528.944 635.878 529.296 635.606 529.616L629.414 536.744H635.03ZM631.622 525.656C631.446 525.784 631.27 525.848 631.094 525.848C630.87 525.848 630.678 525.776 630.518 525.632C630.374 525.472 630.302 525.288 630.302 525.08C630.302 524.904 630.366 524.728 630.494 524.552L632.822 521.456C633.19 520.976 633.614 520.736 634.094 520.736C634.446 520.736 634.742 520.864 634.982 521.12C635.238 521.36 635.366 521.648 635.366 521.984C635.366 522.432 635.15 522.816 634.718 523.136L631.622 525.656ZM645.345 526.976C646.753 526.976 647.801 527.376 648.489 528.176C649.177 528.976 649.521 530.184 649.521 531.8V537.704C649.521 538.152 649.385 538.504 649.113 538.76C648.857 539.016 648.497 539.144 648.033 539.144C647.569 539.144 647.201 539.016 646.929 538.76C646.657 538.504 646.521 538.152 646.521 537.704V531.968C646.521 531.056 646.345 530.392 645.993 529.976C645.657 529.56 645.121 529.352 644.385 529.352C643.521 529.352 642.825 529.624 642.297 530.168C641.785 530.712 641.529 531.44 641.529 532.352V537.704C641.529 538.152 641.393 538.504 641.121 538.76C640.849 539.016 640.481 539.144 640.017 539.144C639.553 539.144 639.185 539.016 638.913 538.76C638.657 538.504 638.529 538.152 638.529 537.704V528.416C638.529 528 638.665 527.664 638.937 527.408C639.209 527.152 639.577 527.024 640.041 527.024C640.457 527.024 640.793 527.152 641.049 527.408C641.321 527.648 641.457 527.968 641.457 528.368V529.016C641.857 528.36 642.393 527.856 643.065 527.504C643.737 527.152 644.497 526.976 645.345 526.976ZM654.056 539.144C653.624 539.144 653.264 539.024 652.976 538.784C652.704 538.528 652.568 538.168 652.568 537.704V528.44C652.568 527.976 652.704 527.624 652.976 527.384C653.264 527.144 653.624 527.024 654.056 527.024C654.488 527.024 654.848 527.144 655.136 527.384C655.424 527.624 655.568 527.976 655.568 528.44V537.704C655.568 538.168 655.424 538.528 655.136 538.784C654.848 539.024 654.488 539.144 654.056 539.144ZM654.056 524.888C653.512 524.888 653.08 524.744 652.76 524.456C652.44 524.152 652.28 523.76 652.28 523.28C652.28 522.8 652.44 522.416 652.76 522.128C653.08 521.84 653.512 521.696 654.056 521.696C654.584 521.696 655.008 521.84 655.328 522.128C655.664 522.416 655.832 522.8 655.832 523.28C655.832 523.76 655.672 524.152 655.352 524.456C655.032 524.744 654.6 524.888 654.056 524.888ZM582.854 561.176C583.91 561.176 584.838 561.408 585.638 561.872C586.454 562.32 587.086 562.952 587.534 563.768C587.982 564.584 588.206 565.52 588.206 566.576C588.206 567.68 587.95 568.656 587.438 569.504C586.942 570.352 586.23 571.016 585.302 571.496C584.39 571.96 583.334 572.192 582.134 572.192C581.142 572.192 580.166 572.032 579.206 571.712C578.262 571.376 577.454 570.928 576.782 570.368C576.414 570.048 576.23 569.672 576.23 569.24C576.23 568.888 576.326 568.592 576.518 568.352C576.726 568.096 576.966 567.968 577.238 567.968C577.398 567.968 577.55 568 577.694 568.064C577.838 568.112 578.006 568.2 578.198 568.328C578.838 568.776 579.462 569.12 580.07 569.36C580.678 569.6 581.326 569.72 582.014 569.72C583.07 569.72 583.878 569.456 584.438 568.928C584.998 568.4 585.278 567.648 585.278 566.672C585.278 565.728 584.99 564.984 584.414 564.44C583.854 563.88 583.078 563.6 582.086 563.6C581.462 563.6 580.902 563.688 580.406 563.864C579.926 564.04 579.43 564.336 578.918 564.752C578.614 564.96 578.302 565.064 577.982 565.064C577.662 565.064 577.39 564.968 577.166 564.776C576.942 564.584 576.83 564.328 576.83 564.008V556.52C576.83 556.072 576.958 555.72 577.214 555.464C577.47 555.208 577.83 555.08 578.294 555.08H586.286C587.246 555.08 587.726 555.48 587.726 556.28C587.726 557.08 587.246 557.48 586.286 557.48H579.854V562.04C580.67 561.464 581.67 561.176 582.854 561.176ZM598.948 563.312C599.956 563.568 600.724 564.056 601.252 564.776C601.796 565.48 602.068 566.36 602.068 567.416C602.068 568.872 601.532 570.032 600.46 570.896C599.388 571.76 597.94 572.192 596.116 572.192C595.076 572.192 594.076 572.032 593.116 571.712C592.156 571.392 591.34 570.944 590.668 570.368C590.3 570.048 590.116 569.672 590.116 569.24C590.116 568.888 590.212 568.592 590.404 568.352C590.612 568.096 590.852 567.968 591.124 567.968C591.284 567.968 591.428 568 591.556 568.064C591.684 568.112 591.86 568.2 592.084 568.328C592.756 568.776 593.396 569.12 594.004 569.36C594.612 569.6 595.276 569.72 595.996 569.72C597.052 569.72 597.836 569.512 598.348 569.096C598.86 568.664 599.116 568.016 599.116 567.152C599.116 566.304 598.844 565.68 598.3 565.28C597.772 564.864 596.948 564.656 595.828 564.656H594.46C594.092 564.656 593.804 564.536 593.596 564.296C593.404 564.04 593.308 563.752 593.308 563.432C593.308 563.096 593.404 562.808 593.596 562.568C593.804 562.328 594.092 562.208 594.46 562.208H595.42C597.612 562.208 598.708 561.384 598.708 559.736C598.708 558.968 598.476 558.376 598.012 557.96C597.548 557.544 596.908 557.336 596.092 557.336C594.924 557.336 593.676 557.8 592.348 558.728C592.124 558.856 591.948 558.952 591.82 559.016C591.692 559.064 591.548 559.088 591.388 559.088C591.116 559.088 590.876 558.968 590.668 558.728C590.476 558.472 590.38 558.168 590.38 557.816C590.38 557.576 590.42 557.376 590.5 557.216C590.596 557.04 590.74 556.864 590.932 556.688C591.604 556.128 592.404 555.688 593.332 555.368C594.276 555.032 595.236 554.864 596.212 554.864C597.876 554.864 599.196 555.272 600.172 556.088C601.164 556.904 601.66 557.992 601.66 559.352C601.644 560.28 601.396 561.096 600.916 561.8C600.452 562.488 599.796 562.992 598.948 563.312ZM611.515 571.664C611.371 571.92 611.195 572.112 610.987 572.24C610.779 572.368 610.571 572.432 610.363 572.432C610.075 572.432 609.819 572.328 609.595 572.12C609.387 571.912 609.283 571.648 609.283 571.328C609.283 571.056 609.363 570.784 609.523 570.512L618.259 555.416C618.403 555.16 618.579 554.968 618.787 554.84C618.995 554.712 619.203 554.648 619.411 554.648C619.699 554.648 619.947 554.752 620.155 554.96C620.379 555.168 620.491 555.432 620.491 555.752C620.491 556.024 620.411 556.296 620.251 556.568L611.515 571.664ZM608.851 565.184C607.507 565.184 606.459 564.744 605.707 563.864C604.955 562.984 604.579 561.696 604.579 560C604.579 558.32 604.955 557.04 605.707 556.16C606.459 555.28 607.507 554.84 608.851 554.84C610.195 554.84 611.243 555.28 611.995 556.16C612.763 557.04 613.147 558.32 613.147 560C613.147 561.696 612.763 562.984 611.995 563.864C611.243 564.744 610.195 565.184 608.851 565.184ZM608.851 563.24C609.459 563.24 609.899 562.992 610.171 562.496C610.459 561.984 610.603 561.152 610.603 560C610.603 558.88 610.459 558.064 610.171 557.552C609.883 557.04 609.443 556.784 608.851 556.784C608.259 556.784 607.819 557.04 607.531 557.552C607.259 558.048 607.123 558.864 607.123 560C607.123 561.152 607.259 561.984 607.531 562.496C607.819 562.992 608.259 563.24 608.851 563.24ZM620.923 572.168C619.579 572.168 618.531 571.728 617.779 570.848C617.027 569.968 616.651 568.672 616.651 566.96C616.651 565.28 617.027 564.008 617.779 563.144C618.547 562.264 619.595 561.824 620.923 561.824C622.267 561.824 623.315 562.264 624.067 563.144C624.819 564.024 625.195 565.304 625.195 566.984C625.195 568.68 624.819 569.968 624.067 570.848C623.315 571.728 622.267 572.168 620.923 572.168ZM620.923 570.224C621.515 570.224 621.955 569.976 622.243 569.48C622.531 568.968 622.675 568.136 622.675 566.984C622.675 565.864 622.531 565.048 622.243 564.536C621.955 564.024 621.515 563.768 620.923 563.768C620.331 563.768 619.891 564.024 619.603 564.536C619.315 565.048 619.171 565.864 619.171 566.984C619.171 568.136 619.315 568.968 619.603 569.48C619.891 569.976 620.331 570.224 620.923 570.224Z" fill="white"/>
<path d="M42.2997 230.672C42.6197 230.976 42.7797 231.32 42.7797 231.704C42.7797 232.072 42.6357 232.4 42.3477 232.688C42.0757 232.96 41.7477 233.096 41.3637 233.096C40.9637 233.096 40.5957 232.928 40.2597 232.592L32.2677 225.104V231.584C32.2677 232.048 32.1237 232.424 31.8357 232.712C31.5637 233 31.1877 233.144 30.7077 233.144C30.2437 233.144 29.8677 233 29.5797 232.712C29.3077 232.424 29.1717 232.048 29.1717 231.584V217.496C29.1717 217.032 29.3077 216.664 29.5797 216.392C29.8677 216.104 30.2437 215.96 30.7077 215.96C31.1877 215.96 31.5637 216.104 31.8357 216.392C32.1237 216.664 32.2677 217.032 32.2677 217.496V223.664L39.9957 216.416C40.2837 216.128 40.6117 215.984 40.9797 215.984C41.3477 215.984 41.6677 216.128 41.9397 216.416C42.2277 216.688 42.3717 217.008 42.3717 217.376C42.3717 217.744 42.2117 218.08 41.8917 218.384L35.4357 224.288L42.2997 230.672ZM49.9862 233.192C48.7862 233.192 47.7302 232.944 46.8182 232.448C45.9222 231.952 45.2262 231.24 44.7302 230.312C44.2342 229.384 43.9862 228.304 43.9862 227.072C43.9862 225.84 44.2342 224.768 44.7302 223.856C45.2262 222.928 45.9222 222.216 46.8182 221.72C47.7302 221.224 48.7862 220.976 49.9862 220.976C51.1862 220.976 52.2342 221.224 53.1302 221.72C54.0422 222.216 54.7382 222.928 55.2182 223.856C55.7142 224.768 55.9622 225.84 55.9622 227.072C55.9622 228.304 55.7142 229.384 55.2182 230.312C54.7382 231.24 54.0422 231.952 53.1302 232.448C52.2342 232.944 51.1862 233.192 49.9862 233.192ZM49.9622 230.864C50.9382 230.864 51.6822 230.544 52.1942 229.904C52.7062 229.264 52.9622 228.32 52.9622 227.072C52.9622 225.84 52.7062 224.904 52.1942 224.264C51.6822 223.608 50.9462 223.28 49.9862 223.28C49.0262 223.28 48.2822 223.608 47.7542 224.264C47.2422 224.904 46.9862 225.84 46.9862 227.072C46.9862 228.32 47.2422 229.264 47.7542 229.904C48.2662 230.544 49.0022 230.864 49.9622 230.864ZM65.1829 220.976C66.2069 220.976 67.1109 221.224 67.8949 221.72C68.6789 222.216 69.2869 222.92 69.7189 223.832C70.1669 224.744 70.3909 225.808 70.3909 227.024C70.3909 228.24 70.1669 229.32 69.7189 230.264C69.2869 231.192 68.6709 231.912 67.8709 232.424C67.0869 232.936 66.1909 233.192 65.1829 233.192C64.3349 233.192 63.5749 233.008 62.9029 232.64C62.2469 232.272 61.7429 231.76 61.3909 231.104V231.704C61.3909 232.136 61.2549 232.48 60.9829 232.736C60.7109 232.992 60.3509 233.12 59.9029 233.12C59.4549 233.12 59.0949 232.992 58.8229 232.736C58.5669 232.48 58.4389 232.136 58.4389 231.704V217.352C58.4389 216.936 58.5749 216.6 58.8469 216.344C59.1349 216.088 59.5029 215.96 59.9509 215.96C60.3989 215.96 60.7589 216.08 61.0309 216.32C61.3029 216.56 61.4389 216.888 61.4389 217.304V222.968C61.7909 222.328 62.2949 221.84 62.9509 221.504C63.6069 221.152 64.3509 220.976 65.1829 220.976ZM64.3909 230.864C65.3349 230.864 66.0709 230.528 66.5989 229.856C67.1269 229.184 67.3909 228.24 67.3909 227.024C67.3909 225.824 67.1269 224.904 66.5989 224.264C66.0869 223.624 65.3509 223.304 64.3909 223.304C63.4309 223.304 62.6869 223.632 62.1589 224.288C61.6469 224.928 61.3909 225.856 61.3909 227.072C61.3909 228.288 61.6469 229.224 62.1589 229.88C62.6869 230.536 63.4309 230.864 64.3909 230.864ZM74.341 233.144C73.909 233.144 73.549 233.024 73.261 232.784C72.989 232.528 72.853 232.168 72.853 231.704V222.44C72.853 221.976 72.989 221.624 73.261 221.384C73.549 221.144 73.909 221.024 74.341 221.024C74.773 221.024 75.133 221.144 75.421 221.384C75.709 221.624 75.853 221.976 75.853 222.44V231.704C75.853 232.168 75.709 232.528 75.421 232.784C75.133 233.024 74.773 233.144 74.341 233.144ZM74.341 218.888C73.797 218.888 73.365 218.744 73.045 218.456C72.725 218.152 72.565 217.76 72.565 217.28C72.565 216.8 72.725 216.416 73.045 216.128C73.365 215.84 73.797 215.696 74.341 215.696C74.869 215.696 75.293 215.84 75.613 216.128C75.949 216.416 76.117 216.8 76.117 217.28C76.117 217.76 75.957 218.152 75.637 218.456C75.317 218.744 74.885 218.888 74.341 218.888ZM88.2347 229.784C88.5067 229.784 88.7227 229.888 88.8827 230.096C89.0587 230.304 89.1467 230.584 89.1467 230.936C89.1467 231.432 88.8507 231.848 88.2587 232.184C87.7147 232.488 87.0987 232.736 86.4107 232.928C85.7227 233.104 85.0667 233.192 84.4427 233.192C82.5547 233.192 81.0587 232.648 79.9547 231.56C78.8507 230.472 78.2987 228.984 78.2987 227.096C78.2987 225.896 78.5387 224.832 79.0187 223.904C79.4987 222.976 80.1707 222.256 81.0347 221.744C81.9147 221.232 82.9067 220.976 84.0107 220.976C85.0667 220.976 85.9867 221.208 86.7707 221.672C87.5547 222.136 88.1627 222.792 88.5947 223.64C89.0267 224.488 89.2427 225.488 89.2427 226.64C89.2427 227.328 88.9387 227.672 88.3307 227.672H81.2507C81.3467 228.776 81.6587 229.592 82.1867 230.12C82.7147 230.632 83.4827 230.888 84.4907 230.888C85.0027 230.888 85.4507 230.824 85.8347 230.696C86.2347 230.568 86.6827 230.392 87.1787 230.168C87.6587 229.912 88.0107 229.784 88.2347 229.784ZM84.0827 223.088C83.2667 223.088 82.6107 223.344 82.1147 223.856C81.6347 224.368 81.3467 225.104 81.2507 226.064H86.6747C86.6427 225.088 86.4027 224.352 85.9547 223.856C85.5067 223.344 84.8827 223.088 84.0827 223.088ZM97.6287 230.912C98.4287 230.96 98.8287 231.32 98.8287 231.992C98.8287 232.376 98.6687 232.672 98.3487 232.88C98.0447 233.072 97.6047 233.152 97.0287 233.12L96.3807 233.072C93.6927 232.88 92.3487 231.44 92.3487 228.752V223.52H91.1487C90.7167 223.52 90.3807 223.424 90.1407 223.232C89.9167 223.04 89.8047 222.76 89.8047 222.392C89.8047 222.024 89.9167 221.744 90.1407 221.552C90.3807 221.36 90.7167 221.264 91.1487 221.264H92.3487V219.056C92.3487 218.624 92.4847 218.28 92.7567 218.024C93.0287 217.768 93.3967 217.64 93.8607 217.64C94.3087 217.64 94.6687 217.768 94.9407 218.024C95.2127 218.28 95.3487 218.624 95.3487 219.056V221.264H97.3887C97.8207 221.264 98.1487 221.36 98.3727 221.552C98.6127 221.744 98.7327 222.024 98.7327 222.392C98.7327 222.76 98.6127 223.04 98.3727 223.232C98.1487 223.424 97.8207 223.52 97.3887 223.52H95.3487V228.968C95.3487 230.152 95.8927 230.784 96.9807 230.864L97.6287 230.912ZM108.764 221.888C108.892 221.6 109.06 221.392 109.268 221.264C109.492 221.12 109.732 221.048 109.988 221.048C110.356 221.048 110.684 221.176 110.972 221.432C111.276 221.672 111.428 221.976 111.428 222.344C111.428 222.52 111.38 222.704 111.284 222.896L104.732 236.624C104.46 237.168 104.036 237.44 103.46 237.44C103.092 237.44 102.764 237.32 102.476 237.08C102.204 236.856 102.068 236.568 102.068 236.216C102.068 236.04 102.116 235.84 102.212 235.616L103.844 232.184L99.3795 222.896C99.2995 222.736 99.2595 222.552 99.2595 222.344C99.2595 221.976 99.4115 221.664 99.7155 221.408C100.036 221.152 100.396 221.024 100.796 221.024C101.068 221.024 101.316 221.096 101.54 221.24C101.764 221.368 101.94 221.576 102.068 221.864L105.428 229.28L108.764 221.888ZM53.5576 257.312C54.5656 257.568 55.3336 258.056 55.8616 258.776C56.4056 259.48 56.6776 260.36 56.6776 261.416C56.6776 262.872 56.1416 264.032 55.0696 264.896C53.9976 265.76 52.5496 266.192 50.7256 266.192C49.6856 266.192 48.6856 266.032 47.7256 265.712C46.7656 265.392 45.9496 264.944 45.2776 264.368C44.9096 264.048 44.7256 263.672 44.7256 263.24C44.7256 262.888 44.8216 262.592 45.0136 262.352C45.2216 262.096 45.4616 261.968 45.7336 261.968C45.8936 261.968 46.0376 262 46.1656 262.064C46.2936 262.112 46.4696 262.2 46.6936 262.328C47.3656 262.776 48.0056 263.12 48.6136 263.36C49.2216 263.6 49.8856 263.72 50.6056 263.72C51.6616 263.72 52.4456 263.512 52.9576 263.096C53.4696 262.664 53.7256 262.016 53.7256 261.152C53.7256 260.304 53.4536 259.68 52.9096 259.28C52.3816 258.864 51.5576 258.656 50.4376 258.656H49.0696C48.7016 258.656 48.4136 258.536 48.2056 258.296C48.0136 258.04 47.9176 257.752 47.9176 257.432C47.9176 257.096 48.0136 256.808 48.2056 256.568C48.4136 256.328 48.7016 256.208 49.0696 256.208H50.0296C52.2216 256.208 53.3176 255.384 53.3176 253.736C53.3176 252.968 53.0856 252.376 52.6216 251.96C52.1576 251.544 51.5176 251.336 50.7016 251.336C49.5336 251.336 48.2856 251.8 46.9576 252.728C46.7336 252.856 46.5576 252.952 46.4296 253.016C46.3016 253.064 46.1576 253.088 45.9976 253.088C45.7256 253.088 45.4856 252.968 45.2776 252.728C45.0856 252.472 44.9896 252.168 44.9896 251.816C44.9896 251.576 45.0296 251.376 45.1096 251.216C45.2056 251.04 45.3496 250.864 45.5416 250.688C46.2136 250.128 47.0136 249.688 47.9416 249.368C48.8856 249.032 49.8456 248.864 50.8216 248.864C52.4856 248.864 53.8056 249.272 54.7816 250.088C55.7736 250.904 56.2696 251.992 56.2696 253.352C56.2536 254.28 56.0056 255.096 55.5256 255.8C55.0616 256.488 54.4056 256.992 53.5576 257.312ZM70.2283 249.08C70.6443 249.08 70.9643 249.2 71.1883 249.44C71.4123 249.664 71.5243 249.96 71.5243 250.328C71.5243 250.696 71.4123 251.08 71.1883 251.48L63.5323 265.376C63.2123 265.92 62.7723 266.192 62.2123 266.192C61.8283 266.192 61.4843 266.064 61.1803 265.808C60.8923 265.536 60.7483 265.208 60.7483 264.824C60.7483 264.552 60.8283 264.28 60.9883 264.008L67.8763 251.576H60.6283C59.6683 251.576 59.1883 251.168 59.1883 250.352C59.1883 249.504 59.6683 249.08 60.6283 249.08H70.2283ZM80.5149 265.664C80.3709 265.92 80.1949 266.112 79.9869 266.24C79.7789 266.368 79.5709 266.432 79.3629 266.432C79.0749 266.432 78.8189 266.328 78.5949 266.12C78.3869 265.912 78.2829 265.648 78.2829 265.328C78.2829 265.056 78.3629 264.784 78.5229 264.512L87.2589 249.416C87.4029 249.16 87.5789 248.968 87.7869 248.84C87.9949 248.712 88.2029 248.648 88.4109 248.648C88.6989 248.648 88.9469 248.752 89.1549 248.96C89.3789 249.168 89.4909 249.432 89.4909 249.752C89.4909 250.024 89.4109 250.296 89.2509 250.568L80.5149 265.664ZM77.8509 259.184C76.5069 259.184 75.4589 258.744 74.7069 257.864C73.9549 256.984 73.5789 255.696 73.5789 254C73.5789 252.32 73.9549 251.04 74.7069 250.16C75.4589 249.28 76.5069 248.84 77.8509 248.84C79.1949 248.84 80.2429 249.28 80.9949 250.16C81.7629 251.04 82.1469 252.32 82.1469 254C82.1469 255.696 81.7629 256.984 80.9949 257.864C80.2429 258.744 79.1949 259.184 77.8509 259.184ZM77.8509 257.24C78.4589 257.24 78.8989 256.992 79.1709 256.496C79.4589 255.984 79.6029 255.152 79.6029 254C79.6029 252.88 79.4589 252.064 79.1709 251.552C78.8829 251.04 78.4429 250.784 77.8509 250.784C77.2589 250.784 76.8189 251.04 76.5309 251.552C76.2589 252.048 76.1229 252.864 76.1229 254C76.1229 255.152 76.2589 255.984 76.5309 256.496C76.8189 256.992 77.2589 257.24 77.8509 257.24ZM89.9229 266.168C88.5789 266.168 87.5309 265.728 86.7789 264.848C86.0269 263.968 85.6509 262.672 85.6509 260.96C85.6509 259.28 86.0269 258.008 86.7789 257.144C87.5469 256.264 88.5949 255.824 89.9229 255.824C91.2669 255.824 92.3149 256.264 93.0669 257.144C93.8189 258.024 94.1949 259.304 94.1949 260.984C94.1949 262.68 93.8189 263.968 93.0669 264.848C92.3149 265.728 91.2669 266.168 89.9229 266.168ZM89.9229 264.224C90.5149 264.224 90.9549 263.976 91.2429 263.48C91.5309 262.968 91.6749 262.136 91.6749 260.984C91.6749 259.864 91.5309 259.048 91.2429 258.536C90.9549 258.024 90.5149 257.768 89.9229 257.768C89.3309 257.768 88.8909 258.024 88.6029 258.536C88.3149 259.048 88.1709 259.864 88.1709 260.984C88.1709 262.136 88.3149 262.968 88.6029 263.48C88.8909 263.976 89.3309 264.224 89.9229 264.224Z" fill="white"/>
<path d="M221.535 6.96C221.983 6.96 222.335 7.104 222.591 7.392C222.863 7.664 222.999 8.032 222.999 8.496V22.584C222.999 23.048 222.863 23.424 222.591 23.712C222.319 24 221.967 24.144 221.535 24.144C221.023 24.144 220.631 23.96 220.359 23.592L211.599 12.192V22.584C211.599 23.048 211.471 23.424 211.215 23.712C210.959 24 210.607 24.144 210.159 24.144C209.711 24.144 209.359 24 209.103 23.712C208.847 23.424 208.719 23.048 208.719 22.584V8.496C208.719 8.032 208.855 7.664 209.127 7.392C209.399 7.104 209.759 6.96 210.207 6.96C210.703 6.96 211.087 7.144 211.359 7.512L220.095 18.864V8.496C220.095 8.032 220.223 7.664 220.479 7.392C220.751 7.104 221.103 6.96 221.535 6.96ZM227.872 24.144C227.44 24.144 227.08 24.024 226.792 23.784C226.52 23.528 226.384 23.168 226.384 22.704V13.44C226.384 12.976 226.52 12.624 226.792 12.384C227.08 12.144 227.44 12.024 227.872 12.024C228.304 12.024 228.664 12.144 228.952 12.384C229.24 12.624 229.384 12.976 229.384 13.44V22.704C229.384 23.168 229.24 23.528 228.952 23.784C228.664 24.024 228.304 24.144 227.872 24.144ZM227.872 9.888C227.328 9.888 226.896 9.744 226.576 9.456C226.256 9.152 226.096 8.76 226.096 8.28C226.096 7.8 226.256 7.416 226.576 7.128C226.896 6.84 227.328 6.696 227.872 6.696C228.4 6.696 228.824 6.84 229.144 7.128C229.48 7.416 229.648 7.8 229.648 8.28C229.648 8.76 229.488 9.152 229.168 9.456C228.848 9.744 228.416 9.888 227.872 9.888ZM241.766 20.784C242.038 20.784 242.254 20.888 242.414 21.096C242.59 21.304 242.678 21.584 242.678 21.936C242.678 22.432 242.382 22.848 241.79 23.184C241.246 23.488 240.63 23.736 239.942 23.928C239.254 24.104 238.598 24.192 237.974 24.192C236.086 24.192 234.59 23.648 233.486 22.56C232.382 21.472 231.83 19.984 231.83 18.096C231.83 16.896 232.07 15.832 232.55 14.904C233.03 13.976 233.702 13.256 234.566 12.744C235.446 12.232 236.438 11.976 237.542 11.976C238.598 11.976 239.518 12.208 240.302 12.672C241.086 13.136 241.694 13.792 242.126 14.64C242.558 15.488 242.774 16.488 242.774 17.64C242.774 18.328 242.47 18.672 241.862 18.672H234.782C234.878 19.776 235.19 20.592 235.718 21.12C236.246 21.632 237.014 21.888 238.022 21.888C238.534 21.888 238.982 21.824 239.366 21.696C239.766 21.568 240.214 21.392 240.71 21.168C241.19 20.912 241.542 20.784 241.766 20.784ZM237.614 14.088C236.798 14.088 236.142 14.344 235.646 14.856C235.166 15.368 234.878 16.104 234.782 17.064H240.206C240.174 16.088 239.934 15.352 239.486 14.856C239.038 14.344 238.414 14.088 237.614 14.088ZM256.952 24.192C255.784 24.192 254.752 23.944 253.856 23.448C252.976 22.952 252.296 22.248 251.816 21.336C251.336 20.424 251.096 19.36 251.096 18.144C251.096 16.928 251.344 15.856 251.84 14.928C252.352 13.984 253.064 13.256 253.976 12.744C254.888 12.232 255.936 11.976 257.12 11.976C257.744 11.976 258.368 12.064 258.992 12.24C259.632 12.416 260.192 12.656 260.672 12.96C261.184 13.296 261.44 13.72 261.44 14.232C261.44 14.584 261.352 14.872 261.176 15.096C261.016 15.304 260.8 15.408 260.528 15.408C260.352 15.408 260.168 15.368 259.976 15.288C259.784 15.208 259.592 15.112 259.4 15C259.048 14.792 258.712 14.632 258.392 14.52C258.072 14.392 257.704 14.328 257.288 14.328C256.296 14.328 255.528 14.656 254.984 15.312C254.456 15.952 254.192 16.88 254.192 18.096C254.192 19.296 254.456 20.224 254.984 20.88C255.528 21.52 256.296 21.84 257.288 21.84C257.688 21.84 258.04 21.784 258.344 21.672C258.664 21.544 259.016 21.376 259.4 21.168C259.64 21.024 259.848 20.92 260.024 20.856C260.2 20.776 260.376 20.736 260.552 20.736C260.808 20.736 261.024 20.848 261.2 21.072C261.376 21.296 261.464 21.576 261.464 21.912C261.464 22.184 261.4 22.424 261.272 22.632C261.16 22.824 260.968 23 260.696 23.16C260.2 23.48 259.624 23.736 258.968 23.928C258.312 24.104 257.64 24.192 256.952 24.192ZM270.326 11.976C273.078 11.976 274.454 13.584 274.454 16.8V22.704C274.454 23.152 274.318 23.504 274.046 23.76C273.79 24.016 273.43 24.144 272.966 24.144C272.502 24.144 272.134 24.016 271.862 23.76C271.59 23.504 271.454 23.152 271.454 22.704V16.8C271.454 15.952 271.278 15.336 270.926 14.952C270.59 14.552 270.054 14.352 269.318 14.352C268.454 14.352 267.758 14.624 267.23 15.168C266.718 15.712 266.462 16.44 266.462 17.352V22.704C266.462 23.152 266.326 23.504 266.054 23.76C265.782 24.016 265.414 24.144 264.95 24.144C264.486 24.144 264.118 24.016 263.846 23.76C263.59 23.504 263.462 23.152 263.462 22.704V8.352C263.462 7.936 263.598 7.6 263.87 7.344C264.158 7.088 264.526 6.96 264.974 6.96C265.422 6.96 265.782 7.08 266.054 7.32C266.326 7.56 266.462 7.888 266.462 8.304V13.896C266.862 13.272 267.39 12.8 268.046 12.48C268.718 12.144 269.478 11.976 270.326 11.976ZM282.709 24.192C281.541 24.192 280.509 23.944 279.613 23.448C278.733 22.952 278.053 22.248 277.573 21.336C277.093 20.424 276.853 19.36 276.853 18.144C276.853 16.928 277.101 15.856 277.597 14.928C278.109 13.984 278.821 13.256 279.733 12.744C280.645 12.232 281.693 11.976 282.877 11.976C283.501 11.976 284.125 12.064 284.749 12.24C285.389 12.416 285.949 12.656 286.429 12.96C286.941 13.296 287.197 13.72 287.197 14.232C287.197 14.584 287.109 14.872 286.933 15.096C286.773 15.304 286.557 15.408 286.285 15.408C286.109 15.408 285.925 15.368 285.733 15.288C285.541 15.208 285.349 15.112 285.157 15C284.805 14.792 284.469 14.632 284.149 14.52C283.829 14.392 283.461 14.328 283.045 14.328C282.053 14.328 281.285 14.656 280.741 15.312C280.213 15.952 279.949 16.88 279.949 18.096C279.949 19.296 280.213 20.224 280.741 20.88C281.285 21.52 282.053 21.84 283.045 21.84C283.445 21.84 283.797 21.784 284.101 21.672C284.421 21.544 284.773 21.376 285.157 21.168C285.397 21.024 285.605 20.92 285.781 20.856C285.957 20.776 286.133 20.736 286.309 20.736C286.565 20.736 286.781 20.848 286.957 21.072C287.133 21.296 287.221 21.576 287.221 21.912C287.221 22.184 287.157 22.424 287.029 22.632C286.917 22.824 286.725 23 286.453 23.16C285.957 23.48 285.381 23.736 284.725 23.928C284.069 24.104 283.397 24.192 282.709 24.192ZM298.604 26.808C298.732 26.776 298.812 26.76 298.844 26.76C299.02 26.76 299.156 26.832 299.252 26.976C299.364 27.12 299.42 27.288 299.42 27.48C299.42 27.816 299.284 28.048 299.012 28.176C298.452 28.512 297.788 28.68 297.02 28.68C296.156 28.68 295.444 28.432 294.884 27.936C294.34 27.456 294.068 26.84 294.068 26.088C294.068 25.352 294.34 24.72 294.884 24.192H294.74C292.836 24.192 291.332 23.648 290.228 22.56C289.124 21.472 288.572 19.984 288.572 18.096C288.572 16.896 288.812 15.832 289.292 14.904C289.772 13.976 290.444 13.256 291.308 12.744C292.188 12.232 293.18 11.976 294.284 11.976C295.34 11.976 296.26 12.208 297.044 12.672C297.828 13.136 298.436 13.792 298.868 14.64C299.3 15.488 299.516 16.488 299.516 17.64C299.516 18.328 299.212 18.672 298.604 18.672H291.524C291.62 19.776 291.932 20.592 292.46 21.12C292.988 21.632 293.756 21.888 294.764 21.888C295.276 21.888 295.724 21.824 296.108 21.696C296.508 21.568 296.956 21.392 297.452 21.168C297.932 20.912 298.284 20.784 298.508 20.784C298.78 20.784 298.996 20.888 299.156 21.096C299.332 21.304 299.42 21.584 299.42 21.936C299.42 22.208 299.332 22.448 299.156 22.656C298.996 22.864 298.74 23.064 298.388 23.256C297.524 23.72 296.924 24.128 296.588 24.48C296.252 24.832 296.084 25.224 296.084 25.656C296.084 26.088 296.204 26.424 296.444 26.664C296.7 26.904 297.036 27.024 297.452 27.024C297.836 27.024 298.22 26.952 298.604 26.808ZM294.356 14.088C293.54 14.088 292.884 14.344 292.388 14.856C291.908 15.368 291.62 16.104 291.524 17.064H296.948C296.916 16.088 296.676 15.352 296.228 14.856C295.78 14.344 295.156 14.088 294.356 14.088ZM315.23 11.976C316.238 11.976 317.134 12.232 317.918 12.744C318.718 13.256 319.334 13.984 319.766 14.928C320.214 15.856 320.438 16.928 320.438 18.144C320.438 19.36 320.214 20.424 319.766 21.336C319.334 22.248 318.726 22.952 317.942 23.448C317.158 23.944 316.254 24.192 315.23 24.192C314.398 24.192 313.654 24.016 312.998 23.664C312.342 23.312 311.838 22.824 311.486 22.2V27.096C311.486 27.512 311.35 27.84 311.078 28.08C310.806 28.32 310.446 28.44 309.998 28.44C309.55 28.44 309.182 28.312 308.894 28.056C308.622 27.8 308.486 27.464 308.486 27.048V13.44C308.486 13.008 308.614 12.664 308.87 12.408C309.142 12.152 309.502 12.024 309.95 12.024C310.398 12.024 310.758 12.152 311.03 12.408C311.302 12.664 311.438 13.008 311.438 13.44V14.04C311.79 13.384 312.294 12.88 312.95 12.528C313.622 12.16 314.382 11.976 315.23 11.976ZM314.438 21.864C315.382 21.864 316.118 21.544 316.646 20.904C317.174 20.248 317.438 19.328 317.438 18.144C317.438 16.928 317.174 15.984 316.646 15.312C316.118 14.64 315.382 14.304 314.438 14.304C313.478 14.304 312.734 14.632 312.206 15.288C311.694 15.944 311.438 16.88 311.438 18.096C311.438 19.296 311.694 20.224 312.206 20.88C312.734 21.536 313.478 21.864 314.438 21.864ZM328.252 24.192C327.052 24.192 325.996 23.944 325.084 23.448C324.188 22.952 323.492 22.24 322.996 21.312C322.5 20.384 322.252 19.304 322.252 18.072C322.252 16.84 322.5 15.768 322.996 14.856C323.492 13.928 324.188 13.216 325.084 12.72C325.996 12.224 327.052 11.976 328.252 11.976C329.452 11.976 330.5 12.224 331.396 12.72C332.308 13.216 333.004 13.928 333.484 14.856C333.98 15.768 334.228 16.84 334.228 18.072C334.228 19.304 333.98 20.384 333.484 21.312C333.004 22.24 332.308 22.952 331.396 23.448C330.5 23.944 329.452 24.192 328.252 24.192ZM328.228 21.864C329.204 21.864 329.948 21.544 330.46 20.904C330.972 20.264 331.228 19.32 331.228 18.072C331.228 16.84 330.972 15.904 330.46 15.264C329.948 14.608 329.212 14.28 328.252 14.28C327.292 14.28 326.548 14.608 326.02 15.264C325.508 15.904 325.252 16.84 325.252 18.072C325.252 19.32 325.508 20.264 326.02 20.904C326.532 21.544 327.268 21.864 328.228 21.864ZM346.497 6.96C346.945 6.96 347.313 7.088 347.601 7.344C347.889 7.6 348.033 7.936 348.033 8.352V22.704C348.033 23.136 347.897 23.48 347.625 23.736C347.353 23.992 346.993 24.12 346.545 24.12C346.097 24.12 345.737 23.992 345.465 23.736C345.193 23.48 345.057 23.136 345.057 22.704V22.104C344.705 22.76 344.193 23.272 343.521 23.64C342.865 24.008 342.113 24.192 341.265 24.192C340.257 24.192 339.353 23.936 338.553 23.424C337.769 22.912 337.153 22.192 336.705 21.264C336.273 20.32 336.057 19.24 336.057 18.024C336.057 16.808 336.273 15.744 336.705 14.832C337.153 13.92 337.769 13.216 338.553 12.72C339.337 12.224 340.241 11.976 341.265 11.976C342.113 11.976 342.865 12.152 343.521 12.504C344.177 12.856 344.681 13.352 345.033 13.992V8.304C345.033 7.904 345.161 7.584 345.417 7.344C345.689 7.088 346.049 6.96 346.497 6.96ZM342.057 21.864C343.017 21.864 343.753 21.536 344.265 20.88C344.793 20.224 345.057 19.288 345.057 18.072C345.057 16.856 344.793 15.928 344.265 15.288C343.753 14.632 343.025 14.304 342.081 14.304C341.121 14.304 340.377 14.624 339.849 15.264C339.321 15.904 339.057 16.824 339.057 18.024C339.057 19.24 339.321 20.184 339.849 20.856C340.377 21.528 341.113 21.864 342.057 21.864ZM356.207 11.976C357.839 11.976 359.047 12.384 359.831 13.2C360.631 14 361.031 15.224 361.031 16.872V22.728C361.031 23.16 360.903 23.504 360.647 23.76C360.391 24 360.039 24.12 359.591 24.12C359.175 24.12 358.831 23.992 358.559 23.736C358.303 23.48 358.175 23.144 358.175 22.728V22.2C357.903 22.824 357.471 23.312 356.879 23.664C356.303 24.016 355.631 24.192 354.863 24.192C354.079 24.192 353.367 24.032 352.727 23.712C352.087 23.392 351.583 22.952 351.215 22.392C350.847 21.832 350.663 21.208 350.663 20.52C350.663 19.656 350.879 18.976 351.311 18.48C351.759 17.984 352.479 17.624 353.471 17.4C354.463 17.176 355.831 17.064 357.575 17.064H358.175V16.512C358.175 15.728 358.007 15.16 357.671 14.808C357.335 14.44 356.791 14.256 356.039 14.256C355.575 14.256 355.103 14.328 354.623 14.472C354.143 14.6 353.575 14.792 352.919 15.048C352.503 15.256 352.199 15.36 352.007 15.36C351.719 15.36 351.479 15.256 351.287 15.048C351.111 14.84 351.023 14.568 351.023 14.232C351.023 13.96 351.087 13.728 351.215 13.536C351.359 13.328 351.591 13.136 351.911 12.96C352.471 12.656 353.135 12.416 353.903 12.24C354.687 12.064 355.455 11.976 356.207 11.976ZM355.463 22.032C356.263 22.032 356.911 21.768 357.407 21.24C357.919 20.696 358.175 20 358.175 19.152V18.648H357.743C356.671 18.648 355.839 18.696 355.247 18.792C354.655 18.888 354.231 19.056 353.975 19.296C353.719 19.536 353.591 19.864 353.591 20.28C353.591 20.792 353.767 21.216 354.119 21.552C354.487 21.872 354.935 22.032 355.463 22.032ZM379.944 12.912C380.056 12.624 380.216 12.408 380.424 12.264C380.648 12.12 380.888 12.048 381.144 12.048C381.512 12.048 381.84 12.176 382.128 12.432C382.432 12.672 382.584 12.976 382.584 13.344C382.584 13.552 382.544 13.736 382.464 13.896L378.504 23.184C378.376 23.488 378.176 23.72 377.904 23.88C377.648 24.04 377.36 24.12 377.04 24.12C376.736 24.12 376.448 24.04 376.176 23.88C375.92 23.72 375.728 23.488 375.6 23.184L372.744 16.32L369.984 23.184C369.856 23.488 369.656 23.72 369.384 23.88C369.128 24.04 368.84 24.12 368.52 24.12C368.216 24.12 367.928 24.04 367.656 23.88C367.384 23.72 367.184 23.488 367.056 23.184L363.12 13.896C363.04 13.688 363 13.512 363 13.368C363 13 363.16 12.688 363.48 12.432C363.8 12.16 364.152 12.024 364.536 12.024C364.808 12.024 365.056 12.096 365.28 12.24C365.504 12.384 365.672 12.6 365.784 12.888L368.616 20.208L371.52 12.96C371.648 12.656 371.832 12.432 372.072 12.288C372.312 12.128 372.576 12.048 372.864 12.048C373.152 12.048 373.416 12.128 373.656 12.288C373.896 12.432 374.08 12.656 374.208 12.96L377.136 20.232L379.944 12.912ZM389.558 11.976C391.19 11.976 392.398 12.384 393.182 13.2C393.982 14 394.382 15.224 394.382 16.872V22.728C394.382 23.16 394.254 23.504 393.998 23.76C393.742 24 393.39 24.12 392.942 24.12C392.526 24.12 392.182 23.992 391.91 23.736C391.654 23.48 391.526 23.144 391.526 22.728V22.2C391.254 22.824 390.822 23.312 390.23 23.664C389.654 24.016 388.982 24.192 388.214 24.192C387.43 24.192 386.718 24.032 386.078 23.712C385.438 23.392 384.934 22.952 384.566 22.392C384.198 21.832 384.014 21.208 384.014 20.52C384.014 19.656 384.23 18.976 384.662 18.48C385.11 17.984 385.83 17.624 386.822 17.4C387.814 17.176 389.182 17.064 390.926 17.064H391.526V16.512C391.526 15.728 391.358 15.16 391.022 14.808C390.686 14.44 390.142 14.256 389.39 14.256C388.926 14.256 388.454 14.328 387.974 14.472C387.494 14.6 386.926 14.792 386.27 15.048C385.854 15.256 385.55 15.36 385.358 15.36C385.07 15.36 384.83 15.256 384.638 15.048C384.462 14.84 384.374 14.568 384.374 14.232C384.374 13.96 384.438 13.728 384.566 13.536C384.71 13.328 384.942 13.136 385.262 12.96C385.822 12.656 386.486 12.416 387.254 12.24C388.038 12.064 388.806 11.976 389.558 11.976ZM388.814 22.032C389.614 22.032 390.262 21.768 390.758 21.24C391.27 20.696 391.526 20 391.526 19.152V18.648H391.094C390.022 18.648 389.19 18.696 388.598 18.792C388.006 18.888 387.582 19.056 387.326 19.296C387.07 19.536 386.942 19.864 386.942 20.28C386.942 20.792 387.118 21.216 387.47 21.552C387.838 21.872 388.286 22.032 388.814 22.032ZM402.639 24.192C401.471 24.192 400.439 23.944 399.543 23.448C398.663 22.952 397.983 22.248 397.503 21.336C397.023 20.424 396.783 19.36 396.783 18.144C396.783 16.928 397.031 15.856 397.527 14.928C398.039 13.984 398.751 13.256 399.663 12.744C400.575 12.232 401.623 11.976 402.807 11.976C403.431 11.976 404.055 12.064 404.679 12.24C405.319 12.416 405.879 12.656 406.359 12.96C406.871 13.296 407.127 13.72 407.127 14.232C407.127 14.584 407.039 14.872 406.863 15.096C406.703 15.304 406.487 15.408 406.215 15.408C406.039 15.408 405.855 15.368 405.663 15.288C405.471 15.208 405.279 15.112 405.087 15C404.735 14.792 404.399 14.632 404.079 14.52C403.759 14.392 403.391 14.328 402.975 14.328C401.983 14.328 401.215 14.656 400.671 15.312C400.143 15.952 399.879 16.88 399.879 18.096C399.879 19.296 400.143 20.224 400.671 20.88C401.215 21.52 401.983 21.84 402.975 21.84C403.375 21.84 403.727 21.784 404.031 21.672C404.351 21.544 404.703 21.376 405.087 21.168C405.327 21.024 405.535 20.92 405.711 20.856C405.887 20.776 406.063 20.736 406.239 20.736C406.495 20.736 406.711 20.848 406.887 21.072C407.063 21.296 407.151 21.576 407.151 21.912C407.151 22.184 407.087 22.424 406.959 22.632C406.847 22.824 406.655 23 406.383 23.16C405.887 23.48 405.311 23.736 404.655 23.928C403.999 24.104 403.327 24.192 402.639 24.192ZM403.407 10.656C403.231 10.784 403.055 10.848 402.879 10.848C402.655 10.848 402.463 10.776 402.303 10.632C402.159 10.472 402.087 10.288 402.087 10.08C402.087 9.904 402.151 9.728 402.279 9.552L404.607 6.456C404.975 5.976 405.399 5.736 405.879 5.736C406.231 5.736 406.527 5.864 406.767 6.12C407.023 6.36 407.151 6.648 407.151 6.984C407.151 7.432 406.935 7.816 406.503 8.136L403.407 10.656ZM296.79 54.504C297.75 54.504 298.23 54.912 298.23 55.728C298.23 56.576 297.75 57 296.79 57H288.678C287.702 57 287.214 56.576 287.214 55.728C287.214 54.912 287.702 54.504 288.678 54.504H291.174V43.56L288.87 44.976C288.646 45.104 288.446 45.168 288.27 45.168C287.934 45.168 287.646 45.024 287.406 44.736C287.182 44.448 287.07 44.128 287.07 43.776C287.07 43.312 287.278 42.952 287.694 42.696L291.414 40.392C291.894 40.104 292.35 39.96 292.782 39.96C293.23 39.96 293.59 40.096 293.862 40.368C294.134 40.64 294.27 41.016 294.27 41.496V54.504H296.79ZM306.356 57.216C304.356 57.216 302.828 56.48 301.772 55.008C300.716 53.52 300.188 51.36 300.188 48.528C300.188 45.712 300.716 43.568 301.772 42.096C302.828 40.608 304.356 39.864 306.356 39.864C308.356 39.864 309.884 40.608 310.94 42.096C311.996 43.568 312.524 45.712 312.524 48.528C312.524 51.344 311.996 53.496 310.94 54.984C309.884 56.472 308.356 57.216 306.356 57.216ZM306.356 54.792C307.444 54.792 308.236 54.296 308.732 53.304C309.228 52.296 309.476 50.704 309.476 48.528C309.476 46.336 309.228 44.752 308.732 43.776C308.236 42.784 307.444 42.288 306.356 42.288C305.268 42.288 304.476 42.784 303.98 43.776C303.484 44.768 303.236 46.352 303.236 48.528C303.236 50.704 303.484 52.296 303.98 53.304C304.476 54.296 305.268 54.792 306.356 54.792ZM321.515 56.664C321.371 56.92 321.195 57.112 320.987 57.24C320.779 57.368 320.571 57.432 320.363 57.432C320.075 57.432 319.819 57.328 319.595 57.12C319.387 56.912 319.283 56.648 319.283 56.328C319.283 56.056 319.363 55.784 319.523 55.512L328.259 40.416C328.403 40.16 328.579 39.968 328.787 39.84C328.995 39.712 329.203 39.648 329.411 39.648C329.699 39.648 329.947 39.752 330.155 39.96C330.379 40.168 330.491 40.432 330.491 40.752C330.491 41.024 330.411 41.296 330.251 41.568L321.515 56.664ZM318.851 50.184C317.507 50.184 316.459 49.744 315.707 48.864C314.955 47.984 314.579 46.696 314.579 45C314.579 43.32 314.955 42.04 315.707 41.16C316.459 40.28 317.507 39.84 318.851 39.84C320.195 39.84 321.243 40.28 321.995 41.16C322.763 42.04 323.147 43.32 323.147 45C323.147 46.696 322.763 47.984 321.995 48.864C321.243 49.744 320.195 50.184 318.851 50.184ZM318.851 48.24C319.459 48.24 319.899 47.992 320.171 47.496C320.459 46.984 320.603 46.152 320.603 45C320.603 43.88 320.459 43.064 320.171 42.552C319.883 42.04 319.443 41.784 318.851 41.784C318.259 41.784 317.819 42.04 317.531 42.552C317.259 43.048 317.123 43.864 317.123 45C317.123 46.152 317.259 46.984 317.531 47.496C317.819 47.992 318.259 48.24 318.851 48.24ZM330.923 57.168C329.579 57.168 328.531 56.728 327.779 55.848C327.027 54.968 326.651 53.672 326.651 51.96C326.651 50.28 327.027 49.008 327.779 48.144C328.547 47.264 329.595 46.824 330.923 46.824C332.267 46.824 333.315 47.264 334.067 48.144C334.819 49.024 335.195 50.304 335.195 51.984C335.195 53.68 334.819 54.968 334.067 55.848C333.315 56.728 332.267 57.168 330.923 57.168ZM330.923 55.224C331.515 55.224 331.955 54.976 332.243 54.48C332.531 53.968 332.675 53.136 332.675 51.984C332.675 50.864 332.531 50.048 332.243 49.536C331.955 49.024 331.515 48.768 330.923 48.768C330.331 48.768 329.891 49.024 329.603 49.536C329.315 50.048 329.171 50.864 329.171 51.984C329.171 53.136 329.315 53.968 329.603 54.48C329.891 54.976 330.331 55.224 330.923 55.224Z" fill="white"/>
<path d="M369.995 93C374.064 93 378.129 93.1061 382.193 93.3229C386.254 93.5352 390.305 93.858 394.352 94.2871C398.394 94.7161 402.428 95.2512 406.444 95.8926C410.46 96.5339 414.458 97.2813 418.434 98.135C422.411 98.9886 426.365 99.9439 430.292 101.01C434.215 102.071 438.112 103.235 441.977 104.499C445.843 105.769 449.673 107.135 453.464 108.608C457.258 110.077 461.009 111.647 464.72 113.314C468.431 114.982 472.093 116.746 475.711 118.608C479.324 120.47 482.889 122.425 486.405 124.473C489.917 126.525 493.376 128.666 496.777 130.9C500.174 133.129 503.513 135.451 506.79 137.861C510.068 140.267 513.283 142.762 516.428 145.34C519.572 147.919 522.651 150.577 525.654 153.319C528.661 156.061 531.589 158.879 534.446 161.776C537.304 164.673 540.081 167.64 542.784 170.683C545.481 173.726 548.1 176.836 550.634 180.016C553.168 183.2 555.619 186.442 557.985 189.755C560.347 193.063 562.625 196.433 564.809 199.865C566.994 203.293 569.086 206.783 571.09 210.321C573.093 213.864 575 217.455 576.809 221.095C578.622 224.74 580.338 228.424 581.952 232.157C583.571 235.89 585.088 239.662 586.508 243.475C587.923 247.287 589.241 251.135 590.458 255.014C591.67 258.898 592.784 262.807 593.792 266.748C594.796 270.689 595.703 274.656 596.499 278.646C597.3 282.631 597.994 286.638 598.578 290.663C599.166 294.687 599.648 298.725 600.02 302.777C600.396 306.828 600.661 310.884 600.82 314.949C600.98 319.013 601.033 323.078 600.975 327.147C600.922 331.216 600.759 335.276 600.489 339.336C600.219 343.396 599.843 347.443 599.356 351.481C598.874 355.52 598.282 359.544 597.587 363.551C596.888 367.559 596.088 371.544 595.181 375.511C594.275 379.474 593.262 383.415 592.147 387.324C591.033 391.239 589.816 395.118 588.494 398.965C587.176 402.813 585.756 406.621 584.235 410.394C582.713 414.167 581.094 417.895 579.374 421.584C577.658 425.273 575.84 428.908 573.929 432.5C572.019 436.091 570.015 439.629 567.919 443.115C565.822 446.6 563.633 450.027 561.355 453.398C559.077 456.768 556.711 460.072 554.256 463.318C551.806 466.565 549.267 469.74 546.645 472.85C544.026 475.963 541.324 479.002 538.542 481.969C535.76 484.937 532.903 487.83 529.966 490.647C527.034 493.465 524.026 496.202 520.948 498.86C517.869 501.514 514.72 504.093 511.505 506.583C508.294 509.073 505.012 511.479 501.673 513.801C498.329 516.118 494.928 518.348 491.469 520.484C488.011 522.625 484.494 524.672 480.925 526.623C477.36 528.578 473.742 530.435 470.076 532.196C466.409 533.96 462.699 535.623 458.944 537.189C455.193 538.755 451.398 540.223 447.568 541.59C443.738 542.952 439.872 544.217 435.971 545.38C432.075 546.539 428.147 547.6 424.193 548.551C420.239 549.507 416.263 550.356 412.265 551.103C408.266 551.846 404.25 552.483 400.217 553.014C396.183 553.549 392.14 553.974 388.085 554.292C384.029 554.611 379.969 554.823 375.904 554.925C371.84 555.031 367.77 555.026 363.706 554.916C359.641 554.805 355.577 554.589 351.525 554.261C347.469 553.938 343.427 553.505 339.393 552.965C335.364 552.426 331.348 551.78 327.35 551.033C323.352 550.281 319.375 549.423 315.426 548.463L369.995 324.002V93Z" fill="#F8F8F8"/>
<path d="M326.717 550.908C321.1 549.837 315.531 548.559 310.011 547.073C304.492 545.592 299.034 543.902 293.638 542.013C288.242 540.125 282.921 538.037 277.68 535.751C272.444 533.468 267.291 530.992 262.236 528.325C257.18 525.658 252.227 522.805 247.384 519.771C242.541 516.737 237.812 513.526 233.204 510.142C228.6 506.754 224.124 503.203 219.78 499.488C215.437 495.768 211.24 491.893 207.184 487.864C203.128 483.835 199.227 479.66 195.481 475.343C191.735 471.022 188.157 466.573 184.742 461.986C181.328 457.399 178.086 452.698 175.021 447.873C171.956 443.047 169.072 438.111 166.374 433.074C163.672 428.032 161.164 422.901 158.847 417.673C156.529 412.45 154.406 407.147 152.482 401.76C150.558 396.377 148.833 390.933 147.316 385.422C145.795 379.911 144.481 374.347 143.375 368.739C142.265 363.13 141.367 357.491 140.682 351.812C139.992 346.138 139.514 340.445 139.249 334.736C138.983 329.026 138.93 323.311 139.09 317.597C139.249 311.883 139.616 306.181 140.2 300.494C140.779 294.806 141.571 289.149 142.575 283.519C143.574 277.893 144.786 272.307 146.202 266.769C147.617 261.232 149.24 255.752 151.062 250.334C152.885 244.916 154.906 239.573 157.126 234.301C159.346 229.033 161.757 223.854 164.362 218.768C166.967 213.677 169.758 208.693 172.73 203.81C175.707 198.927 178.856 194.163 182.186 189.515C185.512 184.867 189.011 180.346 192.673 175.959C196.335 171.571 200.156 167.325 204.137 163.217C208.117 159.112 212.244 155.163 216.516 151.363C220.789 147.564 225.194 143.928 229.736 140.456C234.279 136.989 238.945 133.689 243.73 130.562L369.999 324.001L326.717 550.908Z" fill="#CDCDCD"/>
<path d="M234.223 137.118C239.119 133.562 244.148 130.201 249.309 127.038C254.466 123.88 259.743 120.926 265.134 118.179C270.526 115.433 276.014 112.899 281.605 110.585C287.195 108.268 292.866 106.176 298.62 104.305C304.374 102.438 310.19 100.798 316.072 99.3822C321.955 97.9713 327.881 96.7904 333.857 95.8439C339.832 94.8974 345.834 94.1853 351.862 93.7121C357.891 93.2388 363.932 93 369.978 93L370 324.002L234.223 137.118Z" fill="#A4A4A4"/>
<path d="M369.998 93C369.993 93 369.998 93 370.024 93L369.998 324.002V93Z" fill="#7D7D7D"/>
</svg>
