<svg width="232" height="278" viewBox="0 0 232 278" fill="none" xmlns="http://www.w3.org/2000/svg">
<path d="M99.5345 54.8418C101.595 54.8418 103.651 54.9046 105.705 55.0321C107.762 55.1596 109.81 55.3518 111.853 55.6068C113.896 55.86 115.932 56.1778 117.954 56.5584C119.978 56.939 121.988 57.3824 123.984 57.8868C125.981 58.393 127.959 58.9582 129.92 59.5862C131.881 60.2142 133.819 60.9013 135.738 61.6492C137.655 62.3971 139.55 63.204 141.417 64.0699C143.285 64.9339 145.124 65.8569 146.935 66.837C148.745 67.8152 150.525 68.8505 152.271 69.9391C154.016 71.0296 155.728 72.1714 157.403 73.3666C159.078 74.5617 160.715 75.8082 162.314 77.1062C163.911 78.4022 165.468 79.7477 166.981 81.1407C168.496 82.5338 169.966 83.9725 171.391 85.457C172.815 86.9414 174.193 88.4696 175.523 90.0396C176.853 91.6097 178.134 93.2178 179.363 94.8678C180.592 96.5178 181.77 98.202 182.896 99.9243C184.021 101.647 185.092 103.403 186.107 105.19C187.123 106.979 188.084 108.798 188.987 110.646C189.89 112.494 190.735 114.367 191.522 116.268C192.307 118.169 193.035 120.091 193.702 122.036C194.369 123.981 194.975 125.945 195.52 127.928C196.065 129.911 196.547 131.91 196.968 133.923C197.389 135.937 197.748 137.96 198.043 139.994C198.337 142.03 198.569 144.072 198.737 146.122C198.905 148.172 199.009 150.223 199.051 152.281C199.091 154.336 199.068 156.391 198.981 158.445C198.893 160.5 198.743 162.55 198.527 164.595C198.314 166.639 198.036 168.676 197.694 170.704C197.353 172.731 196.949 174.747 196.482 176.751C196.017 178.753 195.489 180.739 194.899 182.709C194.31 184.681 193.658 186.63 192.947 188.559C192.236 190.489 191.466 192.396 190.637 194.278C189.806 196.16 188.92 198.014 187.975 199.841C187.03 201.668 186.029 203.464 184.973 205.23C183.918 206.995 182.807 208.725 181.644 210.422C180.48 212.118 179.264 213.777 177.996 215.397C176.729 217.018 175.414 218.598 174.048 220.137C172.683 221.677 171.271 223.173 169.813 224.625C168.355 226.077 166.854 227.482 165.308 228.84C163.762 230.199 162.177 231.51 160.549 232.77C158.922 234.03 157.258 235.239 155.556 236.398C153.854 237.555 152.116 238.658 150.346 239.707C148.575 240.758 146.774 241.751 144.941 242.689C143.11 243.627 141.25 244.507 139.363 245.331C137.476 246.153 135.565 246.916 133.63 247.622C131.696 248.326 129.741 248.969 127.766 249.552C125.792 250.136 123.801 250.657 121.794 251.118C119.787 251.577 117.767 251.974 115.735 252.309C113.704 252.644 111.665 252.915 109.616 253.124C107.567 253.331 105.513 253.476 103.457 253.558C101.398 253.638 99.3402 253.655 97.2819 253.609C95.2237 253.562 93.1674 253.453 91.1168 253.278C89.0643 253.105 87.0194 252.867 84.9822 252.566C82.9449 252.266 80.9191 251.902 78.9047 251.476C76.8903 251.049 74.8912 250.562 72.9073 250.012C70.9234 249.462 68.9586 248.851 67.0128 248.18C65.067 247.508 63.1422 246.775 61.2422 245.985C59.3421 245.194 57.4669 244.345 55.6183 243.437C53.7716 242.529 51.9535 241.566 50.1659 240.546C48.3764 239.526 46.6231 238.453 44.9022 237.324C43.1794 236.194 41.4947 235.014 39.8481 233.781C38.1997 232.548 36.5912 231.265 35.0228 229.933C33.4562 228.599 31.9297 227.219 30.447 225.792C28.9663 224.364 27.5293 222.893 26.1381 221.376C24.7469 219.86 23.4053 218.303 22.1112 216.702C20.8172 215.104 19.5728 213.465 18.3817 211.789C17.1887 210.112 16.049 208.401 14.9647 206.654C13.8784 204.907 12.8474 203.128 11.8716 201.316C10.8959 199.506 9.9792 197.666 9.1178 195.797C8.25639 193.93 7.45407 192.036 6.71083 190.12C5.96758 188.202 5.28532 186.262 4.66214 184.302C4.03895 182.344 3.47675 180.366 2.97745 178.37C2.47814 176.376 2.03981 174.368 1.66438 172.345C1.28895 170.324 0.978308 168.293 0.728653 166.251C0.480905 164.209 0.294141 162.163 0.174078 160.11C0.0521096 158.058 -0.00696891 156.003 0.000654115 153.948C0.00637151 151.89 0.074979 149.837 0.210287 147.783C0.343691 145.732 0.539984 143.686 0.801072 141.646C1.06216 139.608 1.38614 137.577 1.77301 135.558C2.15988 133.539 2.60964 131.533 3.12038 129.54C3.63303 127.548 4.20475 125.574 4.83937 123.618C5.47399 121.662 6.16959 119.728 6.92427 117.813C7.67704 115.901 8.4908 114.013 9.36364 112.15C10.2346 110.287 11.1646 108.452 12.1499 106.648C13.1351 104.842 14.1776 103.07 15.2734 101.329C16.3692 99.5875 17.5184 97.8823 18.7209 96.2133C19.9215 94.5443 21.1755 92.9133 22.4791 91.3204C23.7826 89.7294 25.1338 88.1784 26.5326 86.6711C27.9333 85.162 29.3779 83.7004 30.8682 82.2807C32.3604 80.8629 33.8926 79.4907 35.4687 78.1681C37.0448 76.8435 38.6608 75.5704 40.315 74.3467C41.9711 73.1249 43.6616 71.9526 45.3901 70.8335C47.1186 69.7164 48.8795 68.6526 50.6728 67.642C52.4662 66.6334 54.29 65.6799 56.1443 64.7836C57.9967 63.8872 59.8757 63.0499 61.7815 62.2696C63.6872 61.4893 65.614 60.768 67.5636 60.1077L99.5345 154.239V54.8418Z" fill="white"/>
<path d="M63.1719 60.674C68.5935 58.5254 74.1615 56.8678 79.874 55.7012L99.7347 153.09L63.1719 60.674Z" fill="#01CCB0"/>
<path d="M75.1992 57.1074C83.3059 55.0254 91.5343 53.9844 99.8901 53.9844L99.8997 153.381L75.1992 57.1074Z" fill="#C0FFF6"/>
<path d="M167.122 248.098C167.922 248.098 168.322 248.438 168.322 249.118C168.322 249.824 167.922 250.178 167.122 250.178H160.362C159.549 250.178 159.142 249.824 159.142 249.118C159.142 248.438 159.549 248.098 160.362 248.098H162.442V238.978L160.522 240.158C160.335 240.264 160.169 240.318 160.022 240.318C159.742 240.318 159.502 240.198 159.302 239.958C159.115 239.718 159.022 239.451 159.022 239.158C159.022 238.771 159.195 238.471 159.542 238.258L162.642 236.338C163.042 236.098 163.422 235.978 163.782 235.978C164.155 235.978 164.455 236.091 164.682 236.318C164.909 236.544 165.022 236.858 165.022 237.258V248.098H167.122ZM175.834 241.158C176.714 241.158 177.487 241.351 178.154 241.738C178.834 242.111 179.361 242.638 179.734 243.318C180.107 243.998 180.294 244.778 180.294 245.658C180.294 246.578 180.081 247.391 179.654 248.098C179.241 248.804 178.647 249.358 177.874 249.758C177.114 250.144 176.234 250.338 175.234 250.338C174.407 250.338 173.594 250.204 172.794 249.938C172.007 249.658 171.334 249.284 170.774 248.818C170.467 248.551 170.314 248.238 170.314 247.878C170.314 247.584 170.394 247.338 170.554 247.138C170.727 246.924 170.927 246.818 171.154 246.818C171.287 246.818 171.414 246.844 171.534 246.898C171.654 246.938 171.794 247.011 171.954 247.118C172.487 247.491 173.007 247.778 173.514 247.978C174.021 248.178 174.561 248.278 175.134 248.278C176.014 248.278 176.687 248.058 177.154 247.618C177.621 247.178 177.854 246.551 177.854 245.738C177.854 244.951 177.614 244.331 177.134 243.878C176.667 243.411 176.021 243.178 175.194 243.178C174.674 243.178 174.207 243.251 173.794 243.398C173.394 243.544 172.981 243.791 172.554 244.138C172.301 244.311 172.041 244.398 171.774 244.398C171.507 244.398 171.281 244.318 171.094 244.158C170.907 243.998 170.814 243.784 170.814 243.518V237.278C170.814 236.904 170.921 236.611 171.134 236.398C171.347 236.184 171.647 236.078 172.034 236.078H178.694C179.494 236.078 179.894 236.411 179.894 237.078C179.894 237.744 179.494 238.078 178.694 238.078H173.334V241.878C174.014 241.398 174.847 241.158 175.834 241.158ZM183.366 245.818C182.98 245.818 182.686 245.731 182.486 245.558C182.3 245.384 182.206 245.144 182.206 244.838C182.206 244.531 182.3 244.291 182.486 244.118C182.686 243.931 182.98 243.838 183.366 243.838H187.486C187.873 243.838 188.16 243.931 188.346 244.118C188.546 244.291 188.646 244.531 188.646 244.838C188.646 245.144 188.546 245.384 188.346 245.558C188.16 245.731 187.873 245.818 187.486 245.818H183.366ZM199.718 248.098C200.518 248.098 200.918 248.438 200.918 249.118C200.918 249.824 200.518 250.178 199.718 250.178H192.118C191.771 250.178 191.498 250.078 191.298 249.878C191.098 249.664 190.998 249.404 190.998 249.098C190.998 248.698 191.151 248.338 191.458 248.018L196.018 243.118C196.578 242.504 196.985 241.944 197.238 241.438C197.505 240.918 197.638 240.404 197.638 239.898C197.638 239.271 197.458 238.791 197.098 238.458C196.738 238.124 196.225 237.958 195.558 237.958C195.011 237.958 194.478 238.064 193.958 238.278C193.451 238.478 192.938 238.758 192.418 239.118C192.285 239.211 192.151 239.291 192.018 239.358C191.885 239.411 191.751 239.438 191.618 239.438C191.391 239.438 191.191 239.331 191.018 239.118C190.858 238.904 190.778 238.651 190.778 238.358C190.778 238.158 190.811 237.984 190.878 237.838C190.958 237.691 191.078 237.551 191.238 237.418C191.825 236.951 192.511 236.584 193.298 236.318C194.085 236.038 194.871 235.898 195.658 235.898C197.031 235.898 198.125 236.244 198.938 236.938C199.765 237.631 200.178 238.564 200.178 239.738C200.178 240.551 200.005 241.318 199.658 242.038C199.311 242.744 198.725 243.538 197.898 244.418L194.438 248.098H199.718ZM207.77 250.358C206.103 250.358 204.83 249.744 203.95 248.518C203.07 247.278 202.63 245.478 202.63 243.118C202.63 240.771 203.07 238.984 203.95 237.758C204.83 236.518 206.103 235.898 207.77 235.898C209.436 235.898 210.71 236.518 211.59 237.758C212.47 238.984 212.91 240.771 212.91 243.118C212.91 245.464 212.47 247.258 211.59 248.498C210.71 249.738 209.436 250.358 207.77 250.358ZM207.77 248.338C208.676 248.338 209.336 247.924 209.75 247.098C210.163 246.258 210.37 244.931 210.37 243.118C210.37 241.291 210.163 239.971 209.75 239.158C209.336 238.331 208.676 237.918 207.77 237.918C206.863 237.918 206.203 238.331 205.79 239.158C205.376 239.984 205.17 241.304 205.17 243.118C205.17 244.931 205.376 246.258 205.79 247.098C206.203 247.924 206.863 248.338 207.77 248.338ZM169.527 262.898C171.313 262.898 172.687 263.504 173.647 264.718C174.62 265.918 175.107 267.638 175.107 269.878C175.107 271.411 174.88 272.744 174.427 273.878C173.973 274.998 173.32 275.858 172.467 276.458C171.627 277.058 170.633 277.358 169.487 277.358C168.727 277.358 167.96 277.224 167.187 276.958C166.427 276.678 165.78 276.304 165.247 275.838C165.073 275.691 164.947 275.551 164.867 275.418C164.8 275.271 164.767 275.098 164.767 274.898C164.767 274.604 164.847 274.358 165.007 274.158C165.18 273.944 165.38 273.838 165.607 273.838C165.74 273.838 165.867 273.864 165.987 273.918C166.107 273.958 166.253 274.031 166.427 274.138C167.533 274.911 168.52 275.298 169.387 275.298C170.36 275.298 171.127 274.851 171.687 273.958C172.247 273.051 172.54 271.784 172.567 270.158C172.26 270.758 171.8 271.238 171.187 271.598C170.573 271.944 169.887 272.118 169.127 272.118C168.287 272.118 167.54 271.931 166.887 271.558C166.233 271.171 165.72 270.638 165.347 269.958C164.987 269.264 164.807 268.478 164.807 267.598C164.807 266.691 165.007 265.884 165.407 265.178C165.82 264.458 166.38 263.898 167.087 263.498C167.807 263.098 168.62 262.898 169.527 262.898ZM169.667 270.078C170.413 270.078 171.013 269.844 171.467 269.378C171.933 268.898 172.167 268.278 172.167 267.518C172.167 266.744 171.933 266.124 171.467 265.658C171.013 265.178 170.413 264.938 169.667 264.938C168.933 264.938 168.347 265.178 167.907 265.658C167.467 266.124 167.247 266.744 167.247 267.518C167.247 268.291 167.467 268.911 167.907 269.378C168.347 269.844 168.933 270.078 169.667 270.078ZM186.479 272.418C186.879 272.418 187.179 272.504 187.379 272.678C187.579 272.851 187.679 273.098 187.679 273.418C187.679 274.084 187.279 274.418 186.479 274.418H185.459V275.998C185.459 276.411 185.339 276.731 185.099 276.958C184.872 277.184 184.572 277.298 184.199 277.298C183.825 277.298 183.519 277.184 183.279 276.958C183.052 276.731 182.939 276.411 182.939 275.998V274.418H177.699C177.339 274.418 177.059 274.318 176.859 274.118C176.659 273.904 176.559 273.644 176.559 273.338C176.559 273.018 176.665 272.711 176.879 272.418L183.059 263.538C183.192 263.351 183.359 263.211 183.559 263.118C183.759 263.011 183.965 262.958 184.179 262.958C184.525 262.958 184.825 263.071 185.079 263.298C185.332 263.524 185.459 263.844 185.459 264.258V272.418H186.479ZM179.219 272.418H182.939V267.038L179.219 272.418ZM194.611 276.898C194.491 277.111 194.344 277.271 194.171 277.378C193.998 277.484 193.824 277.538 193.651 277.538C193.411 277.538 193.198 277.451 193.011 277.278C192.838 277.104 192.751 276.884 192.751 276.618C192.751 276.391 192.818 276.164 192.951 275.938L200.231 263.358C200.351 263.144 200.498 262.984 200.671 262.878C200.844 262.771 201.018 262.718 201.191 262.718C201.431 262.718 201.638 262.804 201.811 262.978C201.998 263.151 202.091 263.371 202.091 263.638C202.091 263.864 202.024 264.091 201.891 264.318L194.611 276.898ZM192.391 271.498C191.271 271.498 190.398 271.131 189.771 270.398C189.144 269.664 188.831 268.591 188.831 267.178C188.831 265.778 189.144 264.711 189.771 263.978C190.398 263.244 191.271 262.878 192.391 262.878C193.511 262.878 194.384 263.244 195.011 263.978C195.651 264.711 195.971 265.778 195.971 267.178C195.971 268.591 195.651 269.664 195.011 270.398C194.384 271.131 193.511 271.498 192.391 271.498ZM192.391 269.878C192.898 269.878 193.264 269.671 193.491 269.258C193.731 268.831 193.851 268.138 193.851 267.178C193.851 266.244 193.731 265.564 193.491 265.138C193.251 264.711 192.884 264.498 192.391 264.498C191.898 264.498 191.531 264.711 191.291 265.138C191.064 265.551 190.951 266.231 190.951 267.178C190.951 268.138 191.064 268.831 191.291 269.258C191.531 269.671 191.898 269.878 192.391 269.878ZM202.451 277.318C201.331 277.318 200.458 276.951 199.831 276.218C199.204 275.484 198.891 274.404 198.891 272.978C198.891 271.578 199.204 270.518 199.831 269.798C200.471 269.064 201.344 268.698 202.451 268.698C203.571 268.698 204.444 269.064 205.071 269.798C205.698 270.531 206.011 271.598 206.011 272.998C206.011 274.411 205.698 275.484 205.071 276.218C204.444 276.951 203.571 277.318 202.451 277.318ZM202.451 275.698C202.944 275.698 203.311 275.491 203.551 275.078C203.791 274.651 203.911 273.958 203.911 272.998C203.911 272.064 203.791 271.384 203.551 270.958C203.311 270.531 202.944 270.318 202.451 270.318C201.958 270.318 201.591 270.531 201.351 270.958C201.111 271.384 200.991 272.064 200.991 272.998C200.991 273.958 201.111 274.651 201.351 275.078C201.591 275.491 201.958 275.698 202.451 275.698Z" fill="white"/>
<path d="M26.0195 28.24C26.3528 28.3867 26.5195 28.6333 26.5195 28.98C26.5195 29.2467 26.4261 29.4667 26.2395 29.64C26.0661 29.8 25.8461 29.88 25.5795 29.88C25.3928 29.88 25.2261 29.8467 25.0795 29.78L17.6595 26.62C17.3795 26.5 17.1595 26.3267 16.9995 26.1C16.8395 25.86 16.7595 25.5867 16.7595 25.28C16.7595 24.9867 16.8395 24.72 16.9995 24.48C17.1595 24.24 17.3795 24.0667 17.6595 23.96L25.0795 20.78C25.2528 20.7133 25.4195 20.68 25.5795 20.68C25.8461 20.68 26.0661 20.7667 26.2395 20.94C26.4261 21.1 26.5195 21.3133 26.5195 21.58C26.5195 21.9267 26.3528 22.1733 26.0195 22.32L18.9595 25.28L26.0195 28.24ZM37.6517 28.92C38.4517 28.92 38.8517 29.26 38.8517 29.94C38.8517 30.6467 38.4517 31 37.6517 31H30.8917C30.0783 31 29.6717 30.6467 29.6717 29.94C29.6717 29.26 30.0783 28.92 30.8917 28.92H32.9717V19.8L31.0517 20.98C30.865 21.0867 30.6983 21.14 30.5517 21.14C30.2717 21.14 30.0317 21.02 29.8317 20.78C29.645 20.54 29.5517 20.2733 29.5517 19.98C29.5517 19.5933 29.725 19.2933 30.0717 19.08L33.1717 17.16C33.5717 16.92 33.9517 16.8 34.3117 16.8C34.685 16.8 34.985 16.9133 35.2117 17.14C35.4383 17.3667 35.5517 17.68 35.5517 18.08V28.92H37.6517ZM46.3639 21.98C47.2439 21.98 48.0172 22.1733 48.6839 22.56C49.3639 22.9333 49.8905 23.46 50.2639 24.14C50.6372 24.82 50.8239 25.6 50.8239 26.48C50.8239 27.4 50.6105 28.2133 50.1839 28.92C49.7705 29.6267 49.1772 30.18 48.4039 30.58C47.6439 30.9667 46.7639 31.16 45.7639 31.16C44.9372 31.16 44.1239 31.0267 43.3239 30.76C42.5372 30.48 41.8639 30.1067 41.3039 29.64C40.9972 29.3733 40.8439 29.06 40.8439 28.7C40.8439 28.4067 40.9239 28.16 41.0839 27.96C41.2572 27.7467 41.4572 27.64 41.6839 27.64C41.8172 27.64 41.9439 27.6667 42.0639 27.72C42.1839 27.76 42.3239 27.8333 42.4839 27.94C43.0172 28.3133 43.5372 28.6 44.0439 28.8C44.5505 29 45.0905 29.1 45.6639 29.1C46.5439 29.1 47.2172 28.88 47.6839 28.44C48.1505 28 48.3839 27.3733 48.3839 26.56C48.3839 25.7733 48.1439 25.1533 47.6639 24.7C47.1972 24.2333 46.5505 24 45.7239 24C45.2039 24 44.7372 24.0733 44.3239 24.22C43.9239 24.3667 43.5105 24.6133 43.0839 24.96C42.8305 25.1333 42.5705 25.22 42.3039 25.22C42.0372 25.22 41.8105 25.14 41.6239 24.98C41.4372 24.82 41.3439 24.6067 41.3439 24.34V18.1C41.3439 17.7267 41.4505 17.4333 41.6639 17.22C41.8772 17.0067 42.1772 16.9 42.5639 16.9H49.2239C50.0239 16.9 50.4239 17.2333 50.4239 17.9C50.4239 18.5667 50.0239 18.9 49.2239 18.9H43.8639V22.7C44.5439 22.22 45.3772 21.98 46.3639 21.98ZM28.1288 55.92C28.9288 55.92 29.3288 56.26 29.3288 56.94C29.3288 57.6467 28.9288 58 28.1288 58H20.5288C20.1821 58 19.9088 57.9 19.7088 57.7C19.5088 57.4867 19.4088 57.2267 19.4088 56.92C19.4088 56.52 19.5621 56.16 19.8688 55.84L24.4288 50.94C24.9888 50.3267 25.3954 49.7667 25.6488 49.26C25.9154 48.74 26.0488 48.2267 26.0488 47.72C26.0488 47.0933 25.8688 46.6133 25.5088 46.28C25.1488 45.9467 24.6354 45.78 23.9688 45.78C23.4221 45.78 22.8888 45.8867 22.3688 46.1C21.8621 46.3 21.3488 46.58 20.8288 46.94C20.6954 47.0333 20.5621 47.1133 20.4288 47.18C20.2954 47.2333 20.1621 47.26 20.0288 47.26C19.8021 47.26 19.6021 47.1533 19.4288 46.94C19.2688 46.7267 19.1888 46.4733 19.1888 46.18C19.1888 45.98 19.2221 45.8067 19.2888 45.66C19.3688 45.5133 19.4888 45.3733 19.6488 45.24C20.2354 44.7733 20.9221 44.4067 21.7088 44.14C22.4954 43.86 23.2821 43.72 24.0688 43.72C25.4421 43.72 26.5354 44.0667 27.3488 44.76C28.1754 45.4533 28.5888 46.3867 28.5888 47.56C28.5888 48.3733 28.4154 49.14 28.0688 49.86C27.7221 50.5667 27.1354 51.36 26.3088 52.24L22.8488 55.92H28.1288ZM36.8205 57.72C36.7005 57.9333 36.5538 58.0933 36.3805 58.2C36.2072 58.3067 36.0338 58.36 35.8605 58.36C35.6205 58.36 35.4072 58.2733 35.2205 58.1C35.0472 57.9267 34.9605 57.7067 34.9605 57.44C34.9605 57.2133 35.0272 56.9867 35.1605 56.76L42.4405 44.18C42.5605 43.9667 42.7072 43.8067 42.8805 43.7C43.0538 43.5933 43.2272 43.54 43.4005 43.54C43.6405 43.54 43.8472 43.6267 44.0205 43.8C44.2072 43.9733 44.3005 44.1933 44.3005 44.46C44.3005 44.6867 44.2338 44.9133 44.1005 45.14L36.8205 57.72ZM34.6005 52.32C33.4805 52.32 32.6072 51.9533 31.9805 51.22C31.3538 50.4867 31.0405 49.4133 31.0405 48C31.0405 46.6 31.3538 45.5333 31.9805 44.8C32.6072 44.0667 33.4805 43.7 34.6005 43.7C35.7205 43.7 36.5938 44.0667 37.2205 44.8C37.8605 45.5333 38.1805 46.6 38.1805 48C38.1805 49.4133 37.8605 50.4867 37.2205 51.22C36.5938 51.9533 35.7205 52.32 34.6005 52.32ZM34.6005 50.7C35.1072 50.7 35.4738 50.4933 35.7005 50.08C35.9405 49.6533 36.0605 48.96 36.0605 48C36.0605 47.0667 35.9405 46.3867 35.7005 45.96C35.4605 45.5333 35.0938 45.32 34.6005 45.32C34.1072 45.32 33.7405 45.5333 33.5005 45.96C33.2738 46.3733 33.1605 47.0533 33.1605 48C33.1605 48.96 33.2738 49.6533 33.5005 50.08C33.7405 50.4933 34.1072 50.7 34.6005 50.7ZM44.6605 58.14C43.5405 58.14 42.6672 57.7733 42.0405 57.04C41.4138 56.3067 41.1005 55.2267 41.1005 53.8C41.1005 52.4 41.4138 51.34 42.0405 50.62C42.6805 49.8867 43.5538 49.52 44.6605 49.52C45.7805 49.52 46.6538 49.8867 47.2805 50.62C47.9072 51.3533 48.2205 52.42 48.2205 53.82C48.2205 55.2333 47.9072 56.3067 47.2805 57.04C46.6538 57.7733 45.7805 58.14 44.6605 58.14ZM44.6605 56.52C45.1538 56.52 45.5205 56.3133 45.7605 55.9C46.0005 55.4733 46.1205 54.78 46.1205 53.82C46.1205 52.8867 46.0005 52.2067 45.7605 51.78C45.5205 51.3533 45.1538 51.14 44.6605 51.14C44.1672 51.14 43.8005 51.3533 43.5605 51.78C43.3205 52.2067 43.2005 52.8867 43.2005 53.82C43.2005 54.78 43.3205 55.4733 43.5605 55.9C43.8005 56.3133 44.1672 56.52 44.6605 56.52Z" fill="white"/>
<path d="M84.3948 12.96C84.6748 13.0667 84.8948 13.24 85.0548 13.48C85.2148 13.72 85.2948 13.9867 85.2948 14.28C85.2948 14.5867 85.2148 14.86 85.0548 15.1C84.8948 15.3267 84.6748 15.5 84.3948 15.62L76.9748 18.78C76.8282 18.8467 76.6615 18.88 76.4748 18.88C76.2082 18.88 75.9815 18.8 75.7948 18.64C75.6215 18.4667 75.5348 18.2467 75.5348 17.98C75.5348 17.6333 75.7015 17.3867 76.0348 17.24L83.0948 14.28L76.0348 11.32C75.7015 11.1733 75.5348 10.9267 75.5348 10.58C75.5348 10.3133 75.6215 10.1 75.7948 9.94C75.9815 9.76667 76.2082 9.68 76.4748 9.68C76.6348 9.68 76.8015 9.71333 76.9748 9.78L84.3948 12.96ZM96.367 17.92C97.167 17.92 97.567 18.26 97.567 18.94C97.567 19.6467 97.167 20 96.367 20H88.767C88.4204 20 88.147 19.9 87.947 19.7C87.747 19.4867 87.647 19.2267 87.647 18.92C87.647 18.52 87.8004 18.16 88.107 17.84L92.667 12.94C93.227 12.3267 93.6337 11.7667 93.887 11.26C94.1537 10.74 94.287 10.2267 94.287 9.72C94.287 9.09333 94.107 8.61333 93.747 8.28C93.387 7.94667 92.8737 7.78 92.207 7.78C91.6604 7.78 91.127 7.88667 90.607 8.1C90.1004 8.3 89.587 8.58 89.067 8.94C88.9337 9.03333 88.8004 9.11333 88.667 9.18C88.5337 9.23333 88.4004 9.26 88.267 9.26C88.0404 9.26 87.8404 9.15333 87.667 8.94C87.507 8.72667 87.427 8.47333 87.427 8.18C87.427 7.98 87.4604 7.80667 87.527 7.66C87.607 7.51333 87.727 7.37333 87.887 7.24C88.4737 6.77333 89.1604 6.40667 89.947 6.14C90.7337 5.86 91.5204 5.72 92.307 5.72C93.6804 5.72 94.7737 6.06667 95.587 6.76C96.4137 7.45333 96.827 8.38667 96.827 9.56C96.827 10.3733 96.6537 11.14 96.307 11.86C95.9604 12.5667 95.3737 13.36 94.547 14.24L91.087 17.92H96.367ZM104.419 20.18C102.752 20.18 101.479 19.5667 100.599 18.34C99.7187 17.1 99.2787 15.3 99.2787 12.94C99.2787 10.5933 99.7187 8.80667 100.599 7.58C101.479 6.34 102.752 5.72 104.419 5.72C106.085 5.72 107.359 6.34 108.239 7.58C109.119 8.80667 109.559 10.5933 109.559 12.94C109.559 15.2867 109.119 17.08 108.239 18.32C107.359 19.56 106.085 20.18 104.419 20.18ZM104.419 18.16C105.325 18.16 105.985 17.7467 106.399 16.92C106.812 16.08 107.019 14.7533 107.019 12.94C107.019 11.1133 106.812 9.79333 106.399 8.98C105.985 8.15333 105.325 7.74 104.419 7.74C103.512 7.74 102.852 8.15333 102.439 8.98C102.025 9.80667 101.819 11.1267 101.819 12.94C101.819 14.7533 102.025 16.08 102.439 16.92C102.852 17.7467 103.512 18.16 104.419 18.16ZM87.4637 42.24C87.8637 42.24 88.1637 42.3267 88.3637 42.5C88.5637 42.6733 88.6637 42.92 88.6637 43.24C88.6637 43.9067 88.2637 44.24 87.4637 44.24H86.4437V45.82C86.4437 46.2333 86.3237 46.5533 86.0837 46.78C85.857 47.0067 85.557 47.12 85.1837 47.12C84.8103 47.12 84.5037 47.0067 84.2637 46.78C84.037 46.5533 83.9237 46.2333 83.9237 45.82V44.24H78.6837C78.3237 44.24 78.0437 44.14 77.8437 43.94C77.6437 43.7267 77.5437 43.4667 77.5437 43.16C77.5437 42.84 77.6503 42.5333 77.8637 42.24L84.0437 33.36C84.177 33.1733 84.3437 33.0333 84.5437 32.94C84.7437 32.8333 84.9503 32.78 85.1637 32.78C85.5103 32.78 85.8103 32.8933 86.0637 33.12C86.317 33.3467 86.4437 33.6667 86.4437 34.08V42.24H87.4637ZM80.2037 42.24H83.9237V36.86L80.2037 42.24ZM95.5959 46.72C95.4759 46.9333 95.3292 47.0933 95.1559 47.2C94.9825 47.3067 94.8092 47.36 94.6359 47.36C94.3959 47.36 94.1825 47.2733 93.9959 47.1C93.8225 46.9267 93.7359 46.7067 93.7359 46.44C93.7359 46.2133 93.8025 45.9867 93.9359 45.76L101.216 33.18C101.336 32.9667 101.483 32.8067 101.656 32.7C101.829 32.5933 102.003 32.54 102.176 32.54C102.416 32.54 102.623 32.6267 102.796 32.8C102.983 32.9733 103.076 33.1933 103.076 33.46C103.076 33.6867 103.009 33.9133 102.876 34.14L95.5959 46.72ZM93.3759 41.32C92.2559 41.32 91.3825 40.9533 90.7559 40.22C90.1292 39.4867 89.8159 38.4133 89.8159 37C89.8159 35.6 90.1292 34.5333 90.7559 33.8C91.3825 33.0667 92.2559 32.7 93.3759 32.7C94.4959 32.7 95.3692 33.0667 95.9959 33.8C96.6359 34.5333 96.9559 35.6 96.9559 37C96.9559 38.4133 96.6359 39.4867 95.9959 40.22C95.3692 40.9533 94.4959 41.32 93.3759 41.32ZM93.3759 39.7C93.8825 39.7 94.2492 39.4933 94.4759 39.08C94.7159 38.6533 94.8359 37.96 94.8359 37C94.8359 36.0667 94.7159 35.3867 94.4759 34.96C94.2359 34.5333 93.8692 34.32 93.3759 34.32C92.8825 34.32 92.5159 34.5333 92.2759 34.96C92.0492 35.3733 91.9359 36.0533 91.9359 37C91.9359 37.96 92.0492 38.6533 92.2759 39.08C92.5159 39.4933 92.8825 39.7 93.3759 39.7ZM103.436 47.14C102.316 47.14 101.443 46.7733 100.816 46.04C100.189 45.3067 99.8759 44.2267 99.8759 42.8C99.8759 41.4 100.189 40.34 100.816 39.62C101.456 38.8867 102.329 38.52 103.436 38.52C104.556 38.52 105.429 38.8867 106.056 39.62C106.683 40.3533 106.996 41.42 106.996 42.82C106.996 44.2333 106.683 45.3067 106.056 46.04C105.429 46.7733 104.556 47.14 103.436 47.14ZM103.436 45.52C103.929 45.52 104.296 45.3133 104.536 44.9C104.776 44.4733 104.896 43.78 104.896 42.82C104.896 41.8867 104.776 41.2067 104.536 40.78C104.296 40.3533 103.929 40.14 103.436 40.14C102.943 40.14 102.576 40.3533 102.336 40.78C102.096 41.2067 101.976 41.8867 101.976 42.82C101.976 43.78 102.096 44.4733 102.336 44.9C102.576 45.3133 102.943 45.52 103.436 45.52Z" fill="white"/>
</svg>