
<svg width="870" height="662" viewBox="0 0 870 662" fill="none" xmlns="http://www.w3.org/2000/svg">
<path d="M434.83 146.928C335.82 146.928 255.562 227.246 255.562 326.333C255.562 425.415 335.82 505.738 434.83 505.738C533.836 505.738 614.098 425.415 614.098 326.333C614.098 227.246 533.836 146.928 434.83 146.928Z" fill="#919191"/>
<path d="M434.978 81.625C438.969 81.625 442.961 81.7224 446.952 81.9173C450.939 82.1121 454.922 82.4088 458.895 82.7985C462.869 83.1882 466.834 83.6754 470.785 84.2599C474.732 84.8445 478.666 85.5265 482.587 86.3059C486.503 87.0808 490.397 87.9532 494.273 88.9231C498.15 89.8929 501.995 90.9557 505.818 92.1115C509.642 93.2674 513.434 94.5206 517.195 95.8624C520.957 97.2042 524.682 98.6391 528.373 100.167C532.063 101.69 535.719 103.307 539.329 105.012C542.94 106.712 546.511 108.506 550.034 110.383C553.56 112.265 557.034 114.227 560.463 116.278C563.893 118.328 567.269 120.462 570.592 122.677C573.916 124.891 577.186 127.185 580.398 129.563C583.606 131.936 586.761 134.39 589.85 136.918C592.943 139.447 595.97 142.051 598.935 144.73C601.9 147.409 604.798 150.16 607.626 152.976C610.458 155.797 613.219 158.684 615.905 161.638C618.595 164.596 621.21 167.616 623.75 170.699C626.29 173.781 628.755 176.925 631.14 180.131C633.53 183.333 635.835 186.592 638.065 189.909C640.291 193.226 642.437 196.596 644.499 200.019C646.562 203.443 648.54 206.914 650.433 210.431C652.327 213.951 654.133 217.516 655.85 221.121C657.567 224.73 659.199 228.379 660.739 232.064C662.279 235.752 663.726 239.477 665.085 243.232C666.443 246.992 667.709 250.783 668.881 254.604C670.054 258.422 671.134 262.27 672.116 266.145C673.099 270.015 673.988 273.912 674.784 277.827C675.577 281.746 676.276 285.679 676.878 289.629C677.479 293.583 677.979 297.547 678.391 301.519C678.798 305.496 679.108 309.481 679.32 313.472C679.533 317.462 679.648 321.456 679.661 325.45C679.679 329.449 679.599 333.444 679.422 337.438C679.245 341.428 678.966 345.414 678.594 349.395C678.218 353.372 677.749 357.34 677.183 361.299C676.616 365.253 675.953 369.195 675.192 373.118C674.43 377.042 673.576 380.943 672.625 384.823C671.674 388.706 670.625 392.563 669.488 396.394C668.346 400.225 667.116 404.024 665.788 407.793C664.461 411.561 663.045 415.299 661.536 418.997C660.027 422.699 658.43 426.361 656.744 429.984C655.053 433.606 653.279 437.184 651.416 440.718C649.553 444.252 647.606 447.742 645.575 451.183C643.539 454.619 641.424 458.011 639.225 461.346C637.026 464.681 634.747 467.962 632.384 471.186C630.025 474.41 627.587 477.576 625.074 480.681C622.56 483.785 619.971 486.827 617.308 489.803C614.644 492.783 611.909 495.693 609.104 498.54C606.298 501.383 603.426 504.156 600.484 506.861C597.541 509.563 594.536 512.193 591.465 514.749C588.394 517.304 585.266 519.784 582.075 522.188C578.885 524.588 575.637 526.913 572.331 529.154C569.026 531.399 565.667 533.561 562.256 535.637C558.844 537.719 555.383 539.712 551.879 541.62C548.37 543.529 544.816 545.353 541.219 547.089C537.621 548.825 533.984 550.468 530.307 552.027C526.625 553.586 522.912 555.052 519.164 556.425C515.412 557.802 511.633 559.082 507.819 560.273C504.009 561.464 500.168 562.558 496.3 563.559C492.437 564.56 488.547 565.467 484.636 566.278C480.728 567.088 476.799 567.806 472.852 568.426C468.909 569.041 464.949 569.564 460.979 569.989C457.006 570.414 453.028 570.742 449.041 570.972C445.054 571.198 441.062 571.331 437.071 571.366C433.08 571.402 429.084 571.335 425.097 571.176C421.105 571.012 417.123 570.755 413.145 570.396C409.167 570.042 405.197 569.586 401.246 569.037C397.29 568.488 393.347 567.837 389.426 567.093C385.501 566.349 381.598 565.512 377.713 564.573C373.833 563.638 369.974 562.611 366.142 561.486C362.31 560.361 358.509 559.144 354.734 557.833C350.964 556.522 347.225 555.118 343.521 553.626C339.817 552.133 336.149 550.548 332.525 548.874C328.896 547.2 325.312 545.442 321.772 543.591C318.232 541.744 314.74 539.809 311.293 537.79C307.846 535.766 304.452 533.662 301.111 531.479C297.766 529.292 294.478 527.024 291.248 524.677C288.018 522.33 284.845 519.903 281.73 517.401C278.619 514.899 275.565 512.317 272.579 509.665C269.592 507.012 266.671 504.289 263.817 501.494C260.963 498.7 258.179 495.835 255.467 492.903C252.754 489.971 250.113 486.973 247.546 483.913C244.98 480.849 242.488 477.727 240.072 474.543C237.656 471.363 235.324 468.121 233.067 464.822C230.811 461.523 228.638 458.175 226.545 454.77C224.452 451.364 222.447 447.91 220.522 444.407C218.602 440.904 216.765 437.357 215.013 433.766C213.265 430.17 211.606 426.538 210.035 422.863C208.46 419.192 206.982 415.481 205.592 411.734C204.203 407.988 202.902 404.206 201.698 400.397C200.495 396.589 199.379 392.749 198.366 388.883C197.348 385.022 196.423 381.134 195.596 377.223C194.769 373.313 194.038 369.385 193.406 365.439C192.768 361.494 192.229 357.534 191.79 353.562C191.348 349.59 191.003 345.609 190.759 341.619C190.512 337.633 190.361 333.639 190.312 329.644L434.978 326.5V81.625Z" fill="white"/>
<path d="M190.794 341.876C190.533 337.717 190.378 333.55 190.329 329.383C190.281 325.216 190.338 321.049 190.502 316.886C190.666 312.719 190.935 308.565 191.312 304.411C191.688 300.261 192.17 296.121 192.759 291.994C193.343 287.871 194.037 283.761 194.834 279.669C195.63 275.577 196.529 271.512 197.533 267.464C198.538 263.421 199.644 259.405 200.852 255.415C202.06 251.425 203.37 247.47 204.781 243.551C206.193 239.627 207.702 235.744 209.313 231.9C210.919 228.056 212.627 224.256 214.428 220.496C216.233 216.741 218.127 213.03 220.123 209.372C222.114 205.71 224.199 202.105 226.371 198.549C228.548 194.997 230.814 191.503 233.168 188.063C235.522 184.626 237.965 181.252 240.487 177.935C243.014 174.622 245.625 171.376 248.315 168.197C251.01 165.017 253.78 161.908 256.63 158.87C259.484 155.832 262.409 152.87 265.409 149.978C268.414 147.091 271.485 144.279 274.631 141.551C277.777 138.818 280.99 136.166 284.269 133.602C287.548 131.033 290.893 128.553 294.3 126.153C297.707 123.757 301.172 121.45 304.695 119.231C308.221 117.013 311.801 114.883 315.434 112.845C319.067 110.808 322.749 108.869 326.484 107.018C330.214 105.171 333.993 103.417 337.812 101.766C341.635 100.109 345.494 98.5505 349.396 97.0935C353.299 95.6366 357.233 94.2815 361.202 93.0238C365.172 91.7661 369.172 90.6103 373.203 89.5608C377.23 88.5068 381.283 87.5591 385.363 86.7133C389.439 85.8674 393.536 85.1279 397.652 84.4902C401.767 83.8569 405.895 83.3255 410.037 82.9004C414.179 82.4753 418.33 82.1564 422.489 81.9438C426.649 81.7313 430.808 81.625 434.972 81.625L434.999 326.5L190.794 341.876Z" fill="#C0FFF6"/>
<path d="M434.999 81.625C434.991 81.625 434.999 81.625 435.026 81.625L434.999 326.5V81.625Z" fill="#71A7BF"/>
<path d="M521.072 386.08C521.488 386.08 521.808 386.2 522.032 386.44C522.256 386.664 522.368 386.96 522.368 387.328C522.368 387.696 522.256 388.08 522.032 388.48L514.376 402.376C514.056 402.92 513.616 403.192 513.056 403.192C512.672 403.192 512.328 403.064 512.024 402.808C511.736 402.536 511.592 402.208 511.592 401.824C511.592 401.552 511.672 401.28 511.832 401.008L518.72 388.576H511.472C510.512 388.576 510.032 388.168 510.032 387.352C510.032 386.504 510.512 386.08 511.472 386.08H521.072ZM535.991 397.288C536.471 397.288 536.831 397.392 537.071 397.6C537.311 397.808 537.431 398.104 537.431 398.488C537.431 399.288 536.951 399.688 535.991 399.688H534.767V401.584C534.767 402.08 534.623 402.464 534.335 402.736C534.063 403.008 533.703 403.144 533.255 403.144C532.807 403.144 532.439 403.008 532.151 402.736C531.879 402.464 531.743 402.08 531.743 401.584V399.688H525.455C525.023 399.688 524.687 399.568 524.447 399.328C524.207 399.072 524.087 398.76 524.087 398.392C524.087 398.008 524.215 397.64 524.471 397.288L531.887 386.632C532.047 386.408 532.247 386.24 532.487 386.128C532.727 386 532.975 385.936 533.231 385.936C533.647 385.936 534.007 386.072 534.311 386.344C534.615 386.616 534.767 387 534.767 387.496V397.288H535.991ZM527.279 397.288H531.743V390.832L527.279 397.288ZM545.749 402.664C545.605 402.92 545.429 403.112 545.221 403.24C545.013 403.368 544.805 403.432 544.597 403.432C544.309 403.432 544.053 403.328 543.829 403.12C543.621 402.912 543.517 402.648 543.517 402.328C543.517 402.056 543.597 401.784 543.757 401.512L552.493 386.416C552.637 386.16 552.813 385.968 553.021 385.84C553.229 385.712 553.437 385.648 553.645 385.648C553.933 385.648 554.181 385.752 554.389 385.96C554.613 386.168 554.725 386.432 554.725 386.752C554.725 387.024 554.645 387.296 554.485 387.568L545.749 402.664ZM543.085 396.184C541.741 396.184 540.693 395.744 539.941 394.864C539.189 393.984 538.813 392.696 538.813 391C538.813 389.32 539.189 388.04 539.941 387.16C540.693 386.28 541.741 385.84 543.085 385.84C544.429 385.84 545.477 386.28 546.229 387.16C546.997 388.04 547.381 389.32 547.381 391C547.381 392.696 546.997 393.984 546.229 394.864C545.477 395.744 544.429 396.184 543.085 396.184ZM543.085 394.24C543.693 394.24 544.133 393.992 544.405 393.496C544.693 392.984 544.837 392.152 544.837 391C544.837 389.88 544.693 389.064 544.405 388.552C544.117 388.04 543.677 387.784 543.085 387.784C542.493 387.784 542.053 388.04 541.765 388.552C541.493 389.048 541.357 389.864 541.357 391C541.357 392.152 541.493 392.984 541.765 393.496C542.053 393.992 542.493 394.24 543.085 394.24ZM555.157 403.168C553.813 403.168 552.765 402.728 552.013 401.848C551.261 400.968 550.885 399.672 550.885 397.96C550.885 396.28 551.261 395.008 552.013 394.144C552.781 393.264 553.829 392.824 555.157 392.824C556.501 392.824 557.549 393.264 558.301 394.144C559.053 395.024 559.429 396.304 559.429 397.984C559.429 399.68 559.053 400.968 558.301 401.848C557.549 402.728 556.501 403.168 555.157 403.168ZM555.157 401.224C555.749 401.224 556.189 400.976 556.477 400.48C556.765 399.968 556.909 399.136 556.909 397.984C556.909 396.864 556.765 396.048 556.477 395.536C556.189 395.024 555.749 394.768 555.157 394.768C554.565 394.768 554.125 395.024 553.837 395.536C553.549 396.048 553.405 396.864 553.405 397.984C553.405 399.136 553.549 399.968 553.837 400.48C554.125 400.976 554.565 401.224 555.157 401.224Z" fill="#5C5C5C"/>
<path d="M303.952 233.504C304.912 233.504 305.392 233.912 305.392 234.728C305.392 235.576 304.912 236 303.952 236H294.832C294.416 236 294.088 235.88 293.848 235.64C293.608 235.384 293.488 235.072 293.488 234.704C293.488 234.224 293.672 233.792 294.04 233.408L299.512 227.528C300.184 226.792 300.672 226.12 300.976 225.512C301.296 224.888 301.456 224.272 301.456 223.664C301.456 222.912 301.24 222.336 300.808 221.936C300.376 221.536 299.76 221.336 298.96 221.336C298.304 221.336 297.664 221.464 297.04 221.72C296.432 221.96 295.816 222.296 295.192 222.728C295.032 222.84 294.872 222.936 294.712 223.016C294.552 223.08 294.392 223.112 294.232 223.112C293.96 223.112 293.72 222.984 293.512 222.728C293.32 222.472 293.224 222.168 293.224 221.816C293.224 221.576 293.264 221.368 293.344 221.192C293.44 221.016 293.584 220.848 293.776 220.688C294.48 220.128 295.304 219.688 296.248 219.368C297.192 219.032 298.136 218.864 299.08 218.864C300.728 218.864 302.04 219.28 303.016 220.112C304.008 220.944 304.504 222.064 304.504 223.472C304.504 224.448 304.296 225.368 303.88 226.232C303.464 227.08 302.76 228.032 301.768 229.088L297.616 233.504H303.952ZM314.646 225.152C315.654 225.152 316.55 225.384 317.334 225.848C318.118 226.296 318.726 226.936 319.158 227.768C319.606 228.584 319.83 229.52 319.83 230.576C319.83 231.664 319.582 232.64 319.086 233.504C318.606 234.352 317.934 235.016 317.07 235.496C316.222 235.976 315.254 236.216 314.166 236.216C312.022 236.216 310.366 235.496 309.198 234.056C308.046 232.6 307.47 230.528 307.47 227.84C307.47 226 307.742 224.408 308.286 223.064C308.83 221.704 309.606 220.664 310.614 219.944C311.638 219.224 312.838 218.864 314.214 218.864C315.126 218.864 316.038 219.032 316.95 219.368C317.878 219.688 318.662 220.128 319.302 220.688C319.51 220.864 319.654 221.04 319.734 221.216C319.83 221.376 319.878 221.576 319.878 221.816C319.878 222.168 319.774 222.472 319.566 222.728C319.374 222.968 319.142 223.088 318.87 223.088C318.71 223.088 318.558 223.064 318.414 223.016C318.27 222.952 318.094 222.856 317.886 222.728C316.558 221.8 315.374 221.336 314.334 221.336C313.166 221.336 312.246 221.88 311.574 222.968C310.902 224.04 310.55 225.552 310.518 227.504C310.886 226.784 311.438 226.216 312.174 225.8C312.91 225.368 313.734 225.152 314.646 225.152ZM313.998 233.768C314.878 233.768 315.582 233.488 316.11 232.928C316.638 232.352 316.902 231.6 316.902 230.672C316.902 229.744 316.638 229 316.11 228.44C315.582 227.88 314.878 227.6 313.998 227.6C313.102 227.6 312.374 227.888 311.814 228.464C311.27 229.024 310.998 229.76 310.998 230.672C310.998 231.6 311.27 232.352 311.814 232.928C312.374 233.488 313.102 233.768 313.998 233.768ZM328.773 235.664C328.629 235.92 328.453 236.112 328.245 236.24C328.037 236.368 327.829 236.432 327.621 236.432C327.333 236.432 327.077 236.328 326.853 236.12C326.645 235.912 326.541 235.648 326.541 235.328C326.541 235.056 326.621 234.784 326.781 234.512L335.517 219.416C335.661 219.16 335.837 218.968 336.045 218.84C336.253 218.712 336.461 218.648 336.669 218.648C336.957 218.648 337.205 218.752 337.413 218.96C337.637 219.168 337.749 219.432 337.749 219.752C337.749 220.024 337.669 220.296 337.509 220.568L328.773 235.664ZM326.109 229.184C324.765 229.184 323.717 228.744 322.965 227.864C322.213 226.984 321.837 225.696 321.837 224C321.837 222.32 322.213 221.04 322.965 220.16C323.717 219.28 324.765 218.84 326.109 218.84C327.453 218.84 328.501 219.28 329.253 220.16C330.021 221.04 330.405 222.32 330.405 224C330.405 225.696 330.021 226.984 329.253 227.864C328.501 228.744 327.453 229.184 326.109 229.184ZM326.109 227.24C326.717 227.24 327.157 226.992 327.429 226.496C327.717 225.984 327.861 225.152 327.861 224C327.861 222.88 327.717 222.064 327.429 221.552C327.141 221.04 326.701 220.784 326.109 220.784C325.517 220.784 325.077 221.04 324.789 221.552C324.517 222.048 324.381 222.864 324.381 224C324.381 225.152 324.517 225.984 324.789 226.496C325.077 226.992 325.517 227.24 326.109 227.24ZM338.181 236.168C336.837 236.168 335.789 235.728 335.037 234.848C334.285 233.968 333.909 232.672 333.909 230.96C333.909 229.28 334.285 228.008 335.037 227.144C335.805 226.264 336.853 225.824 338.181 225.824C339.525 225.824 340.573 226.264 341.325 227.144C342.077 228.024 342.453 229.304 342.453 230.984C342.453 232.68 342.077 233.968 341.325 234.848C340.573 235.728 339.525 236.168 338.181 236.168ZM338.181 234.224C338.773 234.224 339.213 233.976 339.501 233.48C339.789 232.968 339.933 232.136 339.933 230.984C339.933 229.864 339.789 229.048 339.501 228.536C339.213 228.024 338.773 227.768 338.181 227.768C337.589 227.768 337.149 228.024 336.861 228.536C336.573 229.048 336.429 229.864 336.429 230.984C336.429 232.136 336.573 232.968 336.861 233.48C337.149 233.976 337.589 234.224 338.181 234.224Z" fill="#5C5C5C"/>
<path d="M97.64 129.96C98.088 129.96 98.44 130.104 98.696 130.392C98.968 130.664 99.104 131.032 99.104 131.496V145.584C99.104 146.048 98.968 146.424 98.696 146.712C98.424 147 98.072 147.144 97.64 147.144C97.128 147.144 96.736 146.96 96.464 146.592L87.704 135.192V145.584C87.704 146.048 87.576 146.424 87.32 146.712C87.064 147 86.712 147.144 86.264 147.144C85.816 147.144 85.464 147 85.208 146.712C84.952 146.424 84.824 146.048 84.824 145.584V131.496C84.824 131.032 84.96 130.664 85.232 130.392C85.504 130.104 85.864 129.96 86.312 129.96C86.808 129.96 87.192 130.144 87.464 130.512L96.2 141.864V131.496C96.2 131.032 96.328 130.664 96.584 130.392C96.856 130.104 97.208 129.96 97.64 129.96ZM103.978 147.144C103.546 147.144 103.186 147.024 102.898 146.784C102.626 146.528 102.49 146.168 102.49 145.704V136.44C102.49 135.976 102.626 135.624 102.898 135.384C103.186 135.144 103.546 135.024 103.978 135.024C104.41 135.024 104.77 135.144 105.058 135.384C105.346 135.624 105.49 135.976 105.49 136.44V145.704C105.49 146.168 105.346 146.528 105.058 146.784C104.77 147.024 104.41 147.144 103.978 147.144ZM103.978 132.888C103.434 132.888 103.002 132.744 102.682 132.456C102.362 132.152 102.202 131.76 102.202 131.28C102.202 130.8 102.362 130.416 102.682 130.128C103.002 129.84 103.434 129.696 103.978 129.696C104.506 129.696 104.93 129.84 105.25 130.128C105.586 130.416 105.754 130.8 105.754 131.28C105.754 131.76 105.594 132.152 105.274 132.456C104.954 132.744 104.522 132.888 103.978 132.888ZM117.871 143.784C118.143 143.784 118.359 143.888 118.519 144.096C118.695 144.304 118.783 144.584 118.783 144.936C118.783 145.432 118.487 145.848 117.895 146.184C117.351 146.488 116.735 146.736 116.047 146.928C115.359 147.104 114.703 147.192 114.079 147.192C112.191 147.192 110.695 146.648 109.591 145.56C108.487 144.472 107.935 142.984 107.935 141.096C107.935 139.896 108.175 138.832 108.655 137.904C109.135 136.976 109.807 136.256 110.671 135.744C111.551 135.232 112.543 134.976 113.647 134.976C114.703 134.976 115.623 135.208 116.407 135.672C117.191 136.136 117.799 136.792 118.231 137.64C118.663 138.488 118.879 139.488 118.879 140.64C118.879 141.328 118.575 141.672 117.967 141.672H110.887C110.983 142.776 111.295 143.592 111.823 144.12C112.351 144.632 113.119 144.888 114.127 144.888C114.639 144.888 115.087 144.824 115.471 144.696C115.871 144.568 116.319 144.392 116.815 144.168C117.295 143.912 117.647 143.784 117.871 143.784ZM113.719 137.088C112.903 137.088 112.247 137.344 111.751 137.856C111.271 138.368 110.983 139.104 110.887 140.064H116.311C116.279 139.088 116.039 138.352 115.591 137.856C115.143 137.344 114.519 137.088 113.719 137.088ZM136.585 144.744C137.481 144.744 137.929 145.12 137.929 145.872C137.929 146.224 137.817 146.504 137.593 146.712C137.369 146.904 137.033 147 136.585 147H128.569C128.169 147 127.841 146.872 127.585 146.616C127.329 146.36 127.201 146.056 127.201 145.704C127.201 145.336 127.345 144.984 127.633 144.648L133.801 137.52H128.449C128.001 137.52 127.665 137.424 127.441 137.232C127.217 137.04 127.105 136.76 127.105 136.392C127.105 136.024 127.217 135.744 127.441 135.552C127.665 135.36 128.001 135.264 128.449 135.264H136.201C136.617 135.264 136.945 135.392 137.185 135.648C137.441 135.888 137.569 136.192 137.569 136.56C137.569 136.944 137.433 137.296 137.161 137.616L130.969 144.744H136.585ZM146.899 134.976C148.307 134.976 149.355 135.376 150.043 136.176C150.731 136.976 151.075 138.184 151.075 139.8V145.704C151.075 146.152 150.939 146.504 150.667 146.76C150.411 147.016 150.051 147.144 149.587 147.144C149.123 147.144 148.755 147.016 148.483 146.76C148.211 146.504 148.075 146.152 148.075 145.704V139.968C148.075 139.056 147.899 138.392 147.547 137.976C147.211 137.56 146.675 137.352 145.939 137.352C145.075 137.352 144.379 137.624 143.851 138.168C143.339 138.712 143.083 139.44 143.083 140.352V145.704C143.083 146.152 142.947 146.504 142.675 146.76C142.403 147.016 142.035 147.144 141.571 147.144C141.107 147.144 140.739 147.016 140.467 146.76C140.211 146.504 140.083 146.152 140.083 145.704V136.416C140.083 136 140.219 135.664 140.491 135.408C140.763 135.152 141.131 135.024 141.595 135.024C142.011 135.024 142.347 135.152 142.603 135.408C142.875 135.648 143.011 135.968 143.011 136.368V137.016C143.411 136.36 143.947 135.856 144.619 135.504C145.291 135.152 146.051 134.976 146.899 134.976ZM159.211 134.976C160.843 134.976 162.051 135.384 162.835 136.2C163.635 137 164.035 138.224 164.035 139.872V145.728C164.035 146.16 163.907 146.504 163.651 146.76C163.395 147 163.043 147.12 162.595 147.12C162.179 147.12 161.835 146.992 161.563 146.736C161.307 146.48 161.179 146.144 161.179 145.728V145.2C160.907 145.824 160.475 146.312 159.883 146.664C159.307 147.016 158.635 147.192 157.867 147.192C157.083 147.192 156.371 147.032 155.73 146.712C155.091 146.392 154.587 145.952 154.219 145.392C153.851 144.832 153.667 144.208 153.667 143.52C153.667 142.656 153.883 141.976 154.315 141.48C154.763 140.984 155.483 140.624 156.475 140.4C157.467 140.176 158.835 140.064 160.579 140.064H161.179V139.512C161.179 138.728 161.011 138.16 160.675 137.808C160.339 137.44 159.795 137.256 159.043 137.256C158.579 137.256 158.107 137.328 157.627 137.472C157.147 137.6 156.579 137.792 155.923 138.048C155.507 138.256 155.203 138.36 155.011 138.36C154.723 138.36 154.483 138.256 154.291 138.048C154.115 137.84 154.027 137.568 154.027 137.232C154.027 136.96 154.091 136.728 154.219 136.536C154.363 136.328 154.595 136.136 154.915 135.96C155.475 135.656 156.139 135.416 156.907 135.24C157.691 135.064 158.459 134.976 159.211 134.976ZM158.467 145.032C159.267 145.032 159.915 144.768 160.411 144.24C160.923 143.696 161.179 143 161.179 142.152V141.648H160.747C159.675 141.648 158.843 141.696 158.251 141.792C157.659 141.888 157.235 142.056 156.979 142.296C156.723 142.536 156.595 142.864 156.595 143.28C156.595 143.792 156.771 144.216 157.123 144.552C157.491 144.872 157.939 145.032 158.467 145.032ZM181.027 134.976C182.307 134.976 183.283 135.36 183.955 136.128C184.643 136.88 184.987 138.104 184.987 139.8V145.704C184.987 146.168 184.843 146.528 184.555 146.784C184.283 147.024 183.923 147.144 183.475 147.144C183.043 147.144 182.683 147.024 182.395 146.784C182.123 146.528 181.987 146.168 181.987 145.704V139.8C181.987 138.92 181.827 138.296 181.507 137.928C181.203 137.544 180.731 137.352 180.091 137.352C179.307 137.352 178.683 137.624 178.219 138.168C177.755 138.696 177.523 139.424 177.523 140.352V145.704C177.523 146.168 177.379 146.528 177.091 146.784C176.819 147.024 176.467 147.144 176.035 147.144C175.603 147.144 175.243 147.024 174.955 146.784C174.667 146.528 174.523 146.168 174.523 145.704V139.8C174.523 138.92 174.363 138.296 174.043 137.928C173.739 137.544 173.267 137.352 172.627 137.352C171.843 137.352 171.219 137.624 170.755 138.168C170.307 138.696 170.083 139.424 170.083 140.352V145.704C170.083 146.168 169.939 146.528 169.651 146.784C169.363 147.024 169.003 147.144 168.571 147.144C168.139 147.144 167.779 147.024 167.491 146.784C167.219 146.528 167.083 146.168 167.083 145.704V136.416C167.083 135.968 167.227 135.624 167.515 135.384C167.803 135.144 168.163 135.024 168.595 135.024C169.011 135.024 169.347 135.144 169.603 135.384C169.875 135.608 170.011 135.936 170.011 136.368V136.944C170.379 136.304 170.867 135.816 171.475 135.48C172.099 135.144 172.811 134.976 173.611 134.976C175.371 134.976 176.547 135.712 177.139 137.184C177.491 136.512 178.011 135.976 178.699 135.576C179.387 135.176 180.163 134.976 181.027 134.976Z" fill="white"/>
<path d="M668.456 527.528C669.416 527.528 669.896 527.936 669.896 528.752C669.896 529.584 669.416 530 668.456 530H658.232C657.816 530 657.48 529.88 657.224 529.64C656.984 529.384 656.864 529.064 656.864 528.68C656.864 528.296 656.992 527.928 657.248 527.576L665.84 515.552H658.328C657.368 515.552 656.888 515.144 656.888 514.328C656.888 513.496 657.368 513.08 658.328 513.08H668.24C668.656 513.08 668.984 513.208 669.224 513.464C669.48 513.704 669.608 514.008 669.608 514.376C669.608 514.744 669.472 515.112 669.2 515.48L660.608 527.528H668.456ZM678.814 517.976C680.222 517.976 681.27 518.376 681.958 519.176C682.646 519.976 682.99 521.184 682.99 522.8V528.704C682.99 529.152 682.854 529.504 682.582 529.76C682.326 530.016 681.966 530.144 681.502 530.144C681.038 530.144 680.67 530.016 680.398 529.76C680.126 529.504 679.99 529.152 679.99 528.704V522.968C679.99 522.056 679.814 521.392 679.462 520.976C679.126 520.56 678.59 520.352 677.854 520.352C676.99 520.352 676.294 520.624 675.766 521.168C675.254 521.712 674.998 522.44 674.998 523.352V528.704C674.998 529.152 674.862 529.504 674.59 529.76C674.318 530.016 673.95 530.144 673.486 530.144C673.022 530.144 672.654 530.016 672.382 529.76C672.126 529.504 671.998 529.152 671.998 528.704V519.416C671.998 519 672.134 518.664 672.406 518.408C672.678 518.152 673.046 518.024 673.51 518.024C673.926 518.024 674.262 518.152 674.518 518.408C674.79 518.648 674.926 518.968 674.926 519.368V520.016C675.326 519.36 675.862 518.856 676.534 518.504C677.206 518.152 677.966 517.976 678.814 517.976ZM691.125 517.976C692.757 517.976 693.965 518.384 694.749 519.2C695.549 520 695.949 521.224 695.949 522.872V528.728C695.949 529.16 695.821 529.504 695.565 529.76C695.309 530 694.957 530.12 694.509 530.12C694.093 530.12 693.749 529.992 693.477 529.736C693.221 529.48 693.093 529.144 693.093 528.728V528.2C692.821 528.824 692.389 529.312 691.797 529.664C691.221 530.016 690.549 530.192 689.781 530.192C688.997 530.192 688.285 530.032 687.645 529.712C687.005 529.392 686.501 528.952 686.133 528.392C685.765 527.832 685.581 527.208 685.581 526.52C685.581 525.656 685.797 524.976 686.229 524.48C686.677 523.984 687.397 523.624 688.389 523.4C689.381 523.176 690.749 523.064 692.493 523.064H693.093V522.512C693.093 521.728 692.925 521.16 692.589 520.808C692.253 520.44 691.709 520.256 690.957 520.256C690.493 520.256 690.021 520.328 689.541 520.472C689.061 520.6 688.493 520.792 687.837 521.048C687.421 521.256 687.117 521.36 686.925 521.36C686.637 521.36 686.397 521.256 686.205 521.048C686.029 520.84 685.941 520.568 685.941 520.232C685.941 519.96 686.005 519.728 686.133 519.536C686.277 519.328 686.509 519.136 686.829 518.96C687.389 518.656 688.053 518.416 688.821 518.24C689.605 518.064 690.373 517.976 691.125 517.976ZM690.381 528.032C691.181 528.032 691.829 527.768 692.325 527.24C692.837 526.696 693.093 526 693.093 525.152V524.648H692.661C691.589 524.648 690.757 524.696 690.165 524.792C689.573 524.888 689.149 525.056 688.893 525.296C688.637 525.536 688.509 525.864 688.509 526.28C688.509 526.792 688.685 527.216 689.037 527.552C689.405 527.872 689.853 528.032 690.381 528.032ZM712.942 517.976C714.222 517.976 715.198 518.36 715.87 519.128C716.558 519.88 716.902 521.104 716.902 522.8V528.704C716.902 529.168 716.758 529.528 716.47 529.784C716.198 530.024 715.838 530.144 715.39 530.144C714.958 530.144 714.598 530.024 714.31 529.784C714.038 529.528 713.902 529.168 713.902 528.704V522.8C713.902 521.92 713.742 521.296 713.422 520.928C713.118 520.544 712.646 520.352 712.006 520.352C711.222 520.352 710.598 520.624 710.134 521.168C709.67 521.696 709.438 522.424 709.438 523.352V528.704C709.438 529.168 709.294 529.528 709.006 529.784C708.734 530.024 708.382 530.144 707.95 530.144C707.518 530.144 707.158 530.024 706.87 529.784C706.582 529.528 706.438 529.168 706.438 528.704V522.8C706.438 521.92 706.278 521.296 705.958 520.928C705.654 520.544 705.182 520.352 704.542 520.352C703.758 520.352 703.134 520.624 702.67 521.168C702.222 521.696 701.998 522.424 701.998 523.352V528.704C701.998 529.168 701.854 529.528 701.566 529.784C701.278 530.024 700.918 530.144 700.486 530.144C700.054 530.144 699.694 530.024 699.406 529.784C699.134 529.528 698.998 529.168 698.998 528.704V519.416C698.998 518.968 699.142 518.624 699.43 518.384C699.718 518.144 700.078 518.024 700.51 518.024C700.926 518.024 701.262 518.144 701.518 518.384C701.79 518.608 701.926 518.936 701.926 519.368V519.944C702.294 519.304 702.782 518.816 703.39 518.48C704.014 518.144 704.726 517.976 705.526 517.976C707.286 517.976 708.462 518.712 709.054 520.184C709.406 519.512 709.926 518.976 710.614 518.576C711.302 518.176 712.078 517.976 712.942 517.976Z" fill="white"/>
</svg>
