
<svg width="641" height="640" viewBox="0 0 641 640" fill="none" xmlns="http://www.w3.org/2000/svg">
<path d="M196.189 125.32C200.23 122.742 204.342 120.291 208.532 117.969C212.725 115.645 216.984 113.458 221.311 111.4C225.635 109.339 230.025 107.415 234.468 105.63C238.915 103.844 243.413 102.197 247.959 100.688C252.51 99.1809 257.098 97.8133 261.731 96.5904C266.364 95.3675 271.026 94.2889 275.726 93.3537C280.423 92.4208 285.149 91.6323 289.897 90.993C294.642 90.3499 299.404 89.8583 304.183 89.5144C308.959 89.1669 313.746 88.9695 318.533 88.9195C323.322 88.8733 328.109 88.9709 332.891 89.2183C337.673 89.4657 342.444 89.8615 347.205 90.4059C351.96 90.949 356.699 91.6392 361.411 92.4776C366.127 93.3136 370.81 94.2965 375.464 95.4238C380.115 96.5535 384.731 97.8264 389.305 99.241C393.88 100.656 398.405 102.207 402.882 103.905C407.359 105.603 411.777 107.432 416.143 109.4C420.504 111.371 424.804 113.476 429.033 115.71C433.265 117.948 437.427 120.314 441.512 122.808C445.597 125.302 449.597 127.919 453.521 130.663C457.441 133.409 461.275 136.268 465.019 139.248C468.762 142.228 472.409 145.322 475.96 148.53C479.512 151.737 482.959 155.054 486.306 158.476C489.652 161.898 492.888 165.418 496.014 169.039C499.138 172.666 502.151 176.38 505.045 180.191C507.94 184.002 510.714 187.895 513.371 191.878C516.023 195.859 518.551 199.919 520.949 204.057C523.35 208.199 525.621 212.408 527.759 216.69C529.899 220.967 531.902 225.309 533.773 229.716C535.641 234.119 537.371 238.578 538.964 243.093C540.558 247.602 542.01 252.16 543.316 256.764C544.629 261.368 545.79 266.007 546.812 270.682C547.833 275.357 548.71 280.061 549.44 284.791C550.166 289.523 550.748 294.269 551.181 299.036C551.614 303.803 551.9 308.579 552.04 313.365C552.177 318.147 552.163 322.931 552.008 327.716C551.846 332.5 551.539 337.277 551.08 342.041C550.624 346.808 550.022 351.552 549.269 356.283C548.519 361.011 547.622 365.713 546.58 370.386C545.538 375.06 544.35 379.694 543.019 384.295C541.689 388.895 540.22 393.452 538.604 397.96C536.989 402.469 535.238 406.922 533.351 411.326C531.461 415.726 529.433 420.067 527.273 424.34C525.115 428.617 522.826 432.82 520.405 436.955C517.987 441.088 515.439 445.141 512.769 449.119C510.098 453.094 507.303 456.984 504.393 460.79C501.48 464.593 498.45 468.302 495.306 471.916C492.164 475.534 488.911 479.049 485.551 482.465C482.189 485.877 478.724 489.186 475.158 492.386C471.592 495.586 467.931 498.668 464.174 501.644C460.415 504.615 456.566 507.471 452.635 510.205C448.698 512.938 444.682 515.549 440.588 518.035C436.491 520.519 432.321 522.88 428.08 525.103C423.837 527.333 419.528 529.426 415.155 531.387C410.783 533.347 406.354 535.17 401.869 536.855C397.384 538.541 392.853 540.088 388.273 541.492C383.693 542.897 379.074 544.158 374.416 545.276C369.758 546.394 365.065 547.366 360.35 548.195C355.632 549.021 350.891 549.703 346.128 550.237C341.369 550.768 336.598 551.155 331.814 551.392C327.027 551.631 322.244 551.72 317.456 551.661C312.661 551.6 307.88 551.394 303.106 551.036C298.329 550.681 293.568 550.178 288.824 549.529C284.081 548.873 279.36 548.077 274.664 547.133C269.973 546.187 265.313 545.1 260.685 543.867C256.058 542.633 251.477 541.259 246.935 539.739C242.396 538.223 237.904 536.567 233.468 534.769C229.029 532.974 224.652 531.044 220.338 528.975C216.021 526.908 211.771 524.708 207.589 522.375C203.409 520.047 199.307 517.584 195.278 514.997C191.252 512.413 187.307 509.703 183.45 506.874C179.591 504.042 175.825 501.092 172.149 498.027C168.475 494.965 164.897 491.791 161.419 488.5C157.943 485.212 154.57 481.823 151.301 478.325C148.034 474.83 144.883 471.236 141.837 467.543C138.795 463.847 135.868 460.068 133.062 456.19C130.254 452.319 127.565 448.361 125.007 444.32C122.443 440.277 120.008 436.163 117.702 431.966C115.396 427.775 113.22 423.516 111.178 419.187C109.139 414.862 107.233 410.474 105.464 406.029C103.695 401.584 102.066 397.086 100.574 392.538C99.0853 387.988 97.7363 383.401 96.5322 378.769C95.328 374.137 94.272 369.473 93.3558 364.773C92.4382 360.079 91.6712 355.357 91.051 350.61C90.4272 345.865 89.9549 341.102 89.6291 336.33C89.301 331.554 89.1279 326.774 89.0976 321.986C89.0673 317.199 89.187 312.415 89.4565 307.636C89.7223 302.859 90.1405 298.09 90.7035 293.334C91.2688 288.581 91.9777 283.847 92.8348 279.14C93.6933 274.426 94.6973 269.751 95.8434 265.1C96.9956 260.451 98.2836 255.842 99.7194 251.274C101.153 246.703 102.729 242.183 104.442 237.712C106.161 233.242 108.01 228.826 109.999 224.467C111.992 220.112 114.114 215.821 116.367 211.594C118.622 207.371 121.006 203.217 123.521 199.138C126.033 195.061 128.67 191.066 131.432 187.15C134.193 183.234 137.07 179.407 140.067 175.671L320.614 320.294L196.189 125.32Z" fill="white"/>
<path d="M134.884 182.818C142.588 172.012 151.183 161.984 160.664 152.736L319.71 318.151L134.884 182.818Z" fill="#01CCB0"/>
<path d="M149.812 163.454C163.831 148.817 179.39 136.043 196.5 125.124L319.712 318.152L149.812 163.454Z" fill="#C0FFF6"/>
<path d="M498.528 518.504C499.488 518.504 499.968 518.912 499.968 519.728C499.968 520.576 499.488 521 498.528 521H490.416C489.44 521 488.952 520.576 488.952 519.728C488.952 518.912 489.44 518.504 490.416 518.504H492.912V507.56L490.608 508.976C490.384 509.104 490.184 509.168 490.008 509.168C489.672 509.168 489.384 509.024 489.144 508.736C488.92 508.448 488.808 508.128 488.808 507.776C488.808 507.312 489.016 506.952 489.432 506.696L493.152 504.392C493.632 504.104 494.088 503.96 494.52 503.96C494.968 503.96 495.328 504.096 495.6 504.368C495.872 504.64 496.008 505.016 496.008 505.496V518.504H498.528ZM508.983 510.176C510.039 510.176 510.967 510.408 511.767 510.872C512.583 511.32 513.215 511.952 513.663 512.768C514.111 513.584 514.335 514.52 514.335 515.576C514.335 516.68 514.079 517.656 513.567 518.504C513.071 519.352 512.359 520.016 511.431 520.496C510.519 520.96 509.463 521.192 508.263 521.192C507.271 521.192 506.295 521.032 505.335 520.712C504.391 520.376 503.583 519.928 502.911 519.368C502.543 519.048 502.359 518.672 502.359 518.24C502.359 517.888 502.455 517.592 502.647 517.352C502.855 517.096 503.095 516.968 503.367 516.968C503.527 516.968 503.679 517 503.823 517.064C503.967 517.112 504.135 517.2 504.327 517.328C504.967 517.776 505.591 518.12 506.199 518.36C506.807 518.6 507.455 518.72 508.143 518.72C509.199 518.72 510.007 518.456 510.567 517.928C511.127 517.4 511.407 516.648 511.407 515.672C511.407 514.728 511.119 513.984 510.543 513.44C509.983 512.88 509.207 512.6 508.215 512.6C507.591 512.6 507.031 512.688 506.535 512.864C506.055 513.04 505.559 513.336 505.047 513.752C504.743 513.96 504.431 514.064 504.111 514.064C503.791 514.064 503.519 513.968 503.295 513.776C503.071 513.584 502.959 513.328 502.959 513.008V505.52C502.959 505.072 503.087 504.72 503.343 504.464C503.599 504.208 503.959 504.08 504.423 504.08H512.415C513.375 504.08 513.855 504.48 513.855 505.28C513.855 506.08 513.375 506.48 512.415 506.48H505.983V511.04C506.799 510.464 507.799 510.176 508.983 510.176ZM518.021 515.768C517.557 515.768 517.205 515.664 516.965 515.456C516.741 515.248 516.629 514.96 516.629 514.592C516.629 514.224 516.741 513.936 516.965 513.728C517.205 513.504 517.557 513.392 518.021 513.392H522.965C523.429 513.392 523.773 513.504 523.997 513.728C524.237 513.936 524.357 514.224 524.357 514.592C524.357 514.96 524.237 515.248 523.997 515.456C523.773 515.664 523.429 515.768 522.965 515.768H518.021ZM537.643 518.504C538.603 518.504 539.083 518.912 539.083 519.728C539.083 520.576 538.603 521 537.643 521H528.523C528.107 521 527.779 520.88 527.539 520.64C527.299 520.384 527.179 520.072 527.179 519.704C527.179 519.224 527.363 518.792 527.731 518.408L533.203 512.528C533.875 511.792 534.363 511.12 534.667 510.512C534.987 509.888 535.147 509.272 535.147 508.664C535.147 507.912 534.931 507.336 534.499 506.936C534.067 506.536 533.451 506.336 532.651 506.336C531.995 506.336 531.355 506.464 530.731 506.72C530.123 506.96 529.507 507.296 528.883 507.728C528.723 507.84 528.563 507.936 528.403 508.016C528.243 508.08 528.083 508.112 527.923 508.112C527.651 508.112 527.411 507.984 527.203 507.728C527.011 507.472 526.915 507.168 526.915 506.816C526.915 506.576 526.955 506.368 527.035 506.192C527.131 506.016 527.275 505.848 527.467 505.688C528.171 505.128 528.995 504.688 529.939 504.368C530.883 504.032 531.827 503.864 532.771 503.864C534.419 503.864 535.731 504.28 536.707 505.112C537.699 505.944 538.195 507.064 538.195 508.472C538.195 509.448 537.987 510.368 537.571 511.232C537.155 512.08 536.451 513.032 535.459 514.088L531.307 518.504H537.643ZM547.305 521.216C545.305 521.216 543.777 520.48 542.721 519.008C541.665 517.52 541.137 515.36 541.137 512.528C541.137 509.712 541.665 507.568 542.721 506.096C543.777 504.608 545.305 503.864 547.305 503.864C549.305 503.864 550.833 504.608 551.889 506.096C552.946 507.568 553.474 509.712 553.474 512.528C553.474 515.344 552.946 517.496 551.889 518.984C550.833 520.472 549.305 521.216 547.305 521.216ZM547.305 518.792C548.393 518.792 549.185 518.296 549.681 517.304C550.177 516.296 550.425 514.704 550.425 512.528C550.425 510.336 550.177 508.752 549.681 507.776C549.185 506.784 548.393 506.288 547.305 506.288C546.217 506.288 545.425 506.784 544.929 507.776C544.433 508.768 544.185 510.352 544.185 512.528C544.185 514.704 544.433 516.296 544.929 517.304C545.425 518.296 546.217 518.792 547.305 518.792ZM501.414 536.864C503.558 536.864 505.206 537.592 506.358 539.048C507.526 540.488 508.11 542.552 508.11 545.24C508.11 547.08 507.838 548.68 507.294 550.04C506.75 551.384 505.966 552.416 504.942 553.136C503.934 553.856 502.742 554.216 501.366 554.216C500.454 554.216 499.534 554.056 498.606 553.736C497.694 553.4 496.918 552.952 496.278 552.392C496.07 552.216 495.918 552.048 495.822 551.888C495.742 551.712 495.702 551.504 495.702 551.264C495.702 550.912 495.798 550.616 495.99 550.376C496.198 550.12 496.438 549.992 496.71 549.992C496.87 549.992 497.022 550.024 497.166 550.088C497.31 550.136 497.486 550.224 497.694 550.352C499.022 551.28 500.206 551.744 501.246 551.744C502.414 551.744 503.334 551.208 504.006 550.136C504.678 549.048 505.03 547.528 505.062 545.576C504.694 546.296 504.142 546.872 503.406 547.304C502.67 547.72 501.846 547.928 500.934 547.928C499.926 547.928 499.03 547.704 498.246 547.256C497.462 546.792 496.846 546.152 496.398 545.336C495.966 544.504 495.75 543.56 495.75 542.504C495.75 541.416 495.99 540.448 496.47 539.6C496.966 538.736 497.638 538.064 498.486 537.584C499.35 537.104 500.326 536.864 501.414 536.864ZM501.582 545.48C502.478 545.48 503.198 545.2 503.742 544.64C504.302 544.064 504.582 543.32 504.582 542.408C504.582 541.48 504.302 540.736 503.742 540.176C503.198 539.6 502.478 539.312 501.582 539.312C500.702 539.312 499.998 539.6 499.47 540.176C498.942 540.736 498.678 541.48 498.678 542.408C498.678 543.336 498.942 544.08 499.47 544.64C499.998 545.2 500.702 545.48 501.582 545.48ZM521.756 548.288C522.236 548.288 522.596 548.392 522.836 548.6C523.076 548.808 523.196 549.104 523.196 549.488C523.196 550.288 522.716 550.688 521.756 550.688H520.532V552.584C520.532 553.08 520.388 553.464 520.1 553.736C519.828 554.008 519.468 554.144 519.02 554.144C518.572 554.144 518.204 554.008 517.916 553.736C517.644 553.464 517.508 553.08 517.508 552.584V550.688H511.22C510.788 550.688 510.452 550.568 510.212 550.328C509.972 550.072 509.852 549.76 509.852 549.392C509.852 549.008 509.98 548.64 510.236 548.288L517.652 537.632C517.812 537.408 518.012 537.24 518.252 537.128C518.492 537 518.74 536.936 518.996 536.936C519.412 536.936 519.772 537.072 520.076 537.344C520.38 537.616 520.532 538 520.532 538.496V548.288H521.756ZM513.044 548.288H517.508V541.832L513.044 548.288ZM531.515 553.664C531.371 553.92 531.195 554.112 530.987 554.24C530.779 554.368 530.571 554.432 530.363 554.432C530.075 554.432 529.819 554.328 529.595 554.12C529.387 553.912 529.283 553.648 529.283 553.328C529.283 553.056 529.363 552.784 529.523 552.512L538.259 537.416C538.403 537.16 538.579 536.968 538.787 536.84C538.995 536.712 539.203 536.648 539.411 536.648C539.699 536.648 539.947 536.752 540.155 536.96C540.379 537.168 540.491 537.432 540.491 537.752C540.491 538.024 540.411 538.296 540.251 538.568L531.515 553.664ZM528.851 547.184C527.507 547.184 526.459 546.744 525.707 545.864C524.955 544.984 524.579 543.696 524.579 542C524.579 540.32 524.955 539.04 525.707 538.16C526.459 537.28 527.507 536.84 528.851 536.84C530.195 536.84 531.243 537.28 531.995 538.16C532.763 539.04 533.147 540.32 533.147 542C533.147 543.696 532.763 544.984 531.995 545.864C531.243 546.744 530.195 547.184 528.851 547.184ZM528.851 545.24C529.459 545.24 529.899 544.992 530.171 544.496C530.459 543.984 530.603 543.152 530.603 542C530.603 540.88 530.459 540.064 530.171 539.552C529.883 539.04 529.443 538.784 528.851 538.784C528.259 538.784 527.819 539.04 527.531 539.552C527.259 540.048 527.123 540.864 527.123 542C527.123 543.152 527.259 543.984 527.531 544.496C527.819 544.992 528.259 545.24 528.851 545.24ZM540.923 554.168C539.579 554.168 538.531 553.728 537.779 552.848C537.027 551.968 536.651 550.672 536.651 548.96C536.651 547.28 537.027 546.008 537.779 545.144C538.547 544.264 539.595 543.824 540.923 543.824C542.267 543.824 543.315 544.264 544.067 545.144C544.819 546.024 545.195 547.304 545.195 548.984C545.195 550.68 544.819 551.968 544.067 552.848C543.315 553.728 542.267 554.168 540.923 554.168ZM540.923 552.224C541.515 552.224 541.955 551.976 542.243 551.48C542.531 550.968 542.675 550.136 542.675 548.984C542.675 547.864 542.531 547.048 542.243 546.536C541.955 546.024 541.515 545.768 540.923 545.768C540.331 545.768 539.891 546.024 539.603 546.536C539.315 547.048 539.171 547.864 539.171 548.984C539.171 550.136 539.315 550.968 539.603 551.48C539.891 551.976 540.331 552.224 540.923 552.224Z" fill="white"/>
<path d="M39.8701 149.688C40.2701 149.864 40.4701 150.16 40.4701 150.576C40.4701 150.896 40.3581 151.16 40.1341 151.368C39.9261 151.56 39.6621 151.656 39.3421 151.656C39.1181 151.656 38.9181 151.616 38.7421 151.536L29.8381 147.744C29.5021 147.6 29.2381 147.392 29.0461 147.12C28.8541 146.832 28.7581 146.504 28.7581 146.136C28.7581 145.784 28.8541 145.464 29.0461 145.176C29.2381 144.888 29.5021 144.68 29.8381 144.552L38.7421 140.736C38.9501 140.656 39.1501 140.616 39.3421 140.616C39.6621 140.616 39.9261 140.72 40.1341 140.928C40.3581 141.12 40.4701 141.376 40.4701 141.696C40.4701 142.112 40.2701 142.408 39.8701 142.584L31.3981 146.136L39.8701 149.688ZM53.8287 150.504C54.7887 150.504 55.2687 150.912 55.2687 151.728C55.2687 152.576 54.7887 153 53.8287 153H45.7167C44.7407 153 44.2527 152.576 44.2527 151.728C44.2527 150.912 44.7407 150.504 45.7167 150.504H48.2127V139.56L45.9087 140.976C45.6847 141.104 45.4847 141.168 45.3087 141.168C44.9727 141.168 44.6847 141.024 44.4447 140.736C44.2207 140.448 44.1087 140.128 44.1087 139.776C44.1087 139.312 44.3167 138.952 44.7327 138.696L48.4527 136.392C48.9327 136.104 49.3887 135.96 49.8207 135.96C50.2687 135.96 50.6287 136.096 50.9007 136.368C51.1727 136.64 51.3087 137.016 51.3087 137.496V150.504H53.8287ZM64.2833 142.176C65.3393 142.176 66.2673 142.408 67.0673 142.872C67.8833 143.32 68.5153 143.952 68.9633 144.768C69.4113 145.584 69.6353 146.52 69.6353 147.576C69.6353 148.68 69.3793 149.656 68.8673 150.504C68.3713 151.352 67.6593 152.016 66.7313 152.496C65.8193 152.96 64.7633 153.192 63.5633 153.192C62.5713 153.192 61.5953 153.032 60.6353 152.712C59.6913 152.376 58.8833 151.928 58.2113 151.368C57.8433 151.048 57.6593 150.672 57.6593 150.24C57.6593 149.888 57.7553 149.592 57.9473 149.352C58.1553 149.096 58.3953 148.968 58.6673 148.968C58.8273 148.968 58.9793 149 59.1233 149.064C59.2673 149.112 59.4353 149.2 59.6273 149.328C60.2673 149.776 60.8913 150.12 61.4993 150.36C62.1073 150.6 62.7553 150.72 63.4433 150.72C64.4993 150.72 65.3073 150.456 65.8673 149.928C66.4273 149.4 66.7073 148.648 66.7073 147.672C66.7073 146.728 66.4193 145.984 65.8433 145.44C65.2833 144.88 64.5073 144.6 63.5153 144.6C62.8913 144.6 62.3313 144.688 61.8353 144.864C61.3553 145.04 60.8593 145.336 60.3473 145.752C60.0433 145.96 59.7313 146.064 59.4113 146.064C59.0913 146.064 58.8193 145.968 58.5953 145.776C58.3713 145.584 58.2593 145.328 58.2593 145.008V137.52C58.2593 137.072 58.3873 136.72 58.6433 136.464C58.8993 136.208 59.2593 136.08 59.7233 136.08H67.7153C68.6753 136.08 69.1553 136.48 69.1553 137.28C69.1553 138.08 68.6753 138.48 67.7153 138.48H61.2833V143.04C62.0993 142.464 63.0993 142.176 64.2833 142.176ZM42.4012 183.504C43.3612 183.504 43.8412 183.912 43.8412 184.728C43.8412 185.576 43.3612 186 42.4012 186H33.2812C32.8652 186 32.5372 185.88 32.2972 185.64C32.0572 185.384 31.9372 185.072 31.9372 184.704C31.9372 184.224 32.1212 183.792 32.4892 183.408L37.9612 177.528C38.6332 176.792 39.1212 176.12 39.4252 175.512C39.7452 174.888 39.9052 174.272 39.9052 173.664C39.9052 172.912 39.6892 172.336 39.2572 171.936C38.8252 171.536 38.2092 171.336 37.4092 171.336C36.7532 171.336 36.1132 171.464 35.4892 171.72C34.8812 171.96 34.2652 172.296 33.6412 172.728C33.4812 172.84 33.3212 172.936 33.1612 173.016C33.0012 173.08 32.8412 173.112 32.6812 173.112C32.4092 173.112 32.1692 172.984 31.9612 172.728C31.7692 172.472 31.6732 172.168 31.6732 171.816C31.6732 171.576 31.7132 171.368 31.7932 171.192C31.8892 171.016 32.0332 170.848 32.2252 170.688C32.9292 170.128 33.7532 169.688 34.6972 169.368C35.6412 169.032 36.5852 168.864 37.5292 168.864C39.1772 168.864 40.4892 169.28 41.4652 170.112C42.4572 170.944 42.9532 172.064 42.9532 173.472C42.9532 174.448 42.7452 175.368 42.3292 176.232C41.9132 177.08 41.2092 178.032 40.2172 179.088L36.0652 183.504H42.4012ZM52.8313 185.664C52.6873 185.92 52.5113 186.112 52.3033 186.24C52.0953 186.368 51.8873 186.432 51.6793 186.432C51.3913 186.432 51.1353 186.328 50.9113 186.12C50.7033 185.912 50.5993 185.648 50.5993 185.328C50.5993 185.056 50.6793 184.784 50.8393 184.512L59.5753 169.416C59.7193 169.16 59.8953 168.968 60.1033 168.84C60.3113 168.712 60.5193 168.648 60.7273 168.648C61.0153 168.648 61.2633 168.752 61.4713 168.96C61.6953 169.168 61.8073 169.432 61.8073 169.752C61.8073 170.024 61.7273 170.296 61.5673 170.568L52.8313 185.664ZM50.1673 179.184C48.8233 179.184 47.7753 178.744 47.0233 177.864C46.2713 176.984 45.8953 175.696 45.8953 174C45.8953 172.32 46.2713 171.04 47.0233 170.16C47.7753 169.28 48.8233 168.84 50.1673 168.84C51.5113 168.84 52.5593 169.28 53.3113 170.16C54.0793 171.04 54.4633 172.32 54.4633 174C54.4633 175.696 54.0793 176.984 53.3113 177.864C52.5593 178.744 51.5113 179.184 50.1673 179.184ZM50.1673 177.24C50.7753 177.24 51.2153 176.992 51.4873 176.496C51.7753 175.984 51.9193 175.152 51.9193 174C51.9193 172.88 51.7753 172.064 51.4873 171.552C51.1993 171.04 50.7593 170.784 50.1673 170.784C49.5753 170.784 49.1353 171.04 48.8473 171.552C48.5753 172.048 48.4393 172.864 48.4393 174C48.4393 175.152 48.5753 175.984 48.8473 176.496C49.1353 176.992 49.5753 177.24 50.1673 177.24ZM62.2393 186.168C60.8953 186.168 59.8473 185.728 59.0953 184.848C58.3433 183.968 57.9673 182.672 57.9673 180.96C57.9673 179.28 58.3433 178.008 59.0953 177.144C59.8633 176.264 60.9113 175.824 62.2393 175.824C63.5833 175.824 64.6313 176.264 65.3833 177.144C66.1353 178.024 66.5113 179.304 66.5113 180.984C66.5113 182.68 66.1353 183.968 65.3833 184.848C64.6313 185.728 63.5833 186.168 62.2393 186.168ZM62.2393 184.224C62.8313 184.224 63.2713 183.976 63.5593 183.48C63.8473 182.968 63.9913 182.136 63.9913 180.984C63.9913 179.864 63.8473 179.048 63.5593 178.536C63.2713 178.024 62.8313 177.768 62.2393 177.768C61.6473 177.768 61.2073 178.024 60.9193 178.536C60.6313 179.048 60.4873 179.864 60.4873 180.984C60.4873 182.136 60.6313 182.968 60.9193 183.48C61.2073 183.976 61.6473 184.224 62.2393 184.224Z" fill="white"/>
<path d="M137.878 43.552C138.214 43.68 138.478 43.888 138.67 44.176C138.862 44.464 138.958 44.784 138.958 45.136C138.958 45.504 138.862 45.832 138.67 46.12C138.478 46.392 138.214 46.6 137.878 46.744L128.974 50.536C128.798 50.616 128.598 50.656 128.374 50.656C128.054 50.656 127.782 50.56 127.558 50.368C127.35 50.16 127.246 49.896 127.246 49.576C127.246 49.16 127.446 48.864 127.846 48.688L136.318 45.136L127.846 41.584C127.446 41.408 127.246 41.112 127.246 40.696C127.246 40.376 127.35 40.12 127.558 39.928C127.782 39.72 128.054 39.616 128.374 39.616C128.566 39.616 128.766 39.656 128.974 39.736L137.878 43.552ZM152.245 49.504C153.205 49.504 153.685 49.912 153.685 50.728C153.685 51.576 153.205 52 152.245 52H143.125C142.709 52 142.381 51.88 142.141 51.64C141.901 51.384 141.781 51.072 141.781 50.704C141.781 50.224 141.965 49.792 142.333 49.408L147.805 43.528C148.477 42.792 148.965 42.12 149.269 41.512C149.589 40.888 149.749 40.272 149.749 39.664C149.749 38.912 149.533 38.336 149.101 37.936C148.669 37.536 148.053 37.336 147.253 37.336C146.597 37.336 145.957 37.464 145.333 37.72C144.725 37.96 144.109 38.296 143.485 38.728C143.325 38.84 143.165 38.936 143.005 39.016C142.845 39.08 142.685 39.112 142.525 39.112C142.253 39.112 142.013 38.984 141.805 38.728C141.613 38.472 141.517 38.168 141.517 37.816C141.517 37.576 141.557 37.368 141.637 37.192C141.733 37.016 141.877 36.848 142.069 36.688C142.773 36.128 143.597 35.688 144.541 35.368C145.485 35.032 146.429 34.864 147.373 34.864C149.021 34.864 150.333 35.28 151.309 36.112C152.301 36.944 152.797 38.064 152.797 39.472C152.797 40.448 152.589 41.368 152.173 42.232C151.757 43.08 151.053 44.032 150.061 45.088L145.909 49.504H152.245ZM161.907 52.216C159.907 52.216 158.379 51.48 157.323 50.008C156.267 48.52 155.739 46.36 155.739 43.528C155.739 40.712 156.267 38.568 157.323 37.096C158.379 35.608 159.907 34.864 161.907 34.864C163.907 34.864 165.435 35.608 166.491 37.096C167.547 38.568 168.075 40.712 168.075 43.528C168.075 46.344 167.547 48.496 166.491 49.984C165.435 51.472 163.907 52.216 161.907 52.216ZM161.907 49.792C162.995 49.792 163.787 49.296 164.283 48.304C164.779 47.296 165.027 45.704 165.027 43.528C165.027 41.336 164.779 39.752 164.283 38.776C163.787 37.784 162.995 37.288 161.907 37.288C160.819 37.288 160.027 37.784 159.531 38.776C159.035 39.768 158.787 41.352 158.787 43.528C158.787 45.704 159.035 47.296 159.531 48.304C160.027 49.296 160.819 49.792 161.907 49.792ZM141.561 79.288C142.041 79.288 142.401 79.392 142.641 79.6C142.881 79.808 143.001 80.104 143.001 80.488C143.001 81.288 142.521 81.688 141.561 81.688H140.337V83.584C140.337 84.08 140.193 84.464 139.905 84.736C139.633 85.008 139.273 85.144 138.825 85.144C138.377 85.144 138.009 85.008 137.721 84.736C137.449 84.464 137.313 84.08 137.313 83.584V81.688H131.025C130.593 81.688 130.257 81.568 130.017 81.328C129.777 81.072 129.657 80.76 129.657 80.392C129.657 80.008 129.785 79.64 130.041 79.288L137.457 68.632C137.617 68.408 137.817 68.24 138.057 68.128C138.297 68 138.545 67.936 138.801 67.936C139.217 67.936 139.577 68.072 139.881 68.344C140.185 68.616 140.337 69 140.337 69.496V79.288H141.561ZM132.849 79.288H137.313V72.832L132.849 79.288ZM151.32 84.664C151.176 84.92 151 85.112 150.792 85.24C150.584 85.368 150.376 85.432 150.168 85.432C149.88 85.432 149.624 85.328 149.4 85.12C149.192 84.912 149.088 84.648 149.088 84.328C149.088 84.056 149.168 83.784 149.328 83.512L158.064 68.416C158.208 68.16 158.384 67.968 158.592 67.84C158.8 67.712 159.008 67.648 159.216 67.648C159.504 67.648 159.752 67.752 159.96 67.96C160.184 68.168 160.296 68.432 160.296 68.752C160.296 69.024 160.216 69.296 160.056 69.568L151.32 84.664ZM148.656 78.184C147.312 78.184 146.264 77.744 145.512 76.864C144.76 75.984 144.384 74.696 144.384 73C144.384 71.32 144.76 70.04 145.512 69.16C146.264 68.28 147.312 67.84 148.656 67.84C150 67.84 151.048 68.28 151.8 69.16C152.568 70.04 152.952 71.32 152.952 73C152.952 74.696 152.568 75.984 151.8 76.864C151.048 77.744 150 78.184 148.656 78.184ZM148.656 76.24C149.264 76.24 149.704 75.992 149.976 75.496C150.264 74.984 150.408 74.152 150.408 73C150.408 71.88 150.264 71.064 149.976 70.552C149.688 70.04 149.248 69.784 148.656 69.784C148.064 69.784 147.624 70.04 147.336 70.552C147.064 71.048 146.928 71.864 146.928 73C146.928 74.152 147.064 74.984 147.336 75.496C147.624 75.992 148.064 76.24 148.656 76.24ZM160.728 85.168C159.384 85.168 158.336 84.728 157.584 83.848C156.832 82.968 156.456 81.672 156.456 79.96C156.456 78.28 156.832 77.008 157.584 76.144C158.352 75.264 159.4 74.824 160.728 74.824C162.072 74.824 163.12 75.264 163.872 76.144C164.624 77.024 165 78.304 165 79.984C165 81.68 164.624 82.968 163.872 83.848C163.12 84.728 162.072 85.168 160.728 85.168ZM160.728 83.224C161.32 83.224 161.76 82.976 162.048 82.48C162.336 81.968 162.48 81.136 162.48 79.984C162.48 78.864 162.336 78.048 162.048 77.536C161.76 77.024 161.32 76.768 160.728 76.768C160.136 76.768 159.696 77.024 159.408 77.536C159.12 78.048 158.976 78.864 158.976 79.984C158.976 81.136 159.12 81.968 159.408 82.48C159.696 82.976 160.136 83.224 160.728 83.224Z" fill="white"/>
</svg>
