<svg width="463" height="464" viewBox="0 0 463 464" fill="none" xmlns="http://www.w3.org/2000/svg">
<g clip-path="url(#clip0_36_58)">
<path d="M463 231.78C463.03 258.174 458.548 284.378 449.748 309.258C449.709 309.374 449.671 309.478 449.627 309.594V309.599C443.036 328.109 434.111 345.7 423.067 361.945C421.154 364.775 419.172 367.559 417.123 370.297C414.869 373.325 412.543 376.293 410.145 379.199C407.935 381.881 405.665 384.51 403.338 387.089C400.572 390.161 397.723 393.154 394.793 396.068C387.895 402.946 380.57 409.382 372.863 415.337C371.511 416.389 370.143 417.422 368.761 418.437C365.544 420.815 362.263 423.109 358.918 425.319C351.56 430.188 343.928 434.63 336.06 438.62C334.701 439.314 333.332 439.996 331.958 440.657C326.64 443.228 321.215 445.593 315.681 447.753C314.103 448.376 312.519 448.976 310.919 449.554C310.65 449.658 310.38 449.757 310.105 449.851C291.131 456.708 271.337 461.035 251.235 462.723C249.838 462.849 248.44 462.956 247.039 463.042C245.555 463.147 244.068 463.231 242.58 463.295C241.403 463.356 240.232 463.4 239.05 463.433C238.808 463.444 238.56 463.455 238.318 463.455C236.729 463.505 235.134 463.536 233.534 463.549C232.858 463.554 232.182 463.56 231.5 463.56C231.181 463.56 230.862 463.56 230.543 463.554C225.929 463.538 221.351 463.387 216.807 463.103C216.713 463.097 216.62 463.086 216.527 463.086C214.899 462.976 213.277 462.86 211.66 462.717C205.903 462.233 200.208 461.535 194.575 460.625C193.278 460.421 191.983 460.201 190.693 459.965C185.09 458.974 179.56 457.779 174.103 456.38C172.481 455.968 170.868 455.536 169.264 455.087C146.966 448.867 125.733 439.316 106.281 426.756C102.938 424.603 99.6566 422.364 96.4379 420.039C96.042 419.764 95.6516 419.477 95.2612 419.191C87.4427 413.484 79.9883 407.293 72.9415 400.654C69.6037 397.516 66.3631 394.279 63.2196 390.943C22.5435 347.966 -0.0887106 290.987 -0.00022982 231.78C-0.00022982 103.772 103.647 0 231.5 0C359.353 0 463 103.772 463 231.78Z" fill="white"/>
<path d="M259.742 59.089C264.377 51.4135 269.87 43.2185 278.471 40.7122C288.433 37.8098 298.665 43.5755 307.345 49.2651C333.303 66.2807 358.3 84.7208 382.223 104.501L382.197 104.799C363.572 103.513 344.947 102.227 326.322 100.941C312.865 100.012 298.947 98.9546 287.055 92.5811C282.542 90.1626 278.143 86.932 273.03 86.7069C266.677 86.4272 261.137 90.8695 256.784 95.5107C231.033 122.965 223.582 164.949 194.692 189.069C212.909 144.089 234.66 100.626 259.742 59.089V59.089Z" fill="white"/>
<path d="M101.456 291.95C104.304 288.35 105.467 287.507 108.276 283.873C131.147 254.257 152.644 223.64 172.768 192.023C186.436 170.55 199.426 148.665 211.739 126.367C217.601 115.766 223.302 105.082 228.843 94.3152C233.142 85.9667 237.345 77.5683 241.453 69.1199C242.627 66.7069 243.769 64.2828 244.904 61.8531C247.581 56.1395 250.207 50.3982 253.027 44.7622C256.24 38.3386 260.152 31.6043 266.053 27.2886C268.738 25.244 271.949 24.0068 275.311 23.7218C280.114 23.4111 284.547 25.397 288.713 27.566C319.197 43.4808 347.736 63.4341 373.549 86.1387C399.428 108.894 422.56 134.603 442.473 162.74C443.082 163.611 444.523 162.779 443.908 161.902C441.486 158.474 439.017 155.083 436.5 151.729C415.61 123.893 391.519 98.6183 364.723 76.4256C351.457 65.4358 337.566 55.2248 323.12 45.8439C315.767 41.0734 308.276 36.5265 300.647 32.2034C296.802 30.0234 292.941 27.8711 289.012 25.8519C285.162 23.8716 281.073 22.0909 276.674 22.0243C261.703 21.7914 253.952 38.7657 248.628 50.1874C246.955 53.782 245.261 57.3654 243.547 60.9378C237.07 74.5007 230.344 87.9396 223.369 101.255C219.064 109.476 214.665 117.649 210.171 125.773C196.187 151.074 181.324 175.862 165.581 200.139C144.727 232.296 124.039 260.703 100.281 290.774C99.6274 291.606 100.796 292.793 101.456 291.95Z" fill="white"/>
<path d="M184.312 156.969L162.008 148.801L150.934 144.746C147.327 143.425 143.729 141.922 140.001 140.976C136.704 140.14 133.355 140.003 130.105 141.102C127.237 142.165 124.613 143.794 122.387 145.893C120.112 147.99 117.996 150.252 116.056 152.662C113.645 155.563 111.269 158.494 108.883 161.416C99.0354 173.474 89.252 185.584 79.533 197.747C69.8142 209.91 60.1603 222.124 50.5715 234.39C40.9592 246.686 31.413 259.033 21.9329 271.432C20.7716 272.951 19.6113 274.47 18.4519 275.991C17.8114 276.831 16.3672 276.002 17.0167 275.151C26.5668 262.627 36.1833 250.155 45.8665 237.734C55.5734 225.284 65.3475 212.886 75.1886 200.541C85.0295 188.196 94.9369 175.905 104.911 163.668C107.396 160.619 109.885 157.573 112.378 154.531C114.48 151.965 116.56 149.371 118.866 146.983C123.1 142.599 128.39 138.725 134.722 138.62C138.444 138.558 142.047 139.74 145.506 140.993C149.235 142.344 152.955 143.72 156.679 145.083L179.139 153.308L184.754 155.364C185.75 155.729 185.32 157.338 184.312 156.969V156.969Z" fill="white"/>
<path d="M123.226 157.051C125.422 154.375 127.796 151.573 131.08 150.486L134.146 150.607C110.806 191.899 79.2844 227.979 41.5151 256.634C68.7523 223.44 95.9894 190.245 123.226 157.051Z" fill="white"/>
<path d="M272.324 114.3C272.326 118.519 271.293 122.675 269.316 126.401C267.339 130.127 264.479 133.311 260.987 135.672C257.494 138.033 253.476 139.5 249.285 139.943C245.095 140.387 240.859 139.793 236.951 138.215C233.042 136.637 229.581 134.123 226.869 130.893C224.158 127.663 222.28 123.815 221.401 119.689C220.521 115.563 220.667 111.283 221.825 107.226C222.983 103.17 225.118 99.4594 228.043 96.4215C228.084 96.3803 228.125 96.3391 228.166 96.2979C228.372 96.0813 228.578 95.8648 228.794 95.6585C228.796 95.6585 228.797 95.6583 228.798 95.6578C228.8 95.6573 228.801 95.6565 228.802 95.6555C228.803 95.6546 228.803 95.6534 228.804 95.6522C228.804 95.6509 228.805 95.6495 228.805 95.6482C229.072 95.4007 229.34 95.1533 229.618 94.9162C233.338 91.6507 237.92 89.5279 242.814 88.8019C247.708 88.076 252.707 88.7776 257.213 90.8229C261.719 92.8681 265.541 96.1703 268.221 100.334C270.901 104.498 272.326 109.347 272.324 114.3V114.3Z" fill="#2F2E41"/>
<path d="M255.502 135.548C263.932 127.107 263.932 113.421 255.502 104.98C247.071 96.5391 233.402 96.5391 224.971 104.98C216.54 113.421 216.54 127.107 224.971 135.548C233.402 143.989 247.071 143.989 255.502 135.548Z" fill="#9E616A"/>
<path d="M255.662 99.4782C252.317 96.3448 248.158 94.2197 243.661 93.3471C239.164 92.4745 234.513 92.8898 230.241 94.5453C230.114 94.5949 229.988 94.6499 229.861 94.7105C229.856 94.7105 229.856 94.716 229.85 94.716C229.438 94.8867 229.02 95.0628 228.619 95.2555L228.371 95.3766V95.4097C228.327 95.4427 228.278 95.4813 228.228 95.5143C228.127 95.6087 228.004 95.6767 227.871 95.7125C223.719 95.7675 220.338 97.1769 217.83 99.9021C214.481 103.536 212.909 109.41 213.392 116.446L213.404 116.661L213.59 116.782C215.361 117.888 217.038 118.863 218.655 119.716C219.612 120.228 220.541 120.696 221.465 121.126C221.575 121.175 221.685 121.23 221.795 121.28C231.143 125.602 239.693 126.383 247.909 123.647L248.063 123.598L251.554 117.74C251.914 119.741 252.876 121.585 254.31 123.024C255.745 124.464 257.584 125.43 259.583 125.794L261.034 126.053L263.162 126.427L263.25 126.026C265.362 116.501 262.31 105.837 255.662 99.4782Z" fill="#2F2E41"/>
<path d="M308.696 144.844C301.35 141.047 310.798 127.268 308.899 119.212C307.001 111.156 293.329 108.565 292.458 100.334C291.587 92.1025 289.538 83.6128 284.113 77.3668C280.646 73.3756 275.538 70.4292 270.279 70.9291C268.499 71.0983 266.777 71.6494 265.23 72.545C263.682 73.4405 262.346 74.6595 261.311 76.1189C260.276 77.5783 259.568 79.2437 259.234 81.0018C258.901 82.76 258.949 84.5695 259.377 86.3071C257.88 84.1828 254.005 84.6432 253.045 87.0595C252.193 89.2075 254.076 91.8095 256.294 91.9995C259.194 95.5864 262.516 99.3931 267.061 100.117C268.525 100.35 270.171 100.179 271.24 99.1509C272.309 98.1229 272.393 96.0676 271.124 95.2993C276.836 97.5709 280.184 103.754 281.032 109.848C281.879 115.942 280.707 122.108 279.934 128.213C279.162 134.317 278.829 140.738 281.219 146.407C284.044 153.104 290.546 157.905 297.643 159.444C304.74 160.983 312.298 159.479 318.721 156.089C325.145 152.699 330.502 147.524 334.878 141.723C327.34 147.082 316.911 149.089 308.696 144.844Z" fill="#2F2E41"/>
<path d="M225.228 235.635L210.316 337.584L291.714 331.442L267.351 231.148L225.228 235.635Z" fill="#FFB8B8"/>
<path d="M310.381 448.81C310.308 449.162 310.216 449.509 310.106 449.851C300.712 453.251 291.105 456.03 281.347 458.17C279.29 451.398 275.348 438.576 271.894 428.088C269.073 419.527 266.582 412.524 265.714 411.649C263.3 409.243 265.714 406.033 265.714 406.033L255.403 373.942L250.718 359.363L249.113 389.99L246.781 434.353L246.715 435.597C246.715 435.597 243.504 445.226 245.11 446.834C246.715 448.442 243.504 454.866 243.504 454.866L242.58 463.295C241.403 463.356 240.232 463.4 239.05 463.433L238.648 463.56L238.319 463.455C236.729 463.505 235.135 463.536 233.535 463.549C232.858 463.554 232.182 463.56 231.5 463.56C231.181 463.56 230.862 463.56 230.543 463.554C225.93 463.538 221.351 463.387 216.807 463.103L213.986 440.117L211.072 416.367C211.072 416.367 214.278 409.953 211.072 406.743C209.142 404.811 210.11 402.003 211.193 400.076C210.522 397.098 209.604 392.517 208.367 385.734C208.323 385.509 208.284 385.277 208.24 385.046C207.85 382.894 207.5 380.783 207.19 378.715C206.64 375.076 206.211 371.58 205.881 368.233C204.762 357.391 204.608 346.471 205.419 335.602C205.727 331.737 206.112 328.907 206.365 327.272C206.387 327.118 206.623 326.253 207.008 324.888C207.613 322.702 208.608 319.234 209.725 315.353C210.319 313.294 210.945 311.119 211.567 308.955C212.65 305.206 213.728 301.49 214.597 298.484V298.467C215.361 295.83 215.971 293.749 216.29 292.659C216.444 292.125 216.527 291.833 216.527 291.833C216.527 291.833 216.697 291.795 217.022 291.723C218.028 291.492 220.513 290.936 223.956 290.193C227.546 289.433 232.171 288.47 237.252 287.49C241.601 286.653 246.286 285.799 250.944 285.034C252.616 284.764 254.287 284.5 255.937 284.252C266.126 282.733 275.48 281.868 279.912 282.854C280.219 282.919 280.521 283.002 280.819 283.102C281.12 283.201 281.409 283.332 281.682 283.493C281.82 283.575 283.15 288.772 284.85 295.544C284.866 295.61 284.883 295.682 284.899 295.748C285.41 297.796 285.955 299.976 286.51 302.206C287.077 304.479 287.648 306.797 288.209 309.054C289.875 315.76 291.415 321.965 292.207 325.004C292.509 326.182 292.707 326.881 292.751 326.958C294.61 330.058 296.128 337.655 297.359 347.185C298.459 355.691 299.333 365.739 300.01 375.5C300.345 380.328 300.631 385.09 300.873 389.561C301.692 404.602 302.022 416.345 302.022 416.345C302.022 416.345 303.249 426.134 305.685 430.753C305.984 431.349 306.368 431.9 306.823 432.388C308.445 434.012 308.632 435.421 308.417 436.423C308.324 436.896 308.129 437.343 307.846 437.734C307.781 437.829 307.71 437.919 307.631 438.003C307.422 438.999 307.458 440.032 307.738 441.01C308.018 441.989 308.532 442.885 309.237 443.619C310.793 445.188 310.666 447.434 310.381 448.81Z" fill="#2F2E41"/>
<path d="M283.717 202.937C283.623 202.243 283.524 201.544 283.42 200.839C283.359 200.388 283.288 199.936 283.222 199.49C282.523 194.987 285.432 191.133 281.666 188.017C280.785 187.299 280.067 186.402 279.56 185.385L278.696 183.646L277.107 180.419L273.632 173.406L273.033 172.2C272.863 171.857 272.668 171.528 272.45 171.214C271.8 170.27 270.954 169.477 269.97 168.891L261.337 163.738C260.002 162.945 258.928 161.78 258.246 160.385L258.032 159.945C257.08 157.99 255.376 153.316 253.358 151.285L253.352 151.279C252.912 150.776 252.316 150.436 251.659 150.316L243.064 149.462C241.689 149.322 240.302 149.543 239.038 150.102C237.775 150.66 236.678 151.539 235.855 152.65L235.619 153.724L234.238 160.016L234.161 160.033C233.754 160.126 233.348 160.22 232.946 160.336C224.033 162.774 220.315 193.974 220.315 193.974C220.315 193.974 214.074 204.286 216.527 210.666L220.904 220.956C220.938 221.034 220.963 221.115 220.981 221.198C221.377 222.318 221.516 223.513 221.388 224.694L221.393 225.096L221.404 225.983L221.437 228.256L221.542 235.799L221.674 245.241L221.789 253.284L221.828 255.426L214.619 286.834C214.501 287.867 214.587 288.912 214.873 289.91C215.159 290.909 215.639 291.841 216.285 292.654L216.29 292.659C216.449 292.863 216.617 293.057 216.796 293.243L216.802 293.248C216.972 293.425 217.148 293.584 217.33 293.744C218.198 294.504 219.221 295.065 220.329 295.388C221.437 295.71 222.601 295.786 223.741 295.61L224.703 295.462H224.709L238.676 293.364H238.687L240.304 293.122H240.315L255.948 290.771H255.959L258.637 290.364C258.851 290.336 259.06 290.308 259.274 290.292L273.588 289.307C273.916 289.284 274.243 289.242 274.567 289.18H274.572C275.831 288.931 277.011 288.382 278.013 287.58C279.015 286.778 279.809 285.746 280.329 284.572C280.546 284.101 280.71 283.608 280.819 283.102C280.943 282.554 281.011 281.995 281.022 281.434L281.182 267.934L281.726 224.309C281.737 222.853 282.152 221.43 282.925 220.196C284.91 217.025 284.685 210.232 283.717 202.937Z" fill="#30E3CA"/>
<path d="M259.718 319.451C259.517 318.338 259.561 317.195 259.849 316.101C260.137 315.008 260.661 313.991 261.383 313.122C262.106 312.253 263.01 311.554 264.032 311.073C265.054 310.591 266.169 310.341 267.299 310.337L276.228 284.347L284.935 295.661L275.121 318.607C275 320.507 274.187 322.297 272.837 323.637C271.486 324.977 269.692 325.775 267.793 325.879C265.895 325.983 264.024 325.386 262.536 324.201C261.047 323.016 260.045 321.326 259.718 319.451H259.718Z" fill="#9E616A"/>
<path d="M293.791 264.769L291.784 269.834L288.979 301.165C288.108 301.384 287.276 301.735 286.51 302.206C284.848 303.235 283.581 304.797 282.918 306.639C282.254 308.48 282.231 310.491 282.854 312.347L283.678 314.824L277.547 312.936L267.468 309.836L255.585 306.181L257.598 299.646C258.063 298.144 258.158 296.552 257.872 295.006C257.587 293.46 256.93 292.006 255.959 290.771C255.719 290.464 255.46 290.171 255.184 289.896L255.937 284.252L256.382 280.9L250.944 285.034L240.309 293.122H240.304L238.896 294.195C238.896 294.195 238.819 293.909 238.676 293.364C238.407 292.312 237.901 290.297 237.252 287.49C234.039 273.498 231.672 259.325 230.164 245.048C229.834 241.833 229.548 238.541 229.317 235.199C229.081 231.758 228.905 228.267 228.811 224.755C228.019 196.165 232.408 166.193 250.746 150.866C251.633 150.872 252.514 151.013 253.358 151.285C260.781 153.569 268.925 164.734 274.556 172.723C275.887 174.611 277.074 176.318 278.081 177.689L280.517 181.009C283.843 185.545 286.145 190.75 287.264 196.264C287.5 197.431 287.685 198.613 287.819 199.81L290.48 224.32V230.635L293.791 264.769Z" fill="#30E3CA"/>
<path d="M13.4116 308.706C18.1886 314.373 23.3554 319.699 28.8743 324.644L434.456 325.195C439.975 320.249 445.141 314.924 449.918 309.257L13.4116 308.706Z" fill="#CCCCCC"/>
<path d="M233.535 463.549C232.858 463.554 232.182 463.56 231.5 463.56C231.181 463.56 230.862 463.56 230.543 463.554C225.93 463.538 221.351 463.387 216.807 463.103L216.917 464L216.527 463.086L207.811 442.771L213.986 440.117L225.314 435.245L228.751 447.076L232.039 458.407L233.018 461.765L233.535 463.549Z" fill="#FFB6B6"/>
<path d="M193.157 439.963L190.693 459.965C185.09 458.974 179.56 457.779 174.104 456.38V439.969L193.157 439.963Z" fill="#FFB6B6"/>
<path d="M106.281 403.099V426.756C102.938 424.603 99.6571 422.364 96.4385 420.039V403.099H106.281Z" fill="#CACACA"/>
<path d="M144.415 399.157V410.977C144.415 413.154 143.551 415.242 142.013 416.783C140.476 418.323 138.391 419.189 136.216 419.191H95.2613C87.4428 413.484 79.9884 407.293 72.9416 400.654C69.6038 397.516 66.3632 394.279 63.2197 390.943H136.216C138.391 390.946 140.475 391.812 142.013 393.352C143.55 394.892 144.414 396.98 144.415 399.157V399.157Z" fill="#3F3D56"/>
<path d="M240.397 463.004L239.05 463.433L238.649 463.56L238.319 463.455C236.73 463.505 235.135 463.536 233.535 463.549C232.858 463.554 232.182 463.56 231.5 463.56C231.181 463.56 230.862 463.56 230.543 463.554C225.93 463.538 221.351 463.387 216.807 463.103L216.917 464L216.527 463.086C214.899 462.976 213.277 462.86 211.66 462.717L198.865 441.263L172.531 397.114L169.479 392C169.479 392 159.07 395.083 144.338 398.039C133.236 400.274 119.682 402.427 106.281 403.132C102.976 403.308 99.6826 403.396 96.4383 403.368C88.0526 403.313 79.9969 402.526 72.9419 400.654C69.6041 397.516 66.3635 394.279 63.22 390.943C57.8613 385.269 52.7923 379.329 48.0323 373.144C47.9682 370.873 48.084 368.602 48.3787 366.35C48.4282 365.975 48.4777 365.596 48.5382 365.21L50.0393 339.687L61.1909 338.211L78.1603 335.965L96.5428 333.532L98.5664 349.398C98.5664 349.398 112.88 348.672 131.015 348.914C160.142 349.31 199.118 352.217 204.397 364.693C204.891 365.865 205.386 367.049 205.881 368.233C216.131 392.815 225.545 419.004 231.94 437.612C233.161 441.158 234.266 444.423 235.25 447.352C238.5 457.025 240.397 463.004 240.397 463.004Z" fill="#2F2E41"/>
<path d="M209.219 378.759C208.95 381.093 208.665 383.418 208.367 385.734C205.727 406.22 202.093 425.787 198.865 441.263C197.287 448.816 195.802 455.39 194.576 460.625C193.278 460.422 191.984 460.201 190.694 459.965C185.09 458.974 179.56 457.779 174.104 456.381C172.481 455.968 170.868 455.536 169.265 455.087L172.531 397.114L173.609 377.939L207.19 378.715L209.219 378.759Z" fill="#2F2E41"/>
<path d="M263.214 289.091C264.615 288.308 266.169 287.842 267.769 287.726C269.369 287.609 270.975 287.846 272.473 288.418C273.972 288.99 275.327 289.884 276.443 291.037C277.559 292.191 278.409 293.575 278.933 295.093L317.921 295.139L306.748 312.06L271.437 309.422C268.832 310.134 266.057 309.865 263.636 308.665C261.216 307.466 259.32 305.419 258.306 302.913C257.293 300.407 257.233 297.616 258.137 295.069C259.042 292.521 260.848 290.394 263.214 289.091L263.214 289.091Z" fill="#FFB6B6"/>
<path d="M284.47 311.974L354.688 318.959L354.874 318.721C355.228 318.268 390.377 273.221 396.283 262.498C399.916 256.055 401.239 248.562 400.033 241.262L399.992 241.084L399.852 240.966C396.989 238.563 393.393 237.209 389.657 237.127C385.922 237.045 382.27 238.24 379.304 240.514C365.042 251.574 353.543 265.8 345.713 282.072L341.27 291.332L289.741 293.546L284.47 311.974Z" fill="#30E3CA"/>
<path d="M257.389 438.917L247.04 463.042C245.555 463.147 244.069 463.231 242.58 463.295C241.404 463.356 240.232 463.4 239.05 463.433L238.649 463.559L238.319 463.455C236.73 463.504 235.135 463.536 233.535 463.548C232.858 463.554 232.182 463.559 231.5 463.559C231.181 463.559 230.862 463.56 230.543 463.554L231.231 461.198L232.039 458.406L235.25 447.351L239.886 431.391L246.781 434.353L257.389 438.917Z" fill="#FFB6B6"/>
<path d="M331.958 440.657C326.64 443.228 321.215 445.593 315.681 447.753L310.271 438.642L327.713 430.973L331.958 440.657Z" fill="#FFB6B6"/>
<path d="M368.761 399.245V418.437C365.545 420.815 362.264 423.109 358.918 425.319V399.245H368.761Z" fill="#CACACA"/>
<path d="M403.338 387.089C400.572 390.161 397.724 393.154 394.793 396.068C387.895 402.946 380.57 409.382 372.863 415.337H328.983C327.818 415.337 326.666 415.088 325.605 414.607C324.544 414.126 323.598 413.423 322.83 412.546L322.824 412.529C321.909 411.496 321.273 410.245 320.977 408.896L320.971 408.885C320.847 408.306 320.784 407.715 320.784 407.123V395.303C320.786 393.126 321.65 391.038 323.187 389.498C324.724 387.958 326.808 387.092 328.983 387.089H403.338Z" fill="#3F3D56"/>
<path d="M421.418 340.953L416.662 361.356C417.127 364.312 417.282 367.309 417.124 370.297C414.869 373.325 412.543 376.292 410.146 379.199C407.935 381.881 405.666 384.51 403.338 387.089C400.572 390.161 397.724 393.154 394.793 396.068C387.161 398.468 378.165 399.448 368.762 399.514C365.517 399.542 362.224 399.454 358.919 399.278C345.518 398.573 331.964 396.42 320.861 394.185C317.925 393.602 315.165 393.007 312.624 392.429C307.813 391.344 303.788 390.331 300.873 389.561C297.59 388.702 295.721 388.146 295.721 388.146L283.233 409.083L271.895 428.088L251.235 462.723C249.839 462.849 248.44 462.956 247.04 463.042C245.555 463.147 244.069 463.231 242.58 463.295C241.404 463.356 240.232 463.4 239.05 463.433L238.649 463.559L238.319 463.455L233.018 461.765L231.231 461.198L224.803 459.15C224.803 459.15 226.238 454.624 228.751 447.076C229.675 444.307 230.741 441.125 231.94 437.612C236.268 424.917 242.267 407.866 249.113 389.99C251.142 384.683 253.243 379.298 255.404 373.942C257.174 369.543 258.978 365.16 260.803 360.839C263.976 353.346 279.307 349.305 297.36 347.185C298.278 347.08 299.202 346.976 300.131 346.877C309.33 345.908 319.091 345.407 328.219 345.176C332.788 345.06 337.198 345.016 341.301 345.01C342.626 345.01 343.914 345.014 345.166 345.021H345.172C348.553 345.038 351.666 345.087 354.404 345.143C354.938 345.154 355.454 345.17 355.96 345.181H355.966C356.307 345.187 356.642 345.198 356.972 345.203C362.96 345.357 366.634 345.544 366.634 345.544L368.058 334.357L368.349 332.1L368.624 329.953V329.947L368.657 329.678L368.883 329.672L372.842 329.595L406.121 328.946L424.3 328.588L421.418 340.953Z" fill="#2F2E41"/>
<path d="M336.06 438.62C334.702 439.313 333.332 439.996 331.958 440.657C326.64 443.228 321.215 445.593 315.681 447.753C314.103 448.375 312.519 448.976 310.919 449.554C310.743 449.306 310.562 449.058 310.38 448.81C302.748 438.322 293.048 424.482 283.233 409.083C279.125 402.642 274.995 395.925 270.987 389.065L300.01 375.5L303.265 373.98L312.624 392.429L320.971 408.885L322.83 412.546L336.06 438.62Z" fill="#2F2E41"/>
<path d="M378.187 209.236C392.955 209.236 404.926 197.25 404.926 182.465C404.926 167.68 392.955 155.695 378.187 155.695C363.42 155.695 351.449 167.68 351.449 182.465C351.449 197.25 363.42 209.236 378.187 209.236Z" fill="#FFB6B6"/>
<path d="M377.303 208.073C383.554 211.077 391.249 210.059 397.217 206.526C403.186 202.993 407.578 197.23 410.648 191.006C412.896 186.447 414.529 181.226 413.227 176.312C411.925 171.397 406.732 167.28 401.866 168.735C405.2 166.048 404.811 160.506 402.118 157.176C399.424 153.846 395.174 152.245 391.068 151.039C385.108 149.287 378.846 148.051 372.7 148.947C366.554 149.843 360.502 153.174 357.61 158.678C355.603 159.195 353.48 159.032 351.575 158.213C349.671 157.394 348.091 155.965 347.084 154.151C346.414 155.895 346.337 157.812 346.864 159.604C347.392 161.396 348.494 162.965 350.002 164.066L341.678 159.545C339.556 162.49 341.484 166.981 344.705 168.649C347.927 170.318 351.821 169.873 355.337 168.981C358.853 168.09 354.705 175.524 358.331 175.596C361.957 175.667 365.88 177.567 366.918 181.047C367.462 182.869 367.145 184.826 367.305 186.721C367.466 188.616 368.373 190.719 370.207 191.213C371.366 191.525 372.634 191.111 373.784 191.458C375.208 191.887 376.077 193.413 376.202 194.897C376.328 196.382 375.863 197.845 375.404 199.263C373.589 204.862 379.412 201.724 377.598 207.324L377.303 208.073Z" fill="#2F2E41"/>
<path d="M429.765 287.148C429.545 265.038 428.544 249.97 426.796 242.356C422.1 221.887 400.407 218.154 397.009 217.691C396.647 216.727 396.09 215.847 395.374 215.106C394.658 214.366 393.797 213.781 392.846 213.388C391.894 212.995 390.872 212.803 389.843 212.822C388.813 212.842 387.799 213.073 386.863 213.502L371.45 220.571C368.323 222.009 365.525 224.076 363.229 226.643C360.933 229.209 359.189 232.221 358.104 235.491L355.817 242.482L354.668 289.406L358.462 309.143L358.467 309.154L361.024 322.449L359.265 325.092L349.218 340.177L349.048 340.441L349.042 340.447L348.603 341.102C349.213 341.438 349.818 341.768 350.412 342.098C351.951 342.946 353.452 343.777 354.915 344.592C355.267 344.79 355.614 344.983 355.96 345.181H355.965C356.185 345.302 356.405 345.424 356.62 345.545C362.108 348.617 367.102 351.463 371.604 354.084C372.231 354.447 372.852 354.81 373.463 355.168C394.248 367.341 404.784 374.795 410.145 379.2C412.543 376.293 414.869 373.325 417.123 370.297C419.169 367.561 421.15 364.777 423.067 361.945C423.403 359.732 423.628 357.519 423.848 355.35C424.112 352.74 424.387 350.037 424.849 347.378C425.053 346.2 424.272 345.082 423.518 344.003C422.82 342.996 422.16 342.049 422.298 341.157C422.441 340.237 423.452 339.235 424.437 338.261C425.509 337.193 426.62 336.092 426.779 334.93C427.219 331.693 427.609 328.445 427.95 325.185C428.511 319.884 428.942 314.565 429.243 309.231C429.666 301.864 429.84 294.504 429.765 287.148Z" fill="#30E3CA"/>
<path d="M327.984 365.193C328.437 363.653 329.222 362.231 330.283 361.027C331.345 359.823 332.657 358.867 334.128 358.226C335.598 357.585 337.191 357.274 338.795 357.317C340.398 357.359 341.973 357.752 343.408 358.469L371.295 331.19L375.137 351.106L348.066 373.958C346.703 376.292 344.532 378.044 341.965 378.882C339.397 379.721 336.612 379.587 334.137 378.507C331.661 377.426 329.668 375.474 328.534 373.021C327.399 370.567 327.204 367.782 327.984 365.194L327.984 365.193Z" fill="#FFB6B6"/>
<path d="M359.162 366.651L414.21 322.45L414.176 322.151C414.113 321.579 407.743 264.772 404.469 252.974C402.562 245.826 398.271 239.545 392.308 235.175L392.154 235.076L391.971 235.09C388.246 235.379 384.731 236.931 382.005 239.489C379.279 242.047 377.505 245.459 376.976 249.162C374.515 267.054 376.241 285.274 382.019 302.384L385.316 312.113L350.048 349.793L359.162 366.651Z" fill="#30E3CA"/>
<path d="M77.2662 208.755C90.4429 208.755 101.125 198.061 101.125 184.868C101.125 171.675 90.4429 160.981 77.2662 160.981C64.0895 160.981 53.4077 171.675 53.4077 184.868C53.4077 198.061 64.0895 208.755 77.2662 208.755Z" fill="#A0616A"/>
<path d="M45.2117 366.809L45.0816 366.626C38.1316 356.884 48.5844 333.475 50.161 330.081C48.2889 329.473 46.6852 328.234 45.6232 326.575C44.5612 324.916 44.1064 322.939 44.3364 320.982L45.016 315.198L45.7244 309.525L40.6493 304.444L40.6351 304.317L37.7145 278.731L33.468 261.736C31.868 255.312 32.0043 248.577 33.8631 242.223C35.7218 235.869 39.236 230.124 44.0449 225.579L53.8606 224.019L65.7898 212.511H85.0269L91.6229 218.82C104.591 229.463 107.669 224.84 122.292 244.874L111.822 272.492L117.675 313.226L117.678 320.598L120.726 323.989C121.824 325.211 122.622 326.673 123.056 328.258C123.49 329.843 123.549 331.507 123.227 333.119L122.826 335.125C124.375 335.79 125.743 336.817 126.813 338.12C127.884 339.423 128.628 340.964 128.981 342.614L130.051 347.616C130.967 348.826 137.013 356.897 137.013 359.103C137.013 359.434 136.769 359.755 136.245 360.11C132.125 362.903 109.353 368.597 99.2745 364.56C88.5389 360.262 45.8635 366.709 45.4335 366.775L45.2117 366.809Z" fill="#3F3D56"/>
<path d="M33.0913 269.91L52.9291 266.022C60.2655 276.991 64.2041 306.986 64.2041 306.986L86.1369 352.527C87.485 353.347 88.592 354.51 89.3451 355.898C90.0982 357.286 90.4706 358.848 90.4242 360.427C90.3778 362.006 89.9144 363.544 89.0811 364.885C88.2478 366.225 87.0745 367.321 85.6806 368.061C84.2866 368.8 82.722 369.156 81.1458 369.093C79.5697 369.029 78.0385 368.549 76.7081 367.701C75.3778 366.852 74.2958 365.666 73.5723 364.262C72.8489 362.859 72.5099 361.289 72.5898 359.711L43.9838 305.754L33.0913 269.91Z" fill="#A0616A"/>
<path d="M32.98 274.622L32.416 245.102L41.7516 232.598C43.5932 230.15 46.0821 228.266 48.9369 227.16C51.7917 226.053 54.8986 225.769 57.9066 226.338V226.338C61.9789 227.136 65.5964 229.453 68.0276 232.82C70.4589 236.187 71.5225 240.353 71.0034 244.475C69.4188 256.975 65.8214 272.618 57.6825 276.157L57.6 276.193L66.0352 305.729L34.7536 310.104L32.98 274.622Z" fill="#3F3D56"/>
<path d="M150.799 272.014C150.799 272.014 126.992 253.383 114.08 250.707L102.652 267.401L133.559 286.365L193.733 303.784C194.787 304.956 196.131 305.828 197.63 306.311C199.129 306.794 200.729 306.872 202.268 306.536C203.807 306.199 205.229 305.462 206.391 304.397C207.553 303.333 208.412 301.98 208.883 300.475C209.353 298.97 209.418 297.368 209.07 295.83C208.722 294.293 207.974 292.874 206.901 291.72C205.829 290.565 204.47 289.715 202.964 289.256C201.457 288.797 199.856 288.746 198.323 289.107L150.799 272.014Z" fill="#A0616A"/>
<path d="M108.915 275.758L84.1044 259.798L78.9237 245.073C77.9172 242.178 77.7393 239.06 78.4102 236.069C79.081 233.079 80.5738 230.336 82.72 228.151C85.6491 225.208 89.5851 223.488 93.7322 223.34C97.8792 223.191 101.928 224.625 105.059 227.351C114.55 235.626 126.781 238.399 125.188 247.139L129.758 247.807L153.124 265.574L139.345 294.03L108.915 275.758Z" fill="#3F3D56"/>
<path d="M50.2039 169.172C52.8829 165.023 57.9103 162.257 62.784 163.034C63.2377 159.92 64.5359 156.99 66.5374 154.564C68.539 152.137 71.1671 150.307 74.1356 149.272C77.1041 148.238 80.2992 148.039 83.373 148.696C86.4469 149.354 89.2816 150.843 91.5686 153.002C93.0036 151.859 95.0894 151.799 96.7927 152.478C98.4701 153.242 99.9294 154.415 101.037 155.889C103.834 159.381 105.632 163.567 106.241 168.001C106.85 172.435 106.247 176.951 104.496 181.069C105.092 178.901 102.922 176.862 100.729 176.375C98.5368 175.889 96.2369 176.349 94.0135 176.032C91.1639 175.626 88.6023 173.971 85.7481 173.598C83.3494 173.285 80.9372 173.901 78.598 174.518C76.2589 175.136 73.8529 175.765 71.4508 175.479C69.0485 175.194 65.9542 184.308 65.9958 190.728C66.0036 191.945 65.7534 193.507 64.5659 193.765C63.1034 194.083 62.256 192.062 60.8641 191.511C59.624 191.021 58.1373 191.93 57.7055 193.193C57.5301 193.839 57.5113 194.518 57.6507 195.172C57.7902 195.827 58.0838 196.439 58.5071 196.957C59.3627 197.984 60.3784 198.867 61.5149 199.57L60.9417 200.047C59.9881 201.308 58.0101 201.363 56.6356 200.583C55.2614 199.802 54.3581 198.414 53.544 197.058C51.0012 192.823 48.7706 188.312 47.8732 183.453C46.9758 178.595 47.5251 173.322 50.2039 169.172Z" fill="#2F2E41"/>
<path opacity="0.2" d="M259.728 209.316C262.149 219.411 263.265 229.775 263.051 240.154C262.845 250.534 261.328 260.847 258.538 270.847C256.963 276.494 254.977 282.017 252.595 287.373C252.167 288.336 253.588 289.177 254.02 288.207C258.32 278.556 261.361 268.391 263.067 257.962C264.78 247.531 265.164 236.924 264.21 226.396C263.67 220.494 262.704 214.639 261.319 208.877C261.071 207.844 259.48 208.281 259.728 209.316H259.728Z" fill="black"/>
<path opacity="0.2" d="M413.746 279.954L399.956 313.657C397.737 319.081 395.583 324.538 393.274 329.925C391.194 334.775 388.823 339.645 385.322 343.644C381.789 347.679 377.037 350.955 371.608 351.595C370.566 351.718 370.554 353.371 371.608 353.247C376.567 352.662 381.012 350.194 384.602 346.78C388.484 343.088 391.22 338.386 393.453 333.561C395.942 328.182 398.059 322.621 400.303 317.137L407.353 299.905L415.337 280.393C415.739 279.41 414.144 278.982 413.746 279.954V279.954Z" fill="black"/>
<path d="M250.284 310.545C250.526 311.251 250.986 311.862 251.597 312.291C252.208 312.719 252.938 312.943 253.684 312.929L268.251 312.554C269.003 312.539 269.729 312.282 270.322 311.82C270.914 311.358 271.342 310.716 271.54 309.99L273.602 287.92C274.333 288.252 275.129 288.416 275.932 288.4C276.629 288.382 277.317 288.227 277.954 287.944C278.592 287.66 279.167 287.254 279.648 286.748C280.129 286.242 280.506 285.646 280.756 284.994C281.007 284.342 281.127 283.647 281.109 282.949C281.092 282.251 280.937 281.563 280.654 280.924C280.371 280.286 279.965 279.709 279.46 279.228C278.954 278.747 278.359 278.37 277.708 278.119C277.057 277.868 276.363 277.748 275.665 277.765C275.344 277.764 275.024 277.797 274.711 277.865C274.369 277.495 273.955 277.201 273.493 277.001C273.031 276.802 272.533 276.702 272.03 276.707L249.623 277.286C249.437 277.293 249.252 277.316 249.07 277.355C248.578 277.446 248.112 277.643 247.703 277.93C247.294 278.217 246.95 278.589 246.696 279.02C246.443 279.451 246.284 279.931 246.231 280.429C246.178 280.927 246.232 281.43 246.39 281.905L250.284 310.545ZM274.024 286.422L275.491 281.163C275.658 280.555 275.662 279.914 275.502 279.305C275.574 279.305 275.636 279.271 275.708 279.271C276.713 279.25 277.686 279.629 278.413 280.325C279.14 281.022 279.561 281.978 279.585 282.985C279.609 283.992 279.232 284.967 278.539 285.697C277.845 286.427 276.891 286.851 275.885 286.878C275.235 286.898 274.592 286.74 274.024 286.422V286.422Z" fill="#2F2E41"/>
<path d="M249.07 277.355C249.547 280.088 254.915 282.009 261.368 281.675C267.303 281.401 272.156 279.315 273.045 276.842C272.716 276.745 272.374 276.699 272.03 276.707L249.623 277.286C249.437 277.293 249.252 277.316 249.07 277.355V277.355Z" fill="#3F3D56"/>
<path d="M201.763 280.804C201.921 280.329 201.975 279.826 201.922 279.328C201.869 278.83 201.711 278.35 201.457 277.919C201.203 277.487 200.86 277.116 200.45 276.829C200.041 276.541 199.575 276.345 199.083 276.254C198.901 276.215 198.717 276.192 198.531 276.185L176.123 275.606C175.62 275.601 175.122 275.701 174.66 275.9C174.199 276.1 173.784 276.394 173.443 276.763C173.129 276.696 172.809 276.663 172.488 276.664C171.079 276.629 169.714 277.155 168.693 278.127C167.672 279.099 167.079 280.438 167.044 281.848C167.008 283.258 167.534 284.625 168.505 285.647C169.476 286.669 170.813 287.263 172.221 287.299C173.024 287.315 173.82 287.151 174.552 286.819L176.613 308.889C176.811 309.615 177.239 310.257 177.832 310.719C178.424 311.181 179.151 311.438 179.902 311.453L194.469 311.828C195.215 311.842 195.946 311.618 196.556 311.19C197.167 310.761 197.627 310.15 197.869 309.444L201.763 280.804ZM172.268 285.777C171.262 285.75 170.308 285.326 169.614 284.596C168.921 283.866 168.545 282.891 168.568 281.884C168.592 280.877 169.013 279.921 169.74 279.224C170.467 278.528 171.44 278.149 172.446 278.17C172.517 278.17 172.58 278.204 172.651 278.204C172.491 278.813 172.495 279.454 172.662 280.062L174.129 285.321C173.561 285.639 172.918 285.797 172.268 285.777V285.777Z" fill="#2F2E41"/>
<path d="M199.084 276.254C198.606 278.987 193.239 280.908 186.785 280.574C180.85 280.3 175.998 278.214 175.109 275.741C175.438 275.644 175.78 275.598 176.123 275.606L198.531 276.185C198.717 276.192 198.902 276.215 199.084 276.254V276.254Z" fill="#3F3D56"/>
<path d="M177.847 228.312C178.97 227.491 180.259 226.926 181.623 226.658C182.987 226.389 184.393 226.423 185.743 226.758C187.092 227.092 188.352 227.719 189.434 228.594C190.515 229.469 191.392 230.57 192.002 231.821L225.552 227.757L217.715 243.492L187.057 244.939C184.89 245.826 182.474 245.887 180.266 245.109C178.057 244.332 176.211 242.77 175.076 240.721C173.94 238.671 173.596 236.276 174.106 233.989C174.617 231.702 175.948 229.682 177.847 228.312L177.847 228.312Z" fill="#9E616A"/>
<path d="M287.263 196.264C286.274 198.207 285.069 200.47 283.717 202.937C278.966 211.63 272.439 222.85 267.413 231.389C263.118 238.673 259.912 244.013 259.824 244.162L259.687 244.382L230.164 245.048L223.829 245.191L221.674 245.241L198.54 245.764L198.76 244.387L200.921 230.745L201.141 229.352L221.404 225.982L228.811 224.755L245.241 222.024L248.095 213.59C253.122 198.765 261.522 185.314 272.631 174.297C272.955 173.983 273.285 173.686 273.632 173.405C273.934 173.163 274.242 172.932 274.556 172.723C275.886 174.611 277.074 176.318 278.08 177.689L280.516 181.008C283.842 185.544 286.144 190.75 287.263 196.264Z" fill="#30E3CA"/>
<path d="M164.502 246.682C164.745 247.388 165.204 247.999 165.815 248.428C166.426 248.856 167.157 249.079 167.902 249.066L182.47 248.691C183.221 248.676 183.947 248.418 184.54 247.956C185.133 247.494 185.56 246.852 185.758 246.127L187.82 224.057C188.551 224.389 189.347 224.553 190.15 224.536C191.559 224.501 192.896 223.907 193.867 222.885C194.838 221.862 195.363 220.496 195.328 219.086C195.292 217.675 194.699 216.337 193.678 215.365C192.657 214.393 191.292 213.866 189.884 213.902C189.563 213.901 189.243 213.934 188.929 214.001C188.588 213.632 188.173 213.338 187.711 213.138C187.25 212.939 186.751 212.838 186.249 212.843L163.841 213.423C163.655 213.43 163.47 213.453 163.288 213.491C162.797 213.583 162.331 213.779 161.921 214.066C161.512 214.354 161.169 214.725 160.915 215.156C160.661 215.587 160.502 216.068 160.449 216.566C160.396 217.063 160.451 217.567 160.608 218.042L164.502 246.682ZM188.243 222.559L189.709 217.299C189.876 216.692 189.88 216.051 189.721 215.442C189.792 215.441 189.855 215.408 189.926 215.407C190.932 215.387 191.905 215.766 192.631 216.462C193.358 217.159 193.78 218.115 193.803 219.122C193.827 220.129 193.451 221.104 192.757 221.834C192.064 222.563 191.109 222.988 190.104 223.014C189.454 223.035 188.81 222.877 188.243 222.559Z" fill="#CCCCCC"/>
<path d="M163.288 213.491C163.765 216.224 169.133 218.146 175.587 217.812C181.521 217.538 186.374 215.451 187.263 212.979C186.934 212.881 186.592 212.836 186.249 212.843L163.841 213.423C163.655 213.43 163.47 213.453 163.288 213.491V213.491Z" fill="#3F3D56"/>
</g>
<defs>
<clipPath id="clip0_36_58">
<rect width="463" height="464" fill="white"/>
</clipPath>
</defs>
</svg>
