<svg width="290" height="209" viewBox="0 0 290 209" fill="none" xmlns="http://www.w3.org/2000/svg">
<g clip-path="url(#clip0_1001_45)">
<path d="M64.6824 193.61C64.6824 193.61 49.9972 182.507 47.223 168.383C46.098 162.452 43.0804 157.044 38.6229 152.973C36.4904 151.057 34.1873 149.341 31.7422 147.846" stroke="#535461" stroke-width="2" stroke-miterlimit="10"/>
<path d="M29.9433 138.948C31.2302 140.689 31.8123 148.067 31.8123 148.067C31.8123 148.067 24.9316 145.357 23.642 143.619C23.0227 142.783 22.7608 141.735 22.9138 140.707C23.0667 139.678 23.6221 138.752 24.4577 138.132C25.2933 137.513 26.3407 137.251 27.3694 137.404C28.3982 137.557 29.324 138.112 29.9433 138.948Z" fill="white"/>
<path d="M42.2839 144.739C42.4174 146.899 38.901 153.41 38.901 153.41C38.901 153.41 34.5942 147.391 34.4581 145.23C34.4063 144.2 34.7624 143.192 35.4491 142.422C36.1359 141.653 37.098 141.186 38.1271 141.121C39.1561 141.056 40.1692 141.4 40.9468 142.077C41.7244 142.754 42.2038 143.711 42.2813 144.739H42.2839Z" fill="white"/>
<path d="M54.2484 161.379C53.2765 163.312 46.9512 167.158 46.9512 167.158C46.9512 167.158 46.2756 159.787 47.2475 157.854C47.726 156.945 48.5422 156.26 49.5205 155.947C50.4988 155.633 51.5611 155.716 52.4786 156.178C53.3962 156.64 54.0957 157.444 54.4267 158.417C54.7577 159.389 54.6936 160.453 54.2484 161.379Z" fill="white"/>
<path d="M60.4656 176.003C59.8328 178.073 54.2497 182.93 54.2497 182.93C54.2497 182.93 52.3353 175.782 52.9681 173.709C53.2722 172.715 53.9589 171.882 54.877 171.394C55.7951 170.906 56.8694 170.803 57.8636 171.107C58.8578 171.411 59.6905 172.098 60.1785 173.016C60.6664 173.934 60.7697 175.009 60.4656 176.003Z" fill="white"/>
<path d="M32.5385 158.644C34.6745 158.932 41.427 155.882 41.427 155.882C41.427 155.882 35.7291 151.161 33.5824 150.873C32.5521 150.734 31.509 151.011 30.6825 151.642C29.8561 152.272 29.314 153.206 29.1756 154.236C29.0371 155.267 29.3136 156.31 29.9443 157.136C30.575 157.963 31.5081 158.505 32.5385 158.644Z" fill="white"/>
<path d="M40.0254 175.655C42.1614 175.289 47.6804 170.362 47.6804 170.362C47.6804 170.362 40.8291 167.564 38.6957 167.929C38.1849 168.013 37.6958 168.197 37.2566 168.471C36.8173 168.745 36.4366 169.103 36.1365 169.525C35.8363 169.946 35.6227 170.423 35.5078 170.928C35.393 171.433 35.3793 171.955 35.4674 172.465C35.5556 172.976 35.7439 173.463 36.0214 173.9C36.299 174.337 36.6603 174.715 37.0846 175.011C37.5088 175.308 37.9876 175.517 38.4933 175.628C38.999 175.738 39.5215 175.747 40.0307 175.655H40.0254Z" fill="white"/>
<path d="M49.5707 191.194C51.7361 191.194 58.0107 187.271 58.0107 187.271C58.0107 187.271 51.7334 183.354 49.568 183.354C48.5285 183.354 47.5315 183.767 46.7965 184.502C46.0614 185.237 45.6484 186.234 45.6484 187.274C45.6484 188.313 46.0614 189.31 46.7965 190.046C47.5315 190.781 48.5285 191.194 49.568 191.194H49.5707Z" fill="white"/>
<path d="M207.34 97.5766C207.34 97.5766 216.391 81.5412 230.035 76.9215C235.764 75.0186 240.722 71.3091 244.165 66.3496C245.78 63.9785 247.173 61.464 248.327 58.8379" stroke="#535461" stroke-width="2" stroke-miterlimit="10"/>
<path d="M256.893 55.9017C255.339 57.4077 248.105 58.9672 248.105 58.9672C248.105 58.9672 249.881 51.784 251.435 50.2752C252.185 49.5729 253.181 49.1932 254.208 49.2179C255.235 49.2426 256.212 49.6698 256.927 50.4073C257.643 51.1449 258.04 52.134 258.033 53.1616C258.027 54.1892 257.617 55.1732 256.893 55.9017Z" fill="white"/>
<path d="M252.805 68.8865C250.669 69.3084 243.762 66.6861 243.762 66.6861C243.762 66.6861 249.155 61.6125 251.278 61.1986C251.787 61.0855 252.315 61.0753 252.828 61.1687C253.342 61.2621 253.832 61.4572 254.269 61.7426C254.706 62.0279 255.082 62.3977 255.374 62.8303C255.667 63.2629 255.87 63.7495 255.971 64.2616C256.073 64.7738 256.072 65.3011 255.967 65.8126C255.862 66.3241 255.656 66.8095 255.361 67.2403C255.066 67.6711 254.688 68.0386 254.249 68.3213C253.81 68.604 253.319 68.7962 252.805 68.8865Z" fill="white"/>
<path d="M237.916 82.955C235.871 82.2474 231.223 76.4901 231.223 76.4901C231.223 76.4901 238.432 74.8398 240.482 75.5475C240.975 75.7109 241.43 75.9706 241.822 76.3115C242.213 76.6523 242.533 77.0676 242.763 77.5331C242.993 77.9986 243.128 78.5052 243.16 79.0233C243.193 79.5414 243.122 80.0608 242.952 80.5514C242.782 81.0419 242.516 81.4938 242.17 81.8808C241.824 82.2679 241.405 82.5823 240.937 82.8059C240.468 83.0295 239.96 83.1579 239.441 83.1835C238.923 83.2091 238.405 83.1314 237.916 82.955Z" fill="white"/>
<path d="M224.234 91.0621C222.098 90.7096 216.555 85.8095 216.555 85.8095C216.555 85.8095 223.387 82.9629 225.521 83.3154C226.547 83.4843 227.465 84.0542 228.072 84.8998C228.678 85.7454 228.924 86.7973 228.755 87.8243C228.587 88.8512 228.017 89.7689 227.171 90.3756C226.326 90.9823 225.274 91.2283 224.247 91.0594L224.234 91.0621Z" fill="white"/>
<path d="M237.73 61.0703C237.728 63.2359 241.655 69.5193 241.655 69.5193C241.655 69.5193 245.578 63.2439 245.578 61.081C245.591 60.5577 245.5 60.0371 245.309 59.5497C245.119 59.0623 244.832 58.6181 244.467 58.2432C244.102 57.8683 243.665 57.5703 243.183 57.3669C242.701 57.1634 242.183 57.0586 241.659 57.0586C241.136 57.0586 240.618 57.1634 240.136 57.3669C239.654 57.5703 239.217 57.8683 238.852 58.2432C238.487 58.6181 238.2 59.0623 238.01 59.5497C237.819 60.0371 237.728 60.5577 237.741 61.081L237.73 61.0703Z" fill="white"/>
<path d="M221.861 70.7545C222.507 72.8213 228.125 77.6413 228.125 77.6413C228.125 77.6413 229.994 70.4794 229.342 68.4126C229.005 67.455 228.308 66.6659 227.4 66.2114C226.492 65.7569 225.444 65.6726 224.475 65.9761C223.506 66.2796 222.692 66.9473 222.206 67.8386C221.719 68.7299 221.598 69.7752 221.866 70.7545H221.861Z" fill="white"/>
<path d="M207.744 82.2812C208.032 84.4174 212.753 90.124 212.753 90.124C212.753 90.124 215.799 83.3813 215.511 81.2371C215.454 80.7175 215.293 80.2147 215.039 79.7581C214.784 79.3015 214.441 78.9004 214.03 78.5784C213.618 78.2564 213.146 78.0199 212.642 77.883C212.137 77.7461 211.611 77.7114 211.093 77.781C210.575 77.8507 210.076 78.0232 209.626 78.2885C209.175 78.5537 208.783 78.9064 208.471 79.3257C208.159 79.745 207.934 80.2224 207.809 80.73C207.684 81.2376 207.662 81.765 207.744 82.2812Z" fill="white"/>
<path opacity="0.25" d="M256.893 55.9017C255.339 57.4077 248.105 58.9672 248.105 58.9672C248.105 58.9672 249.881 51.784 251.435 50.2752C252.185 49.5729 253.181 49.1932 254.208 49.2179C255.235 49.2426 256.212 49.6698 256.927 50.4073C257.643 51.1449 258.04 52.134 258.033 53.1616C258.027 54.1892 257.617 55.1732 256.893 55.9017Z" fill="black"/>
<path opacity="0.25" d="M252.805 68.8865C250.669 69.3084 243.762 66.6861 243.762 66.6861C243.762 66.6861 249.155 61.6125 251.278 61.1986C251.787 61.0855 252.315 61.0753 252.828 61.1687C253.342 61.2621 253.832 61.4572 254.269 61.7426C254.706 62.0279 255.082 62.3977 255.374 62.8303C255.667 63.2629 255.87 63.7495 255.971 64.2616C256.073 64.7738 256.072 65.3011 255.967 65.8126C255.862 66.3241 255.656 66.8095 255.361 67.2403C255.066 67.6711 254.688 68.0386 254.249 68.3213C253.81 68.604 253.319 68.7962 252.805 68.8865Z" fill="black"/>
<path opacity="0.25" d="M237.916 82.955C235.871 82.2474 231.223 76.4901 231.223 76.4901C231.223 76.4901 238.432 74.8398 240.482 75.5475C240.975 75.7109 241.43 75.9706 241.822 76.3115C242.213 76.6523 242.533 77.0676 242.763 77.5331C242.993 77.9986 243.128 78.5052 243.16 79.0233C243.193 79.5414 243.122 80.0608 242.952 80.5514C242.782 81.0419 242.516 81.4938 242.17 81.8808C241.824 82.2679 241.405 82.5823 240.937 82.8059C240.468 83.0295 239.96 83.1579 239.441 83.1835C238.923 83.2091 238.405 83.1314 237.916 82.955Z" fill="black"/>
<path opacity="0.25" d="M224.234 91.0621C222.098 90.7096 216.555 85.8095 216.555 85.8095C216.555 85.8095 223.387 82.9629 225.521 83.3154C226.547 83.4843 227.465 84.0542 228.072 84.8998C228.678 85.7454 228.924 86.7973 228.755 87.8243C228.587 88.8512 228.017 89.7689 227.171 90.3756C226.326 90.9823 225.274 91.2283 224.247 91.0594L224.234 91.0621Z" fill="black"/>
<path opacity="0.25" d="M237.73 61.0703C237.728 63.2359 241.655 69.5193 241.655 69.5193C241.655 69.5193 245.578 63.2439 245.578 61.081C245.591 60.5577 245.5 60.0371 245.309 59.5497C245.119 59.0623 244.832 58.6181 244.467 58.2432C244.102 57.8683 243.665 57.5703 243.183 57.3669C242.701 57.1634 242.183 57.0586 241.659 57.0586C241.136 57.0586 240.618 57.1634 240.136 57.3669C239.654 57.5703 239.217 57.8683 238.852 58.2432C238.487 58.6181 238.2 59.0623 238.01 59.5497C237.819 60.0371 237.728 60.5577 237.741 61.081L237.73 61.0703Z" fill="black"/>
<path opacity="0.25" d="M221.861 70.7545C222.507 72.8213 228.125 77.6413 228.125 77.6413C228.125 77.6413 229.994 70.4794 229.342 68.4126C229.005 67.455 228.308 66.6659 227.4 66.2114C226.492 65.7569 225.444 65.6726 224.475 65.9761C223.506 66.2796 222.692 66.9473 222.206 67.8386C221.719 68.7299 221.598 69.7752 221.866 70.7545H221.861Z" fill="black"/>
<path opacity="0.25" d="M207.744 82.2812C208.032 84.4174 212.753 90.124 212.753 90.124C212.753 90.124 215.799 83.3813 215.511 81.2371C215.454 80.7175 215.293 80.2147 215.039 79.7581C214.784 79.3015 214.441 78.9004 214.03 78.5784C213.618 78.2564 213.146 78.0199 212.642 77.883C212.137 77.7461 211.611 77.7114 211.093 77.781C210.575 77.8507 210.076 78.0232 209.626 78.2885C209.175 78.5537 208.783 78.9064 208.471 79.3257C208.159 79.745 207.934 80.2224 207.809 80.73C207.684 81.2376 207.662 81.765 207.744 82.2812Z" fill="black"/>
<path d="M207.863 97.2591C207.863 97.2591 209.642 78.9298 220.231 69.1831C224.697 65.121 227.727 59.7205 228.866 53.7912C229.384 50.9725 229.642 48.1121 229.637 45.2461" stroke="#535461" stroke-width="2" stroke-miterlimit="10"/>
<path d="M236.272 39.0615C235.471 41.0696 229.479 45.4276 229.479 45.4276C229.479 45.4276 228.192 38.1402 229.001 36.1321C229.391 35.1679 230.147 34.3979 231.105 33.9915C232.062 33.5851 233.141 33.5756 234.105 33.9651C235.069 34.3547 235.839 35.1113 236.246 36.0685C236.652 37.0258 236.661 38.1053 236.272 39.0695V39.0615Z" fill="white"/>
<path d="M237.799 52.6052C236.029 53.8496 228.641 54.2582 228.641 54.2582C228.641 54.2582 231.519 47.4381 233.289 46.1937C233.709 45.8795 234.188 45.6527 234.697 45.5268C235.206 45.4009 235.735 45.3784 236.253 45.4607C236.771 45.5429 237.267 45.7283 237.712 46.0058C238.157 46.2833 238.541 46.6472 238.843 47.0761C239.145 47.505 239.358 47.9901 239.469 48.5026C239.58 49.0152 239.587 49.5448 239.489 50.0601C239.392 50.5755 239.192 51.066 238.902 51.5027C238.611 51.9394 238.236 52.3134 237.799 52.6026V52.6052Z" fill="white"/>
<path d="M229.878 71.5064C227.721 71.688 221.137 68.302 221.137 68.302C221.137 68.302 227.064 63.8692 229.222 63.6876C230.258 63.6005 231.286 63.9286 232.08 64.5996C232.874 65.2707 233.369 66.2298 233.456 67.2659C233.543 68.302 233.215 69.3303 232.544 70.1246C231.873 70.9188 230.914 71.4139 229.878 71.5011V71.5064Z" fill="white"/>
<path d="M220.663 84.4549C218.567 84.9889 211.508 82.7806 211.508 82.7806C211.508 82.7806 216.6 77.4105 218.696 76.8658C219.702 76.6048 220.77 76.7543 221.667 77.2813C222.563 77.8084 223.213 78.6699 223.474 79.6763C223.734 80.6827 223.585 81.7515 223.058 82.6477C222.531 83.5438 221.67 84.1939 220.663 84.4549Z" fill="white"/>
<path d="M220.853 51.5691C221.729 53.5478 227.854 57.7109 227.854 57.7109C227.854 57.7109 228.895 50.3834 228.02 48.4047C227.583 47.4789 226.802 46.7606 225.843 46.4031C224.884 46.0456 223.824 46.0774 222.888 46.4917C221.952 46.906 221.215 47.6698 220.835 48.6201C220.455 49.5703 220.462 50.6316 220.853 51.5771V51.5691Z" fill="white"/>
<path d="M210.269 66.8503C211.697 68.4765 218.783 70.6075 218.783 70.6075C218.783 70.6075 217.587 63.3041 216.159 61.6778C215.821 61.2828 215.409 60.9587 214.946 60.7243C214.482 60.49 213.977 60.3501 213.459 60.3128C212.941 60.2756 212.42 60.3416 211.928 60.5071C211.436 60.6727 210.981 60.9344 210.591 61.2771C210.201 61.6198 209.883 62.0367 209.655 62.5035C209.427 62.9703 209.294 63.4777 209.264 63.9962C209.234 64.5148 209.308 65.0341 209.48 65.5241C209.652 66.014 209.92 66.4648 210.269 66.8503Z" fill="white"/>
<path d="M202.019 83.1164C203.151 84.9589 209.775 88.2568 209.775 88.2568C209.775 88.2568 209.831 80.8573 208.707 79.0121C208.148 78.1601 207.278 77.5596 206.284 77.3379C205.289 77.1163 204.247 77.2909 203.378 77.8248C202.51 78.3587 201.884 79.2098 201.633 80.1977C201.381 81.1855 201.525 82.2325 202.032 83.1164H202.019Z" fill="white"/>
<path d="M194.246 25.4784C194.689 23.8522 195.223 22.2179 195.597 20.5703C195.149 22.2179 194.612 23.8575 194.246 25.4784Z" fill="url(#paint0_linear_1001_45)"/>
<path d="M192.257 41.142C192.219 41.0779 192.193 41.0138 192.163 40.9551C192.163 40.9284 192.136 40.907 192.126 40.8803C192.068 40.9078 192.008 40.9318 191.947 40.9524C191.829 40.9978 191.709 41.0405 191.586 41.0752C191.464 41.1099 191.413 41.1286 191.319 41.15C191.242 41.1767 191.162 41.1972 191.082 41.2114L191.103 41.2595C191.202 41.2381 191.298 41.2194 191.397 41.1927L191.424 41.5238C191.536 41.5238 191.64 41.5078 191.741 41.5078C191.789 41.5052 191.837 41.5052 191.885 41.5078C192.094 41.5078 192.275 41.5078 192.419 41.5078C192.363 41.3877 192.305 41.2622 192.257 41.142ZM246.458 127.429C245.203 125.739 242.699 107.596 242.699 107.596C242.699 107.596 237.773 94.6958 239.116 89.5473C240.459 84.3989 235.447 71.2261 235.447 71.2261C235.447 71.2261 232.136 69.7868 231.957 67.6505C231.957 67.6505 218.439 63.378 217.806 60.1735C217.293 57.5459 208.91 55.6607 205.898 55.0652C204.979 51.3587 204.055 47.9006 203.375 46.0127C203.19 45.4252 203.017 44.9179 202.857 44.5173C201.706 41.5799 198.149 41.3129 195.57 41.5479C195.458 41.0472 195.251 40.573 194.959 40.1513C194.916 40.0063 194.831 39.8772 194.716 39.7801C194.66 39.7329 194.601 39.6901 194.539 39.6519C194.493 39.5654 194.431 39.4877 194.358 39.4223C194.285 39.3563 194.204 39.2989 194.118 39.2514C194.056 39.2178 193.991 39.1884 193.925 39.1633C193.771 39.1043 193.611 39.0605 193.447 39.0324C193.257 38.9933 193.065 38.9683 192.871 38.9576C193.342 38.7515 193.762 38.4443 194.102 38.0577C194.332 37.7864 194.504 37.4699 194.606 37.1285C194.691 36.8445 194.729 36.5487 194.718 36.2526C194.649 36.3746 194.569 36.4899 194.478 36.5971C194.59 35.4141 193.965 34.2124 193.608 33.0348C193.174 31.5017 193.094 29.8903 193.373 28.3217C193.73 25.9557 194.617 23.5631 195.218 21.1544C195.219 21.1411 195.219 21.1277 195.218 21.1144C195.533 19.9182 195.728 18.6936 195.8 17.4587C195.904 14.9673 195.266 12.4812 194.24 10.2114C193.33 8.2006 191.987 6.22187 189.931 5.40475C188.404 4.7879 186.692 4.8867 185.048 4.78523C181.358 4.55558 177.838 3.25779 174.33 2.0775C170.822 0.897204 167.212 -0.176275 163.519 0.0293412C159.826 0.234958 156.027 2.01608 154.342 5.28458C153.808 6.30465 153.501 7.43955 152.863 8.3982C151.667 10.206 149.525 11.1113 147.739 12.3583C145.953 13.6054 144.38 15.3758 143.734 17.4881C143.381 18.6261 143.332 19.8365 143.59 20.9996C143.648 21.2622 143.723 21.5209 143.814 21.774C144.068 22.4795 144.463 23.1257 144.976 23.6726C145.362 24.0768 145.807 24.4214 146.295 24.6953C146.907 25.0349 147.563 25.29 148.244 25.4537C148.22 25.5338 148.196 25.6193 148.169 25.702C148.126 25.8382 148.089 25.9691 148.049 26.116C147.961 26.4444 147.878 26.7782 147.809 27.1147C147.806 27.1386 147.806 27.1628 147.809 27.1868C147.481 28.7056 147.316 30.2552 147.317 31.8091C147.317 32.544 147.354 33.2785 147.429 34.0095C148.497 44.8458 157.442 53.3935 168.493 53.949C168.872 53.9677 169.254 53.9783 169.641 53.9783C169.818 53.9783 169.991 53.9783 170.175 53.9783C170.349 54.208 170.52 54.443 170.683 54.6726C170.846 54.9023 170.995 55.1373 171.137 55.3669L170.749 54.9664L170.362 54.6112C170.257 54.7553 170.14 54.8902 170.013 55.0144C169.76 54.9256 169.502 54.8525 169.241 54.7955C168.133 54.5498 166.445 54.459 164.224 55.1293C162.181 55.7408 159.685 56.9985 156.764 59.3885L142.53 67.9336L134.83 72.6174L132.055 79.4C132.055 79.4 129.97 87.4591 127.65 96.6932C127.559 96.7199 127.471 96.7466 127.383 96.7786C127.195 96.7572 127.006 96.7466 126.817 96.7466C125.471 96.7434 124.176 97.2622 123.204 98.1938C122.232 99.1255 121.659 100.398 121.605 101.743C116.991 107.351 116.729 112.958 117.813 115.532C117.912 115.774 118.035 116.004 118.182 116.219C118.892 117.244 120.219 119.888 121.565 122.705C121.53 122.937 121.509 123.132 121.498 123.279C121.496 123.327 121.496 123.375 121.498 123.423C121.498 123.423 122.299 135.523 119.629 138.991C119.044 139.747 119.132 140.741 119.629 141.841C121.418 145.798 128.491 151.083 128.491 151.083C128.491 151.083 136.974 151.037 141.7 150.522C141.686 150.997 141.676 151.47 141.665 151.932C141.558 156.6 141.558 160.512 141.558 160.512L141.382 165.407C141.382 165.407 139.78 175.722 138.979 178.566C138.474 180.35 139.056 196.866 139.564 209.008H223.141C224.123 201.825 222.738 180 222.738 180C222.738 180 221.421 174.358 221.373 169.439C221.371 169.433 221.369 169.427 221.369 169.421C221.369 169.415 221.371 169.409 221.373 169.404C221.373 168.974 221.373 168.555 221.389 168.144L221.995 168.122L223.085 168.085H223.184C223.184 168.085 223.21 167.983 223.272 167.818C223.416 167.405 223.612 167.013 223.856 166.651C224.321 165.965 225.047 165.292 226.139 165.246C226.743 165.222 227.677 164.734 228.732 164.013C228.739 164.014 228.746 164.014 228.753 164.013C231.591 162.093 235.343 158.549 236.253 157.967C237.506 157.166 243.502 151.825 243.502 151.825C243.502 151.825 244.397 150.693 245.35 149.328L245.385 149.28C246.57 147.571 247.831 145.528 247.521 144.885C246.987 143.731 247.879 140.973 247.879 140.973C250.663 135.875 247.713 129.119 246.458 127.429ZM194.828 45.2944C194.853 45.3741 194.87 45.4566 194.876 45.54C194.809 45.4519 194.742 45.3585 194.676 45.273L194.612 45.1876L194.566 45.1235L194.668 44.9846C194.668 44.9846 194.668 44.9846 194.668 45.0033C194.738 45.0899 194.792 45.1885 194.828 45.2944ZM193.931 42.9284C193.64 42.9872 193.41 43.0406 193.261 43.0807C193.071 42.7442 192.889 42.4077 192.727 42.0659C193.155 42.3143 193.558 42.6031 193.931 42.9284ZM193.429 43.3504C193.428 43.3451 193.428 43.3397 193.429 43.3343L193.45 43.3504C193.56 43.4225 193.666 43.4919 193.765 43.564C193.853 43.6281 193.933 43.6895 194.013 43.7536C193.96 43.847 193.901 43.9432 193.843 44.0206C193.749 43.8738 193.661 43.7322 193.576 43.5854C193.522 43.5266 193.474 43.4465 193.429 43.3504ZM191.827 40.0552C192.343 40.0043 192.862 40.0043 193.378 40.0552C193.45 40.0552 193.514 40.0685 193.578 40.0792C193.723 40.1016 193.865 40.1383 194.003 40.1887C194.318 40.6302 194.513 41.1467 194.566 41.6867L194.422 41.7081L194.28 41.7348C194.013 41.7802 193.746 41.8256 193.538 41.8683L193.271 41.9244C192.916 42.0018 192.71 42.0606 192.702 42.0633C192.668 41.9912 192.633 41.9244 192.596 41.855C192.537 41.7401 192.476 41.6227 192.422 41.5078C192.369 41.393 192.299 41.2622 192.243 41.142C192.206 41.0779 192.179 41.0138 192.15 40.9551C192.15 40.9284 192.123 40.907 192.112 40.8803C192.097 40.852 192.083 40.8225 192.072 40.7922C191.909 40.461 191.76 40.1299 191.616 39.8041C191.6 39.7721 191.586 39.7374 191.573 39.7053L191.776 39.692V39.7614L191.827 40.0552ZM128.122 205.707C128.101 201.731 127.813 197.429 127.012 193.392C126.67 191.675 126.318 189.958 125.96 188.27C125.869 187.848 125.781 187.432 125.693 187.015L124.87 187.124H124.796C122.553 176.547 120.208 167.228 120.208 167.228C120.208 167.228 115.552 149.446 116.091 148.028C116.161 147.844 116.073 147.347 115.875 146.618C114.748 142.575 110.044 131.434 108.399 127.626C108.399 127.61 108.386 127.592 108.38 127.578C108.113 126.94 107.921 126.51 107.862 126.385L108.249 120.702L108.271 120.36L108.322 119.634L108.3 119.615L108.322 119.279C108.322 119.279 104.258 115.946 97.3744 113.54C97.1074 113.444 96.8244 113.351 96.544 113.26C96.8884 110.961 97.345 108.365 97.9404 105.836C97.9965 105.583 98.0579 105.337 98.122 105.089C98.1781 104.84 98.2421 104.6 98.3062 104.357C98.4077 103.962 98.5172 103.572 98.6293 103.187C99.0004 103.07 99.3662 102.939 99.7267 102.8L99.8655 102.747C104.306 101.019 107.97 97.7401 110.179 93.5178C112.388 89.2955 112.993 84.4157 111.881 79.7819C111.247 77.1539 110.076 74.6855 108.442 72.5319C108.319 72.3663 108.188 72.2008 108.057 72.0379C107.926 71.875 107.769 71.6934 107.622 71.5279C108.394 69.7734 109.304 68.1045 109.379 66.3981C109.392 66.182 109.392 65.9653 109.379 65.7492V65.7225C109.28 64.625 108.794 63.5141 107.662 62.3472C106.009 60.6355 103.657 59.7677 101.305 59.3511C98.9524 58.9345 96.5547 58.9238 94.189 58.6434C90.2668 58.1735 86.4459 56.9638 82.5237 56.5926C77.6925 56.1452 72.8285 56.9739 68.4179 58.9959C65.4996 60.3311 62.5438 62.665 62.3676 65.8667C62.2234 68.513 64.0658 71.0499 63.6012 73.6641C63.1393 76.233 60.5226 78.2545 60.7522 80.8527C60.8404 81.8674 61.361 82.7754 62.0125 83.5845C62.2368 83.8515 62.4744 84.1185 62.7201 84.3856C63.6706 85.3923 64.7172 86.359 65.2486 87.6274C65.2699 87.6808 65.2913 87.7342 65.31 87.7876C65.7612 89.04 65.5583 90.6235 64.4422 91.3418C64.4484 91.3466 64.453 91.3531 64.4556 91.3605C64.4716 91.3819 64.4876 91.3979 64.501 91.4193C64.5026 91.415 64.5026 91.4102 64.501 91.4059C64.8967 91.8751 65.4301 92.2077 66.0256 92.3566L66.2525 92.426C66.0683 92.6263 65.8947 92.8345 65.7185 93.0535L65.6037 93.2057C65.3094 93.6014 65.0418 94.0162 64.8027 94.4474C64.6665 94.6878 64.5357 94.9281 64.4262 95.1684C64.0602 95.901 63.7952 96.6798 63.6386 97.4836C63.3529 99.2514 63.756 101.094 63.3235 102.824C62.7895 104.961 61.0993 106.6 60.1461 108.584C58.3412 112.323 59.3638 116.71 59.727 120.838C60.2209 126.446 59.4199 132.078 58.6216 137.648C58.1979 140.611 57.7743 143.576 57.3506 146.543C56.2826 153.992 55.2146 161.44 54.1466 168.889C53.7568 171.618 53.2949 174.496 51.4766 176.603H51.4953C51.4953 176.603 51.4953 176.619 51.4766 176.625C52.0224 176.863 52.6029 177.013 53.1961 177.068C55.5697 177.306 58.0849 176.157 60.2209 174.902C61.9125 173.925 63.5145 172.8 65.0083 171.54C64.7893 172.341 64.5544 173.215 64.3034 174.155C64.3042 174.163 64.3042 174.172 64.3034 174.181C61.2889 185.664 56.4401 206.714 56.4401 206.714C56.4401 206.714 55.9996 207.63 55.4282 208.995H130.723C129.842 207.926 129.022 206.904 128.381 206.079L128.122 205.707ZM72.3722 99.5344C72.3909 99.5024 72.4043 99.473 72.4229 99.4436C72.4229 99.5291 72.4229 99.6119 72.4229 99.692C72.4229 99.7721 72.4229 99.8442 72.4229 99.919C72.4229 99.9937 72.4229 99.9857 72.4229 100.023C72.4229 100.061 72.4229 100.023 72.4229 100.023C72.4229 100.133 72.3989 100.242 72.3802 100.352C72.3802 100.352 72.3802 100.365 72.3802 100.376L72.6472 100.474L72.957 100.603C74.7868 101.325 76.6398 101.98 78.516 102.565C78.7082 102.627 78.9031 102.685 79.098 102.742L79.1381 103.073C79.1861 103.412 79.2315 103.756 79.2742 104.101C79.2742 104.101 79.2742 104.117 79.2742 104.127C79.3944 105.081 79.5119 106.031 79.616 106.961C79.616 106.961 74.7138 105.091 74.7752 107.93C74.7724 107.981 74.7724 108.032 74.7752 108.082C74.7698 108.15 74.7698 108.218 74.7752 108.285C74.8206 110.496 75.5122 111.807 75.651 112.48C75.6427 112.508 75.6281 112.534 75.6083 112.555C75.4898 112.813 75.449 113.1 75.4908 113.38C75.4862 113.858 75.5237 114.335 75.603 114.806C75.4588 114.894 75.3173 114.982 75.1758 115.073C75.0689 115.14 74.9675 115.215 74.8634 115.289C74.2084 113.017 73.3514 110.808 72.3028 108.688C71.5685 107.177 70.7435 105.601 70.7515 103.943C70.7515 103.836 70.7515 103.727 70.7649 103.617C70.7946 103.137 70.8862 102.662 71.0372 102.205C71.0986 102.031 71.1654 101.86 71.2401 101.692C71.4146 101.292 71.6098 100.902 71.8249 100.522C71.9637 100.271 72.1106 100.023 72.2521 99.7721C72.2975 99.6973 72.3402 99.6199 72.3829 99.5451L72.3722 99.5344ZM192.257 41.142C192.219 41.0779 192.193 41.0138 192.163 40.9551C192.163 40.9284 192.136 40.907 192.126 40.8803C192.068 40.9078 192.008 40.9318 191.947 40.9524C191.829 40.9978 191.709 41.0405 191.586 41.0752C191.464 41.1099 191.413 41.1286 191.319 41.15L191.082 41.2114L191.103 41.2595C191.202 41.2381 191.298 41.2194 191.397 41.1927L191.424 41.5238C191.536 41.5238 191.64 41.5078 191.741 41.5078H191.885C192.094 41.5078 192.275 41.5078 192.419 41.5078C192.363 41.3877 192.305 41.2622 192.257 41.142Z" fill="url(#paint1_linear_1001_45)"/>
<path d="M133.92 80.3639L132.317 81.0716C132.317 81.0716 121.875 121.645 121.875 124.924C121.875 128.203 144.018 146.45 144.018 146.45L147.473 123.127C147.473 123.127 142.512 69.6425 133.92 80.3639Z" fill="#E8F5FF"/>
<path d="M182.487 67.4573L173.236 62.6294C172.717 60.42 171.798 58.3246 170.523 56.4475C169.169 54.4928 167.369 52.5728 165.127 51.5714C159.458 49.0293 189.104 35.6855 189.104 35.6855C189.57 37.2885 190.12 38.8661 190.751 40.4121C192.278 44.1826 194.812 49.0586 198.077 50.4472C203.628 52.8105 182.487 67.4573 182.487 67.4573Z" fill="#FFC1C7"/>
<path opacity="0.1" d="M190.751 40.4121C189.484 44.8675 186.85 48.8124 183.22 51.6897C179.591 54.567 175.149 56.2313 170.523 56.4475C169.169 54.4928 167.369 52.5728 165.127 51.5714C159.458 49.0293 189.103 35.6855 189.103 35.6855C189.57 37.2885 190.12 38.8661 190.751 40.4121Z" fill="black"/>
<path d="M191.585 33.6765C191.586 38.0462 190.291 42.318 187.864 45.9518C185.438 49.5855 181.988 52.4179 177.952 54.0907C173.915 55.7635 169.474 56.2016 165.188 55.3496C160.903 54.4976 156.967 52.3937 153.877 49.304C150.787 46.2144 148.683 42.2778 147.831 37.9921C146.978 33.7064 147.416 29.2641 149.088 25.2271C150.76 21.1901 153.592 17.7397 157.225 15.3123C160.858 12.8849 165.129 11.5896 169.498 11.5901C172.402 11.5766 175.28 12.1387 177.965 13.2439C180.651 14.3491 183.091 15.9754 185.145 18.0289C187.198 20.0825 188.825 22.5226 189.93 25.2083C191.035 27.8941 191.598 30.7722 191.585 33.6765Z" fill="#FFC1C7"/>
<path d="M194.775 64.6217L188.751 78.6784L183.438 88.0086H166.43L161.469 75.2523L163.479 62.0234H176.469L184.856 61.5508L187.688 60.6055L189.515 61.6416L194.775 64.6217Z" fill="#575A89"/>
<path opacity="0.1" d="M192.699 45.885C192.699 45.885 196.456 46.6861 193.092 49.4446C189.728 52.203 178.121 60.9751 178.121 60.9751C178.121 60.9751 182.198 64.6068 181.354 68.8607L194.862 61.3303L197.265 49.2817C197.265 49.2817 197.535 45.6607 192.699 45.885Z" fill="black"/>
<path opacity="0.1" d="M180.778 60.9746L172.186 62.3926C172.186 62.3926 173.959 68.9483 173.072 70.8095C173.046 70.8673 173.023 70.9272 173.006 70.9884L169.5 80.4655L172.127 87.9077L181.221 75.504L178.122 70.8095C178.122 70.8095 181.398 66.4675 183.347 64.9614C185.296 63.4554 180.778 60.9746 180.778 60.9746Z" fill="black"/>
<path d="M180.778 60.6094L172.186 62.0247C172.186 62.0247 173.959 68.5804 173.072 70.4416C173.046 70.4994 173.023 70.5592 173.006 70.6205L169.5 80.0976L172.127 87.5398L181.221 75.128L178.122 70.4336C178.122 70.4336 181.398 66.0916 183.347 64.5855C185.296 63.0794 180.778 60.6094 180.778 60.6094Z" fill="#DCE6F2"/>
<path d="M193.06 45.176C193.06 45.176 196.817 45.9771 193.45 48.7356C190.083 51.4941 178.121 60.9738 178.121 60.9738C178.121 60.9738 182.551 63.8978 181.71 68.149L195.217 60.6213L197.62 48.5727C197.62 48.5727 197.887 44.9517 193.06 45.176Z" fill="#575A89"/>
<path opacity="0.1" d="M171.113 57.2852C171.113 57.2852 171.933 58.8179 175.551 61.5817C175.551 61.5817 169.527 64.7862 171.831 69.291L162.617 66.8877L161.199 62.4576L171.113 57.2852Z" fill="black"/>
<path d="M170.759 56.9316C170.759 56.9316 171.579 58.4644 175.196 61.2282C175.196 61.2282 169.173 64.4166 171.477 68.9348L162.265 66.5315L160.848 62.1041L170.759 56.9316Z" fill="#575A89"/>
<path opacity="0.1" d="M194.775 64.6227L188.751 78.6794L183.448 88.0096H166.43L161.469 75.2533L163.477 62.0244H167.089C167.03 65.1114 168.157 68.7377 168.085 70.0862C167.962 72.3026 171.391 84.2604 171.391 84.2604C171.391 84.2604 178.565 72.6551 181.398 71.6217C183.179 70.9728 186.952 65.5733 189.512 61.6426L194.775 64.6227Z" fill="black"/>
<path d="M218.503 138.594L217.892 139.363C217.892 139.363 222.321 161.599 221.096 166.648C220.887 167.558 220.768 168.487 220.741 169.42V169.46C220.524 174.598 222.076 181.266 222.076 181.266C222.076 181.266 223.315 200.919 222.61 209.003H139.673C139.187 197.05 138.664 181.565 139.139 179.848C139.94 177.015 141.542 166.736 141.542 166.736L141.718 161.866C141.718 161.866 141.718 157.158 141.863 151.913C141.924 149.555 142.015 147.08 142.146 144.885C142.314 142.124 142.549 139.798 142.872 138.655C143.071 137.789 143.185 136.905 143.214 136.017C143.214 135.934 143.214 135.848 143.23 135.763C143.23 135.496 143.256 135.208 143.267 134.911C143.267 134.828 143.267 134.746 143.267 134.644C143.318 132.924 143.299 130.884 143.243 128.769C143.243 128.655 143.243 128.537 143.243 128.42C143.198 126.833 143.131 125.215 143.056 123.677C142.824 118.87 142.522 114.806 142.522 114.806L132.336 81.0529L135.081 74.2916L142.698 69.6239L156.783 61.1188C163.653 55.471 168.176 56.1493 169.901 56.7688C170.068 56.826 170.232 56.8928 170.392 56.9691C170.445 56.9958 170.488 57.0171 170.528 57.0412C170.583 57.0672 170.636 57.0975 170.686 57.132C170.213 57.3592 169.803 57.6973 169.489 58.1173C169.136 58.5954 168.885 59.1406 168.75 59.7195C168.66 60.0784 168.596 60.4435 168.56 60.8117C168.526 61.1989 168.512 61.5995 168.512 62.0027C168.531 62.887 168.607 63.7691 168.739 64.6437C168.739 64.6597 168.739 64.681 168.739 64.7024C168.827 65.3273 168.937 65.9388 169.044 66.5129C169.042 66.5227 169.042 66.5325 169.044 66.5423C169.166 67.2125 169.289 67.8321 169.372 68.3661C169.388 68.4623 169.401 68.5504 169.415 68.6332C169.473 68.9861 169.501 69.3435 169.497 69.7013C169.527 70.5652 169.644 71.424 169.845 72.2648C169.914 72.6173 169.994 72.9938 170.082 73.3864C170.202 73.9204 170.333 74.5026 170.475 75.0954C170.552 75.4212 170.635 75.7576 170.72 76.0914C170.752 76.2249 170.787 76.3585 170.819 76.4947L170.872 76.7056C171.441 78.9674 172.058 81.2185 172.437 82.5804C172.661 83.3815 172.803 83.8755 172.803 83.8755C172.803 83.8755 176.824 77.3732 180.033 73.6721C180.081 73.6187 180.124 73.568 180.17 73.5199C180.487 73.1541 180.8 72.8203 181.099 72.5265C181.753 71.875 182.34 71.4103 182.813 71.2394C182.914 71.2025 183.011 71.1569 183.104 71.1032C184.418 70.3582 186.538 67.6531 188.521 64.8199C188.716 64.5529 188.906 64.2618 189.098 63.9868C189.539 63.3512 189.966 62.713 190.369 62.1015C190.679 61.6342 190.975 61.1802 191.255 60.7476C192.59 58.6701 193.53 57.1213 193.53 57.1213L195.383 57.0385L195.706 57.0225H195.923L204.336 56.6326C204.336 56.6326 204.699 56.694 205.297 56.8142C205.329 56.8142 205.361 56.8142 205.396 56.8356C208.381 57.4284 216.674 59.3056 217.181 61.9092C217.801 65.0976 231.178 69.3515 231.178 69.3515C231.354 71.4878 234.63 72.895 234.63 72.895C234.63 72.895 239.591 86.0064 238.264 91.1442C236.953 96.2178 241.676 108.768 241.802 109.121L240.897 110.264L218.503 138.594Z" fill="#E8F5FF"/>
<path opacity="0.1" d="M192.697 44.9528C192.697 44.9528 200.886 42.6296 202.747 47.4122C204.608 52.1948 208.77 71.5094 208.77 71.5094C208.77 71.5094 197.962 73.5469 195.129 71.5094C193.467 70.3002 191.411 69.7624 189.37 70.0033L183.258 74.1664L181.453 73.6323C181.453 73.6323 191.231 59.095 193.356 54.1548C195.481 49.2147 196.2 47.0063 192.697 44.9528Z" fill="black"/>
<path d="M192.342 43.8845C192.342 43.8845 200.537 41.5613 202.406 46.3438C204.275 51.1264 208.429 70.441 208.429 70.441C208.429 70.441 197.624 72.4785 194.788 70.441C193.127 69.2318 191.071 68.6939 189.031 68.935L182.914 73.098L181.109 72.564C181.109 72.564 190.887 58.0266 193.012 53.0865C195.138 48.1463 195.845 45.9433 192.342 43.8845Z" fill="#E8F5FF"/>
<path opacity="0.1" d="M137.373 120.938C137.373 120.938 143.485 122.444 144.638 125.899C145.792 129.354 140.12 129.443 140.12 129.443C140.12 129.443 136.665 123.33 137.373 120.938Z" fill="black"/>
<path opacity="0.1" d="M160.136 146.449C160.136 146.449 145.168 177.102 148.623 180.026C152.078 182.95 160.136 146.449 160.136 146.449Z" fill="black"/>
<path opacity="0.1" d="M180.777 123.861C180.777 123.861 192.736 153.636 190.344 158.234C187.952 162.832 195.481 158.234 195.481 158.234L180.777 123.861Z" fill="black"/>
<path d="M197.432 153.273C197.432 153.273 157.039 155.223 168.822 167.803C180.605 180.383 204.785 168.337 204.785 168.337L197.432 153.273Z" fill="#FFC1C7"/>
<path opacity="0.1" d="M191.587 33.6759C191.591 36.5733 191.022 39.4428 189.913 42.1196C189.542 42.1623 189.171 42.189 188.813 42.205C188.279 41.0327 188.565 39.6789 188.575 38.3891C188.586 37.0993 188.111 35.5826 186.869 35.2354C184.394 34.5385 182.685 39.1662 180.245 38.3303C178.376 37.6948 178.864 34.8589 177.788 33.222C176.937 31.9269 175.231 31.561 173.904 30.7492C171.081 29.0162 171.167 26.2444 169.856 23.6221C168.483 20.8743 165.584 21.6861 163.066 23.307C161.154 24.5407 159.504 26.1936 157.459 27.1763C155.689 28.0308 153.699 28.3406 151.737 28.386C150.529 28.4328 149.32 28.3051 148.148 28.0068C149.527 22.8247 152.742 18.3208 157.196 15.3351C161.65 12.3494 167.037 11.0856 172.354 11.7796C177.67 12.4735 182.553 15.0776 186.091 19.1064C189.63 23.1353 191.582 28.3136 191.584 33.6759H191.587Z" fill="black"/>
<path d="M163.071 22.5997C161.157 23.8334 159.51 25.4836 157.464 26.4717C155.694 27.3235 153.705 27.6333 151.743 27.6787C149.339 27.7321 146.752 27.3102 145.11 25.5744C143.602 23.9722 143.241 21.5075 143.879 19.4059C144.517 17.3044 146.047 15.5606 147.844 14.2976C149.641 13.0345 151.726 12.1613 152.917 10.3535C153.547 9.39748 153.852 8.27059 154.375 7.25319C156.049 3.99804 159.814 2.23561 163.453 2.01664C167.092 1.79767 170.7 2.88183 174.165 4.05679C177.631 5.23174 181.124 6.52419 184.781 6.76719C186.41 6.86866 188.103 6.76719 189.614 7.38404C191.646 8.20917 192.978 10.1826 193.886 12.1907C194.904 14.4551 195.536 16.9279 195.43 19.4006C195.205 24.6799 191.718 29.8603 193.251 34.918C193.657 36.2665 194.418 37.6497 194.012 38.9983C193.419 40.9663 190.88 41.4149 188.827 41.5084C188.293 40.3361 188.578 38.9796 188.589 37.6925C188.6 36.4054 188.124 34.8859 186.885 34.5388C184.408 33.8472 182.699 38.4669 180.264 37.6337C178.408 36.9955 178.889 34.1623 177.81 32.5254C176.958 31.2276 175.249 30.8644 173.925 30.0526C171.103 28.3196 171.188 25.5477 169.877 22.9255C168.494 20.1643 165.592 20.9761 163.071 22.5997Z" fill="#99607E"/>
<path d="M123.904 124.215L121.867 124.925C121.867 124.925 122.668 136.973 119.998 140.429C117.328 143.884 128.766 152.475 128.766 152.475C128.766 152.475 144.445 152.387 144.888 151.14C145.331 149.893 144.087 128.816 144.087 128.816C144.087 128.816 135.671 125.536 136.378 120.311C136.378 120.311 133.81 132.624 130.002 132.092C126.195 131.561 121.872 128.38 123.904 124.215Z" fill="#E8F5FF"/>
<path opacity="0.1" d="M130.699 135.819C133.667 135.819 136.074 133.618 136.074 130.902C136.074 128.187 133.667 125.986 130.699 125.986C127.731 125.986 125.324 128.187 125.324 130.902C125.324 133.618 127.731 135.819 130.699 135.819Z" fill="black"/>
<path d="M136.578 124.57C136.578 124.57 135.51 91.97 126.213 99.2333C116.916 106.497 116.825 115.183 118.596 117.749C120.366 120.316 126.042 133.163 126.042 133.163C126.93 133.677 127.927 133.974 128.952 134.029C129.977 134.084 131 133.895 131.938 133.479C132.876 133.062 133.702 132.429 134.348 131.631C134.994 130.833 135.441 129.894 135.654 128.89L136.578 124.57Z" fill="#FFC1C7"/>
<path opacity="0.1" d="M194.572 41.9939C194.529 41.8506 194.446 41.7228 194.332 41.6253C193.873 41.2061 192.885 41.0592 191.395 41.1874L191.456 41.8924C193.443 41.7215 193.835 42.1167 193.886 42.1835V42.2502L193.948 42.3383C194.195 42.6713 194.371 43.0522 194.463 43.4569C194.555 43.8615 194.561 44.2809 194.482 44.6882C194.046 46.8646 191.374 48.5976 191.347 48.6163L191.283 48.6537L191.243 48.7151C190.089 50.4268 183.566 55.2575 181.86 56.5072L181.711 56.3363C180.947 56.9985 174.235 62.876 173.872 65.1271C173.637 66.5397 172.045 67.0871 171.469 67.2393C170.86 66.7773 168.884 65.2045 167.856 63.4421C166.892 61.7838 170.772 58.5473 171.113 57.2843L170.579 56.7368C170.523 56.9398 165.541 61.5969 166.927 63.9761C168.038 65.8854 170.067 67.5197 170.777 68.0591C170.55 70.1206 169.138 82.2253 166.967 85.0932C164.27 88.6582 162.003 106.624 162.254 112.897C162.476 118.47 161.021 128.996 156.161 133.517C155.32 134.334 154.305 134.951 153.192 135.321C152.079 135.691 150.897 135.804 149.735 135.654H149.676H149.617C149.548 135.654 142.499 136.375 136.577 131.381C131.731 127.303 128.986 120.649 128.414 111.596H128.297L128.249 108.961C129.563 108.756 130.746 108.049 131.55 106.99C132.354 105.93 132.716 104.601 132.561 103.28C132.405 101.959 131.743 100.75 130.715 99.9066C129.686 99.0634 128.371 98.6516 127.046 98.7579C125.72 98.8641 124.487 99.4801 123.606 100.476C122.725 101.473 122.265 102.772 122.321 104.1C122.378 105.429 122.947 106.684 123.909 107.602C124.872 108.52 126.153 109.029 127.483 109.022H127.541L127.589 111.642L127.354 111.658C127.942 121.004 130.825 127.918 135.898 132.187C139.754 135.383 144.68 136.995 149.678 136.698C150.033 136.736 150.39 136.756 150.746 136.756C153.038 136.768 155.242 135.881 156.888 134.286C162.006 129.52 163.563 118.606 163.32 112.843C163.053 106.197 165.432 88.8771 167.819 85.7234C170.158 82.6285 171.575 70.5692 171.824 68.2327C172.67 67.995 174.585 67.2446 174.91 65.2953C175.145 63.8854 179.628 59.5407 182.386 57.1347L182.304 57.0386C183.788 55.9544 188.405 52.5364 190.693 50.3414C191.403 49.6604 192.108 48.9795 192.845 48.3306C193.731 47.5455 194.858 46.2985 195.154 44.8244C195.255 44.3379 195.256 43.8358 195.156 43.349C195.056 42.8622 194.857 42.4011 194.572 41.9939Z" fill="black"/>
<path d="M170.686 67.8901C170.574 67.8126 167.915 65.9087 166.582 63.6175C165.199 61.2382 170.182 56.5838 170.235 56.3809L170.769 56.9283C170.43 58.1887 166.55 61.4278 167.514 63.0834C168.729 65.1743 171.287 67.0035 171.314 67.0222L170.686 67.8901Z" fill="#353146"/>
<path d="M181.514 57.0249L181.098 56.4508C181.183 56.3894 189.57 50.3224 190.891 48.3596L190.934 48.3009L190.995 48.2608C191.022 48.2422 193.695 46.5118 194.13 44.3328C194.21 43.9259 194.204 43.5068 194.112 43.1024C194.02 42.6981 193.844 42.3176 193.596 41.9855L193.535 41.8947V41.8306C193.481 41.7612 193.089 41.3687 191.102 41.5396L191.041 40.8319C192.533 40.7038 193.519 40.8506 193.978 41.2699C194.092 41.3683 194.176 41.4969 194.221 41.6411C194.51 42.0471 194.712 42.5079 194.816 42.9952C194.92 43.4825 194.923 43.9859 194.824 44.4743C194.528 45.951 193.404 47.198 192.515 47.9805C191.78 48.6294 191.073 49.3156 190.365 49.9912C187.682 52.5628 181.808 56.814 181.514 57.0249Z" fill="#E8F5FF"/>
<path d="M127.907 108.032L127.199 108.045L127.278 112.346L127.985 112.333L127.907 108.032Z" fill="#E8F5FF"/>
<path d="M127.139 108.684C129.993 108.684 132.306 106.37 132.306 103.517C132.306 100.663 129.993 98.3496 127.139 98.3496C124.286 98.3496 121.973 100.663 121.973 103.517C121.973 106.37 124.286 108.684 127.139 108.684Z" fill="white"/>
<path d="M127.138 107.807C129.508 107.807 131.429 105.886 131.429 103.516C131.429 101.146 129.508 99.2246 127.138 99.2246C124.769 99.2246 122.848 101.146 122.848 103.516C122.848 105.886 124.769 107.807 127.138 107.807Z" fill="#E8F5FF"/>
<path d="M150.412 136.413C150.055 136.413 149.698 136.394 149.344 136.356C144.345 136.651 139.421 135.039 135.564 131.846C130.491 127.574 127.612 120.668 127.02 111.314L128.088 111.247C128.659 120.3 131.404 126.957 136.253 131.032C142.175 136.012 149.221 135.304 149.29 135.304H149.349H149.408C150.571 135.454 151.753 135.34 152.866 134.97C153.979 134.6 154.995 133.984 155.837 133.168C160.694 128.647 162.149 118.121 161.928 112.548C161.661 106.27 163.927 88.3036 166.627 84.7413C168.99 81.6197 170.456 67.5496 170.472 67.4081L170.512 67.0076L170.907 66.9381C170.931 66.9381 173.238 66.5002 173.526 64.7752C173.9 62.5267 180.602 56.6493 181.363 55.9844L182.06 56.7855C179.291 59.1888 174.808 63.5361 174.583 64.9487C174.258 66.9034 172.343 67.6511 171.5 67.8861C171.233 70.2253 169.825 82.2819 167.495 85.3769C165.108 88.5306 162.729 105.85 162.996 112.497C163.225 118.26 161.685 129.176 156.566 133.94C154.918 135.539 152.708 136.427 150.412 136.413Z" fill="#353146"/>
<g opacity="0.1">
<path opacity="0.1" d="M193.863 27.3633C194.301 25.7451 194.83 24.1162 195.198 22.4766C194.758 24.1242 194.226 25.7451 193.863 27.3633Z" fill="black"/>
<path opacity="0.1" d="M189.395 40.0796C188.861 38.9074 189.147 37.5508 189.158 36.2637C189.168 34.9766 188.693 33.4705 187.454 33.11C184.976 32.4184 183.267 37.0408 180.832 36.205C178.963 35.5668 179.457 32.7335 178.379 31.0966C177.527 29.7988 175.821 29.4356 174.496 28.6239C171.671 26.8908 171.757 24.119 170.449 21.4967C169.074 18.7462 166.177 19.558 163.656 21.1816C161.742 22.4153 160.094 24.0682 158.049 25.0536C156.279 25.9054 154.29 26.2152 152.327 26.2606C149.937 26.3167 147.337 25.8921 145.695 24.1564C144.429 22.8212 143.973 20.8638 144.234 19.0293C144.189 19.1548 144.149 19.2803 144.109 19.4058C143.468 21.5074 143.842 23.9774 145.34 25.5743C146.982 27.31 149.582 27.732 151.972 27.6785C153.937 27.6332 155.924 27.3234 157.697 26.4715C159.747 25.4835 161.395 23.8332 163.304 22.5995C165.824 20.976 168.724 20.1642 170.096 22.9147C171.404 25.5369 171.322 28.3088 174.144 30.0418C175.479 30.8429 177.174 31.2168 178.029 32.5145C179.097 34.1568 178.624 36.9847 180.483 37.6229C182.915 38.4561 184.624 33.8364 187.102 34.528C188.34 34.8751 188.818 36.3972 188.805 37.6817C188.792 38.9661 188.514 40.3253 189.043 41.4976C191.096 41.4041 193.635 40.9635 194.231 38.9875C194.313 38.7039 194.35 38.4094 194.343 38.1143C193.475 39.6123 191.243 39.9969 189.395 40.0796Z" fill="black"/>
</g>
<path opacity="0.1" d="M237.65 105.876L240.75 109.156C240.75 109.156 243.23 127.226 244.469 128.916C245.708 130.606 248.634 137.33 245.887 142.38C245.887 142.38 245 145.128 245.532 146.279C246.063 147.43 241.548 153.19 241.548 153.19C241.548 153.19 235.612 158.504 234.371 159.302C233.129 160.1 226.577 166.477 224.364 166.565C222.15 166.653 221.427 169.401 221.427 169.401L208.936 169.845C208.936 169.845 202.037 169.484 200.536 170.459C200.536 170.459 201.337 159.916 193.629 153.005L203.46 149.462C203.46 149.462 207.182 147.86 208.333 146.185C209.057 145.159 210.084 144.385 211.27 143.972C211.27 143.972 214.015 142.022 214.103 140.959C214.191 139.897 217.459 138.593 217.459 138.593L215.609 122.798L216.583 96.5755C216.583 96.5755 219.683 74.6039 226.238 75.8456C232.793 77.0873 237.65 105.876 237.65 105.876Z" fill="black"/>
<path d="M238.716 105.876L241.816 109.156C241.816 109.156 244.296 127.226 245.535 128.916C246.774 130.606 249.701 137.33 246.953 142.38C246.953 142.38 246.069 145.128 246.601 146.279C247.132 147.43 242.614 153.19 242.614 153.19C242.614 153.19 236.679 158.504 235.437 159.302C234.196 160.1 227.643 166.477 225.43 166.565C223.217 166.653 222.493 169.401 222.493 169.401L210.003 169.845C210.003 169.845 203.098 169.484 201.603 170.459C201.603 170.459 202.404 159.916 194.695 153.005L204.526 149.462C204.526 149.462 208.248 147.86 209.399 146.185C210.123 145.159 211.15 144.385 212.336 143.972C212.336 143.972 215.081 142.022 215.169 140.959C215.257 139.897 218.525 138.593 218.525 138.593L216.675 122.798L217.65 96.5755C217.65 96.5755 220.749 74.6039 227.304 75.8456C233.859 77.0873 238.716 105.876 238.716 105.876Z" fill="#E8F5FF"/>
<path opacity="0.1" d="M227.191 132.367C227.191 132.367 236.315 129.964 238.707 132.901C241.1 135.839 227.191 132.367 227.191 132.367Z" fill="black"/>
<path opacity="0.1" d="M225.066 136.396C228.166 138.567 237.733 138.656 237.733 138.656L225.066 136.396Z" fill="black"/>
<path opacity="0.1" d="M229.762 147.248C230.029 147.336 236.338 154.071 238.987 152.033C241.635 149.996 229.762 147.248 229.762 147.248Z" fill="black"/>
<path opacity="0.1" d="M144.789 90.7285C144.789 90.7285 146.642 103.487 145.729 108.684C144.816 113.88 148.148 120.319 148.148 120.319L144.789 90.7285Z" fill="black"/>
<path d="M103.767 95.9169C101.631 97.5912 100.072 101.554 98.9421 105.909C96.9716 113.506 96.3281 122.316 96.3281 122.316C96.3281 122.316 79.32 118.417 80.5589 116.647C81.3386 115.533 80.2919 107.143 79.4188 101.06C78.8982 97.4657 78.4336 94.6752 78.4336 94.6752C78.4336 94.6752 109.614 91.3078 103.767 95.9169Z" fill="#FFCCD0"/>
<path opacity="0.1" d="M103.767 95.5602C101.631 97.2372 100.072 101.197 98.9421 105.553C95.5534 106.582 91.9495 106.675 88.5123 105.821C85.0752 104.968 81.933 103.2 79.4188 100.706C78.8982 97.1091 78.4336 94.3185 78.4336 94.3185C78.4336 94.3185 109.614 90.9539 103.767 95.5602Z" fill="black"/>
<path d="M112.912 86.0173C112.914 90.6619 111.272 95.1573 108.279 98.7081C105.285 102.259 101.132 104.636 96.5543 105.419C91.9766 106.201 87.2698 105.339 83.2666 102.985C79.2635 100.63 76.2223 96.9352 74.6812 92.5538C73.1401 88.1725 73.1985 83.3871 74.8461 79.0446C76.4936 74.7021 79.6241 71.0826 83.6835 68.8266C87.7429 66.5706 92.4694 65.8235 97.0266 66.7177C101.584 67.6119 105.678 70.0896 108.584 73.7123C111.384 77.202 112.911 81.5426 112.912 86.0173Z" fill="#FFCCD0"/>
<path opacity="0.1" d="M128.417 209.004H122.81L122.338 199.099L121.844 188.848C121.844 188.848 123.117 188.658 125.147 188.375L125.966 188.266H126.033C126.476 190.346 126.914 192.482 127.336 194.616C128.038 198.403 128.404 202.246 128.428 206.098C128.428 206.365 128.428 206.632 128.428 206.883C128.444 207.596 128.428 208.309 128.417 209.004Z" fill="black"/>
<path d="M127.341 209.002H57.0234C57.3278 208.311 57.5307 207.892 57.5307 207.892C57.5307 207.892 63.1565 183.276 66.0161 172.862C66.017 172.853 66.017 172.844 66.0161 172.835C66.3734 171.421 66.8047 170.026 67.3084 168.656C67.3409 168.563 67.383 168.474 67.4339 168.389C68.849 166.087 70.6219 163.607 68.1414 160.063C65.661 156.519 66.5394 140.927 66.5394 140.927C66.5394 140.927 69.5512 127.637 72.7392 120.55C73.223 119.452 73.9097 118.456 74.7631 117.612C75.0406 117.341 75.3368 117.089 75.6496 116.859C75.8873 116.681 76.1352 116.516 76.3918 116.365L76.4426 116.333C77.7818 115.574 79.269 115.112 80.8027 114.98C81.8922 114.866 82.992 114.896 84.0735 115.07C89.2427 115.829 93.3812 117.097 96.6707 118.542C105.586 122.459 108.285 127.709 108.339 127.819L108.36 127.864C108.718 128.7 113.951 140.919 115.836 146.62C116.325 148.105 116.592 149.149 116.485 149.435C115.951 150.85 120.559 168.568 120.559 168.568C120.559 168.568 122.695 177.113 124.832 187.13C124.925 187.546 125.013 187.963 125.099 188.385C125.48 190.203 125.859 192.056 126.225 193.907C126.934 197.721 127.299 201.59 127.317 205.47C127.356 206.678 127.364 207.856 127.341 209.002Z" fill="#FF748E"/>
<path opacity="0.1" d="M80.3831 108.886C80.3831 108.886 75.5316 107.016 75.5904 109.852C75.6491 112.688 76.7732 114.045 76.4181 114.459C76.063 114.873 76.5943 117.353 76.5943 117.353C76.5943 117.353 83.1492 117.353 86.161 118.71C89.1728 120.066 100.275 122.785 101.693 123.613C103.11 124.44 108.368 128.152 108.368 128.152L108.84 121.124C108.84 121.124 103.407 116.635 94.4915 114.333C85.5763 112.031 80.3831 108.886 80.3831 108.886Z" fill="black"/>
<path d="M80.3831 108.53C80.3831 108.53 75.5316 106.661 75.5904 109.497C75.6491 112.333 76.7732 113.689 76.4181 114.103C76.063 114.517 76.5943 116.998 76.5943 116.998C76.5943 116.998 83.1492 116.998 86.161 118.357C89.1728 119.716 100.275 122.432 101.693 123.257C103.11 124.082 108.368 127.797 108.368 127.797L108.846 120.79C108.846 120.79 103.412 116.301 94.4969 113.999C85.5816 111.697 80.3831 108.53 80.3831 108.53Z" fill="#FF748E"/>
<path opacity="0.1" d="M95.0273 125.445C95.0273 125.445 104.298 135.483 103.825 138.263C103.352 141.043 95.0273 125.445 95.0273 125.445Z" fill="black"/>
<path opacity="0.1" d="M79.9713 161.705C79.9713 161.705 73.176 167.967 71.1735 168.322C69.171 168.677 72.7088 169.858 75.0103 168.915C77.3119 167.972 82.2194 165.492 82.2194 165.492L79.9713 161.705Z" fill="black"/>
<path d="M130.104 209.003H114.257C112.041 207.08 109.945 205.299 108.61 204.228C106.474 202.514 104.934 199.99 103.951 197.961C103.73 197.499 103.537 197.066 103.374 196.674C103.083 195.998 102.826 195.307 102.605 194.604L114.34 187.635C114.989 188.186 115.598 188.782 116.164 189.419L116.305 189.581C116.957 190.351 117.531 191.224 117.582 191.939C117.64 192.773 119.958 195.996 122.326 199.091C124.729 202.239 127.191 205.248 127.354 205.451C127.354 205.451 127.76 206.004 128.422 206.853C128.889 207.467 129.466 208.204 130.104 209.003Z" fill="#FFCCD0"/>
<path opacity="0.1" d="M108.581 73.7123C108.017 74.9834 107.513 76.3025 107.438 77.7178C107.227 81.8035 107.569 90.9387 103.046 92.9895C100.805 93.9989 98.4078 91.7825 95.9513 91.7291C94.1838 91.6918 92.5631 92.8133 91.4844 94.2152C90.4057 95.6172 89.7355 97.2808 88.9532 98.867C88.2411 100.307 87.4208 101.69 86.4994 103.006C86.224 103.409 85.9207 103.791 85.5916 104.152C82.8337 102.988 80.3777 101.21 78.411 98.9525C76.4442 96.6956 75.0185 94.0194 74.2426 91.1279C73.4666 88.2364 73.3608 85.206 73.9333 82.2674C74.5058 79.3289 75.7414 76.5598 77.546 74.1712C79.3507 71.7825 81.6766 69.8374 84.3468 68.484C87.0169 67.1306 89.9607 66.4047 92.9538 66.3614C95.9469 66.3182 98.9105 66.9589 101.619 68.2346C104.327 69.5103 106.708 71.3875 108.581 73.723V73.7123Z" fill="black"/>
<path d="M107.083 76.9962C106.87 81.0818 107.214 90.2171 102.688 92.2652C100.448 93.2746 98.0504 91.0609 95.594 91.0075C93.8264 90.9675 92.2084 92.0917 91.127 93.4909C90.0457 94.8902 89.3808 96.5565 88.5959 98.1454C87.8835 99.585 87.0632 100.969 86.1421 102.284C85.5921 103.064 84.9833 103.847 84.1369 104.284C82.663 105.054 80.8768 104.621 79.2961 104.127C77.2456 103.481 75.2252 102.753 73.2352 101.943C73.2808 101.642 73.304 101.339 73.3046 101.035C73.2458 101.147 73.1818 101.251 73.1177 101.363L72.9922 101.582C72.7652 101.983 72.5436 102.383 72.3407 102.794C72.2633 102.952 72.1885 103.115 72.1218 103.278C71.8532 103.884 71.6846 104.53 71.6225 105.19C71.4863 106.971 72.3647 108.661 73.1444 110.263C76.1428 116.461 77.9958 123.709 75.7397 130.211C74.7624 133.039 73.0696 135.552 71.8334 138.283C69.6724 143.122 69.0363 148.504 70.0098 153.713C70.6265 156.949 71.8628 160.153 71.5584 163.435C71.0244 169.083 66.1542 173.286 61.2761 176.176C58.6408 177.73 55.4154 179.113 52.6172 177.885C54.4008 175.802 54.86 172.92 55.2445 170.202C56.2965 162.787 57.3512 155.369 58.4085 147.947C58.8304 144.994 59.2513 142.041 59.6714 139.087C60.4564 133.538 61.2521 127.928 60.7608 122.344C60.403 118.229 59.3937 113.86 61.1773 110.135C62.1198 108.162 63.7993 106.528 64.3226 104.402C64.7525 102.674 64.352 100.837 64.635 99.0773C64.7899 98.2767 65.0522 97.5006 65.4146 96.7701C65.8762 95.7789 66.4788 94.8597 67.2036 94.041C66.488 93.8327 65.8205 93.547 65.4146 92.9489C66.5628 92.2012 66.7363 90.5162 66.2157 89.2504C65.695 87.9847 64.6537 87.0207 63.7165 86.022C62.7793 85.0233 61.8769 83.859 61.7594 82.4971C61.5324 79.9042 64.1224 77.8961 64.5789 75.3379C65.0408 72.7343 63.2145 70.2028 63.3614 67.5672C63.5323 64.3815 66.4586 62.0663 69.3476 60.7231C73.7072 58.7047 78.5231 57.8756 83.3065 58.3198C87.1994 58.6883 90.9668 59.8926 94.8491 60.36C97.1907 60.627 99.5643 60.6537 101.89 61.0649C104.216 61.4762 106.546 62.344 108.183 64.0504C112.498 68.5499 107.329 72.2537 107.083 76.9962Z" fill="#FFE0D0"/>
<path opacity="0.1" d="M103.474 197.964C102.112 197.374 99.6341 197.726 95.3807 196.431C91.1273 195.136 90.3076 189.283 90.3076 189.283V189.264C90.2569 189.13 89.8618 188.26 87.1864 185.21C84.2307 181.843 77.8413 164.836 77.8413 164.836C77.8413 164.836 72.1755 158.75 72.3544 156.507C72.5332 154.264 71.3478 148.296 71.4652 141.62C71.5827 134.944 84.22 130.516 84.22 130.516C108.552 126.204 102.822 154.258 102.173 156.384C101.524 158.51 104.891 164.251 104.891 164.251C104.416 166.75 106.84 170.62 106.84 170.62C106.84 170.62 107.428 174.043 107.548 175.343C107.555 175.404 107.568 175.463 107.588 175.52C107.978 176.745 111.155 177.856 112.448 178.532C113.807 179.242 118.177 185.443 118.177 185.443C119.12 189.996 104.83 198.562 103.474 197.964Z" fill="black"/>
<path d="M104.182 196.896C102.823 196.303 100.342 196.658 96.0917 195.361C91.841 194.063 91.0186 188.215 91.0186 188.215V188.196C90.9706 188.06 90.5727 187.192 87.8974 184.142C84.9416 180.775 78.5522 163.765 78.5522 163.765C78.5522 163.765 72.8864 157.682 73.0627 155.439C73.2389 153.196 72.0587 147.228 72.1762 140.557C72.2937 133.886 84.9229 129.462 84.9229 129.462C109.255 125.149 103.525 153.204 102.876 155.329C102.227 157.455 105.594 163.196 105.594 163.196C105.119 165.696 107.543 169.565 107.543 169.565C107.543 169.565 108.131 172.988 108.254 174.289C108.258 174.349 108.271 174.408 108.291 174.465C108.681 175.691 111.858 176.802 113.153 177.477C114.51 178.185 118.883 184.388 118.883 184.388C119.831 188.933 105.541 197.499 104.182 196.896Z" fill="#FF748E"/>
<path opacity="0.1" d="M85.4023 144.107C85.4023 144.107 96.0317 155.323 98.8059 155.323C101.58 155.323 85.4023 144.107 85.4023 144.107Z" fill="black"/>
<path d="M104.183 196.895C102.824 196.302 100.343 196.657 96.0926 195.359C91.8419 194.061 91.0195 188.213 91.0195 188.213V188.195C93.8364 186.325 100.971 181.046 103.782 179.116C105.761 177.762 107.376 175.772 108.321 174.453C108.711 175.679 111.888 176.79 113.183 177.465C114.54 178.173 118.913 184.376 118.913 184.376C119.832 188.932 105.542 197.498 104.183 196.895Z" fill="#FF748E"/>
<g opacity="0.1">
<path opacity="0.1" d="M65.4297 92.9799C65.443 93.0012 65.4617 93.0199 65.4777 93.0413C65.5578 92.9398 65.6406 92.8383 65.7261 92.7422C65.6351 92.8307 65.5358 92.9103 65.4297 92.9799Z" fill="black"/>
<path opacity="0.1" d="M71.6251 105.221C71.7373 103.739 72.5303 102.433 73.2725 101.13C72.7866 100.943 72.3006 100.753 71.82 100.556C71.8658 100.256 71.889 99.9535 71.8895 99.6504C71.1392 100.986 70.3222 102.299 70.2074 103.803C70.0712 105.587 70.9496 107.274 71.7293 108.876C74.7304 115.072 76.5807 122.319 74.3245 128.824C73.3446 131.649 71.6545 134.165 70.4183 136.896C68.258 141.734 67.6229 147.115 68.5973 152.323C69.2088 155.562 70.4476 158.764 70.1433 162.046C69.6093 167.694 64.7418 171.897 59.861 174.783C57.8665 175.964 55.5355 177.045 53.3061 176.968C53.0997 177.3 52.8695 177.617 52.6172 177.916C55.418 179.152 58.6408 177.761 61.2761 176.201C66.1596 173.317 71.0377 169.125 71.5717 163.466C71.8761 160.184 70.6372 156.983 70.0231 153.744C69.0484 148.536 69.6816 143.156 71.8387 138.317C73.067 135.588 74.7758 133.07 75.745 130.245C78.0012 123.74 76.1482 116.492 73.1497 110.297C72.3727 108.684 71.489 107.005 71.6251 105.221Z" fill="black"/>
<path opacity="0.1" d="M108.177 64.0836C107.914 63.8142 107.632 63.5643 107.333 63.3359C110.569 67.5337 105.897 71.1013 105.665 75.6195C105.456 79.7052 105.798 88.8431 101.272 90.8886C99.0349 91.9006 96.6345 89.6842 94.1808 89.6308C92.4105 89.5934 90.7925 90.7177 89.7111 92.1169C88.6298 93.5162 87.9649 95.1825 87.1826 96.7687C86.4689 98.2081 85.6478 99.5917 84.7262 100.908C84.1922 101.69 83.5674 102.47 82.7183 102.91C81.2498 103.677 79.4636 103.247 77.8802 102.75C76.3405 102.266 74.815 101.732 73.3038 101.148C73.3007 101.426 73.2775 101.704 73.2344 101.979C75.2262 102.79 77.2474 103.518 79.298 104.163C80.8787 104.66 82.6649 105.089 84.1361 104.323C84.9825 103.882 85.5966 103.1 86.144 102.318C87.0662 101.004 87.8866 99.6207 88.5977 98.1813C89.3827 96.5951 90.0449 94.9261 91.1289 93.5269C92.213 92.1276 93.8283 91.0061 95.5959 91.0434C98.0523 91.0969 100.453 93.3132 102.69 92.3012C107.216 90.2557 106.871 81.1178 107.082 77.0321C107.328 72.2816 112.497 68.5805 108.177 64.0836Z" fill="black"/>
</g>
<path opacity="0.1" d="M72.9955 101.585C72.7686 101.986 72.5469 102.386 72.344 102.798C72.2666 102.955 72.1918 103.118 72.1251 103.281C70.726 101.871 67.319 98.5198 65.418 97.481C65.8802 96.4902 66.4827 95.571 67.2069 94.752C67.2069 94.752 71.7379 97.1472 72.9955 101.585Z" fill="black"/>
<path d="M73.121 101.367C72.0717 96.6165 67.2069 94.0449 67.2069 94.0449C66.4821 94.8636 65.8795 95.7828 65.418 96.774C67.4232 97.8715 71.1185 101.551 72.344 102.798L73.121 101.367Z" fill="#FF748E"/>
</g>
<defs>
<linearGradient id="paint0_linear_1001_45" x1="194.922" y1="25.4784" x2="194.922" y2="20.5703" gradientUnits="userSpaceOnUse">
<stop stop-color="#808080" stop-opacity="0.25"/>
<stop offset="0.54" stop-color="#808080" stop-opacity="0.12"/>
<stop offset="1" stop-color="#808080" stop-opacity="0.1"/>
</linearGradient>
<linearGradient id="paint1_linear_1001_45" x1="122494" y1="175843" x2="122494" y2="12260.2" gradientUnits="userSpaceOnUse">
<stop stop-color="#808080" stop-opacity="0.25"/>
<stop offset="0.54" stop-color="#808080" stop-opacity="0.12"/>
<stop offset="1" stop-color="#808080" stop-opacity="0.1"/>
</linearGradient>
<clipPath id="clip0_1001_45">
<rect width="290" height="209" fill="white"/>
</clipPath>
</defs>
</svg>
