<svg width="791" height="706" viewBox="0 0 791 706" fill="none" xmlns="http://www.w3.org/2000/svg">
<g clip-path="url(#clip0_1100_275)">
<path d="M170.965 217.273C168.843 217.273 166.808 218.116 165.308 219.617C163.808 221.117 162.965 223.152 162.965 225.273C162.965 227.395 163.808 229.43 165.308 230.93C166.808 232.431 168.843 233.273 170.965 233.273H271.525V229.783C271.525 227.303 272.14 224.862 273.317 222.678C274.493 220.495 276.193 218.638 278.265 217.273H170.965Z" fill="#E6E6E6"/>
<path d="M262.469 199.273H228.469C226.347 199.273 224.312 198.431 222.812 196.93C221.312 195.43 220.469 193.395 220.469 191.273C220.469 189.152 221.312 187.117 222.812 185.617C224.312 184.116 226.347 183.273 228.469 183.273H262.469C264.59 183.273 266.625 184.116 268.126 185.617C269.626 187.117 270.469 189.152 270.469 191.273C270.469 193.395 269.626 195.43 268.126 196.93C266.625 198.431 264.59 199.273 262.469 199.273Z" fill="#E6E6E6"/>
<path d="M186.215 142.275H54.2149C52.0931 142.275 50.0583 141.433 48.558 139.932C47.0577 138.432 46.2148 136.397 46.2148 134.275C46.2148 132.154 47.0577 130.119 48.558 128.619C50.0583 127.118 52.0931 126.275 54.2149 126.275H186.215C188.337 126.275 190.371 127.118 191.872 128.619C193.372 130.119 194.215 132.154 194.215 134.275C194.215 136.397 193.372 138.432 191.872 139.932C190.371 141.433 188.337 142.275 186.215 142.275Z" fill="#E6E6E6"/>
<path d="M128.715 108.275H111.715C109.593 108.275 107.558 107.433 106.058 105.932C104.558 104.432 103.715 102.397 103.715 100.275C103.715 98.1537 104.558 96.1188 106.058 94.6185C107.558 93.1182 109.593 92.2754 111.715 92.2754H128.715C130.837 92.2754 132.871 93.1182 134.372 94.6185C135.872 96.1188 136.715 98.1537 136.715 100.275C136.715 102.397 135.872 104.432 134.372 105.932C132.871 107.433 130.837 108.275 128.715 108.275Z" fill="#E6E6E6"/>
<path d="M270.52 378.17H146.082C141.575 378.165 137.254 376.372 134.067 373.185C130.88 369.998 129.087 365.677 129.082 361.17V164.33C129.087 159.823 130.88 155.502 134.067 152.315C137.254 149.128 141.575 147.335 146.082 147.33H344.856C349.363 147.335 353.684 149.128 356.871 152.315C360.058 155.502 361.851 159.823 361.856 164.33V213.118H359.856V164.33C359.851 160.353 358.269 156.541 355.457 153.728C352.645 150.916 348.833 149.335 344.856 149.33H146.082C142.105 149.335 138.292 150.916 135.48 153.728C132.668 156.541 131.087 160.353 131.082 164.33V361.17C131.087 365.147 132.668 368.959 135.48 371.772C138.292 374.584 142.105 376.165 146.082 376.17H270.52V378.17Z" fill="#252525"/>
<path d="M130.08 260.334H39.3711C34.864 260.329 30.5429 258.536 27.3559 255.349C24.1689 252.162 22.3762 247.841 22.3711 243.334V83.2754C22.3762 78.7683 24.1689 74.4472 27.3559 71.2602C30.5429 68.0732 34.864 66.2805 39.3711 66.2754H201.052C205.56 66.2805 209.881 68.0732 213.068 71.2602C216.255 74.4472 218.047 78.7683 218.052 83.2754V148.33H216.052V83.2754C216.048 79.2985 214.466 75.4858 211.654 72.6738C208.842 69.8617 205.029 68.2799 201.052 68.2754H39.3711C35.3942 68.2799 31.5815 69.8617 28.7695 72.6738C25.9574 75.4858 24.3756 79.2985 24.3711 83.2754V243.334C24.3756 247.311 25.9574 251.124 28.7695 253.936C31.5815 256.748 35.3942 258.329 39.3711 258.334H130.08V260.334Z" fill="#252525"/>
<path d="M534.965 217.273C537.036 218.638 538.737 220.495 539.913 222.678C541.089 224.862 541.705 227.303 541.705 229.783V233.273H642.265C644.386 233.273 646.421 232.431 647.922 230.93C649.422 229.43 650.265 227.395 650.265 225.273C650.265 223.152 649.422 221.117 647.922 219.617C646.421 218.116 644.386 217.273 642.265 217.273H534.965Z" fill="#E6E6E6"/>
<path d="M542.758 191.273C542.76 189.152 543.604 187.119 545.104 185.619C546.603 184.119 548.637 183.276 550.758 183.273H584.758C586.88 183.273 588.914 184.116 590.415 185.617C591.915 187.117 592.758 189.152 592.758 191.273C592.758 193.395 591.915 195.43 590.415 196.93C588.914 198.431 586.88 199.273 584.758 199.273H550.758C548.637 199.271 546.603 198.427 545.104 196.928C543.604 195.428 542.76 193.394 542.758 191.273Z" fill="#E6E6E6"/>
<path d="M619.016 134.275C619.018 132.154 619.862 130.121 621.361 128.621C622.861 127.121 624.895 126.278 627.016 126.275H759.016C761.137 126.275 763.172 127.118 764.672 128.619C766.173 130.119 767.016 132.154 767.016 134.275C767.016 136.397 766.173 138.432 764.672 139.932C763.172 141.433 761.137 142.275 759.016 142.275H627.016C624.895 142.273 622.861 141.429 621.361 139.93C619.862 138.43 619.018 136.396 619.016 134.275Z" fill="#E6E6E6"/>
<path d="M676.516 100.275C676.518 98.1544 677.362 96.121 678.861 94.6212C680.361 93.1215 682.395 92.2778 684.516 92.2754H701.516C703.637 92.2754 705.672 93.1182 707.172 94.6185C708.673 96.1188 709.516 98.1537 709.516 100.275C709.516 102.397 708.673 104.432 707.172 105.932C705.672 107.433 703.637 108.275 701.516 108.275H684.516C682.395 108.273 680.361 107.429 678.861 105.93C677.362 104.43 676.518 102.396 676.516 100.275Z" fill="#E6E6E6"/>
<path d="M542.707 378.17H667.145C671.652 378.165 675.973 376.372 679.16 373.185C682.347 369.998 684.14 365.677 684.145 361.17V164.33C684.14 159.823 682.347 155.502 679.16 152.315C675.973 149.128 671.652 147.335 667.145 147.33H468.371C463.864 147.335 459.543 149.128 456.356 152.315C453.169 155.502 451.376 159.823 451.371 164.33V213.118H453.371V164.33C453.376 160.353 454.957 156.541 457.769 153.728C460.582 150.916 464.394 149.335 468.371 149.33H667.145C671.122 149.335 674.934 150.916 677.746 153.728C680.558 156.541 682.14 160.353 682.145 164.33V361.17C682.14 365.147 680.558 368.959 677.746 371.772C674.934 374.584 671.122 376.165 667.145 376.17H542.707V378.17Z" fill="#252525"/>
<path d="M683.148 260.334H773.857C778.364 260.329 782.685 258.536 785.872 255.349C789.059 252.162 790.852 247.841 790.857 243.334V83.2754C790.852 78.7683 789.059 74.4472 785.872 71.2602C782.685 68.0732 778.364 66.2805 773.857 66.2754H612.176C607.669 66.2805 603.348 68.0732 600.161 71.2602C596.974 74.4472 595.181 78.7683 595.176 83.2754V148.33H597.176V83.2754C597.18 79.2985 598.762 75.4858 601.574 72.6738C604.386 69.8617 608.199 68.2799 612.176 68.2754H773.857C777.834 68.2799 781.647 69.8617 784.459 72.6738C787.271 75.4858 788.853 79.2985 788.857 83.2754V243.334C788.853 247.311 787.271 251.124 784.459 253.936C781.647 256.748 777.834 258.329 773.857 258.334H683.148V260.334Z" fill="#252525"/>
<path d="M526.283 212.785H286.523C282.018 212.794 277.699 214.588 274.513 217.774C271.326 220.96 269.532 225.279 269.523 229.785V467.275C269.528 471.782 271.321 476.104 274.508 479.291C277.695 482.478 282.016 484.27 286.523 484.275H526.283C530.79 484.27 535.112 482.478 538.299 479.291C541.486 476.104 543.278 471.782 543.283 467.275V229.785C543.278 225.278 541.486 220.957 538.299 217.77C535.112 214.582 530.79 212.79 526.283 212.785V212.785ZM541.283 467.275C541.278 471.252 539.696 475.064 536.884 477.876C534.072 480.688 530.26 482.27 526.283 482.275H286.523C282.547 482.27 278.734 480.688 275.922 477.876C273.11 475.064 271.528 471.252 271.523 467.275V229.785C271.53 225.809 273.112 221.997 275.924 219.185C278.735 216.374 282.547 214.791 286.523 214.785H526.283C530.26 214.79 534.072 216.372 536.884 219.184C539.696 221.996 541.278 225.808 541.283 229.785V467.275Z" fill="#3F3D56"/>
<path d="M507.402 305.273H305.402C303.281 305.273 301.246 304.431 299.745 302.93C298.245 301.43 297.402 299.395 297.402 297.273C297.402 295.152 298.245 293.117 299.745 291.617C301.246 290.116 303.281 289.273 305.402 289.273H507.402C509.524 289.273 511.559 290.116 513.059 291.617C514.559 293.117 515.402 295.152 515.402 297.273C515.402 299.395 514.559 301.43 513.059 302.93C511.559 304.431 509.524 305.273 507.402 305.273Z" fill="#CCCCCC"/>
<path d="M449.902 271.273H362.902C360.781 271.273 358.746 270.431 357.245 268.93C355.745 267.43 354.902 265.395 354.902 263.273C354.902 261.152 355.745 259.117 357.245 257.617C358.746 256.116 360.781 255.273 362.902 255.273H449.902C452.024 255.273 454.059 256.116 455.559 257.617C457.059 259.117 457.902 261.152 457.902 263.273C457.902 265.395 457.059 267.43 455.559 268.93C454.059 270.431 452.024 271.273 449.902 271.273Z" fill="white"/>
<path d="M391.902 353.273H304.902C302.781 353.273 300.746 352.431 299.245 350.93C297.745 349.43 296.902 347.395 296.902 345.273C296.902 343.152 297.745 341.117 299.245 339.617C300.746 338.116 302.781 337.273 304.902 337.273H391.902C394.024 337.273 396.059 338.116 397.559 339.617C399.059 341.117 399.902 343.152 399.902 345.273C399.902 347.395 399.059 349.43 397.559 350.93C396.059 352.431 394.024 353.273 391.902 353.273Z" fill="#CCCCCC"/>
<path d="M391.902 388.273H304.902C302.781 388.273 300.746 387.431 299.245 385.93C297.745 384.43 296.902 382.395 296.902 380.273C296.902 378.152 297.745 376.117 299.245 374.617C300.746 373.116 302.781 372.273 304.902 372.273H391.902C394.024 372.273 396.059 373.116 397.559 374.617C399.059 376.117 399.902 378.152 399.902 380.273C399.902 382.395 399.059 384.43 397.559 385.93C396.059 387.431 394.024 388.273 391.902 388.273Z" fill="#CCCCCC"/>
<path d="M391.902 423.273H304.902C302.781 423.273 300.746 422.431 299.245 420.93C297.745 419.43 296.902 417.395 296.902 415.273C296.902 413.152 297.745 411.117 299.245 409.617C300.746 408.116 302.781 407.273 304.902 407.273H391.902C394.024 407.273 396.059 408.116 397.559 409.617C399.059 411.117 399.902 413.152 399.902 415.273C399.902 417.395 399.059 419.43 397.559 420.93C396.059 422.431 394.024 423.273 391.902 423.273Z" fill="#CCCCCC"/>
<path d="M500.41 360.132C508.655 360.132 515.339 353.448 515.339 345.203C515.339 336.957 508.655 330.273 500.41 330.273C492.164 330.273 485.48 336.957 485.48 345.203C485.48 353.448 492.164 360.132 500.41 360.132Z" fill="white"/>
<path d="M498.931 350.901C498.595 350.902 498.268 350.793 497.999 350.592L497.982 350.579L494.474 347.895C494.146 347.644 493.931 347.272 493.877 346.862C493.823 346.452 493.933 346.037 494.185 345.709C494.437 345.381 494.808 345.166 495.218 345.112C495.628 345.058 496.043 345.169 496.371 345.42L498.644 347.163L504.014 340.157C504.138 339.995 504.294 339.858 504.471 339.756C504.648 339.654 504.844 339.587 505.047 339.56C505.249 339.534 505.456 339.547 505.653 339.6C505.851 339.653 506.036 339.744 506.199 339.869L506.199 339.869L506.166 339.915L506.2 339.869C506.528 340.121 506.742 340.492 506.796 340.902C506.85 341.312 506.74 341.726 506.489 342.054L500.172 350.291C500.026 350.481 499.838 350.635 499.623 350.74C499.408 350.846 499.171 350.9 498.932 350.899L498.931 350.901Z" fill="white"/>
<path d="M120.212 46.4092C115.623 46.4092 111.137 45.0482 107.321 42.4985C103.505 39.9487 100.53 36.3246 98.7741 32.0845C97.0179 27.8444 96.5583 23.1788 97.4537 18.6775C98.3491 14.1763 100.559 10.0416 103.804 6.79644C107.05 3.55123 111.184 1.34122 115.685 0.445873C120.187 -0.449471 124.852 0.0100571 129.092 1.76636C133.333 3.52267 136.957 6.49686 139.506 10.3128C142.056 14.1288 143.417 18.6152 143.417 23.2046C143.41 29.3567 140.963 35.2548 136.613 39.605C132.263 43.9552 126.364 46.4022 120.212 46.4092V46.4092ZM120.212 2.00001C116.018 2.00003 111.919 3.24368 108.432 5.57369C104.945 7.90369 102.227 11.2154 100.622 15.09C99.017 18.9647 98.5971 23.2282 99.4153 27.3415C100.233 31.4548 102.253 35.233 105.219 38.1985C108.184 41.164 111.962 43.1836 116.076 44.0018C120.189 44.8199 124.452 44.4 128.327 42.7951C132.202 41.1901 135.513 38.4723 137.843 34.9852C140.173 31.4982 141.417 27.3985 141.417 23.2046C141.411 17.5827 139.175 12.1929 135.199 8.21767C131.224 4.24241 125.834 2.00634 120.212 2.00001V2.00001Z" fill="#252525"/>
<path d="M118.013 31.6749C117.514 31.6757 117.028 31.5141 116.628 31.2144L116.603 31.1958L111.385 27.2039C111.143 27.0187 110.94 26.7876 110.788 26.5239C110.635 26.2602 110.536 25.9691 110.497 25.6672C110.457 25.3653 110.477 25.0585 110.555 24.7643C110.634 24.4701 110.77 24.1943 110.955 23.9526C111.14 23.7109 111.372 23.5081 111.635 23.3557C111.899 23.2033 112.19 23.1044 112.492 23.0645C112.794 23.0246 113.101 23.0446 113.395 23.1233C113.689 23.202 113.965 23.3378 114.207 23.5231L117.587 26.1151L125.574 15.6948C125.759 15.4532 125.99 15.2505 126.254 15.0982C126.517 14.9459 126.808 14.8469 127.11 14.8071C127.412 14.7672 127.718 14.7872 128.013 14.8658C128.307 14.9445 128.582 15.0803 128.824 15.2656L128.825 15.2661L128.775 15.3349L128.826 15.2661C129.313 15.6406 129.632 16.1933 129.713 16.8027C129.793 17.4121 129.628 18.0286 129.255 18.5167L119.86 30.7678C119.643 31.05 119.363 31.2785 119.043 31.4353C118.723 31.5921 118.372 31.6732 118.015 31.6721L118.013 31.6749Z" fill="#252525"/>
<path d="M267.407 127.409C262.818 127.409 258.332 126.048 254.516 123.498C250.7 120.949 247.726 117.325 245.969 113.084C244.213 108.844 243.754 104.179 244.649 99.6775C245.544 95.1762 247.754 91.0416 251 87.7964C254.245 84.5512 258.38 82.3412 262.881 81.4459C267.382 80.5505 272.048 81.0101 276.288 82.7664C280.528 84.5227 284.152 87.4969 286.702 91.3129C289.251 95.1288 290.612 99.6152 290.612 104.205C290.605 110.357 288.158 116.255 283.808 120.605C279.458 124.955 273.56 127.402 267.407 127.409V127.409ZM267.407 83C263.214 83.0001 259.114 84.2437 255.627 86.5737C252.14 88.9038 249.422 92.2155 247.817 96.0901C246.212 99.9648 245.792 104.228 246.611 108.342C247.429 112.455 249.448 116.233 252.414 119.199C255.379 122.164 259.158 124.184 263.271 125.002C267.384 125.82 271.648 125.4 275.522 123.795C279.397 122.19 282.709 119.472 285.039 115.985C287.369 112.498 288.612 108.398 288.612 104.205C288.606 98.5827 286.37 93.1929 282.395 89.2176C278.419 85.2424 273.029 83.0063 267.407 83V83Z" fill="#252525"/>
<path d="M265.209 112.675C264.709 112.676 264.223 112.514 263.823 112.214L263.798 112.196L258.58 108.204C258.092 107.83 257.772 107.277 257.692 106.667C257.611 106.057 257.776 105.441 258.15 104.953C258.525 104.464 259.077 104.145 259.687 104.064C260.297 103.984 260.914 104.149 261.402 104.523L264.782 107.115L272.769 96.6948C272.954 96.4532 273.185 96.2505 273.449 96.0982C273.712 95.9459 274.003 95.8469 274.305 95.8071C274.607 95.7672 274.914 95.7872 275.208 95.8658C275.502 95.9445 275.778 96.0803 276.019 96.2656L276.02 96.2661L275.97 96.3349L276.021 96.2661C276.509 96.6407 276.827 97.1933 276.908 97.8027C276.988 98.4121 276.824 99.0286 276.45 99.5167L267.055 111.768C266.838 112.05 266.558 112.278 266.239 112.435C265.919 112.592 265.567 112.673 265.211 112.672L265.209 112.675Z" fill="#252525"/>
<path d="M500.41 395.132C508.655 395.132 515.339 388.448 515.339 380.203C515.339 371.957 508.655 365.273 500.41 365.273C492.164 365.273 485.48 371.957 485.48 380.203C485.48 388.448 492.164 395.132 500.41 395.132Z" fill="white"/>
<path d="M498.931 385.901C498.595 385.902 498.268 385.793 497.999 385.592L497.982 385.579L494.474 382.895C494.311 382.771 494.175 382.615 494.073 382.438C493.97 382.261 493.904 382.065 493.877 381.862C493.85 381.659 493.863 381.453 493.916 381.255C493.969 381.057 494.06 380.872 494.185 380.709C494.31 380.547 494.465 380.41 494.642 380.308C494.82 380.205 495.015 380.139 495.218 380.112C495.421 380.085 495.628 380.099 495.825 380.152C496.023 380.205 496.209 380.296 496.371 380.42L498.644 382.163L504.014 375.157C504.138 374.995 504.294 374.858 504.471 374.756C504.648 374.654 504.844 374.587 505.047 374.56C505.249 374.534 505.456 374.547 505.653 374.6C505.851 374.653 506.036 374.744 506.199 374.869L506.199 374.869L506.166 374.915L506.2 374.869C506.528 375.121 506.742 375.492 506.796 375.902C506.85 376.312 506.74 376.726 506.489 377.054L500.172 385.291C500.026 385.481 499.838 385.635 499.623 385.74C499.408 385.846 499.171 385.9 498.932 385.899L498.931 385.901Z" fill="white"/>
<path d="M500.41 430.206C508.655 430.206 515.339 423.522 515.339 415.277C515.339 407.032 508.655 400.348 500.41 400.348C492.164 400.348 485.48 407.032 485.48 415.277C485.48 423.522 492.164 430.206 500.41 430.206Z" fill="white"/>
<path d="M498.929 420.972C498.593 420.972 498.266 420.863 497.998 420.662L497.981 420.649L494.472 417.966C494.145 417.714 493.93 417.342 493.877 416.933C493.823 416.523 493.934 416.108 494.185 415.781C494.436 415.453 494.808 415.238 495.217 415.184C495.627 415.129 496.041 415.24 496.37 415.491L498.642 417.233L504.012 410.227C504.137 410.065 504.292 409.929 504.469 409.826C504.647 409.724 504.842 409.657 505.045 409.631C505.248 409.604 505.454 409.617 505.652 409.67C505.85 409.723 506.035 409.814 506.198 409.939L506.198 409.939L506.165 409.985L506.199 409.939C506.527 410.191 506.741 410.563 506.795 410.972C506.849 411.382 506.738 411.797 506.487 412.125L500.171 420.362C500.025 420.551 499.837 420.705 499.622 420.81C499.407 420.916 499.17 420.97 498.931 420.97L498.929 420.972Z" fill="white"/>
<path d="M406.425 192.409C390.676 192.141 383.519 180.191 383.52 169.203C383.521 158.214 390.678 146.266 406.392 146H406.426C422.142 146.268 429.299 158.217 429.298 169.206C429.298 180.195 422.139 192.143 406.425 192.409ZM406.409 148C392.057 148.251 385.52 159.165 385.52 169.203C385.519 179.245 392.061 190.164 406.425 190.409C420.755 190.166 427.298 179.248 427.298 169.206C427.299 159.168 420.761 148.254 406.409 148V148Z" fill="#252525"/>
<path d="M411.618 170.465C415.633 177.439 404.614 180.162 400.398 175.961L401.454 173.705C408.308 179.625 414.347 169.371 403.878 170.345V167.873C413.465 168.646 408.08 158.996 401.694 164.705L400.662 162.449C405.867 157.048 417.551 163.579 409.302 168.977C410.222 169.192 411.04 169.718 411.618 170.465V170.465Z" fill="#252525"/>
<path d="M547.407 127.409C542.818 127.409 538.332 126.048 534.516 123.498C530.7 120.949 527.726 117.325 525.969 113.084C524.213 108.844 523.754 104.179 524.649 99.6775C525.544 95.1762 527.754 91.0416 531 87.7964C534.245 84.5512 538.38 82.3412 542.881 81.4459C547.382 80.5505 552.048 81.0101 556.288 82.7664C560.528 84.5227 564.152 87.4969 566.702 91.3129C569.251 95.1288 570.612 99.6152 570.612 104.205C570.605 110.357 568.158 116.255 563.808 120.605C559.458 124.955 553.56 127.402 547.407 127.409V127.409ZM547.407 83C543.214 83.0001 539.114 84.2437 535.627 86.5737C532.14 88.9038 529.422 92.2155 527.817 96.0901C526.212 99.9648 525.792 104.228 526.611 108.342C527.429 112.455 529.448 116.233 532.414 119.199C535.379 122.164 539.158 124.184 543.271 125.002C547.384 125.82 551.648 125.4 555.522 123.795C559.397 122.19 562.709 119.472 565.039 115.985C567.369 112.498 568.612 108.398 568.612 104.205C568.606 98.5827 566.37 93.1929 562.395 89.2176C558.419 85.2424 553.029 83.0063 547.407 83V83Z" fill="#252525"/>
<path d="M553.853 109.412H551.429V112.748H548.405V109.412H540.965V107.108L548.957 95.6602H551.429V106.988H553.853V109.412ZM548.405 106.988V100.484L543.893 106.988H548.405Z" fill="#252525"/>
<path d="M693.013 46.4092C688.424 46.4091 683.937 45.0482 680.121 42.4984C676.305 39.9486 673.331 36.3245 671.575 32.0844C669.819 27.8444 669.359 23.1787 670.255 18.6775C671.15 14.1762 673.36 10.0416 676.605 6.79639C679.85 3.5512 683.985 1.3412 688.486 0.445861C692.988 -0.449473 697.653 0.010072 701.893 1.76638C706.133 3.52269 709.757 6.49688 712.307 10.3129C714.857 14.1288 716.218 18.6152 716.218 23.2046C716.211 29.3567 713.764 35.2549 709.414 39.6051C705.063 43.9553 699.165 46.4022 693.013 46.4092ZM693.013 2.00001C688.819 2.00006 684.719 3.24373 681.232 5.57375C677.745 7.90377 675.028 11.2155 673.423 15.0901C671.818 18.9648 671.398 23.2283 672.216 27.3416C673.034 31.4548 675.054 35.2331 678.019 38.1986C680.985 41.1641 684.763 43.1836 688.876 44.0018C692.99 44.8199 697.253 44.4 701.128 42.7951C705.003 41.1901 708.314 38.4723 710.644 34.9852C712.974 31.4981 714.218 27.3985 714.218 23.2046C714.211 17.5827 711.975 12.1929 708 8.21764C704.025 4.24238 698.635 2.00631 693.013 2.00001Z" fill="#252525"/>
<path d="M696.472 21.4165C697.276 21.8604 697.934 22.5271 698.368 23.3364C698.829 24.2124 699.06 25.1908 699.04 26.1802C699.061 27.2201 698.795 28.2457 698.272 29.1445C697.748 30.0114 696.98 30.7042 696.064 31.1362C695.021 31.6263 693.88 31.8686 692.728 31.8442C691.649 31.8433 690.578 31.6607 689.56 31.3042C688.615 30.9987 687.741 30.5048 686.992 29.8526L688.024 27.5962C689.365 28.7033 691.038 29.3288 692.776 29.3726C693.669 29.4338 694.552 29.1454 695.236 28.5684C695.79 27.9364 696.093 27.1238 696.088 26.2838C696.084 25.4438 695.772 24.6344 695.212 24.0083C694.898 23.7178 694.53 23.4928 694.128 23.3465C693.726 23.2002 693.299 23.1355 692.872 23.1563C692.222 23.1521 691.577 23.2786 690.976 23.5284C690.384 23.7764 689.852 24.1487 689.416 24.6202H687.544V14.5645H698.248V16.9644H690.568V21.6201C691.477 21.0153 692.549 20.7054 693.64 20.7324C694.627 20.7117 695.603 20.9474 696.472 21.4165V21.4165Z" fill="#252525"/>
<path d="M148.194 520.851C147.587 519.512 147.281 518.056 147.298 516.586C147.314 515.116 147.653 513.668 148.289 512.343C148.926 511.018 149.846 509.849 150.984 508.917C152.121 507.986 153.449 507.316 154.874 506.954L157.905 471.348L172.485 482.849L167.371 514.898C167.821 517.332 167.363 519.846 166.083 521.964C164.803 524.083 162.79 525.658 160.427 526.392C158.063 527.126 155.512 526.967 153.257 525.946C151.003 524.925 149.201 523.112 148.194 520.851H148.194Z" fill="#FFB8B8"/>
<path d="M157.571 503.216C156.522 503.077 155.556 502.572 154.842 501.791C154.128 501.01 153.712 500.002 153.668 498.945L151.98 458.538C151.373 444.015 154.329 429.564 160.59 416.445L175.558 385.08C176.56 383.194 177.998 381.574 179.753 380.355C181.507 379.136 183.527 378.353 185.645 378.071C187.7 377.782 189.795 377.993 191.751 378.688C193.707 379.382 195.467 380.539 196.879 382.06C197.596 382.826 198.24 383.657 198.803 384.542C199.932 386.374 200.586 388.459 200.705 390.608C200.824 392.756 200.405 394.901 199.485 396.846L176.533 459.546L174.767 500.394C174.741 501.012 174.586 501.619 174.314 502.176C174.042 502.732 173.658 503.227 173.186 503.628C172.714 504.029 172.164 504.328 171.571 504.507C170.978 504.686 170.354 504.741 169.739 504.668L157.631 503.224L157.571 503.216Z" fill="white"/>
<path d="M114.629 679.761L125.855 684.689L150.203 643.733L133.635 636.461L114.629 679.761Z" fill="#FFB8B8"/>
<path d="M113.374 674.84L135.481 684.544L135.482 684.544C137.332 685.356 139.005 686.525 140.403 687.983C141.802 689.442 142.899 691.161 143.633 693.044C144.367 694.926 144.723 696.935 144.681 698.955C144.638 700.975 144.198 702.967 143.386 704.818L143.185 705.275L106.988 689.387L113.374 674.84Z" fill="#2F2E41"/>
<path d="M265.342 693.39H277.602L283.434 646.102L265.34 646.103L265.342 693.39Z" fill="#FFB8B8"/>
<path d="M262.215 689.388L286.359 689.387H286.36C288.38 689.387 290.381 689.785 292.248 690.558C294.115 691.331 295.811 692.464 297.24 693.893C298.668 695.322 299.802 697.018 300.575 698.885C301.348 700.752 301.746 702.752 301.746 704.773V705.273L262.216 705.274L262.215 689.388Z" fill="#2F2E41"/>
<path d="M141.861 679.946C141.39 679.946 140.921 679.872 140.472 679.727L119.685 673.045C118.562 672.679 117.627 671.888 117.08 670.842C116.533 669.795 116.418 668.576 116.758 667.445L185.694 447.93L237.328 437.805L237.51 438.101C271.647 493.648 283.042 578.502 290.27 668.408C290.359 669.582 289.987 670.744 289.232 671.648C288.478 672.552 287.401 673.127 286.23 673.25L263.504 675.522C262.444 675.634 261.378 675.363 260.5 674.758C259.622 674.153 258.988 673.255 258.714 672.225L217.102 525.018C217.02 524.717 216.847 524.45 216.607 524.253C216.367 524.055 216.071 523.937 215.761 523.915C215.45 523.893 215.141 523.968 214.875 524.13C214.609 524.291 214.4 524.532 214.277 524.817L145.982 677.225C145.637 678.032 145.062 678.72 144.33 679.204C143.597 679.688 142.739 679.946 141.861 679.946V679.946Z" fill="#2F2E41"/>
<path d="M212.37 360.032C225.934 360.032 236.931 349.036 236.931 335.471C236.931 321.906 225.934 310.91 212.37 310.91C198.805 310.91 187.809 321.906 187.809 335.471C187.809 349.036 198.805 360.032 212.37 360.032Z" fill="#FFB8B8"/>
<path d="M181.298 454.432L181.13 454.08C181.016 453.841 169.7 429.835 170.753 402.145C171.101 393.057 174.91 384.445 181.399 378.072C187.888 371.699 196.568 368.047 205.661 367.862V367.862C214.042 367.698 222.211 370.497 228.731 375.765C235.251 381.033 239.703 388.433 241.302 396.661C244.456 412.76 244.377 428.008 241.068 441.979L240.994 442.29L240.681 442.354L181.298 454.432Z" fill="white"/>
<path d="M306.522 489.08C305.068 488.865 303.678 488.334 302.452 487.524C301.225 486.714 300.191 485.644 299.422 484.391C298.653 483.138 298.168 481.732 298.001 480.271C297.835 478.811 297.991 477.331 298.458 475.938L270.168 454.105L287.733 448.078L311.904 469.735C314.194 470.675 316.059 472.422 317.147 474.645C318.235 476.868 318.469 479.413 317.805 481.798C317.142 484.182 315.627 486.241 313.547 487.583C311.468 488.925 308.968 489.458 306.522 489.08H306.522Z" fill="#FFB8B8"/>
<path d="M237.101 440.947L237.035 440.841L207.212 392.543C206.17 390.679 205.587 388.592 205.512 386.457C205.437 384.323 205.873 382.201 206.783 380.268C207.653 378.383 208.965 376.736 210.609 375.468C212.252 374.199 214.178 373.347 216.222 372.984V372.984C217.253 372.796 218.3 372.705 219.348 372.711C221.5 372.754 223.607 373.333 225.478 374.397C227.349 375.46 228.924 376.974 230.062 378.801L270.338 432.054L303.72 455.662C304.226 456.019 304.652 456.478 304.973 457.008C305.293 457.538 305.501 458.129 305.582 458.743C305.664 459.357 305.618 459.981 305.447 460.577C305.276 461.172 304.984 461.726 304.589 462.204L296.818 471.6C296.139 472.427 295.186 472.983 294.132 473.169C293.079 473.355 291.993 473.158 291.072 472.613L237.101 440.947Z" fill="white"/>
<path d="M207.98 333.944C209.79 330.967 213.785 330.125 217.253 330.465C220.721 330.805 224.094 332.024 227.579 331.997C237.255 331.922 244.724 320.129 240.656 311.349C237.319 304.149 228.987 300.987 221.449 298.505C205.645 293.303 187.491 288.304 173.149 296.739C168.579 299.507 164.831 303.445 162.292 308.146C159.752 312.847 158.514 318.141 158.705 323.48C159.027 330.12 161.57 336.939 159.419 343.229C156.939 350.485 149.073 354.378 141.639 356.261C128.609 359.562 114.87 359.03 101.758 361.991C88.6455 364.952 75.2091 372.814 71.6746 385.783C69.353 394.302 71.7755 403.473 75.7873 411.338C79.8804 419.363 85.5685 426.468 92.5034 432.217C99.4382 437.967 107.474 442.24 116.118 444.776C124.762 447.311 133.833 448.055 142.775 446.962C151.716 445.87 160.341 442.963 168.12 438.421C183.972 429.165 195.416 413.521 202.239 396.48C206.108 386.54 208.831 376.191 210.357 365.634C211.885 355.751 210.588 345.765 207.82 336.155C207.689 335.796 207.636 335.414 207.664 335.033C207.691 334.652 207.799 334.281 207.98 333.944V333.944Z" fill="#2F2E41"/>
</g>
<defs>
<clipPath id="clip0_1100_275">
<rect width="790.856" height="705.638" fill="white"/>
</clipPath>
</defs>
</svg>