<svg width="553" height="472" viewBox="0 0 553 472" fill="none" xmlns="http://www.w3.org/2000/svg">
<path d="M440.49 13.7407C506.726 46.8589 550.716 168.433 551.643 220.628C552.571 272.822 564.226 346.194 497.989 409.781C431.753 473.368 329.431 464.8 260.932 464.8C188.635 464.8 74.6819 493.375 36.9272 429.788C-0.827519 366.201 -2.98593 336.909 1.91556 262.46C6.68458 187.877 53.4052 139.191 91.1599 106.072C128.915 72.9542 155.864 63.6986 214.617 38.0376C276.91 14.8481 374.254 -19.3774 440.49 13.7407Z" fill="white"/>
<g clip-path="url(#clip0_22_85)">
<path d="M55.7156 357.998L40.9669 345.495C42.6536 335.472 46.7573 326.012 52.9217 317.938C53.4174 336.001 71.9003 348.099 78.2606 365.008C80.204 370.298 80.9342 375.957 80.3974 381.567C79.8605 387.178 78.0702 392.595 75.1591 397.418L73.6753 411.065C65.6208 406.86 58.572 400.956 53.0145 393.76C47.4569 386.564 43.5229 378.246 41.4834 369.38C40.3884 364.395 39.9244 359.291 40.1025 354.19C47.6539 356.492 55.7156 357.998 55.7156 357.998Z" fill="#F2F2F2"/>
<path d="M469.142 381.913L479.441 365.538C489.585 365.811 499.508 368.561 508.35 373.548C490.564 376.562 481.187 396.585 465.361 405.255C460.404 407.921 454.912 409.436 449.291 409.687C443.67 409.938 438.065 408.919 432.891 406.704L419.195 407.138C422.226 398.562 427.078 390.745 433.415 384.228C439.752 377.71 447.425 372.646 455.904 369.385C460.679 367.603 465.659 366.43 470.726 365.894C469.505 373.706 469.142 381.913 469.142 381.913Z" fill="#F2F2F2"/>
<path d="M143.135 328.531L86.0283 325.175L93.8563 269.723L144.179 324.054L143.135 328.531Z" fill="#F2F2F2"/>
<path d="M135.866 385.103L77.7153 381.182L85.469 330.776L136.129 381.191L135.866 385.103Z" fill="#F2F2F2"/>
<path d="M460.719 151.187V99.9662C460.719 96.0732 459.953 92.2182 458.466 88.6215C456.979 85.0248 454.799 81.7567 452.051 79.0039C449.303 76.2511 446.04 74.0675 442.45 72.5777C438.86 71.0878 435.011 70.321 431.125 70.321H322.795C318.909 70.321 315.061 71.0878 311.47 72.5777C307.88 74.0675 304.617 76.2511 301.869 79.0039C299.121 81.7567 296.942 85.0248 295.454 88.6215C293.967 92.2182 293.202 96.0732 293.202 99.9663V380.968C293.202 388.83 296.32 396.37 301.869 401.93C307.419 407.49 314.947 410.613 322.795 410.613H431.125C438.974 410.613 446.501 407.49 452.051 401.93C457.601 396.37 460.719 388.83 460.719 380.968V187.647C461.214 187.647 461.688 187.45 462.038 187.099C462.388 186.749 462.585 186.273 462.585 185.777V153.057C462.585 152.561 462.388 152.085 462.038 151.735C461.688 151.384 461.214 151.187 460.719 151.187V151.187Z" fill="#3F3D56"/>
<path d="M454.42 100.17V380.765C454.421 386.594 452.126 392.187 448.034 396.33C443.941 400.473 438.382 402.831 432.564 402.892C432.484 402.9 432.403 402.903 432.322 402.902H323.466C317.605 402.901 311.985 400.569 307.841 396.418C303.697 392.266 301.368 386.636 301.368 380.765V100.17C301.368 94.299 303.697 88.6689 307.841 84.5176C311.985 80.3664 317.605 78.034 323.466 78.0335H336.676C336.026 79.631 335.779 81.364 335.955 83.0799C336.131 84.7958 336.726 86.4421 337.686 87.8738C338.647 89.3055 339.944 90.4788 341.463 91.2905C342.983 92.1022 344.678 92.5273 346.4 92.5285H408.461C410.182 92.5238 411.875 92.0962 413.392 91.2834C414.909 90.4705 416.203 89.2971 417.162 87.8662C418.121 86.4353 418.715 84.7906 418.892 83.0762C419.068 81.3619 418.822 79.6303 418.175 78.0334H432.322C438.183 78.034 443.803 80.3664 447.947 84.5176C452.091 88.6689 454.42 94.299 454.42 100.17Z" fill="white"/>
<path d="M430.454 396.052C430.454 398.959 430.362 401.842 430.18 404.7C430.1 404.71 430.02 404.713 429.939 404.711H321.085C316.16 404.711 311.376 403.063 307.492 400.029C303.609 396.995 300.848 392.749 299.648 387.964C299.437 387.129 299.278 386.281 299.172 385.427C299.049 384.481 298.987 383.529 298.988 382.576V257.529C307.364 257.944 315.684 259.122 323.847 261.047C324.647 261.232 325.441 261.428 326.229 261.629C326.28 261.641 326.33 261.657 326.38 261.669C327.18 261.87 327.974 262.083 328.762 262.301C345.59 266.931 361.387 274.723 375.311 285.261C376.11 285.86 376.904 286.476 377.693 287.098L377.844 287.216C379.163 288.257 380.462 289.325 381.741 290.419C382.026 290.66 382.311 290.907 382.591 291.159C383.279 291.752 383.966 292.357 384.637 292.968C399.486 306.356 411.273 322.799 419.193 341.172C419.455 341.771 419.707 342.376 419.959 342.981C420.059 343.227 420.16 343.474 420.26 343.72C420.356 343.944 420.445 344.168 420.534 344.392C427.108 360.818 430.475 378.355 430.454 396.052V396.052Z" fill="#3F3D56"/>
<path d="M293.8 179.842C293.132 179.841 292.492 179.575 292.02 179.102C291.548 178.629 291.282 177.988 291.281 177.319V160.159C291.281 159.489 291.547 158.847 292.019 158.374C292.492 157.901 293.132 157.635 293.8 157.635C294.468 157.635 295.109 157.901 295.582 158.374C296.054 158.847 296.32 159.489 296.32 160.159V177.318C296.319 177.988 296.053 178.629 295.581 179.102C295.109 179.575 294.468 179.841 293.8 179.842V179.842Z" fill="#3F3D56"/>
<path d="M293.296 146.531C292.629 146.531 291.988 146.265 291.516 145.791C291.044 145.318 290.778 144.677 290.777 144.008V126.848C290.777 126.179 291.043 125.537 291.515 125.064C291.988 124.59 292.628 124.324 293.296 124.324C293.965 124.324 294.605 124.59 295.078 125.064C295.55 125.537 295.816 126.179 295.816 126.848V144.008C295.815 144.677 295.549 145.318 295.077 145.791C294.605 146.265 293.964 146.531 293.296 146.531V146.531Z" fill="#3F3D56"/>
<path d="M360.306 80.9199C360.306 80.2508 360.572 79.6094 361.044 79.1364C361.517 78.6633 362.157 78.3972 362.825 78.3964H379.955C380.286 78.3959 380.614 78.4608 380.92 78.5874C381.226 78.714 381.504 78.8998 381.739 79.1342C381.973 79.3685 382.159 79.6469 382.286 79.9533C382.413 80.2597 382.478 80.5882 382.478 80.9199C382.478 81.2516 382.413 81.5801 382.286 81.8865C382.159 82.1929 381.973 82.4712 381.739 82.7056C381.504 82.94 381.226 83.1258 380.92 83.2524C380.614 83.379 380.286 83.4439 379.955 83.4434H362.825C362.157 83.4426 361.517 83.1765 361.044 82.7034C360.572 82.2303 360.306 81.5889 360.306 80.9199V80.9199Z" fill="white"/>
<path d="M293.8 209.115C293.132 209.114 292.492 208.848 292.02 208.375C291.548 207.902 291.282 207.26 291.281 206.591V189.431C291.281 188.762 291.547 188.12 292.019 187.647C292.492 187.174 293.132 186.908 293.8 186.908C294.468 186.908 295.109 187.174 295.582 187.647C296.054 188.12 296.32 188.762 296.32 189.431V206.591C296.319 207.26 296.053 207.902 295.581 208.375C295.109 208.848 294.468 209.114 293.8 209.115V209.115Z" fill="#3F3D56"/>
<path d="M389.527 83.4434C390.919 83.4434 392.047 82.3136 392.047 80.9199C392.047 79.5262 390.919 78.3964 389.527 78.3964C388.136 78.3964 387.008 79.5262 387.008 80.9199C387.008 82.3136 388.136 83.4434 389.527 83.4434Z" fill="white"/>
<path opacity="0.2" d="M380.226 383.617C380.225 378.378 381.255 373.189 383.256 368.348C385.258 363.508 388.191 359.109 391.89 355.404C395.588 351.699 399.979 348.76 404.812 346.756C409.644 344.751 414.823 343.719 420.054 343.72H420.261C420.16 343.474 420.06 343.227 419.959 342.981C419.707 342.376 419.456 341.771 419.193 341.172H380.226V291.159H382.591C382.312 290.907 382.027 290.66 381.741 290.419C380.461 289.327 379.162 288.259 377.844 287.215L377.693 287.098V288.61H328.763V262.301C327.974 262.083 327.18 261.87 326.381 261.668C326.33 261.657 326.28 261.64 326.23 261.629V288.61H301.37V291.159H326.23V341.172H301.37V343.72H326.23V383.617H301.555C301.661 384.472 301.82 385.319 302.03 386.155H326.23V402.902H328.763V386.155H377.693V402.902H380.226V386.155H422.917V383.617H380.226ZM377.693 383.617H328.763V343.72H377.693V383.617ZM377.693 341.172H328.763V340.175C328.763 327.175 333.918 314.707 343.094 305.515C352.27 296.323 364.716 291.159 377.693 291.159V341.172Z" fill="black"/>
<path d="M160.723 200.711L133.565 409.982L133.392 411.315H132.263L132.436 409.982L159.616 200.565L160.723 200.711Z" fill="#E5E5E5"/>
<path d="M104.182 200.974L74.2346 410.005L74.0445 411.338H72.915L73.1052 410.005L103.075 200.817L104.182 200.974Z" fill="#E5E5E5"/>
<path d="M202.95 411.287L201.787 411.293L201.429 409.96L143.496 194.398L144.575 194.107L202.586 409.96L202.95 411.287Z" fill="#3F3D56"/>
<path d="M200.496 194.099L199.42 194.404L260.471 410.134L261.547 409.829L200.496 194.099Z" fill="#3F3D56"/>
<path d="M249.893 370.555L194.534 382.028L194.761 383.125L250.12 371.652L249.893 370.555Z" fill="#3F3D56"/>
<path d="M240.295 336.903L184.937 348.376L185.163 349.473L240.522 338.001L240.295 336.903Z" fill="#3F3D56"/>
<path d="M230.704 303.25L175.731 313.908L175.944 315.007L230.917 304.35L230.704 303.25Z" fill="#3F3D56"/>
<path d="M221.105 269.605L167.33 280.25L167.546 281.349L221.322 270.704L221.105 269.605Z" fill="#3F3D56"/>
<path d="M103.237 200.935C102.396 195.432 103.772 189.82 107.062 185.333C110.352 180.846 115.286 177.852 120.78 177.01C126.273 176.167 131.876 177.546 136.355 180.841C140.834 184.137 143.823 189.08 144.664 194.583L143.559 194.753C143.166 192.172 142.269 189.694 140.92 187.461C139.571 185.228 137.796 183.283 135.696 181.737C133.596 180.191 131.213 179.075 128.682 178.452C126.152 177.829 123.523 177.712 120.947 178.107C118.372 178.502 115.899 179.401 113.67 180.754C111.441 182.107 109.501 183.886 107.958 185.99C106.416 188.094 105.303 190.482 104.683 193.018C104.062 195.553 103.947 198.186 104.342 200.766L103.237 200.935Z" fill="#3F3D56"/>
<path d="M159.242 201.186C158.789 198.466 158.875 195.684 159.496 192.998C160.116 190.312 161.259 187.774 162.859 185.531C164.459 183.287 166.484 181.381 168.819 179.922C171.155 178.462 173.754 177.478 176.469 177.025C179.184 176.572 181.961 176.66 184.643 177.282C187.324 177.905 189.857 179.051 192.096 180.654C194.335 182.257 196.237 184.287 197.693 186.626C199.149 188.966 200.131 191.57 200.582 194.29L199.479 194.474C198.613 189.277 195.722 184.638 191.442 181.577C187.161 178.515 181.843 177.281 176.655 178.147C171.467 179.012 166.835 181.906 163.776 186.192C160.718 190.478 159.483 195.805 160.345 201.002L159.242 201.186Z" fill="#3F3D56"/>
<path d="M217.021 246.898L206.275 273.087L241.288 272.832L237.727 246.84L217.021 246.898Z" fill="#FFB6B6"/>
<path d="M225.571 367.119L230.764 367.878L236.157 348.173L228.492 347.053L225.571 367.119Z" fill="#FFB6B6"/>
<path d="M224.656 364.364L232.937 365.073L232.424 368.597L239.443 375.137C239.79 375.46 240.024 375.885 240.112 376.351C240.201 376.817 240.138 377.299 239.933 377.727C239.728 378.155 239.393 378.506 238.975 378.729C238.557 378.952 238.079 379.035 237.61 378.966L227.837 377.538L226.659 373.807L225.494 377.196L221.809 376.657L224.656 364.364Z" fill="#2F2E41"/>
<path d="M165.554 352.565L169.697 355.792L184.095 341.32L177.98 336.557L165.554 352.565Z" fill="#FFB6B6"/>
<path d="M166.116 349.717L172.969 354.428L170.787 357.238L173.669 366.397C173.812 366.849 173.806 367.335 173.653 367.784C173.5 368.233 173.208 368.621 172.819 368.892C172.431 369.163 171.966 369.302 171.492 369.289C171.019 369.276 170.562 369.113 170.189 368.821L162.392 362.748L163.206 358.92L160.523 361.292L157.583 359.002L166.116 349.717Z" fill="#2F2E41"/>
<path d="M208.252 266.873L204.803 271.448L195.625 311.452L174.763 339.677L181.776 346.423L208.385 320.563L221.444 292.932L228.051 318.453L226.373 352.621L237.556 352.06C240.587 312.409 245.328 271.611 239.744 260.154C236.063 263.37 231.765 265.801 227.115 267.297C222.464 268.792 217.558 269.322 212.695 268.853L208.252 266.873Z" fill="#2F2E41"/>
<path d="M226.71 204.548L235.532 214.212C237.468 216.333 238.696 219.006 239.043 221.859C239.201 223.155 239.175 224.466 238.965 225.754L237.063 239.712L240.418 260.996C240.418 260.996 235.637 263.918 226.439 269.958C222.686 272.423 205.17 272.384 205.192 271.639C205.291 268.187 208.373 258.885 209.106 247.554C210.01 233.567 208.824 216.873 211.902 208.905C215.658 199.179 226.71 204.548 226.71 204.548Z" fill="#30E3CA"/>
<path d="M196.435 266.475C196.82 265.914 197.077 265.276 197.189 264.604C197.301 263.933 197.265 263.245 197.082 262.589C196.9 261.933 196.577 261.326 196.135 260.809C195.693 260.292 195.143 259.878 194.524 259.597L194.869 248.962L188.469 247.176L188.192 262.201C187.79 263.274 187.794 264.457 188.204 265.527C188.615 266.597 189.402 267.479 190.418 268.005C191.434 268.532 192.608 268.667 193.717 268.385C194.826 268.103 195.793 267.424 196.435 266.475V266.475Z" fill="#FFB6B6"/>
<path d="M187.898 223.546C188.087 223.051 188.376 222.6 188.748 222.222C189.12 221.845 189.566 221.549 190.058 221.353C193.464 219.919 208.191 207.864 208.734 208.09L213.409 205.779C213.582 205.781 218.187 205.89 220.447 208.456C220.916 208.998 221.263 209.635 221.464 210.324C221.665 211.013 221.714 211.737 221.609 212.447C220.947 218.559 200.07 232.288 197.857 232.195L195.513 249.549L196.425 256.178L187.887 256.421L185.257 246.66C184.879 245.948 184.402 232.464 187.898 223.546Z" fill="#30E3CA"/>
<path d="M222.127 214.277C222.818 209.532 220.157 205.215 216.185 204.635C212.213 204.054 208.432 207.43 207.741 212.175C207.05 216.919 209.711 221.236 213.683 221.817C217.655 222.397 221.436 219.021 222.127 214.277Z" fill="#30E3CA"/>
<path d="M157.949 245.298L157.733 244.199L209.665 232.43V233.551L157.949 245.298Z" fill="#3F3D56"/>
<path d="M387.853 166.14H367.935C363.639 166.14 360.156 169.629 360.156 173.933V173.933C360.156 178.237 363.639 181.726 367.935 181.726H387.853C392.149 181.726 395.632 178.237 395.632 173.933C395.632 169.629 392.149 166.14 387.853 166.14Z" fill="#E6E6E6"/>
<path d="M424.805 197.312H330.983C326.687 197.312 323.204 200.801 323.204 205.105V205.105C323.204 209.409 326.687 212.898 330.983 212.898H424.805C429.102 212.898 432.584 209.409 432.584 205.105C432.584 200.801 429.102 197.312 424.805 197.312Z" fill="#E6E6E6"/>
<path d="M384.546 220.642H290.725C286.428 220.642 282.945 224.131 282.945 228.435V228.435C282.945 232.739 286.428 236.228 290.725 236.228H384.546C388.843 236.228 392.326 232.739 392.326 228.435C392.326 224.131 388.843 220.642 384.546 220.642Z" fill="#30E3CA"/>
<path d="M493.664 410.503C493.664 410.591 493.647 410.677 493.615 410.758C493.583 410.839 493.535 410.913 493.475 410.975C493.415 411.037 493.344 411.086 493.266 411.119C493.187 411.153 493.103 411.17 493.018 411.17L171.648 411.287L170.521 411.293L104.196 411.315H103.101L46.6445 411.338H45.5492L27.927 411.343C27.7559 411.343 27.5917 411.273 27.4707 411.148C27.3497 411.023 27.2817 410.853 27.2817 410.677C27.2817 410.5 27.3497 410.33 27.4707 410.205C27.5917 410.08 27.7559 410.01 27.927 410.01L45.7336 410.004H46.8289L103.269 409.982H104.364L170.174 409.96H171.296L227.373 409.937H228.11L493.018 409.836C493.103 409.836 493.187 409.853 493.266 409.887C493.344 409.92 493.415 409.969 493.475 410.031C493.535 410.093 493.583 410.167 493.615 410.248C493.647 410.329 493.664 410.415 493.664 410.503V410.503Z" fill="#CACACA"/>
<path d="M236.046 194.898C234.377 197.119 232.002 198.704 229.313 199.393C226.624 200.082 223.781 199.832 221.253 198.686C218.724 197.54 216.661 195.566 215.402 193.088C214.143 190.61 213.764 187.777 214.328 185.055C214.891 182.332 216.363 179.883 218.502 178.111C220.64 176.339 223.317 175.349 226.092 175.305C228.867 175.26 231.574 176.164 233.768 177.867C235.962 179.569 237.512 181.97 238.162 184.673C238.197 184.819 238.227 184.965 238.256 185.117C238.599 186.811 238.579 188.558 238.198 190.245C237.818 191.931 237.084 193.517 236.046 194.898V194.898Z" fill="#FFB6B6"/>
<path d="M239.224 185.258C238.916 183.724 239.032 184.517 238.718 182.988C238.783 183.728 238.621 184.47 238.255 185.117L223.864 183.014L225.085 174.633C229.544 173.576 233.874 172.753 235.912 176.216C238.131 176.54 240.13 177.734 241.47 179.535C242.81 181.335 243.381 183.596 243.058 185.818L239.224 185.258Z" fill="#2F2E41"/>
<path d="M230.73 207.808C230.741 207.651 230.748 207.488 230.748 207.329C230.721 206.163 230.57 205.002 230.298 203.867C230.053 202.637 229.804 201.401 229.553 200.17C229.786 202.372 229.294 204.589 228.153 206.486C226 204.235 227.424 200.978 224.248 200.514C216.613 199.398 210.4 191.195 211.514 183.541C212.628 175.892 216.736 170.651 224.372 171.767C232.013 172.883 237.699 177.292 236.735 184.962C227.006 185.805 232.619 207.291 230.73 207.808Z" fill="#2F2E41"/>
<path d="M213.93 178.749C216.747 178.749 219.03 176.461 219.03 173.64C219.03 170.819 216.747 168.531 213.93 168.531C211.114 168.531 208.831 170.819 208.831 173.64C208.831 176.461 211.114 178.749 213.93 178.749Z" fill="#2F2E41"/>
<path d="M219.98 169.422C219.504 168.391 218.782 167.493 217.878 166.809C216.973 166.124 215.914 165.673 214.794 165.497C215.583 165.854 216.272 166.4 216.801 167.087C217.329 167.774 217.681 168.581 217.825 169.436C217.969 170.292 217.9 171.169 217.626 171.992C217.352 172.815 216.879 173.557 216.251 174.154L217.282 173.266C217.563 173.506 217.914 173.649 218.282 173.676C218.65 173.702 219.017 173.61 219.33 173.412C219.636 173.206 219.891 172.932 220.077 172.613C220.262 172.293 220.373 171.936 220.401 171.567C220.45 170.827 220.305 170.088 219.98 169.422V169.422Z" fill="#2F2E41"/>
<path d="M284.899 223.456C284.293 223.148 283.627 222.978 282.947 222.956C282.268 222.934 281.593 223.062 280.968 223.33C280.343 223.598 279.785 224 279.332 224.508C278.88 225.015 278.544 225.616 278.348 226.268L267.78 227.34L266.865 233.932L281.767 232.208C282.882 232.465 284.052 232.303 285.056 231.753C286.06 231.204 286.827 230.304 287.213 229.226C287.599 228.147 287.577 226.964 287.151 225.9C286.724 224.837 285.923 223.967 284.899 223.456Z" fill="#FFB6B6"/>
<path d="M243.561 237.643C243.046 237.521 242.561 237.294 242.138 236.975C241.715 236.656 241.363 236.253 241.103 235.79C239.232 232.599 225.345 219.581 225.497 219.013L222.588 214.678C222.567 214.507 222.062 209.92 224.301 207.335C224.774 206.797 225.359 206.367 226.014 206.077C226.668 205.786 227.378 205.64 228.095 205.65C234.23 205.494 249.654 224.945 249.857 227.154L268.274 226.623L274.712 224.835L276.089 233.28L266.781 237.19C266.127 237.66 252.849 239.927 243.561 237.643Z" fill="#30E3CA"/>
</g>
<defs>
<clipPath id="clip0_22_85">
<rect width="481.069" height="341.022" fill="white" transform="translate(27.2817 70.321)"/>
</clipPath>
</defs>
</svg>
