<svg width="652" height="552" viewBox="0 0 652 552" fill="none" xmlns="http://www.w3.org/2000/svg">
<g clip-path="url(#clip0_166_1478)">
<path d="M348.617 77.4366C370.241 61.463 400.684 55.3394 424.505 67.8011C397.688 79.4445 375.854 100.198 362.867 126.39C357.894 136.509 353.417 148.282 343.158 152.958C336.775 155.868 329.241 155.307 322.631 152.957C316.02 150.607 310.14 146.615 304.342 142.665L302.604 142.456C312.922 117.631 326.994 93.4102 348.617 77.4366Z" fill="#F0F0F0"/>
<path d="M424.313 68.3317C402.072 69.0285 380.616 76.7156 362.992 90.3009C359.146 93.1582 355.775 96.6038 353.002 100.511C350.424 104.404 348.935 108.917 348.691 113.58C348.376 117.924 348.557 122.403 347.191 126.594C346.46 128.729 345.286 130.685 343.746 132.335C342.207 133.984 340.335 135.29 338.256 136.165C333.13 138.482 327.478 138.819 321.939 138.956C315.789 139.108 309.399 139.169 303.806 142.065C303.129 142.416 302.624 141.344 303.301 140.993C313.031 135.955 324.402 139.242 334.629 136.244C339.401 134.845 343.781 131.999 345.697 127.238C347.373 123.074 347.19 118.455 347.471 114.054C347.643 109.502 348.927 105.06 351.211 101.118C353.776 97.0827 357.009 93.513 360.771 90.562C369.136 83.7833 378.515 78.362 388.565 74.4967C400.009 70.0216 412.135 67.5373 424.417 67.1512C425.177 67.1276 425.068 68.3082 424.313 68.3317V68.3317Z" fill="white"/>
<path d="M368.41 85.5924C366.532 82.3262 365.876 78.4987 366.56 74.7936C367.243 71.0885 369.221 67.747 372.141 65.3659C372.734 64.8861 373.507 65.7842 372.914 66.2646C370.191 68.4769 368.348 71.5897 367.719 75.0412C367.089 78.4927 367.714 82.0555 369.481 85.0866C369.864 85.7458 368.791 86.2478 368.41 85.5924V85.5924Z" fill="white"/>
<path d="M348.561 111.357C355.978 113.43 363.905 112.631 370.76 109.12C371.438 108.772 371.943 109.843 371.265 110.191C364.125 113.832 355.875 114.646 348.161 112.472C347.426 112.264 347.83 111.15 348.561 111.357Z" fill="white"/>
<path d="M399.952 71.5917C400.415 73.0069 401.223 74.2849 402.302 75.3109C403.381 76.3369 404.698 77.0787 406.135 77.4699C406.873 77.6682 406.468 78.7822 405.735 78.5852C404.15 78.1457 402.696 77.3246 401.501 76.1936C400.306 75.0627 399.407 73.6564 398.881 72.0975C398.819 71.9547 398.813 71.7937 398.866 71.6473C398.919 71.5008 399.025 71.3798 399.163 71.3089C399.306 71.2426 399.468 71.2352 399.616 71.2881C399.764 71.3411 399.884 71.4502 399.952 71.5917H399.952Z" fill="white"/>
<path d="M443.391 156.843C442.927 156.732 442.463 156.621 441.991 156.517C435.746 155.06 429.393 154.113 422.994 153.686C422.5 153.645 421.998 153.611 421.504 153.584C406.077 152.718 390.623 154.723 375.929 159.498C370.083 161.404 364.391 163.751 358.901 166.52C351.32 170.345 343.405 175.095 335.243 176.161C334.393 176.281 333.536 176.349 332.677 176.364L302.483 144.593C302.45 144.487 302.411 144.387 302.378 144.28L301.114 143.066C301.387 142.904 301.674 142.741 301.947 142.578C302.105 142.483 302.27 142.395 302.428 142.3C302.536 142.239 302.644 142.179 302.737 142.117C302.773 142.097 302.809 142.077 302.837 142.063C302.931 142.002 303.024 141.955 303.111 141.9C304.711 140.986 306.321 140.082 307.94 139.187C307.947 139.18 307.947 139.18 307.961 139.18C320.314 132.393 333.343 126.577 346.839 122.924C347.246 122.815 347.659 122.697 348.078 122.602C354.171 120.989 360.386 119.877 366.66 119.277C370.097 118.959 373.547 118.815 376.998 118.846C385.915 118.944 394.761 120.444 403.212 123.29C420.058 128.967 434.901 139.969 442.799 155.64C443.001 156.041 443.196 156.435 443.391 156.843Z" fill="#F0F0F0"/>
<path d="M442.92 157.154C424.742 144.32 402.983 137.54 380.732 137.776C375.941 137.742 371.175 138.464 366.608 139.914C362.206 141.47 358.3 144.177 355.298 147.753C352.431 151.031 349.878 154.717 346.265 157.241C344.396 158.506 342.281 159.361 340.058 159.751C337.835 160.141 335.555 160.056 333.368 159.503C327.88 158.267 323.165 155.133 318.66 151.908C313.658 148.327 308.519 144.528 302.31 143.473C301.558 143.345 301.8 142.185 302.551 142.313C313.354 144.149 320.454 153.619 330.425 157.383C335.078 159.139 340.288 159.503 344.684 156.855C348.529 154.54 351.164 150.742 354.038 147.397C356.916 143.866 360.615 141.093 364.812 139.32C369.29 137.642 374.021 136.738 378.802 136.648C389.562 136.272 400.314 137.59 410.665 140.554C422.497 143.871 433.675 149.188 443.714 156.275C444.335 156.713 443.537 157.591 442.92 157.155L442.92 157.154Z" fill="white"/>
<path d="M387.892 137.279C388.359 133.54 390.14 130.089 392.916 127.542C395.693 124.996 399.284 123.519 403.049 123.375C403.811 123.349 403.888 124.532 403.125 124.558C399.619 124.685 396.273 126.061 393.693 128.438C391.112 130.815 389.466 134.036 389.052 137.52C388.961 138.277 387.801 138.031 387.892 137.279H387.892Z" fill="white"/>
<path d="M356.531 145.9C361.206 152.021 368.015 156.155 375.602 157.479C376.354 157.609 376.112 158.769 375.361 158.639C367.468 157.247 360.391 152.93 355.54 146.549C355.079 145.941 356.072 145.294 356.531 145.9V145.9Z" fill="white"/>
<path d="M421.507 145.091C421.024 146.5 420.9 148.006 421.144 149.475C421.388 150.944 421.993 152.33 422.904 153.507C423.374 154.109 422.38 154.755 421.914 154.157C420.912 152.851 420.246 151.32 419.973 149.698C419.7 148.076 419.828 146.411 420.347 144.85C420.383 144.698 420.476 144.567 420.606 144.481C420.736 144.396 420.894 144.363 421.047 144.39C421.201 144.423 421.335 144.515 421.421 144.646C421.507 144.777 421.538 144.937 421.507 145.091V145.091Z" fill="white"/>
<path d="M342.912 101.201H340.572V37.0998C340.572 32.2278 339.613 27.4035 337.748 22.9023C335.884 18.4012 333.151 14.3113 329.706 10.8663C326.261 7.42125 322.171 4.68851 317.67 2.82407C313.169 0.959625 308.345 2.62652e-06 303.473 0H167.666C162.794 -1.05057e-05 157.97 0.959592 153.469 2.82402C148.968 4.68845 144.878 7.42119 141.433 10.8662C137.988 14.3112 135.255 18.4011 133.391 22.9022C131.526 27.4034 130.566 32.2277 130.566 37.0997V388.762C130.566 398.601 134.475 408.038 141.433 414.995C148.39 421.953 157.827 425.861 167.666 425.861H303.472C313.312 425.861 322.748 421.953 329.706 414.995C336.663 408.038 340.572 398.601 340.572 388.762V146.829H342.912V101.201Z" fill="#3F3D56"/>
<path d="M304.969 9.65213H287.241C288.057 11.6508 288.368 13.8193 288.148 15.9666C287.927 18.1138 287.182 20.174 285.978 21.9655C284.774 23.7571 283.148 25.225 281.243 26.2401C279.338 27.2552 277.213 27.7861 275.054 27.7863H197.253C195.094 27.7862 192.969 27.2552 191.064 26.2401C189.159 25.2251 187.533 23.7571 186.329 21.9655C185.125 20.174 184.38 18.1138 184.16 15.9666C183.939 13.8193 184.25 11.6508 185.066 9.6521H168.508C161.16 9.6521 154.113 12.5711 148.918 17.7669C143.722 22.9627 140.803 30.0098 140.803 37.3578V388.504C140.803 392.142 141.519 395.745 142.912 399.106C144.304 402.468 146.345 405.522 148.918 408.095C151.49 410.667 154.545 412.708 157.906 414.1C161.267 415.493 164.87 416.209 168.508 416.209H304.969C308.607 416.209 312.21 415.493 315.571 414.1C318.933 412.708 321.987 410.667 324.56 408.095C327.132 405.522 329.173 402.468 330.565 399.106C331.958 395.745 332.674 392.142 332.674 388.504V37.3578C332.674 30.0098 329.755 22.9627 324.56 17.7669C319.364 12.5711 312.317 9.65212 304.969 9.65213Z" fill="white"/>
<path d="M239.36 303.408C229.312 303.417 219.36 301.445 210.074 297.604C200.788 293.763 192.351 288.128 185.246 281.023C178.14 273.917 172.506 265.48 168.665 256.194C164.823 246.909 162.851 236.957 162.86 226.908C162.846 212.798 166.74 198.959 174.111 186.927C181.482 174.894 192.042 165.139 204.619 158.742C213.736 154.104 223.688 151.337 233.891 150.605C244.094 149.872 254.34 151.189 264.025 154.478C281.179 160.324 295.7 172.068 305.004 187.62C314.307 203.172 317.789 221.521 314.828 239.399C311.867 257.278 302.656 273.525 288.836 285.247C275.015 296.969 257.482 303.405 239.36 303.408L239.36 303.408ZM239.36 153.408C227.755 153.374 216.31 156.119 205.983 161.414C196.956 166.013 188.977 172.428 182.547 180.258C176.117 188.087 171.376 197.161 168.62 206.91C165.863 216.659 165.152 226.873 166.531 236.909C167.91 246.946 171.349 256.59 176.632 265.234C181.915 273.879 188.928 281.338 197.231 287.144C205.534 292.949 214.947 296.975 224.88 298.97C234.813 300.964 245.051 300.883 254.951 298.733C264.851 296.583 274.2 292.409 282.41 286.473C286.38 283.609 290.051 280.352 293.367 276.752C303.066 266.258 309.494 253.163 311.865 239.071C314.236 224.979 312.446 210.502 306.714 197.412C300.983 184.322 291.558 173.188 279.596 165.372C267.633 157.556 253.65 153.398 239.36 153.408Z" fill="#F0F0F0"/>
<path d="M73.5971 159.017C75.6969 159.28 77.7135 160.001 79.5047 161.127C81.296 162.254 82.8184 163.76 83.9646 165.539C85.1109 167.318 85.8532 169.327 86.1392 171.424C86.4252 173.521 86.2479 175.655 85.62 177.676L111.037 198.847L101.938 217.431L66.4644 187.029C63.1392 185.749 60.3991 183.293 58.7633 180.128C57.1275 176.963 56.7095 173.307 57.5888 169.855C58.468 166.402 60.5832 163.391 63.5336 161.394C66.4841 159.396 70.0647 158.551 73.5971 159.017L73.5971 159.017Z" fill="#FFB6B6"/>
<path d="M310.98 247.308C310.471 241.828 308.363 231.978 306.575 228.335C301.078 213.947 265.56 202.122 260.791 200.598L259.581 187.148L210.23 181.838L203.97 199.038L186.271 205.678C185.069 206.126 183.981 206.834 183.086 207.753C182.19 208.671 181.509 209.775 181.09 210.988L165.21 215.578L149.541 220.108L95.1006 181.748L92.5303 183.428L75.3506 194.638L72.7002 196.368L143.15 259.928L169.32 253.788L189 249.158L190.68 255.978L186.331 279.938C198.933 292.545 215.614 300.249 233.383 301.669C251.152 303.09 268.846 298.133 283.291 287.688L294.47 277.768C302.262 269.343 308.014 259.239 311.28 248.238L310.98 247.308Z" fill="#E4E4E4"/>
<path d="M250.412 170.838C269.041 164.67 279.143 144.568 272.975 125.938C266.807 107.309 246.705 97.2067 228.075 103.375C209.446 109.543 199.344 129.645 205.512 148.275C211.68 166.904 231.782 177.006 250.412 170.838Z" fill="#FFB6B6"/>
<path d="M211.177 96.5986C214.632 91.6655 219.815 88.2125 225.699 86.9258C231.516 85.7294 237.57 86.8399 242.584 90.023C248.036 87.8267 253.914 86.3697 259.689 87.1104C265.465 87.8512 271.125 91.0771 273.798 96.3917C274.36 97.7684 275.042 99.0931 275.836 100.35C278.19 103.492 282.566 103.899 286.43 104.05C284.476 105.189 282.522 106.329 280.568 107.468C282.515 108.375 284.463 109.283 286.41 110.19C283.76 111.202 281.109 112.214 278.459 113.226C284.628 118.648 286.12 128.298 283.784 136.388C281.573 144.048 276.503 150.496 270.842 156.017C269.737 151.898 270.952 147.432 271.761 143.167C272.616 138.661 272.752 133.392 269.597 130.211C267.469 128.065 264.347 127.416 261.403 126.896C246.554 124.27 231.568 122.49 216.517 121.566C214.502 121.288 212.451 121.497 210.534 122.177C206.871 123.805 205.4 128.274 204.338 132.238C203.83 125.281 204.236 118.287 205.546 111.436C206.55 106.193 208.132 100.944 211.177 96.5986Z" fill="#2F2E41"/>
<path d="M257.361 339.45H215.361C213.903 339.45 212.504 338.871 211.472 337.84C210.441 336.808 209.861 335.409 209.861 333.95C209.861 332.492 210.441 331.093 211.472 330.061C212.504 329.03 213.903 328.45 215.361 328.45H257.361C258.82 328.45 260.219 329.03 261.25 330.061C262.282 331.093 262.861 332.492 262.861 333.95C262.861 335.409 262.282 336.808 261.25 337.84C260.219 338.871 258.82 339.45 257.361 339.45Z" fill="#30E3CA"/>
<path d="M119.542 45.1252H4.01761C2.95305 45.1236 1.93264 44.6995 1.18048 43.9461C0.428317 43.1928 0.00585938 42.1717 0.00585938 41.1072C0.00585938 40.0426 0.428317 39.0216 1.18048 38.2682C1.93264 37.5149 2.95305 37.0908 4.01761 37.0891H119.542C120.608 37.0891 121.63 37.5124 122.383 38.266C123.137 39.0195 123.56 40.0415 123.56 41.1072C123.56 42.1728 123.137 43.1948 122.383 43.9484C121.63 44.7019 120.608 45.1252 119.542 45.1252Z" fill="#30E3CA"/>
<path d="M186.243 70.7883H4.01782C2.95223 70.7883 1.93028 70.365 1.17679 69.6115C0.4233 68.8581 0 67.8361 0 66.7705C0 65.7049 0.4233 64.683 1.17679 63.9295C1.93028 63.176 2.95223 62.7527 4.01782 62.7527H186.243C187.308 62.7527 188.33 63.176 189.084 63.9295C189.837 64.683 190.26 65.7049 190.26 66.7705C190.26 67.8361 189.837 68.8581 189.084 69.6115C188.33 70.365 187.308 70.7883 186.243 70.7883Z" fill="#30E3CA"/>
<path d="M151.225 94.9656H4.01782C2.95223 94.9656 1.93028 94.5423 1.17679 93.7888C0.423301 93.0353 0 92.0133 0 90.9478C0 89.8822 0.423301 88.8602 1.17679 88.1067C1.93028 87.3532 2.95223 86.9299 4.01782 86.9299H151.225C152.29 86.9299 153.312 87.3532 154.066 88.1067C154.819 88.8602 155.243 89.8822 155.243 90.9478C155.243 92.0133 154.819 93.0353 154.066 93.7888C153.312 94.5423 152.29 94.9656 151.225 94.9656Z" fill="#CACACA"/>
<path d="M87.0268 119.054H4.01782C2.95223 119.054 1.93028 118.631 1.17679 117.877C0.423301 117.124 0 116.102 0 115.036C0 113.971 0.423301 112.949 1.17679 112.195C1.93028 111.442 2.95223 111.018 4.01782 111.018H87.0268C88.0924 111.018 89.1143 111.442 89.8678 112.195C90.6213 112.949 91.0446 113.971 91.0446 115.036C91.0446 116.102 90.6213 117.124 89.8678 117.877C89.1143 118.631 88.0924 119.054 87.0268 119.054Z" fill="#CACACA"/>
<path d="M132.882 143.14H4.01733C2.95284 143.139 1.93254 142.715 1.18042 141.961C0.428301 141.208 0.00585938 140.187 0.00585938 139.123C0.00585938 138.058 0.428301 137.037 1.18042 136.284C1.93254 135.53 2.95284 135.106 4.01733 135.105H132.882C133.947 135.106 134.967 135.53 135.719 136.284C136.471 137.037 136.894 138.058 136.894 139.123C136.894 140.187 136.471 141.208 135.719 141.961C134.967 142.715 133.947 143.139 132.882 143.14Z" fill="#CACACA"/>
<path d="M496.06 536.227L485.706 536.226L480.78 496.288L496.062 496.289L496.06 536.227Z" fill="#9F616A"/>
<path d="M500.133 550.556L460.603 550.555V550.055C460.603 545.974 462.224 542.061 465.109 539.175C467.995 536.29 471.908 534.669 475.989 534.669H475.99L483.211 529.191L496.683 534.67L500.134 534.67L500.133 550.556Z" fill="#2F2E41"/>
<path d="M490.027 348.526L485.461 292.847L481.873 271.949L501.959 267.513L508.624 296.124L502.817 350.072C503.988 351.507 504.704 353.26 504.871 355.105C505.039 356.95 504.651 358.803 503.757 360.426C502.864 362.049 501.505 363.367 499.857 364.212C498.208 365.058 496.344 365.39 494.505 365.168C492.666 364.946 490.935 364.179 489.535 362.966C488.135 361.752 487.13 360.148 486.648 358.359C486.167 356.57 486.231 354.678 486.833 352.926C487.436 351.174 488.548 349.642 490.027 348.526H490.027Z" fill="#9F616A"/>
<path d="M441.06 536.227L430.706 536.226L425.78 496.288L441.062 496.289L441.06 536.227Z" fill="#9F616A"/>
<path d="M424.489 361.149L419.899 369.089C419.899 369.089 414.856 370.467 416.504 386.908C418.152 403.349 418.223 500.757 426.202 512.744L427.646 523.036L442.712 524.476L443.092 515.343L461.058 388.459C461.058 388.459 471.639 513.019 480.392 516.067L483.553 526.444L497.361 526.451L496.545 514.221L497.436 359.862L424.489 361.149Z" fill="#2F2E41"/>
<path d="M419.443 368.484L419.125 368.402C428.599 332.966 425.866 287.079 419.177 237.805L419.177 237.601L443.36 215.45H464.36L485.178 228.885C498.637 235.614 501.696 249.864 501.725 250.008L501.746 250.109L493.499 278.893L499.712 362.137L499.719 362.233L499.683 362.323C497.673 367.421 492.285 366.695 486.047 365.854C479.82 365.014 456.871 372.692 449.834 372.692C436.083 372.692 420.425 368.736 419.443 368.484Z" fill="#E4E4E4"/>
<path d="M480.82 240.105L489.841 236.18L501.727 250.753L511.361 297.45L478.361 292.45L480.82 240.105Z" fill="#E4E4E4"/>
<path d="M342.059 326.215L383.3 288.53L397.633 272.903L413.434 286.074L394.884 308.855L348.664 337.276C348.246 339.081 347.298 340.719 345.941 341.981C344.584 343.243 342.881 344.07 341.051 344.356C339.221 344.643 337.346 344.376 335.669 343.589C333.992 342.802 332.588 341.532 331.638 339.941C330.688 338.35 330.236 336.512 330.339 334.662C330.441 332.812 331.095 331.036 332.215 329.56C333.336 328.085 334.871 326.978 336.626 326.382C338.38 325.786 340.272 325.728 342.059 326.215L342.059 326.215Z" fill="#9F616A"/>
<path d="M382.403 288.94L393.826 274.107C393.92 273.894 403.397 252.717 411.611 243.516C420.038 234.077 426.672 238.904 426.738 238.956L426.903 239.08L427.361 273.937L395.734 311.728L382.403 288.94Z" fill="#E4E4E4"/>
<path d="M470.78 194.586C472.483 184.092 465.356 174.203 454.862 172.5C444.367 170.797 434.479 177.924 432.776 188.419C431.073 198.914 438.2 208.802 448.695 210.505C459.189 212.208 469.077 205.081 470.78 194.586Z" fill="#9F616A"/>
<path d="M434.179 188.645C434.179 188.645 434.025 181.877 433.169 178.883C432.313 175.888 430.602 173.321 431.458 173.321C432.313 173.321 432.741 171.182 432.741 171.182C432.741 171.182 433.597 170.755 434.025 171.182C434.452 171.61 434.88 168.188 434.88 168.188C434.88 168.188 435.308 166.905 435.736 167.76C436.163 168.616 436.164 168.188 436.591 166.905C437.019 165.621 439.158 164.766 439.158 164.766C439.158 164.766 447.286 165.193 448.57 163.482C449.853 161.771 464.398 163.054 467.393 165.193C470.387 167.332 483.649 175.033 481.51 181.45C479.371 187.866 473.214 202.641 471.671 204.123C469.231 206.465 467.541 207.31 455.996 209.607C453.737 210.056 442.204 202.681 442.204 201.398C442.204 200.114 443.594 196.044 441.36 195.486C437.981 194.641 437.601 198.912 436.746 197.629C435.89 196.345 434.179 188.645 434.179 188.645Z" fill="#2F2E41"/>
<path d="M445.133 550.556L405.603 550.555V550.055C405.603 545.974 407.224 542.061 410.109 539.175C412.995 536.29 416.908 534.669 420.989 534.669H420.99L428.211 529.191L441.683 534.67L445.134 534.67L445.133 550.556Z" fill="#2F2E41"/>
<path d="M650.622 551.311H3.32837C3.01258 551.311 2.70975 551.185 2.48645 550.962C2.26315 550.738 2.1377 550.436 2.1377 550.12C2.1377 549.804 2.26315 549.501 2.48645 549.278C2.70975 549.055 3.01258 548.929 3.32837 548.929H650.622C650.938 548.929 651.241 549.055 651.464 549.278C651.688 549.501 651.813 549.804 651.813 550.12C651.813 550.436 651.688 550.738 651.464 550.962C651.241 551.185 650.938 551.311 650.622 551.311Z" fill="#CACACA"/>
</g>
<defs>
<clipPath id="clip0_166_1478">
<rect width="651.813" height="551.31" fill="white"/>
</clipPath>
</defs>
</svg>
