
<svg width="478" height="283" viewBox="0 0 478 283" fill="none" xmlns="http://www.w3.org/2000/svg">
<path d="M110.165 264.45L117.842 262.019C118.799 257.906 118.735 253.623 117.657 249.54C114.573 256.385 105.525 258.062 100.369 263.526C98.7744 265.242 97.5869 267.295 96.8948 269.532C96.2026 271.768 96.0236 274.132 96.3709 276.447L94.7559 281.916C98.528 281.594 102.185 280.46 105.476 278.591C108.767 276.723 111.613 274.164 113.817 271.092C115.037 269.357 116.033 267.475 116.782 265.491C113.508 265.163 110.165 264.45 110.165 264.45Z" fill="#F2F2F2"/>
<path d="M382.212 264.45L374.536 262.019C373.579 257.906 373.643 253.623 374.721 249.54C377.805 256.385 386.853 258.062 392.008 263.526C393.603 265.242 394.791 267.295 395.483 269.532C396.175 271.768 396.354 274.132 396.007 276.447L397.622 281.916C393.85 281.594 390.192 280.46 386.902 278.591C383.611 276.723 380.765 274.164 378.56 271.092C377.341 269.357 376.345 267.475 375.596 265.491C378.87 265.163 382.212 264.45 382.212 264.45Z" fill="#F2F2F2"/>
<path d="M101.962 254.337L107.747 248.744C106.766 244.637 104.795 240.831 102.006 237.657C102.304 245.157 94.9548 250.686 92.7814 257.871C92.1208 260.117 91.975 262.483 92.3548 264.793C92.7346 267.103 93.6304 269.298 94.9756 271.216L95.9735 276.83C99.206 274.863 101.973 272.219 104.083 269.082C106.194 265.945 107.598 262.388 108.199 258.657C108.515 256.56 108.565 254.432 108.349 252.323C105.273 253.488 101.962 254.337 101.962 254.337Z" fill="#F2F2F2"/>
<path d="M117.428 150.202C116.796 150.286 116.153 150.231 115.545 150.041C114.936 149.851 114.377 149.53 113.907 149.1C113.436 148.671 113.065 148.144 112.821 147.556C112.576 146.968 112.464 146.334 112.492 145.698L84.6084 117.458L92.3923 112.048L117.353 141.509C118.42 141.626 119.407 142.13 120.127 142.925C120.847 143.72 121.249 144.75 121.258 145.822C121.268 146.893 120.883 147.931 120.177 148.738C119.471 149.545 118.493 150.066 117.428 150.202L117.428 150.202Z" fill="#FFB6B6"/>
<path d="M76.0301 105.242C76.0301 105.242 74.0539 106.425 77.3431 110.025C79.9763 112.907 91.4671 126.766 96.0537 129.659C95.8048 130.376 95.8019 131.156 96.0457 131.875C96.2895 132.594 96.766 133.212 97.4002 133.631L104.452 124.846C104.049 122.328 102.348 122.456 101.392 122.762L96.968 117.272L86.9435 100.488L77.4433 104.362L76.0301 105.242Z" fill="#30E3CA"/>
<path d="M54.0088 273.513H59.2657L61.7674 253.273H54.0088V273.513Z" fill="#FFB6B6"/>
<path d="M52.2943 269.919L60.6925 269.418V273.01L68.6769 278.514C69.0713 278.786 69.3683 279.177 69.5246 279.629C69.6809 280.081 69.6882 280.571 69.5456 281.028C69.403 281.485 69.1179 281.884 68.7318 282.168C68.3458 282.451 67.879 282.604 67.3998 282.604H57.4014L55.678 279.051L55.0051 282.604H51.2354L52.2943 269.919Z" fill="#2F2E41"/>
<path d="M83.5371 273.513H88.794L91.2957 253.273H83.5371V273.513Z" fill="#FFB6B6"/>
<path d="M81.8216 269.919L90.2198 269.418V273.01L98.2043 278.514C98.5986 278.786 98.8957 279.177 99.0519 279.629C99.2082 280.081 99.2156 280.571 99.073 281.028C98.9303 281.485 98.6452 281.884 98.2592 282.168C97.8731 282.451 97.4064 282.604 96.9271 282.604H86.9287L85.2054 279.051L84.5325 282.604H80.7627L81.8216 269.919Z" fill="#2F2E41"/>
<path d="M51.7418 256.059H51.7989L52.8099 223.151C52.1556 221.891 51.8236 220.489 51.8434 219.07C51.8631 217.652 52.234 216.26 52.923 215.019L53.0677 214.757L52.6924 213.021C52.2104 210.79 52.4316 208.465 53.3257 206.364L54.2688 175.666C50.8994 153.869 66.9571 139.653 66.9571 139.653L64.0227 127.331L93.074 124.479L91.0117 139.653L96.1759 157.365C99.59 190.567 98.9705 222.921 93.5529 254.267L93.7006 254.341C94.2324 254.525 94.4605 255.26 94.2102 255.984C93.9599 256.708 93.3258 257.146 92.794 256.963L80.0904 256.522C79.5586 256.339 79.3304 255.603 79.5808 254.879C79.8311 254.155 80.4652 253.717 80.997 253.9L81.8608 254.336L80.0187 222.581L80.2231 216.78L79.8019 210.2L77.8547 180.602L70.4841 216.999L62.9555 256.425C63.1631 256.613 63.3089 256.859 63.3735 257.131C63.4381 257.403 63.4185 257.689 63.3173 257.949C63.2162 258.21 63.0382 258.434 62.8069 258.592C62.5755 258.749 62.3017 258.833 62.0216 258.833H51.7418C51.3733 258.833 51.02 258.686 50.7594 258.426C50.4989 258.166 50.3525 257.814 50.3525 257.446C50.3525 257.078 50.4989 256.725 50.7594 256.465C51.02 256.205 51.3733 256.059 51.7418 256.059Z" fill="#2F2E41"/>
<path d="M330.321 133.926H150.646C144.605 133.919 138.813 131.52 134.542 127.256C130.27 122.992 127.867 117.211 127.86 111.18V34.0862C127.867 28.0672 130.261 22.2956 134.519 18.0333C138.776 13.7711 144.551 11.3649 150.581 11.341C178.485 3.63113 208.114 -0.18226 238.658 0.00669171C267.721 0.186591 298.579 3.99998 330.376 11.341C336.408 11.3625 342.185 13.7674 346.445 18.0299C350.705 22.2924 353.1 28.0654 353.107 34.0862V111.18C353.101 117.211 350.698 122.992 346.426 127.256C342.154 131.52 336.363 133.919 330.321 133.926ZM150.646 12.2918C144.858 12.2984 139.308 14.5967 135.215 18.6825C131.122 22.7683 128.819 28.308 128.813 34.0863V111.18C128.819 116.959 131.122 122.498 135.215 126.584C139.308 130.67 144.858 132.968 150.646 132.975H330.321C336.11 132.968 341.66 130.67 345.753 126.584C349.846 122.498 352.148 116.959 352.155 111.18V34.0863C352.148 28.308 349.846 22.7683 345.753 18.6825C341.66 14.5967 336.11 12.2984 330.321 12.2918L330.214 12.2795C264.415 -2.9188 205.72 -2.92089 150.773 12.2746L150.646 12.2918Z" fill="#E6E6E6"/>
<path d="M147.478 113.806C147.407 113.806 147.337 113.792 147.271 113.765C147.206 113.738 147.146 113.698 147.096 113.648C147.046 113.598 147.007 113.539 146.979 113.474C146.952 113.408 146.938 113.338 146.938 113.268V31.9991C146.938 31.8564 146.995 31.7195 147.096 31.6186C147.198 31.5176 147.335 31.4609 147.478 31.4609C147.621 31.4609 147.758 31.5176 147.859 31.6186C147.96 31.7195 148.017 31.8564 148.017 31.9991V113.268C148.017 113.338 148.003 113.408 147.976 113.474C147.949 113.539 147.909 113.598 147.859 113.648C147.809 113.698 147.749 113.738 147.684 113.765C147.619 113.792 147.548 113.806 147.478 113.806Z" fill="#E6E6E6"/>
<path d="M194.626 113.806C194.555 113.806 194.485 113.792 194.42 113.765C194.354 113.738 194.295 113.698 194.245 113.648C194.195 113.598 194.155 113.539 194.128 113.474C194.101 113.408 194.087 113.338 194.087 113.268V31.9991C194.087 31.8564 194.144 31.7195 194.245 31.6186C194.346 31.5176 194.483 31.4609 194.626 31.4609C194.769 31.4609 194.906 31.5176 195.007 31.6186C195.108 31.7195 195.165 31.8564 195.165 31.9991V113.268C195.165 113.338 195.151 113.408 195.124 113.474C195.097 113.539 195.057 113.598 195.007 113.648C194.957 113.698 194.898 113.738 194.832 113.765C194.767 113.792 194.697 113.806 194.626 113.806Z" fill="#E6E6E6"/>
<path d="M241.776 113.806C241.705 113.806 241.635 113.792 241.569 113.765C241.504 113.738 241.444 113.698 241.394 113.648C241.344 113.598 241.304 113.539 241.277 113.474C241.25 113.408 241.236 113.338 241.236 113.268V31.9991C241.236 31.8564 241.293 31.7195 241.394 31.6186C241.495 31.5176 241.633 31.4609 241.776 31.4609C241.919 31.4609 242.056 31.5176 242.157 31.6186C242.258 31.7195 242.315 31.8564 242.315 31.9991V113.268C242.315 113.338 242.301 113.408 242.274 113.474C242.247 113.539 242.207 113.598 242.157 113.648C242.107 113.698 242.047 113.738 241.982 113.765C241.916 113.792 241.846 113.806 241.776 113.806Z" fill="#E6E6E6"/>
<path d="M288.924 113.806C288.853 113.806 288.783 113.792 288.718 113.765C288.652 113.738 288.593 113.698 288.543 113.648C288.493 113.598 288.453 113.539 288.426 113.474C288.399 113.408 288.385 113.338 288.385 113.268V31.9991C288.385 31.8564 288.442 31.7195 288.543 31.6186C288.644 31.5176 288.781 31.4609 288.924 31.4609C289.067 31.4609 289.204 31.5176 289.305 31.6186C289.406 31.7195 289.463 31.8564 289.463 31.9991V113.268C289.463 113.338 289.449 113.408 289.422 113.474C289.395 113.539 289.355 113.598 289.305 113.648C289.255 113.698 289.196 113.738 289.13 113.765C289.065 113.792 288.995 113.806 288.924 113.806Z" fill="#E6E6E6"/>
<path d="M143.278 44.1095C143.278 44.0388 143.292 43.9688 143.319 43.9035C143.346 43.8382 143.386 43.7789 143.436 43.7289C143.486 43.6789 143.546 43.6393 143.611 43.6122C143.677 43.5852 143.747 43.5713 143.817 43.5713H337.151C337.222 43.5713 337.292 43.5852 337.358 43.6123C337.423 43.6393 337.483 43.6789 337.533 43.7289C337.583 43.7789 337.622 43.8382 337.649 43.9035C337.677 43.9688 337.691 44.0388 337.691 44.1095C337.691 44.1802 337.677 44.2502 337.649 44.3155C337.622 44.3807 337.583 44.4401 337.533 44.4901C337.483 44.54 337.423 44.5797 337.358 44.6067C337.292 44.6338 337.222 44.6477 337.151 44.6477H143.817C143.747 44.6477 143.677 44.6338 143.611 44.6068C143.546 44.5797 143.486 44.5401 143.436 44.4901C143.386 44.4401 143.346 44.3808 143.319 44.3155C143.292 44.2502 143.278 44.1802 143.278 44.1095Z" fill="#E6E6E6"/>
<path d="M143.278 104.01C143.278 103.939 143.292 103.869 143.319 103.804C143.346 103.738 143.386 103.679 143.436 103.629C143.486 103.579 143.546 103.539 143.611 103.512C143.677 103.485 143.747 103.471 143.817 103.471H337.151C337.294 103.471 337.431 103.528 337.533 103.629C337.634 103.73 337.691 103.867 337.691 104.01C337.691 104.152 337.634 104.289 337.533 104.39C337.431 104.491 337.294 104.548 337.151 104.548H143.817C143.747 104.548 143.677 104.534 143.611 104.507C143.546 104.48 143.486 104.44 143.436 104.39C143.386 104.34 143.346 104.281 143.319 104.216C143.292 104.15 143.278 104.08 143.278 104.01Z" fill="#E6E6E6"/>
<path d="M143.278 74.0594C143.278 73.9888 143.292 73.9188 143.319 73.8535C143.346 73.7882 143.386 73.7288 143.436 73.6788C143.486 73.6288 143.546 73.5892 143.611 73.5622C143.677 73.5351 143.747 73.5212 143.817 73.5212H337.151C337.294 73.5212 337.431 73.5779 337.533 73.6789C337.634 73.7798 337.691 73.9167 337.691 74.0594C337.691 74.2022 337.634 74.3391 337.533 74.44C337.431 74.5409 337.294 74.5976 337.151 74.5976H143.817C143.747 74.5977 143.677 74.5837 143.611 74.5567C143.546 74.5297 143.486 74.49 143.436 74.44C143.386 74.3901 143.346 74.3307 143.319 74.2654C143.292 74.2001 143.278 74.1301 143.278 74.0594Z" fill="#E6E6E6"/>
<path d="M334.568 113.806C334.639 113.806 334.709 113.792 334.775 113.765C334.84 113.738 334.9 113.698 334.95 113.648C335 113.598 335.04 113.539 335.067 113.474C335.094 113.408 335.108 113.338 335.108 113.268V31.9991C335.108 31.8564 335.051 31.7195 334.95 31.6186C334.849 31.5176 334.711 31.4609 334.568 31.4609C334.425 31.4609 334.288 31.5176 334.187 31.6186C334.086 31.7195 334.029 31.8564 334.029 31.9991V113.268C334.029 113.338 334.043 113.408 334.07 113.474C334.097 113.539 334.137 113.598 334.187 113.648C334.237 113.698 334.297 113.738 334.362 113.765C334.428 113.792 334.498 113.806 334.568 113.806Z" fill="#E6E6E6"/>
<path d="M176.886 70.4132H163.306C162.559 70.4126 161.837 70.1431 161.273 69.6541C160.709 69.165 160.341 68.4894 160.236 67.7511C159.398 61.5918 159.398 55.3475 160.236 49.1881C160.34 48.4588 160.701 47.7902 161.254 47.3024C161.807 46.8146 162.516 46.5395 163.254 46.5266C167.526 44.6148 172.128 44.615 176.933 46.5263C177.38 46.5323 177.821 46.6359 178.224 46.8299C178.627 47.024 178.983 47.3038 179.266 47.6496C179.561 48.0094 179.773 48.4303 179.885 48.8818C179.997 49.3334 180.006 49.8041 179.913 50.2599C178.822 55.6789 178.822 61.2604 179.913 66.6794C180.006 67.1352 179.997 67.6059 179.885 68.0574C179.773 68.509 179.561 68.9299 179.266 69.2897C178.978 69.6416 178.615 69.9251 178.203 70.1194C177.791 70.3138 177.341 70.4141 176.886 70.4132Z" fill="#30E3CA"/>
<path d="M175.464 53.6034H164.034C163.844 53.6034 163.663 53.5283 163.529 53.3946C163.395 53.2608 163.319 53.0795 163.319 52.8903C163.319 52.7012 163.395 52.5198 163.529 52.3861C163.663 52.2524 163.844 52.1772 164.034 52.1772H175.464C175.653 52.1772 175.835 52.2524 175.969 52.3861C176.103 52.5198 176.178 52.7012 176.178 52.8903C176.178 53.0795 176.103 53.2608 175.969 53.3946C175.835 53.5283 175.653 53.6034 175.464 53.6034Z" fill="white"/>
<path d="M175.464 59.3083H164.034C163.844 59.3083 163.663 59.2331 163.529 59.0994C163.395 58.9657 163.319 58.7843 163.319 58.5952C163.319 58.4061 163.395 58.2247 163.529 58.091C163.663 57.9572 163.844 57.8821 164.034 57.8821H175.464C175.653 57.8821 175.835 57.9572 175.969 58.091C176.103 58.2247 176.178 58.4061 176.178 58.5952C176.178 58.7843 176.103 58.9657 175.969 59.0994C175.835 59.2331 175.653 59.3083 175.464 59.3083Z" fill="white"/>
<path d="M175.464 65.0131H164.034C163.844 65.0131 163.663 64.938 163.529 64.8042C163.395 64.6705 163.319 64.4891 163.319 64.3C163.319 64.1109 163.395 63.9295 163.529 63.7958C163.663 63.6621 163.844 63.5869 164.034 63.5869H175.464C175.653 63.5869 175.835 63.6621 175.969 63.7958C176.103 63.9295 176.178 64.1109 176.178 64.3C176.178 64.4891 176.103 64.6705 175.969 64.8042C175.835 64.938 175.653 65.0131 175.464 65.0131Z" fill="white"/>
<path d="M274.518 101.789H260.938C260.191 101.789 259.469 101.519 258.905 101.03C258.341 100.541 257.973 99.8653 257.868 99.1271C257.03 92.9678 257.03 86.7235 257.868 80.5641C257.972 79.8348 258.333 79.1662 258.886 78.6784C259.439 78.1906 260.148 77.9155 260.885 77.9025C265.158 75.9907 269.76 75.991 274.564 77.9023C275.012 77.9082 275.453 78.0119 275.856 78.2059C276.259 78.4 276.615 78.6797 276.898 79.0256C277.193 79.3854 277.405 79.8063 277.516 80.2578C277.628 80.7093 277.638 81.1801 277.545 81.6358C276.454 87.0549 276.454 92.6364 277.545 98.0554C277.638 98.5112 277.628 98.9819 277.516 99.4334C277.405 99.8849 277.193 100.306 276.898 100.666C276.61 101.018 276.246 101.301 275.835 101.495C275.423 101.69 274.973 101.79 274.518 101.789Z" fill="#30E3CA"/>
<path d="M273.096 84.9797H261.666C261.476 84.9797 261.294 84.9045 261.16 84.7708C261.026 84.6371 260.951 84.4557 260.951 84.2666C260.951 84.0774 261.026 83.8961 261.16 83.7623C261.294 83.6286 261.476 83.5535 261.666 83.5535H273.096C273.285 83.5535 273.467 83.6286 273.601 83.7623C273.735 83.8961 273.81 84.0774 273.81 84.2666C273.81 84.4557 273.735 84.6371 273.601 84.7708C273.467 84.9045 273.285 84.9797 273.096 84.9797Z" fill="white"/>
<path d="M273.096 90.6845H261.666C261.476 90.6845 261.294 90.6094 261.16 90.4756C261.026 90.3419 260.951 90.1605 260.951 89.9714C260.951 89.7823 261.026 89.6009 261.16 89.4672C261.294 89.3334 261.476 89.2583 261.666 89.2583H273.096C273.285 89.2583 273.467 89.3334 273.601 89.4672C273.735 89.6009 273.81 89.7823 273.81 89.9714C273.81 90.1605 273.735 90.3419 273.601 90.4756C273.467 90.6094 273.285 90.6845 273.096 90.6845Z" fill="white"/>
<path d="M315.951 70.4132H302.371C301.624 70.4126 300.903 70.1431 300.339 69.6541C299.775 69.165 299.407 68.4894 299.302 67.7511C298.463 61.5918 298.463 55.3475 299.302 49.1881C299.405 48.4588 299.766 47.7902 300.319 47.3024C300.872 46.8146 301.581 46.5395 302.319 46.5266C306.592 44.6148 311.193 44.615 315.998 46.5263C316.446 46.5323 316.886 46.6359 317.289 46.8299C317.692 47.024 318.048 47.3038 318.331 47.6496C318.627 48.0094 318.838 48.4303 318.95 48.8818C319.062 49.3334 319.072 49.8041 318.979 50.2599C317.888 55.6789 317.888 61.2604 318.979 66.6794C319.072 67.1352 319.062 67.6059 318.95 68.0574C318.838 68.509 318.627 68.9299 318.331 69.2897C318.043 69.6416 317.68 69.9251 317.268 70.1194C316.857 70.3138 316.407 70.4141 315.951 70.4132Z" fill="#FD6584"/>
<path d="M314.529 59.3083H303.099C302.91 59.3083 302.728 59.2331 302.594 59.0994C302.46 58.9657 302.385 58.7843 302.385 58.5952C302.385 58.4061 302.46 58.2247 302.594 58.091C302.728 57.9572 302.91 57.8821 303.099 57.8821H314.529C314.719 57.8821 314.9 57.9572 315.034 58.091C315.168 58.2247 315.244 58.4061 315.244 58.5952C315.244 58.7843 315.168 58.9657 315.034 59.0994C314.9 59.2331 314.719 59.3083 314.529 59.3083Z" fill="white"/>
<path d="M314.529 65.0131H303.099C302.91 65.0131 302.728 64.938 302.594 64.8042C302.46 64.6705 302.385 64.4891 302.385 64.3C302.385 64.1109 302.46 63.9295 302.594 63.7958C302.728 63.6621 302.91 63.5869 303.099 63.5869H314.529C314.719 63.5869 314.9 63.6621 315.034 63.7958C315.168 63.9295 315.244 64.1109 315.244 64.3C315.244 64.4891 315.168 64.6705 315.034 64.8042C314.9 64.938 314.719 65.0131 314.529 65.0131Z" fill="white"/>
<path d="M86.7236 68.3148C84.0216 64.1817 79.6101 60.9338 74.697 60.6593C69.7838 60.3849 63.8793 64.5613 61.4544 68.8588C57.0188 76.7197 56.9606 85.7339 63.0698 91.2012C63.8994 90.9203 67.3503 90.5176 68.1938 90.2464L68.7286 89.2823L69.3884 89.8684C76.9383 90.6203 79.2624 85.4964 91.3427 82.2657C90.6363 77.3789 89.4256 72.4478 86.7236 68.3148Z" fill="#2F2E41"/>
<path d="M76.3521 87.7816C81.8661 87.7816 86.3361 83.3197 86.3361 77.8156C86.3361 72.3115 81.8661 67.8496 76.3521 67.8496C70.8381 67.8496 66.3682 72.3115 66.3682 77.8156C66.3682 83.3197 70.8381 87.7816 76.3521 87.7816Z" fill="#FFB7B7"/>
<path d="M87.4149 96.3327L81.7017 92.9109L70.2752 91.7703L60.1758 96.9038L60.277 112.586L66.684 128.851L91.6444 133.987L94.5565 119.692C94.5565 119.692 101.984 109.735 93.9852 104.032L87.4149 96.3327Z" fill="#30E3CA"/>
<path d="M80.0855 62.6803C77.9222 62.0749 75.6356 62.0607 73.4649 62.6394C71.2943 63.218 69.3192 64.3681 67.7462 65.9695C66.1732 67.5708 65.0602 69.5646 64.5234 71.7424C63.9865 73.9201 64.0457 76.2018 64.6947 78.3489C70.7754 78.8334 76.7859 78.2667 81.5239 73.9722L81.9455 70.2886L83.6743 73.3712C85.4179 72.8816 87.1643 72.3889 88.9134 71.8931C88.3784 69.7206 87.2815 67.7263 85.7323 66.1096C84.1831 64.4929 82.236 63.3104 80.0855 62.6803Z" fill="#2F2E41"/>
<path d="M62.959 164.044C62.4161 163.71 61.9531 163.261 61.6026 162.73C61.2522 162.198 61.0228 161.596 60.9306 160.966C60.8384 160.337 60.8856 159.694 61.069 159.085C61.2524 158.475 61.5674 157.913 61.9919 157.438L58.3076 117.958L67.7639 118.687L68.4119 157.266C69.1639 158.03 69.6086 159.044 69.662 160.114C69.7153 161.184 69.3736 162.237 68.7014 163.072C68.0293 163.908 67.0734 164.468 66.0151 164.647C64.9567 164.826 63.8693 164.611 62.9589 164.044H62.959Z" fill="#FFB6B6"/>
<path d="M60.5262 97.0612C60.5262 97.0612 58.2466 96.7283 58.5106 101.594C58.722 105.489 57.7173 129.498 59.4341 134.636C58.7866 135.034 58.2902 135.636 58.023 136.346C57.7559 137.057 57.7332 137.836 57.9586 138.561L68.9879 136.215C70.2727 134.01 70.0065 131.747 69.0727 131.38L69.1276 124.334L71.5651 101.111L62.1784 97.2727L60.5262 97.0612Z" fill="#30E3CA"/>
<path d="M116.895 167.697C116.6 167.337 116.388 166.916 116.277 166.464C116.165 166.013 116.155 165.542 116.248 165.086C117.339 159.667 117.339 154.086 116.248 148.667C116.155 148.211 116.165 147.74 116.277 147.289C116.388 146.837 116.6 146.416 116.895 146.057C117.178 145.711 117.534 145.431 117.937 145.237C118.34 145.043 118.781 144.939 119.229 144.933C124.033 143.022 128.635 143.022 132.908 144.934C133.645 144.947 134.354 145.222 134.907 145.709C135.46 146.197 135.821 146.866 135.925 147.595C136.763 153.754 136.763 159.999 135.925 166.158C135.82 166.896 135.452 167.572 134.888 168.061C134.324 168.55 133.602 168.82 132.855 168.82H119.275C118.82 168.821 118.37 168.721 117.958 168.526C117.547 168.332 117.183 168.049 116.895 167.697Z" fill="#30E3CA"/>
<path d="M120.698 152.011H132.128C132.317 152.011 132.499 151.936 132.633 151.802C132.767 151.668 132.842 151.487 132.842 151.298C132.842 151.108 132.767 150.927 132.633 150.793C132.499 150.66 132.317 150.584 132.128 150.584H120.698C120.508 150.584 120.327 150.66 120.193 150.793C120.059 150.927 119.983 151.108 119.983 151.298C119.983 151.487 120.059 151.668 120.193 151.802C120.327 151.936 120.508 152.011 120.698 152.011Z" fill="white"/>
<path d="M120.698 157.715H132.128C132.317 157.715 132.499 157.64 132.633 157.507C132.767 157.373 132.842 157.192 132.842 157.002C132.842 156.813 132.767 156.632 132.633 156.498C132.499 156.364 132.317 156.289 132.128 156.289H120.698C120.508 156.289 120.327 156.364 120.193 156.498C120.059 156.632 119.983 156.813 119.983 157.002C119.983 157.192 120.059 157.373 120.193 157.507C120.327 157.64 120.508 157.715 120.698 157.715Z" fill="white"/>
<path d="M120.698 163.42H132.128C132.317 163.42 132.499 163.345 132.633 163.211C132.767 163.077 132.842 162.896 132.842 162.707C132.842 162.518 132.767 162.336 132.633 162.203C132.499 162.069 132.317 161.994 132.128 161.994H120.698C120.508 161.994 120.327 162.069 120.193 162.203C120.059 162.336 119.983 162.518 119.983 162.707C119.983 162.896 120.059 163.077 120.193 163.211C120.327 163.345 120.508 163.42 120.698 163.42Z" fill="white"/>
<path d="M434.862 276.936H429.004L426.218 254.383L434.863 254.384L434.862 276.936Z" fill="#A0616A"/>
<path d="M436.355 282.604L417.468 282.603V282.365C417.468 280.419 418.242 278.552 419.621 277.176C421 275.8 422.87 275.027 424.819 275.027H424.82L428.27 272.414L434.707 275.027L436.355 275.027L436.355 282.604Z" fill="#2F2E41"/>
<path d="M407.649 276.936H401.791L399.005 254.383L407.65 254.384L407.649 276.936Z" fill="#A0616A"/>
<path d="M409.142 282.604L390.255 282.603V282.365C390.255 280.419 391.03 278.552 392.408 277.176C393.787 275.8 395.657 275.027 397.606 275.027H397.607L401.057 272.414L407.494 275.027L409.142 275.027L409.142 282.604Z" fill="#2F2E41"/>
<path d="M439.524 132.543L431.78 156.312L407.368 155.513L414.87 132.543H439.524Z" fill="#2F2E41"/>
<path d="M402.967 153.516L448.989 154.714L448.189 177.085C448.189 177.085 448.989 183.077 447.388 184.675C445.787 186.273 444.987 186.273 445.787 189.069C446.588 191.865 442.359 196.432 442.873 196.945C443.386 197.458 444.587 200.254 444.587 200.254L440.585 223.024C440.585 223.024 437.784 262.572 436.983 263.371C436.183 264.17 435.382 263.371 436.183 265.369C436.983 267.366 437.784 266.567 436.983 267.366C436.274 268.129 435.606 268.929 434.982 269.763H425.307C425.307 269.763 424.577 265.768 424.577 265.369C424.577 264.969 423.777 262.572 423.777 262.173C423.777 261.773 424.484 261.067 424.484 261.067C424.729 260.255 424.894 259.421 424.977 258.578C424.977 257.779 427.378 227.019 427.378 227.019L422.576 187.072L410.971 226.22C410.971 226.22 410.971 260.575 410.17 261.374C409.37 262.173 409.37 261.773 409.77 263.371C410.17 264.969 411.771 264.57 410.57 265.768C409.37 266.967 408.97 264.969 409.37 266.967L409.77 268.964L397.764 269.135C397.764 269.135 396.163 265.768 396.964 264.57C397.764 263.371 397.716 263.698 396.74 261.737C395.763 259.776 395.363 259.377 395.763 258.977C396.163 258.578 396.163 256.453 396.163 256.453L398.164 218.231C398.164 218.231 398.564 177.884 398.564 176.685C398.595 176.069 398.481 175.453 398.232 174.888V173.261L399.765 167.497L402.967 153.516Z" fill="#2F2E41"/>
<path d="M407.168 95.3919L421.175 90.1987L444.386 91.7966L449.761 94.3002C451.651 95.1808 453.19 96.6702 454.13 98.5291C455.07 100.388 455.357 102.508 454.944 104.55L447.988 138.935L449.787 155.479C449.787 155.479 420.575 177.484 397.764 170.693C397.764 170.693 398.164 164.301 398.564 161.905C398.964 159.508 399.765 159.508 400.165 158.309C400.565 157.111 401.365 158.309 400.565 155.912C399.765 153.516 406.968 136.738 406.968 136.738L407.168 95.3919Z" fill="#E6E6E6"/>
<path d="M429.308 98.4315L440.726 91.5449L436.982 84.8062H424.852L420.047 90.6169L429.308 98.4315Z" fill="#E6E6E6"/>
<path d="M433.237 155.054C433.889 155.091 434.542 154.986 435.149 154.744C435.756 154.503 436.302 154.132 436.75 153.656C437.197 153.181 437.535 152.614 437.739 151.995C437.944 151.375 438.009 150.719 437.932 150.071L452.211 143.134L445.111 138.935L432.64 146.166C431.559 146.368 430.589 146.959 429.915 147.827C429.242 148.695 428.91 149.779 428.984 150.875C429.057 151.97 429.531 153.001 430.315 153.771C431.099 154.541 432.139 154.998 433.237 155.054Z" fill="#A0616A"/>
<path d="M438.846 152.174L436.358 143.068L449.916 125.139C445.528 119.857 443.988 112.059 445.071 100.624C444.831 99.3905 445.069 98.1123 445.736 97.0472C446.403 95.9821 447.451 95.2094 448.667 94.8849C449.882 94.5604 451.176 94.7084 452.287 95.299C453.398 95.8896 454.243 96.8788 454.652 98.0669C457.72 106.999 463.057 126.22 462.361 127.261C461.561 128.46 461.286 128.992 462.545 130.137C464.038 131.495 463.246 137.281 462.565 138.111C461.944 138.868 438.846 152.174 438.846 152.174Z" fill="#E6E6E6"/>
<path d="M367.071 140.91C367.68 141.146 368.333 141.245 368.985 141.201C369.637 141.157 370.271 140.971 370.843 140.656C371.415 140.341 371.911 139.904 372.296 139.377C372.681 138.85 372.945 138.245 373.07 137.605L388.793 135.376L383.326 129.205L369.234 132.268C368.143 132.129 367.038 132.395 366.13 133.015C365.222 133.634 364.573 134.565 364.307 135.63C364.04 136.695 364.174 137.821 364.684 138.794C365.193 139.767 366.042 140.52 367.071 140.91Z" fill="#A0616A"/>
<path d="M373.817 139.598L376.205 130.465L395.971 119.349C397.399 110.316 398.295 107.371 404.941 97.9945C405.348 96.8059 406.192 95.8158 407.302 95.2242C408.413 94.6325 409.706 94.4832 410.923 94.8065C412.139 95.1297 413.187 95.9015 413.855 96.9659C414.524 98.0303 414.763 99.3082 414.524 100.542C412.727 109.812 404.596 134.656 403.591 135.037C402.675 135.384 373.817 139.598 373.817 139.598Z" fill="#E6E6E6"/>
<path d="M430.78 80.6115C437.632 80.6115 443.186 75.0671 443.186 68.2277C443.186 61.3884 437.632 55.844 430.78 55.844C423.928 55.844 418.374 61.3884 418.374 68.2277C418.374 75.0671 423.928 80.6115 430.78 80.6115Z" fill="#A0616A"/>
<path d="M417.642 59.2441C417.971 56.2824 422.257 53.3206 429.84 51.3461C437.422 49.3716 441.378 57.9277 441.378 57.9277C446.653 60.5604 443.521 74.5464 441.873 73.23C441.856 73.2169 441.84 73.2041 441.823 73.1916C440.748 72.4013 439.846 71.4006 439.171 70.2506C438.497 69.1005 438.064 67.8252 437.9 66.5027L437.521 63.0944C435.785 64.4227 433.827 65.5473 431.727 65.213L434.298 62.686C431.861 63.7444 429.424 64.8028 426.987 65.8612L429.407 62.5371L429.293 62.4248C428.16 63.3784 426.859 64.1135 425.458 64.5926C423.858 65.0501 421.942 64.8026 420.847 63.5532C420.552 63.2083 420.329 62.808 420.192 62.3758C418.202 63.736 417.807 66.6484 417.807 66.6484C417.807 66.6484 417.312 62.2058 417.642 59.2441Z" fill="#2F2E41"/>
<path d="M367.863 148.953H354.283C353.536 148.952 352.815 148.683 352.251 148.194C351.687 147.705 351.319 147.029 351.214 146.291C350.375 140.131 350.375 133.887 351.214 127.728C351.318 126.998 351.678 126.33 352.231 125.842C352.784 125.354 353.493 125.079 354.231 125.066C358.504 123.154 363.105 123.155 367.91 125.066C368.358 125.072 368.798 125.175 369.201 125.369C369.605 125.564 369.96 125.843 370.243 126.189C370.539 126.549 370.75 126.97 370.862 127.421C370.974 127.873 370.984 128.344 370.891 128.799C369.8 134.218 369.8 139.8 370.891 145.219C370.984 145.675 370.974 146.145 370.862 146.597C370.75 147.048 370.539 147.469 370.243 147.829C369.955 148.181 369.592 148.465 369.18 148.659C368.769 148.853 368.319 148.954 367.863 148.953Z" fill="#3F3D56"/>
<path d="M366.44 132.143H355.01C354.821 132.143 354.639 132.068 354.505 131.934C354.371 131.8 354.296 131.619 354.296 131.43C354.296 131.241 354.371 131.059 354.505 130.926C354.639 130.792 354.821 130.717 355.01 130.717H366.44C366.63 130.717 366.811 130.792 366.945 130.926C367.079 131.059 367.155 131.241 367.155 131.43C367.155 131.619 367.079 131.8 366.945 131.934C366.811 132.068 366.63 132.143 366.44 132.143Z" fill="white"/>
<path d="M366.44 137.848H355.01C354.821 137.848 354.639 137.773 354.505 137.639C354.371 137.505 354.296 137.324 354.296 137.135C354.296 136.946 354.371 136.764 354.505 136.63C354.639 136.497 354.821 136.422 355.01 136.422H366.44C366.63 136.422 366.811 136.497 366.945 136.63C367.079 136.764 367.155 136.946 367.155 137.135C367.155 137.324 367.079 137.505 366.945 137.639C366.811 137.773 366.63 137.848 366.44 137.848Z" fill="white"/>
<path d="M366.44 143.553H355.01C354.821 143.553 354.639 143.478 354.505 143.344C354.371 143.21 354.296 143.029 354.296 142.84C354.296 142.65 354.371 142.469 354.505 142.335C354.639 142.202 354.821 142.126 355.01 142.126H366.44C366.63 142.126 366.811 142.202 366.945 142.335C367.079 142.469 367.155 142.65 367.155 142.84C367.155 143.029 367.079 143.21 366.945 143.344C366.811 143.478 366.63 143.553 366.44 143.553Z" fill="white"/>
<path d="M309.769 34.6288C314.766 34.6288 318.817 30.5848 318.817 25.5963C318.817 20.6077 314.766 16.5637 309.769 16.5637C304.771 16.5637 300.72 20.6077 300.72 25.5963C300.72 30.5848 304.771 34.6288 309.769 34.6288Z" fill="#E6E6E6"/>
<path d="M314.414 21.8321C314.278 21.7024 314.097 21.6301 313.908 21.6301C313.72 21.6301 313.539 21.7024 313.403 21.8321C311.483 23.3606 309.759 25.119 308.268 27.0675C307.903 26.3609 307.537 25.6543 307.171 24.9476C306.749 24.132 305.515 24.8525 305.937 25.6675C306.472 26.701 307.007 27.7346 307.543 28.7682C307.607 28.8737 307.698 28.9609 307.806 29.0214C307.914 29.0818 308.036 29.1136 308.159 29.1136C308.283 29.1136 308.405 29.0818 308.513 29.0214C308.621 28.9609 308.712 28.8737 308.776 28.7682C310.364 26.5355 312.263 24.5397 314.414 22.8405C314.547 22.7063 314.621 22.5251 314.621 22.3363C314.621 22.1475 314.547 21.9664 314.414 21.8321Z" fill="white"/>
<path d="M265.477 34.6288C270.474 34.6288 274.525 30.5848 274.525 25.5963C274.525 20.6077 270.474 16.5637 265.477 16.5637C260.479 16.5637 256.428 20.6077 256.428 25.5963C256.428 30.5848 260.479 34.6288 265.477 34.6288Z" fill="#E6E6E6"/>
<path d="M270.122 21.8321C269.986 21.7024 269.805 21.6301 269.616 21.6301C269.428 21.6301 269.247 21.7024 269.111 21.8321C267.191 23.3606 265.467 25.119 263.977 27.0675C263.611 26.3609 263.245 25.6543 262.879 24.9476C262.457 24.132 261.223 24.8525 261.645 25.6675C262.18 26.701 262.716 27.7346 263.251 28.7682C263.315 28.8737 263.406 28.9609 263.514 29.0214C263.622 29.0818 263.744 29.1136 263.867 29.1136C263.991 29.1136 264.113 29.0818 264.221 29.0214C264.329 28.9609 264.42 28.8737 264.484 28.7682C266.072 26.5355 267.971 24.5397 270.122 22.8405C270.255 22.7063 270.329 22.5251 270.329 22.3363C270.329 22.1475 270.255 21.9664 270.122 21.8321Z" fill="white"/>
<path d="M172.132 33.6781C177.129 33.6781 181.181 29.6341 181.181 24.6456C181.181 19.657 177.129 15.613 172.132 15.613C167.134 15.613 163.083 19.657 163.083 24.6456C163.083 29.6341 167.134 33.6781 172.132 33.6781Z" fill="#E6E6E6"/>
<path d="M176.777 20.8811C176.641 20.7515 176.46 20.6792 176.272 20.6792C176.084 20.6792 175.903 20.7515 175.767 20.8811C173.847 22.4097 172.122 24.168 170.632 26.1166C170.266 25.41 169.9 24.7033 169.534 23.9967C169.112 23.1811 167.879 23.9016 168.301 24.7165C168.836 25.7501 169.371 26.7837 169.906 27.8172C169.97 27.9227 170.061 28.0099 170.169 28.0704C170.277 28.1309 170.399 28.1627 170.523 28.1627C170.647 28.1627 170.768 28.1309 170.876 28.0704C170.984 28.0099 171.075 27.9227 171.14 27.8172C172.728 25.5846 174.626 23.5887 176.777 21.8896C176.91 21.7553 176.984 21.5742 176.984 21.3854C176.984 21.1966 176.91 21.0154 176.777 20.8811Z" fill="white"/>
<path d="M64.0223 70.759C67.4417 70.759 70.2136 67.992 70.2136 64.5788C70.2136 61.1656 67.4417 58.3987 64.0223 58.3987C60.603 58.3987 57.8311 61.1656 57.8311 64.5788C57.8311 67.992 60.603 70.759 64.0223 70.759Z" fill="#2F2E41"/>
<path d="M134.622 282.434C134.622 282.508 134.608 282.582 134.579 282.651C134.551 282.72 134.509 282.782 134.457 282.835C134.404 282.887 134.341 282.929 134.273 282.957C134.204 282.986 134.13 283 134.055 283H0.566741C0.416432 283 0.272278 282.94 0.165994 282.834C0.0597091 282.728 0 282.584 0 282.434C0 282.284 0.0597091 282.14 0.165994 282.034C0.272278 281.928 0.416432 281.868 0.566741 281.868H134.055C134.13 281.868 134.204 281.883 134.273 281.911C134.341 281.939 134.404 281.981 134.457 282.034C134.509 282.086 134.551 282.149 134.579 282.217C134.608 282.286 134.622 282.36 134.622 282.434Z" fill="#CCCCCC"/>
<path d="M478 282.434C478 282.508 477.986 282.582 477.957 282.651C477.929 282.72 477.887 282.782 477.835 282.835C477.782 282.887 477.719 282.929 477.651 282.957C477.582 282.986 477.508 283 477.433 283H343.945C343.794 283 343.65 282.94 343.544 282.834C343.438 282.728 343.378 282.584 343.378 282.434C343.378 282.284 343.438 282.14 343.544 282.034C343.65 281.928 343.794 281.868 343.945 281.868H477.433C477.508 281.868 477.582 281.883 477.651 281.911C477.719 281.939 477.782 281.981 477.835 282.034C477.887 282.086 477.929 282.149 477.957 282.217C477.986 282.286 478 282.36 478 282.434Z" fill="#CCCCCC"/>
<path d="M62.1575 58.3802C61.0859 58.0826 59.9712 58.5809 58.9709 59.0668L55.4131 60.7951C57.8762 61.0109 60.3394 61.2266 62.8025 61.4424L63.0747 60.9311C63.9272 60.2178 63.2292 58.6778 62.1575 58.3802Z" fill="#2F2E41"/>
</svg>
