<svg width="292" height="173" viewBox="0 0 292 173" fill="none" xmlns="http://www.w3.org/2000/svg">
<g clip-path="url(#clip0_1009_242)">
<path d="M67.2961 161.659L71.9856 160.173C72.57 157.659 72.5313 155.041 71.8726 152.545C69.9886 156.729 64.4612 157.755 61.3119 161.094C60.3376 162.144 59.6122 163.398 59.1894 164.766C58.7666 166.133 58.6572 167.578 58.8694 168.993L57.8828 172.336C60.1871 172.14 62.4214 171.446 64.4316 170.304C66.4418 169.162 68.1802 167.598 69.5271 165.72C70.2722 164.659 70.8806 163.508 71.338 162.295C69.3381 162.095 67.2961 161.659 67.2961 161.659Z" fill="#F2F2F2"/>
<path d="M233.484 161.659L228.794 160.173C228.21 157.659 228.249 155.041 228.907 152.545C230.791 156.729 236.319 157.755 239.468 161.094C240.442 162.144 241.168 163.398 241.59 164.766C242.013 166.133 242.123 167.578 241.91 168.993L242.897 172.336C240.593 172.14 238.358 171.446 236.348 170.304C234.338 169.162 232.6 167.598 231.253 165.72C230.508 164.659 229.899 163.508 229.442 162.295C231.442 162.095 233.484 161.659 233.484 161.659Z" fill="#F2F2F2"/>
<path d="M62.2879 155.478L65.8218 152.059C65.2224 149.548 64.0186 147.222 62.3148 145.281C62.4968 149.866 58.0073 153.246 56.6796 157.638C56.2761 159.011 56.187 160.457 56.419 161.87C56.6511 163.282 57.1983 164.624 58.02 165.796L58.6296 169.228C60.6043 168.025 62.2944 166.409 63.5837 164.491C64.873 162.574 65.7307 160.399 66.0977 158.118C66.2909 156.837 66.3218 155.536 66.1896 154.247C64.3103 154.959 62.2879 155.478 62.2879 155.478Z" fill="#F2F2F2"/>
<path d="M71.7325 91.8194C71.3464 91.8711 70.9537 91.8376 70.5821 91.7213C70.2104 91.605 69.8688 91.4087 69.5812 91.1462C69.2937 90.8838 69.0673 90.5615 68.918 90.2022C68.7686 89.8429 68.7 89.4552 68.7168 89.0665L51.6836 71.8028L56.4386 68.4961L71.6865 86.5055C72.3384 86.5771 72.9413 86.885 73.381 87.371C73.8207 87.8569 74.0667 88.4871 74.0724 89.1421C74.078 89.7971 73.843 90.4314 73.4117 90.9249C72.9804 91.4184 72.383 91.7366 71.7325 91.8195L71.7325 91.8194Z" fill="#FFB6B6"/>
<path d="M46.4455 64.3358C46.4455 64.3358 45.2383 65.0586 47.2476 67.2595C48.8562 69.0215 55.8757 77.4932 58.6776 79.2619C58.5255 79.7004 58.5238 80.177 58.6727 80.6165C58.8216 81.0561 59.1127 81.4337 59.5001 81.6898L63.8079 76.3199C63.5618 74.7803 62.5226 74.8589 61.9389 75.0459L59.2361 71.69L53.1123 61.4297L47.3089 63.7979L46.4455 64.3358Z" fill="#30E3CA"/>
<path d="M32.9922 167.201H36.2035L37.7318 154.828H32.9922V167.201Z" fill="#FFB6B6"/>
<path d="M31.9438 165.003L37.074 164.697V166.893L41.9516 170.258C42.1925 170.424 42.3739 170.663 42.4694 170.939C42.5649 171.216 42.5694 171.515 42.4822 171.794C42.3951 172.074 42.2209 172.318 41.9851 172.491C41.7493 172.664 41.4642 172.758 41.1714 172.758H35.0636L34.0108 170.586L33.5998 172.758H31.2969L31.9438 165.003Z" fill="#545461"/>
<path d="M51.0312 167.201H54.2426L55.7708 154.828H51.0312V167.201Z" fill="#FFB6B6"/>
<path d="M49.9828 165.003L55.1131 164.697V166.893L59.9906 170.258C60.2315 170.424 60.413 170.663 60.5085 170.939C60.6039 171.216 60.6084 171.515 60.5213 171.794C60.4342 172.074 60.26 172.318 60.0242 172.491C59.7883 172.664 59.5032 172.758 59.2104 172.758H53.1026L52.0499 170.586L51.6388 172.758H49.3359L49.9828 165.003Z" fill="#545461"/>
<path d="M31.6065 156.532H31.6414L32.2589 136.414C31.8593 135.644 31.6565 134.787 31.6685 133.92C31.6806 133.053 31.9071 132.202 32.3281 131.443L32.4165 131.283L32.1872 130.222C31.8928 128.858 32.0279 127.437 32.574 126.153L33.1502 107.387C31.0919 94.0619 40.9012 85.3719 40.9012 85.3719L39.1086 77.8394L56.8555 76.0957L55.5956 85.3719L58.7504 96.1989C60.8359 116.496 60.4575 136.274 57.148 155.436L57.2382 155.481C57.5631 155.593 57.7024 156.043 57.5495 156.486C57.3966 156.928 57.0093 157.196 56.6844 157.084L48.924 156.815C48.5992 156.703 48.4598 156.253 48.6128 155.81C48.7657 155.368 49.153 155.1 49.4779 155.212L50.0055 155.478L48.8802 136.066L49.0051 132.52L48.7478 128.498L47.5583 110.404L43.0558 132.654L38.4567 156.756C38.5835 156.87 38.6726 157.021 38.712 157.187C38.7515 157.353 38.7395 157.528 38.6777 157.687C38.6159 157.847 38.5072 157.983 38.3659 158.08C38.2246 158.176 38.0573 158.228 37.8862 158.227H31.6065C31.3814 158.227 31.1655 158.138 31.0064 157.979C30.8472 157.82 30.7578 157.604 30.7578 157.379C30.7578 157.154 30.8472 156.939 31.0064 156.78C31.1655 156.621 31.3814 156.532 31.6065 156.532Z" fill="#545461"/>
<path d="M201.785 81.8697H92.0249C88.3345 81.8656 84.7965 80.3993 82.187 77.7926C79.5775 75.186 78.1096 71.6518 78.1055 67.9654V20.8372C78.1095 17.1577 79.5719 13.6294 82.1728 11.0239C84.7737 8.41835 88.3016 6.94747 91.9851 6.93284C109.031 2.21974 127.131 -0.111417 145.789 0.00409069C163.543 0.114065 182.394 2.44522 201.818 6.93284C205.503 6.94595 209.032 8.41614 211.634 11.0218C214.237 13.6275 215.7 17.1566 215.704 20.8372V67.9654C215.7 71.6518 214.232 75.186 211.623 77.7926C209.013 80.3993 205.475 81.8656 201.785 81.8697ZM92.0249 7.51408C88.4888 7.51808 85.0986 8.92305 82.5982 11.4208C80.0978 13.9185 78.6913 17.3049 78.6873 20.8372V67.9654C78.6913 71.4977 80.0978 74.8842 82.5982 77.3819C85.0986 79.8796 88.4888 81.2845 92.0249 81.2885H201.785C205.321 81.2845 208.711 79.8796 211.211 77.3819C213.712 74.8842 215.118 71.4977 215.122 67.9654V20.8372C215.118 17.3049 213.712 13.9185 211.211 11.4208C208.711 8.92305 205.321 7.51808 201.785 7.51408L201.719 7.50656C161.524 -1.78428 125.668 -1.78556 92.1026 7.50358L92.0249 7.51408Z" fill="#E6E6E6"/>
<path d="M90.0911 69.5704C90.0478 69.5704 90.005 69.5619 89.965 69.5454C89.9251 69.5289 89.8887 69.5046 89.8582 69.4741C89.8276 69.4435 89.8033 69.4073 89.7868 69.3673C89.7702 69.3274 89.7617 69.2846 89.7617 69.2414V19.5614C89.7617 19.4742 89.7964 19.3905 89.8582 19.3288C89.92 19.2671 90.0037 19.2324 90.0911 19.2324C90.1784 19.2324 90.2622 19.2671 90.324 19.3288C90.3858 19.3905 90.4205 19.4742 90.4205 19.5614V69.2414C90.4205 69.2846 90.412 69.3274 90.3954 69.3673C90.3789 69.4073 90.3546 69.4435 90.324 69.4741C90.2934 69.5046 90.2571 69.5289 90.2172 69.5454C90.1772 69.5619 90.1343 69.5704 90.0911 69.5704Z" fill="#E6E6E6"/>
<path d="M118.892 69.5704C118.849 69.5704 118.806 69.5619 118.766 69.5454C118.726 69.5289 118.69 69.5046 118.659 69.4741C118.628 69.4435 118.604 69.4073 118.588 69.3673C118.571 69.3274 118.562 69.2846 118.563 69.2414V19.5614C118.563 19.4742 118.597 19.3905 118.659 19.3288C118.721 19.2671 118.805 19.2324 118.892 19.2324C118.979 19.2324 119.063 19.2671 119.125 19.3288C119.187 19.3905 119.221 19.4742 119.221 19.5614V69.2414C119.221 69.2846 119.213 69.3274 119.196 69.3673C119.18 69.4073 119.155 69.4435 119.125 69.4741C119.094 69.5046 119.058 69.5289 119.018 69.5454C118.978 69.5619 118.935 69.5704 118.892 69.5704Z" fill="#E6E6E6"/>
<path d="M147.697 69.5704C147.653 69.5704 147.61 69.5619 147.571 69.5454C147.531 69.5289 147.494 69.5046 147.464 69.4741C147.433 69.4435 147.409 69.4073 147.392 69.3673C147.376 69.3274 147.367 69.2846 147.367 69.2414V19.5614C147.367 19.4742 147.402 19.3905 147.464 19.3288C147.525 19.2671 147.609 19.2324 147.697 19.2324C147.784 19.2324 147.868 19.2671 147.929 19.3288C147.991 19.3905 148.026 19.4742 148.026 19.5614V69.2414C148.026 69.2846 148.017 69.3274 148.001 69.3673C147.984 69.4073 147.96 69.4435 147.929 69.4741C147.899 69.5046 147.863 69.5289 147.823 69.5454C147.783 69.5619 147.74 69.5704 147.697 69.5704Z" fill="#E6E6E6"/>
<path d="M176.497 69.5704C176.454 69.5704 176.411 69.5619 176.371 69.5454C176.331 69.5289 176.295 69.5046 176.264 69.4741C176.234 69.4435 176.21 69.4073 176.193 69.3673C176.176 69.3274 176.168 69.2846 176.168 69.2414V19.5614C176.168 19.4742 176.203 19.3905 176.264 19.3288C176.326 19.2671 176.41 19.2324 176.497 19.2324C176.585 19.2324 176.668 19.2671 176.73 19.3288C176.792 19.3905 176.827 19.4742 176.827 19.5614V69.2414C176.827 69.2846 176.818 69.3274 176.802 69.3673C176.785 69.4073 176.761 69.4435 176.73 69.4741C176.7 69.5046 176.663 69.5289 176.623 69.5454C176.583 69.5619 176.541 69.5704 176.497 69.5704Z" fill="#E6E6E6"/>
<path d="M87.5273 26.9638C87.5273 26.9206 87.5359 26.8778 87.5524 26.8379C87.5689 26.7979 87.5932 26.7617 87.6238 26.7311C87.6544 26.7006 87.6907 26.6763 87.7307 26.6598C87.7706 26.6433 87.8135 26.6348 87.8567 26.6348H205.96C206.004 26.6348 206.046 26.6433 206.086 26.6598C206.126 26.6763 206.163 26.7006 206.193 26.7311C206.224 26.7617 206.248 26.798 206.265 26.8379C206.281 26.8778 206.29 26.9206 206.29 26.9638C206.29 27.007 206.281 27.0498 206.265 27.0897C206.248 27.1296 206.224 27.1659 206.193 27.1964C206.163 27.227 206.126 27.2512 206.086 27.2677C206.046 27.2843 206.004 27.2928 205.96 27.2928H87.8567C87.8135 27.2928 87.7706 27.2843 87.7307 27.2678C87.6907 27.2512 87.6544 27.227 87.6238 27.1964C87.5932 27.1659 87.5689 27.1296 87.5524 27.0897C87.5359 27.0498 87.5273 27.007 87.5273 26.9638Z" fill="#E6E6E6"/>
<path d="M87.5273 63.581C87.5273 63.5378 87.5359 63.495 87.5524 63.455C87.5689 63.4151 87.5932 63.3788 87.6238 63.3483C87.6544 63.3177 87.6907 63.2935 87.7307 63.277C87.7706 63.2604 87.8135 63.2519 87.8567 63.252H205.96C206.048 63.252 206.131 63.2866 206.193 63.3483C206.255 63.41 206.29 63.4937 206.29 63.581C206.29 63.6682 206.255 63.7519 206.193 63.8136C206.131 63.8753 206.048 63.91 205.96 63.91H87.8567C87.8135 63.91 87.7706 63.9015 87.7307 63.8849C87.6907 63.8684 87.6544 63.8442 87.6238 63.8136C87.5932 63.7831 87.5689 63.7468 87.5524 63.7069C87.5359 63.667 87.5273 63.6242 87.5273 63.581Z" fill="#E6E6E6"/>
<path d="M87.5273 45.2724C87.5273 45.2292 87.5359 45.1864 87.5524 45.1464C87.5689 45.1065 87.5932 45.0702 87.6238 45.0397C87.6544 45.0091 87.6907 44.9849 87.7307 44.9684C87.7706 44.9518 87.8135 44.9433 87.8567 44.9434H205.96C206.048 44.9434 206.131 44.978 206.193 45.0397C206.255 45.1014 206.29 45.1851 206.29 45.2724C206.29 45.3596 206.255 45.4433 206.193 45.505C206.131 45.5667 206.048 45.6014 205.96 45.6014H87.8567C87.8135 45.6014 87.7706 45.5929 87.7307 45.5763C87.6907 45.5598 87.6544 45.5356 87.6238 45.505C87.5932 45.4745 87.5689 45.4382 87.5524 45.3983C87.5359 45.3584 87.5273 45.3156 87.5273 45.2724Z" fill="#E6E6E6"/>
<path d="M204.38 69.5704C204.423 69.5704 204.466 69.5619 204.506 69.5454C204.546 69.5289 204.582 69.5046 204.613 69.4741C204.644 69.4435 204.668 69.4073 204.684 69.3673C204.701 69.3274 204.71 69.2846 204.71 69.2414V19.5614C204.71 19.4742 204.675 19.3905 204.613 19.3288C204.551 19.2671 204.468 19.2324 204.38 19.2324C204.293 19.2324 204.209 19.2671 204.147 19.3288C204.085 19.3905 204.051 19.4742 204.051 19.5614V69.2414C204.051 69.2846 204.059 69.3274 204.076 69.3673C204.092 69.4073 204.117 69.4435 204.147 69.4741C204.178 69.5046 204.214 69.5289 204.254 69.5454C204.294 69.5619 204.337 69.5704 204.38 69.5704Z" fill="#E6E6E6"/>
<path d="M108.055 43.045H99.7592C99.3029 43.0446 98.8621 42.8798 98.5176 42.5809C98.1732 42.282 97.9483 41.8689 97.8842 41.4176C97.3719 37.6524 97.3719 33.8352 97.8842 30.0699C97.9475 29.6241 98.1679 29.2154 98.5057 28.9172C98.8435 28.619 99.2766 28.4508 99.7274 28.4429C102.338 27.2742 105.148 27.2743 108.084 28.4428C108.357 28.4464 108.626 28.5097 108.872 28.6283C109.119 28.747 109.336 28.918 109.509 29.1294C109.689 29.3494 109.819 29.6067 109.887 29.8827C109.955 30.1587 109.961 30.4465 109.904 30.7251C109.238 34.0378 109.238 37.4498 109.904 40.7625C109.961 41.0411 109.955 41.3289 109.887 41.6049C109.819 41.8809 109.689 42.1382 109.509 42.3581C109.333 42.5733 109.111 42.7466 108.86 42.8654C108.608 42.9842 108.333 43.0455 108.055 43.045Z" fill="#30E3CA"/>
<path d="M107.188 32.7683H100.206C100.09 32.7683 99.9792 32.7224 99.8973 32.6406C99.8155 32.5589 99.7695 32.448 99.7695 32.3324C99.7695 32.2168 99.8155 32.1059 99.8973 32.0242C99.9792 31.9424 100.09 31.8965 100.206 31.8965H107.188C107.304 31.8965 107.415 31.9424 107.497 32.0242C107.579 32.1059 107.625 32.2168 107.625 32.3324C107.625 32.448 107.579 32.5589 107.497 32.6406C107.415 32.7224 107.304 32.7683 107.188 32.7683Z" fill="white"/>
<path d="M107.188 36.2547H100.206C100.09 36.2547 99.9792 36.2087 99.8973 36.127C99.8155 36.0452 99.7695 35.9343 99.7695 35.8187C99.7695 35.7031 99.8155 35.5922 99.8973 35.5105C99.9792 35.4287 100.09 35.3828 100.206 35.3828H107.188C107.304 35.3828 107.415 35.4287 107.497 35.5105C107.579 35.5922 107.625 35.7031 107.625 35.8187C107.625 35.9343 107.579 36.0452 107.497 36.127C107.415 36.2087 107.304 36.2547 107.188 36.2547Z" fill="white"/>
<path d="M107.188 39.7429H100.206C100.09 39.7429 99.9792 39.697 99.8973 39.6153C99.8155 39.5335 99.7695 39.4226 99.7695 39.307C99.7695 39.1914 99.8155 39.0805 99.8973 38.9988C99.9792 38.917 100.09 38.8711 100.206 38.8711H107.188C107.304 38.8711 107.415 38.917 107.497 38.9988C107.579 39.0805 107.625 39.1914 107.625 39.307C107.625 39.4226 107.579 39.5335 107.497 39.6153C107.415 39.697 107.304 39.7429 107.188 39.7429Z" fill="white"/>
<path d="M167.696 62.2246H159.4C158.944 62.2243 158.503 62.0595 158.158 61.7606C157.814 61.4616 157.589 61.0486 157.525 60.5973C157.013 56.8321 157.013 53.0149 157.525 49.2496C157.588 48.8038 157.808 48.395 158.146 48.0969C158.484 47.7987 158.917 47.6305 159.368 47.6226C161.978 46.4539 164.789 46.454 167.724 47.6224C167.998 47.6261 168.267 47.6894 168.513 47.808C168.759 47.9267 168.977 48.0977 169.15 48.3091C169.33 48.529 169.459 48.7864 169.528 49.0624C169.596 49.3384 169.602 49.6262 169.545 49.9048C168.879 53.2175 168.879 56.6295 169.545 59.9422C169.602 60.2208 169.596 60.5086 169.528 60.7846C169.459 61.0606 169.33 61.3179 169.15 61.5378C168.974 61.753 168.752 61.9263 168.5 62.0451C168.249 62.1639 167.974 62.2252 167.696 62.2246Z" fill="#30E3CA"/>
<path d="M166.829 51.948H159.847C159.731 51.948 159.62 51.9021 159.538 51.8203C159.456 51.7386 159.41 51.6277 159.41 51.5121C159.41 51.3965 159.456 51.2856 159.538 51.2039C159.62 51.1221 159.731 51.0762 159.847 51.0762H166.829C166.945 51.0762 167.056 51.1221 167.138 51.2039C167.219 51.2856 167.265 51.3965 167.265 51.5121C167.265 51.6277 167.219 51.7386 167.138 51.8203C167.056 51.9021 166.945 51.948 166.829 51.948Z" fill="white"/>
<path d="M166.829 55.4363H159.847C159.731 55.4363 159.62 55.3904 159.538 55.3086C159.456 55.2269 159.41 55.116 159.41 55.0004C159.41 54.8848 159.456 54.7739 159.538 54.6921C159.62 54.6104 159.731 54.5645 159.847 54.5645H166.829C166.945 54.5645 167.056 54.6104 167.138 54.6921C167.219 54.7739 167.265 54.8848 167.265 55.0004C167.265 55.116 167.219 55.2269 167.138 55.3086C167.056 55.3904 166.945 55.4363 166.829 55.4363Z" fill="white"/>
<path d="M193.008 43.045H184.712C184.256 43.0446 183.815 42.8798 183.471 42.5809C183.126 42.282 182.901 41.8689 182.837 41.4176C182.325 37.6524 182.325 33.8352 182.837 30.0699C182.901 29.6241 183.121 29.2154 183.459 28.9172C183.797 28.619 184.23 28.4508 184.681 28.4429C187.291 27.2742 190.102 27.2743 193.037 28.4428C193.31 28.4464 193.579 28.5097 193.826 28.6283C194.072 28.747 194.289 28.918 194.462 29.1294C194.643 29.3494 194.772 29.6067 194.84 29.8827C194.908 30.1587 194.914 30.4465 194.858 30.7251C194.191 34.0378 194.191 37.4498 194.858 40.7625C194.914 41.0411 194.908 41.3289 194.84 41.6049C194.772 41.8809 194.643 42.1382 194.462 42.3581C194.286 42.5733 194.064 42.7466 193.813 42.8654C193.561 42.9842 193.286 43.0455 193.008 43.045Z" fill="#FD6584"/>
<path d="M192.138 36.2547H185.155C185.039 36.2547 184.928 36.2087 184.847 36.127C184.765 36.0452 184.719 35.9343 184.719 35.8187C184.719 35.7031 184.765 35.5922 184.847 35.5105C184.928 35.4287 185.039 35.3828 185.155 35.3828H192.138C192.253 35.3828 192.364 35.4287 192.446 35.5105C192.528 35.5922 192.574 35.7031 192.574 35.8187C192.574 35.9343 192.528 36.0452 192.446 36.127C192.364 36.2087 192.253 36.2547 192.138 36.2547Z" fill="white"/>
<path d="M192.138 39.7429H185.155C185.039 39.7429 184.928 39.697 184.847 39.6153C184.765 39.5335 184.719 39.4226 184.719 39.307C184.719 39.1914 184.765 39.0805 184.847 38.9988C184.928 38.917 185.039 38.8711 185.155 38.8711H192.138C192.253 38.8711 192.364 38.917 192.446 38.9988C192.528 39.0805 192.574 39.1914 192.574 39.307C192.574 39.4226 192.528 39.5335 192.446 39.6153C192.364 39.697 192.253 39.7429 192.138 39.7429Z" fill="white"/>
<path d="M52.9773 41.7619C51.3267 39.2353 48.6318 37.2498 45.6305 37.0821C42.6291 36.9143 39.0222 39.4674 37.5409 42.0944C34.8313 46.8999 34.7957 52.4103 38.5277 55.7525C39.0345 55.5808 41.1426 55.3346 41.6578 55.1689L41.9845 54.5795L42.3876 54.9378C46.9997 55.3975 48.4194 52.2652 55.799 50.2902C55.3675 47.3029 54.6279 44.2885 52.9773 41.7619Z" fill="#545461"/>
<path d="M46.6419 53.6612C50.0103 53.6612 52.7409 50.9335 52.7409 47.5689C52.7409 44.2042 50.0103 41.4766 46.6419 41.4766C43.2736 41.4766 40.543 44.2042 40.543 47.5689C40.543 50.9335 43.2736 53.6612 46.6419 53.6612Z" fill="#FFB7B7"/>
<path d="M53.4015 58.8886L49.9114 56.7969L42.9312 56.0996L36.7617 59.2378L36.8236 68.8245L40.7374 78.7676L55.9852 81.9069L57.7641 73.1686C57.7641 73.1686 62.3013 67.0814 57.4151 63.5951L53.4015 58.8886Z" fill="#30E3CA"/>
<path d="M48.9238 38.3173C47.6022 37.9472 46.2054 37.9386 44.8794 38.2923C43.5534 38.646 42.3469 39.3491 41.386 40.328C40.4251 41.3069 39.7451 42.5257 39.4172 43.857C39.0893 45.1883 39.1254 46.5831 39.5219 47.8956C43.2364 48.1918 46.9081 47.8454 49.8024 45.2201L50.06 42.9683L51.1161 44.8527C52.1812 44.5534 53.2481 44.2522 54.3165 43.9492C53.9897 42.6211 53.3196 41.402 52.3733 40.4136C51.4269 39.4253 50.2375 38.7025 48.9238 38.3173Z" fill="#545461"/>
<path d="M38.4586 100.282C38.127 100.078 37.8441 99.8036 37.63 99.4786C37.416 99.1536 37.2758 98.7856 37.2195 98.4006C37.1632 98.0157 37.192 97.623 37.3041 97.2504C37.4161 96.8778 37.6085 96.5342 37.8678 96.2439L35.6172 72.1094L41.3938 72.555L41.7897 96.1384C42.249 96.6059 42.5207 97.2254 42.5533 97.8796C42.5859 98.5339 42.3771 99.1773 41.9665 99.688C41.5559 100.199 40.972 100.541 40.3255 100.651C39.679 100.76 39.0147 100.629 38.4586 100.282H38.4586Z" fill="#FFB6B6"/>
<path d="M36.975 59.335C36.975 59.335 35.5824 59.1314 35.7437 62.1057C35.8729 64.4869 35.2591 79.1638 36.3079 82.3045C35.9123 82.5479 35.6091 82.9158 35.4459 83.3502C35.2827 83.7847 35.2689 84.2611 35.4065 84.7043L42.1441 83.2698C42.929 81.9222 42.7664 80.5385 42.1959 80.3142L42.2294 76.0073L43.7185 61.8106L37.9843 59.4643L36.975 59.335Z" fill="#30E3CA"/>
<path d="M71.4107 102.514C71.2302 102.294 71.1011 102.037 71.0327 101.761C70.9643 101.485 70.9583 101.197 71.0152 100.919C71.6816 97.606 71.6816 94.194 71.0152 90.8813C70.9583 90.6027 70.9643 90.315 71.0327 90.0389C71.1011 89.7629 71.2302 89.5056 71.4107 89.2857C71.5837 89.0742 71.801 88.9032 72.0472 88.7846C72.2934 88.666 72.5627 88.6026 72.8361 88.599C75.7712 87.4306 78.5821 87.4304 81.1923 88.5991C81.643 88.6071 82.0762 88.7752 82.414 89.0734C82.7518 89.3716 82.9721 89.7803 83.0354 90.2262C83.5477 93.9914 83.5477 97.8086 83.0354 101.574C82.9714 102.025 82.7465 102.438 82.402 102.737C82.0576 103.036 81.6167 103.201 81.1604 103.201H72.8646C72.5864 103.202 72.3116 103.14 72.0601 103.022C71.8086 102.903 71.5867 102.73 71.4107 102.514Z" fill="#30E3CA"/>
<path d="M73.7333 92.9246H80.7157C80.8314 92.9246 80.9424 92.8787 81.0242 92.7969C81.1061 92.7151 81.1521 92.6043 81.1521 92.4887C81.1521 92.373 81.1061 92.2622 81.0242 92.1804C80.9424 92.0987 80.8314 92.0527 80.7157 92.0527H73.7333C73.6175 92.0527 73.5065 92.0987 73.4247 92.1804C73.3429 92.2622 73.2969 92.373 73.2969 92.4887C73.2969 92.6043 73.3429 92.7151 73.4247 92.7969C73.5065 92.8787 73.6175 92.9246 73.7333 92.9246Z" fill="white"/>
<path d="M73.7333 96.4128H80.7157C80.8314 96.4128 80.9424 96.3669 81.0242 96.2852C81.1061 96.2034 81.1521 96.0925 81.1521 95.9769C81.1521 95.8613 81.1061 95.7504 81.0242 95.6687C80.9424 95.5869 80.8314 95.541 80.7157 95.541H73.7333C73.6175 95.541 73.5065 95.5869 73.4247 95.6687C73.3429 95.7504 73.2969 95.8613 73.2969 95.9769C73.2969 96.0925 73.3429 96.2034 73.4247 96.2852C73.5065 96.3669 73.6175 96.4128 73.7333 96.4128Z" fill="white"/>
<path d="M73.7333 99.8992H80.7157C80.8314 99.8992 80.9424 99.8533 81.0242 99.7715C81.1061 99.6898 81.1521 99.5789 81.1521 99.4633C81.1521 99.3477 81.1061 99.2368 81.0242 99.155C80.9424 99.0733 80.8314 99.0273 80.7157 99.0273H73.7333C73.6175 99.0273 73.5065 99.0733 73.4247 99.155C73.3429 99.2368 73.2969 99.3477 73.2969 99.4633C73.2969 99.5789 73.3429 99.6898 73.4247 99.7715C73.5065 99.8533 73.6175 99.8992 73.7333 99.8992Z" fill="white"/>
<path d="M265.648 169.293H262.069L260.367 155.506L265.648 155.506L265.648 169.293Z" fill="#A0616A"/>
<path d="M266.561 172.758L255.023 172.758V172.612C255.024 171.423 255.497 170.282 256.339 169.44C257.181 168.599 258.323 168.126 259.514 168.126H259.515L261.622 166.529L265.554 168.127L266.561 168.127L266.561 172.758Z" fill="#545461"/>
<path d="M249.023 169.293H245.444L243.742 155.506L249.023 155.506L249.023 169.293Z" fill="#A0616A"/>
<path d="M249.936 172.758L238.398 172.758V172.612C238.399 171.423 238.872 170.282 239.714 169.44C240.556 168.599 241.698 168.126 242.889 168.126H242.89L244.997 166.529L248.929 168.127L249.936 168.127L249.936 172.758Z" fill="#545461"/>
<path d="M268.495 81.0254L263.764 95.5552L248.852 95.067L253.434 81.0254H268.495Z" fill="#545461"/>
<path d="M246.162 93.8457L274.276 94.5783L273.788 108.254C273.788 108.254 274.276 111.917 273.299 112.893C272.321 113.87 271.832 113.87 272.321 115.58C272.81 117.289 270.226 120.081 270.54 120.395C270.854 120.708 271.587 122.417 271.587 122.417L269.143 136.337C269.143 136.337 267.431 160.513 266.942 161.001C266.453 161.49 265.964 161.001 266.453 162.222C266.942 163.443 267.431 162.955 266.942 163.443C266.509 163.91 266.101 164.399 265.72 164.909H259.809C259.809 164.909 259.364 162.466 259.364 162.222C259.364 161.978 258.875 160.513 258.875 160.269C258.875 160.024 259.307 159.593 259.307 159.593C259.456 159.096 259.557 158.587 259.608 158.071C259.608 157.582 261.075 138.779 261.075 138.779L258.141 114.359L251.052 138.29C251.052 138.29 251.052 159.292 250.563 159.78C250.074 160.269 250.074 160.024 250.318 161.001C250.563 161.978 251.541 161.734 250.807 162.466C250.074 163.199 249.829 161.978 250.074 163.199L250.318 164.42L242.984 164.525C242.984 164.525 242.006 162.466 242.495 161.734C242.984 161.001 242.955 161.201 242.358 160.002C241.762 158.803 241.517 158.559 241.762 158.315C242.006 158.071 242.006 156.772 242.006 156.772L243.229 133.406C243.229 133.406 243.473 108.742 243.473 108.009C243.492 107.632 243.422 107.256 243.27 106.911V105.916L244.207 102.393L246.162 93.8457Z" fill="#545461"/>
<path d="M248.729 58.3133L257.286 55.1387L271.465 56.1155L274.748 57.6459C275.903 58.1842 276.843 59.0947 277.417 60.2311C277.992 61.3675 278.167 62.6637 277.914 63.9114L273.665 84.9313L274.764 95.0448C274.764 95.0448 256.919 108.497 242.984 104.345C242.984 104.345 243.229 100.438 243.473 98.9729C243.718 97.5077 244.207 97.5077 244.451 96.7751C244.696 96.0425 245.185 96.7751 244.696 95.3099C244.207 93.8447 248.607 83.5882 248.607 83.5882L248.729 58.3133Z" fill="#E6E6E6"/>
<path d="M262.255 60.1711L269.23 55.9612L266.943 51.8418H259.533L256.598 55.394L262.255 60.1711Z" fill="#E6E6E6"/>
<path d="M264.655 94.7851C265.054 94.8081 265.452 94.7435 265.823 94.5959C266.194 94.4484 266.528 94.2214 266.801 93.931C267.074 93.6406 267.281 93.2938 267.406 92.9151C267.53 92.5364 267.57 92.135 267.523 91.7392L276.246 87.4986L271.909 84.9316L264.29 89.3521C263.63 89.4757 263.038 89.8369 262.626 90.3674C262.214 90.8979 262.012 91.5609 262.057 92.2305C262.102 92.9002 262.391 93.5302 262.87 94.001C263.349 94.4718 263.984 94.7508 264.655 94.7851Z" fill="#A0616A"/>
<path d="M268.082 93.0245L266.562 87.4579L274.845 76.4976C272.164 73.2691 271.223 68.5018 271.885 61.5115C271.738 60.7576 271.883 59.9762 272.291 59.3251C272.699 58.674 273.339 58.2016 274.081 58.0033C274.824 57.805 275.614 57.8954 276.293 58.2564C276.972 58.6175 277.488 59.2222 277.737 59.9485C279.612 65.4085 282.872 77.1587 282.447 77.7951C281.958 78.5279 281.79 78.8533 282.56 79.5532C283.472 80.3833 282.988 83.9205 282.572 84.428C282.192 84.8904 268.082 93.0245 268.082 93.0245Z" fill="#E6E6E6"/>
<path d="M224.235 86.1397C224.607 86.2837 225.006 86.3444 225.405 86.3175C225.803 86.2907 226.19 86.1769 226.54 85.9843C226.889 85.7917 227.192 85.5249 227.427 85.2027C227.662 84.8805 227.824 84.5108 227.9 84.1195L237.505 82.7567L234.165 78.9844L225.556 80.8569C224.89 80.772 224.215 80.9344 223.661 81.3132C223.106 81.692 222.71 82.2608 222.547 82.912C222.384 83.5632 222.466 84.2514 222.777 84.8463C223.088 85.4412 223.607 85.9014 224.235 86.1397Z" fill="#A0616A"/>
<path d="M228.355 85.337L229.814 79.7539L241.888 72.9585C242.761 67.4368 243.308 65.6365 247.368 59.9045C247.617 59.1779 248.133 58.5727 248.811 58.211C249.489 57.8493 250.279 57.758 251.022 57.9557C251.765 58.1533 252.405 58.625 252.814 59.2757C253.222 59.9264 253.368 60.7076 253.222 61.4617C252.124 67.1285 247.157 82.3158 246.543 82.5487C245.984 82.761 228.355 85.337 228.355 85.337Z" fill="#E6E6E6"/>
<path d="M263.153 49.2792C267.338 49.2792 270.731 45.8899 270.731 41.7089C270.731 37.528 267.338 34.1387 263.153 34.1387C258.967 34.1387 255.574 37.528 255.574 41.7089C255.574 45.8899 258.967 49.2792 263.153 49.2792Z" fill="#A0616A"/>
<path d="M255.128 36.2159C255.329 34.4054 257.947 32.5949 262.579 31.3879C267.211 30.1809 269.628 35.4113 269.628 35.4113C272.85 37.0206 270.937 45.5704 269.93 44.7657C269.92 44.7576 269.91 44.7498 269.9 44.7422C269.243 44.2591 268.692 43.6473 268.28 42.9443C267.868 42.2413 267.604 41.4617 267.503 40.6532L267.272 38.5697C266.211 39.3817 265.015 40.0692 263.732 39.8648L265.303 38.32C263.814 38.967 262.325 39.614 260.837 40.261L262.315 38.229L262.245 38.1604C261.553 38.7433 260.759 39.1927 259.902 39.4855C258.926 39.7652 257.755 39.6139 257.086 38.8501C256.906 38.6393 256.77 38.3946 256.686 38.1304C255.47 38.9619 255.229 40.7423 255.229 40.7423C255.229 40.7423 254.926 38.0265 255.128 36.2159Z" fill="#545461"/>
<path d="M224.719 91.0567H216.423C215.967 91.0563 215.526 90.8915 215.182 90.5926C214.837 90.2937 214.612 89.8806 214.548 89.4293C214.036 85.6641 214.036 81.8469 214.548 78.0817C214.612 77.6358 214.832 77.2271 215.17 76.9289C215.508 76.6307 215.941 76.4625 216.391 76.4546C219.002 75.2859 221.812 75.2861 224.748 76.4545C225.021 76.4581 225.29 76.5214 225.536 76.6401C225.783 76.7587 226 76.9297 226.173 77.1411C226.353 77.3611 226.483 77.6184 226.551 77.8944C226.619 78.1704 226.625 78.4582 226.569 78.7368C225.902 82.0495 225.902 85.4615 226.569 88.7742C226.625 89.0528 226.619 89.3406 226.551 89.6166C226.483 89.8926 226.353 90.1499 226.173 90.3699C225.997 90.585 225.775 90.7583 225.524 90.8771C225.272 90.9959 224.997 91.0572 224.719 91.0567Z" fill="#3F3D56"/>
<path d="M223.852 80.78H216.87C216.754 80.78 216.643 80.7341 216.561 80.6524C216.48 80.5706 216.434 80.4597 216.434 80.3441C216.434 80.2285 216.48 80.1176 216.561 80.0359C216.643 79.9541 216.754 79.9082 216.87 79.9082H223.852C223.968 79.9082 224.079 79.9541 224.161 80.0359C224.243 80.1176 224.289 80.2285 224.289 80.3441C224.289 80.4597 224.243 80.5706 224.161 80.6524C224.079 80.7341 223.968 80.78 223.852 80.78Z" fill="white"/>
<path d="M223.852 84.2683H216.87C216.754 84.2683 216.643 84.2224 216.561 84.1406C216.48 84.0589 216.434 83.948 216.434 83.8324C216.434 83.7168 216.48 83.6059 216.561 83.5242C216.643 83.4424 216.754 83.3965 216.87 83.3965H223.852C223.968 83.3965 224.079 83.4424 224.161 83.5242C224.243 83.6059 224.289 83.7168 224.289 83.8324C224.289 83.948 224.243 84.0589 224.161 84.1406C224.079 84.2224 223.968 84.2683 223.852 84.2683Z" fill="white"/>
<path d="M223.852 87.7547H216.87C216.754 87.7547 216.643 87.7087 216.561 87.627C216.48 87.5452 216.434 87.4343 216.434 87.3187C216.434 87.2031 216.48 87.0922 216.561 87.0105C216.643 86.9287 216.754 86.8828 216.87 86.8828H223.852C223.968 86.8828 224.079 86.9287 224.161 87.0105C224.243 87.0922 224.289 87.2031 224.289 87.3187C224.289 87.4343 224.243 87.5452 224.161 87.627C224.079 87.7087 223.968 87.7547 223.852 87.7547Z" fill="white"/>
<path d="M189.231 21.1683C192.284 21.1683 194.759 18.6962 194.759 15.6467C194.759 12.5971 192.284 10.125 189.231 10.125C186.178 10.125 183.703 12.5971 183.703 15.6467C183.703 18.6962 186.178 21.1683 189.231 21.1683Z" fill="#E6E6E6"/>
<path d="M192.067 13.3461C191.984 13.2669 191.873 13.2227 191.758 13.2227C191.643 13.2227 191.533 13.2669 191.45 13.3461C190.277 14.2805 189.223 15.3554 188.313 16.5466C188.089 16.1146 187.866 15.6826 187.643 15.2507C187.385 14.7521 186.631 15.1925 186.889 15.6907C187.216 16.3225 187.543 16.9544 187.87 17.5862C187.909 17.6507 187.964 17.704 188.03 17.741C188.096 17.778 188.171 17.7974 188.246 17.7974C188.322 17.7974 188.396 17.778 188.462 17.741C188.528 17.704 188.584 17.6507 188.623 17.5862C189.593 16.2214 190.753 15.0013 192.067 13.9626C192.148 13.8805 192.194 13.7698 192.194 13.6544C192.194 13.5389 192.148 13.4282 192.067 13.3461Z" fill="white"/>
<path d="M162.172 21.1683C165.225 21.1683 167.7 18.6962 167.7 15.6467C167.7 12.5971 165.225 10.125 162.172 10.125C159.119 10.125 156.645 12.5971 156.645 15.6467C156.645 18.6962 159.119 21.1683 162.172 21.1683Z" fill="#E6E6E6"/>
<path d="M165.012 13.3461C164.929 13.2669 164.819 13.2227 164.704 13.2227C164.589 13.2227 164.478 13.2669 164.395 13.3461C163.222 14.2805 162.169 15.3554 161.258 16.5466C161.035 16.1146 160.811 15.6826 160.588 15.2507C160.33 14.7521 159.576 15.1925 159.834 15.6907C160.161 16.3225 160.488 16.9544 160.815 17.5862C160.854 17.6507 160.91 17.704 160.976 17.741C161.042 17.778 161.116 17.7974 161.192 17.7974C161.267 17.7974 161.342 17.778 161.408 17.741C161.474 17.704 161.529 17.6507 161.569 17.5862C162.539 16.2214 163.698 15.0013 165.012 13.9626C165.093 13.8805 165.139 13.7698 165.139 13.6544C165.139 13.5389 165.093 13.4282 165.012 13.3461Z" fill="white"/>
<path d="M105.153 20.5882C108.206 20.5882 110.68 18.1161 110.68 15.0666C110.68 12.0171 108.206 9.54492 105.153 9.54492C102.1 9.54492 99.625 12.0171 99.625 15.0666C99.625 18.1161 102.1 20.5882 105.153 20.5882Z" fill="#E6E6E6"/>
<path d="M107.989 12.7641C107.906 12.6848 107.795 12.6406 107.68 12.6406C107.565 12.6406 107.455 12.6848 107.372 12.7641C106.199 13.6985 105.145 14.7734 104.235 15.9645C104.011 15.5326 103.788 15.1006 103.564 14.6686C103.306 14.17 102.553 14.6105 102.811 15.1087C103.138 15.7405 103.465 16.3723 103.791 17.0042C103.831 17.0687 103.886 17.122 103.952 17.1589C104.018 17.1959 104.093 17.2153 104.168 17.2153C104.244 17.2153 104.318 17.1959 104.384 17.1589C104.45 17.122 104.506 17.0687 104.545 17.0042C105.515 15.6393 106.675 14.4192 107.989 13.3806C108.07 13.2985 108.116 13.1877 108.116 13.0723C108.116 12.9569 108.07 12.8462 107.989 12.7641Z" fill="white"/>
<path d="M39.1102 43.2552C41.1991 43.2552 42.8924 41.5637 42.8924 39.4772C42.8924 37.3907 41.1991 35.6992 39.1102 35.6992C37.0214 35.6992 35.3281 37.3907 35.3281 39.4772C35.3281 41.5637 37.0214 43.2552 39.1102 43.2552Z" fill="#545461"/>
<path d="M82.2378 172.654C82.238 172.7 82.2291 172.745 82.2117 172.787C82.1944 172.829 82.1689 172.867 82.1367 172.899C82.1045 172.931 82.0663 172.957 82.0242 172.974C81.9822 172.992 81.9371 173 81.8916 173H0.34621C0.25439 173 0.166329 172.964 0.101402 172.899C0.036475 172.834 0 172.746 0 172.654C0 172.563 0.036475 172.475 0.101402 172.41C0.166329 172.345 0.25439 172.309 0.34621 172.309H81.8916C81.9371 172.308 81.9822 172.317 82.0243 172.335C82.0663 172.352 82.1045 172.377 82.1367 172.41C82.1689 172.442 82.1944 172.48 82.2117 172.522C82.2291 172.564 82.238 172.609 82.2378 172.654Z" fill="#CCCCCC"/>
<path d="M292 172.654C292 172.7 291.991 172.745 291.973 172.787C291.956 172.829 291.931 172.867 291.898 172.899C291.866 172.931 291.828 172.957 291.786 172.974C291.744 172.992 291.699 173 291.653 173H210.108C210.016 173 209.928 172.964 209.863 172.899C209.798 172.834 209.762 172.746 209.762 172.654C209.762 172.563 209.798 172.475 209.863 172.41C209.928 172.345 210.016 172.309 210.108 172.309H291.653C291.699 172.308 291.744 172.317 291.786 172.335C291.828 172.352 291.866 172.377 291.898 172.41C291.931 172.442 291.956 172.48 291.973 172.522C291.991 172.564 292 172.609 292 172.654Z" fill="#CCCCCC"/>
<path d="M37.9716 35.6876C37.3169 35.5057 36.636 35.8103 36.025 36.1074L33.8516 37.1639C35.3562 37.2958 36.8609 37.4277 38.3656 37.5596L38.5319 37.247C39.0527 36.811 38.6263 35.8695 37.9716 35.6876Z" fill="#545461"/>
</g>
<defs>
<clipPath id="clip0_1009_242">
<rect width="292" height="173" fill="white"/>
</clipPath>
</defs>
</svg>
