<svg width="315" height="213" viewBox="0 0 315 213" fill="none" xmlns="http://www.w3.org/2000/svg">
<g clip-path="url(#clip0_1010_46)">
<path d="M21.1987 160.507C19.703 160.507 18.2041 160.568 16.7404 160.693L16.5273 160.711C6.81832 161.569 -0.283383 166.547 0.00869046 172.292L0.0651549 173.331C0.10239 173.987 0.142063 174.693 0.174719 175.476C0.192405 175.863 0.719507 176.159 1.37538 176.159H240.194C257.032 176.057 273.809 175.928 290.056 175.777C293.103 175.783 296.148 175.625 299.178 175.304C303.693 174.77 306.827 173.711 308.76 172.066H308.76C311.163 170.027 311.239 167.459 311.094 164.558C310.798 158.699 310.504 152.545 310.211 146.409C309.952 141.001 309.695 135.608 309.437 130.445C309.278 127.381 308.924 124.676 306.195 122.609C303.237 120.373 297.842 119.24 290.16 119.24C290.067 119.24 289.975 119.24 289.881 119.241C265.807 119.326 241.953 127.603 230.525 139.837C229.209 141.245 227.982 142.753 226.796 144.212C225.044 146.367 223.232 148.595 221.07 150.587C219.899 151.681 218.634 152.667 217.287 153.535C217.195 153.6 217.088 153.668 216.976 153.734C216.719 153.901 216.451 154.062 216.189 154.206C214.655 155.092 213.04 155.826 211.365 156.399L211.196 156.456C211.068 156.501 210.93 156.547 210.792 156.588C209.825 156.899 208.82 157.167 207.813 157.385C203.457 158.345 198.503 158.575 193.09 158.068C188.119 157.59 183.213 156.59 178.451 155.085C173.439 153.501 168.747 151.527 164.21 149.617C162.217 148.778 160.156 147.91 158.097 147.088C157.71 146.934 157.33 146.783 156.944 146.631C154.429 145.652 152.15 144.842 149.975 144.158C144.587 142.454 139.009 141.421 133.368 141.082C127.381 140.754 122.105 141.373 117.69 142.915C116.472 143.339 115.287 143.85 114.143 144.443C108.914 147.158 105.69 151.166 102.573 155.041C98.6948 159.862 94.6848 164.847 86.7667 167.431C77.6299 170.415 64.2933 169.175 54.8577 167.019C51.8912 166.341 48.9283 165.561 46.0628 164.806C44.9054 164.502 43.7473 164.199 42.5884 163.898C40.311 163.31 38.4471 162.86 36.7227 162.48L36.1773 162.358C35.874 162.292 35.5703 162.226 35.2611 162.164C33.2129 161.734 31.3057 161.395 29.4275 161.129L28.9832 161.064C28.0923 160.947 27.2594 160.849 26.4421 160.767L26.1158 160.735C24.515 160.583 22.8584 160.507 21.1987 160.507Z" fill="#F2F2F2"/>
<path d="M268.15 166.918C274.87 160.863 284.865 157.819 293.249 161.214C284.649 165.988 278.014 173.65 274.52 182.845C273.185 186.395 272.071 190.484 268.788 192.385C266.745 193.568 264.203 193.625 261.913 193.054C259.623 192.483 257.523 191.339 255.452 190.205L254.863 190.192C257.508 181.543 261.43 172.973 268.15 166.918Z" fill="#E6E6E6"/>
<path d="M293.202 161.399C285.776 162.358 278.842 165.633 273.383 170.757C272.189 171.839 271.172 173.103 270.371 174.502C269.635 175.89 269.284 177.45 269.354 179.019C269.39 180.484 269.597 181.978 269.277 183.426C269.102 184.165 268.773 184.858 268.311 185.461C267.849 186.063 267.265 186.561 266.597 186.922C264.956 187.865 263.074 188.163 261.224 188.39C259.169 188.641 257.031 188.87 255.253 190.023C255.037 190.162 254.833 189.82 255.048 189.68C258.143 187.676 262.058 188.405 265.385 187.067C266.938 186.443 268.311 185.347 268.797 183.69C269.223 182.241 269.011 180.7 268.961 179.218C268.87 177.688 269.155 176.159 269.791 174.764C270.518 173.329 271.484 172.028 272.648 170.917C275.228 168.374 278.192 166.253 281.431 164.63C285.118 162.758 289.097 161.53 293.198 161C293.452 160.967 293.454 161.366 293.202 161.399H293.202Z" fill="white"/>
<path d="M275.046 169.004C274.311 167.972 273.966 166.712 274.074 165.449C274.182 164.186 274.735 163.002 275.635 162.109C275.818 161.929 276.107 162.205 275.924 162.385C275.084 163.215 274.569 164.317 274.47 165.494C274.372 166.67 274.698 167.842 275.389 168.8C275.538 169.008 275.195 169.211 275.046 169.004V169.004Z" fill="white"/>
<path d="M269.241 178.278C271.793 178.73 274.421 178.204 276.602 176.804C276.818 176.665 277.022 177.008 276.807 177.146C274.534 178.598 271.798 179.14 269.144 178.664C268.891 178.619 268.989 178.232 269.241 178.278Z" fill="white"/>
<path d="M285.153 163.284C285.355 163.743 285.667 164.145 286.062 164.453C286.457 164.761 286.922 164.967 287.416 165.051C287.669 165.093 287.57 165.479 287.318 165.437C286.773 165.342 286.26 165.114 285.822 164.775C285.385 164.435 285.038 163.993 284.811 163.489C284.786 163.443 284.779 163.389 284.791 163.338C284.804 163.288 284.836 163.244 284.88 163.215C284.925 163.188 284.98 163.181 285.031 163.194C285.082 163.207 285.126 163.239 285.153 163.284Z" fill="white"/>
<path d="M302.484 190.414C302.325 190.392 302.166 190.37 302.004 190.35C299.865 190.066 297.707 189.957 295.55 190.022C295.383 190.025 295.214 190.03 295.048 190.037C289.853 190.251 284.743 191.427 279.978 193.505C278.082 194.334 276.253 195.306 274.505 196.413C272.091 197.941 269.595 199.79 266.897 200.413C266.616 200.481 266.331 200.532 266.044 200.565L254.895 190.913C254.881 190.878 254.864 190.846 254.849 190.811L254.387 190.446C254.473 190.382 254.564 190.319 254.65 190.255C254.7 190.218 254.752 190.183 254.802 190.147C254.836 190.123 254.87 190.099 254.899 190.075C254.91 190.067 254.922 190.059 254.931 190.054C254.96 190.03 254.99 190.011 255.017 189.99C255.523 189.632 256.033 189.276 256.546 188.924C256.548 188.921 256.548 188.921 256.553 188.921C260.436 186.198 264.628 183.944 269.042 182.208C269.174 182.158 269.309 182.106 269.446 182.06C271.434 181.321 273.479 180.746 275.561 180.34C276.701 180.121 277.852 179.961 279.009 179.858C281.998 179.6 285.009 179.813 287.933 180.49C293.759 181.841 299.089 185.041 302.246 190.03C302.327 190.158 302.405 190.283 302.484 190.414Z" fill="#E6E6E6"/>
<path d="M302.337 190.533C295.83 186.829 288.321 185.269 280.878 186.075C279.272 186.22 277.699 186.617 276.217 187.252C274.794 187.917 273.574 188.951 272.686 190.246C271.833 191.438 271.098 192.755 269.97 193.718C269.386 194.203 268.705 194.558 267.974 194.761C267.242 194.964 266.476 195.011 265.725 194.897C263.847 194.662 262.166 193.766 260.552 192.834C258.759 191.798 256.915 190.694 254.801 190.543C254.545 190.525 254.588 190.128 254.844 190.147C258.521 190.409 261.208 193.348 264.67 194.283C266.286 194.719 268.043 194.671 269.428 193.641C270.64 192.74 271.399 191.382 272.252 190.168C273.101 188.892 274.249 187.842 275.596 187.112C277.041 186.404 278.596 185.947 280.194 185.76C283.785 185.283 287.429 185.373 290.993 186.028C295.063 186.752 298.98 188.168 302.574 190.213C302.796 190.34 302.557 190.659 302.337 190.533V190.533Z" fill="white"/>
<path d="M283.258 185.674C283.292 184.407 283.776 183.193 284.623 182.25C285.469 181.306 286.624 180.694 287.88 180.524C288.134 180.49 288.199 180.883 287.944 180.917C286.774 181.074 285.698 181.644 284.912 182.524C284.125 183.404 283.679 184.537 283.654 185.717C283.648 185.973 283.252 185.929 283.258 185.674V185.674Z" fill="white"/>
<path d="M273.038 189.584C2
74.803 191.481 277.219 192.643 279.803 192.839C280.059 192.858 280.016 193.254 279.76 193.235C277.071 193.027 274.56 191.812 272.727 189.834C272.553 189.645 272.864 189.397 273.038 189.584H273.038Z" fill="white"/>
<path d="M294.77 187.193C294.654 187.68 294.662 188.189 294.791 188.673C294.921 189.157 295.169 189.601 295.513 189.965C295.69 190.152 295.378 190.4 295.202 190.215C294.824 189.811 294.551 189.32 294.407 188.786C294.262 188.251 294.251 187.69 294.373 187.15C294.381 187.098 294.407 187.051 294.448 187.018C294.489 186.985 294.541 186.969 294.593 186.973C294.645 186.979 294.693 187.006 294.727 187.047C294.76 187.088 294.775 187.14 294.77 187.193Z" fill="white"/>
<path d="M92.2386 172.94C97.7411 164.595 107.584 158.559 117.496 159.858C109.626 167.356 104.662 177.397 103.483 188.202C103.044 192.371 102.989 197.054 100.006 200C98.1509 201.834 95.4488 202.602 92.8403 202.629C90.2317 202.655 87.6677 202.015 85.1377 201.379L84.5039 201.528C84.9262 191.542 86.7361 181.285 92.2386 172.94Z" fill="#E6E6E6"/>
<path d="M117.497 160.067C109.822 163.159 103.316 168.59 98.9043 175.589C97.9278 177.079 97.1922 178.713 96.7246 180.432C96.3233 182.122 96.3817 183.887 96.8937 185.546C97.3401 187.103 97.9769 188.643 98.037 190.281C98.0554 191.12 97.8962 191.953 97.5699 192.726C97.2436 193.499 96.7576 194.194 96.1437 194.766C94.6512 196.231 92.7212 197.073 90.8052 197.83C88.6779 198.671 86.455 199.51 84.8735 201.237C84.6819 201.447 84.3683 201.137 84.5596 200.928C87.3112 197.923 91.7017 197.614 94.8879 195.258C96.3746 194.158 97.5389 192.604 97.5979 190.697C97.6496 189.029 96.9942 187.44 96.5287 185.868C96.0055 184.257 95.8847 182.542 96.177 180.874C96.5555 179.137 97.2269 177.477 98.1625 175.965C100.214 172.527 102.794 169.434 105.807 166.797C109.229 163.77 113.144 161.35 117.382 159.642C117.644 159.536 117.758 159.962 117.497 160.067L117.497 160.067Z" fill="white"/>
<path d="M100.192 173.253C99.1177 172.353 98.3985 171.101 98.1625 169.72C97.9265 168.339 98.1892 166.92 98.9034 165.715C99.0488 165.471 99.4338 165.686 99.2883 165.929C98.6211 167.05 98.3766 168.373 98.5989 169.658C98.8213 170.943 99.4958 172.107 100.501 172.939C100.719 173.12 100.409 173.432 100.192 173.253Z" fill="white"/>
<path d="M96.5618 184.787C99.4168 184.56 102.082 183.267 104.025 181.163C104.217 180.954 104.531 181.264 104.339 181.472C102.312 183.657 99.5365 184.998 96.565 185.227C96.2818 185.249 96.2801 184.808 96.5618 184.787H96.5618Z" fill="white"/>
<path d="M109.411 164.325C109.754 164.759 110.2 165.102 110.708 165.322C111.216 165.542 111.771 165.632 112.323 165.584C112.605 165.559 112.607 166 112.326 166.025C111.716 166.075 111.103 165.974 110.541 165.733C109.979 165.491 109.485 165.115 109.102 164.638C109.062 164.597 109.039 164.541 109.039 164.483C109.039 164.425 109.06 164.369 109.1 164.327C109.141 164.286 109.197 164.262 109.255 164.262C109.313 164.261 109.369 164.284 109.411 164.325H109.411Z" fill="white"/>
<path d="M135.495 188.518C135.319 188.539 135.142 188.559 134.965 188.583C132.598 188.875 130.259 189.358 127.97 190.028C127.792 190.077 127.613 190.13 127.437 190.184C121.94 191.857 116.803 194.536 112.284 198.085C110.488 199.499 108.801 201.047 107.24 202.717C105.083 205.023 102.928 207.695 100.216 209.112C99.9343 209.263 99.6439 209.396 99.346 209.511L84.7359 202.289C84.7109 202.256 84.6842 202.226 84.659 202.193L84.0625 201.931C84.137 201.84 84.2163 201.746 84.2908 201.654C84.3338 201.601 84.3801 201.549 84.4231 201.496C84.4528 201.461 84.4827 201.426 84.5075 201.392C84.5173 201.38 84.5273 201.369 84.5355 201.36C84.5603 201.327 84.5869 201.299 84.6101 201.269C85.0517 200.745 85.4978 200.223 85.9483 199.703C85.95 199.7 85.95 199.7 85.9549 199.698C89.3979 195.747 93.2011 192.048 97.4448 189.044C97.5725 188.954 97.7017 188.86 97.8361 188.773C99.7565 187.43 101.783 186.246 103.897 185.233C105.056 184.682 106.242 184.19 107.451 183.759C110.576 182.651 113.856 182.041 117.171 181.952C123.779 181.776 130.369 183.716 135.134 188.174C135.256 188.288 135.375 188.4 135.495 188.518Z" fill="#E6E6E6"/>
<path d="M135.368 188.689C127.378 186.537 118.913 186.957 111.176 189.889C109.499 190.491 107.928 191.353 106.519 192.444C105.182 193.551 104.165 194.996 103.575 196.629C102.994 198.141 102.575 199.754 101.637 201.098C101.146 201.779 100.518 202.348 99.7917 202.769C99.0657 203.19 98.259 203.452 97.4244 203.539C95.3506 203.811 93.3029 203.321 91.3172 202.772C89.1123 202.163 86.8319 201.495 84.5292 201.922C84.2502 201.973 84.1862 201.537 84.4648 201.486C88.4711 200.743 92.1627 203.139 96.1256 203.176C97.9747 203.193 99.8402 202.653 101.036 201.166C102.081 199.865 102.515 198.202 103.09 196.666C103.642 195.065 104.578 193.623 105.816 192.467C107.164 191.308 108.7 190.387 110.357 189.743C114.066 188.233 117.988 187.316 121.981 187.025C126.537 186.668 131.12 187.092 135.532 188.28C135.805 188.353 135.639 188.762 135.368 188.689Z" fill="white"/>
<path d="M113.613 188.798C113.297 187.434 113.477 186.001 114.12 184.756C114.763 183.512 115.827 182.536 117.123 182.004C117.386 181.897 117.564 182.3 117.301 182.407C116.094 182.901 115.102 183.809 114.506 184.97C113.909 186.13 113.747 187.465 114.049 188.734C114.114 189.01 113.678 189.073 113.613 188.798H113.613Z" fill="white"/>
<path d="M103.771 195.823C106.187 197.361 109.094 197.932 111.912 197.422C112.191 197.371 112.255 197.807 111.976 197.858C109.042 198.383 106.019 197.782 103.508 196.176C103.269 196.023 103.533 195.67 103.771 195.823V195.823Z" fill="white"/>
<path d="M126.348 187.219C126.36 187.773 126.509 188.315 126.782 188.796C127.056 189.278 127.444 189.684 127.914 189.978C128.155 190.128 127.89 190.481 127.651 190.331C127.134 190.004 126.705 189.555 126.402 189.024C126.099 188.492 125.931 187.895 125.912 187.284C125.905 187.226 125.921 187.168 125.955 187.122C125.99 187.075 126.04 187.044 126.097 187.033C126.155 187.025 126.214 187.04 126.261 187.075C126.307 187.11 126.339 187.162 126.348 187.219V187.219Z" fill="white"/>
<path d="M131.4 110.376C131.765 110.013 132.046 109.574 132.224 109.09C132.401 108.607 132.47 108.09 132.425 107.577C132.381 107.064 132.225 106.567 131.968 106.121C131.711 105.674 131.359 105.29 130.938 104.994L136.688 77.166L130.484 79.1231L125.857 106.045C125.408 106.786 125.246 107.667 125.402 108.519C125.558 109.372 126.022 110.138 126.705 110.672C127.388 111.206 128.243 111.471 129.109 111.416C129.974 111.361 130.79 110.991 131.4 110.376Z" fill="#FFB6B6"/>
<path d="M144.692 35.9899L140.849 33.0892C140.849 33.0892 137.459 32.8491 136.858 38.9625C136.258 45.0758 132.498 68.5387 132.498 68.5387L126.617 95.7737L134.758 97.5604L141.057 68.169L147.362 47.8919L144.692 35.9899Z" fill="#E6E6E6"/>
<path d="M141.766 86.3838L123.33 72.051C123.043 71.8272 122.857 71.4987 122.811 71.1375C122.766 70.7763 122.866 70.4119 123.089 70.1243L135.633 53.9944C135.856 53.7073 136.185 53.5207 136.546 53.4755C136.907 53.4303 137.272 53.5302 137.56 53.7533L155.995 68.0862C156.282 68.3099 156.469 68.6384 156.514 68.9996C156.559 69.3608 156.459 69.7252 156.236 70.0128L143.693 86.1427C143.469 86.4299 143.14 86.6165 142.779 86.6617C142.418 86.7069 142.054 86.6069 141.766 86.3838Z" fill="#3F3D56"/>
<path d="M141.662 84.9008L124.791 71.7838C124.536 71.5852 124.37 71.2935 124.33 70.9728C124.29 70.6521 124.378 70.3285 124.576 70.0732L135.948 55.4507C136.146 55.1958 136.438 55.0301 136.759 54.9899C137.08 54.9498 137.403 55.0385 137.658 55.2366L154.53 68.3536C154.785 68.5523 154.951 68.8439 154.991 69.1646C155.031 69.4853 154.942 69.8089 154.744 70.0642L143.373 84.6867C143.174 84.9417 142.883 85.1074 142.562 85.1475C142.241 85.1876 141.918 85.0989 141.662 84.9008Z" fill="white"/>
<path d="M127.004 71.4122C126.941 71.3625 126.899 71.2896 126.889 71.2094C126.879 71.1293 126.901 71.0484 126.951 70.9845L132.687 63.6079C132.737 63.5441 132.81 63.5026 132.89 63.4926C132.93 63.4876 132.97 63.4905 133.009 63.5011C133.047 63.5117 133.083 63.5298 133.115 63.5544C133.146 63.579 133.173 63.6095 133.193 63.6443C133.212 63.6791 133.225 63.7174 133.23 63.7571C133.235 63.7968 133.232 63.8371 133.222 63.8757C133.211 63.9143 133.193 63.9505 133.168 63.982L127.432 71.3587C127.382 71.4224 127.309 71.4638 127.229 71.4738C127.149 71.4839 127.068 71.4617 127.004 71.4122Z" fill="#E4E4E4"/>
<path d="M127.953 72.1505C127.89 72.1008 127.848 72.0279 127.838 71.9477C127.828 71.8675 127.85 71.7867 127.9 71.7228L133.636 64.3462C133.686 64.2824 133.759 64.2409 133.839 64.2309C133.919 64.2208 134 64.2431 134.064 64.2927C134.128 64.3423 134.169 64.4152 134.179 64.4954C134.189 64.5756 134.167 64.6565 134.118 64.7203L128.381 72.097C128.332 72.1607 128.259 72.2021 128.178 72.2122C128.098 72.2222 128.017 72.2 127.953 72.1505Z" fill="#E4E4E4"/>
<path d="M132.153 68.7101C132.089 68.6605 132.048 68.5875 132.038 68.5074C132.027 68.4272 132.05 68.3463 132.099 68.2825L134.586 65.0849C134.61 65.0532 134.641 65.0267 134.676 65.0068C134.71 64.987 134.749 64.9742 134.789 64.9692C134.828 64.9642 134.869 64.9671 134.907 64.9777C134.946 64.9883 134.982 65.0064 135.014 65.031C135.045 65.0556 135.072 65.0861 135.092 65.121C135.112 65.1558 135.124 65.1942 135.129 65.234C135.134 65.2737 135.131 65.3141 135.121 65.3527C135.11 65.3913 135.092 65.4274 135.067 65.459L132.58 68.6566C132.531 68.7203 132.458 68.7618 132.378 68.7718C132.297 68.7818 132.217 68.7597 132.153 68.7101Z" fill="#E4E4E4"/>
<path d="M133.438 74.9856C133.374 74.936 133.333 74.863 133.323 74.7829C133.313 74.7027 133.335 74.6218 133.384 74.558L142.44 62.9126C142.465 62.881 142.495 62.8546 142.53 62.8348C142.565 62.815 142.603 62.8023 142.643 62.7973C142.683 62.7923 142.723 62.7952 142.762 62.8058C142.8 62.8164 142.836 62.8345 142.868 62.8591C142.9 62.8836 142.926 62.9142 142.946 62.949C142.966 62.9838 142.978 63.0221 142.983 63.0618C142.988 63.1015 142.985 63.1418 142.975 63.1804C142.964 63.219 142.946 63.2551 142.922 63.2867L133.866 74.9321C133.816 74.9958 133.743 75.0373 133.663 75.0473C133.583 75.0573 133.502 75.0351 133.438 74.9856Z" fill="#E4E4E4"/>
<path d="M134.387 75.7259C134.323 75.6762 134.282 75.6033 134.272 75.5231C134.262 75.443 134.284 75.3621 134.334 75.2982L143.39 63.6528C143.414 63.6212 143.445 63.5948 143.479 63.575C143.514 63.5552 143.553 63.5425 143.592 63.5375C143.632 63.5325 143.672 63.5354 143.711 63.5461C143.75 63.5567 143.786 63.5748 143.817 63.5993C143.849 63.6239 143.875 63.6544 143.895 63.6892C143.915 63.724 143.928 63.7624 143.933 63.8021C143.938 63.8418 143.935 63.8821 143.924 63.9207C143.913 63.9593 143.895 63.9954 143.871 64.027L134.815 75.6724C134.765 75.7361 134.692 75.7775 134.612 75.7876C134.532 75.7976 134.451 75.7754 134.387 75.7259Z" fill="#E4E4E4"/>
<path d="M136.543 77.4036C136.48 77.3539 136.438 77.281 136.428 77.2008C136.418 77.1207 136.44 77.0398 136.49 76.976L145.546 65.3306C145.57 65.299 145.601 65.2725 145.636 65.2527C145.671 65.233 145.709 65.2202 145.749 65.2152C145.788 65.2103 145.829 65.2132 145.867 65.2238C145.906 65.2344 145.942 65.2525 145.973 65.2771C146.005 65.3016 146.032 65.3322 146.051 65.367C146.071 65.4017 146.084 65.4401 146.089 65.4798C146.094 65.5195 146.091 65.5598 146.08 65.5984C146.07 65.637 146.052 65.6731 146.027 65.7047L136.971 77.3501C136.921 77.4138 136.848 77.4552 136.768 77.4653C136.688 77.4753 136.607 77.4531 136.543 77.4036Z" fill="#E4E4E4"/>
<path d="M137.496 78.1419C137.433 78.0922 137.391 78.0193 137.381 77.9391C137.371 77.859 137.393 77.7781 137.443 77.7142L146.499 66.0689C146.524 66.0373 146.554 66.0108 146.589 65.991C146.624 65.9712 146.662 65.9585 146.702 65.9535C146.741 65.9486 146.782 65.9515 146.82 65.9621C146.859 65.9727 146.895 65.9908 146.927 66.0153C146.958 66.0399 146.985 66.0705 147.004 66.1052C147.024 66.14 147.037 66.1784 147.042 66.2181C147.047 66.2578 147.044 66.2981 147.033 66.3367C147.023 66.3753 147.005 66.4114 146.98 66.443L137.924 78.0884C137.875 78.1521 137.802 78.1935 137.721 78.2036C137.641 78.2136 137.56 78.1914 137.496 78.1419Z" fill="#E4E4E4"/>
<path d="M139.653 79.8196C139.589 79.77 139.548 79.697 139.538 79.6169C139.527 79.5367 139.55 79.4558 139.599 79.392L148.655 67.7466C148.68 67.715 148.71 67.6886 148.745 67.6688C148.78 67.649 148.818 67.6362 148.858 67.6313C148.898 67.6263 148.938 67.6292 148.977 67.6398C149.015 67.6504 149.051 67.6685 149.083 67.6931C149.114 67.7176 149.141 67.7482 149.161 67.783C149.18 67.8178 149.193 67.8561 149.198 67.8958C149.203 67.9355 149.2 67.9758 149.19 68.0144C149.179 68.053 149.161 68.0891 149.136 68.1207L140.08 79.7661C140.031 79.8298 139.958 79.8713 139.878 79.8813C139.797 79.8913 139.717 79.8691 139.653 79.8196Z" fill="#E4E4E4"/>
<path d="M140.606 80.5591C140.542 80.5094 140.501 80.4365 140.491 80.3563C140.481 80.2761 140.503 80.1953 140.552 80.1314L149.608 68.4861C149.658 68.4225 149.731 68.3813 149.811 68.3714C149.891 68.3616 149.972 68.3838 150.035 68.4333C150.099 68.4828 150.141 68.5556 150.151 68.6356C150.161 68.7156 150.139 68.7964 150.09 68.8602L141.034 80.5056C140.984 80.5693 140.911 80.6107 140.831 80.6208C140.751 80.6308 140.67 80.6086 140.606 80.5591Z" fill="#E4E4E4"/>
<path d="M125.469 94.0842C125.538 94.0842 125.594 94.0282 125.594 93.9591C125.594 93.89 125.538 93.834 125.469 93.834C125.4 93.834 125.344 93.89 125.344 93.9591C125.344 94.0282 125.4 94.0842 125.469 94.0842Z" fill="white"/>
<path d="M143.703 7.86642C143.263 10.231 142.541 12.5343 141.553 14.7273C135.896 26.6937 152.007 22.7933 157.764 22.7933C164.059 22.7933 170.082 26.1031 169.162 11.3967C168.769 5.11473 164.059 0 157.764 0C152.387 0 144.827 2.38965 143.703 7.86642Z" fill="#545461"/>
<path d="M163.634 183.37H158.271L155.719 162.686H163.634V183.37Z" fill="#FFB6B6"/>
<path d="M166.465 192.663H162.619L161.932 189.032L160.174 192.663H149.973C149.484 192.663 149.008 192.507 148.614 192.217C148.22 191.928 147.929 191.52 147.784 191.053C147.638 190.586 147.646 190.085 147.805 189.623C147.965 189.161 148.268 188.761 148.67 188.484L156.816 182.858V179.188L165.385 179.699L166.465 192.663Z" fill="#545461"/>
<path d="M195.497 176.602L191.193 179.802L176.801 164.727L183.153 160.004L195.497 176.602Z" fill="#FFB6B6"/>
<path d="M203.314 182.37L200.227 184.665L197.51 182.161L198.265 186.124L190.08 192.21C189.687 192.502 189.212 192.661 188.723 192.663C188.234 192.666 187.757 192.512 187.362 192.224C186.966 191.936 186.673 191.53 186.525 191.064C186.377 190.598 186.382 190.097 186.54 189.634L189.719 180.259L187.529 177.313L194.71 172.611L203.314 182.37Z" fill="#545461"/>
<path d="M146.066 88.1749L171.526 84.21L166.463 68.9805H146.066V88.1749Z" fill="#FFB6B6"/>
<path d="M169.878 76.6504C169.878 76.6504 180.055 85.441 175.359 110.501L169.627 135.055L185.244 162.165L177.303 166.496L158.058 139.751L149.252 119.096L144.594 82.8969L169.878 76.6504Z" fill="#545461"/>
<path d="M154.104 124.982L153.492 134.46L155.284 162.526L164.179 165.588L165.864 136.832L154.104 124.982Z" fill="#545461"/>
<path d="M151.372 25.9473L161.213 26.3312L165.135 32.841L174.084 34.5877L168.742 61.6098L169.724 76.9905L160.814 76.9362C154.392 76.897 148.182 79.2297 143.375 83.4868L143.641 63.5215L139.809 48.6176L140.67 32.99L147.869 32.0903L151.372 25.9473Z" fill="#E6E6E6"/>
<path d="M156.821 22.7897C161.936 22.7897 166.083 18.6434 166.083 13.5286C166.083 8.4139 161.936 4.26758 156.821 4.26758C151.705 4.26758 147.559 8.4139 147.559 13.5286C147.559 18.6434 151.705 22.7897 156.821 22.7897Z" fill="#FFB6B6"/>
<path d="M150.531 4.08955C152.154 3.10021 154.013 2.56504 155.914 2.53998C157.815 2.51493 159.687 3.00092 161.336 3.94712C162.984 4.89333 164.348 6.26501 165.285 7.91873C166.222 9.57245 166.697 11.4475 166.662 13.3478C161.942 14.5326 156.984 15.4392 151.951 13.6311L150.762 10.7225L150.061 13.6333C148.529 14.2597 146.992 14.7897 145.455 13.6273C145.392 11.7323 145.828 9.85414 146.719 8.18041C147.61 6.50668 148.924 5.09606 150.531 4.08955Z" fill="#545461"/>
<path d="M172.37 95.6628L173.618 106.993C173.705 107.275 173.881 107.523 174.119 107.698C174.356 107.874 174.644 107.969 174.94 107.969H180.696C180.991 107.969 181.28 107.874 181.517 107.698C181.755 107.523 181.931 107.275 182.018 106.993L183.052 98.3089C183.35 98.4552 183.679 98.5286 184.012 98.523C184.344 98.5175 184.671 98.4331 184.964 98.2768C185.257 98.1206 185.51 97.8969 185.7 97.6242C185.89 97.3516 186.012 97.0377 186.058 96.7083C186.103 96.379 186.069 96.0437 185.959 95.7299C185.85 95.4161 185.667 95.1328 185.426 94.9034C185.186 94.674 184.894 94.5049 184.576 94.4101C184.257 94.3153 183.92 94.2975 183.594 94.3581C183.464 94.2057 183.304 94.0833 183.122 93.9995C182.941 93.9158 182.744 93.8726 182.544 93.8731H173.692C173.475 93.8731 173.262 93.9239 173.069 94.0214C172.875 94.1189 172.708 94.2604 172.579 94.4344C172.451 94.6085 172.365 94.8104 172.328 95.0237C172.292 95.2371 172.306 95.456 172.37 95.6628ZM183.233 97.7216L183.866 95.6628C183.939 95.4252 183.947 95.1722 183.887 94.9308C183.914 94.9294 183.94 94.9227 183.967 94.9227C184.365 94.9227 184.746 95.0807 185.027 95.3619C185.309 95.6432 185.467 96.0246 185.467 96.4223C185.467 96.82 185.309 97.2014 185.027 97.4826C184.746 97.7639 184.365 97.9219 183.967 97.9219C183.709 97.9202 183.456 97.8512 183.233 97.7216Z" fill="#30E3CA"/>
<path d="M181.049 107.976C180.686 107.611 180.407 107.171 180.232 106.687C180.058 106.202 179.991 105.685 180.038 105.173C180.085 104.66 180.243 104.163 180.503 103.718C180.762 103.273 181.116 102.891 181.539 102.597L175.93 74.7402L182.124 76.7288L186.614 103.674C187.06 104.417 187.217 105.298 187.057 106.15C186.896 107.003 186.429 107.766 185.743 108.296C185.057 108.827 184.2 109.087 183.335 109.028C182.47 108.969 181.657 108.595 181.049 107.976Z" fill="#FFB6B6"/>
<path d="M170.24 37.488L174.084 34.5872C174.084 34.5872 177.474 34.3471 178.074 40.4605C178.675 46.5739 182.434 70.0368 182.434 70.0368L188.315 97.2718L180.175 99.0584L173.876 69.6671L167.57 49.39L170.24 37.488Z" fill="#E6E6E6"/>
<path d="M137.07 62.8467C138.272 62.8467 139.246 61.8728 139.246 60.6714C139.246 59.47 138.272 58.4961 137.07 58.4961C135.869 58.4961 134.895 59.47 134.895 60.6714C134.895 61.8728 135.869 62.8467 137.07 62.8467Z" fill="#30E3CA"/>
<path d="M67.696 208.605L72.2299 208.605L74.387 191.119L67.6953 191.119L67.696 208.605Z" fill="#FFB6B6"/>
<path d="M66.5391 207.126L67.8152 207.126L72.7975 205.1L75.4679 207.125H75.4682C76.9773 207.125 78.4246 207.725 79.4916 208.792C80.5587 209.859 81.1583 211.306 81.1584 212.815V212.999L66.5393 213L66.5391 207.126Z" fill="#545461"/>
<path d="M85.2656 205.749L89.6883 206.748L95.6444 190.167L89.117 188.693L85.2656 205.749Z" fill="#FFB6B6"/>
<path d="M84.4619 204.051L85.7067 204.332L91.0129 203.453L93.1714 206.017L93.1718 206.017C94.6438 206.35 95.9234 207.253 96.7292 208.529C97.5351 209.805 97.8011 211.348 97.4688 212.82L97.428 213L83.168 209.781L84.4619 204.051Z" fill="#545461"/>
<path d="M59.3945 118.663L63.4944 164.592C63.4944 164.592 61.9582 192.165 66.9152 201.868H74.1041L77.6635 162.074L78.1104 135.363L93.5227 157.898L83.7062 201.218L92.554 202.009L108.484 154.997L90.9829 110.863L59.3945 118.663Z" fill="#545461"/>
<path d="M63.6866 45.521C69.526 45.521 74.2598 40.7877 74.2598 34.949C74.2598 29.1102 69.526 24.377 63.6866 24.377C57.8471 24.377 53.1133 29.1102 53.1133 34.949C53.1133 40.7877 57.8471 45.521 63.6866 45.521Z" fill="#FFB8B8"/>
<path d="M82.2735 55.5962L73.5993 51.8748L69.3766 47.3965L58.8278 49.0976L56.029 53.8959L46.9688 62.3196L57.5839 110.31L57.2625 120.792C57.2625 120.792 64.0565 123.85 93.5208 116.809C93.8741 116.725 93.1345 116.355 93.1345 116.355L82.2735 55.5962Z" fill="#3F3D56"/>
<path d="M52.6949 40.9486C52.6212 40.8481 52.5483 40.7468 52.476 40.6445C52.447 40.7059 52.4239 40.7693 52.3906 40.8293L52.6949 40.9486Z" fill="#545461"/>
<path d="M74.2061 27.2163C73.4993 25.6769 72.2392 24.4596 70.6761 23.8065C69.1267 23.1817 67.3952 23.1832 65.847 23.8107C64.4492 22.9277 62.8961 22.2276 61.2604 22.1409C59.6248 22.0542 57.8954 22.661 56.8875 23.9965C56.6624 24.3491 56.4067 24.6812 56.1235 24.989C55.3132 25.7392 54.0819 25.631 53.005 25.4776C53.488 25.8915 53.9712 26.3055 54.4544 26.7194C53.8697 26.8721 53.285 27.0249 52.7002 27.1776C53.3826 27.5914 54.0649 28.0052 54.7471 28.419C52.7663 29.6078 51.8659 32.2026 52.1037 34.5592C52.3287 36.7903 53.406 38.8306 54.6939 40.644C55.2076 39.56 55.0969 38.2629 55.0884 37.0421C55.0796 35.7521 55.3078 34.2873 56.3416 33.5663C57.039 33.08 57.9357 33.0583 58.7766 33.0629C63.0185 33.0862 67.2555 33.3507 71.4673 33.8551C72.0389 33.8798 72.5961 34.0414 73.0921 34.3263C74.0235 34.9616 74.205 36.2728 74.2985 37.4231C74.7906 35.5238 75.0315 33.5682 75.0149 31.6063C75.0563 30.1024 74.7807 28.6067 74.2061 27.2163Z" fill="#545461"/>
<path d="M77.4971 150.859C86.688 150.859 94.1387 143.41 94.1387 134.22C94.1387 125.03 86.688 117.58 77.4971 117.58C68.3062 117.58 60.8555 125.03 60.8555 134.22C60.8555 143.41 68.3062 150.859 77.4971 150.859Z" fill="white"/>
<path d="M77.4958 117.209C76.6404 117.209 75.7862 117.273 74.9404 117.401C74.5077 117.464 74.0862 117.545 73.6682 117.645C70.5981 118.353 67.785 119.899 65.5428 122.113C63.3006 124.326 61.7174 127.118 60.9699 130.178C60.2224 133.238 60.3399 136.446 61.3095 139.444C62.279 142.441 64.0624 145.11 66.4606 147.153C66.7454 147.393 67.0338 147.626 67.3333 147.848C69.4923 149.458 72.0027 150.532 74.6579 150.981C77.3131 151.431 80.0372 151.244 82.606 150.436C85.1747 149.627 87.5148 148.221 89.4336 146.331C91.3523 144.442 92.7949 142.124 93.6427 139.568C94.4904 137.012 94.719 134.291 94.3097 131.63C93.9004 128.969 92.8648 126.442 91.2883 124.259C89.7117 122.076 87.6392 120.299 85.2414 119.073C82.8435 117.847 80.1889 117.208 77.4958 117.209V117.209ZM77.4958 150.488C74.0359 150.492 70.6659 149.386 67.8807 147.334C67.5775 147.112 67.2853 146.883 67.0006 146.639C64.664 144.668 62.9303 142.079 61.9983 139.168C61.0663 136.257 60.9737 133.142 61.7312 130.181C62.4887 127.22 64.0655 124.532 66.2809 122.426C68.4962 120.32 71.2604 118.881 74.2564 118.274C74.6704 118.189 75.0846 118.122 75.5063 118.071C76.1663 117.989 76.8308 117.948 77.4958 117.949C81.8114 117.949 85.9502 119.663 89.0017 122.714C92.0533 125.765 93.7677 129.903 93.7677 134.218C93.7677 138.533 92.0533 142.672 89.0017 145.723C85.9502 148.774 81.8114 150.488 77.4958 150.488Z" fill="#3F3D56"/>
<path d="M69.3343 130.891H85.6593C86.2574 130.891 86.7422 130.406 86.7422 129.808V129.755C86.7422 129.157 86.2574 128.672 85.6593 128.672H69.3343C68.7363 128.672 68.2515 129.157 68.2515 129.755V129.808C68.2515 130.406 68.7363 130.891 69.3343 130.891Z" fill="#30E3CA"/>
<path d="M69.3343 135.328H85.6593C86.2574 135.328 86.7422 134.843 86.7422 134.245V134.192C86.7422 133.594 86.2574 133.109 85.6593 133.109H69.3343C68.7363 133.109 68.2515 133.594 68.2515 134.192V134.245C68.2515 134.843 68.7363 135.328 69.3343 135.328Z" fill="#30E3CA"/>
<path d="M69.3343 139.766H85.6593C86.2574 139.766 86.7422 139.281 86.7422 138.683V138.63C86.7422 138.032 86.2574 137.547 85.6593 137.547H69.3343C68.7363 137.547 68.2515 138.032 68.2515 138.63V138.683C68.2515 139.281 68.7363 139.766 69.3343 139.766Z" fill="#30E3CA"/>
<path d="M263.68 208.042L258.926 208.042L256.664 189.707L263.681 189.707L263.68 208.042Z" fill="#9E616A"/>
<path d="M241.191 208.042L236.437 208.042L234.176 189.707L241.192 189.707L241.191 208.042Z" fill="#9E616A"/>
<path d="M241.357 213L226.738 212.999V212.815C226.738 211.306 227.338 209.859 228.405 208.792C229.472 207.725 230.919 207.125 232.428 207.125H232.429L235.099 205.1L240.081 207.126L241.358 207.126L241.357 213Z" fill="#545461"/>
<path d="M264.459 213L249.84 212.999V212.815C249.84 211.306 250.439 209.859 251.507 208.792C252.574 207.725 254.021 207.125 255.53 207.125H255.53L258.201 205.1L263.183 207.126L264.459 207.126L264.459 213Z" fill="#545461"/>
<path d="M236.526 99.5306L229.301 143.519L231.268 150.074L228.688 154.717L232.476 195.489L230.938 198.874L235.236 201.524H243.98L244.444 164.613L246.604 159.194V156.207L251.001 133.7L251.811 165.22L253.09 170.648L252.016 174.513L253.419 177.22L257.149 202.328H266.954L266.195 196.487C267.05 196.055 267.736 195.351 268.146 194.486C268.556 193.621 268.668 192.645 268.462 191.71L267.9 189.149L269.18 181.579L271.51 139.344L270.853 105.266L259.382 96.4961L236.526 99.5306Z" fill="#545461"/>
<path d="M253.09 43.0438C258.122 43.0438 262.2 38.9657 262.2 33.935C262.2 28.9043 258.122 24.8262 253.09 24.8262C248.059 24.8262 243.98 28.9043 243.98 33.935C243.98 38.9657 248.059 43.0438 253.09 43.0438Z" fill="#9E616A"/>
<path d="M233.185 116.985C233.581 116.576 233.883 116.084 234.069 115.545C234.255 115.007 234.321 114.434 234.261 113.867C234.201 113.3 234.018 112.753 233.725 112.264C233.431 111.776 233.033 111.358 232.561 111.039L236.103 97.6445L229.278 99.9399L226.96 112.308C226.478 113.138 226.317 114.116 226.508 115.056C226.699 115.997 227.228 116.835 227.995 117.411C228.762 117.988 229.714 118.263 230.671 118.184C231.627 118.106 232.522 117.679 233.185 116.985H233.185Z" fill="#9E616A"/>
<path d="M236.915 52.6751L235.45 52.3711L234.201 53.0628C234.201 53.0628 230.711 57.7155 230.711 61.9805C230.711 66.2455 226.445 107.345 226.445 107.345L234.201 110.834L240.405 78.6528L236.915 52.6751Z" fill="#E6E6E6"/>
<path d="M261.069 27.2554C261.069 27.2554 263.452 22.701 258.21 22.287C258.21 22.287 253.741 18.2337 249.186 21.546C249.186 21.546 246.702 21.546 245.343 24.3572C245.343 24.3572 243.389 23.6162 242.96 25.5993C242.96 25.5993 241.53 29.7397 242.96 33.466C244.39 37.1924 244.864 37.6064 244.864 37.6064C244.864 37.6064 242.515 29.7939 248.234 29.3799C253.953 28.9659 260.353 25.3923 260.829 29.9467C261.306 34.5011 262.023 35.6233 262.023 35.6233C262.023 35.6233 266.55 29.1186 261.069 27.2554Z" fill="#545461"/>
<path d="M294.346 154.716C293.658 154.717 292.994 154.464 292.482 154.005L264.912 129.467C264.357 128.971 264.021 128.276 263.977 127.532C263.934 126.789 264.188 126.059 264.682 125.503L282.343 105.664C282.839 105.109 283.535 104.773 284.278 104.729C285.021 104.686 285.752 104.94 286.308 105.434L313.878 129.973C314.434 130.468 314.771 131.164 314.814 131.907C314.858 132.65 314.604 133.381 314.108 133.937L296.447 153.775C296.202 154.051 295.906 154.276 295.573 154.437C295.241 154.598 294.881 154.691 294.512 154.711C294.456 154.715 294.401 154.716 294.346 154.716Z" fill="white"/>
<path d="M294.346 154.897C293.614 154.898 292.908 154.629 292.363 154.141L264.793 129.602C264.202 129.075 263.844 128.334 263.798 127.543C263.752 126.752 264.022 125.975 264.548 125.383L282.209 105.545C282.737 104.954 283.477 104.596 284.268 104.55C285.059 104.504 285.836 104.774 286.429 105.299L313.999 129.838C314.591 130.365 314.949 131.106 314.995 131.897C315.041 132.688 314.771 133.465 314.244 134.057L296.582 153.896C296.322 154.19 296.006 154.429 295.653 154.6C295.299 154.771 294.915 154.871 294.523 154.892C294.464 154.896 294.405 154.897 294.346 154.897ZM284.443 105.266C284.123 105.266 283.806 105.333 283.514 105.464C283.222 105.594 282.961 105.786 282.749 106.025L265.087 125.863C264.688 126.312 264.483 126.902 264.518 127.502C264.553 128.102 264.825 128.663 265.273 129.063L292.843 153.602C293.065 153.8 293.324 153.952 293.605 154.05C293.887 154.147 294.184 154.189 294.482 154.172C294.779 154.154 295.07 154.079 295.338 153.949C295.606 153.819 295.845 153.638 296.043 153.416L313.705 133.577C314.104 133.128 314.309 132.539 314.275 131.939C314.24 131.339 313.968 130.777 313.519 130.378L285.949 105.839C285.534 105.469 284.998 105.265 284.443 105.266H284.443Z" fill="#3F3D56"/>
<path d="M304.343 135.929C304.045 135.929 303.758 135.82 303.536 135.622L281.895 116.36C281.775 116.254 281.677 116.125 281.607 115.981C281.537 115.838 281.496 115.681 281.487 115.522C281.477 115.362 281.499 115.202 281.551 115.051C281.604 114.9 281.686 114.761 281.792 114.642C281.898 114.522 282.027 114.425 282.171 114.355C282.315 114.286 282.471 114.245 282.631 114.236C282.791 114.227 282.951 114.25 283.102 114.303C283.252 114.356 283.391 114.438 283.511 114.545L305.152 133.806C305.336 133.97 305.466 134.186 305.524 134.425C305.583 134.665 305.567 134.916 305.479 135.146C305.392 135.377 305.236 135.575 305.033 135.714C304.83 135.854 304.589 135.929 304.343 135.929Z" fill="#30E3CA"/>
<path d="M300.215 140.564C299.917 140.565 299.63 140.455 299.407 140.257L277.766 120.995C277.647 120.889 277.55 120.761 277.481 120.617C277.411 120.473 277.371 120.318 277.361 120.158C277.352 119.999 277.374 119.839 277.427 119.689C277.479 119.538 277.561 119.399 277.667 119.28C277.773 119.161 277.902 119.064 278.045 118.994C278.189 118.925 278.345 118.884 278.504 118.875C278.663 118.866 278.823 118.888 278.974 118.94C279.124 118.993 279.263 119.074 279.382 119.181L301.024 138.443C301.208 138.606 301.338 138.822 301.396 139.061C301.455 139.301 301.439 139.552 301.351 139.782C301.264 140.013 301.108 140.211 300.905 140.35C300.702 140.49 300.461 140.565 300.215 140.564H300.215Z" fill="#30E3CA"/>
<path d="M296.087 145.202C295.79 145.203 295.502 145.093 295.28 144.895L273.639 125.633C273.519 125.527 273.422 125.399 273.352 125.255C273.283 125.111 273.242 124.955 273.233 124.796C273.223 124.637 273.245 124.477 273.298 124.326C273.35 124.175 273.432 124.036 273.538 123.917C273.644 123.798 273.773 123.7 273.917 123.631C274.06 123.561 274.217 123.521 274.376 123.512C274.535 123.503 274.695 123.525 274.846 123.578C274.997 123.63 275.136 123.712 275.255 123.818L296.896 143.08C297.08 143.244 297.21 143.46 297.269 143.699C297.327 143.938 297.311 144.19 297.224 144.42C297.136 144.65 296.98 144.848 296.777 144.988C296.574 145.128 296.334 145.202 296.087 145.202H296.087Z" fill="#30E3CA"/>
<path d="M271.338 117.776C271.06 117.279 270.895 116.726 270.854 116.157C270.813 115.589 270.897 115.018 271.1 114.486C271.304 113.953 271.621 113.472 272.031 113.075C272.441 112.679 272.932 112.377 273.471 112.191L273.494 98.3359L279.499 102.31L278.556 114.858C278.809 115.784 278.713 116.77 278.286 117.63C277.86 118.49 277.133 119.163 276.243 119.523C275.354 119.883 274.363 119.904 273.459 119.582C272.555 119.26 271.8 118.617 271.338 117.776H271.338Z" fill="#9E616A"/>
<path d="M271.894 56.4721L274.577 53.8867L276.547 55.3089C276.547 55.3089 278.486 57.6353 280.037 64.6143C281.588 71.5934 280.037 109.978 280.037 109.978L271.506 108.815L272.67 88.6534L269.18 71.5934L271.894 56.4721Z" fill="#E6E6E6"/>
<path d="M275.855 54.5169L266.817 50.2003L260.681 44.5095L249.492 44.4258L245.882 49.1176L236.353 52.3541L237.941 85.2082L236.858 87.7345C236.858 87.7345 237.613 88.4159 237.957 88.797C238.302 89.1781 237.481 92.3687 237.481 92.3687L237.018 95.8399L238.302 96.7572L236.633 98.7284L236.219 101.836C236.219 101.836 265.353 94.5953 270.858 106.59C271.149 107.223 270.432 101.03 270.432 101.03L269.716 96.4959L270.427 92.4263L271.51 91.3436L269.693 89.5277L270.858 80.9114L275.855 54.5169Z" fill="#3F3D56"/>
<path d="M70.8943 127.351C71.1186 126.782 71.2153 126.17 71.1776 125.559C71.1399 124.949 70.9687 124.353 70.6761 123.816C70.3834 123.278 69.9765 122.812 69.4839 122.448C68.9913 122.085 68.425 121.834 67.825 121.713L65.8173 106.973L59.9961 112.061L62.7951 125.279C62.659 126.3 62.9023 127.336 63.479 128.19C64.0556 129.044 64.9255 129.656 65.9239 129.912C66.9222 130.168 67.9796 130.048 68.8957 129.576C69.8118 129.104 70.5229 128.313 70.8943 127.351V127.351Z" fill="#FFB8B8"/>
<path d="M48.0875 62.0508L46.5097 62.353L45.556 63.5536C45.556 63.5536 44.0131 69.6047 45.7707 73.8334C47.5283 78.0622 60.2361 120.57 60.2361 120.57L69.3638 120.834L62.2534 86.37L48.0875 62.0508Z" fill="#3F3D56"/>
<path d="M84.0719 125.189C83.6515 124.744 83.3336 124.212 83.1408 123.632C82.948 123.051 82.885 122.435 82.9561 121.827C83.0271 121.219 83.2307 120.634 83.5523 120.113C83.8739 119.593 84.3058 119.149 84.8175 118.813L81.1836 104.387L88.4823 106.938L90.8142 120.246C91.3213 121.143 91.4818 122.195 91.2651 123.202C91.0485 124.209 90.4698 125.102 89.6388 125.712C88.8077 126.321 87.782 126.604 86.756 126.508C85.73 126.411 84.775 125.942 84.0719 125.189Z" fill="#FFB8B8"/>
<path d="M80.8804 56.0949L82.4571 55.7871L83.7898 56.5456C83.7898 56.5456 87.4779 61.5851 87.4239 66.1642C87.37 70.7433 91.4296 114.923 91.4296 114.923L83.0588 118.572L76.8047 83.9417L80.8804 56.0949Z" fill="#3F3D56"/>
</g>
<defs>
<clipPath id="clip0_1010_46">
<rect width="315" height="213" fill="white"/>
</clipPath>
</defs>
</svg>
