<svg width="189" height="165" viewBox="0 0 189 165" fill="none" xmlns="http://www.w3.org/2000/svg">
<g clip-path="url(#clip0_1009_206)">
<path d="M9.12156 56.227L0.0084526 51.1069C-0.114473 45.629 1.105 40.2039 3.56098 35.3027C5.66205 44.8152 16.7193 49.341 21.8209 57.6466C23.3922 60.2492 24.3562 63.1711 24.6415 66.1959C24.9267 69.2206 24.526 72.2706 23.469 75.1199L24.0683 82.4953C19.3583 81.0881 15.0102 78.679 11.3234 75.4342C7.63669 72.1893 4.69899 68.1857 2.71274 63.6993C1.62346 61.1714 0.857642 58.5167 0.433369 55.7979C4.68229 56.249 9.12156 56.227 9.12156 56.227Z" fill="#F2F2F2"/>
<path d="M172.943 149.374L173.222 143.107C176.135 141.554 179.384 140.733 182.687 140.717C178.141 144.424 178.71 151.571 175.627 156.557C174.654 158.104 173.344 159.414 171.795 160.388C170.245 161.362 168.496 161.975 166.676 162.183L162.872 164.507C162.35 161.604 162.465 158.623 163.209 155.768C163.954 152.914 165.309 150.255 167.183 147.973C168.247 146.704 169.467 145.573 170.814 144.608C171.725 147.005 172.943 149.374 172.943 149.374Z" fill="#F2F2F2"/>
<path d="M163.142 161.281L159.697 161.281L158.059 148.027L163.143 148.028L163.142 161.281Z" fill="#FFB6B6"/>
<path d="M164.017 164.611L152.91 164.611V164.471C152.91 163.327 153.366 162.23 154.176 161.422C154.987 160.613 156.087 160.158 157.233 160.158H157.234L159.263 158.623L163.048 160.159L164.018 160.159L164.017 164.611Z" fill="#545461"/>
<path d="M147.138 161.281L143.693 161.281L142.055 148.027L147.139 148.028L147.138 161.281Z" fill="#FFB6B6"/>
<path d="M148.017 164.611L136.91 164.611V164.471C136.91 163.327 137.366 162.23 138.176 161.422C138.987 160.613 140.087 160.158 141.233 160.158H141.234L143.263 158.623L147.048 160.159L148.018 160.159L148.017 164.611Z" fill="#545461"/>
<path d="M145.648 88.8223L168.054 89.381C172.309 91.6866 172.374 96.6766 170.979 102.601C170.979 102.601 171.45 106.123 170.509 107.062C169.567 108.001 169.097 108.001 169.567 109.644C170.038 111.287 167.551 113.971 167.853 114.273C168.155 114.574 168.861 116.217 168.861 116.217L166.508 129.599C166.508 129.599 164.86 152.84 164.39 153.309C163.919 153.779 163.448 153.309 163.919 154.483C164.39 155.657 164.86 155.188 164.39 155.657C163.973 156.105 163.58 156.576 163.213 157.066H157.523C157.523 157.066 157.094 154.718 157.094 154.483C157.094 154.249 156.623 152.84 156.623 152.605C156.623 152.37 157.039 151.955 157.039 151.955C157.183 151.478 157.28 150.988 157.329 150.492C157.329 150.023 158.741 131.946 158.741 131.946L155.917 108.47L149.092 131.477C149.092 131.477 149.092 151.666 148.622 152.136C148.151 152.605 148.151 152.37 148.386 153.309C148.622 154.249 149.563 154.014 148.857 154.718C148.151 155.422 147.915 154.249 148.151 155.422L148.386 156.596L141.326 156.697C141.326 156.697 140.384 154.718 140.855 154.014C141.326 153.309 141.298 153.502 140.723 152.349C140.149 151.197 139.914 150.962 140.149 150.727C140.384 150.492 140.384 149.244 140.384 149.244L141.561 126.782C141.561 126.782 141.796 103.071 141.796 102.366C141.814 102.004 141.747 101.643 141.601 101.31V100.354L142.503 96.967L145.648 88.8223Z" fill="#545461"/>
<path d="M159.106 42.3496C162.951 42.3496 166.068 39.2405 166.068 35.4053C166.068 31.57 162.951 28.4609 159.106 28.4609C155.261 28.4609 152.145 31.57 152.145 35.4053C152.145 39.2405 155.261 42.3496 159.106 42.3496Z" fill="#FFB6B6"/>
<path d="M155.625 46.9377C154.125 47.8271 153.228 49.4613 152.713 51.1242C151.759 54.2029 151.185 57.386 151.004 60.6032L150.46 70.2348L143.723 90.7432C149.561 95.6715 171.509 91.8633 171.509 91.8633C171.509 91.8633 172.182 91.6393 171.509 90.9672C170.835 90.2952 170.179 90.8906 170.853 90.2186C171.527 89.5465 171.062 90.2952 170.838 89.6232C170.613 88.9511 170.838 89.3992 171.062 89.1751C171.287 88.9511 169.324 86.935 169.324 86.935L171.12 75.163L173.366 51.4179C170.671 48.0577 165.251 46.0769 165.251 46.0769L163.851 43.5625L156.849 44.1213L155.625 46.9377Z" fill="#E6E6E6"/>
<path d="M154.668 31.3297C154.938 31.3318 155.206 31.3668 155.467 31.4341C155.981 31.5574 156.503 31.6448 157.029 31.6955C158.641 31.8468 160.155 32.5324 161.33 33.6428C162.506 34.7533 163.274 36.2246 163.512 37.8216C163.917 37.4698 164.837 36.8227 165.592 37.4241C165.603 37.4337 165.61 37.4386 165.637 37.426C166.138 37.1889 167.027 34.2705 167.054 31.7008C167.068 30.337 166.853 28.5954 165.747 28.0438L165.689 28.0148L165.674 27.9516C165.6 27.6448 164.774 27.1211 163.34 26.7135C160.733 25.9728 156.846 24.5298 154.658 26.6534C154.492 27.3693 153.954 28.9013 153.409 29.075C152.807 29.2672 152.286 29.4331 152.204 30.1705C152.136 31.22 152.141 32.2729 152.219 33.3217C152.423 32.68 152.824 32.1183 153.365 31.7157C153.75 31.4574 154.205 31.3226 154.668 31.3297Z" fill="#545461"/>
<path d="M141.712 69.6995L153.084 62.4348L147.357 54.8398L141.701 61.7796L124.079 62.8577C123.615 62.4006 123.029 62.088 122.39 61.9579C121.751 61.8278 121.089 61.8858 120.483 62.1249C119.877 62.364 119.353 62.7738 118.977 63.3044C118.6 63.835 118.387 64.4634 118.362 65.113C118.337 65.7626 118.502 66.4054 118.838 66.963C119.173 67.5205 119.663 67.9687 120.249 68.253C120.835 68.5373 121.492 68.6453 122.138 68.5638C122.785 68.4824 123.394 68.2151 123.891 67.7944L141.712 69.6995Z" fill="#FFB6B6"/>
<path d="M163.64 52.2949C164.3 56.2793 151.836 63.8878 151.836 63.8878C151.835 62.9526 144.396 70.0127 144.061 69.2371C143.106 67.0327 142.435 61.8116 141.102 60.9759C140.339 60.4979 145.695 56.0083 145.695 56.0083C145.695 56.0083 148.498 53.1911 152.177 49.6376C153.198 48.6138 154.463 47.8643 155.853 47.4591C157.243 47.0538 158.713 47.006 160.126 47.3199C160.126 47.3199 162.98 48.3105 163.64 52.2949Z" fill="#E6E6E6"/>
<path d="M187.079 71.6072L179.557 60.4199L172.066 66.2929L179.142 71.7863L180.595 89.3376C180.147 89.8095 179.846 90.4014 179.729 91.0409C179.612 91.6805 179.685 92.3401 179.937 92.9395C180.19 93.5388 180.611 94.0519 181.151 94.4163C181.691 94.7806 182.325 94.9804 182.977 94.9913C183.629 95.0022 184.269 94.8238 184.821 94.4777C185.373 94.1317 185.812 93.633 186.084 93.0424C186.357 92.4519 186.451 91.795 186.356 91.1519C186.26 90.5088 185.979 89.9072 185.547 89.4206L187.079 71.6072Z" fill="#FFB6B6"/>
<path d="M169.169 50.1086C173.149 49.366 181.038 61.635 181.038 61.635C180.101 61.655 187.335 68.9244 186.565 69.2757C184.375 70.2741 179.157 71.0539 178.347 72.4015C177.884 73.1721 173.271 67.9261 173.271 67.9261C173.271 67.9261 170.388 65.1899 166.749 61.5963C165.701 60.5993 164.923 59.3541 164.487 57.9766C164.052 56.5991 163.973 55.134 164.257 53.7178C164.257 53.7178 165.19 50.8512 169.169 50.1086Z" fill="#E6E6E6"/>
<path d="M189.001 164.668C189.001 164.712 188.993 164.755 188.976 164.796C188.959 164.836 188.935 164.873 188.904 164.904C188.873 164.935 188.836 164.959 188.795 164.976C188.755 164.992 188.711 165.001 188.668 165.001H110.165C110.077 165.001 109.992 164.966 109.93 164.903C109.867 164.841 109.832 164.757 109.832 164.668C109.832 164.58 109.867 164.496 109.93 164.433C109.992 164.371 110.077 164.336 110.165 164.336H188.668C188.711 164.336 188.755 164.344 188.795 164.361C188.836 164.378 188.873 164.402 188.904 164.433C188.935 164.464 188.959 164.501 188.976 164.541C188.993 164.581 189.001 164.625 189.001 164.668Z" fill="#CCCCCC"/>
<path d="M116.278 63.9199H21.005C19.5165 63.9216 18.0894 64.5122 17.0369 65.5621C15.9844 66.612 15.3923 68.0355 15.3906 69.5203V128.689C15.3923 130.174 15.9844 131.597 17.0369 132.647C18.0894 133.697 19.5165 134.288 21.005 134.289H116.278C117.767 134.288 119.194 133.697 120.246 132.647C121.299 131.597 121.891 130.174 121.893 128.689V69.5203C121.891 68.0355 121.299 66.612 120.246 65.5621C119.194 64.5121 117.767 63.9216 116.278 63.9199Z" fill="#30E3CA"/>
<path d="M116.278 63.9199H21.005C19.5165 63.9216 18.0894 64.5122 17.0369 65.5621C15.9844 66.612 15.3923 68.0355 15.3906 69.5203V128.689C15.3923 130.174 15.9844 131.597 17.0369 132.647C18.0894 133.697 19.5165 134.288 21.005 134.289H116.278C117.767 134.288 119.194 133.697 120.246 132.647C121.299 131.597 121.891 130.174 121.893 128.689V69.5203C121.891 68.0355 121.299 66.612 120.246 65.5621C119.194 64.5121 117.767 63.9216 116.278 63.9199ZM118.121 106.422C118.098 112.445 115.709 118.22 111.467 122.507C107.225 126.795 101.467 129.253 95.4294 129.354C85.7622 129.48 100.778 129.528 89.1188 129.528C62.4577 129.528 34.6575 129.274 24.285 129.11C22.9203 129.081 21.6206 128.522 20.6635 127.552C19.7065 126.581 19.1678 125.275 19.1625 123.914V69.5247C19.163 69.0371 19.3571 68.5695 19.7023 68.2243C20.0476 67.8791 20.5158 67.6844 21.0046 67.6826H116.274C116.763 67.6832 117.232 67.8768 117.578 68.221C117.924 68.5653 118.119 69.0322 118.121 69.5197V106.422Z" fill="#3F3D56"/>
<path d="M104.549 29.8477H31.9608C31.3186 29.8486 30.6923 30.0472 30.1674 30.4164C29.6425 30.7856 29.2447 31.3074 29.0282 31.9105L17.8174 63.2846C17.6501 63.7529 17.5979 64.2544 17.6653 64.747C17.7326 65.2395 17.9176 65.7088 18.2045 66.1153C18.4914 66.5218 18.872 66.8536 19.3142 67.0829C19.7564 67.3122 20.2473 67.4322 20.7457 67.433L118.098 67.6053H118.103C118.618 67.6053 119.125 67.4777 119.579 67.2341C120.032 66.9904 120.418 66.6383 120.702 66.2092C120.985 65.7802 121.158 65.2877 121.204 64.7758C121.25 64.2639 121.167 63.7487 120.964 63.2763L120.795 63.3488L120.964 63.2763L107.411 31.7299C107.171 31.171 106.772 30.6946 106.263 30.36C105.755 30.0253 105.158 29.8472 104.549 29.8477Z" fill="#3F3D56"/>
<path d="M121.216 63.9582C121.216 64.3789 121.13 64.7952 120.964 65.1819L107.411 89.4654C107.17 90.0231 106.77 90.4983 106.262 90.8323C105.753 91.1664 105.158 91.3448 104.549 91.3456H31.9615C31.319 91.345 30.6924 91.1466 30.1671 90.7776C29.6418 90.4087 29.2434 89.887 29.0263 89.2838L17.8177 65.1735C17.6803 64.7894 17.6201 64.3821 17.6406 63.9747C17.6612 63.5674 17.762 63.1681 17.9373 62.7997C18.1126 62.4313 18.359 62.1009 18.6624 61.8275C18.9657 61.5541 19.3202 61.343 19.7054 61.2064C20.0386 61.0863 20.3902 61.0249 20.7444 61.0248L32.6364 61.0024L37.4902 60.994L101.359 60.8823L106.215 60.8739L118.099 60.8516H118.101C118.927 60.8517 119.72 61.1791 120.304 61.7616C120.888 62.3442 121.216 63.1343 121.216 63.9582Z" fill="#3F3D56"/>
<path d="M28.1453 108.303C29.5847 108.303 49.351 109.508 49.351 110.944C49.351 112.379 29.5847 113.502 28.1453 113.502C27.4541 113.502 26.7912 113.228 26.3024 112.741C25.8136 112.253 25.5391 111.592 25.5391 110.903C25.5391 110.213 25.8136 109.552 26.3024 109.064C26.7912 108.577 27.4541 108.303 28.1453 108.303Z" fill="#3F3D56"/>
<path d="M100.028 10.7617H38.8236C37.1833 10.7636 35.6108 11.4144 34.4509 12.5714C33.2911 13.7283 32.6386 15.297 32.6367 16.9332V91.3454H104.549C105.139 91.3473 105.718 91.1795 106.215 90.8621V16.9332C106.213 15.297 105.561 13.7283 104.401 12.5714C103.241 11.4144 101.669 10.7636 100.028 10.7617Z" fill="#E6E6E6"/>
<path d="M76.6691 15.7656H43.1273C41.6337 15.7671 40.2017 16.3594 39.1453 17.4126C38.0889 18.4659 37.4944 19.894 37.4922 21.3839V91.3457H101.361V40.3956C101.353 33.8656 98.7492 27.6053 94.1203 22.9879C89.4914 18.3705 83.2154 15.7732 76.6691 15.7656Z" fill="white"/>
<path d="M90.4789 85.1328H48.3724C48.0084 85.1328 47.6593 85.277 47.402 85.5338C47.1446 85.7905 47 86.1387 47 86.5018C47 86.8648 47.1446 87.213 47.402 87.4697C47.6593 87.7265 48.0084 87.8707 48.3724 87.8707H90.4789C90.8429 87.8707 91.192 87.7265 91.4493 87.4697C91.7067 87.213 91.8513 86.8648 91.8513 86.5018C91.8513 86.1387 91.7067 85.7905 91.4493 85.5338C91.192 85.277 90.8429 85.1328 90.4789 85.1328Z" fill="#E4E4E4"/>
<path d="M90.4764 79.7168H48.3699C48.0055 79.7168 47.6561 79.8612 47.3985 80.1182C47.1408 80.3752 46.9961 80.7237 46.9961 81.0871C46.9961 81.4506 47.1408 81.7991 47.3985 82.0561C47.6561 82.3131 48.0055 82.4575 48.3699 82.4575H90.4764C90.8408 82.4575 91.1902 82.3131 91.4478 82.0561C91.7054 81.7991 91.8502 81.4506 91.8502 81.0871C91.8502 80.7237 91.7054 80.3752 91.4478 80.1182C91.1902 79.8612 90.8408 79.7168 90.4764 79.7168Z" fill="#E4E4E4"/>
<path d="M66.6249 74.3066H48.3724C48.0084 74.3066 47.6593 74.4509 47.402 74.7076C47.1446 74.9643 47 75.3125 47 75.6756C47 76.0387 47.1446 76.3869 47.402 76.6436C47.6593 76.9003 48.0084 77.0445 48.3724 77.0445H66.6249C66.9888 77.0445 67.3379 76.9003 67.5953 76.6436C67.8527 76.3869 67.9972 76.0387 67.9972 75.6756C67.9972 75.3125 67.8527 74.9643 67.5953 74.7076C67.3379 74.4509 66.9888 74.3066 66.6249 74.3066Z" fill="#E4E4E4"/>
<path d="M90.4764 62.9688H48.3699C48.0055 62.9688 47.6561 63.1131 47.3985 63.3701C47.1408 63.6271 46.9961 63.9757 46.9961 64.3391C46.9961 64.7025 47.1408 65.0511 47.3985 65.3081C47.6561 65.5651 48.0055 65.7094 48.3699 65.7094H90.4764C90.8408 65.7094 91.1902 65.5651 91.4478 65.3081C91.7054 65.0511 91.8502 64.7025 91.8502 64.3391C91.8502 63.9757 91.7054 63.6271 91.4478 63.3701C91.1902 63.1131 90.8408 62.9688 90.4764 62.9688Z" fill="#E4E4E4"/>
<path d="M90.4789 57.5566H48.3724C48.0084 57.5566 47.6593 57.7009 47.402 57.9576C47.1446 58.2143 47 58.5625 47 58.9256C47 59.2887 47.1446 59.6369 47.402 59.8936C47.6593 60.1503 48.0084 60.2945 48.3724 60.2945H90.4789C90.8429 60.2945 91.192 60.1503 91.4493 59.8936C91.7067 59.6369 91.8513 59.2887 91.8513 58.9256C91.8513 58.5625 91.7067 58.2143 91.4493 57.9576C91.192 57.7009 90.8429 57.5566 90.4789 57.5566Z" fill="#E4E4E4"/>
<path d="M66.6224 52.1426H48.3699C48.0055 52.1426 47.6561 52.287 47.3985 52.5439C47.1408 52.8009 46.9961 53.1495 46.9961 53.5129C46.9961 53.8764 47.1408 54.2249 47.3985 54.4819C47.6561 54.7389 48.0055 54.8833 48.3699 54.8833H66.6224C66.9867 54.8833 67.3362 54.7389 67.5938 54.4819C67.8514 54.2249 67.9962 53.8764 67.9962 53.5129C67.9962 53.1495 67.8514 52.8009 67.5938 52.5439C67.3362 52.287 66.9867 52.1426 66.6224 52.1426Z" fill="#E4E4E4"/>
<path d="M90.4764 40.8066H48.3699C48.0055 40.8066 47.6561 40.951 47.3985 41.208C47.1408 41.465 46.9961 41.8135 46.9961 42.177C46.9961 42.5404 47.1408 42.889 47.3985 43.146C47.6561 43.403 48.0055 43.5473 48.3699 43.5473H90.4764C90.8408 43.5473 91.1902 43.403 91.4478 43.146C91.7054 42.889 91.8502 42.5404 91.8502 42.177C91.8502 41.8135 91.7054 41.465 91.4478 41.208C91.1902 40.951 90.8408 40.8066 90.4764 40.8066Z" fill="#30E3CA"/>
<path d="M90.4764 35.3945H48.3699C48.0055 35.3945 47.6561 35.5389 47.3985 35.7959C47.1408 36.0529 46.9961 36.4014 46.9961 36.7649C46.9961 37.1283 47.1408 37.4769 47.3985 37.7339C47.6561 37.9908 48.0055 38.1352 48.3699 38.1352H90.4764C90.8408 38.1352 91.1902 37.9908 91.4478 37.7339C91.7054 37.4769 91.8502 37.1283 91.8502 36.7649C91.8502 36.4014 91.7054 36.0529 91.4478 35.7959C91.1902 35.5389 90.8408 35.3945 90.4764 35.3945Z" fill="#30E3CA"/>
<path d="M66.6224 29.9805H48.3699C48.0055 29.9805 47.6561 30.1248 47.3985 30.3818C47.1408 30.6388 46.9961 30.9874 46.9961 31.3508C46.9961 31.7143 47.1408 32.0628 47.3985 32.3198C47.6561 32.5768 48.0055 32.7212 48.3699 32.7212H66.6224C66.9867 32.7212 67.3362 32.5768 67.5938 32.3198C67.8514 32.0628 67.9962 31.7143 67.9962 31.3508C67.9962 30.9874 67.8514 30.6388 67.5938 30.3818C67.3362 30.1248 66.9867 29.9805 66.6224 29.9805Z" fill="#30E3CA"/>
<path d="M103.919 21.3237C109.822 21.3237 114.607 16.5502 114.607 10.6618C114.607 4.77347 109.822 0 103.919 0C98.0159 0 93.2305 4.77347 93.2305 10.6618C93.2305 16.5502 98.0159 21.3237 103.919 21.3237Z" fill="#30E3CA"/>
<path d="M102.462 16.2115C102.278 16.2115 102.096 16.1686 101.931 16.0862C101.765 16.0039 101.622 15.8843 101.511 15.737L98.5952 11.8586C98.501 11.7341 98.4324 11.5922 98.3933 11.4411C98.3541 11.2901 98.3453 11.1328 98.3672 10.9783C98.3891 10.8238 98.4414 10.6752 98.521 10.5409C98.6006 10.4066 98.7059 10.2893 98.8311 10.1957C98.9562 10.1021 99.0986 10.034 99.2502 9.99541C99.4017 9.9568 99.5594 9.94839 99.7142 9.97067C99.869 9.99295 100.018 10.0455 100.152 10.1252C100.287 10.205 100.404 10.3105 100.498 10.4355L102.405 12.9726L107.305 5.64141C107.48 5.37969 107.752 5.19801 108.061 5.13632C108.37 5.07463 108.691 5.138 108.954 5.31248C109.216 5.48696 109.398 5.75826 109.46 6.0667C109.522 6.37514 109.458 6.69545 109.284 6.95716L103.452 15.6833C103.346 15.8411 103.204 15.9714 103.038 16.0632C102.871 16.1551 102.685 16.2058 102.495 16.2111C102.484 16.2113 102.473 16.2115 102.462 16.2115Z" fill="white"/>
</g>
<defs>
<clipPath id="clip0_1009_206">
<rect width="189" height="165" fill="white"/>
</clipPath>
</defs>
</svg>